<svg width="127" height="82" viewBox="0 0 127 82" fill="none" xmlns="http://www.w3.org/2000/svg">
<path fill-rule="evenodd" clip-rule="evenodd" d="M64.7182 50.2248C70.0726 42.6517 69.982 36.6568 64.8373 31.4119L64.7182 50.2248ZM81.0675 53.9205L77.101 57.856L78.3166 53.8279L78.4765 53.6953L78.1531 53.6681L74.1279 57.6635L75.3488 53.6299L75.5763 53.4483L75.1373 53.4084L71.1602 57.3547L72.3757 53.3266L72.5534 53.1832L72.198 53.1523L68.2724 57.0442L69.4844 53.0125L69.5946 52.9198L69.1734 52.8835L65.3242 56.6973L66.5309 52.6692L66.554 52.6511L66.1186 52.6129L62.4258 56.2742L63.5969 52.3932L62.5839 52.3042L63.4849 47.7731L63.0264 29.7593L78.9954 31.1504C90.0359 35.9437 91.7893 42.8678 84.2556 51.9228L81.7321 53.9732L81.0657 53.9151L81.0675 53.9205ZM63.3801 30.0607C63.2646 29.9609 63.1455 29.8628 63.0247 29.7647L63.3801 30.0607ZM86.2051 40.5941L72.4433 39.3954C72.1548 39.3714 71.8688 39.4654 71.6482 39.6568C71.4276 39.8482 71.2904 40.1213 71.2668 40.4161C71.2433 40.7109 71.3352 41.0031 71.5225 41.2286C71.7098 41.4541 71.9771 41.5942 72.2655 41.6183L86.0256 42.8169C86.314 42.841 86.6 42.747 86.8207 42.5556C87.0413 42.3642 87.1785 42.0911 87.202 41.7963C87.2256 41.5015 87.1336 41.2093 86.9463 40.9838C86.759 40.7583 86.4917 40.6181 86.2033 40.5941H86.2051ZM84.8634 44.5204L71.1016 43.3218C70.9558 43.3038 70.8079 43.3161 70.6669 43.3578C70.5259 43.3996 70.3945 43.4701 70.2808 43.5649C70.167 43.6598 70.0731 43.7772 70.0048 43.91C69.9365 44.0428 69.8951 44.1884 69.8831 44.338C69.8712 44.4875 69.8889 44.638 69.9352 44.7804C69.9815 44.9228 70.0554 45.0542 70.1526 45.1667C70.2498 45.2793 70.3682 45.3706 70.5007 45.4352C70.6332 45.4998 70.7771 45.5365 70.9238 45.5429L84.6857 46.7415C84.8314 46.7595 84.9793 46.7473 85.1203 46.7055C85.2613 46.6637 85.3927 46.5933 85.5065 46.4984C85.6202 46.4035 85.7141 46.2861 85.7824 46.1533C85.8507 46.0205 85.8921 45.8749 85.9041 45.7254C85.916 45.5758 85.8983 45.4253 85.852 45.2829C85.8057 45.1405 85.7318 45.0091 85.6346 44.8966C85.5374 44.7841 85.419 44.6928 85.2865 44.6281C85.154 44.5635 85.0101 44.5269 84.8634 44.5204ZM83.5234 48.4468L69.7616 47.2464C69.4732 47.2211 69.1867 47.3139 68.9653 47.5045C68.7438 47.6951 68.6055 47.9677 68.5807 48.2625C68.556 48.5573 68.6469 48.85 68.8333 49.0763C69.0198 49.3026 69.2866 49.444 69.575 49.4693L83.3457 50.6715C83.6344 50.6956 83.9206 50.6015 84.1414 50.4099C84.3622 50.2184 84.4995 49.945 84.5231 49.65C84.5466 49.355 84.4545 49.0625 84.2671 48.8368C84.0796 48.6112 83.8121 48.4709 83.5234 48.4468Z" fill="#36454D"/>
<path fill-rule="evenodd" clip-rule="evenodd" d="M70.9954 22.7034L69.7194 24.3506L71.5694 26.5662L70.9954 22.7034ZM60.0449 12.0884L63.6595 12.5842L72.6694 21.8916L74.9192 22.4364L78.875 30.173L70.1281 29.2813L60.0449 12.0884ZM74.4252 24.1981L72.6481 23.8348L73.7143 27.9229L76.0352 28.1589L74.4216 24.2071L74.4252 24.1981Z" fill="#36454D"/>
<path fill-rule="evenodd" clip-rule="evenodd" d="M38.0987 26.7931C40.058 20.5514 43.9775 15.1446 49.2496 11.4108C54.5216 7.67712 60.8517 5.8251 67.2585 6.14188C73.6653 6.45867 79.7909 8.92657 84.6856 13.163C89.5803 17.3994 92.9707 23.1677 94.3313 29.5736C93.9041 22.6438 91.2519 16.0516 86.786 10.8188C82.32 5.58601 76.2896 2.00489 69.6297 0.630573C52.925 -2.81999 36.6521 8.23816 33.2828 25.3058C32.1155 31.2222 32.6335 37.3567 34.7755 42.9814C36.9174 48.606 40.5933 53.4846 45.367 57.0383C42.4645 54.1055 40.1971 50.5824 38.7117 46.6972C37.2264 42.8119 36.5562 38.6511 36.7445 34.4843L49.7333 36.3893L52.271 28.5039L58.9404 21.4211L49.7582 27.6649L47.1494 33.2203L41.6084 32.2196L37.0502 31.3951C37.084 31.1717 37.1195 30.9465 37.1568 30.7213L46.6803 32.3667L49.1042 27.3271L58.4891 20.8309L58.6792 20.3932L64.0905 26.5589L63.7528 27.5995L69.292 29.1341L59.5411 12.3825L50.1456 19.5851L45.0649 27.7429L38.0987 26.7931ZM65.2385 24.8081L59.0808 15.2991L59.518 14.3166L65.7058 24.5067L65.2385 24.8081ZM58.2403 16.9699L51.3096 19.2073L58.5619 15.4789L59.7881 17.7L59.5322 18.3865L58.2385 16.9699H58.2403Z" fill="#F0803B"/>
<path d="M3.89183 65.2726V66.82H8.35056V69.8292H3.89183V71.2367H9.15914L8.33279 74.6509H0V61.8584H8.43586L9.12537 65.2726H3.89183Z" fill="#36454D"/>
<path d="M17.7068 74.6509H13.248L15.7431 68.4217L13.2818 61.8584H17.6375L18.8779 66.4858L20.1005 61.8584H24.4562L21.9931 68.4217L24.5077 74.6509H20.0134L18.8779 70.5865L17.7068 74.6509Z" fill="#36454D"/>
<path d="M31.4704 74.6435C31.052 74.6506 30.6343 74.6061 30.2264 74.5109C29.9192 74.4391 29.6352 74.2877 29.4018 74.0714C29.1788 73.8486 29.018 73.569 28.9362 73.2614C28.8301 72.8572 28.7811 72.4395 28.7905 72.021V64.5151C28.7795 64.0757 28.8316 63.637 28.9451 63.213C29.0309 62.9018 29.2009 62.6217 29.4356 62.4048C29.6833 62.1927 29.9789 62.0472 30.2957 61.9817C30.7176 61.8925 31.1479 61.8511 31.5788 61.8582H37.0024L37.7133 65.2725H33.3647C33.2814 65.2503 33.1939 65.2508 33.1108 65.2739C33.0277 65.297 32.952 65.3419 32.8911 65.4041C32.8302 65.4663 32.7863 65.5437 32.7637 65.6286C32.7411 65.7135 32.7406 65.803 32.7623 65.8881V70.5337C32.759 70.6553 32.7674 70.7769 32.7872 70.8969C32.8 70.9761 32.836 71.0495 32.8903 71.1075C32.952 71.1664 33.0304 71.2039 33.1142 71.2147C33.2484 71.2338 33.3838 71.2423 33.5193 71.2401H37.8928L37.0486 74.6435H31.4704Z" fill="#36454D"/>
<path d="M41.9805 74.6437L45.1384 61.8584H50.7682L53.9279 74.6437H49.8406L49.5811 73.278H46.3539L46.0784 74.6437H41.9805ZM46.9048 70.5429H49.0053L47.9551 65.2999L46.9048 70.5429Z" fill="#36454D"/>
<path d="M59.8239 74.6509L56.4492 61.8584H60.668L62.5109 70.6737L64.3697 61.8584H68.4837L65.1268 74.6509H59.8239Z" fill="#36454D"/>
<path d="M71.0059 74.6436L74.1566 61.8511H79.7918L82.9533 74.6436H78.8571L78.5994 73.2706H75.3793L75.1038 74.6436H71.0059ZM75.9302 70.5429H78.0307L76.9804 65.2998L75.9302 70.5429Z" fill="#36454D"/>
<path d="M86.267 61.8584H95.22L95.9255 65.2726H92.86V74.6509H88.6252V65.2726H85.5615L86.267 61.8584Z" fill="#36454D"/>
<path d="M102.579 74.6434C102.291 74.6574 102.002 74.6099 101.732 74.5039C101.463 74.3979 101.217 74.2358 101.012 74.0278C100.816 73.817 100.663 73.5683 100.563 73.2963C100.463 73.0244 100.417 72.7346 100.427 72.4442V64.0756C100.417 63.7839 100.464 63.493 100.564 63.2196C100.664 62.9463 100.817 62.6959 101.012 62.4829C101.216 62.2727 101.461 62.1084 101.731 62.0008C102.001 61.8932 102.29 61.8446 102.579 61.8582H108.977C109.267 61.845 109.557 61.8937 109.829 62.0012C110.1 62.1088 110.346 62.2728 110.551 62.4829C110.75 62.6944 110.904 62.9442 111.007 63.2177C111.109 63.4913 111.157 63.783 111.147 64.0756V72.4514C111.152 72.7601 111.091 73.0661 110.969 73.3486C110.852 73.6132 110.682 73.8496 110.47 74.0423C110.253 74.2393 110.002 74.3917 109.729 74.4909C109.44 74.5993 109.134 74.6534 108.826 74.6507L102.579 74.6434ZM106.626 71.2365C106.708 71.2468 106.791 71.2404 106.871 71.2176C106.95 71.1949 107.025 71.1562 107.09 71.1039C107.186 70.9632 107.229 70.7915 107.21 70.6208V65.8699C107.232 65.6948 107.185 65.5181 107.081 65.3778C106.943 65.28 106.775 65.2362 106.608 65.2543H104.938C104.77 65.2325 104.601 65.2767 104.465 65.3778C104.375 65.5184 104.335 65.6865 104.353 65.8536V70.6208C104.333 70.7931 104.373 70.9671 104.465 71.113C104.601 71.2149 104.77 71.2591 104.938 71.2365H106.626Z" fill="#36454D"/>
<path d="M120.716 70.6918H120.199V74.6437H116.111V61.8584H123.824C124.812 61.8584 125.532 62.0818 125.985 62.5285C126.437 62.9753 126.664 63.7017 126.665 64.7078V68.0676C126.666 68.3311 126.625 68.5929 126.545 68.8431C126.469 69.0813 126.348 69.3022 126.189 69.4932C126.029 69.6854 125.83 69.8386 125.605 69.9418C125.353 70.0565 125.08 70.1135 124.805 70.1089C125.042 70.1519 125.259 70.2723 125.423 70.4521C125.588 70.6562 125.709 70.8931 125.779 71.1477L127 74.6437H122.619L121.482 71.2639C121.426 71.0971 121.328 70.9484 121.197 70.8335C121.062 70.7286 120.894 70.6759 120.725 70.6846L120.716 70.6918ZM120.129 67.7861H121.663C122.111 67.7861 122.408 67.7189 122.552 67.5845C122.695 67.4501 122.777 67.2122 122.777 66.8708V65.8538C122.777 65.3489 122.54 65.0965 122.066 65.0965H120.131V67.7879L120.129 67.7861Z" fill="#36454D"/>
<path d="M26.5093 81.7665L26.2729 80.5933H28.0785C28.1019 80.5962 28.1254 80.5897 28.1442 80.5752C28.1581 80.5537 28.1643 80.5281 28.162 80.5025V80.2011C28.162 80.132 28.13 80.0975 28.066 80.0975H27.1082C26.9614 80.1004 26.8147 80.0864 26.671 80.0558C26.5692 80.0344 26.4751 79.9848 26.3991 79.9123C26.3268 79.8383 26.2774 79.7442 26.2569 79.6417C26.2256 79.4975 26.2112 79.3499 26.2143 79.2022V78.3196C26.211 78.1674 26.2271 78.0153 26.2623 77.8674C26.2881 77.7572 26.3435 77.6566 26.4222 77.5768C26.5052 77.4995 26.6061 77.4452 26.7154 77.4188C26.8598 77.3839 27.0079 77.368 27.1561 77.3716H29.2887L29.525 78.543H27.6217C27.6107 78.5416 27.5995 78.5425 27.5889 78.5456C27.5782 78.5488 27.5682 78.554 27.5595 78.5611C27.5464 78.5828 27.5408 78.6084 27.5436 78.6338V78.9734C27.5426 78.9988 27.5488 79.024 27.5613 79.046C27.5706 79.0552 27.5819 79.0621 27.5942 79.0662C27.6065 79.0703 27.6196 79.0715 27.6324 79.0696H28.6738C28.8187 79.0665 28.9636 79.0799 29.1056 79.1096C29.2088 79.1288 29.3044 79.178 29.3811 79.2512C29.4548 79.3279 29.5059 79.4242 29.5286 79.5291C29.5615 79.6737 29.5764 79.822 29.573 79.9704V80.8403C29.5766 80.9903 29.5599 81.14 29.5232 81.2853C29.496 81.3933 29.4408 81.4918 29.3633 81.5704C29.2808 81.6449 29.1811 81.6968 29.0736 81.7211C28.9289 81.7534 28.781 81.7687 28.6329 81.7665H26.5093Z" fill="#36454D"/>
<path d="M31.7314 81.7665V77.3716H33.1158V80.5933H34.6708L34.3811 81.7665H31.7314Z" fill="#36454D"/>
<path d="M37.4328 81.7663C37.3344 81.7705 37.2361 81.7538 37.1444 81.7173C37.0526 81.6807 36.9693 81.625 36.8997 81.5538C36.8322 81.4813 36.7796 81.3958 36.7451 81.3022C36.7106 81.2086 36.6949 81.1089 36.6988 81.0089V78.1323C36.6925 77.9306 36.7647 77.7347 36.8997 77.5874C36.9691 77.5159 37.0524 77.4599 37.1442 77.423C37.2359 77.3861 37.3342 77.3691 37.4328 77.3731H39.6293C39.7278 77.3691 39.8261 77.3861 39.9179 77.423C40.0097 77.4599 40.0929 77.5159 40.1624 77.5874C40.2303 77.6597 40.2834 77.7451 40.3185 77.8387C40.3536 77.9323 40.37 78.0321 40.3668 78.1323V81.0108C40.3678 81.1164 40.3466 81.2211 40.3046 81.3177C40.2623 81.4094 40.2018 81.491 40.1269 81.5574C40.0524 81.6247 39.9662 81.6771 39.8727 81.7118C39.7731 81.7488 39.6678 81.7672 39.5617 81.7663H37.4328ZM38.8225 80.5931C38.8507 80.5968 38.8795 80.5947 38.9069 80.5869C38.9344 80.5791 38.9601 80.5658 38.9824 80.5477C39.0161 80.4992 39.0313 80.4397 39.0251 80.3806V78.7461C39.0317 78.6855 39.0158 78.6246 38.9806 78.5754C38.9325 78.5425 38.8747 78.5277 38.8171 78.5336H38.2431C38.186 78.5261 38.1282 78.541 38.0814 78.5754C38.0498 78.6234 38.0359 78.6813 38.0423 78.7388V80.3733C38.0354 80.4331 38.0493 80.4935 38.0814 80.544C38.1282 80.5784 38.186 80.5933 38.2431 80.5858L38.8225 80.5931Z" fill="#36454D"/>
<path d="M44.1161 78.5426C44.0588 78.5361 44.0011 78.5517 43.9544 78.5862C43.9364 78.6099 43.9232 78.6371 43.9156 78.6661C43.908 78.6951 43.906 78.7253 43.9099 78.7551V80.435C43.9024 80.4956 43.9183 80.5569 43.9544 80.6057C44.0018 80.6386 44.059 80.6534 44.1161 80.6474H44.8269V80.0554H44.555V79.1601H46.11V81.7026L44.8269 82.0004V81.7643H43.4603C43.3123 81.7675 43.1643 81.7528 43.0196 81.7207C42.9144 81.6996 42.8171 81.6486 42.7388 81.5736C42.6647 81.4968 42.6125 81.4007 42.5878 81.2958C42.5553 81.156 42.5403 81.0126 42.5434 80.869V78.3138C42.5403 78.1653 42.5552 78.0171 42.5878 77.8724C42.6116 77.7624 42.6638 77.6608 42.7388 77.5782C42.8165 77.4999 42.9136 77.4446 43.0196 77.4184C43.1639 77.3831 43.312 77.3672 43.4603 77.3712H45.6071L45.8434 78.5426H44.1161Z" fill="#36454D"/>
<path d="M48.1152 81.7665L49.1975 77.3716H51.131L52.2203 81.7665H50.8129L50.724 81.2943H49.6169L49.5227 81.7665H48.1152ZM49.807 80.3572H50.5285L50.1731 78.5557L49.8177 80.3572H49.807Z" fill="#36454D"/>
<path d="M54.2119 77.3716H55.5323L56.5968 79.342V77.3716H57.9456V81.7665H56.6199L55.5554 79.8433V81.7665H54.2119V77.3716Z" fill="#36454D"/>
<path d="M62.376 81.7664C62.2319 81.7686 62.0882 81.7534 61.9477 81.721C61.842 81.6959 61.7443 81.6441 61.6633 81.5703C61.5867 81.4932 61.5315 81.3967 61.5034 81.2906C61.467 81.1521 61.4502 81.009 61.4536 80.8656V78.2759C61.4498 78.1251 61.4677 77.9745 61.507 77.8291C61.5363 77.722 61.5949 77.6257 61.6758 77.5513C61.7603 77.4778 61.8619 77.4277 61.9708 77.406C62.1157 77.375 62.2635 77.361 62.4115 77.3642H64.2757L64.5174 78.5356H63.0264C62.998 78.5304 62.9688 78.5323 62.9414 78.5411C62.9139 78.55 62.8889 78.5655 62.8686 78.5864C62.8484 78.6074 62.8333 78.633 62.8249 78.6611C62.8165 78.6893 62.8149 78.7191 62.8202 78.7481V80.3444C62.8188 80.3858 62.8218 80.4272 62.8291 80.4679C62.8332 80.4953 62.8457 80.5207 62.8647 80.5405C62.8856 80.5608 62.9124 80.5735 62.9411 80.5769C62.987 80.5835 63.0333 80.5865 63.0797 80.5859H64.5831L64.2934 81.7591L62.376 81.7664Z" fill="#36454D"/>
<path d="M67.3518 81.7665C67.2534 81.7707 67.1552 81.7541 67.0634 81.7175C66.9717 81.6809 66.8883 81.6252 66.8187 81.554C66.7509 81.4818 66.6981 81.3963 66.6636 81.3026C66.6291 81.209 66.6135 81.1091 66.6179 81.0092V78.1325C66.6144 78.0326 66.6303 77.933 66.6648 77.8395C66.6992 77.7459 66.7516 77.6603 66.8187 77.5876C66.8882 77.5161 66.9714 77.4601 67.0632 77.4232C67.155 77.3863 67.2533 77.3693 67.3518 77.3734H69.5554C69.6554 77.3686 69.7552 77.3852 69.8486 77.4221C69.9419 77.459 70.0267 77.5154 70.0975 77.5876C70.1651 77.6601 70.218 77.7456 70.253 77.8391C70.2881 77.9327 70.3047 78.0324 70.3018 78.1325V81.011C70.3029 81.1167 70.2817 81.2213 70.2396 81.3179C70.1969 81.4093 70.1365 81.4909 70.0619 81.5576C69.9872 81.6246 69.901 81.6769 69.8078 81.712C69.7081 81.7487 69.6028 81.7671 69.4968 81.7665H67.3518ZM68.7415 80.5933C68.7986 80.6002 68.8561 80.5839 68.9015 80.5479C68.9337 80.4987 68.9482 80.4397 68.9423 80.3808V78.7463C68.9499 78.6857 68.934 78.6244 68.8979 78.5756C68.8505 78.5427 68.7932 78.5279 68.7362 78.5338H68.1622C68.1045 78.5268 68.0463 78.5416 67.9987 78.5756C67.9687 78.6243 67.9555 78.6818 67.9614 78.739V80.3735C67.955 80.4331 67.9681 80.4931 67.9987 80.5442C68.0463 80.5782 68.1045 80.5931 68.1622 80.586L68.7415 80.5933Z" fill="#36454D"/>
<path d="M72.4717 77.3716H74.1635L74.8903 79.1059L75.6473 77.3716H77.3338V81.7665H75.9672V79.6326L74.8903 81.7484L73.8383 79.6326V81.7665H72.4717V77.3716Z" fill="#36454D"/>
<path d="M79.5039 77.3677H82.1536C82.2988 77.3642 82.4439 77.3794 82.5854 77.4131C82.6891 77.4362 82.7845 77.4884 82.8608 77.5638C82.9347 77.6425 82.9857 77.7406 83.0083 77.8471C83.041 77.993 83.0559 78.1425 83.0528 78.2921V79.7286C83.0562 79.88 83.0412 80.0313 83.0083 80.179C82.9865 80.2877 82.934 80.3874 82.8572 80.4659C82.7805 80.5443 82.6829 80.598 82.5765 80.6203C82.4344 80.6537 82.2887 80.669 82.1429 80.6657H80.8829V81.7662H79.5039V77.3677ZM81.5102 79.5252C81.5827 79.5338 81.6557 79.5157 81.7164 79.4743C81.7597 79.4143 81.7788 79.3395 81.7697 79.2655V78.7824C81.7791 78.7089 81.76 78.6346 81.7164 78.5754C81.6545 78.5373 81.5821 78.5207 81.5102 78.5282H80.8829V79.5252H81.5102Z" fill="#36454D"/>
<path d="M84.7676 81.7665L85.8498 77.3716H87.7886L88.8762 81.7665H87.4688L87.3799 81.2943H86.2728L86.1786 81.7665H84.7676ZM86.4594 80.3572H87.1809L86.8254 78.5557L86.47 80.3572H86.4594Z" fill="#36454D"/>
<path d="M90.8594 77.3716H92.1798L93.2442 79.342V77.3716H94.593V81.7665H93.2673L92.2029 79.8433V81.7665H90.8594V77.3716Z" fill="#36454D"/>
<path d="M98.1573 77.3716L98.6904 78.9915L99.1631 77.3716H100.784L99.4119 80.3518V81.7665H97.9209V80.3518L96.5312 77.3716H98.1573Z" fill="#36454D"/>
</svg>
