<svg width="143" height="75" viewBox="0 0 143 75" fill="none" xmlns="http://www.w3.org/2000/svg">
<path d="M137.948 55.921C138.159 55.93 138.369 55.8895 138.562 55.8025C138.714 55.7257 138.849 55.6178 138.958 55.4857C139.122 55.2919 139.212 55.046 139.211 54.792C139.216 54.6528 139.192 54.5141 139.141 54.3846C139.089 54.2551 139.012 54.1376 138.913 54.0393C138.703 53.8011 138.377 53.682 137.942 53.682H131.902C131.706 53.682 131.604 53.7802 131.604 53.9798V55.9204H137.945L137.948 55.921ZM131.61 63.7177H128.023V51.1731C128.023 50.62 128.321 50.3431 128.911 50.3431H138.422C139.254 50.3431 139.94 50.4586 140.48 50.6897C140.993 50.9013 141.458 51.2142 141.846 51.6096C142.18 51.9565 142.445 52.3629 142.628 52.8077C142.82 53.2621 142.918 53.7507 142.916 54.244C142.919 54.768 142.825 55.288 142.639 55.7778C142.453 56.2574 142.124 56.6711 141.65 57.0139C142.07 57.2469 142.411 57.5979 142.632 58.0232C142.835 58.4325 142.94 59.0172 142.94 59.7845V62.4569C142.94 62.7477 142.944 62.9859 142.951 63.1677C142.958 63.3496 142.976 63.5358 143 63.7215H139.373C139.334 63.4274 139.314 63.1311 139.314 62.8345V60.1596C139.314 59.7389 139.202 59.4341 138.977 59.2485C138.753 59.0629 138.378 58.9723 137.849 58.9723H131.609V63.7177H131.61ZM116.383 53.8828C115.777 53.8828 115.276 53.9633 114.879 54.121C114.5 54.2673 114.151 54.4821 113.849 54.7546C113.543 55.0474 113.298 55.3972 113.127 55.7842C112.948 56.1825 112.857 56.6147 112.86 57.0513C112.858 57.4468 112.932 57.839 113.077 58.2069C113.218 58.5635 113.426 58.8895 113.691 59.1668C113.996 59.4933 114.368 59.7502 114.781 59.9201C115.215 60.1057 115.752 60.1963 116.386 60.1963H119.198C119.832 60.1963 120.365 60.1057 120.804 59.9201C121.217 59.7504 121.589 59.4935 121.894 59.1668C122.158 58.8899 122.366 58.5643 122.507 58.2082C122.652 57.8402 122.726 57.4481 122.724 57.0526C122.727 56.616 122.636 56.1839 122.458 55.7854C122.285 55.3992 122.04 55.0497 121.736 54.7559C121.433 54.4849 121.084 54.2703 120.705 54.1223C120.309 53.9646 119.807 53.8841 119.201 53.8841H116.383V53.8828ZM116.383 63.7177C115.178 63.7177 114.139 63.5219 113.253 63.1329C112.398 62.7639 111.629 62.2213 110.995 61.5395C109.871 60.3074 109.254 58.6954 109.271 57.0278C109.264 56.0866 109.46 55.1548 109.845 54.2959C110.22 53.4643 110.759 52.7173 111.43 52.1C112.042 51.5341 112.759 51.0938 113.541 50.8043C114.354 50.4926 115.302 50.3374 116.383 50.3387H119.195C120.278 50.3387 121.225 50.4939 122.037 50.8043C122.819 51.0944 123.536 51.5346 124.148 52.1C124.82 52.7169 125.359 53.4641 125.733 54.2959C126.456 55.9477 126.499 57.8176 125.852 59.5007C125.537 60.3107 125.063 61.0495 124.457 61.6733C123.851 62.2972 123.127 62.7935 122.326 63.1329C121.443 63.5219 120.399 63.7168 119.196 63.7177H116.383ZM108.955 50.3418V53.8828H103.094V63.7177H99.4893V53.8828H93.6075V50.3418H108.955ZM89.5519 58.6916L87.4904 53.9037C87.4395 53.7751 87.3512 53.6648 87.2368 53.5869C87.1296 53.5204 87.0054 53.4863 86.8792 53.4887C86.7612 53.4878 86.6451 53.518 86.5425 53.5762C86.4233 53.6528 86.3339 53.7676 86.2888 53.9018L84.2483 58.6897L89.5519 58.6916ZM95.5529 63.1227C95.6007 63.2193 95.643 63.3185 95.6797 63.4199C95.7139 63.5176 95.7431 63.617 95.7672 63.7177H91.7293C91.7008 63.6271 91.6767 63.5428 91.6482 63.4693C91.6196 63.3958 91.5955 63.3255 91.5676 63.2628L90.8562 61.6408H82.9345L82.2421 63.245C82.2135 63.3255 82.1894 63.4028 82.1609 63.4832C82.1348 63.561 82.1149 63.6406 82.1013 63.7215H77.962C77.9899 63.6163 78.0178 63.5181 78.0495 63.4237C78.0855 63.3219 78.1278 63.2224 78.1763 63.1259L82.9681 52.5207C83.3486 51.6898 83.8499 51.0698 84.4722 50.6605C85.0944 50.2512 85.8866 50.047 86.8487 50.0479C87.7847 50.0479 88.5703 50.2506 89.1949 50.6605C89.8194 51.0704 90.3267 51.6901 90.7091 52.5207L95.5396 63.1259L95.5529 63.1227ZM63.4096 50.9336C63.3621 50.8367 63.3197 50.7373 63.2828 50.6358C63.2517 50.5452 63.2194 50.4457 63.1953 50.3387H67.4336C67.4691 50.5003 67.5159 50.6593 67.5737 50.8145L71.5735 60.0544C71.6238 60.1819 71.7102 60.2919 71.8221 60.3712C71.9171 60.4334 72.0278 60.4674 72.1414 60.4693C72.255 60.4712 72.3667 60.4409 72.4638 60.3819C72.5735 60.2991 72.6564 60.1858 72.7022 60.0563L76.6621 50.8145C76.7314 50.6619 76.7841 50.5024 76.8193 50.3387H80.998C80.9701 50.4432 80.9422 50.5414 80.9105 50.6358C80.8745 50.7376 80.8321 50.8371 80.7837 50.9336L75.9919 61.5395C75.6114 62.3694 75.1103 62.9859 74.4884 63.3888C73.8666 63.7918 73.0814 63.9926 72.1328 63.9914C70.2851 63.9914 68.9915 63.1741 68.2522 61.5395L63.4217 50.9336H63.4096Z" fill="#36454D"/>
<path d="M60.0448 58.692L57.9833 53.9041C57.9324 53.7756 57.8441 53.6652 57.7297 53.5874C57.6225 53.5208 57.4983 53.4867 57.3721 53.4892C57.2541 53.4882 57.138 53.5184 57.0354 53.5766C56.9162 53.6532 56.8268 53.768 56.7817 53.9022L54.7412 58.6901L60.0448 58.692ZM66.0458 63.1232C66.0933 63.2199 66.1357 63.3191 66.1726 63.4203C66.2037 63.5115 66.236 63.6104 66.2601 63.7181H62.2248C62.1969 63.6275 62.1721 63.5432 62.1442 63.4697C62.1163 63.3962 62.0916 63.3259 62.0637 63.2632L61.3523 61.6412H53.4299L52.7363 63.2454C52.7077 63.3259 52.6836 63.4032 52.6551 63.4837C52.629 63.5614 52.6091 63.641 52.5955 63.7219H48.4562C48.4841 63.6167 48.512 63.5185 48.5437 63.4241C48.5796 63.3223 48.622 63.2228 48.6705 63.1263L53.4623 52.5211C53.8427 51.6903 54.3441 51.0702 54.9663 50.6609C55.1323 50.5511 55.3083 50.4573 55.492 50.3809H59.1615C59.3457 50.4588 59.5228 50.5525 59.6909 50.6609C60.3178 51.071 60.8226 51.6911 61.2051 52.5211L66.0356 63.1263L66.0458 63.1232ZM47.3902 63.7149H40.3798C39.175 63.7149 38.1364 63.5185 37.2493 63.1301C36.3942 62.7612 35.6254 62.2183 34.9919 61.5361C34.1258 60.5658 33.5572 59.3671 33.354 58.0829C33.1507 56.7987 33.3213 55.4832 33.8455 54.2932C34.2194 53.4613 34.7587 52.7142 35.4307 52.0972C36.0416 51.5312 36.758 51.0907 37.539 50.8009C38.1725 50.5664 38.8356 50.4214 39.5092 50.3701H47.3902V53.8763H40.3798C39.7729 53.8763 39.272 53.9567 38.8757 54.1145C38.4963 54.2608 38.147 54.4755 37.8453 54.7481C37.5397 55.0409 37.2943 55.3906 37.1231 55.7776C36.9442 56.1759 36.8533 56.6081 36.8568 57.0447C36.8547 57.4402 36.9283 57.8325 37.0736 58.2003C37.2141 58.557 37.4226 58.883 37.6874 59.1602C37.9923 59.4867 38.3641 59.7437 38.7774 59.9135C39.2124 60.0991 39.7482 60.1897 40.3829 60.1897H47.3941V63.7136L47.3902 63.7149ZM33.5893 50.3739L27.2668 56.5696L34.0395 63.298C34.1038 63.3625 34.1633 63.4315 34.2177 63.5046C34.2703 63.5781 34.3229 63.6484 34.3756 63.7111H29.2496C29.1577 63.5689 29.0514 63.4364 28.9326 63.3158L24.6734 58.8846L20.1796 63.3158C20.113 63.3791 20.0496 63.4488 19.9894 63.5115C19.9291 63.5743 19.874 63.6446 19.8213 63.7111H15.1094C15.1567 63.6385 15.2093 63.5695 15.2667 63.5046C15.3193 63.445 15.3859 63.3778 15.4632 63.298L22.3748 56.5696L16.3941 50.7731C16.2549 50.6605 16.1353 50.5256 16.0403 50.3739H21.0318C21.126 50.5143 21.2303 50.6477 21.3438 50.7731L24.8877 54.3736L28.9579 50.3739H33.5868H33.5893ZM14.0822 50.3739V53.8801H3.90253C3.69201 53.8801 3.58548 53.9916 3.58548 54.2159V55.7364H14.0226V58.3074H3.58675V59.9319C3.58675 60.1701 3.69243 60.2892 3.90379 60.2892H14.0822V63.7105H1.88359C0.628513 63.7109 0.000976562 63.0913 0.000976562 61.8516V52.1359C0.000976562 51.1057 0.4683 50.5171 1.40295 50.3701H14.0847L14.0822 50.3739Z" fill="#ED3D3D"/>
<path d="M25.8716 69.4166H24.7842V69.4585L26.6522 72.2709V74.278H27.5672V72.2709L29.5018 69.4585V69.4166H28.3979L27.1081 71.4231L25.8716 69.4166ZM33.8288 69.3254C32.1498 69.3254 31.3292 70.6071 31.3292 71.8856C31.3292 73.1642 32.1219 74.3901 33.8288 74.3901C35.5358 74.3901 36.3068 73.1363 36.3208 71.8787C36.3379 70.6109 35.5035 69.3254 33.8314 69.3254H33.8288ZM33.8288 70.1592C34.9753 70.1592 35.4305 71.0734 35.414 71.8926C35.4001 72.6915 34.9702 73.5494 33.8288 73.5494C32.6875 73.5494 32.255 72.6985 32.2341 71.9021C32.2125 71.0829 32.6862 70.1617 33.8288 70.1617V70.1592ZM41.9895 69.4306V72.2113C41.9895 73.0451 41.5584 73.5494 40.8013 73.5494C40.0442 73.5494 39.5458 73.0837 39.5458 72.2113V69.4306H38.6409V72.2113C38.6409 73.6755 39.6326 74.3832 40.7968 74.3832C42.02 74.3832 42.9001 73.6476 42.9001 72.2113V69.4306H41.9921H41.9895ZM49.747 74.2146L48.2746 72.5585C49.1966 72.3729 49.5016 71.7 49.5016 71.0278C49.5016 70.1832 48.8986 69.4236 47.7521 69.4166C46.9811 69.4236 46.21 69.4166 45.4422 69.4166V74.278H46.3572V72.6561H47.2404L48.657 74.278H49.747V74.2146ZM47.7553 70.2675C48.3304 70.2675 48.5898 70.6565 48.5898 71.0487C48.5898 71.4409 48.3412 71.8299 47.7553 71.8299H46.3603V70.2713H47.7553V70.2675ZM54.4228 74.2742H55.3378V70.2466H56.8799V69.4128H52.8838V70.2466H54.4266V74.2742H54.4228ZM62.9373 74.2742H63.9366L61.7611 69.4128H60.7598L58.5792 74.2742H59.5716L59.9882 73.3606H62.5296L62.9373 74.2742ZM62.1593 72.5059H60.3566L61.2576 70.4354L62.158 72.5059H62.1593ZM69.9516 70.0223C69.4713 69.5468 68.8225 69.28 68.1464 69.2798C66.4343 69.2798 65.577 70.5406 65.577 71.9066C65.577 73.1819 66.3202 74.3832 68.1464 74.3832C69.0017 74.3832 69.6048 74.0575 70.0816 73.5107V71.4656H67.9992V72.2848H69.2433V73.1433C68.9385 73.4041 68.5476 73.5425 68.1464 73.5316C66.9416 73.5316 66.4743 72.708 66.4743 71.9103C66.4743 70.9119 67.1083 70.1205 68.1464 70.1205C68.6035 70.1257 69.0428 70.2989 69.3803 70.6071L69.9478 70.0261L69.9516 70.0223ZM72.4753 69.4128V74.2742H75.8898V73.4271H73.3903V69.4128H72.4753ZM79.0939 74.2742V69.4128H78.1859V74.2742H79.0939ZM84.7899 72.4286L82.4096 69.4128H81.6715V74.2742H82.5858V70.9961L85.1412 74.2742H85.7119V69.4128H84.7969L84.7899 72.4286ZM91.8169 73.3758H89.0903V72.2791H91.7192V71.4244H89.0903V70.3005H91.8169V69.4135H88.1817V74.2748H91.8169V73.3758ZM99.788 74.2754V69.428H98.8806V71.4751H96.4901V69.4293H95.5751V74.2767H96.4901V72.3228H98.8775V74.2767L99.788 74.2754ZM105.916 73.3758H103.189V72.2791H105.818V71.4244H103.189V70.3005H105.916V69.4135H102.279V74.2748H105.915V73.3758H105.916ZM112.574 74.2159L111.101 72.5598C112.023 72.3741 112.328 71.7013 112.328 71.0291C112.328 70.1845 111.725 69.4249 110.58 69.4179C109.809 69.4249 109.037 69.4179 108.27 69.4179V74.2793H109.184V72.6573H110.064L111.48 74.2793H112.571V74.2159H112.574ZM110.583 70.2688C111.158 70.2688 111.417 70.6578 111.417 71.05C111.417 71.4421 111.168 71.8312 110.583 71.8312H109.188V70.2713H110.583V70.2688ZM118.214 73.3733H115.487V72.2766H118.116V71.4219H115.487V70.2979H118.214V69.4109H114.581V74.2723H118.216V73.3758L118.214 73.3733Z" fill="#36454D"/>
<path d="M128.259 44.1053H130.493C130.665 44.1056 130.829 44.174 130.951 44.2955C131.072 44.417 131.141 44.5817 131.141 44.7534V48.1791H127.611V44.7521C127.611 44.5805 127.68 44.4161 127.801 44.2948C127.923 44.1736 128.088 44.1054 128.259 44.1053ZM96.3254 42.6367H105.033C105.096 41.0008 105.26 39.4352 105.576 38.4475C106.067 36.9137 107.203 35.8499 108.142 35.2011C108.128 34.2939 108.114 33.2884 108.114 32.9241C108.114 32.2025 108.594 32.2836 108.594 32.2836C108.647 29.4604 108.78 28.1857 106.863 25.7756C103.01 20.9389 98.5022 16.8759 93.9311 12.4802L70.6695 23.7406L71.2795 37.5757L72.8324 41.1129L72.0576 42.458C71.9035 42.9762 74.8552 48.3349 70.9162 44.8294C70.18 44.1743 69.8471 44.0058 69.6613 44.1217C69.4755 44.2377 69.7805 44.9238 70.1172 45.7506C71.0322 48.0163 67.3234 44.3568 67.1269 44.1566C66.8606 43.8905 66.5663 43.8974 66.366 43.9849C66.1656 44.0723 66.4256 44.5842 66.5727 45.0708C66.7198 45.5574 66.6253 45.9255 66.3064 45.7506C66.0641 45.6207 64.6622 44.5703 63.9926 44.0653C63.5126 43.7048 62.8639 43.677 63.0497 44.4366C63.1828 44.9834 63.3033 45.6771 62.6781 45.2812C61.0409 44.2408 59.3174 43.2252 57.5604 42.3706L57.5426 41.2149C50.023 37.2323 48.699 31.4428 54.596 25.6634L56.3169 25.6318C56.2472 24.7283 56.1381 23.6392 56.0931 22.7528L57.9364 22.5114L61.4353 16.1859L64.0535 15.0652H65.068L70.7291 12.2908C70.8972 11.5628 70.7501 11.6673 71.4057 11.3404L82.4547 5.76505L84.8839 6.57791C89.339 4.30468 94.2684 1.23633 99.0983 0.662315C101.033 0.434232 101.562 2.18287 100.711 3.50639L103.402 7.02648C104.181 7.10694 103.999 7.03345 104.48 7.65308L112.83 18.297C114.082 19.4596 115.193 21.2393 115.421 21.7505C115.663 22.2897 116.076 23.3161 116.493 24.5382C117.924 28.7483 119.95 35.5851 119.95 35.5851L136.341 35.3468C139.443 35.3082 140.67 35.9006 141.353 38.7161L141.476 45.3781C141.476 45.3781 142.142 45.8577 142.199 46.3379L142.192 52.4601H136.716V42.7558C136.715 42.5137 136.618 42.2819 136.447 42.1108C136.275 41.9396 136.044 41.8429 135.801 41.8415H124.018C123.776 41.8422 123.543 41.9387 123.372 42.11C123.2 42.2813 123.104 42.5135 123.103 42.7558V48.167H93.4657C93.434 47.6209 93.4023 46.9164 93.3851 46.1289C93.3465 44.3352 94.7732 42.6259 96.3222 42.6259L96.3254 42.6367Z" fill="#36454D"/>
<path d="M69.0955 23.9506L69.4969 39.8411C67.1692 38.6645 63.1871 35.2458 61.9145 31.7118C60.8314 28.7036 62.598 26.2973 63.9023 25.0156C64.9365 23.9962 67.8178 23.9892 69.0974 23.9468L69.0955 23.9506ZM96.8439 7.3835C100.882 10.417 111.91 19.3205 113.457 21.5754C115.325 24.2965 118.957 37.2137 118.957 37.2137L117.783 42.0718C117.783 42.0718 116.983 39.8898 115.944 37.1966V34.4057C115.944 34.1605 115.754 33.9045 115.544 33.9045V30.553C115.664 30.4699 115.76 30.3573 115.824 30.2262C115.887 30.0951 115.916 29.9499 115.907 29.8046C115.898 29.6592 115.851 29.5187 115.772 29.3965C115.693 29.2743 115.583 29.1746 115.454 29.107C115.325 29.0394 115.181 29.0063 115.035 29.0107C114.889 29.0151 114.747 29.057 114.622 29.1323C114.498 29.2076 114.394 29.3138 114.323 29.4405C114.251 29.5673 114.213 29.7104 114.213 29.8561C114.212 29.9935 114.245 30.129 114.309 30.2505C114.374 30.3721 114.467 30.476 114.581 30.553L114.633 34.0971C112.877 29.7889 112.103 27.6734 108.948 24.4232C104.012 19.3325 94.2815 9.51228 94.2815 9.51228L93.267 11.3262L71.6896 22.3103C71.6896 22.3103 71.4226 20.99 71.2229 20.0162C78.4369 15.7605 86.1874 10.787 93.2683 6.96471C94.9334 6.06442 95.421 6.31658 96.8477 7.38793L96.8439 7.3835ZM61.7097 20.5883L63.1395 18.3188C63.1395 18.3188 64.142 18.7845 65.0221 19.2394C65.9023 19.6943 66.0912 20.1467 66.0912 20.1467L64.9416 21.0014C64.2511 20.504 63.7495 20.5566 61.7097 20.5883ZM103.869 10.9809C101.411 9.03014 99.3327 7.43292 98.6422 6.90389L99.613 4.43299L102.267 7.63439C102.197 8.25782 102.064 8.33131 102.411 8.83817L103.869 10.9809ZM93.5206 4.8353C93.591 4.35569 93.6994 3.95971 94.0279 3.64103C95.3639 2.32765 98.3784 2.21551 98.5572 2.60071C98.6131 2.74228 98.6373 2.89433 98.6282 3.04622C98.6191 3.19812 98.5769 3.3462 98.5046 3.4801C98.0347 4.32401 96.9935 5.44099 96.9935 5.44099C96.9935 5.44099 96.2472 4.72696 93.5232 4.8353H93.5206ZM66.3715 15.5692L70.9921 13.2085C70.9921 13.2085 71.5139 13.6216 71.805 13.5411C72.096 13.4607 82.0233 8.20333 82.0233 8.20333C82.0233 8.20333 82.6365 9.35199 82.076 10.284C81.5154 11.2159 69.9224 17.8633 69.9224 17.8633C69.9224 17.8633 68.7201 16.4764 66.3715 15.5692Z" fill="white"/>
</svg>
