<svg width="15" height="20" viewBox="0 0 15 20" fill="none" xmlns="http://www.w3.org/2000/svg">
<path d="M6.88217 12.3387L6.84746 12.4235L6.87064 12.5773L6.94952 12.9217L7.08608 13.3757L7.19957 13.647L7.35151 13.9932L7.45928 14.1971L7.62473 14.4973L7.82282 14.8318L7.97871 15.0475L8.10945 15.2225L8.11527 15.3187L8.09801 15.3976L8.02495 15.4264L7.80556 15.4379L7.42083 15.415L7.10343 15.3744L6.82449 15.3244L6.4858 15.2283L6.31463 15.1533L6.20114 15.1033L6.07217 15.0801L5.92407 15.0859L5.84529 15.1205H5.73752L5.48166 15.0801L5.33543 15.0301L5.1758 15.0186L4.9218 15.013L4.72943 14.9955H4.55244L4.37743 15.007L4.25812 15.0569L4.17342 15.0801L4.14453 15.1205L4.15035 15.1995L4.2311 15.3302L4.38315 15.54L4.47356 15.5783L4.61594 15.6804L4.77942 15.7709L4.95641 15.8285L5.21041 15.8343L5.43738 15.8111L5.62975 15.7671L5.79333 15.7151L5.86255 15.7497L5.89528 15.817L5.95296 15.8343L6.09337 15.8285L6.27036 15.8401L6.36088 15.8689L6.46854 15.8401L6.81867 15.8841L7.05719 15.9188L7.44774 16.0036L7.7324 16.0881L8.01342 16.1844L8.26128 16.2979L8.35762 16.3671L8.6136 16.3787L8.75005 16.3441L8.82311 16.1959L8.90189 16.0151L8.87923 15.8689L8.783 15.6861L8.65413 15.4206L8.55186 15.1436L8.47683 14.8318L8.4443 14.5645V14.3048L8.47122 13.999L8.50593 13.8449L8.4654 13.7143L8.3809 13.647L8.21161 13.5219L8.09199 13.4372L8.06933 13.2737L8.01342 13.0986L7.90741 12.9274L7.79403 12.7812L7.65175 12.6448L7.47082 12.508L7.26691 12.356L7.15914 12.3041L7.05147 12.2715L6.96105 12.2868L6.88217 12.3387Z" fill="white" stroke="white" stroke-width="0.0224482" stroke-miterlimit="2.613"/>
<path d="M6.2243 0.867127L6.22243 0.942162L6.14355 0.959518L6.0416 0.946111L5.88768 0.978745L5.77232 1.01533L5.67993 1.02115L5.65104 1.06157L5.68378 1.11738L5.7531 1.13276L5.81847 1.11354L5.8935 1.0808L5.97051 1.07696L6.13399 1.08465L6.25901 1.1231L6.40711 1.15968L6.62452 1.25779L6.64385 1.30404L6.62078 1.34051L6.51883 1.3771L6.4573 1.40599L6.34766 1.47905L6.18034 1.56759L5.97643 1.71195L5.74364 1.81775L5.55896 1.93903L5.39164 2.01219L5.23388 2.05065L5.09534 2.05449L4.90484 2.05834L4.83168 2.07756L4.78938 2.16611L4.75664 2.26235L4.72006 2.32772L4.62767 2.46625L4.53913 2.62006L4.47947 2.6951L4.47365 2.78167L4.47947 2.90285V3.03172L4.55835 3.10291L4.62767 3.13949L4.7104 3.13367L4.84509 3.09709L4.99703 3.05094L5.20291 2.96822L5.28563 2.97206L5.30486 3.02403L5.28563 3.07401L5.21631 3.1106L5.00659 3.18948L4.84883 3.23562L4.81807 3.28758L4.81225 3.34339L4.86421 3.38954L4.97385 3.40294H5.0624L5.17391 3.3991L5.29519 3.37021L5.47031 3.27781L5.58577 3.25474L5.68388 3.23541L5.75892 3.26046L5.86856 3.25474L5.97633 3.26825L6.06488 3.32022L6.20341 3.33362L6.38424 3.38943L6.48235 3.40284L6.63429 3.37592L6.82864 3.38943L6.91323 3.42207L6.95948 3.50095L6.94981 3.6029L6.92674 3.72792L6.8806 3.87217L6.81523 4.053L6.74986 4.25119L6.68054 4.43203L6.6344 4.55705L6.47663 4.80336L6.28614 5.04374L6.11497 5.28038L5.89755 5.49769L5.69749 5.66699L5.5705 5.80157L5.50326 6.02284L5.40899 6.13445L5.28969 6.21905L5.14544 6.33825L4.92418 6.47294L4.73763 6.5672L4.61842 6.70376L4.53372 6.81351L4.44913 6.86547L4.32992 6.92513L4.25302 6.90777L4.10107 6.83845L3.93178 6.72881L3.6836 6.61917L3.40466 6.47294L3.26041 6.3633L3.08145 6.21905L2.88523 6.05744L2.67364 5.98054L2.48709 5.9478L2.24858 5.99779L2.07928 6.09205L1.93306 6.194L1.85802 6.38055L1.80606 6.52491L1.7464 6.74606L1.67916 6.88065L1.61182 7.08653L1.60226 7.33283L1.5426 7.47708L1.47526 7.70603L1.4156 7.93499L1.30596 8.14856L1.24631 8.36015L1.2117 8.62371L1.11744 8.84497L1.05778 8.97197L1.05009 9.09897L1.0424 9.31254V9.68574L1 9.83955L1.02505 9.97424L1.01528 10.1955L1.09229 10.3725L1.15194 10.4148L1.26158 10.3801L1.36343 10.2877L1.50966 10.1107L1.63666 9.90679L1.68665 9.73749L1.65401 9.60093L1.61161 9.43164L1.55965 9.22773L1.50966 9.01427L1.48274 8.85256V8.70061L1.51735 8.52945L1.60194 8.26776L1.68654 8.1312L1.76355 8.06198L1.8231 7.96959L1.93285 7.95993L1.98481 7.92729L2.06172 7.85798L2.14631 7.78294L2.22322 7.68099L2.25585 7.56189L2.28287 7.45994L2.29056 7.32338L2.31561 7.20417L2.37526 7.12914L2.43492 7.11178L2.51182 7.13683L2.62157 7.19648L2.74078 7.33304L2.86777 7.51959L3.01202 7.68889L3.16594 7.82545L3.3025 7.93509L3.43677 7.99464L3.47907 8.07934L3.43677 8.12174L3.29242 8.089L3.08851 8.07165L2.82496 8.01969L2.57106 7.9697L2.26521 7.96003L2.08635 7.9697L1.94989 8.05429L1.80564 8.18129L1.68633 8.3852L1.59394 8.61602L1.58438 8.78532L1.63634 9.09117L1.75555 9.48173L1.8152 9.78759L1.89024 10.0858L1.9422 10.2956L1.96725 10.4918L2.03449 10.7131L2.08645 11.0516L2.13644 11.1709L2.26531 11.2728L2.38462 11.3919L2.5192 11.5959L2.61346 11.8344L2.75772 12.046L2.96941 12.2499L3.12323 12.3442L3.22507 12.3519L3.30967 12.3268L3.36163 12.2077L3.41931 12.1058L3.45392 11.9615V11.6305L3.41162 11.5363C3.40393 11.5363 3.40393 11.4767 3.40393 11.469L3.38658 11.4095L3.31726 11.3076L3.19026 11.1805L2.95362 11.0787L2.86705 11.0516L2.85167 10.9074L2.85936 10.815L2.69775 10.6284L2.5958 10.3897L2.5111 10.051L2.44188 9.73749L2.32455 9.49119L2.28225 9.19302L2.34949 9.01416L2.4688 8.94682H2.56109L2.69765 9.06613L2.89386 9.18543L3.09776 9.26047L3.59017 9.49898L3.82879 9.63554V9.76254L4.04807 9.88943L4.32899 9.9837H4.91576L4.87346 10.0934L4.84852 10.153L4.92355 10.2954L5.0678 10.5089L5.29873 10.7378L5.57767 11.0437L5.81618 11.2552L6.26255 11.5977L6.62421 11.7919L6.89546 11.9363L7.24372 12.1729L7.56496 12.4019L7.84203 12.6365L8.13053 13.0271L8.14393 13.1905L8.2093 13.3599L8.38629 13.4869L8.548 13.5504L8.64808 13.5367L8.72717 13.4599L8.84066 13.3388L8.86768 13.1753L9.00227 12.9425L9.03105 12.7635L9.05236 12.5654L9.06577 12.4096L9.11004 12.3117L9.20035 12.2674H9.28703L9.29274 12.3328L9.22945 12.402L9.17364 12.5519L9.13124 12.6443V12.7578L9.11596 12.9983L9.08146 13.1195L8.97556 13.3022L8.83307 13.5371L8.6909 13.7928L8.60641 14.1257L8.56401 14.474L8.60641 14.8625L8.66222 15.0896L8.7968 15.3878L8.96797 15.7418L9.10256 16.0187L9.28713 16.3093L9.50631 16.5787L9.54871 16.671V16.7345L9.51993 16.8134L9.44302 16.9404L9.32184 17.1096L9.07356 17.4291L8.82528 17.6983L8.5983 17.9467L8.5003 18.0044L8.30014 18.0813L8.18083 18.1949L8.11733 18.3237L7.97505 18.5006L7.81365 18.6775L7.61547 18.8834L7.49418 19.095L7.42299 19.3085L7.38069 19.4854L7.38839 19.6278L7.47298 19.7182H7.78476L7.91924 19.7048L8.05996 19.6203L8.24454 19.5356L8.27322 19.4644H8.33672L8.43472 19.422L8.52711 19.3356L8.5772 18.997L8.54821 18.9256L8.5348 18.8544L8.5849 18.8678L8.6405 18.8832L8.69838 18.8408L8.79078 18.7831L8.88878 18.6561L9.00996 18.4849L9.07346 18.3291L9.08686 18.202L9.16585 18.1442L9.27933 18.0808L9.37173 18.025L9.44863 17.8693L9.61221 17.6982L9.91786 17.4153L10.1506 17.2595L10.3855 17.1306L10.441 17.0748L10.4623 17.0171L10.5121 16.9537L10.4774 16.8692L10.47 16.7133L10.4391 16.5673L10.4025 16.4827L10.3217 16.3441L10.193 16.1824L10.1296 16.0612L10.1161 15.9341V15.7631L10.1447 15.6651L10.2216 15.4015L10.3004 15.2745L10.3852 15.2245L10.5409 15.1264L10.7256 14.9687L10.9739 14.7572L11.1432 14.5802L11.3142 14.382L11.4912 14.1819L11.6183 13.9568L11.7241 13.7643L11.8242 13.5452L11.8954 13.3026L11.9167 13.0777L11.9301 12.9065L11.9879 12.8507L12.0513 12.8355L12.1071 12.8721L12.1571 12.9913L12.1705 13.1547L12.1938 13.3105L12.1785 13.4165L12.1649 13.58V13.9282L12.2072 14.2033L12.2569 14.2745L12.2993 14.2687L12.3204 14.2187L12.2917 14.1052V13.9127L12.3494 13.751L12.3765 13.5164L12.4051 13.3528L12.4419 13.2759H12.4842L12.5187 13.3105L12.5534 13.4452L12.5821 13.5741L12.5687 13.778L12.5263 14.055L12.3976 14.3245L12.2785 14.5803L12.2071 14.7996L12.1937 14.9343L12.2071 15.09L12.2568 15.24H12.3493L12.3975 15.1746L12.3703 15.1034L12.3493 14.9763L12.4338 14.8628L12.532 14.7281L12.5974 14.6012L12.7531 14.3528L12.8802 14.1257L12.936 13.8774L12.9859 13.5505V13.2253L12.9226 12.9982L12.7955 12.8212L12.7801 12.7367L12.838 12.7079L12.9093 12.7424L13.0017 12.856L13.1152 13.0618L13.1633 13.3021L13.1921 13.6214L13.2634 13.8427L13.2711 13.8485L13.3691 14.0678L13.4325 14.0909L13.4611 14.0332L13.4536 13.9985L13.4053 13.8351L13.3977 13.6716L13.4053 13.4313L13.4477 13.1619V13.0272L13.4325 12.9137L13.3189 12.6865L13.2208 12.523L13.2555 12.4597L13.3904 12.4309L13.5747 12.3464L13.7729 12.2404L13.9499 12.0846L14.177 11.7788L14.3058 11.5249L14.4117 11.2826L14.4464 10.894L14.4541 10.5457L14.3983 10.1149L14.3329 9.80317L14.2771 9.48381L14.2424 9.15103L14.2695 8.93944L14.3272 8.67588L14.4464 8.41419L14.6174 8.14492L14.6809 7.97375L14.6943 7.88915L14.6387 7.81225L14.5602 7.77535V7.89664L14.4967 7.96783L14.3832 8.13712L14.3197 8.17942L14.1427 8.39299L14.0716 8.50648L13.987 8.69698L13.8946 8.71236L13.81 8.66237L13.7599 8.43529L13.7735 8.17371L13.8313 7.93124L13.9719 7.70416L14.2564 7.279L14.426 6.93271L14.447 6.69025L14.42 6.61335L14.3702 6.66334L14.2856 6.87493L14.1567 7.0885L13.9661 7.24439L13.7469 7.45599L13.42 7.83885L13.3566 7.83303L13.3355 7.76766L13.3278 7.61177L13.3489 7.3213L13.449 6.99621L13.626 6.63455L13.8606 6.34407L14.1511 6.0959L14.1781 6.03822L14.1434 6.0113L13.9954 6.0882L13.874 6.16709L13.6683 6.34407L13.4125 6.57115L13.2296 6.81933L13.0507 7.14441L12.9527 7.40797L12.9239 7.66966L12.9103 8.02364L12.9949 8.39299L13.0795 8.71236L13.243 9.21453L13.3489 9.81669L13.4124 10.2764V10.5247L13.3853 10.7863L13.3432 11.0001L13.2641 11.2404L12.9659 11.6155L12.6618 11.8924L12.2714 12.1117L11.8962 12.1328L11.8464 11.95L11.7118 11.6864L11.5272 11.4325L11.406 11.2827L11.2444 11.0634L10.8959 10.7307L10.542 10.4402L10.3864 10.3189L9.8976 9.98796L9.19547 9.39921L8.8125 8.92406L8.39326 8.23731L8.27966 7.82565L8.30835 7.56979L8.36613 7.5198L8.51443 7.61978L8.7491 7.73326L8.9397 7.72557L9.15878 7.82565L9.39355 7.96803L9.51473 8.06614L9.67062 8.17391L9.83223 8.19512L9.86881 8.12392L9.82641 8.11623L9.77652 8.13744L9.69774 8.08745L9.62832 7.98165L9.52845 7.81807L9.33598 7.64118L9.14558 7.56999L9.03958 7.54879L9.06088 7.49298H9.20887L9.38004 7.54879L9.62822 7.71227L9.74191 7.76226L9.78411 7.70448L9.71271 7.60637L9.52034 7.4351L9.22218 7.27931L8.86228 7.13891L8.79119 7.08123L8.86228 7.03124L9.02399 7.11012L9.32236 7.16011L9.64152 7.28711L9.81082 7.3717L10.109 7.414L10.3227 7.38521L10.4418 7.3294L10.6053 7.22932L10.6766 7.16011L10.6843 7.11012L10.6181 7.11552L10.5549 7.18089L10.3432 7.25021L10.1586 7.279L10.0027 7.2578L9.8527 7.13859L9.71811 6.98083L9.55651 6.86163L9.31415 6.81164L9.08135 6.73276L8.98127 6.66926L8.98896 6.61356L9.08135 6.62696H9.28713L9.4928 6.61356H9.7045L9.81809 6.59235L9.91048 6.66926L10.0585 6.70584H10.1797L10.2355 6.66354L10.1375 6.63465L10.0163 6.55577L9.88918 6.43657L9.6834 6.3288L9.51411 6.30759L9.35842 6.28639L9.30054 6.25179L9.41423 6.18829H9.5987L9.74119 6.23059L9.88169 6.30188L10.1087 6.39999L10.3356 6.40768L10.4568 6.35L10.4915 6.27299L10.3991 6.23069L10.2088 6.223L10.0452 6.16719L9.903 6.04601L9.74711 5.96713L9.54144 5.93252L9.36445 5.86902L9.28755 5.76905L9.30095 5.71906L9.41465 5.74213L9.55692 5.78443L9.64152 5.84793L9.7627 5.86133L9.77611 5.79783L9.64921 5.69786L9.61242 5.60744L9.78349 5.63436L9.94509 5.71895L10.1509 5.74202L10.2299 5.89012L10.4413 6.01712L10.4529 6.01514L10.4991 5.99592L10.5549 5.96131L10.5278 5.91901L10.4488 5.92473L10.3776 5.82662L10.2352 5.60734L9.98708 5.38618L9.73318 5.27269L9.66189 5.18809L9.506 5.00342L9.36372 4.92651L9.34263 4.85532L9.40592 4.81302L9.55609 4.84763L9.85228 4.93223L9.99477 4.98222L10.0872 5.11108L10.2352 5.18809H10.3487L10.4988 5.23039L10.6622 5.2015L10.7257 5.14569L10.6333 5.06681L10.4987 5.0322L10.3428 5.011L10.2503 4.93212L10.1291 4.75514L10.1005 4.64165L9.94457 4.50114L9.77527 4.39337L9.5827 4.27406L9.37121 4.07597L9.3578 4.01819H9.40571L9.68278 4.23748L9.96567 4.40095L10.1157 4.51444L10.3063 4.69132L10.4774 4.78361L10.5756 4.8125L10.6255 4.73362L10.5544 4.70671L10.4061 4.57202L10.3638 4.42205L10.2081 4.25275L10.0793 4.14498L10.0158 3.98337L9.79658 3.65642L9.49841 3.39473L9.4848 3.31014L9.5906 3.32354L9.74077 3.40055L9.98105 3.50053L10.2293 3.51404L10.414 3.60061L10.6121 3.63522L10.7814 3.58523L10.768 3.51404L10.5755 3.47164L10.4061 3.39473L10.0656 3.23126L9.88118 3.13128L9.78296 3.01197L9.81768 2.96957L9.86756 3.00418L9.94447 3.03307L10.0445 3.04076H10.2081L10.3484 3.02538L10.5622 3.01197L10.7256 3.07547L10.8949 3.19665L10.9662 3.21785L10.9739 3.15435L10.916 3.09667L10.7467 2.94078L10.4832 2.80609L10.2928 2.78489L9.93116 2.76369L9.84667 2.66371L9.6621 2.47903L9.45632 2.33863L9.37942 2.26744L9.44292 2.21745L9.54092 2.25975L9.7178 2.35214L9.91786 2.42333L10.1872 2.48683H10.42L10.6125 2.7004L10.7684 2.79268L10.8242 2.735L10.6125 2.42333L10.2796 2.18295L10.0026 2.11758L9.76789 1.87127L9.56212 1.75009L9.27933 1.6789L9.43522 1.54431L9.71209 1.45192L9.91786 1.38842L9.96598 1.32503L9.93906 1.27504L9.82537 1.24625L9.7178 1.22505L8.91757 1.24043L8.77529 1.08267L8.61358 0.976874L8.40791 0.884483L8.13843 0.842081H7.90563L7.84223 0.757484L7.62295 0.522817L7.35939 0.282227L7.19778 0.551605L7.19009 0.636202L7.2671 0.736179L7.27479 0.820776L7.21909 0.870764L7.04013 0.884171L6.71494 0.79178L6.39557 0.722876L6.24737 0.728592L6.00501 0.778581L6.0338 0.863282L6.16849 0.857462L6.2243 0.867127Z" fill="white" stroke="white" stroke-width="0.0224482" stroke-miterlimit="2.613"/>
<path d="M7.08433 0.778498L7.06884 0.615021L6.83605 0.332236L6.76486 0.311035L6.71487 0.382225L6.72256 0.466925L6.64368 0.538011L6.63599 0.636222L6.72838 0.686211L6.85725 0.778498H7.08433Z" fill="white" stroke="white" stroke-width="0.0224482" stroke-miterlimit="2.613"/>
<path d="M6.63025 0.593973L6.63597 0.580566" stroke="white" stroke-width="0.0224482" stroke-miterlimit="2.613"/>
<path d="M9.06 9.73193L8.74822 9.32787L8.47873 8.93159L8.27867 8.62002L8.20187 8.40645L8.15957 8.20057L8.10938 8.06017L8.0306 8.02369L7.95349 8.04479L7.92667 8.17947L7.98259 8.41414L8.11717 8.75471L8.28637 9.0297L8.47873 9.27216L8.69043 9.48376L8.81733 9.60493L9.06 9.73193ZM4.81406 2.49665L4.73903 2.60047L4.70816 2.70627L4.72167 2.7813L4.75825 2.80438L4.86405 2.7813L4.94293 2.73714L4.99874 2.68122L5.0295 2.5774L4.99874 2.52741L4.9314 2.4716L4.87559 2.46589L4.81406 2.49665ZM6.83399 2.2176H6.92056L7.00141 2.18695L7.00713 2.10609L6.97637 2.0138L6.93978 1.92723L6.86672 1.87714L6.77246 1.85978L6.64349 1.8656L6.56274 1.93295L6.52615 2.00798L6.5512 2.07533L6.63777 2.12532L6.73006 2.17531L6.83399 2.2176ZM13.7691 9.755L13.7191 9.80499L13.729 9.89541L13.7441 10.057L13.7615 10.2284L13.773 10.3763L13.7654 10.5457L13.7577 10.7342L13.723 10.9035L13.6825 11.0516L13.6132 11.196L13.523 11.344L13.4305 11.4885L13.3324 11.6211L13.2421 11.7403L13.1921 11.8307L13.1554 11.9135L13.163 11.9751L13.2096 11.9962L13.2961 11.9751L13.4651 11.8134L13.6132 11.6402L13.7116 11.5016L13.7982 11.3402L13.8556 11.1921L13.906 11.0228L13.9423 10.8246L13.9461 10.7342V10.3725L13.9172 10.1937L13.8767 10.007L13.8269 9.85124L13.8021 9.77236L13.7691 9.755ZM6.30105 10.9189L6.39926 11.0286L6.72237 11.3094L6.90133 11.4691L7.06096 11.6135L7.18983 11.7346L7.21488 11.7748L7.23223 11.8038L7.18214 11.8001L7.05327 11.7191L6.83586 11.575L6.49924 11.3479L6.36268 11.2554L6.21843 11.1422L6.06067 10.9978L5.9452 10.9075L5.80667 10.7728L5.71625 10.6786L5.66044 10.5919L5.63935 10.488L5.64319 10.3919L5.67967 10.3552L5.74317 10.359L5.84325 10.4188L5.95092 10.5227L6.0299 10.6186L6.1145 10.7034L6.19723 10.8054L6.30105 10.9189ZM5.572 6.55769L5.57585 6.50573L5.61046 6.46728L5.73163 6.41729L5.98366 6.33841L6.23568 6.30754H6.3896L6.51659 6.33456L6.6358 6.39422L6.73006 6.48661L6.73588 6.53847L6.72434 6.57505L6.68392 6.58274L6.62239 6.57505L6.52813 6.54803L6.43958 6.52122L6.32994 6.50958H6.19338L6.07792 6.50771L5.97597 6.51737L5.86248 6.53649L5.77206 6.56154L5.68362 6.58077L5.62584 6.58461L5.58551 6.5789L5.572 6.55769ZM8.80392 10.8997L8.76723 11.0016L8.75196 11.0823L8.7213 11.2287L8.71143 11.3459L8.73855 11.3788L8.79436 11.3863L8.82304 11.3632L8.83645 11.3017L8.87916 11.2132L8.92125 11.1651L8.9675 11.1228L8.99629 11.0555L8.98849 10.942L8.94838 10.8824L8.9251 10.861H8.87116L8.83105 10.869L8.80392 10.8997ZM8.88301 14.4029H8.84632L8.81733 14.3164L8.81535 14.2181L8.83645 14.0835L8.88457 13.8989L8.96366 13.7853L9.03485 13.697L9.09824 13.6892L9.11549 13.7468L9.07714 13.8701L9.023 14.0201L8.99629 14.0931L8.9462 14.2067L8.90785 14.3394L8.89642 14.3778L8.88301 14.4029ZM11.3625 12.7061L11.3166 12.7638L11.3241 12.8562L11.4048 12.9677L11.4166 13.0889L11.4355 13.1236L11.4722 13.1333L11.5124 13.1101L11.5242 13.0561L11.5432 12.9966L11.5511 12.9331V12.8484L11.5394 12.785L11.4951 12.7292L11.4568 12.6946L11.4106 12.6907L11.3625 12.7061ZM7.82472 19.1182L7.74584 19.1969L7.71695 19.2546L7.70739 19.3047L7.71508 19.3451L7.74012 19.3643H7.7632L7.81703 19.3528L7.87274 19.3163L7.90734 19.2642L7.93623 19.2085L7.95349 19.1373L7.94808 19.097L7.92667 19.0796L7.88438 19.0815L7.82472 19.1182ZM8.4037 18.2754L8.33812 18.3159L8.30559 18.3564L8.30175 18.3909L8.32087 18.4256L8.35371 18.4351L8.39809 18.4198L8.43436 18.3986L8.46366 18.3582L8.48092 18.3159L8.47489 18.2813L8.45182 18.2678L8.4037 18.2754ZM9.4889 17.1961L9.22327 17.4637L9.00419 17.7002L8.8483 17.8734L8.8404 17.9215L8.85765 17.9503L8.89423 17.9522L8.95004 17.9157L9.05012 17.8252L9.17733 17.7099L9.31379 17.5675L9.44255 17.4426L9.55604 17.3097L9.64095 17.1846L9.6636 17.1288L9.64095 17.1001L9.61382 17.0942L9.53858 17.1423L9.4889 17.1961ZM10.1313 16.8058L10.0927 16.846L10.0813 16.8788L10.0873 16.9115L10.1138 16.927H10.1371L10.1718 16.8884L10.2102 16.8538L10.2273 16.8269L10.2257 16.8058L10.2063 16.7961L10.1642 16.7941L10.1313 16.8058ZM9.19999 15.3417H9.16943L9.15602 15.3591L9.15218 15.4165V15.5129L9.1713 15.6168L9.20414 15.6918L9.27336 15.8053L9.3195 15.8727L9.34444 15.884L9.35806 15.8823L9.36544 15.865L9.34819 15.7764L9.33093 15.7323L9.32917 15.6995L9.32719 15.6071L9.3061 15.4918L9.27523 15.4052L9.23304 15.3553L9.19999 15.3417ZM4.8044 15.2127L4.73518 15.2261L4.67553 15.2455L4.65817 15.2705L4.6563 15.3051L4.68706 15.3436L4.70816 15.3609L4.75441 15.3743L4.80637 15.3726L4.83132 15.3648L4.86208 15.3282L4.87943 15.2878L4.88712 15.2551L4.8813 15.2261L4.85636 15.2109L4.8044 15.2127ZM6.77433 15.4321L6.60504 15.3782L6.57999 15.3878L6.57427 15.4283L6.5935 15.4647L6.72237 15.5071L6.9032 15.563L7.13215 15.6205L7.23223 15.6283L7.33606 15.634L7.43614 15.6514L7.54963 15.6706L7.615 15.6669L7.6362 15.6399V15.6033L7.61895 15.5802L7.55929 15.5648L7.4535 15.5418L7.32265 15.5322L7.18412 15.511L7.02438 15.4937L6.92825 15.4802L6.84937 15.4629L6.77433 15.4321ZM8.3269 15.4879L8.27493 15.5264L8.26506 15.563L8.27493 15.5956L8.30559 15.6091L8.3614 15.5956L8.39985 15.5648L8.42095 15.5264V15.4956L8.40754 15.4783H8.36514L8.3269 15.4879ZM3.14032 11.825L3.08451 11.8134L3.06144 11.8192L3.05178 11.8539L3.06342 11.9135L3.0922 11.9404L3.13263 11.948L3.16537 11.9231L3.17108 11.8847L3.16537 11.852L3.14032 11.825ZM2.00918 9.41454L1.98798 9.56461L1.99183 9.71655L2.0149 9.8474L2.05917 9.98593L2.10344 10.0744L2.13421 10.1417L2.15343 10.1782L2.17837 10.1994H2.19188L2.20342 10.182L2.21309 10.1302L2.18617 9.95132L2.16694 9.84158L2.12267 9.71655L2.08609 9.59922L2.08422 9.50683L2.06302 9.41641L2.04181 9.39719H2.02072L2.00918 9.41454ZM3.61745 9.22789L3.62701 9.19713L3.61932 9.15867L3.57318 9.11627L3.48473 9.07595L3.36158 9.02211L3.25578 8.97015L3.14032 8.94126L3.07298 8.91632L3.01145 8.91819L3.0576 8.95279L3.19228 9.03355L3.31159 9.12209L3.43277 9.19713L3.48473 9.2202L3.55967 9.23173L3.61745 9.22789ZM1.9303 8.26792L1.87252 8.368L1.87065 8.43721L1.89372 8.45644L1.92833 8.44303L1.96293 8.39491L1.98601 8.34108L2.00336 8.30065V8.24297L1.97644 8.22562L1.94755 8.23913L1.9303 8.26792ZM7.43801 4.10294L7.37066 4.11448L7.28222 4.19918L7.11095 4.4723L6.93012 4.82243L6.82827 5.02446L6.71468 5.25913L6.57625 5.4727L6.54164 5.55355L6.54736 5.58234L6.58394 5.58432L6.69743 5.54004L6.8609 5.36888L7.07634 5.06676L7.21103 4.81671L7.33221 4.61655L7.42263 4.38001L7.46306 4.23181L7.4669 4.14909L7.43801 4.10294ZM4.23685 7.34255L4.27531 7.35804L4.28695 7.40418L4.25805 7.56963L4.1772 7.79661L4.10601 8.01402L3.98099 8.16981L3.91749 8.21793L3.85014 8.24297L3.81169 8.21595L3.80784 8.16596L3.86178 8.10828L3.91749 8.01589L3.98868 7.86011L4.03108 7.71201L4.06953 7.56579L4.14446 7.42538L4.19456 7.35419L4.23685 7.34255ZM1.93997 6.86168L1.85911 7.00209L1.82253 7.19446L1.81286 7.29651V7.37144L1.83022 7.4099L1.88021 7.39649L1.9726 7.25411L2.02446 7.08481L2.06489 6.93474L2.06686 6.82894L2.04379 6.79434L1.98226 6.81169L1.93997 6.86168ZM2.95949 7.15216L2.96531 7.19446L2.98828 7.22335L3.04024 7.27531L3.09615 7.32145L3.16142 7.35804L3.20767 7.38682L3.22689 7.38495L3.23656 7.3676L3.23458 7.33496L3.20954 7.29838L3.16921 7.25026L3.10187 7.20984L3.05947 7.17138L3.02299 7.13875L2.99025 7.13293L2.97102 7.13096L2.95949 7.15216ZM2.38425 6.25953L2.28812 6.27106L2.24187 6.3038L2.22649 6.35566L2.24 6.39422L2.29384 6.41531L2.38228 6.40575L2.47467 6.37104L2.50159 6.32687L2.49972 6.29414L2.46895 6.26535L2.43424 6.25568L2.38425 6.25953ZM7.18796 7.1348L7.25146 7.15216L7.27069 7.18676L7.27838 7.26367L7.28794 7.34453L7.26882 7.4022L7.22839 7.42538L7.13028 7.42725L7.06491 7.41187L7.02823 7.36375L6.99757 7.3253V7.26367L7.04558 7.20215L7.11875 7.14447L7.18796 7.1348ZM5.52191 2.17146L5.61046 2.09643L5.77404 2.01765L5.93751 1.94448L6.0933 1.87132L6.16449 1.83671L6.21843 1.82902L6.2626 1.83869L6.2972 1.8945L6.27413 1.93482L6.22996 1.94646L6.17603 1.95987L6.11637 2.00985L5.98366 2.09071L5.80095 2.1407L5.68747 2.16959L5.57772 2.17728L5.52191 2.17146ZM5.19496 2.49852L5.16606 2.54466L5.16222 2.57927L5.18727 2.60816L5.21803 2.62354L5.25648 2.62167L5.27571 2.61201L5.28922 2.56784L5.28537 2.51775L5.27571 2.48896L5.24879 2.48314H5.21803L5.19496 2.49852ZM5.572 2.83514L5.54509 2.83711L5.52388 2.86018L5.52004 2.89864L5.53157 2.9295L5.55278 2.94094H5.58936L5.61815 2.92753L5.62397 2.89864L5.6143 2.86403L5.60079 2.84293L5.572 2.83514ZM6.69545 3.00256L6.88782 2.866L7.00515 2.79284L7.07634 2.74867H7.10139L7.10524 2.80053L7.05712 2.83898L7.03405 2.91797L6.97439 3.01025L6.86672 3.06211L6.75708 3.08726H6.65887L6.64162 3.05453L6.66656 3.01982L6.69545 3.00256ZM7.34375 3.06991L7.40725 2.98905L7.48041 2.91984L7.54578 2.87567L7.5939 2.87172L7.62653 2.89292V2.95258L7.60928 3.01795L7.53612 3.08726L7.44955 3.1411L7.3611 3.16417L7.3187 3.15066L7.31299 3.11605L7.34375 3.06991ZM7.35528 3.4084L7.38033 3.36423L7.43998 3.33731L7.54381 3.28722L7.66312 3.21416L7.71892 3.17384L7.80352 3.1333L7.85746 3.14681V3.2046L7.83626 3.25656L7.76122 3.345L7.6574 3.39499L7.55347 3.43729L7.4457 3.43927H7.37846L7.35528 3.4084ZM7.14753 1.5559L7.08601 1.577L7.0725 1.6194L7.09755 1.66555L7.16489 1.6617L7.2207 1.6405L7.26102 1.59436L7.24377 1.5559L7.18983 1.53668L7.14753 1.5559ZM8.23253 1.2038L8.19803 1.17875L8.22297 1.13271L8.31921 1.12305L8.37117 1.1403L8.4117 1.1615L8.41336 1.19611L8.37886 1.21149L8.32503 1.21533L8.27306 1.21149L8.23253 1.2038ZM8.39008 1.42308L8.4462 1.42121L8.48861 1.43088L8.5096 1.44428L8.50201 1.46549L8.47115 1.50207L8.42895 1.50581L8.37886 1.49822L8.34997 1.48471L8.32887 1.45967L8.35371 1.43846L8.39008 1.42308ZM8.37886 2.41195L8.48092 2.36965L8.56925 2.32351L8.66175 2.27154L8.73252 2.2465L8.77524 2.23496L8.81733 2.17146L8.78667 2.14257L8.72712 2.14641L8.65572 2.1619L8.57684 2.19266L8.52103 2.19651L8.51344 2.15421L8.52103 2.07335L8.48861 2.04062H8.44205L8.4117 2.07907L8.38239 2.11763L8.33646 2.16762L8.30362 2.25034V2.32351L8.31921 2.36383L8.31546 2.40613L8.34415 2.41579L8.37886 2.41195ZM8.3403 6.37302L8.39008 6.36917L8.4328 6.40378L8.43436 6.43267L8.42095 6.45003L8.38239 6.46146L8.33272 6.45761L8.29977 6.42498L8.30777 6.39619L8.3403 6.37302ZM8.42095 6.2615H8.47873L8.51729 6.2191L8.51344 6.18834L8.47489 6.16329H8.43436L8.4037 6.17296L8.39008 6.20175V6.24415L8.42095 6.2615ZM8.48476 5.89786L8.52685 5.89017H8.56738L8.59233 5.91127L8.59794 5.94401L8.58484 5.97103L8.54597 5.99015L8.50586 5.99597L8.46366 5.9863L8.45005 5.95752V5.92291L8.48476 5.89786ZM8.52872 5.7401L8.58651 5.74208L8.63847 5.72659L8.65946 5.69396L8.64429 5.65353L8.60209 5.63243L8.55179 5.64002L8.50586 5.66122L8.49619 5.69583L8.49817 5.7189L8.52872 5.7401ZM8.64429 5.33229L8.70384 5.31494H8.74998L8.77108 5.33988L8.76339 5.38415L8.7347 5.42261L8.70768 5.45732L8.65406 5.46885H8.60012L8.55398 5.44578L8.55013 5.4092L8.58266 5.37459L8.6075 5.3457L8.64429 5.33229ZM8.70384 5.02831L8.76339 5.02062L8.81733 5.03215L8.8404 5.06489V5.09752L8.81535 5.13795L8.77108 5.14564L8.72494 5.15728L8.66715 5.15531L8.64221 5.12641L8.64606 5.08412L8.66549 5.05522L8.70384 5.02831ZM8.75798 4.92635H8.81535L8.8617 4.91097L8.92125 4.88593L8.92894 4.83594L8.90785 4.79551L8.85765 4.77826L8.80579 4.78013L8.76921 4.79551L8.73647 4.81287L8.69802 4.84747L8.69043 4.88406L8.70602 4.91284L8.7347 4.92251L8.75798 4.92635ZM1.29157 9.81081L1.34166 9.81663L1.35507 9.86662L1.32046 9.90892L1.26267 9.89541L1.23389 9.8396L1.29157 9.81081ZM8.71745 4.56853L8.80974 4.52042L8.8537 4.51075L8.90785 4.51657L8.92894 4.5358V4.557L8.90785 4.59161L8.87116 4.62237L8.81733 4.6417L8.75383 4.64731L8.70186 4.63972L8.68856 4.60886L8.69625 4.58392L8.71745 4.56853ZM8.80018 4.41462L8.86732 4.38573L8.89423 4.35496L8.90785 4.3242V4.29531L8.89642 4.27806L8.86732 4.27608L8.8272 4.27993L8.78667 4.28959L8.75196 4.31069L8.7347 4.33189L8.72868 4.36848L8.73647 4.40111L8.76723 4.41077L8.80018 4.41462ZM8.81535 4.14909L8.87314 4.12799L8.91554 4.0991L8.9251 4.07415L8.93113 4.03186L8.92125 4.00484L8.89423 3.99714L8.8537 3.99912L8.80579 4.00868L8.77305 4.03186L8.74998 4.05482L8.74614 4.09328L8.75196 4.12414L8.78293 4.1414L8.81535 4.14909ZM8.81535 3.46234L8.86357 3.46036L8.89236 3.47003L8.90026 3.49497L8.88457 3.52002L8.85973 3.54693L8.8192 3.5566H8.7769L8.74998 3.53166V3.50276L8.77524 3.47772L8.81535 3.46234ZM8.8192 3.87597L8.87916 3.84707L8.9251 3.80665L8.92894 3.7471L8.9251 3.71051L8.89423 3.69316L8.85973 3.6836L8.83105 3.68547L8.81535 3.7048L8.80777 3.73161L8.80018 3.76632L8.78293 3.77786H8.74998L8.74052 3.79709L8.74437 3.83169L8.76921 3.86256L8.79436 3.87202L8.8192 3.87597ZM8.8272 3.25459L8.86929 3.2257L8.91367 3.22767L8.94038 3.2603L8.93476 3.29304L8.91367 3.32183L8.87916 3.33534L8.84632 3.34313L8.81733 3.34698L8.77908 3.34313L8.76921 3.31996L8.77908 3.28919L8.80195 3.2681L8.8272 3.25459ZM8.83489 3.10067L8.86929 3.08726L8.90567 3.05453L8.90785 3.02366L8.90411 2.99103L8.88083 2.97752L8.84445 2.98334L8.82117 2.99685L8.79633 3.02366L8.79436 3.0564V3.08726L8.81161 3.09683L8.83489 3.10067ZM8.75196 2.79284L8.77524 2.7813L8.80579 2.77943L8.83105 2.79481L8.83645 2.81789L8.8272 2.85249L8.80195 2.87172L8.77908 2.88523L8.74822 2.88908L8.72327 2.8737L8.71745 2.84667L8.72868 2.82371L8.75196 2.79284Z" fill="white" stroke="white" stroke-width="0.0224482" stroke-miterlimit="2.613"/>
</svg>
