<svg width="25" height="20" viewBox="0 0 25 20" fill="none" xmlns="http://www.w3.org/2000/svg">
<mask id="path-1-inside-1_284_1807" fill="white">
<path d="M12.0477 13.1509C11.7885 13.1509 11.5275 13.1647 11.3218 13.1924C10.3452 13.3237 9.97877 13.5778 9.63481 14.226C9.41184 14.6443 8.96417 15.9112 8.60638 17.5256C7.9059 17.5011 7.20581 17.4665 6.50632 17.4219C6.26261 15.1542 5.70086 5.71511 5.6853 2.47599C6.08112 2.45007 6.50113 2.4155 6.96436 2.39648C7.24437 3.89332 8.17773 9.10978 8.9417 10.7501C9.28048 11.4812 9.87161 11.7301 10.5958 11.7854C11.5637 11.8356 12.5335 11.8356 13.5014 11.7854C14.2238 11.7301 14.815 11.4812 15.1538 10.7501C15.916 9.10978 16.8494 3.89505 17.1311 2.39648C17.5943 2.41723 18.0161 2.45007 18.4102 2.47599C18.3946 5.71684 17.8346 15.1542 17.5874 17.4219C16.9617 17.4634 16.2392 17.498 15.4873 17.5256C15.1296 15.9095 14.6819 14.6443 14.4589 14.226C14.1167 13.5778 13.7503 13.3237 12.772 13.1924C12.5317 13.1632 12.2898 13.1493 12.0477 13.1509Z"/>
</mask>
<path d="M12.0477 13.1509C11.7885 13.1509 11.5275 13.1647 11.3218 13.1924C10.3452 13.3237 9.97877 13.5778 9.63481 14.226C9.41184 14.6443 8.96417 15.9112 8.60638 17.5256C7.9059 17.5011 7.20581 17.4665 6.50632 17.4219C6.26261 15.1542 5.70086 5.71511 5.6853 2.47599C6.08112 2.45007 6.50113 2.4155 6.96436 2.39648C7.24437 3.89332 8.17773 9.10978 8.9417 10.7501C9.28048 11.4812 9.87161 11.7301 10.5958 11.7854C11.5637 11.8356 12.5335 11.8356 13.5014 11.7854C14.2238 11.7301 14.815 11.4812 15.1538 10.7501C15.916 9.10978 16.8494 3.89505 17.1311 2.39648C17.5943 2.41723 18.0161 2.45007 18.4102 2.47599C18.3946 5.71684 17.8346 15.1542 17.5874 17.4219C16.9617 17.4634 16.2392 17.498 15.4873 17.5256C15.1296 15.9095 14.6819 14.6443 14.4589 14.226C14.1167 13.5778 13.7503 13.3237 12.772 13.1924C12.5317 13.1632 12.2898 13.1493 12.0477 13.1509Z" fill="#5F5F5F"/>
<path d="M12.0477 13.1509V67.4468H12.2266L12.4055 67.4456L12.0477 13.1509ZM11.3218 13.1924L4.0866 -40.6193L4.08345 -40.6189L11.3218 13.1924ZM9.63481 14.226L57.5484 39.7667L57.5722 39.7221L57.596 39.6774L9.63481 14.226ZM8.60638 17.5256L6.70858 71.7883L51.8438 73.3669L61.616 29.274L8.60638 17.5256ZM6.50632 17.4219L-47.4787 23.2236L-42.5919 68.6952L3.04865 71.6076L6.50632 17.4219ZM5.6853 2.47599L2.13641 -51.7038L-48.8554 -48.3637L-48.61 2.73675L5.6853 2.47599ZM6.96436 2.39648L60.3345 -7.5873L51.6931 -53.781L4.73767 -51.8537L6.96436 2.39648ZM8.9417 10.7501L58.206 -12.0769L58.1835 -12.1254L58.1609 -12.1739L8.9417 10.7501ZM10.5958 11.7854L6.46117 65.9237L7.1238 65.9743L7.78748 66.0086L10.5958 11.7854ZM13.5014 11.7854L16.3097 66.0086L16.9783 65.974L17.6458 65.9229L13.5014 11.7854ZM15.1538 10.7501L-34.0853 -12.1313L-34.098 -12.1041L-34.1106 -12.0769L15.1538 10.7501ZM17.1311 2.39648L19.5598 -51.8451L-27.522 -53.9532L-36.2299 -7.63564L17.1311 2.39648ZM18.4102 2.47599L72.7054 2.73661L72.9506 -48.3491L21.9745 -51.7028L18.4102 2.47599ZM17.5874 17.4219L21.1793 71.5989L66.6283 68.5857L71.5636 23.305L17.5874 17.4219ZM15.4873 17.5256L-37.5249 29.262L-27.7425 73.4483L17.4831 71.7848L15.4873 17.5256ZM14.4589 14.226L-33.5551 39.5774L-33.5051 39.6722L-33.4547 39.7667L14.4589 14.226ZM12.772 13.1924L19.9977 -40.6206L19.6626 -40.6656L19.327 -40.7064L12.772 13.1924ZM12.0477 -41.145C10.2191 -41.145 7.40705 -41.0657 4.0866 -40.6193L18.557 67.0041C16.9435 67.221 15.6149 67.321 14.7027 67.3721C13.7398 67.4261 12.8538 67.4468 12.0477 67.4468V-41.145ZM4.08345 -40.6189C0.842769 -40.1829 -8.58667 -38.7666 -18.6053 -32.4839C-29.914 -25.3921 -35.7057 -16.1637 -38.3263 -11.2254L57.596 39.6774C55.3193 43.9676 49.8828 52.7448 39.0874 59.5146C29.5821 65.4754 20.8242 66.6991 18.5601 67.0036L4.08345 -40.6189ZM-38.2788 -11.3147C-42.0222 -4.29219 -43.7311 2.74455 -44.4032 5.77723L61.616 29.274C61.4242 30.1393 61.1763 31.0713 60.8351 32.1271C60.6647 32.6542 60.4029 33.4233 60.0311 34.3788C59.8432 34.8618 59.577 35.5217 59.231 36.3072C58.9163 37.0216 58.3528 38.2577 57.5484 39.7667L-38.2788 -11.3147ZM10.5042 -36.7371C10.324 -36.7434 10.1439 -36.7523 9.96398 -36.7638L3.04865 71.6076C4.26775 71.6854 5.48785 71.7456 6.70858 71.7883L10.5042 -36.7371ZM60.4913 11.6202C60.5385 12.0585 60.5485 12.2281 60.5229 11.9095C60.5043 11.6787 60.4771 11.3162 60.4426 10.8211C60.374 9.83391 60.2947 8.57365 60.2191 7.23928C60.1432 5.90225 60.0778 4.60926 60.0325 3.54608C59.9793 2.29838 59.9793 1.94885 59.9806 2.21524L-48.61 2.73675C-48.5853 7.87836 -47.9146 19.1673 -47.4787 23.2236L60.4913 11.6202ZM9.2342 56.6558C9.36223 56.6474 9.47611 56.6396 9.56708 56.6334C9.61303 56.6302 9.65545 56.6273 9.69246 56.6247C9.72913 56.6221 9.76342 56.6197 9.79138 56.6178C9.80501 56.6168 9.81963 56.6158 9.83113 56.615C9.84348 56.6141 9.85428 56.6133 9.86453 56.6126C9.88513 56.6112 9.90027 56.6101 9.91265 56.6092C9.93786 56.6075 9.94298 56.6072 9.93686 56.6076C9.93001 56.608 9.90629 56.6096 9.87024 56.6119C9.83391 56.6142 9.78264 56.6173 9.7193 56.6209C9.59269 56.6281 9.41226 56.6376 9.19105 56.6467L4.73767 -51.8537C3.84388 -51.817 3.10333 -51.7699 2.66225 -51.7403C2.45364 -51.7263 2.25397 -51.7122 2.18262 -51.7071C2.07538 -51.6996 2.09223 -51.7009 2.13641 -51.7038L9.2342 56.6558ZM-46.4057 12.3803C-46.3381 12.7418 -45.8706 15.3249 -45.3168 17.9067C-45.2957 18.0052 -43.7528 26.2126 -40.2775 33.6741L58.1609 -12.1739C58.8013 -10.799 59.2602 -9.65174 59.555 -8.87548C59.8602 -8.07176 60.088 -7.40557 60.243 -6.93263C60.5425 -6.01892 60.7229 -5.36076 60.7921 -5.10261C60.9253 -4.60599 60.9449 -4.47131 60.8599 -4.86771C60.686 -5.67841 60.5468 -6.45202 60.3345 -7.5873L-46.4057 12.3803ZM-40.3226 33.5771C-35.7259 43.4975 -28.0069 52.5472 -17.3337 58.652C-7.60887 64.2144 1.45848 65.5416 6.46117 65.9237L14.7305 -42.3528C19.009 -42.0261 27.4186 -40.851 36.5821 -35.6096C46.694 -29.8258 53.9481 -21.2662 58.206 -12.0769L-40.3226 33.5771ZM7.78748 66.0086C10.6263 66.1557 13.4709 66.1557 16.3097 66.0086L10.693 -42.4378C11.5961 -42.4846 12.5011 -42.4846 13.4042 -42.4378L7.78748 66.0086ZM17.6458 65.9229C22.66 65.539 31.7254 64.2068 41.4449 58.6431C52.1074 52.5397 59.8223 43.4956 64.4181 33.5771L-34.1106 -12.0769C-29.8535 -21.2643 -22.6036 -29.8184 -12.502 -35.6008C-3.34334 -40.8433 5.06519 -42.0235 9.35686 -42.3521L17.6458 65.9229ZM64.3928 33.6315C67.8498 26.1924 69.3894 18.008 69.4107 17.9087C69.9604 15.3461 70.4329 12.7437 70.4921 12.4286L-36.2299 -7.63564C-36.4524 -6.45215 -36.5875 -5.6979 -36.7655 -4.86844C-36.8512 -4.46869 -36.8325 -4.59908 -36.7008 -5.09052C-36.6323 -5.34609 -36.4532 -6.0005 -36.1556 -6.90981C-36.0015 -7.3805 -35.7751 -8.04389 -35.4716 -8.84446C-35.1785 -9.61763 -34.7222 -10.7608 -34.0853 -12.1313L64.3928 33.6315ZM14.7024 56.638C14.5469 56.6311 14.4231 56.6244 14.3407 56.6196C14.2601 56.6149 14.2122 56.6117 14.2177 56.6121C14.2202 56.6123 14.2317 56.613 14.2581 56.6148C14.2869 56.6168 14.3186 56.619 14.373 56.6227C14.4206 56.626 14.4924 56.631 14.5673 56.6361C14.6444 56.6413 14.7398 56.6478 14.8458 56.6548L21.9745 -51.7028C21.9766 -51.7026 21.9629 -51.7035 21.8454 -51.7116C21.7552 -51.7179 21.5731 -51.7305 21.3754 -51.7435C20.9665 -51.7705 20.3251 -51.8108 19.5598 -51.8451L14.7024 56.638ZM-35.8851 2.21538C-35.8839 1.95268 -35.884 2.30526 -35.937 3.5512C-35.9822 4.61381 -36.0475 5.90551 -36.1232 7.23972C-36.1987 8.57197 -36.2778 9.82699 -36.3462 10.807C-36.3805 11.2987 -36.4075 11.6547 -36.4255 11.8775C-36.4509 12.1912 -36.4393 12.002 -36.3888 11.5388L71.5636 23.305C72.0146 19.1674 72.6809 7.85341 72.7054 2.73661L-35.8851 2.21538ZM13.9956 -36.7551C14.0541 -36.7589 14.0352 -36.7572 13.928 -36.7519C13.8259 -36.7469 13.6799 -36.7405 13.4916 -36.7336L17.4831 71.7848C18.5683 71.7449 19.8547 71.6867 21.1793 71.5989L13.9956 -36.7551ZM68.4996 5.7892C67.8223 2.72978 66.1128 -4.2982 62.3725 -11.3147L-33.4547 39.7667C-34.2561 38.2633 -34.818 37.0315 -35.1327 36.3174C-35.4785 35.5329 -35.7447 34.8735 -35.933 34.3899C-36.3055 33.4331 -36.5681 32.6623 -36.7395 32.1321C-37.0829 31.0703 -37.3322 30.1325 -37.5249 29.262L68.4996 5.7892ZM62.473 -11.1254C59.8466 -16.0996 54.046 -25.3689 42.7003 -32.4839C32.6679 -38.7752 23.2237 -40.1874 19.9977 -40.6206L5.54619 67.0053C3.29848 66.7035 -5.47334 65.4841 -14.9924 59.5146C-25.8248 52.7216 -31.271 43.9034 -33.5551 39.5774L62.473 -11.1254ZM19.327 -40.7064C16.7932 -41.0145 14.2423 -41.1606 11.69 -41.1438L12.4055 67.4456C10.3372 67.4592 8.27016 67.3408 6.21694 67.0911L19.327 -40.7064Z" fill="#FC0012" mask="url(#path-1-inside-1_284_1807)"/>
<mask id="path-3-inside-2_284_1807" fill="white">
<path d="M12.0477 19.9782C10.0998 19.9782 5.6473 19.8589 4.18157 19.5841C2.62424 19.292 1.57334 18.3984 1.05826 16.9292C0.617506 15.6761 0.292558 13.3496 0.0920575 10.0137C-0.0323909 7.92396 -0.030662 6.04686 0.0972433 4.4394C0.318485 1.70327 1.58198 0.612614 4.22478 0.313592C5.99126 0.116549 9.93904 0.0214844 12.0477 0.0214844C14.1565 0.0214844 18.1042 0.116549 19.8673 0.315321C22.5101 0.614343 23.7753 1.70499 23.9948 4.44113C24.1244 6.04859 24.1262 7.92569 24.0017 10.0154C23.8029 13.3513 23.478 15.6778 23.0372 16.9309C22.5204 18.4001 21.4713 19.292 19.9105 19.5858C18.4499 19.8589 13.9957 19.9782 12.0477 19.9782V19.9782ZM19.6892 18.3949C20.1871 18.3012 20.6522 18.0799 21.0391 17.7527C21.426 17.4256 21.7214 17.0036 21.8965 16.5282C22.173 15.7383 22.555 13.9563 22.7953 9.93933C22.918 7.90495 22.9162 6.08662 22.7901 4.53447C22.6414 2.67811 21.7046 1.73784 19.7324 1.51487C18.0144 1.32128 14.1305 1.2314 12.0477 1.2314C9.96497 1.2314 6.08114 1.32128 4.36133 1.51659C2.3909 1.73956 1.45408 2.67984 1.3037 4.5362C1.17925 6.08834 1.17925 7.90667 1.30024 9.94106C1.5405 13.958 1.92249 15.7383 2.19904 16.5299C2.46522 17.287 3.20845 18.1702 4.40454 18.3966C5.63693 18.6265 9.68669 18.77 12.0477 18.77C14.4088 18.77 18.4568 18.6265 19.6892 18.3949"/>
</mask>
<path d="M12.0477 19.9782C10.0998 19.9782 5.6473 19.8589 4.18157 19.5841C2.62424 19.292 1.57334 18.3984 1.05826 16.9292C0.617506 15.6761 0.292558 13.3496 0.0920575 10.0137C-0.0323909 7.92396 -0.030662 6.04686 0.0972433 4.4394C0.318485 1.70327 1.58198 0.612614 4.22478 0.313592C5.99126 0.116549 9.93904 0.0214844 12.0477 0.0214844C14.1565 0.0214844 18.1042 0.116549 19.8673 0.315321C22.5101 0.614343 23.7753 1.70499 23.9948 4.44113C24.1244 6.04859 24.1262 7.92569 24.0017 10.0154C23.8029 13.3513 23.478 15.6778 23.0372 16.9309C22.5204 18.4001 21.4713 19.292 19.9105 19.5858C18.4499 19.8589 13.9957 19.9782 12.0477 19.9782V19.9782ZM19.6892 18.3949C20.1871 18.3012 20.6522 18.0799 21.0391 17.7527C21.426 17.4256 21.7214 17.0036 21.8965 16.5282C22.173 15.7383 22.555 13.9563 22.7953 9.93933C22.918 7.90495 22.9162 6.08662 22.7901 4.53447C22.6414 2.67811 21.7046 1.73784 19.7324 1.51487C18.0144 1.32128 14.1305 1.2314 12.0477 1.2314C9.96497 1.2314 6.08114 1.32128 4.36133 1.51659C2.3909 1.73956 1.45408 2.67984 1.3037 4.5362C1.17925 6.08834 1.17925 7.90667 1.30024 9.94106C1.5405 13.958 1.92249 15.7383 2.19904 16.5299C2.46522 17.287 3.20845 18.1702 4.40454 18.3966C5.63693 18.6265 9.68669 18.77 12.0477 18.77C14.4088 18.77 18.4568 18.6265 19.6892 18.3949" fill="#FC0012"/>
<path d="M4.18157 19.5841L-5.82812 72.9493L-5.82454 72.95L4.18157 19.5841ZM1.05826 16.9292L52.2965 -1.03433L52.2874 -1.06024L52.2783 -1.08614L1.05826 16.9292ZM0.0920575 10.0137L-54.1078 13.2414L-54.1069 13.2563L-54.106 13.2712L0.0920575 10.0137ZM0.0972433 4.4394L-54.022 0.063367L-54.0248 0.0980303L-54.0276 0.132697L0.0972433 4.4394ZM4.22478 0.313592L-1.79437 -53.6476L-1.837 -53.6429L-1.87962 -53.6381L4.22478 0.313592ZM19.8673 0.315321L25.9717 -53.6363L25.961 -53.6375L25.9503 -53.6387L19.8673 0.315321ZM23.9948 4.44113L-30.1272 8.7832L-30.1263 8.79443L-30.1254 8.80566L23.9948 4.44113ZM24.0017 10.0154L78.2015 13.2449L78.2016 13.2432L24.0017 10.0154ZM23.0372 16.9309L74.2566 34.9481L74.2573 34.9462L23.0372 16.9309ZM19.9105 19.5858L29.8899 72.9567L29.9229 72.9506L29.9558 72.9444L19.9105 19.5858ZM21.8965 16.5282L72.8473 35.2912L72.9981 34.8817L73.1423 34.4698L21.8965 16.5282ZM22.7953 9.93933L-31.4021 6.66999L-31.403 6.68382L-31.4038 6.69765L22.7953 9.93933ZM22.7901 4.53447L-31.3326 8.86831L-31.33 8.90104L-31.3273 8.93376L22.7901 4.53447ZM19.7324 1.51487L25.8322 -52.4373L25.822 -52.4385L25.8118 -52.4396L19.7324 1.51487ZM4.36133 1.51659L10.4664 55.4682L10.4773 55.4669L10.4882 55.4657L4.36133 1.51659ZM1.3037 4.5362L-52.8149 0.152286L-52.8167 0.174531L-52.8185 0.196777L1.3037 4.5362ZM1.30024 9.94106L-52.8999 13.1645L-52.8993 13.1736L-52.8988 13.1827L1.30024 9.94106ZM2.19904 16.5299L-49.0591 34.4367L-49.0411 34.4881L-49.023 34.5395L2.19904 16.5299ZM4.40454 18.3966L-5.69465 71.745L-5.62326 71.7585L-5.55185 71.7719L4.40454 18.3966ZM12.0477 -34.3177C12.0675 -34.3177 12.0103 -34.3177 11.8735 -34.3193C11.7433 -34.3209 11.5752 -34.3237 11.3791 -34.3279C10.9735 -34.3367 10.5537 -34.3497 10.1945 -34.3646C9.78901 -34.3815 9.70062 -34.391 9.88006 -34.3774C9.97449 -34.3702 10.3278 -34.3427 10.8617 -34.2833C11.1387 -34.2525 11.5449 -34.2042 12.0486 -34.1334C12.5329 -34.0653 13.2735 -33.9533 14.1877 -33.7818L-5.82454 72.95C-0.558239 73.9374 4.95565 74.1031 5.67314 74.133C7.90425 74.226 10.2605 74.2741 12.0477 74.2741V-34.3177ZM14.1913 -33.7812C21.2659 -32.4542 29.6837 -29.2265 37.3962 -22.67C45.1466 -16.0814 49.7993 -8.15713 52.2965 -1.03433L-50.18 34.8927C-43.1044 55.0746 -26.0611 69.1542 -5.82812 72.9493L14.1913 -33.7812ZM52.2783 -1.08614C53.1576 1.41381 53.6218 3.39214 53.8424 4.42282C54.0828 5.5457 54.2058 6.36107 54.2587 6.74004C54.3581 7.4515 54.3377 7.54747 54.2901 6.75615L-54.106 13.2712C-53.9243 16.2946 -53.4227 25.6733 -50.1618 34.9445L52.2783 -1.08614ZM54.2919 6.78587C54.2872 6.70579 54.2961 6.81405 54.2959 7.09608C54.2956 7.36696 54.2868 7.93189 54.2221 8.74611L-54.0276 0.132697C-54.4036 4.85782 -54.3403 9.33828 -54.1078 13.2414L54.2919 6.78587ZM54.2165 8.81544C53.7477 14.6135 51.391 28.501 39.0089 40.4821C27.2551 51.8554 14.2668 53.8197 10.3292 54.2652L-1.87962 -53.6381C-8.46004 -52.8935 -23.4015 -50.2343 -36.5031 -37.557C-50.2329 -24.2718 -53.3319 -8.47088 -54.022 0.063367L54.2165 8.81544ZM10.2439 54.2748C9.65216 54.3408 9.24518 54.3729 9.1138 54.3829C8.95469 54.395 8.89061 54.3981 8.94321 54.3951C9.05973 54.3886 9.34563 54.3749 9.79291 54.3602C10.2212 54.3461 10.684 54.3348 11.1219 54.3272C11.5715 54.3194 11.8944 54.3174 12.0477 54.3174V-54.2744C9.90589 -54.2744 3.27085 -54.2126 -1.79437 -53.6476L10.2439 54.2748ZM12.0477 54.3174C12.2009 54.3174 12.5232 54.3194 12.9714 54.3272C13.4079 54.3348 13.8684 54.3461 14.2937 54.3601C14.7382 54.3748 15.0188 54.3884 15.1284 54.3946C15.1775 54.3974 15.1082 54.394 14.9428 54.3812C14.8058 54.3707 14.3886 54.3375 13.7842 54.2694L25.9503 -53.6387C20.8455 -54.2143 14.1701 -54.2744 12.0477 -54.2744V54.3174ZM13.7629 54.267C9.82918 53.8219 -3.15637 51.8593 -14.91 40.4899C-27.3014 28.5037 -29.6602 14.6044 -30.1272 8.7832L78.1168 0.0990636C77.4303 -8.45823 74.3291 -24.2709 60.5895 -37.5613C47.4877 -50.2348 32.5481 -52.8922 25.9717 -53.6363L13.7629 54.267ZM-30.1254 8.80566C-30.1928 7.97025 -30.202 7.38935 -30.2023 7.11038C-30.2027 6.81995 -30.1934 6.70701 -30.1982 6.7876L78.2016 13.2432C78.4337 9.34517 78.4991 4.84012 78.115 0.0766003L-30.1254 8.80566ZM-30.198 6.78586C-30.2448 7.57019 -30.2649 7.46877 -30.1648 6.75162C-30.1116 6.3699 -29.9883 5.55243 -29.7476 4.42761C-29.5266 3.39485 -29.0622 1.41584 -28.1828 -1.08441L74.2573 34.9462C77.5209 25.6673 78.0202 16.2871 78.2015 13.2449L-30.198 6.78586ZM-28.1821 -1.08626C-25.687 -8.17946 -21.0397 -16.0968 -13.2834 -22.6846C-5.56734 -29.2381 2.83773 -32.4497 9.86512 -33.7727L29.9558 72.9444C50.1362 69.1452 67.1638 55.1115 74.2566 34.9481L-28.1821 -1.08626ZM9.93105 -33.7851C10.8463 -33.9562 11.5873 -34.068 12.0707 -34.1357C12.5738 -34.2062 12.9792 -34.2541 13.2551 -34.2847C13.7871 -34.3436 14.1385 -34.3709 14.2312 -34.3779C14.4073 -34.3913 14.316 -34.3816 13.9085 -34.3647C13.5473 -34.3497 13.1257 -34.3367 12.7188 -34.3279C12.522 -34.3237 12.3534 -34.3209 12.2227 -34.3193C12.0854 -34.3177 12.028 -34.3177 12.0477 -34.3177V74.2741C13.8344 74.2741 16.1888 74.226 18.4153 74.1335C19.1256 74.104 24.6345 73.9394 29.8899 72.9567L9.93105 -33.7851ZM29.734 71.7536C39.4598 69.9227 48.5445 65.6008 56.1009 59.2101L-14.0227 -23.7046C-7.23996 -29.441 0.914534 -33.3203 9.64446 -34.9637L29.734 71.7536ZM56.1009 59.2101C63.6574 52.8193 69.4274 44.5781 72.8473 35.2912L-29.0544 -2.23486C-25.9846 -10.5708 -20.8055 -17.9682 -14.0227 -23.7046L56.1009 59.2101ZM73.1423 34.4698C76.0127 26.2715 76.6905 18.2605 76.9943 13.181L-31.4038 6.69765C-31.4559 7.56982 -31.4728 7.28415 -31.3118 6.23194C-31.2272 5.67858 -31.0691 4.75283 -30.793 3.5532C-30.5228 2.37896 -30.0746 0.657866 -29.3494 -1.41348L73.1423 34.4698ZM76.9926 13.2087C77.2253 9.35167 77.293 4.87794 76.9074 0.135172L-31.3273 8.93376C-31.3989 8.05288 -31.4096 7.4279 -31.4099 7.10804C-31.4102 6.77664 -31.3994 6.62478 -31.4021 6.66999L76.9926 13.2087ZM76.9127 0.200624C76.1877 -8.85416 72.8232 -23.6045 60.1709 -36.1473C47.894 -48.3179 33.746 -51.5426 25.8322 -52.4373L13.6327 55.467C7.69104 54.7953 -5.00252 52.1522 -16.2807 40.9716C-27.9344 29.4187 -30.7562 16.0667 -31.3326 8.86831L76.9127 0.200624ZM25.8118 -52.4396C20.7223 -53.0131 14.0665 -53.0645 12.0477 -53.0645V55.5273C12.2097 55.5273 12.5343 55.5293 12.9765 55.5367C13.4085 55.544 13.8607 55.5548 14.2755 55.5682C14.7103 55.5822 14.977 55.595 15.0719 55.6003C15.1135 55.6026 15.0347 55.5987 14.8586 55.5853C14.7121 55.5741 14.2779 55.5397 13.6531 55.4693L25.8118 -52.4396ZM12.0477 -53.0645C10.0408 -53.0645 3.3564 -53.0142 -1.76555 -52.4325L10.4882 55.4657C9.85619 55.5375 9.41604 55.5725 9.26563 55.5841C9.08551 55.598 9.00321 55.6021 9.04234 55.5999C9.13227 55.5949 9.39507 55.5822 9.82761 55.5681C10.24 55.5548 10.6903 55.544 11.1211 55.5367C11.5619 55.5293 11.886 55.5273 12.0477 55.5273V-53.0645ZM-1.74372 -52.435C-9.66873 -51.5382 -23.8073 -48.3079 -36.0758 -36.1456C-48.7119 -23.6188 -52.0824 -8.89095 -52.8149 0.152286L55.4223 8.92011C54.8401 16.107 52.0133 29.4366 40.3758 40.9733C29.1059 52.1457 16.421 54.7944 10.4664 55.4682L-1.74372 -52.435ZM-52.8185 0.196777C-53.1977 4.92559 -53.1254 9.37207 -52.8999 13.1645L55.5004 6.7176C55.4959 6.64292 55.506 6.77159 55.5058 7.0838C55.5057 7.384 55.4962 7.99897 55.4259 8.87562L-52.8185 0.196777ZM-52.8988 13.1827C-52.5936 18.2847 -51.9138 26.265 -49.0591 34.4367L53.4571 -1.37684C54.1741 0.675602 54.6192 2.38363 54.8891 3.55695C55.1644 4.75345 55.3223 5.67745 55.4071 6.23136C55.5682 7.2842 55.5514 7.57078 55.4993 6.69938L-52.8988 13.1827ZM-49.023 34.5395C-43.4985 50.2521 -29.1375 67.3071 -5.69465 71.745L14.5037 -34.9517C35.5545 -30.9667 48.4289 -15.6782 53.4211 -1.47967L-49.023 34.5395ZM-5.55185 71.7719C-0.500862 72.7141 4.77793 72.8847 5.40545 72.9125C7.57462 73.0083 9.9815 73.0659 12.0477 73.0659V-35.5259C11.9641 -35.5259 11.6997 -35.5278 11.2963 -35.5372C10.9062 -35.5463 10.5192 -35.5593 10.2003 -35.5734C9.83801 -35.5894 9.78229 -35.5971 9.98776 -35.5812C10.0927 -35.573 10.4519 -35.5445 10.9864 -35.4851C11.2632 -35.4543 11.6717 -35.4059 12.1782 -35.3352C12.6614 -35.2677 13.4204 -35.154 14.3609 -34.9786L-5.55185 71.7719ZM12.0477 73.0659C14.1143 73.0659 16.5233 73.0083 18.6979 72.9118C19.3163 72.8844 24.6297 72.7129 29.7179 71.7566L9.66052 -34.9668C10.6092 -35.1451 11.3753 -35.2606 11.8635 -35.3293C12.3752 -35.4013 12.7882 -35.4505 13.0684 -35.4819C13.6098 -35.5424 13.9745 -35.5716 14.083 -35.5801C14.2954 -35.5967 14.2452 -35.5892 13.8856 -35.5732C13.5699 -35.5592 13.1853 -35.5462 12.7967 -35.5371C12.395 -35.5278 12.1312 -35.5259 12.0477 -35.5259V73.0659Z" fill="#FC0012" mask="url(#path-3-inside-2_284_1807)"/>
</svg>
