<svg width="29" height="16" viewBox="0 0 29 16" fill="none" xmlns="http://www.w3.org/2000/svg">
<mask id="path-1-inside-1_284_1815" fill="white">
<path d="M14.4978 15.5C22.5064 15.5 29 12.141 29 8.00112C29 3.85677 22.5064 0.5 14.4978 0.5C6.49134 0.5 0 3.85453 0 8.00112C0 12.141 6.49134 15.4978 14.4978 15.4978V15.5ZM17.2303 11.8179C16.9859 12.3856 16.5705 13.595 15.6152 14.0774C15.3108 14.2178 14.9812 14.2942 14.6466 14.3018H14.5C11.8253 14.3018 9.3327 13.9248 7.24889 13.2853L7.16891 13.2539C6.97564 13.1889 6.87789 13.0991 6.87789 12.9869C6.87789 12.8927 6.92899 12.8186 6.99786 12.7491L7.12893 12.6324C7.61322 12.2285 9.06167 11.1672 11.7919 10.1081C12.7494 9.74009 13.9491 9.28011 15.2042 9.01085C15.9396 8.85602 18.6698 8.43418 17.2281 11.8201L17.2303 11.8179ZM24.5547 4.25841C24.6058 4.16866 24.6747 4.09237 24.7991 4.08564C24.8657 4.07891 24.959 4.09461 25.099 4.18437C26.8007 5.24121 27.8115 6.56507 27.8115 7.99888C27.8115 10.5815 24.5214 12.8052 19.8139 13.7767C19.5118 13.8373 19.3096 13.8351 19.243 13.7588C19.1941 13.7139 19.1808 13.6286 19.243 13.5254C19.2781 13.4627 19.3198 13.404 19.3674 13.3504C21.9311 10.2988 23.8838 5.79544 24.437 4.4985C24.4814 4.40875 24.5214 4.319 24.5547 4.25841ZM11.8119 4.16417C12.0563 3.59873 12.4717 2.3893 13.427 1.90912C13.7158 1.76328 14.0757 1.69372 14.3934 1.68474H14.5378C17.2169 1.68474 19.7051 2.05722 21.7933 2.7012C21.8089 2.70793 21.8577 2.72363 21.8733 2.73261C22.0643 2.79768 22.1621 2.88743 22.1621 2.99738C22.1621 3.09387 22.111 3.16567 22.0444 3.23298C22.0133 3.2644 21.971 3.3003 21.9111 3.34966C21.4312 3.75804 19.9805 4.81713 17.2503 5.87397C16.2883 6.2442 15.0909 6.70419 13.8402 6.9712C13.1026 7.12827 10.3702 7.55011 11.8119 4.16417ZM9.18607 2.21653C9.4882 2.15819 9.68814 2.15819 9.76145 2.23448C9.80588 2.28384 9.81699 2.36462 9.75923 2.46559C9.72291 2.52805 9.68049 2.58669 9.6326 2.64061C7.06894 5.69447 5.11621 10.1956 4.5586 11.497C4.51862 11.5868 4.47641 11.6765 4.44086 11.7349C4.39199 11.8246 4.32312 11.9031 4.20093 11.9099C4.13429 11.9166 4.03876 11.8964 3.89658 11.8089C2.19488 10.7543 1.18852 9.43044 1.18852 7.99663C1.18852 5.41174 4.47641 3.18811 9.18607 2.21877"/>
</mask>
<path d="M14.4978 15.5C22.5064 15.5 29 12.141 29 8.00112C29 3.85677 22.5064 0.5 14.4978 0.5C6.49134 0.5 0 3.85453 0 8.00112C0 12.141 6.49134 15.4978 14.4978 15.4978V15.5ZM17.2303 11.8179C16.9859 12.3856 16.5705 13.595 15.6152 14.0774C15.3108 14.2178 14.9812 14.2942 14.6466 14.3018H14.5C11.8253 14.3018 9.3327 13.9248 7.24889 13.2853L7.16891 13.2539C6.97564 13.1889 6.87789 13.0991 6.87789 12.9869C6.87789 12.8927 6.92899 12.8186 6.99786 12.7491L7.12893 12.6324C7.61322 12.2285 9.06167 11.1672 11.7919 10.1081C12.7494 9.74009 13.9491 9.28011 15.2042 9.01085C15.9396 8.85602 18.6698 8.43418 17.2281 11.8201L17.2303 11.8179ZM24.5547 4.25841C24.6058 4.16866 24.6747 4.09237 24.7991 4.08564C24.8657 4.07891 24.959 4.09461 25.099 4.18437C26.8007 5.24121 27.8115 6.56507 27.8115 7.99888C27.8115 10.5815 24.5214 12.8052 19.8139 13.7767C19.5118 13.8373 19.3096 13.8351 19.243 13.7588C19.1941 13.7139 19.1808 13.6286 19.243 13.5254C19.2781 13.4627 19.3198 13.404 19.3674 13.3504C21.9311 10.2988 23.8838 5.79544 24.437 4.4985C24.4814 4.40875 24.5214 4.319 24.5547 4.25841ZM11.8119 4.16417C12.0563 3.59873 12.4717 2.3893 13.427 1.90912C13.7158 1.76328 14.0757 1.69372 14.3934 1.68474H14.5378C17.2169 1.68474 19.7051 2.05722 21.7933 2.7012C21.8089 2.70793 21.8577 2.72363 21.8733 2.73261C22.0643 2.79768 22.1621 2.88743 22.1621 2.99738C22.1621 3.09387 22.111 3.16567 22.0444 3.23298C22.0133 3.2644 21.971 3.3003 21.9111 3.34966C21.4312 3.75804 19.9805 4.81713 17.2503 5.87397C16.2883 6.2442 15.0909 6.70419 13.8402 6.9712C13.1026 7.12827 10.3702 7.55011 11.8119 4.16417ZM9.18607 2.21653C9.4882 2.15819 9.68814 2.15819 9.76145 2.23448C9.80588 2.28384 9.81699 2.36462 9.75923 2.46559C9.72291 2.52805 9.68049 2.58669 9.6326 2.64061C7.06894 5.69447 5.11621 10.1956 4.5586 11.497C4.51862 11.5868 4.47641 11.6765 4.44086 11.7349C4.39199 11.8246 4.32312 11.9031 4.20093 11.9099C4.13429 11.9166 4.03876 11.8964 3.89658 11.8089C2.19488 10.7543 1.18852 9.43044 1.18852 7.99663C1.18852 5.41174 4.47641 3.18811 9.18607 2.21877" fill="#FC0012"/>
<path d="M14.4978 15.5H-36.9426V66.9403H14.4978V15.5ZM14.4978 15.4978H65.9381V-35.9426H14.4978V15.4978ZM17.2303 11.8179L64.479 32.1567L-19.3296 -24.3689L17.2303 11.8179ZM15.6152 14.0774L37.1586 60.7892L37.9884 60.4065L38.8041 59.9945L15.6152 14.0774ZM14.6466 14.3018V65.7421H15.2331L15.8194 65.7288L14.6466 14.3018ZM7.24889 13.2853L-11.5579 61.1645L-9.72518 61.8844L-7.84277 62.4621L7.24889 13.2853ZM7.16891 13.2539L25.9757 -34.6252L24.7899 -35.091L23.5824 -35.4975L7.16891 13.2539ZM6.99786 12.7491L-27.2053 -25.6729L-28.4163 -24.5949L-29.5571 -23.4427L6.99786 12.7491ZM7.12893 12.6324L-25.8173 -26.8728L-26.4545 -26.3413L-27.0743 -25.7896L7.12893 12.6324ZM11.7919 10.1081L-6.66204 -37.9081L-6.73678 -37.8794L-6.81143 -37.8505L11.7919 10.1081ZM15.2042 9.01085L4.60581 -41.3258L4.51022 -41.3057L4.41471 -41.2852L15.2042 9.01085ZM17.2281 11.8201L-30.1002 -8.33291L53.7879 48.0069L17.2281 11.8201ZM24.5547 4.25841L-20.1492 -21.191L-20.3357 -20.8633L-20.5174 -20.5329L24.5547 4.25841ZM24.7991 4.08564L27.5784 55.4508L28.7756 55.3861L29.9684 55.2656L24.7991 4.08564ZM25.099 4.18437L-2.66976 47.4857L-2.3564 47.6867L-2.04016 47.8831L25.099 4.18437ZM19.8139 13.7767L29.9275 64.2131L30.0696 64.1846L30.2116 64.1553L19.8139 13.7767ZM19.243 13.7588L57.9829 -20.0839L56.12 -22.2164L54.0343 -24.1315L19.243 13.7588ZM19.243 13.5254L63.3011 40.077L63.7333 39.36L64.1418 38.6293L19.243 13.5254ZM19.3674 13.3504L57.8261 47.5124L58.2972 46.982L58.7535 46.4388L19.3674 13.3504ZM24.437 4.4985L-21.6639 -18.323L-22.3089 -17.02L-22.8793 -15.6827L24.437 4.4985ZM11.8119 4.16417L-35.4074 -16.2427L-35.4622 -16.1159L-35.5163 -15.9889L11.8119 4.16417ZM13.427 1.90912L36.5298 47.8696L36.5729 47.848L36.6159 47.8263L13.427 1.90912ZM14.3934 1.68474V-49.7556H13.6668L12.9406 -49.7351L14.3934 1.68474ZM21.7933 2.7012L42.228 -44.5061L39.6434 -45.6249L36.9522 -46.4548L21.7933 2.7012ZM21.8733 2.73261L-3.84056 47.2849L0.521322 49.8024L5.28866 51.4261L21.8733 2.73261ZM22.0444 3.23298L-14.5106 -32.9588L22.0444 3.23298ZM21.9111 3.34966L-10.7772 -36.3692L-11.1048 -36.0995L-11.428 -35.8245L21.9111 3.34966ZM17.2503 5.87397L35.7276 53.8812L35.7735 53.8636L35.8194 53.8458L17.2503 5.87397ZM13.8402 6.9712L24.5546 57.2833L24.5673 57.2806L24.5801 57.2779L13.8402 6.9712ZM9.76145 2.23448L47.9956 -32.1786L47.434 -32.8025L46.8523 -33.4079L9.76145 2.23448ZM9.75923 2.46559L54.2263 28.3266L54.3188 28.1675L54.4102 28.0077L9.75923 2.46559ZM9.6326 2.64061L-28.8333 -31.5132L-29.3069 -30.9798L-29.7655 -30.4335L9.6326 2.64061ZM4.5586 11.497L51.5464 32.4315L51.6964 32.0948L51.8416 31.7559L4.5586 11.497ZM4.44086 11.7349L-39.4881 -15.0299L-40.1383 -13.9628L-40.7358 -12.8655L4.44086 11.7349ZM4.20093 11.9099L1.37124 -39.4526L0.199334 -39.388L-0.968407 -39.2701L4.20093 11.9099ZM3.89658 11.8089L-23.2009 55.5334L-23.1338 55.575L-23.0665 55.6165L3.89658 11.8089ZM14.4978 66.9403C25.006 66.9403 37.0657 64.8469 48.3816 58.995C57.0837 54.4947 80.4403 39.1508 80.4403 8.00112H-22.4403C-22.4403 -19.0087 -2.33052 -30.6031 1.1227 -32.389C7.18959 -35.5264 11.9982 -35.9403 14.4978 -35.9403V66.9403ZM80.4403 8.00112C80.4403 -23.1367 57.1037 -38.4849 48.3816 -42.9956C37.0614 -48.8498 25 -50.9403 14.4978 -50.9403V51.9403C12.0042 51.9403 7.19397 51.5281 1.1227 48.3884C-2.35048 46.5923 -22.4403 34.9946 -22.4403 8.00112H80.4403ZM14.4978 -50.9403C4.00023 -50.9403 -8.06194 -48.8517 -19.385 -42.9953C-28.1226 -38.4762 -51.4403 -23.1247 -51.4403 8.00112H51.4403C51.4403 34.9804 31.3683 46.5813 27.878 48.3865C21.8022 51.5289 16.9889 51.9403 14.4978 51.9403V-50.9403ZM-51.4403 8.00112C-51.4403 39.1476 -28.089 54.492 -19.3812 58.9948C-8.0647 64.8465 3.99396 66.9381 14.4978 66.9381V-35.9426C16.9952 -35.9426 21.8049 -35.5294 27.8741 -32.391C31.3347 -30.6016 51.4403 -19.0055 51.4403 8.00112H-51.4403ZM-36.9426 15.4978V15.5H65.9381V15.4978H-36.9426ZM-30.0184 -8.52098C-31.4108 -5.28645 -29.5697 -9.82031 -27.7051 -13.0058C-25.6201 -16.5679 -19.6907 -25.7204 -7.57369 -31.8397L38.8041 59.9945C51.8764 53.3928 58.4911 43.3944 61.0838 38.965C63.4559 34.9123 65.6269 29.4899 64.479 32.1567L-30.0184 -8.52098ZM-5.92818 -32.6344C0.151836 -35.4385 6.75458 -36.9719 13.4739 -37.1252L15.8194 65.7288C23.2079 65.5603 30.4697 63.8741 37.1586 60.7892L-5.92818 -32.6344ZM14.6466 -37.1385H14.5V65.7421H14.6466V-37.1385ZM14.5 -37.1385C16.4554 -37.1385 19.0913 -36.8885 22.3405 -35.8914L-7.84277 62.4621C-0.425952 64.7382 7.19513 65.7421 14.5 65.7421V-37.1385ZM26.0557 -34.5938L25.9757 -34.6252L-11.6379 61.1331L-11.5579 61.1645L26.0557 -34.5938ZM23.5824 -35.4975C26.9876 -34.3511 34.4036 -31.4868 41.7315 -24.762C50.2266 -16.9661 58.3182 -3.95733 58.3182 12.9869H-44.5624C-44.5624 49.9306 -11.7143 61.1739 -9.24461 62.0054L23.5824 -35.4975ZM58.3182 12.9869C58.3182 33.5761 46.4296 46.0351 43.5528 48.9409L-29.5571 -23.4427C-32.5717 -20.3979 -44.5624 -7.79079 -44.5624 12.9869H58.3182ZM41.201 51.1711L41.3321 51.0544L-27.0743 -25.7896L-27.2053 -25.6729L41.201 51.1711ZM40.0751 52.1375C36.1638 55.3995 32.7437 57.1557 30.3953 58.0666L-6.81143 -37.8505C-14.6204 -34.8213 -20.9373 -30.9425 -25.8173 -26.8728L40.0751 52.1375ZM30.2459 58.1243C30.8019 57.9106 30.4085 58.0684 29.8425 58.2595C29.2326 58.4655 27.8694 58.9045 25.9938 59.3069L4.41471 -41.2852C-1.33088 -40.0527 -6.1057 -38.122 -6.66204 -37.9081L30.2459 58.1243ZM25.8026 59.3475C24.5545 59.6103 21.4276 60.23 17.318 60.3326C14.1121 60.4127 4.62274 60.4181 -6.05254 55.0571C-19.8347 48.1359 -30.7111 34.5839 -33.255 17.513C-35.2213 4.31826 -31.3223 -5.46292 -30.1002 -8.33291L64.5563 31.9732C66.4993 27.4102 70.5977 16.412 68.502 2.34895C65.8286 -15.5903 54.4941 -29.6621 40.1177 -36.8817C28.8481 -42.5411 18.6284 -42.6129 14.7488 -42.516C9.96555 -42.3965 6.22159 -41.666 4.60581 -41.3258L25.8026 59.3475ZM53.7879 48.0069L53.7901 48.0047L-19.3296 -24.3689L-19.3318 -24.3667L53.7879 48.0069ZM69.2586 29.7078C67.7042 32.4382 63.8647 38.6791 56.6643 44.4044C48.5526 50.8543 38.4373 54.8633 27.5784 55.4508L22.0198 -47.2796C-3.77556 -45.8838 -16.4893 -27.6198 -20.1492 -21.191L69.2586 29.7078ZM29.9684 55.2656C15.2262 56.7546 3.80059 51.6351 -2.66976 47.4857L52.8677 -39.117C46.1174 -43.4458 34.5052 -48.5968 19.6297 -47.0943L29.9684 55.2656ZM-2.04016 47.8831C-6.64418 45.0237 -23.6289 32.7046 -23.6289 7.99888H79.2518C79.2518 -19.5745 60.2455 -34.5413 52.2381 -39.5143L-2.04016 47.8831ZM-23.6289 7.99888C-23.6289 -14.348 -9.47043 -26.7169 -4.17045 -30.474C1.90822 -34.7829 7.17203 -36.1386 9.41621 -36.6018L30.2116 64.1553C37.1633 62.7205 46.4258 59.7672 55.3264 53.4579C63.4483 47.7005 79.2518 32.9284 79.2518 7.99888H-23.6289ZM9.70037 -36.6596C11.2287 -36.966 15.3696 -37.7451 20.7836 -37.6037C23.5241 -37.5321 28.3975 -37.1928 34.2065 -35.4363C39.8731 -33.7228 49.5932 -29.6876 57.9829 -20.0839L-19.4969 47.6015C-4.03642 65.2992 16.3142 65.1953 18.0967 65.2419C23.704 65.3884 28.0971 64.5801 29.9275 64.2131L9.70037 -36.6596ZM54.0343 -24.1315C64.7527 -14.2897 70.0675 -1.13593 70.5967 11.5139C71.1077 23.7285 67.2271 33.5625 63.3011 40.077L-24.8151 -13.0262C-32.6081 -0.0951076 -39.7882 29.3917 -15.5483 51.6491L54.0343 -24.1315ZM64.1418 38.6293C62.3677 41.8024 60.2515 44.7818 57.8261 47.5124L-19.0913 -20.8115C-21.612 -17.9738 -23.8115 -14.877 -25.6558 -11.5784L64.1418 38.6293ZM58.7535 46.4388C66.8936 36.7494 71.4339 25.4283 71.7532 24.6797L-22.8793 -15.6827C-22.9605 -15.4922 -22.9542 -15.521 -22.8739 -15.6735C-22.8256 -15.7654 -22.6383 -16.1184 -22.2895 -16.6688C-21.9729 -17.1686 -21.2343 -18.291 -20.0188 -19.7379L58.7535 46.4388ZM70.5378 27.32C70.6939 27.0046 70.8156 26.7511 70.8721 26.633C70.9005 26.5735 70.9248 26.5224 70.9285 26.5147C70.9388 26.4931 70.9243 26.5237 70.9073 26.5591C70.8802 26.6158 70.7513 26.8857 70.5773 27.2351C70.4117 27.5679 70.0788 28.228 69.6268 29.0498L-20.5174 -20.5329C-20.9861 -19.6809 -21.3364 -18.9868 -21.5203 -18.6174C-21.7126 -18.2313 -21.8605 -17.922 -21.9074 -17.824C-21.9224 -17.7925 -21.935 -17.7662 -21.9431 -17.7492C-21.9505 -17.7336 -21.9577 -17.7185 -21.9586 -17.7166C-21.9651 -17.7029 -21.9512 -17.7322 -21.9333 -17.7697C-21.8978 -17.8439 -21.7978 -18.0525 -21.6639 -18.323L70.5378 27.32ZM59.0313 24.5711C60.4568 21.2727 58.5872 25.8509 56.7326 29.0152C54.6468 32.5741 48.6958 41.7542 36.5298 47.8696L-9.67585 -44.0514C-22.7971 -37.4557 -29.4334 -27.4308 -32.0269 -23.0058C-34.389 -18.9755 -36.5885 -13.5098 -35.4074 -16.2427L59.0313 24.5711ZM36.6159 47.8263C32.1843 50.0643 28.1366 51.2788 25.0301 51.9673C21.8539 52.6712 18.7747 53.0218 15.8461 53.1046L12.9406 -49.7351C7.29722 -49.5756 -0.973793 -48.4461 -9.7619 -44.008L36.6159 47.8263ZM14.3934 53.1251H14.5378V-49.7556H14.3934V53.1251ZM14.5378 53.1251C12.6458 53.1251 9.9711 52.8862 6.63446 51.8572L36.9522 -46.4548C29.439 -48.7718 21.7881 -49.7556 14.5378 -49.7556V53.1251ZM1.35863 49.9085C2.36348 50.3435 3.16298 50.6502 3.43512 50.7543C3.78956 50.8897 4.06908 50.992 4.17222 51.0296C4.28007 51.069 4.38266 51.1059 4.35277 51.0952C4.35207 51.0949 4.34606 51.0927 4.33812 51.0899C4.32988 51.0869 4.31737 51.0824 4.30204 51.0768C4.27209 51.066 4.22455 51.0487 4.16595 51.0273C4.02527 50.9758 3.37216 50.7377 2.54618 50.4032C2.11899 50.2302 1.40273 49.9337 0.527536 49.5347C0.0773593 49.3295 -0.508598 49.0545 -1.18672 48.7145C-1.84533 48.3843 -2.76516 47.9056 -3.84056 47.2849L47.5872 -41.8197C46.5098 -42.4415 45.5878 -42.9213 44.9267 -43.2528C44.2462 -43.594 43.6576 -43.8702 43.2045 -44.0768C42.3236 -44.4784 41.6009 -44.7776 41.1667 -44.9535C40.3267 -45.2937 39.6575 -45.5378 39.5007 -45.5951C39.3857 -45.6372 39.2908 -45.6714 39.2899 -45.6717C39.2523 -45.6853 39.3473 -45.6511 39.4482 -45.6143C39.5443 -45.5792 39.8173 -45.4793 40.166 -45.346C40.4325 -45.2442 41.2271 -44.9394 42.228 -44.5061L1.35863 49.9085ZM5.28866 51.4261C1.85284 50.2559 -5.45135 47.3884 -12.6802 40.7584C-20.9607 33.164 -29.2782 20.2004 -29.2782 2.99738H73.6024C73.6024 -33.9695 40.6677 -45.2083 38.4579 -45.9609L5.28866 51.4261ZM-29.2782 2.99738C-29.2782 -17.622 -17.3497 -30.0911 -14.5106 -32.9588L58.5993 39.4248C61.5717 36.4225 73.6024 23.8097 73.6024 2.99738H-29.2782ZM-14.5106 -32.9588C-13.2938 -34.1878 -12.2722 -35.0921 -11.762 -35.5356C-11.2455 -35.9846 -10.839 -36.3183 -10.7772 -36.3692L54.5993 43.0685C54.7211 42.9682 55.1787 42.592 55.7391 42.1048C56.2931 41.6231 57.3514 40.6851 58.5993 39.4248L-14.5106 -32.9588ZM-11.428 -35.8245C-7.15496 -39.4611 -3.51401 -41.2481 -1.31883 -42.0979L35.8194 53.8458C43.4751 50.8824 50.0174 46.9771 55.2501 42.5238L-11.428 -35.8245ZM-1.22703 -42.1333C-1.79173 -41.9159 -1.3909 -42.077 -0.816801 -42.271C-0.196952 -42.4805 1.19103 -42.9279 3.10031 -43.3355L24.5801 57.2779C30.3719 56.0414 35.1892 54.0884 35.7276 53.8812L-1.22703 -42.1333ZM3.1258 -43.3409C4.42939 -43.6185 7.56434 -44.2416 11.6787 -44.3481C14.8897 -44.4312 24.375 -44.4434 35.0508 -39.0947C48.8326 -32.1899 59.7346 -18.6468 62.2911 -1.55715C64.267 11.6514 60.3633 21.4447 59.1402 24.3172L-35.5163 -15.9889C-37.4604 -11.4234 -41.5632 -0.413107 -39.4574 13.6638C-36.771 31.6217 -25.4101 45.6844 -11.0332 52.8873C0.237744 58.5342 10.4543 58.5987 14.3401 58.4981C19.1291 58.3742 22.8822 57.6395 24.5546 57.2833L3.1258 -43.3409ZM18.9388 52.7239C17.6411 52.9745 13.6284 53.7233 8.36889 53.6016C5.66784 53.539 0.952797 53.2229 -4.67426 51.5874C-10.2502 49.9667 -19.226 46.3096 -27.3294 37.8768L46.8523 -33.4079C31.7435 -49.1307 13.1636 -49.1957 10.7502 -49.2515C5.29694 -49.3778 1.03319 -48.5997 -0.566618 -48.2908L18.9388 52.7239ZM-28.4727 36.6475C-36.7532 27.4475 -41.2803 15.7474 -41.6208 3.79583C-41.9476 -7.67383 -38.4207 -16.9075 -34.8917 -23.0765L54.4102 28.0077C62.036 14.6768 67.0771 -10.9784 47.9956 -32.1786L-28.4727 36.6475ZM-34.7078 -23.3954C-33.0277 -26.2843 -31.0608 -29.0044 -28.8333 -31.5132L48.0985 36.7944C50.4218 34.1778 52.4735 31.3404 54.2263 28.3266L-34.7078 -23.3954ZM-29.7655 -30.4335C-37.8868 -20.7593 -42.4355 -9.43621 -42.7244 -8.76188L51.8416 31.7559C51.9487 31.5061 51.9452 31.5294 51.8688 31.6747C51.8224 31.7629 51.6369 32.1124 51.2904 32.6594C50.9758 33.156 50.2407 34.2734 49.0307 35.7147L-29.7655 -30.4335ZM-42.4292 -9.43748C-42.3298 -9.66064 -42.0779 -10.2224 -41.7267 -10.9417C-41.5442 -11.3155 -41.2825 -11.8396 -40.9519 -12.4613C-40.6353 -13.057 -40.1413 -13.9578 -39.4881 -15.0299L48.3699 38.4996C49.5929 36.4921 50.414 34.8296 50.7228 34.1971C51.114 33.3959 51.407 32.7444 51.5464 32.4315L-42.4292 -9.43748ZM-40.7358 -12.8655C-39.152 -15.774 -35.3946 -22.0727 -28.2952 -27.9021C-20.3056 -34.4623 -10.0214 -38.8249 1.37124 -39.4526L7.03063 63.2723C33.5624 61.8106 46.2001 42.611 49.6175 36.3352L-40.7358 -12.8655ZM-0.968407 -39.2701C14.6365 -40.8462 26.0516 -34.958 30.8596 -31.9986L-23.0665 55.6165C-17.9741 58.7508 -6.3679 64.6794 9.37028 63.0898L-0.968407 -39.2701ZM30.9941 -31.9156C35.7282 -28.9817 52.6289 -16.6439 52.6289 7.99663H-50.2518C-50.2518 35.5048 -31.3385 50.4903 -23.2009 55.5334L30.9941 -31.9156ZM52.6289 7.99663C52.6289 30.3169 38.5005 42.6881 33.1735 46.465C27.0828 50.7834 21.8061 52.1399 19.5561 52.603L-1.18391 -48.1655C-8.14364 -46.733 -17.4191 -43.78 -26.3312 -37.4613C-34.4795 -31.684 -50.2518 -16.9085 -50.2518 7.99663H52.6289Z" fill="#FC0012" mask="url(#path-1-inside-1_284_1815)"/>
</svg>
