<svg width="22" height="22" viewBox="0 0 22 22" fill="none" xmlns="http://www.w3.org/2000/svg">
<path fill-rule="evenodd" clip-rule="evenodd" d="M11 22C4.92493 22 0 17.0749 0 11C0 4.92493 4.92493 0 11 0C17.0752 0 22 4.92493 22 11C22 17.0749 17.0752 22 11 22Z" fill="white"/>
<path fill-rule="evenodd" clip-rule="evenodd" d="M11.0029 12.6615L2.07213 16.3579C3.95382 19.5197 7.36371 21.449 11.041 21.43C14.7088 21.4204 18.1092 19.4718 19.9718 16.3007L11.0029 12.6615ZM9.45595 10.0509L10.8791 0.623535C7.21124 0.671228 3.83002 2.64843 1.99615 5.82911C0.152757 9.00979 0.133604 12.9259 1.93894 16.1257L9.45595 10.0509ZM12.5024 10.176L20.1053 16.0596C21.8725 12.8599 21.8342 8.97236 19.9909 5.81084C19.0897 4.25636 17.8014 2.96168 16.2515 2.05279C14.7015 1.1439 12.9426 0.651764 11.146 0.624286L12.5024 10.176Z" fill="#FC0012"/>
</svg>
