<svg width="28" height="18" viewBox="0 0 28 18" fill="none" xmlns="http://www.w3.org/2000/svg">
<mask id="path-1-inside-1_284_1804" fill="white">
<path d="M13.1225 17.084C11.6542 16.1766 10.573 13.0449 10.573 9.32435C10.573 9.18781 10.5736 9.053 10.5771 8.91877L10.5788 8.9205C6.49558 8.28735 3.54495 6.55211 3.46964 4.50058L3.45738 4.5242C2.45788 5.74958 1.88749 7.16624 1.88749 8.67565C1.88749 13.1175 6.82836 16.7568 13.0957 17.0788L13.1225 17.084ZM0 9C0 4.02989 6.26789 0 14 0C21.7321 0 28 4.02989 28 9C28 13.9701 21.7321 18 14 18C6.26789 18 0 13.9701 0 9ZM14 1.29855C15.4928 1.29855 16.7621 3.53271 17.2326 6.65062L17.2344 6.64601C20.1383 6.2001 22.1717 5.17059 22.1717 3.97343C22.1717 2.36609 18.5129 1.06523 14 1.06523C9.48707 1.06523 5.82827 2.36666 5.82827 3.97343C5.82827 5.17059 7.86113 6.19953 10.7656 6.64601L10.7674 6.65062C11.2379 3.53329 12.5078 1.29855 14 1.29855ZM14.9038 17.0788C21.1711 16.7568 26.1125 13.1175 26.1125 8.67565C26.1125 7.16624 25.5415 5.74958 24.5426 4.5242L24.5304 4.50058C24.455 6.55211 21.505 8.28735 17.4212 8.9205L17.4229 8.91877C17.4259 9.053 17.427 9.18781 17.427 9.32435C17.427 13.0449 16.3446 16.1766 14.8775 17.084L14.9038 17.0788ZM14 6.88222C14.6691 6.88222 15.3188 6.85399 15.9406 6.79983L15.94 6.80041C15.6306 4.80188 14.8786 3.39156 14 3.39156C13.1214 3.39156 12.37 4.80188 12.06 6.80041L12.0594 6.79983C12.6812 6.85399 13.3309 6.88222 14 6.88222ZM14 14.2829C15.1239 14.2829 16.0405 11.975 16.0895 9.08066L16.0953 9.08238C14.7014 9.20913 13.2986 9.20913 11.9047 9.08238L11.9111 9.08066C11.9595 11.9756 12.8761 14.2829 14 14.2829Z"/>
</mask>
<path d="M13.1225 17.084C11.6542 16.1766 10.573 13.0449 10.573 9.32435C10.573 9.18781 10.5736 9.053 10.5771 8.91877L10.5788 8.9205C6.49558 8.28735 3.54495 6.55211 3.46964 4.50058L3.45738 4.5242C2.45788 5.74958 1.88749 7.16624 1.88749 8.67565C1.88749 13.1175 6.82836 16.7568 13.0957 17.0788L13.1225 17.084ZM0 9C0 4.02989 6.26789 0 14 0C21.7321 0 28 4.02989 28 9C28 13.9701 21.7321 18 14 18C6.26789 18 0 13.9701 0 9ZM14 1.29855C15.4928 1.29855 16.7621 3.53271 17.2326 6.65062L17.2344 6.64601C20.1383 6.2001 22.1717 5.17059 22.1717 3.97343C22.1717 2.36609 18.5129 1.06523 14 1.06523C9.48707 1.06523 5.82827 2.36666 5.82827 3.97343C5.82827 5.17059 7.86113 6.19953 10.7656 6.64601L10.7674 6.65062C11.2379 3.53329 12.5078 1.29855 14 1.29855ZM14.9038 17.0788C21.1711 16.7568 26.1125 13.1175 26.1125 8.67565C26.1125 7.16624 25.5415 5.74958 24.5426 4.5242L24.5304 4.50058C24.455 6.55211 21.505 8.28735 17.4212 8.9205L17.4229 8.91877C17.4259 9.053 17.427 9.18781 17.427 9.32435C17.427 13.0449 16.3446 16.1766 14.8775 17.084L14.9038 17.0788ZM14 6.88222C14.6691 6.88222 15.3188 6.85399 15.9406 6.79983L15.94 6.80041C15.6306 4.80188 14.8786 3.39156 14 3.39156C13.1214 3.39156 12.37 4.80188 12.06 6.80041L12.0594 6.79983C12.6812 6.85399 13.3309 6.88222 14 6.88222ZM14 14.2829C15.1239 14.2829 16.0405 11.975 16.0895 9.08066L16.0953 9.08238C14.7014 9.20913 13.2986 9.20913 11.9047 9.08238L11.9111 9.08066C11.9595 11.9756 12.8761 14.2829 14 14.2829Z" fill="#5F5F5F"/>
<path d="M13.1225 17.084L10.6272 30.0087L20.0424 5.88625L13.1225 17.084ZM10.5771 8.91877L19.8229 -0.450794L-1.78973 -21.778L-2.58182 8.57538L10.5771 8.91877ZM10.5788 8.9205L8.56181 21.9284L48.8289 28.1722L19.8247 -0.449066L10.5788 8.9205ZM3.46964 4.50058L16.6241 4.01767L14.7921 -45.8862L-8.21364 -1.56367L3.46964 4.50058ZM3.45738 4.5242L13.6579 12.8443L14.5155 11.7928L15.1407 10.5884L3.45738 4.5242ZM13.0957 17.0788L15.5909 4.1541L14.6888 3.97993L13.7712 3.93278L13.0957 17.0788ZM17.2326 6.65062L4.21664 8.61501L11.7068 58.2448L29.5374 11.3269L17.2326 6.65062ZM17.2344 6.64601L15.2365 -6.36486L7.65462 -5.20063L4.92961 1.96976L17.2344 6.64601ZM10.7656 6.64601L23.0698 1.96818L20.3448 -5.19945L12.7656 -6.36453L10.7656 6.64601ZM10.7674 6.65062L-1.53676 11.3285L16.2941 58.2292L23.7833 8.61536L10.7674 6.65062ZM14.9038 17.0788L14.2282 3.93278L13.2833 3.98133L12.355 4.16454L14.9038 17.0788ZM24.5426 4.5242L12.8593 10.5883L13.4835 11.7911L14.3398 12.8414L24.5426 4.5242ZM24.5304 4.50058L36.2137 -1.56354L13.2079 -45.8874L11.3759 4.01767L24.5304 4.50058ZM17.4212 8.9205L8.17535 -0.449066L-20.8279 28.1712L19.4379 21.9285L17.4212 8.9205ZM17.4229 8.91877L30.5832 8.63258L29.9191 -21.9057L8.1771 -0.450794L17.4229 8.91877ZM14.8775 17.084L7.9536 5.88871L17.4262 29.9982L14.8775 17.084ZM15.9406 6.79983L25.1865 16.1694L51.1819 -9.48279L14.7984 -6.31389L15.9406 6.79983ZM15.94 6.80041L2.93166 8.81445L6.86897 34.245L25.1859 16.17L15.94 6.80041ZM12.06 6.80041L2.81413 16.17L21.1246 34.2386L25.0678 8.81816L12.06 6.80041ZM12.0594 6.79983L13.2016 -6.31389L-23.1819 -9.48279L2.81354 16.1694L12.0594 6.79983ZM16.0895 9.08066L19.8255 -3.5414L3.22137 -8.45611L2.92801 8.85765L16.0895 9.08066ZM16.0953 9.08238L17.2873 22.1917L19.8314 -3.53967L16.0953 9.08238ZM11.9047 9.08238L8.48334 -3.62859L10.7127 22.1917L11.9047 9.08238ZM11.9111 9.08066L25.0726 8.86035L24.7901 -8.01778L8.48976 -3.63031L11.9111 9.08066ZM20.0424 5.88625C21.8592 7.00896 22.8065 8.31609 23.1806 8.8986C23.5965 9.54628 23.7528 9.99986 23.7849 10.0961C23.8456 10.2782 23.7363 9.99851 23.7363 9.32435H-2.59039C-2.59039 12.3707 -2.159 15.5172 -1.19062 18.422C-0.422301 20.7268 1.49525 25.3727 6.20262 28.2817L20.0424 5.88625ZM23.7363 9.32435C23.7363 9.29918 23.7364 9.28012 23.7364 9.26472C23.7365 9.24948 23.7365 9.23989 23.7366 9.23447C23.7367 9.22292 23.7367 9.23465 23.736 9.26216L-2.58182 8.57538C-2.58999 8.88825 -2.59039 9.16362 -2.59039 9.32435H23.7363ZM1.33123 18.2883L1.33298 18.2901L19.8247 -0.449066L19.8229 -0.450794L1.33123 18.2883ZM12.5958 -4.08742C11.7042 -4.22568 11.7416 -4.3835 12.3914 -3.9859C12.7369 -3.77453 13.6147 -3.18409 14.5116 -2.00594C15.4644 -0.754485 16.5245 1.30376 16.6241 4.01767L-9.68487 4.98348C-9.40684 12.5568 -4.0768 16.8017 -1.34888 18.4708C1.8159 20.4072 5.3702 21.4335 8.56181 21.9284L12.5958 -4.08742ZM-8.21364 -1.56367L-8.2259 -1.54005L15.1407 10.5884L15.1529 10.5648L-8.21364 -1.56367ZM-6.7431 -3.79593C-9.35595 -0.592571 -11.2759 3.68742 -11.2759 8.67565H15.0509C15.0509 10.6451 14.2717 12.0917 13.6579 12.8443L-6.7431 -3.79593ZM-11.2759 8.67565C-11.2759 16.1432 -7.09429 21.7183 -2.72766 24.9745C1.65205 28.2405 7.04674 29.9487 12.4202 30.2248L13.7712 3.93278C12.8773 3.88684 12.6679 3.61437 13.0103 3.86973C13.3397 4.11535 15.0509 5.64991 15.0509 8.67565H-11.2759ZM10.6004 30.0035L10.6272 30.0087L15.6178 4.15928L15.5909 4.1541L10.6004 30.0035ZM13.1634 9C13.1634 10.6353 12.6236 11.9316 12.0968 12.7322C11.8476 13.111 11.6159 13.3606 11.4651 13.5042C11.3141 13.6478 11.2211 13.7074 11.2189 13.7088C11.2153 13.7111 11.2771 13.6714 11.4164 13.6109C11.5545 13.5509 11.7502 13.4786 12.0046 13.4095C12.5207 13.2691 13.199 13.1634 14 13.1634V-13.1634C7.99141 -13.1634 1.93852 -11.6228 -3.01794 -8.4364C-7.83342 -5.34061 -13.1634 0.517455 -13.1634 9H13.1634ZM14 13.1634C14.801 13.1634 15.4793 13.2691 15.9954 13.4095C16.2498 13.4786 16.4455 13.5509 16.5836 13.6109C16.7229 13.6714 16.7847 13.7111 16.7811 13.7088C16.7789 13.7074 16.6859 13.6478 16.5349 13.5042C16.3841 13.3606 16.1524 13.111 15.9032 12.7322C15.3764 11.9316 14.8366 10.6353 14.8366 9H41.1634C41.1634 0.517455 35.8334 -5.34061 31.0179 -8.4364C26.0615 -11.6228 20.0086 -13.1634 14 -13.1634V13.1634ZM14.8366 9C14.8366 7.36467 15.3764 6.06841 15.9032 5.2678C16.1524 4.889 16.3841 4.63935 16.5349 4.49584C16.6859 4.35221 16.7789 4.29265 16.7811 4.29118C16.7847 4.28889 16.7229 4.32859 16.5836 4.3891C16.4455 4.44908 16.2498 4.52137 15.9954 4.59055C15.4793 4.7309 14.801 4.83663 14 4.83663V31.1634C20.0086 31.1634 26.0615 29.6228 31.0179 26.4364C35.8334 23.3406 41.1634 17.4825 41.1634 9H14.8366ZM14 4.83663C13.199 4.83663 12.5207 4.7309 12.0046 4.59055C11.7502 4.52137 11.5545 4.44908 11.4164 4.3891C11.2771 4.32859 11.2153 4.28889 11.2189 4.29118C11.2211 4.29265 11.3141 4.35221 11.4651 4.49584C11.6159 4.63935 11.8476 4.889 12.0968 5.2678C12.6236 6.06841 13.1634 7.36467 13.1634 9H-13.1634C-13.1634 17.4825 -7.83342 23.3406 -3.01794 26.4364C1.93852 29.6228 7.99141 31.1634 14 31.1634V4.83663ZM14 14.4619C10.8993 14.4619 8.51362 13.2591 7.05263 12.1375C5.68515 11.0876 4.97216 10.0163 4.67945 9.52304C4.11248 8.56763 4.14437 8.13611 4.21664 8.61501L30.2486 4.68623C29.8503 2.04722 29.0123 -1.06033 27.3199 -3.9123C25.965 -6.19548 21.8212 -11.8648 14 -11.8648V14.4619ZM29.5374 11.3269L29.5391 11.3223L4.92961 1.96976L4.92786 1.97437L29.5374 11.3269ZM19.2322 19.6569C21.5376 19.3029 24.3406 18.6114 26.9662 17.217C28.5603 16.3704 35.3351 12.468 35.3351 3.97343H9.00836C9.00836 0.295914 10.6233 -2.36192 11.8688 -3.79648C13.0393 -5.14465 14.18 -5.8016 14.6179 -6.03413C15.5007 -6.50301 15.835 -6.45677 15.2365 -6.36486L19.2322 19.6569ZM35.3351 3.97343C35.3351 -1.82252 32.0002 -5.55182 30.005 -7.23081C27.9463 -8.96324 25.7501 -9.9304 24.1905 -10.4853C20.9556 -11.6362 17.3513 -12.0981 14 -12.0981V14.2286C15.1616 14.2286 15.6432 14.4171 15.3659 14.3184C15.2851 14.2897 14.2857 13.9491 13.054 12.9127C11.8859 11.9297 9.00836 8.96572 9.00836 3.97343H35.3351ZM14 -12.0981C10.648 -12.0981 7.0437 -11.6359 3.80893 -10.4849C2.24945 -9.92995 0.0536731 -8.96287 -2.00465 -7.23089C-3.99879 -5.55292 -7.33509 -1.82369 -7.33509 3.97343H18.9916C18.9916 8.96717 16.1127 11.9312 14.9456 12.9132C13.7143 13.9493 12.7153 14.2897 12.6347 14.3184C12.3575 14.4171 12.839 14.2286 14 14.2286V-12.0981ZM-7.33509 3.97343C-7.33509 12.4678 -0.56091 16.37 1.03395 17.217C3.65917 18.6111 6.46166 19.3024 8.76563 19.6566L12.7656 -6.36453C12.1651 -6.45685 12.4989 -6.50327 13.3816 -6.03453C13.8194 -5.80204 14.9604 -5.14497 16.1312 -3.79642C17.3773 -2.36115 18.9916 0.296696 18.9916 3.97343H-7.33509ZM-1.53851 11.3238L-1.53676 11.3285L23.0715 1.97279L23.0698 1.96818L-1.53851 11.3238ZM23.7833 8.61536C23.8554 8.13777 23.8872 8.56887 23.3206 9.52352C23.0282 10.0163 22.3157 11.087 20.9489 12.1366C19.489 13.2577 17.1029 14.4619 14 14.4619V-11.8648C6.1772 -11.8648 2.03374 -6.19261 0.680509 -3.91235C-1.01163 -1.061 -1.85006 2.04614 -2.24852 4.68588L23.7833 8.61536ZM15.5793 30.2248C20.9526 29.9487 26.3473 28.2406 30.727 24.9748C35.0935 21.7189 39.2759 16.1438 39.2759 8.67565H12.9491C12.9491 5.6493 14.6608 4.11476 14.9897 3.86946C15.3319 3.61432 15.1222 3.88684 14.2282 3.93278L15.5793 30.2248ZM39.2759 8.67565C39.2759 3.68467 37.3534 -0.593815 34.7455 -3.79301L14.3398 12.8414C13.7297 12.093 12.9491 10.6478 12.9491 8.67565H39.2759ZM36.226 -1.53992L36.2137 -1.56354L12.847 10.5647L12.8593 10.5883L36.226 -1.53992ZM11.3759 4.01767C11.4755 1.3044 12.5352 -0.753627 13.488 -2.00528C14.3849 -3.1836 15.2628 -3.7742 15.6085 -3.98572C16.2587 -4.38358 16.2964 -4.22575 15.4045 -4.08747L19.4379 21.9285C22.6298 21.4336 26.1844 20.4072 29.3494 18.4706C32.0781 16.8009 37.4069 12.5559 37.6849 4.98348L11.3759 4.01767ZM26.667 18.2901L26.6688 18.2883L8.1771 -0.450794L8.17535 -0.449066L26.667 18.2901ZM4.26268 9.20496C4.26311 9.22469 4.26366 9.26196 4.26366 9.32435H30.5904C30.5904 9.11367 30.5886 8.88131 30.5832 8.63258L4.26268 9.20496ZM4.26366 9.32435C4.26366 9.99695 4.15456 10.2764 4.21507 10.0949C4.24708 9.99897 4.40307 9.54624 4.81837 8.89949C5.1916 8.31824 6.1379 7.01166 7.9536 5.88871L21.8014 28.2793C26.5047 25.3704 28.4215 20.7271 29.1898 18.4233C30.1583 15.519 30.5904 12.3723 30.5904 9.32435H4.26366ZM17.4262 29.9982L17.4525 29.9931L12.355 4.16454L12.3287 4.16972L17.4262 29.9982ZM14 20.0456C15.0368 20.0456 16.0679 20.0019 17.0828 19.9136L14.7984 -6.31389C14.5698 -6.29397 14.3013 -6.28115 14 -6.28115V20.0456ZM6.69478 -2.56973L6.69419 -2.56915L25.1859 16.17L25.1865 16.1694L6.69478 -2.56973ZM28.9484 4.78637C28.6484 2.84861 28.0269 0.34647 26.6754 -2.07289C25.7751 -3.68472 21.9671 -9.7718 14 -9.7718V16.5549C10.4748 16.5549 7.82818 15.0912 6.27286 13.8131C4.81073 12.6115 4.03392 11.3789 3.69151 10.766C3.31281 10.088 3.13126 9.56308 3.05363 9.31196C2.96853 9.03663 2.93959 8.8657 2.93166 8.81445L28.9484 4.78637ZM14 -9.7718C6.03141 -9.7718 2.22375 -3.68256 1.32419 -2.07183C-0.0264379 0.346565 -0.647638 2.84737 -0.947837 4.78266L25.0678 8.81816C25.06 8.86827 25.0312 9.03823 24.9464 9.31272C24.869 9.56297 24.6877 10.0874 24.3093 10.7649C23.9672 11.3774 23.1906 12.6102 21.7284 13.8121C20.1727 15.0909 17.5256 16.5549 14 16.5549V-9.7718ZM21.3058 -2.56915L21.3052 -2.56973L2.81354 16.1694L2.81413 16.17L21.3058 -2.56915ZM10.9172 19.9136C11.9321 20.0019 12.9632 20.0456 14 20.0456V-6.28115C13.6987 -6.28115 13.4302 -6.29397 13.2016 -6.31389L10.9172 19.9136ZM14 27.4463C19.1332 27.4463 22.6405 24.7574 24.4061 22.8703C26.1528 21.0033 27.1259 19.0146 27.6685 17.6588C28.7855 14.8684 29.2069 11.9036 29.251 9.30366L2.92801 8.85765C2.92302 9.15206 2.86166 8.78847 3.22705 7.87561C3.39398 7.45857 3.9241 6.22777 5.18135 4.88395C6.45745 3.51999 9.42871 1.11957 14 1.11957V27.4463ZM12.3535 21.7027L12.3593 21.7044L19.8314 -3.53967L19.8255 -3.5414L12.3535 21.7027ZM14.9033 -4.0269C14.3024 -3.97226 13.6976 -3.97226 13.0967 -4.0269L10.7127 22.1917C12.8996 22.3905 15.1004 22.3905 17.2873 22.1917L14.9033 -4.0269ZM15.326 21.7934L15.3324 21.7916L8.48976 -3.63031L8.48334 -3.62859L15.326 21.7934ZM-1.25043 9.30096C-1.2069 11.9017 -0.785788 14.8673 0.331327 17.6585C0.874133 19.0148 1.84738 21.0038 3.59454 22.871C5.36076 24.7586 8.86792 27.4463 14 27.4463V1.11957C18.5702 1.11957 21.5413 3.51889 22.8181 4.88338C24.0758 6.2275 24.6061 7.45875 24.7732 7.87632C25.139 8.79016 25.0775 9.15456 25.0726 8.86035L-1.25043 9.30096Z" fill="white" mask="url(#path-1-inside-1_284_1804)"/>
</svg>
