<svg width="22" height="22" viewBox="0 0 22 22" fill="none" xmlns="http://www.w3.org/2000/svg">
<mask id="path-1-inside-1_284_1812" fill="white">
<path d="M11 20.988C5.522 20.988 1.034 16.478 1.034 11C1.034 9.768 1.254 8.602 1.672 7.502L7.502 19.228C7.568 19.382 7.678 19.514 7.854 19.514C8.03 19.514 8.14 19.382 8.206 19.228L10.89 13.222C10.912 13.156 10.956 13.09 11.022 13.09C11.088 13.09 11.11 13.156 11.154 13.222L13.838 19.228C13.904 19.382 14.014 19.514 14.19 19.514C14.366 19.514 14.476 19.382 14.542 19.228L20.372 7.502C20.79 8.602 21.01 9.768 21.01 11C20.966 16.478 16.478 20.988 11 20.988V20.988ZM11 8.734C10.934 8.734 10.912 8.668 10.868 8.602L7.744 1.562C8.756 1.188 9.856 0.99 11 0.99C12.144 0.99 13.244 1.188 14.256 1.562L11.132 8.602C11.088 8.69 11.066 8.734 11 8.734ZM7.81 15.972C7.744 15.972 7.722 15.906 7.678 15.84L2.618 5.632C3.52 4.246 4.73 3.08 6.204 2.266L9.856 10.384C9.9 10.516 10.01 10.56 10.12 10.56H11.88C12.012 10.56 12.1 10.538 12.166 10.384L15.818 2.266C17.27 3.08 18.502 4.246 19.404 5.632L14.3 15.84C14.278 15.906 14.234 15.972 14.168 15.972C14.102 15.972 14.08 15.906 14.036 15.84L12.122 11.484C12.056 11.33 11.968 11.308 11.836 11.308H10.076C9.944 11.308 9.856 11.33 9.79 11.484L7.942 15.84C7.92 15.906 7.876 15.972 7.81 15.972ZM11 22C17.094 22 22 17.094 22 11C22 4.906 17.094 0 11 0C4.906 0 0 4.906 0 11C0 17.094 4.906 22 11 22Z"/>
</mask>
<path d="M11 20.988C5.522 20.988 1.034 16.478 1.034 11C1.034 9.768 1.254 8.602 1.672 7.502L7.502 19.228C7.568 19.382 7.678 19.514 7.854 19.514C8.03 19.514 8.14 19.382 8.206 19.228L10.89 13.222C10.912 13.156 10.956 13.09 11.022 13.09C11.088 13.09 11.11 13.156 11.154 13.222L13.838 19.228C13.904 19.382 14.014 19.514 14.19 19.514C14.366 19.514 14.476 19.382 14.542 19.228L20.372 7.502C20.79 8.602 21.01 9.768 21.01 11C20.966 16.478 16.478 20.988 11 20.988V20.988ZM11 8.734C10.934 8.734 10.912 8.668 10.868 8.602L7.744 1.562C8.756 1.188 9.856 0.99 11 0.99C12.144 0.99 13.244 1.188 14.256 1.562L11.132 8.602C11.088 8.69 11.066 8.734 11 8.734ZM7.81 15.972C7.744 15.972 7.722 15.906 7.678 15.84L2.618 5.632C3.52 4.246 4.73 3.08 6.204 2.266L9.856 10.384C9.9 10.516 10.01 10.56 10.12 10.56H11.88C12.012 10.56 12.1 10.538 12.166 10.384L15.818 2.266C17.27 3.08 18.502 4.246 19.404 5.632L14.3 15.84C14.278 15.906 14.234 15.972 14.168 15.972C14.102 15.972 14.08 15.906 14.036 15.84L12.122 11.484C12.056 11.33 11.968 11.308 11.836 11.308H10.076C9.944 11.308 9.856 11.33 9.79 11.484L7.942 15.84C7.92 15.906 7.876 15.972 7.81 15.972ZM11 22C17.094 22 22 17.094 22 11C22 4.906 17.094 0 11 0C4.906 0 0 4.906 0 11C0 17.094 4.906 22 11 22Z" fill="#5F5F5F"/>
<path d="M1.672 7.502L23.4142 -3.3079L-1.3036 -53.0233L-21.0257 -1.12311L1.672 7.502ZM7.502 19.228L29.8199 9.66317L29.5497 9.0325L29.2442 8.4181L7.502 19.228ZM8.206 19.228L-13.9623 9.32129L-14.0384 9.49165L-14.1119 9.66317L8.206 19.228ZM10.89 13.222L33.0583 23.1287L33.5467 22.0359L33.9252 20.9004L10.89 13.222ZM11.154 13.222L33.3223 3.31528L32.4895 1.45165L31.3572 -0.246785L11.154 13.222ZM13.838 19.228L36.1559 9.66317L36.0824 9.49165L36.0063 9.32129L13.838 19.228ZM14.542 19.228L-7.20018 8.4181L-7.50565 9.0325L-7.77594 9.66317L14.542 19.228ZM20.372 7.502L43.0697 -1.12311L23.3476 -53.0233L-1.37018 -3.3079L20.372 7.502ZM21.01 11L45.2904 11.195L45.2912 11.0975V11H21.01ZM10.868 8.602L-11.3262 18.4507L-10.4852 20.3457L-9.33518 22.0708L10.868 8.602ZM7.744 1.562L-0.67308 -21.2136L-24.9465 -12.243L-14.4502 11.4107L7.744 1.562ZM14.256 1.562L36.4502 11.4107L46.9465 -12.243L22.6731 -21.2136L14.256 1.562ZM11.132 8.602L32.8498 19.4609L33.0996 18.9613L33.3262 18.4507L11.132 8.602ZM7.678 15.84L-14.0771 26.6238L-13.3871 28.0159L-12.5252 29.3088L7.678 15.84ZM2.618 5.632L-17.733 -7.61232L-25.291 4.00111L-19.1371 16.4158L2.618 5.632ZM6.204 2.266L28.3477 -7.69565L17.5357 -31.7295L-5.53408 -18.9894L6.204 2.266ZM9.856 10.384L32.8912 2.70561L32.5031 1.54145L31.9997 0.422347L9.856 10.384ZM12.166 10.384L-9.97767 0.422349L-10.0666 0.61998L-10.1519 0.819167L12.166 10.384ZM15.818 2.266L27.6916 -18.914L4.55585 -31.8841L-6.32567 -7.69565L15.818 2.266ZM19.404 5.632L41.1218 16.4909L47.3433 4.04775L39.755 -7.61232L19.404 5.632ZM14.3 15.84L-7.41776 4.98112L-8.18948 6.52455L-8.73517 8.16161L14.3 15.84ZM14.036 15.84L-8.19391 25.6077L-7.34195 27.5466L-6.16718 29.3088L14.036 15.84ZM12.122 11.484L-10.1959 21.0488L-10.1524 21.1505L-10.1079 21.2517L12.122 11.484ZM9.79 11.484L-12.5279 1.91917L-12.5455 1.96004L-12.5628 2.00098L9.79 11.484ZM7.942 15.84L-14.4108 6.35698L-14.7879 7.24573L-15.0932 8.16161L7.942 15.84ZM11 -3.2932C19.0017 -3.2932 25.3152 3.1375 25.3152 11H-23.2472C-23.2472 29.8185 -7.95767 45.2692 11 45.2692V-3.2932ZM25.3152 11C25.3152 12.727 24.9945 14.4829 24.3697 16.1271L-21.0257 -1.12311C-22.4865 2.72107 -23.2472 6.80903 -23.2472 11H25.3152ZM-20.0702 18.3119L-14.2402 30.0379L29.2442 8.4181L23.4142 -3.3079L-20.0702 18.3119ZM-14.8159 28.7928C-13.5129 31.8333 -7.24317 43.7952 7.854 43.7952V-4.7672C14.4941 -4.7672 20.0748 -2.06227 23.9273 1.42332C27.3388 4.50989 29.0318 7.82421 29.8199 9.66317L-14.8159 28.7928ZM7.854 43.7952C22.9512 43.7952 29.2209 31.8332 30.5239 28.7928L-14.1119 9.66317C-13.3238 7.82425 -11.6308 4.50993 -8.2193 1.42335C-4.36678 -2.06226 1.21393 -4.7672 7.854 -4.7672V43.7952ZM30.3743 29.1347L33.0583 23.1287L-11.2783 3.31529L-13.9623 9.32129L30.3743 29.1347ZM33.9252 20.9004C33.2839 22.8241 31.9391 26.0547 29.0875 29.2628C26.0466 32.6838 19.9524 37.3712 11.022 37.3712V-11.1912C2.02555 -11.1912 -4.1236 -6.4708 -7.2085 -3.0003C-10.1041 0.257259 -11.4819 3.55391 -12.1452 5.54361L33.9252 20.9004ZM11.022 37.3712C6.66616 37.3712 2.3577 36.1939 -1.42828 33.9223C-4.88978 31.8454 -7.02078 29.3877 -8.07017 28.0385C-8.62144 27.3297 -9.02528 26.7278 -9.26222 26.3625C-9.49464 26.0041 -9.6655 25.7184 -9.69687 25.6661C-9.89081 25.3429 -9.473 26.055 -9.04918 26.6908L31.3572 -0.246785C31.759 0.355949 32.1576 1.03514 31.9451 0.680971C31.9044 0.613217 31.7244 0.312578 31.4828 -0.060018C31.2367 -0.439561 30.8236 -1.05481 30.2627 -1.77595C29.194 -3.14992 27.0424 -5.62829 23.5568 -7.71962C19.7468 -10.0056 15.4108 -11.1912 11.022 -11.1912V37.3712ZM-11.0143 23.1287L-8.3303 29.1347L36.0063 9.32129L33.3223 3.31528L-11.0143 23.1287ZM-8.47994 28.7928C-7.17693 31.8332 -0.907223 43.7952 14.19 43.7952V-4.7672C20.8301 -4.7672 26.4108 -2.06226 30.2633 1.42335C33.6748 4.50993 35.3678 7.82425 36.1559 9.66317L-8.47994 28.7928ZM14.19 43.7952C29.2872 43.7952 35.5569 31.8332 36.8599 28.7928L-7.77594 9.66317C-6.98783 7.82425 -5.29479 4.50993 -1.8833 1.42335C1.96922 -2.06226 7.54993 -4.7672 14.19 -4.7672V43.7952ZM36.2842 30.0379L42.1142 18.3119L-1.37018 -3.3079L-7.20018 8.4181L36.2842 30.0379ZM-2.32566 16.1271C-2.95045 14.4829 -3.2712 12.727 -3.2712 11H45.2912C45.2912 6.80902 44.5304 2.72106 43.0697 -1.12311L-2.32566 16.1271ZM-3.27041 10.805C-3.20879 3.13287 2.9612 -3.2932 11 -3.2932V45.2692C29.9948 45.2692 45.1408 29.8231 45.2904 11.195L-3.27041 10.805ZM11 -15.5472C15.3558 -15.5472 19.6643 -14.3699 23.4503 -12.0983C26.9118 -10.0214 29.0428 -7.56367 30.0922 -6.21445C30.6434 -5.50568 31.0473 -4.90384 31.2842 -4.53848C31.5166 -4.18006 31.6875 -3.89438 31.7189 -3.84209C31.9128 -3.51886 31.495 -4.23105 31.0712 -4.86678L-9.33518 22.0708C-9.737 21.4681 -10.1356 20.7889 -9.92306 21.143C-9.8824 21.2108 -9.70244 21.5114 -9.46082 21.884C-9.21469 22.2636 -8.80156 22.8788 -8.24067 23.6C-7.17203 24.9739 -5.0204 27.4523 -1.53484 29.5436C2.2752 31.8296 6.61116 33.0152 11 33.0152V-15.5472ZM33.0622 -1.24666L29.9382 -8.28666L-14.4502 11.4107L-11.3262 18.4507L33.0622 -1.24666ZM16.1611 24.3376C14.416 24.9825 12.6612 25.2712 11 25.2712V-23.2912C7.05076 -23.2912 3.09599 -22.6065 -0.67308 -21.2136L16.1611 24.3376ZM11 25.2712C9.33877 25.2712 7.584 24.9825 5.83892 24.3376L22.6731 -21.2136C18.904 -22.6065 14.9492 -23.2912 11 -23.2912V25.2712ZM-7.93815 -8.28666L-11.0622 -1.24666L33.3262 18.4507L36.4502 11.4107L-7.93815 -8.28666ZM-10.5858 -2.25688C-10.6748 -2.07878 -10.4014 -2.63883 -10.0608 -3.24437C-9.72042 -3.8495 -8.78079 -5.48077 -7.19922 -7.28828C-5.45773 -9.27855 -2.80582 -11.6417 0.947163 -13.3574C4.69312 -15.0698 8.2452 -15.5472 11 -15.5472V33.0152C13.7878 33.0152 17.3674 32.5323 21.1374 30.8089C24.9144 29.0822 27.587 26.7026 29.3477 24.6903C30.9485 22.8608 31.906 21.202 32.265 20.5639C32.4785 20.1842 32.6382 19.8765 32.7172 19.7226C32.7602 19.6389 32.7946 19.5707 32.8146 19.5311C32.8332 19.494 32.8497 19.461 32.8498 19.4609L-10.5858 -2.25688ZM7.81 -8.3092C12.1658 -8.3092 16.4743 -7.13189 20.2603 -4.86031C23.7218 -2.78341 25.8528 -0.325674 26.9022 1.02355C27.4534 1.73232 27.8573 2.33416 28.0942 2.69952C28.3266 3.05794 28.4975 3.34362 28.5289 3.39591C28.7228 3.71914 28.305 3.00695 27.8812 2.37122L-12.5252 29.3088C-12.927 28.7061 -13.3256 28.0269 -13.1131 28.381C-13.0724 28.4488 -12.8924 28.7494 -12.6508 29.122C-12.4047 29.5016 -11.9916 30.1168 -11.4307 30.838C-10.362 32.2119 -8.2104 34.6903 -4.72484 36.7816C-0.9148 39.0676 3.42116 40.2532 7.81 40.2532V-8.3092ZM29.4331 5.0562L24.3731 -5.1518L-19.1371 16.4158L-14.0771 26.6238L29.4331 5.0562ZM22.969 18.8763C21.8459 20.602 20.1791 22.2861 17.9421 23.5214L-5.53408 -18.9894C-10.7191 -16.1261 -14.8059 -12.11 -17.733 -7.61232L22.969 18.8763ZM-15.9397 12.2277L-12.2877 20.3457L31.9997 0.422347L28.3477 -7.69565L-15.9397 12.2277ZM-13.1792 18.0624C-11.3433 23.5699 -7.56662 28.3804 -2.34789 31.4502C2.40794 34.2478 7.03163 34.8412 10.12 34.8412V-13.7212C13.0984 -13.7212 17.6121 -13.1498 22.2744 -10.4072C27.3996 -7.39237 31.0993 -2.6699 32.8912 2.70561L-13.1792 18.0624ZM10.12 34.8412H11.88V-13.7212H10.12V34.8412ZM11.88 34.8412C12.6202 34.8412 17.8006 34.9581 23.4087 31.9892C29.8708 28.568 33.05 23.2946 34.4839 19.9488L-10.1519 0.819167C-8.78405 -2.37258 -5.68182 -7.558 0.686848 -10.9297C6.20136 -13.8491 11.2718 -13.7212 11.88 -13.7212V34.8412ZM34.3097 20.3456L37.9617 12.2276L-6.32567 -7.69565L-9.97767 0.422349L34.3097 20.3456ZM3.94436 23.446C1.90048 22.3002 0.24924 20.7145 -0.947032 18.8763L39.755 -7.61232C36.7548 -12.2225 32.6395 -16.1402 27.6916 -18.914L3.94436 23.446ZM-2.31376 -5.22688L-7.41776 4.98112L36.0178 26.6989L41.1218 16.4909L-2.31376 -5.22688ZM-8.73517 8.16161C-8.09393 6.23791 -6.7491 3.00726 -3.8975 -0.200795C-0.856601 -3.6218 5.23755 -8.3092 14.168 -8.3092V40.2532C23.1644 40.2532 29.3136 35.5328 32.3985 32.0623C35.2941 28.8047 36.6719 25.5081 37.3352 23.5184L-8.73517 8.16161ZM14.168 -8.3092C18.5238 -8.3092 22.8323 -7.13189 26.6183 -4.86031C30.0798 -2.78341 32.2108 -0.325674 33.2602 1.02355C33.8114 1.73232 34.2153 2.33416 34.4522 2.69952C34.6846 3.05794 34.8555 3.34362 34.8869 3.39591C35.0808 3.71914 34.663 3.00695 34.2392 2.37122L-6.16718 29.3088C-6.569 28.7061 -6.96756 28.0269 -6.75505 28.381C-6.7144 28.4488 -6.53444 28.7494 -6.29282 29.122C-6.04669 29.5016 -5.63356 30.1168 -5.07267 30.838C-4.00403 32.2119 -1.8524 34.6903 1.63316 36.7816C5.4432 39.0676 9.77916 40.2532 14.168 40.2532V-8.3092ZM36.2659 6.07231L34.3519 1.71631L-10.1079 21.2517L-8.19391 25.6077L36.2659 6.07231ZM34.4399 1.91917C33.0061 -1.42652 29.8268 -6.70002 23.3646 -10.1212C17.7565 -13.0902 12.576 -12.9732 11.836 -12.9732V35.5892C11.228 35.5892 6.15747 35.7172 0.642919 32.7977C-5.72585 29.426 -8.82808 24.2405 -10.1959 21.0488L34.4399 1.91917ZM11.836 -12.9732H10.076V35.5892H11.836V-12.9732ZM10.076 -12.9732C9.33599 -12.9732 4.15551 -13.0902 -1.4525 -10.1212C-7.91476 -6.7001 -11.094 -1.42662 -12.5279 1.91917L32.1079 21.0488C30.74 24.2406 27.6378 29.4261 21.269 32.7977C15.7545 35.7172 10.684 35.5892 10.076 35.5892V-12.9732ZM-12.5628 2.00098L-14.4108 6.35698L30.2948 25.323L32.1428 20.967L-12.5628 2.00098ZM-15.0932 8.16161C-14.4519 6.23791 -13.1071 3.00726 -10.2555 -0.200795C-7.2146 -3.6218 -1.12045 -8.3092 7.81 -8.3092V40.2532C16.8064 40.2532 22.9556 35.5328 26.0405 32.0623C28.9361 28.8047 30.3139 25.5081 30.9772 23.5184L-15.0932 8.16161ZM11 46.2812C30.5041 46.2812 46.2812 30.5041 46.2812 11H-2.2812C-2.2812 3.68387 3.68387 -2.2812 11 -2.2812V46.2812ZM46.2812 11C46.2812 -8.50414 30.5041 -24.2812 11 -24.2812V24.2812C3.68387 24.2812 -2.2812 18.3161 -2.2812 11H46.2812ZM11 -24.2812C-8.50414 -24.2812 -24.2812 -8.50414 -24.2812 11H24.2812C24.2812 18.3161 18.3161 24.2812 11 24.2812V-24.2812ZM-24.2812 11C-24.2812 30.5041 -8.50414 46.2812 11 46.2812V-2.2812C18.3161 -2.2812 24.2812 3.68387 24.2812 11H-24.2812Z" fill="#FC0012" mask="url(#path-1-inside-1_284_1812)"/>
</svg>
