<svg xmlns="http://www.w3.org/2000/svg" xmlns:xlink="http://www.w3.org/1999/xlink" width="596.481" height="536.363" viewBox="0 0 596.481 536.363">
  <defs>
    <clipPath id="clip-path">
      <path id="Ellipse_9" data-name="Ellipse 9" d="M123.649,59.575C123.649,35.29,103.962,0,79.676,0,57.114,0,38.521,30.46,36,54.256c-22.4-2.837-52.42-13.83-25.115,6.738,10.832,8.159,17.5,19.977,30.5,20.213a43.981,43.981,0,0,0,69.272,9.575l-2.086,19.69C108.57,148.415,134.043,95.888,123.649,59.575Z" transform="translate(0)" fill="#c4c4c4"/>
    </clipPath>
    <linearGradient id="linear-gradient" x1="0.168" y1="0.047" x2="0.337" y2="0.826" gradientUnits="objectBoundingBox">
      <stop offset="0" stop-color="#f4af8a"/>
      <stop offset="1" stop-color="#f9c0a1" stop-opacity="0"/>
    </linearGradient>
    <clipPath id="clip-path-2">
      <path id="Ellipse_9-2" data-name="Ellipse 9" d="M5.564,78.328A44.337,44.337,0,0,1,0,56.755C0,32.158,19.94.04,44.538.04c59.291-1.67,57.644,49.873,54.28,75.853H84.765a44.59,44.59,0,0,1-56.93,22.163q-.525-.213-1.044-.438M5.564,78.328c-1.116,28.114,12.529,36.883,18.1,32.359-.278-3.619,1.972-10.221,3.132-13.07M5.564,78.328A44.715,44.715,0,0,0,26.792,97.617" transform="translate(0 0)" fill="#c4c4c4"/>
    </clipPath>
    <linearGradient id="linear-gradient-2" x1="0.296" y1="0.5" x2="0.623" y2="0.648" gradientUnits="objectBoundingBox">
      <stop offset="0" stop-color="#f3ad8f"/>
      <stop offset="1" stop-color="#fcc4ac" stop-opacity="0"/>
    </linearGradient>
    <linearGradient id="linear-gradient-3" x1="0.839" y1="0.798" x2="0.567" y2="0.718" gradientUnits="objectBoundingBox">
      <stop offset="0" stop-color="#026cf0"/>
      <stop offset="1" stop-color="#307fe2" stop-opacity="0"/>
    </linearGradient>
    <linearGradient id="linear-gradient-4" y1="0.609" x2="0.41" y2="0.656" gradientUnits="objectBoundingBox">
      <stop offset="0" stop-color="#fea568"/>
      <stop offset="1" stop-color="#f4b88e"/>
    </linearGradient>
    <linearGradient id="linear-gradient-5" x1="0.589" y1="0.984" x2="0.608" y2="0.853" gradientUnits="objectBoundingBox">
      <stop offset="0" stop-color="#0154f7"/>
      <stop offset="1" stop-color="#307fe2" stop-opacity="0"/>
    </linearGradient>
    <linearGradient id="linear-gradient-6" x1="0.951" y1="0.592" x2="0.739" y2="0.562" gradientUnits="objectBoundingBox">
      <stop offset="0" stop-color="#0071ff"/>
      <stop offset="1" stop-color="#307fe2" stop-opacity="0"/>
    </linearGradient>
    <linearGradient id="linear-gradient-7" x1="2.268" y1="0" x2="1.761" y2="0" xlink:href="#linear-gradient-6"/>
  </defs>
  <g id="Group_78659" data-name="Group 78659" transform="translate(-900.454 -282.637)">
    <g id="illustrations" transform="translate(105.829 78.5)">
      <path id="Polygon_1" data-name="Polygon 1" d="M232.095,0,464.19,134V402L232.095,462.5,0,402V134Z" transform="translate(850.761 278)" fill="#062965"/>
      <g id="OBJECTS">
        <path id="Vector" d="M0,0H137.579V-29.147H0Z" transform="translate(1249.955 693.721) rotate(180)" fill="#fff" stroke="#000" stroke-width="1"/>
        <path id="Vector-2" data-name="Vector" d="M0,0S11.312-7.413,26.241-25.04C45.069-47.278,69.664-81.613,85.008-90.049c34.647-19.051,90.761-21.927,90.761-21.927l-26.241-53.015-125.2,15.982Z" transform="translate(1211.602 512.156) rotate(180)" fill="#f8b018" stroke="#000" stroke-width="1"/>
        <path id="Vector-3" data-name="Vector" d="M8.571-25.425a4.937,4.937,0,0,0-3.666.889,4.937,4.937,0,0,0-1.968,3.218L.105-5.9A4.937,4.937,0,0,0,.8-2.2,4.937,4.937,0,0,0,3.9-.058h0A4.937,4.937,0,0,0,7.566-.947,4.937,4.937,0,0,0,9.534-4.165l2.832-15.418a4.937,4.937,0,0,0-.692-3.7,4.937,4.937,0,0,0-3.1-2.137Z" transform="translate(1087.012 646.415) rotate(180)" fill="#672ed6"/>
        <path id="Vector-4" data-name="Vector" d="M8.571-25.425a4.937,4.937,0,0,0-3.666.889,4.937,4.937,0,0,0-1.968,3.218L.105-5.9A4.937,4.937,0,0,0,.8-2.2,4.937,4.937,0,0,0,3.9-.058h0A4.937,4.937,0,0,0,7.566-.947,4.937,4.937,0,0,0,9.534-4.165l2.832-15.418a4.937,4.937,0,0,0-.692-3.7A4.937,4.937,0,0,0,8.571-25.425Z" transform="translate(1068.554 625.363) rotate(180)" fill="#672ed6"/>
        <path id="Vector-5" data-name="Vector" d="M99.389-1.62s36.218,18.057,68.2-66.417c22.238-58.812,14.988-100.812,14.988-100.812L0-166.67S34.869-24.969,99.389-1.62Z" transform="translate(1335.586 508.075) rotate(180)" fill="#f8b018" stroke="#000" stroke-width="1"/>
        <path id="Vector-6" data-name="Vector" d="M6.671,0,0-55.714s40.636,1.9,62.993-.919S99.048-61.3,99.048-61.3s7.413,0,6.493,4.329-.786,3.5,2.772,2.52,8.7,1.216,9,4.047a15.255,15.255,0,0,1-1.1,6.256,32.186,32.186,0,0,1,6.983-.563c2.431.267,9.8,3.647,9,7.235s-3.617,16.6-44.476,26.567A432.336,432.336,0,0,1,6.671,0Z" transform="translate(1235.485 642.885) rotate(180)" fill="#fff"/>
        <path id="Vector-7" data-name="Vector" d="M0-16.337S51.74-12.6,94.274-20.993c3.617-.712,17.642-2.891,13.461,5.93S82.355-1.3,72.155,0" transform="translate(1238.451 682.439) rotate(180)" fill="none" stroke="#000" stroke-width="1"/>
        <path id="Vector-8" data-name="Vector" d="M0,0A114.155,114.155,0,0,0,22.386-7.413a86.491,86.491,0,0,0,18.546-11.86c9.043-8.213.712-16.308-9.814-11.86" transform="translate(1162.59 665.064) rotate(180)" fill="none" stroke="#000" stroke-width="1"/>
        <path id="Vector-9" data-name="Vector" d="M0,0S53.371-.237,98.425-15.329s29.947-35.581,12.883-27.664" transform="translate(1231.409 642.841) rotate(180)" fill="none" stroke="#000" stroke-width="1"/>
        <path id="Vector-10" data-name="Vector" d="M151.961,0S83.379,1.894,31.342-75.613-14.305-232.169,99.227-206.135c15.863,3.632,62.681,17.642,62.681,17.642l5.559,58.975s-53.06,4.448-89.752,6.6Z" transform="translate(1390.559 511.677) rotate(180)" fill="#f8b018"/>
        <path id="Vector-11" data-name="Vector" d="M0-70.153c15.685,4.448,30.347,8.9,30.347,8.9L35.907-2.283S23.913-1.29,7.4,0Z" transform="translate(1258.998 638.912) rotate(180)" fill="#e6e7f5" stroke="#000" stroke-width="1"/>
        <path id="Vector-12" data-name="Vector" d="M0,0,28.672-1.912" transform="translate(1252.786 650.15) rotate(180)" fill="none" stroke="#000" stroke-width="1"/>
        <path id="Vector-13" data-name="Vector" d="M0,0,28.42-.1" transform="translate(1254.343 664.96) rotate(180)" fill="none" stroke="#000" stroke-width="1"/>
        <path id="Vector-14" data-name="Vector" d="M0-2.15,29.443,0" transform="translate(1255.766 677.473) rotate(180)" fill="none" stroke="#000" stroke-width="1"/>
        <path id="Vector-15" data-name="Vector" d="M0-5.026,29.843,0" transform="translate(1257.649 688.696) rotate(180)" fill="none" stroke="#000" stroke-width="1"/>
        <path id="Vector-16" data-name="Vector" d="M151.961,0S83.379,1.894,31.342-75.613-14.305-232.169,99.227-206.135c15.863,3.632,62.681,17.642,62.681,17.642l5.559,58.975s-53.06,4.448-89.752,6.6" transform="translate(1390.559 511.677) rotate(180)" fill="none" stroke="#000" stroke-width="1"/>
        <path id="Vector-17" data-name="Vector" d="M0-34.009,17.642,0" transform="translate(1293.794 601.804) rotate(180)" fill="none" stroke="#000" stroke-width="1"/>
        <path id="Vector-18" data-name="Vector" d="M0-12.186a12.305,12.305,0,0,1,2.017-6.87,12.305,12.305,0,0,1,5.5-4.584,12.305,12.305,0,0,1,7.121-.746,12.3,12.3,0,0,1,6.331,3.344,12.3,12.3,0,0,1,3.4,6.3,12.305,12.305,0,0,1-.686,7.127,12.3,12.3,0,0,1-4.537,5.539A12.305,12.305,0,0,1,12.291,0,12.246,12.246,0,0,1,3.624-3.55,12.246,12.246,0,0,1,0-12.186Z" transform="translate(1261.593 448.866) rotate(180)" fill="none" stroke="#000" stroke-width="2"/>
        <path id="Vector-19" data-name="Vector" d="M35.136-10.244c0-5.648-7.872-10.229-17.568-10.229S0-15.893,0-10.244,7.872,0,17.568,0,35.136-4.6,35.136-10.244Z" transform="translate(1247.197 499.777) rotate(180)" fill="#444da9" stroke="#211f21" stroke-width="1"/>
        <path id="Vector-20" data-name="Vector" d="M34.291,0H18.843C8.584,0,.178-9.562.178-21.259V-45.188a15.072,15.072,0,0,1,.089-2A9.666,9.666,0,0,1,0-49.383V-79.33a9.636,9.636,0,0,1,2.828-6.79,9.636,9.636,0,0,1,6.794-2.817h6.123a9.622,9.622,0,0,1,6.789,2.818,9.622,9.622,0,0,1,2.818,6.789v12.9h8.9c10.259,0,18.665,9.562,18.665,21.245v23.928C52.956-9.562,44.55,0,34.291,0Z" transform="translate(1242.32 423.219) rotate(180)" fill="#fff" stroke="#000" stroke-width="1"/>
        <path id="Vector-21" data-name="Vector" d="M12.246-1.5S10.5-6.6,6.8-6.953.208-3.2,0,0Z" transform="translate(1213.055 464.522) rotate(180)" fill="#f7f6f6"/>
        <path id="Vector-22" data-name="Vector" d="M28.5-71.324,31.349-52.57s51.889-6.508,68.686,18.695-.86,35.166-9.4,33.742S72.089-13.816,72.089-13.816s7.961,10.837,0,12.542S55.336-7.827,50.755-16.381c0,0-34.187,3.187-45.751-17.494S2.81-69.263,23.951-90.611l1.483,11.949Z" transform="translate(1266.597 389.344) rotate(180)"/>
        <path id="Vector-23" data-name="Vector" d="M0-12.186a12.305,12.305,0,0,1,2.017-6.87,12.305,12.305,0,0,1,5.5-4.584,12.305,12.305,0,0,1,7.121-.746,12.3,12.3,0,0,1,6.331,3.344,12.3,12.3,0,0,1,3.4,6.3,12.305,12.305,0,0,1-.686,7.127,12.3,12.3,0,0,1-4.537,5.539A12.305,12.305,0,0,1,12.291,0,12.246,12.246,0,0,1,3.624-3.55,12.246,12.246,0,0,1,0-12.186Z" transform="translate(1261.593 448.866) rotate(180)" fill="#fff"/>
        <path id="Vector-24" data-name="Vector" d="M32.631,0H216.954L183.523-125.911H0Z" transform="translate(1129.944 596.956) rotate(180)" fill="#fff" stroke="#000" stroke-width="1"/>
        <path id="Vector-25" data-name="Vector" d="M31.1-15.552A15.552,15.552,0,0,0,15.552-31.1,15.552,15.552,0,0,0,0-15.552,15.552,15.552,0,0,0,15.552,0,15.552,15.552,0,0,0,31.1-15.552Z" transform="translate(1040.212 671.413) rotate(-103.34)" fill="#e6e7f5" stroke="#000" stroke-width="1"/>
        <path id="Vector-26" data-name="Vector" d="M23.538-64.067C18.1-65.313,13.294-64.616,12.8-62.5L.04-6.738c-.489,2.12,3.528,4.848,8.9,6.093C14.376.6,20.01.008,20.5-2.127L32.434-57.989C32.982-60.094,28.965-62.822,23.538-64.067Z" transform="translate(872.527 633.701) rotate(180)" fill="#f8f8fc"/>
        <path id="Vector-27" data-name="Vector" d="M24.128-64.193c-2.12-.46-8.584-1.779-9.636,1.156a31.563,31.563,0,0,0-.712,3.113c-1.1,4.774-2.179,9.533-3.276,14.306Q6.634-28.716,2.75-11.8c-.282,1.245-.623,2.491-.86,3.751C1.46-5.737,4.692-4.388,6.456-3.6a24.2,24.2,0,0,0,8.495,1.735c1.483,0,4.744.178,5.559-1.483a9.651,9.651,0,0,0,.46-2.179l6.775-31.682Q29.48-45.305,31.2-53.385L32.178-58c.3-1.334.4-1.927-.875-2.965a17,17,0,0,0-7.175-3.158c-1.156-.282-.667-2.076.489-1.794,2.965.712,9.622,2.594,9.681,6.612a12.661,12.661,0,0,1-.489,2.654c-1.038,4.818-2.076,9.651-3.1,14.47Q26.841-24.105,22.987-6.048c-.222,1.038-.356,2.15-.667,3.173C21.371.193,16.553.09,14.032-.059,9.733-.311,3.388-1.541.689-5.336a3.929,3.929,0,0,1-.66-1.74A3.929,3.929,0,0,1,.245-8.924Q4.025-25.4,7.791-41.881L11.7-58.96c.326-1.408.623-2.817.964-4.21.5-2.076,2.239-2.891,4.27-3.2a21.1,21.1,0,0,1,7.709.46C25.789-65.735,25.3-63.941,24.128-64.193Z" transform="translate(873.369 632.686) rotate(180)"/>
        <path id="Vector-28" data-name="Vector" d="M0,0H20.251V-6.568H0Z" transform="translate(863.415 679.897) rotate(-167.09)" fill="#672ed6"/>
        <path id="Vector-29" data-name="Vector" d="M21.9-6.423,4.654-10.381l-2.505-.578L3.29-11.6,1.808-5.207,1.17-6.334,18.412-2.39l2.491.578-1.142.638,1.483-6.39c.267-1.171,2.061-.667,1.794.489L21.555-.67a.934.934,0,0,1-.441.552.934.934,0,0,1-.7.086L3.172-3.976.681-4.555a.949.949,0,0,1-.556-.439.949.949,0,0,1-.1-.7l1.483-6.39a.949.949,0,0,1,.439-.556.949.949,0,0,1,.7-.1L19.895-8.78l2.491.563A.93.93,0,0,1,21.9-6.423Z" transform="translate(864.376 674.564) rotate(180)"/>
        <path id="Vector-30" data-name="Vector" d="M.009-21.586,4.946,0,19.267-17.346c.385-.46-.563-1.186-1.927-1.483L2.277-22.1C.958-22.4-.11-22.149.009-21.586Z" transform="translate(872.081 617.742) rotate(180)" fill="#fff"/>
        <path id="Vector-31" data-name="Vector" d="M1.735-22.851Q3.9-13.407,6.034-3.978L6.657-1.25,5.174-1.665,15.967-14.741l2.609-3.173a10.111,10.111,0,0,1,.726-.86.8.8,0,0,1,.163-.208c-.148,0-.1.489-.341.5s-.5-.237-.652-.3a26.241,26.241,0,0,0-2.594-.593l-5.041-1.1L5.115-21.709l-1.779-.385-.4-.089a3.41,3.41,0,0,0-.667-.074c-.489,0-.4.163-.415-.3a.934.934,0,0,1-.309.583.934.934,0,0,1-.618.233.934.934,0,0,1-.617-.233A.934.934,0,0,1,0-22.554c0-2.965,6.953-.652,8.421-.326,3.291.712,6.582,1.408,9.859,2.15,1.379.311,3.78,1.349,2.535,3.084-.445.652-1.008,1.23-1.483,1.838l-7.309,8.9L6.538-.257a.949.949,0,0,1-.418.228.949.949,0,0,1-.476,0A.949.949,0,0,1,5.23-.266a.949.949,0,0,1-.249-.406Q2.846-10.1.682-19.545L.059-22.272C-.326-23.518,1.468-24.007,1.735-22.851Z" transform="translate(872.902 616.729) rotate(180)"/>
        <path id="Vector-32" data-name="Vector" d="M0-11.238,9.31-9.1,1.794,0Z" transform="translate(868.929 617.742) rotate(180)"/>
        <path id="Vector-33" data-name="Vector" d="M0-4.537,2.179-14.1c.623-2.683,5.53-3.855,10.971-2.609s9.34,4.448,8.717,7.116L19.792,0Z" transform="translate(861.442 684.1) rotate(180)" fill="#db7294"/>
        <path id="Vector-34" data-name="Vector" d="M.053-5.691c.563-2.4,1.112-4.8,1.66-7.205.193-.845.326-1.72.593-2.535A5.352,5.352,0,0,1,3.9-17.523a5.352,5.352,0,0,1,2.4-1.081,15.952,15.952,0,0,1,7.665,0,19.273,19.273,0,0,1,6.79,2.846,6.775,6.775,0,0,1,2.965,4.077,7.264,7.264,0,0,1-.326,2.757Q22.5-4.787,21.594-.681a.934.934,0,0,1-.431.555.934.934,0,0,1-.7.1L3.151-4,.66-4.565C-.5-4.832-.007-6.611,1.15-6.344L18.466-2.385l2.491.578-1.142.637c.445-2.076.9-4.166,1.349-6.256.237-1.038.489-2.076.682-3.113a3.113,3.113,0,0,0-.2-1.536,3.113,3.113,0,0,0-.914-1.251c-3.1-3.128-8.732-4.448-12.987-3.721-1.408.222-3.291.741-3.751,2.283-.222.726-.356,1.483-.519,2.253C2.914-10.08,2.365-7.648,1.8-5.217,1.58-4.031-.214-4.52.053-5.691Z" transform="translate(862.399 683.197) rotate(180)"/>
        <path id="Vector-35" data-name="Vector" d="M0,0H20.251V-6.375H0Z" transform="translate(861.947 686.304) rotate(-167.09)" fill="#672ed6"/>
        <path id="Vector-36" data-name="Vector" d="M21.9-6.24,4.655-10.2l-2.505-.563,1.142-.652L1.808-5.2,1.171-6.344,18.413-2.386l2.491.563-1.142.652,1.483-6.212c.267-1.156,2.061-.667,1.794.489L21.556-.681a.949.949,0,0,1-.439.556.949.949,0,0,1-.7.1L3.172-3.987.667-4.565A.934.934,0,0,1,.121-5a.934.934,0,0,1-.092-.692L1.512-11.9a.949.949,0,0,1,.439-.556.949.949,0,0,1,.7-.1L19.9-8.6l2.491.563C23.557-7.767,23.068-6.033,21.9-6.24Z" transform="translate(862.954 680.884) rotate(180)"/>
        <path id="Vector-37" data-name="Vector" d="M9.149-64.363C3.678-63.266-.4-60.642.031-58.433L11.284-2.349c.43,2.12,5.2,2.965,10.674,1.868s10.378-3.958,9.948-6.093L19.853-62.54C19.393-64.675,14.619-65.52,9.149-64.363Z" transform="translate(841.355 622.553) rotate(180)" fill="#f8f8fc"/>
        <path id="Vector-38" data-name="Vector" d="M10.259-64.451a17.375,17.375,0,0,0-7.264,2.965,2.476,2.476,0,0,0-.829.827,2.476,2.476,0,0,0-.357,1.115,17.583,17.583,0,0,0,.608,2.965Q3.9-49.462,5.277-42.346q3.41,17.034,6.834,34.1c.252,1.319.5,2.654.786,3.973.474,2.209,3.143,2.313,5.115,2.342a23.572,23.572,0,0,0,8.628-1.616c1.483-.563,5.026-1.868,5.219-3.78a8.628,8.628,0,0,0-.445-2.09Q27.99-25.208,24.58-41q-1.735-8.05-3.484-16.115c-.326-1.571-.667-3.143-1.008-4.714-.282-1.26-.326-1.987-1.779-2.52a15.922,15.922,0,0,0-8.05,0c-1.171.222-1.675-1.557-.489-1.779,2.965-.563,10.1-1.675,11.682,2.15a13.817,13.817,0,0,1,.578,2.461q1.6,7.413,3.187,14.736,3.9,17.968,7.768,35.951c.222.993.5,2,.652,2.965.445,3.217-3.825,5.07-6.212,6.019A25.826,25.826,0,0,1,18.9-.065,10.822,10.822,0,0,1,12.616-1.28a3.929,3.929,0,0,1-1.135-1.3,3.928,3.928,0,0,1-.467-1.663Q7.664-21.013,4.284-37.765L.9-54.622C.622-55.986.326-57.35.074-58.713c-.385-2.105.786-3.514,2.505-4.67a20.414,20.414,0,0,1,7.19-2.757C10.852-66.482,11.356-64.688,10.259-64.451Z" transform="translate(842.139 621.635) rotate(180)"/>
        <path id="Vector-39" data-name="Vector" d="M0,0H6.568V-20.251H0Z" transform="translate(839.363 671.166) rotate(-101.35)" fill="#672ed6"/>
        <path id="Vector-40" data-name="Vector" d="M21.026-10.48,3.665-7l-2.505.5.652-1.142L3.1-1.2,1.96-1.852l17.36-3.454L21.826-5.8l-.652,1.127L19.884-11.1c-.237-1.156,1.557-1.66,1.779-.489.445,2.15.875,4.285,1.3,6.434a.949.949,0,0,1-.1.7.949.949,0,0,1-.556.439L4.97-.533l-2.505.5a.949.949,0,0,1-.7-.1.949.949,0,0,1-.439-.556L.033-7.115a.934.934,0,0,1,.086-.7A.934.934,0,0,1,.67-8.257l17.36-3.484,2.505-.5C21.722-12.5,22.2-10.718,21.026-10.48Z" transform="translate(840.26 663.82) rotate(180)"/>
        <path id="Vector-41" data-name="Vector" d="M.074-17.657,13.417,0l5.93-21.7c.163-.578-.978-.845-2.357-.563l-15.122,3.2C.608-18.784-.267-18.1.074-17.657Z" transform="translate(829.301 606.549) rotate(180)" fill="#fff"/>
        <path id="Vector-42" data-name="Vector" d="M1.9-18.971,13.612-3.494,15.258-1.3l-1.69.119q2.239-8.213,4.448-16.4l1.067-3.914c.1-.356.178-.756.311-1.1v-.237h0v.267c.1.237,0,.326-.163.237a3.691,3.691,0,0,1-.815,0c-2.535.341-5.085,1.067-7.591,1.6L5.176-19.535l-1.735.371-.356.074-.415.1a3.158,3.158,0,0,0-.519.208.726.726,0,0,0-.3.163c-.208.208-.237,0-.089-.43.5,1.067-1.1,2.016-1.6.934-1.334-2.8,5.8-3.484,7.413-3.81,3.291-.7,6.582-1.483,9.888-2.105,1.334-.267,4.062-.43,3.706,1.69-.133.771-.415,1.557-.623,2.313L17.585-8.964l-2.268,8.3a.949.949,0,0,1-.3.441.949.949,0,0,1-.486.213.949.949,0,0,1-.524-.081.949.949,0,0,1-.4-.35L1.915-15.917C1.351-16.644.8-17.4.254-18.111S1.188-19.935,1.9-18.971Z" transform="translate(830.326 605.679) rotate(180)"/>
        <path id="Vector-43" data-name="Vector" d="M0-9.518,9.37-11.4,6.256,0Z" transform="translate(822.125 606.549) rotate(180)"/>
        <path id="Vector-44" data-name="Vector" d="M1.975,0,.048-9.622c-.534-2.7,3.454-5.767,8.9-6.864,5.471-1.112,10.378.193,10.882,2.891L21.871-4Z" transform="translate(841.787 673.574) rotate(180)" fill="#db7294"/>
        <path id="Vector-45" data-name="Vector" d="M2-.677C1.511-3.094,1.036-5.51.517-7.927c-.163-.845-.385-1.7-.5-2.55a5.07,5.07,0,0,1,.451-2.487,5.07,5.07,0,0,1,1.6-1.961,18.25,18.25,0,0,1,6.691-3.3,18.25,18.25,0,0,1,7.452-.347,5.485,5.485,0,0,1,3.9,1.39,5.485,5.485,0,0,1,1.818,3.725c.578,2.758,1.156,5.5,1.749,8.258a.934.934,0,0,1-.091.705.934.934,0,0,1-.561.437L5.632-.529,3.142-.04C1.97.2,1.481-1.522,2.652-1.819l17.42-3.5,2.491-.5L21.91-4.68l-1.319-6.256c-.222-1.038-.43-2.09-.667-3.128a3.158,3.158,0,0,0-.859-1.431,3.158,3.158,0,0,0-1.468-.793,16.071,16.071,0,0,0-6.9-.424A16.071,16.071,0,0,0,4.253-14.2c-1.1.741-2.52,1.942-2.357,3.41.074.756.3,1.483.445,2.268.489,2.446.993,4.907,1.483,7.413C4.016-.01,2.237.509,2-.677Z" transform="translate(842.702 672.6) rotate(180)"/>
        <path id="Vector-46" data-name="Vector" d="M0,0H6.375V-20.251H0Z" transform="translate(840.61 677.432) rotate(-101.35)" fill="#672ed6"/>
        <path id="Vector-47" data-name="Vector" d="M20.992-10.258,3.676-6.774,1.17-6.284l.652-1.127L3.068-1.17,1.926-1.822l17.36-3.484,2.505-.5L21.14-4.669c-.415-2.076-.83-4.166-1.26-6.241a.93.93,0,0,1,1.794-.489l1.245,6.241a.934.934,0,0,1-.086.7.934.934,0,0,1-.552.441L4.921-.532l-2.505.5a.934.934,0,0,1-.7-.1.934.934,0,0,1-.431-.555C.859-2.756.444-4.846.029-6.922a.949.949,0,0,1,.1-.7.949.949,0,0,1,.556-.439l17.346-3.484,2.505-.5C21.674-12.289,22.163-10.495,20.992-10.258Z" transform="translate(841.486 670.284) rotate(180)"/>
        <path id="Vector-48" data-name="Vector" d="M6.553-109.974a6.553,6.553,0,0,0-4.633,1.919A6.553,6.553,0,0,0,0-103.421V-6.553A6.553,6.553,0,0,0,1.919-1.919,6.553,6.553,0,0,0,6.553,0,6.538,6.538,0,0,0,9.058-.5,6.538,6.538,0,0,0,11.181-1.92,6.538,6.538,0,0,0,12.6-4.046a6.538,6.538,0,0,0,.493-2.507v-96.869a6.538,6.538,0,0,0-.493-2.507,6.538,6.538,0,0,0-1.416-2.126,6.538,6.538,0,0,0-2.123-1.421A6.538,6.538,0,0,0,6.553-109.974Z" transform="translate(851.924 585.2) rotate(180)" fill="#5cae48" stroke="#211f21" stroke-width="1"/>
        <path id="Vector-49" data-name="Vector" d="M0,0H13.091" transform="translate(851.924 612.241) rotate(180)" fill="none" stroke="#211f21" stroke-width="1"/>
        <path id="Vector-50" data-name="Vector" d="M3.425-35.877a3.41,3.41,0,0,0-1.313.257A3.41,3.41,0,0,0,1-34.879a3.41,3.41,0,0,0-.742,1.113A3.41,3.41,0,0,0,0-32.453V-3.439A3.425,3.425,0,0,0,.256-2.124,3.425,3.425,0,0,0,1-1.008a3.425,3.425,0,0,0,1.113.746A3.425,3.425,0,0,0,3.425,0h0A3.44,3.44,0,0,0,5.857-1.007,3.44,3.44,0,0,0,6.864-3.439V-32.453A3.425,3.425,0,0,0,6.6-33.767a3.425,3.425,0,0,0-.746-1.113,3.425,3.425,0,0,0-1.116-.741,3.425,3.425,0,0,0-1.315-.256Z" transform="translate(841.428 598.202) rotate(180)" fill="#5cae48" stroke="#211f21" stroke-width="1"/>
        <path id="Vector-51" data-name="Vector" d="M0,0H70.865V-57.641H0Z" transform="translate(875.971 665.227) rotate(180)" fill="#001f34"/>
        <path id="Vector-52" data-name="Vector" d="M18.443-29.947V-27.9C11.712-23.142,2.283-14.04,1.483,0H0C.86-15.389,11.4-25.129,18.443-29.947Z" transform="translate(823.534 665.227) rotate(180)" fill="#0a3457"/>
        <path id="Vector-53" data-name="Vector" d="M37.33-29.164c.682,11.86-1.883,21.749-7,26.374-2.965,2.654-8.109,4.774-15.908-.282C7.857-7.341,2.921-16.1.163-28.408A3.451,3.451,0,0,0,0-29.164H1.483C3.5-20.047,7.413-9.624,15.063-4.673,20.726-1,25.722-.848,29.488-4.258c4.729-4.27,7.072-13.61,6.4-24.907Z" transform="translate(850.027 693.704) rotate(180)" fill="#0a3457"/>
        <path id="Vector-54" data-name="Vector" d="M1.394-57.67C2.179-49.087,7.917-41.1,18.309-29.5c9,10.037,14.929,19.925,17.716,29.5H34.543C31.756-9.1,26.018-18.532,17.39-28.168,6.79-40.028.786-48.449,0-57.656Z" transform="translate(870.589 665.197) rotate(180)" fill="#0a3457"/>
        <path id="Vector-55" data-name="Vector" d="M.059-21.289c4.729.178,11.282,1.483,15.611,6.953,2.758,3.528,4.2,8.361,4.344,14.336H18.532c-.148-5.485-1.483-9.888-3.944-13.076C10.63-18.146,4.492-19.317,0-19.48Z" transform="translate(876.03 665.227) rotate(180)" fill="#0a3457"/>
      </g>
      <g id="video">
        <path id="Vector-56" data-name="Vector" d="M142.44,94.51a8,8,0,0,1-2.67.47H7.24a6.73,6.73,0,0,1-6.88-6.8L0,16.5V8.43A8.61,8.61,0,0,1,8.43,0H140.89a7,7,0,0,1,1.73.21,6.67,6.67,0,0,1,5.15,6.6V16.5l.38,70.06a8.64,8.64,0,0,1-5.71,7.95Z" transform="translate(795 411.04)" fill="#01102a" opacity="0.5"/>
        <path id="Vector-57" data-name="Vector" d="M5.323.474l23.82,13.14a3.71,3.71,0,0,1,.41,6.37L6.973,34.244a3.84,3.84,0,0,1-5.73-3.12L0,3.694A3.55,3.55,0,0,1,5.323.474Z" transform="translate(852.827 439.716)" fill="#fff"/>
        <path id="Vector-58" data-name="Vector" d="M142.44,94.51a8,8,0,0,1-2.67.47H7.24a6.73,6.73,0,0,1-6.88-6.8L0,16.5V8.43A8.61,8.61,0,0,1,8.43,0H140.89a7,7,0,0,1,1.73.21,6.67,6.67,0,0,1,5.15,6.6V16.5l.38,70.06a8.64,8.64,0,0,1-5.71,7.95Z" transform="translate(795 411.04)" fill="none" stroke="#114399" stroke-width="0.75"/>
        <path id="Vector-59" data-name="Vector" d="M0,2.66H136.88l.1-2.66H.09Z" transform="translate(802.35 496.4)" fill="#fff"/>
        <path id="Vector-60" data-name="Vector" d="M16,2.65H0L.1,0H15.65a5,5,0,0,0-.08.78A4.05,4.05,0,0,0,16,2.65Z" transform="translate(802.36 496.4)" fill="#38a61f"/>
        <path id="Vector-61" data-name="Vector" d="M8.44,4.208a4.16,4.16,0,0,1-.45,1.87A4.25,4.25,0,0,1,4.2,8.428,4.18,4.18,0,0,1,.43,6.078,4.05,4.05,0,0,1,0,4.208a5,5,0,0,1,.08-.78,4.22,4.22,0,0,1,8.29,0,4,4,0,0,1,.07.78Z" transform="translate(817.93 492.972)" fill="#fff"/>
        <path id="Vector-62" data-name="Vector" d="M3.27,1.64A1.64,1.64,0,0,1,1.63,3.28,1.62,1.62,0,0,1,0,1.64,1.65,1.65,0,0,1,1.64,0,1.63,1.63,0,0,1,3.27,1.64Z" transform="translate(820.51 495.54)" fill="#38a61f"/>
      </g>
    </g>
    <g id="Iamge" transform="translate(269.852 120.637)">
      <path id="Vector_3" data-name="Vector 3" d="M97.349-182.546,0-335.595H195.088Z" transform="translate(758.411 554.085)" fill="none" stroke="#27a7df" stroke-linecap="round" stroke-linejoin="round" stroke-width="1" stroke-dasharray="3 3" opacity="0.7"/>
      <g id="Avater" transform="translate(859.887 162)">
        <g id="Ellipse_9-3" data-name="Ellipse 9" transform="translate(0)" clip-path="url(#clip-path)">
          <g id="Group_7" data-name="Group 7" transform="translate(35.149 15.962)">
            <circle id="Ellipse_7" data-name="Ellipse 7" cx="43.972" cy="43.972" r="43.972" transform="translate(0 0)" fill="#fff"/>
            <circle id="Ellipse_8" data-name="Ellipse 8" cx="43.516" cy="43.516" r="43.516" transform="translate(0.456 0.456)" fill="none"/>
          </g>
          <g id="Avater-2" data-name="Avater" transform="translate(5.208 1.418)">
            <path id="Vector-63" data-name="Vector" d="M14.415,1.978C2.582,11.417,3.788,31.484,3.073,42.407,2.571,50.048,1,61,0,67.265L22.17,70.53V32.112c0-12.806.891-28.545,4.385-31.935a25.723,25.723,0,0,0-6.055,0,11.058,11.058,0,0,0-4.231.835C15.565,1.43,15.047,1.617,14.415,1.978Z" transform="translate(57.984 32.404)" fill="#fff"/>
            <path id="Vector-64" data-name="Vector" d="M14.415,0C2.582,9.439,3.788,29.506,3.073,40.429,2.571,48.07,1,59.02,0,65.287c8.431,3.1,12.126,3.841,22.17,3.264V30.134c0-9.9.533-21.552,2.39-27.9-2,3.2-4.766,18.657-4.344,27.9s.141,27.239-2.536,32.251S1.194,63.638,2.461,59.74,3.729,43.171,4.856,28.552C5.758,16.856,11.6,4.644,14.415,0Z" transform="translate(57.984 34.382)" fill="#ffb83b" opacity="0.5"/>
            <path id="Vector-65" data-name="Vector" d="M15.3,40.795C12.622,45.807-1.186,42.048.082,38.15c3.24,5.012,10.99,3.481,12.258,1.531s3.243-6.822,3.243-15.037c0-6.572,1.69-19.168,2.536-24.644a65.1,65.1,0,0,0-.282,8.543C18.259,17.783,17.977,35.783,15.3,40.795Z" transform="translate(60.365 55.972)" fill="#fff9ef"/>
            <path id="Vector-66" data-name="Vector" d="M1.145,24.5C1.852,15.367,5.573,5.913,8.508,0,6.851,3.574,3.57,12.81,3.683,21.163S1.275,39.96,0,44.137C.3,38.651.581,31.822,1.145,24.5Z" transform="translate(61.695 38.429)" fill="#fff9ef"/>
            <path id="Vector-67" data-name="Vector" d="M4.933,81.451,0,80.755C.753,75.6,5.975,50.429,8.14,33.861c.471-3.614.96-7.4,1.457-11.3C11.515,7.444,18.157,2.987,23.389,0c-11.833,9.439-12.481,30.471-13.2,41.394-.5,7.641-2.075,18.592-3.073,24.859C6.977,67.152,5.048,80.768,4.933,81.451Z" transform="translate(50.862 33.417)" fill="#ffaf2e"/>
            <path id="Vector-68" data-name="Vector" d="M8.14,11.3C8.611,7.685,9.1,3.9,9.6,0,9.451,4.732,9.1,12.507,8.14,20.461,6.334,35.421,4.369,49,0,58.193.753,53.039,5.975,27.868,8.14,11.3Z" transform="translate(50.862 55.978)" fill="#f3a00d"/>
            <path id="Vector-69" data-name="Vector" d="M22.985,81.869c-2.395-10.442-5.919-51.516-5.919-51.516s2.84-14.494-1.831-21.581C12.248,4.239,4.385,0,4.385,0,.891,3.39,0,19.129,0,31.935V83.678C6.075,84.932,16.22,85.489,22.985,81.869Z" transform="translate(80.155 32.581)" fill="#ffaf2e"/>
            <path id="Vector-70" data-name="Vector" d="M1.775,0C.412,6.615,0,16.681,0,25.391V58.2A204.9,204.9,0,0,0,1.145,28.682,242.633,242.633,0,0,1,1.775,0Z" transform="translate(80.155 39.125)" fill="#f9a319"/>
            <path id="Vector-71" data-name="Vector" d="M22.985,73.1c-2.395-10.442-5.919-51.516-5.919-51.516S19.906,7.087,15.234,0c0,7.518-3.663,17.682-1.55,27.846C16.528,41.515,18.9,54.022,16.22,63.49,14.079,71.064,4.513,74.257,0,74.907,6.075,76.16,16.22,76.717,22.985,73.1Z" transform="translate(80.155 41.353)" fill="#f9a319"/>
            <path id="Vector-72" data-name="Vector" d="M34.239,40.934c.845-8.632-7.607-21.3-17.188-30.77C12.788,5.953,4.088.975,0,0L12.681,30.353A110.137,110.137,0,0,1,21.632,42.23C23.184,38.84,29.731,36.618,34.239,40.934Z" transform="translate(84.539 32.581)" fill="#ffaf2e"/>
            <path id="Vector-73" data-name="Vector" d="M26.207,37.314c.845-8.633-7.609-21.3-17.188-30.77A47.3,47.3,0,0,0,0,0,58.787,58.787,0,0,1,4.085,8.215c.845,2.646,19.022,13.22,17.473,26.8A8.375,8.375,0,0,1,26.207,37.314Z" transform="translate(92.571 36.201)" fill="#f9a319"/>
            <path id="Vector-74" data-name="Vector" d="M.087,4.938C.353,2.309,2.858.776,4.633.338c3.99-.986,7.978.219,9.973,3.177,1.742,2.579-.22,6.353-2,7.777.333-4.929-1.55-6.681-5.653-6.024s-5.32,3.176-5.54,5.367C.42,9.867-.246,8.224.087,4.938Z" transform="translate(104.576 66.275)" fill="#f9a319"/>
            <path id="Vector-75" data-name="Vector" d="M7.476.133C3.376.79,2.156,3.309,1.934,5.5c.371,4.564,1.042,15.29.776,21.687-.33,8-.776,10.734-2.215,14.239s.464,7.146,3.235,6.488,5.033-3.86,4.369-6.488A9.587,9.587,0,0,1,9.2,34.305c1.109-1.862,3.924-17.853,3.924-28.149C13.462,1.228,11.577-.525,7.476.133Z" transform="translate(104.058 71.41)" fill="#ffd0b7"/>
            <path id="Vector-76" data-name="Vector" d="M20.3,22.562C22.221,7.444,28.863,2.986,34.1,0,29.721,2.329,19.857,5.012,12.663,17.665,6.552,28.412,1.908,31.243,0,31.745c2.305,2.134,6.3,8.552,5.916,12.67C8.4,42.607,15.511,36.54,18.846,33.861,19.317,30.247,19.806,26.465,20.3,22.562Z" transform="translate(40.157 33.417)" fill="#ffaf2e"/>
            <path id="Vector-77" data-name="Vector" d="M13.231,11.3c.471-3.614.96-7.4,1.457-11.3-1.36,6.829-6.5,10.854-9.313,11.829C3.12,12.608.85,16.887,0,18.929a8.805,8.805,0,0,1,.3,2.924C2.784,20.045,9.9,13.978,13.231,11.3Z" transform="translate(45.771 55.978)" fill="#f9a319"/>
            <path id="Vector-78" data-name="Vector" d="M5.8,8.039C4.218,3.165,1.9,1.649.914,1.486A5.626,5.626,0,0,1,3.207.118c1.355-.365,5.179,0,6.905,2.8,1.462,2.374,3.084,6.215,0,9.992C7.645,15.935,2.344,15.635,0,15.107,2.589,14.782,7.218,12.426,5.8,8.039Z" transform="translate(38.114 63.815)" fill="#f9a319"/>
            <path id="Vector-79" data-name="Vector" d="M38.114,30.468c2.589-.325,7.218-2.681,5.8-7.068-1.135-3.506-2.625-6-4.882-6.553-.533.2-1.58.631-5.724-1.124C28.125,13.529,11.23,5.852,10,4.755S6.051-.119,2.228,0s-2.466,7.068,2.1,8.287S12.71,12.8,14.929,15.236,29.111,29.493,38.114,30.468Z" transform="translate(0 48.454)" fill="#ffd0b7"/>
            <path id="Vector-80" data-name="Vector" d="M.021,12.536V4.978L10.424,0V11.7C5.786,20.239-.4,18.065.021,12.536Z" transform="translate(74.114 20.886)" fill="#ffd0b7"/>
            <path id="Vector-81" data-name="Vector" d="M1.15,4.428,10.4,0V11.7c-.008.017-.018.034-.026.051a17.956,17.956,0,0,1-1.434,2.238C7.223,11.423,2.671,7.449,0,5.465V5.072Z" transform="translate(74.135 20.886)" fill="url(#linear-gradient)"/>
            <path id="Vector-82" data-name="Vector" d="M0,6.81c0,4.436,2.251,4.976,3.908,4.742L14.041,22.44a5.04,5.04,0,0,1,1.252,3.477c0,2.31,1.839-2.484,3.2-3.477,2.822-2.056,4.741-2.117,5.635-5.508.768-2.911-.315-4.971-1.2-5.381a7.048,7.048,0,0,0-1.954-.878c-.853-.141-1.068-1.581-1.068-2.283-.059-.527-.289-1.259-1.649-2.108-.845-.527-3.03-.761-3.86,0a1.609,1.609,0,0,1-2.31-.527c-.569-1.124-1.778-.7-2.31-.352-1.562.562-5.187-1.089-6.6-5.4C1.488,2.228,0,3.759,0,6.81Z" transform="translate(68.971)" fill="#2b2b39"/>
            <path id="Vector-83" data-name="Vector" d="M7.633.878A7.041,7.041,0,0,0,5.678,0c4.4,3.232.853,8.41-1.964,9.8C1.46,10.916.3,13.894,0,15.244c0,2.31,1.839-2.484,3.2-3.477C6.024,9.71,7.942,9.649,8.836,6.259,9.6,3.348,8.521,1.288,7.633.878Z" transform="translate(84.264 10.674)" fill="#13131c"/>
            <path id="Vector-84" data-name="Vector" d="M6.6,5.4C5.033,5.967,1.409,4.316,0,0,.026,2.6,1.306,7.593,6.224,6.81c.768-.254,1.665-.761,2.689.252s3.616-1.306,6.162-.779c-.845-.527-3.03-.761-3.86,0a1.609,1.609,0,0,1-2.31-.527C8.337,4.632,7.13,5.054,6.6,5.4Z" transform="translate(72.15 0)" fill="#13131c"/>
            <path id="Vector-85" data-name="Vector" d="M7.4,16.111c4.124-1.264,5.745-4.156,6.042-5.444A12.21,12.21,0,0,0,13.8,8.033c-.428-1.264-1.719.527-2.31,1.581-.791,1.4-.935-3.512,0-4.742,1.278-1.686-.712-2.133-1.6-2.634a4.363,4.363,0,0,0-2.843-.351,1.8,1.8,0,0,1-2.134-.878c-.474-.761-1.706-1.826-2.843,0C-.631,5.083-.121,10.433.473,12.6A5.44,5.44,0,0,0,7.4,16.111Z" transform="translate(70.633 10.192)" fill="#ffd0b7"/>
          </g>
        </g>
      </g>
      <g id="Avater-3" data-name="Avater" transform="translate(719 162)">
        <g id="Ellipse_9-4" data-name="Ellipse 9" transform="translate(0 0)" clip-path="url(#clip-path-2)">
          <g id="Group_6" data-name="Group 6" transform="translate(0.07 12.282)">
            <circle id="Ellipse_5" data-name="Ellipse 5" cx="44.538" cy="44.538" r="44.538" transform="translate(0 0)" fill="#fff"/>
            <circle id="Ellipse_6" data-name="Ellipse 6" cx="44.082" cy="44.082" r="44.082" transform="translate(0.456 0.456)" fill="none"/>
          </g>
          <g id="Group_1000000774" data-name="Group 1000000774" transform="translate(15.31 5.259)">
            <path id="Vector-86" data-name="Vector" d="M10.7,5.5C7.972,6.33,4.593,7.5,2.086,6.887.076,6.4.227,5.765,0,4.433.637,3.352,3.33,1.275,8.542.215,15.057-1.109,15.487,4.051,10.7,5.5Z" transform="translate(69.592 54.94)" fill="#febe9d"/>
            <path id="Vector-87" data-name="Vector" d="M8.074,2.2A4.011,4.011,0,0,0,4.062.011c-7.308,2.924-2.866,24-1.146,26.8a11.179,11.179,0,0,0,5.732,4.751,11.172,11.172,0,0,0,7.021-.244c1-.609,1.29-1.218,2.436-1.34s3.009-.487,3.726-1.218A3.559,3.559,0,0,1,24.839,27.3a5.152,5.152,0,0,0,3.725-1.949,2.862,2.862,0,0,1,2.006-1.1c1-.244,2.006-.244,2.293-1.462a18.587,18.587,0,0,0,.286-4.873c-.143-1.218-.143-1.218-.86-1.1s-2.579,1.1-3.152,1.1a6.857,6.857,0,0,0-2.579.244c-1,.365-4.3,1.705-6.448,2.314s-5.3.731-5.015-.122,1.29-3.289-.716-3.289-2.006-1.34-2.866-4.142S9.077,4.64,8.074,2.2Z" transform="translate(42.591 38.775)" fill="#d8002d"/>
            <path id="Vector-88" data-name="Vector" d="M.573,1.1A4.634,4.634,0,0,1,3.152,0Zm1,.609,1.146-.487ZM.143,3.411a6.568,6.568,0,0,0,2.866-.975ZM0,5.116a4.878,4.878,0,0,0,2.722-.974" transform="translate(71.872 56.937)" fill="none" stroke="#ba0024" stroke-width="0.5"/>
            <path id="Vector-89" data-name="Vector" d="M29.67,20.694a8.251,8.251,0,0,1-.246-3.663,13.594,13.594,0,0,1-2.149,4.02c-1.29,1.462-2.866,1.34-3.152.122s-2.006-.487-2.579.975-1.863,3.289-4.012,3.411a9.539,9.539,0,0,0-3.611.8l-.114.049c-.573.244-.43-.731.143-1.34A4.808,4.808,0,0,0,15.1,22.025,7.419,7.419,0,0,1,10.653,25.8c-2.293.609-3.582-.853-1.863-2.193s3.009-2.558,3.439-3.654c.162-.414-.064-.272-.517.013-.745.469-2.1,1.324-3.352.718-2.006-.974-1.719-3.776-.143-4.264a9.943,9.943,0,0,1,2.065-.247c1.724-.1,3.706-.215,4.1-1.459-.86.487-5.875,1.218-6.018-1.827A20.049,20.049,0,0,0,7.214,6.068a9.248,9.248,0,0,1-.466-2.08C6.515,2.433,6.261.75,4.922.1A11.457,11.457,0,0,0,.8.359C-1.428,7.488,1.573,20.813,2.916,23a11.179,11.179,0,0,0,5.732,4.751,11.173,11.173,0,0,0,7.021-.244,7.61,7.61,0,0,0,.809-.58,2.808,2.808,0,0,1,1.627-.76c1.146-.122,3.009-.487,3.726-1.218l.153-.157a3.4,3.4,0,0,1,2.857-1.3,5.152,5.152,0,0,0,3.725-1.949A2.31,2.31,0,0,1,29.67,20.694Z" transform="translate(42.591 42.586)" fill="#bc2136"/>
            <path id="Vector-90" data-name="Vector" d="M4.3,21.356a7.7,7.7,0,0,1,3.053-2.224c1.719-.487.86-.731-.573-.244s-1.719.122-1.863-1.462a15.417,15.417,0,0,1,1.29-6.334c.86-1.949,2.006-8.04-.43-10.354C4.661-.327,2.3-.206.086.887-.468,8.144,1.8,17.677,2.916,19.5A12.094,12.094,0,0,0,4.3,21.356Z" transform="translate(42.591 46.088)" fill="#bc2136"/>
            <path id="Vector-91" data-name="Vector" d="M.159,5.238c1.261-1.462,1.1-4.1.86-5.238.382.975.917,3.265,0,4.629C-.127,6.334-.127,5.6.159,5.238Z" transform="translate(70.71 56.937)" fill="#ba0024"/>
            <path id="Vector-92" data-name="Vector" d="M25.2,63.033c4.241-1.657,9.887-.853,12.179-.244.287.073.573,0,1.146-1.705s.143-5.969,0-6.334a1.744,1.744,0,0,1,0-1.218c.716-4.02-2.006-13.643-3.152-19s.43-10.354,2.006-14.009.286-8.405-.143-13.278S31.933,2,25.342.664,10.3-.676,6.571,7.364s-.287,18.516,0,24.485S3.992,42.934,2.129,48.172.7,57.308.123,60.718c-.459,2.729.478,3.9,1,4.142.048.609.143,2.241.143,3.9,0,2.071.86,3.167,3.009,3.045a20.168,20.168,0,0,0,8.6-3.289C15.884,66.566,19.9,65.1,25.2,63.033Z" transform="translate(11.139 34.346)" fill="#d42941"/>
            <path id="Vector-93" data-name="Vector" d="M10.6,5.36A12.234,12.234,0,0,1,0,7.065c0,.528.917,1.852,4.585,2.924,4.585,1.34,7.737-1.705,9.027-4.142A38.236,38.236,0,0,1,17.911,0C17.1.568,14.5,2.436,10.6,5.36Z" transform="translate(25.877 68.996)" fill="#bc2136"/>
            <path id="Vector-94" data-name="Vector" d="M37.378,62.574c-2.293-.609-7.938-1.413-12.18.244l-1.7.661c-4.471,1.736-7.944,3.085-10.623,4.82a20.17,20.17,0,0,1-8.6,3.289c-2.149.122-3.009-.974-3.009-3.045,0-1.657-.1-3.289-.143-3.9C.6,64.4-.336,63.232.123,60.5c.184-1.094.264-2.237.351-3.459a31.79,31.79,0,0,1,1.655-9.088c.431-1.212.916-2.417,1.4-3.628,1.618-4.023,3.26-8.107,3.04-12.7-.076-1.582-.373-3.481-.7-5.567-.906-5.784-2.038-13.009.7-18.917q.071-.152.143-.3A30.275,30.275,0,0,1,22.616,0c.931.115,1.845.27,2.726.449.705.143,1.391.276,2.054.4a31.468,31.468,0,0,1,6.469,1.675,3.153,3.153,0,0,1,.647.844c2.006,4.02-2.149,8.649-5.445,10.963s-2.579,3.289,1.146,2.314c3.3-.864,2.777-.579-1.277,1.617q-.78.423-1.733.941c-5.588,3.045.716,1.827,5.3.852s3.726,1.34,2.723,2.314a4.979,4.979,0,0,1-1.306.855c-.576.291-1.047.528-1.13,1.094a3.759,3.759,0,0,1-2.436,2.558L30.046,27a5.976,5.976,0,0,0-3.415,2.32c-.86,1.462-3.009,1.705-5.588,1.583s-6.018.853-2.866,3.411,7.594.731,9.887-.244c-5.3,5.6-12.9,1.462-14.329-.487s-2.149-2.558-4.012-2.071-2.436,2.8-.716,3.289a5.57,5.57,0,0,0,2.2.043c.809-.1,1.387-.167,1.387.444,0,.928-2.259,2.554-4.256,3.992-.362.261-.716.515-1.046.759-2.149,1.583.286,2.924,1.863,3.411s1.146,1.1-1.433,3.533c-3.582,3.533,3.3,6.822,9.6,3.045C22.361,47,26.774,46.737,28.351,46.98a23.992,23.992,0,0,0-9.314,4.873C16.428,54.235,12.973,54.9,9.9,55.491a26.026,26.026,0,0,0-4.046.991c-3.582,1.34-1.719,4.02,1.29,4.142,1.605.065,4.433-1.464,7.68-3.22a58.393,58.393,0,0,1,8.942-4.211,17.948,17.948,0,0,1,12.9.366c-3.726-.244-14.186,2.8-19.63,5.847A26.58,26.58,0,0,1,10.72,61.93a13.4,13.4,0,0,0-5.152,2.349c-3.439,2.68,1.146,4.507,4.442,4.02,1.472-.218,3.545-1.408,5.912-2.767,2.931-1.683,6.313-3.625,9.563-4.3,4.348-.9,9.848.074,12.576.8C37.771,62.605,37.575,62.624,37.378,62.574Z" transform="translate(11.139 34.561)" fill="#d8002d"/>
            <path id="Vector-95" data-name="Vector" d="M1.536,25.894a23.745,23.745,0,0,0,1.9-2.585c.716-1.218,1.146-1.705,2.149-.853a2.505,2.505,0,0,0,3.439-.244l-.05.2c-.408,1.6-.691,2.71,2.2,2.359a19.9,19.9,0,0,1,4.041.211c2.709.308,5.25.6,4.413-1.063-1.29-2.558-2.149-8.771.43-10.963A24.718,24.718,0,0,0,24.5,7.717C25.651,5.4,25.536.9,15.907,1.383,12.085,1.576,7.916.775,4.015,0A12.938,12.938,0,0,0,1.721,3.453C-1.017,9.362.115,16.586,1.021,22.37,1.217,23.622,1.4,24.806,1.536,25.894Z" transform="translate(15.988 38.257)" fill="#bc2136"/>
            <path id="Vector-96" data-name="Vector" d="M18.341,3.077c2.981.1,3.63-1.746,3.582-2.68,0-.731.86-.731.43,2.436S16.765,4.3,12.323,4.661,1.576,7.829,0,8.681A27.342,27.342,0,0,1,18.341,3.077Z" transform="translate(24.588 89.55)" fill="#ba0024"/>
            <path id="Vector-97" data-name="Vector" d="M0,11.329a23.525,23.525,0,0,0,.43,4.507ZM3.439,9.745a16.849,16.849,0,0,1,.86,4.507ZM5.732,8.527a24.357,24.357,0,0,1,.716,5.847ZM8.6,8.771v0ZM10.89,7.065a7.411,7.411,0,0,1,.43,3.9Zm2.293-1.34a17.607,17.607,0,0,1,.716,4.02Zm2.866-.731v0Zm2.722-1.584a10.839,10.839,0,0,1,0,5.116ZM20.777,2.8a7.564,7.564,0,0,1,.716,3.9Zm3.439-.609v0Zm1.863-.975a41.259,41.259,0,0,1,.43,4.994ZM29.947,2.68a13.691,13.691,0,0,1-.286,4.02ZM31.667,0a23.718,23.718,0,0,1,.716,7.065" transform="translate(14.556 88.608)" fill="none" stroke="#ba0024" stroke-width="1.079"/>
            <path id="Vector-98" data-name="Vector" d="M0,9.954C9.361,5.691,29.145-2.422,32.813.7" transform="translate(15.99 87.79)" fill="none" stroke="#ba0024" stroke-width="1.079"/>
            <path id="Vector-99" data-name="Vector" d="M.123,17.176c-.459,2.729.478,3.9,1,4.142.023.291.056.814.085,1.462a51.262,51.262,0,0,1,5.36-3.9c-2.149.609-4.988,1.827-5.36-.853s1.061-5.482,1.921-6.943S5.02,5.238,3.933,0c-.618,1.549-1.254,3.084-1.8,4.629C.266,9.867.7,13.765.123,17.176Z" transform="translate(11.139 77.888)" fill="#2068d9"/>
            <path id="Vector-100" data-name="Vector" d="M.015,9.724C.211,6.884.709,3.43,2.169,1.3,3.34-.4,3.88-.036,5.205.225c.783.979,2.135,4.25,1.273,9.5C5.4,16.285-.329,14.718.015,9.724Z" transform="translate(0.784 91.466)" fill="#febe9d"/>
            <path id="Vector-101" data-name="Vector" d="M.085,59.969a6.546,6.546,0,0,0,.43-1.462c.43-3.167,0-6.212,0-11.45S1.8,36.338,2.951,34.389s.86-3.654,1.433-4.629S6.676,27.689,6.1,24.4s1.433-3.655,1.576-7.8,1-9.38,3.726-13.034,12.753-6.091,13.756.853-2.723,11.572-4.3,14.618a60.157,60.157,0,0,0-3.869,11.329c-.287,1.705-1.576,6.578-1.576,8.649a42.774,42.774,0,0,1-1.433,9.136c-.86,3.289-2.723,7.309-3.3,7.674s-.86.609-.86,1.218a31.045,31.045,0,0,1-.43,3.411c-.143.731-.287.974-.716.731a5.766,5.766,0,0,0-2.436-.244c-1.29,0-3.439.244-4.728.122S-.2,60.578.085,59.969Z" transform="translate(0 37.166)" fill="#d8002d"/>
            <path id="Vector-102" data-name="Vector" d="M4.585.519C1.834,1.1.382.6,0,.275a8.969,8.969,0,0,0,4.3,0A8.421,8.421,0,0,1,8.024.153,16.437,16.437,0,0,0,4.585.519Z" transform="translate(1.088 93.328)" fill="#ba0024"/>
            <path id="Vector-103" data-name="Vector" d="M.286,1.1A2.969,2.969,0,0,1,0,3.167ZM2.293.244l-.143,2.68ZM5.3,0c-.143.487-.315,1.584.143,2.071a.685.685,0,0,1-.143,1.1" transform="translate(2.378 94.089)" fill="none" stroke="#bc2136" stroke-width="1.079"/>
            <path id="Vector-104" data-name="Vector" d="M2.587,60.967A4.754,4.754,0,0,0,3.3,58.385C3.152,56.924,1.146,56.437,0,56.68c1.433-.609,4.585-1.949,5.445-4.994S6.018,46.813,3.3,46.57c-.573,0-1.146-.122.86-1.584S9.314,40.723,6.3,39.017,1.29,35.972.86,34.145a16.509,16.509,0,0,0,3.869,2.193c.62.105.6.028.3-.94-.046-.151-.1-.324-.157-.522a40.187,40.187,0,0,1-1.433-6.213c.43,1.34,1.146,3.411,3.009,4.264S8.884,31.465,8.6,29.881s-.43-2.8,1.433-4.142,4.872-6.091,2.722-8.162S6.735,11.731,6.878,8.808c.111-2.273-.124-3-1.176-4.355Q5.986,4,6.3,3.57C8.25.958,13.928-1.031,17.376.58q.484.292.958.591A4.879,4.879,0,0,1,20.06,4.422C20.9,10.2,18.453,14.38,16.7,17.374c-.352.6-.676,1.157-.94,1.666a60.156,60.156,0,0,0-3.869,11.329c-.089.528-.274,1.359-.486,2.317a39.262,39.262,0,0,0-1.09,6.332,42.774,42.774,0,0,1-1.433,9.136c-.86,3.289-2.723,7.309-3.3,7.674s-.86.609-.86,1.218a31.045,31.045,0,0,1-.43,3.411c-.143.731-.287.974-.716.731A2.33,2.33,0,0,0,2.587,60.967Z" transform="translate(5.1 37.166)" fill="#bc2136"/>
            <path id="Vector-105" data-name="Vector" d="M8.792,0A47.89,47.89,0,0,0,7.308,5.262c-.089.528-.274,1.359-.486,2.317a39.262,39.262,0,0,0-1.09,6.332,21.964,21.964,0,0,1-.159,2.371c-.76-1.489-1.98-3.13-3.567-3.467-2.481-.527-.989-.507.107-.492.17,0,.331,0,.466,0,1,0,1.433-.488.286-1.1C1.949,10.744.573,8.1,0,6.846.621,8.1,2.436,10.622,4.729,10.622c.716,0,1.29-.609.86-1.827C5.206,7.712,6.408,3.072,8.792,0Z" transform="translate(9.686 62.272)" fill="#ba0024"/>
            <path id="Vector-106" data-name="Vector" d="M0,5.666,1,0,8.1,1.478a21.924,21.924,0,0,0,.249,5.789c.4,2.759,1.578,4.229,2.242,4.68Z" transform="translate(26.043 27.421)" fill="#febe9d"/>
            <path id="Vector-107" data-name="Vector" d="M0,0,6.955,1.474a16.4,16.4,0,0,0,.018,3.808C2.008,4.692.256,1.515,0,0Z" transform="translate(27.101 27.42)" fill="#f2ad8a"/>
            <path id="Vector-108" data-name="Vector" d="M.037,3.982C-.224,2.284.95,1.92,1.994,1.435A2.937,2.937,0,0,0,3.69,0a12.332,12.332,0,0,0,6.524.529c.131,1.717.418,5.684.522,7.819.131,2.668,1.044,6.913-1.957,5.458s-3.914-1.577-5.35-1.213-2.479,0-2.61-2.3A36.438,36.438,0,0,0,.037,3.982Z" transform="translate(23.113 48.181)" fill="#8cb9ff"/>
            <path id="Vector-109" data-name="Vector" d="M3.178,12.661a10.55,10.55,0,0,1-.811-5.03C2.626,4.594,3.4,2.166,4.309,4.473A15.024,15.024,0,0,1,5.215,9.33C5.733,9.047,6.794,7.849,6.9,5.323c.129-3.157.259-3.036.647-1.214s.518,2.064.906,0c.052-.276.095-.526.133-.752.246-1.439.33-1.932,1.6-2.149-.019-.251-.035-.479-.05-.677A12.129,12.129,0,0,1,3.661,0,2.921,2.921,0,0,1,1.978,1.437l-.261.12C.759,1.993-.2,2.429.037,3.987A36.83,36.83,0,0,1,.813,10.3C.936,12.486,1.871,12.929,3.178,12.661Z" transform="translate(23.113 48.181)" fill="#7eaefa"/>
            <path id="Vector-110" data-name="Vector" d="M.291,5.092C.783,4.061,1.642,2.642,2.5,2.4a3.674,3.674,0,0,0,1.946-.968c.389-.363.779-.121.908.363s.519,0,.908-.484,1.168-.121,1.3.242c.046.13.209.043.487-.105A3.909,3.909,0,0,1,10.185.89L10.158.528A12.22,12.22,0,0,1,3.67,0,2.924,2.924,0,0,1,1.983,1.433l-.261.119C.76,1.987-.2,2.421.037,3.975A5,5,0,0,1,.291,5.092Z" transform="translate(23.113 48.181)" fill="#70a2f2" opacity="0.5"/>
            <path id="Vector-111" data-name="Vector" d="M12.915,24.286c-4.728-.585-8.51-4.646-9.768-6.515C.632,18.381.129,18.015,0,16.308s3.144-2.56,3.773-5.364A14.705,14.705,0,0,1,12.579.46C18.615-1.978,23.771,5.946,23.9,8.385s-.25,8.239-1.761,11.581C20.537,23.5,18.826,25.018,12.915,24.286Z" transform="translate(19.69 6.463)" fill="#febe9d"/>
            <path id="Vector-112" data-name="Vector" d="M13.974,1.077c-2.5.608-3.088.624-3.213-1.077-2.376.486-7.5,2.257-9,5.453-1.876,3.994,0,4.632,1.25,5.239s.625,2.308-1,2.551-1.75-.972-1.876-1.7c-.75,3.28,1.876,3.28,3,2.794-.75,1.944-.5,3.4,1.25,3.888s0,2.308,0,4.009,1.876,2.673,2,3.888S8.01,27.945,9.51,28.431s.875,1.094.25,2.187.375,1.944.5,3.4,1.125,1.579,2.376,1.823c-1.25-2.065-.5-2.794.25-3.4l.023-.019a2.456,2.456,0,0,0,1.1-2.776c-.25-1.7.875-2.065,1.876-2.552s2.376-1.215,1.375-3.4,2.126-3.645,2.876-5.832-1-4.86-1.75-5.832a16.123,16.123,0,0,1-1.75-3.038c-.25-.607,0-.607.125-.486.625.608.75.121.875-.486.1-.486.208-1.913.25-2.566A16.522,16.522,0,0,1,13.974,1.077Z" transform="translate(9.105 22.915)" fill="#2b2b39"/>
            <path id="Vector-113" data-name="Vector" d="M0,3.159V1.587C3.108,1.807,4.883,1.236,6.152,0c2.58,3.038.3,5.711-.079,6.318A4.136,4.136,0,0,0,3.447,4.982c-.375,0-.75.121-1.125-.486s-.5-1.337-1.25-1.823C.471,2.284.107,2.835,0,3.159Z" transform="translate(33.922 29.233)" fill="#2b2b39"/>
            <path id="Vector-114" data-name="Vector" d="M0,0A3.252,3.252,0,0,1,1.2,3.917" transform="translate(19.692 29.575)" fill="none" stroke="#151523" stroke-width="0.8"/>
            <path id="Vector-115" data-name="Vector" d="M0,0C1.615,1.244,4.469,4.334,2.961,6.742,1.077,9.752.673,10.835.673,13.122" transform="translate(23.078 30.946)" fill="none" stroke="#151523" stroke-width="0.8"/>
            <path id="Vector-116" data-name="Vector" d="M0,10.381c.862-.362,2.3-1.859,1.165-4.949S1.466.523,2.329,0" transform="translate(19.902 35.451)" fill="none" stroke="#151523" stroke-width="0.8"/>
            <path id="Vector-117" data-name="Vector" d="M1.377,0c-1.039,1-2.493,3.224,0,4.091C4.493,5.173,5.241,6.256,4.244,8.422" transform="translate(14.186 36.626)" fill="none" stroke="#151523" stroke-width="0.8"/>
            <path id="Vector-118" data-name="Vector" d="M0,0A2.388,2.388,0,0,1,0,2.742" transform="translate(15.032 42.697)" fill="none" stroke="#151523" stroke-width="0.8"/>
            <path id="Vector-119" data-name="Vector" d="M.53,0A1.794,1.794,0,0,0,.673,2.68c1.433,1.462,1.29,2.314.573,3.289" transform="translate(12.88 29.407)" fill="none" stroke="#151523" stroke-width="0.8"/>
            <path id="Vector-120" data-name="Vector" d="M3.777.2A17.333,17.333,0,0,0,2.228,2.656a7.364,7.364,0,0,0-.8,2.373,2.516,2.516,0,0,0,.492,1.986l.319.376A13.385,13.385,0,0,1,3.273,8.7a1.862,1.862,0,0,1,.379,1.416,2.942,2.942,0,0,1-1.227,1.565A16.332,16.332,0,0,1,.144,13.1q-.079.185-.144.363a17.755,17.755,0,0,0,2.617-1.6,3.169,3.169,0,0,0,1.316-1.7,2.071,2.071,0,0,0-.409-1.576A13.722,13.722,0,0,0,2.466,7.241h0l-.312-.368a2.3,2.3,0,0,1-.44-1.82,7.152,7.152,0,0,1,.777-2.3A17.731,17.731,0,0,1,4.272,0Q4.024.1,3.777.2Z" transform="translate(12.52 24.169)" fill="#1c1c2a" opacity="0.5"/>
            <path id="Vector-121" data-name="Vector" d="M.381,0A9.281,9.281,0,0,0,.015,3.141,6.764,6.764,0,0,0,2.008,7.693C3.7,9.337,4.291,10.5,4.291,11.5a5.328,5.328,0,0,1-1.418,3,5.313,5.313,0,0,0-1.246,3.529,8.772,8.772,0,0,0,1.53,4.076,3.986,3.986,0,0,0-.308-.935,2.278,2.278,0,0,1-.124-.338,7.065,7.065,0,0,1-.848-2.815,5.075,5.075,0,0,1,1.2-3.375A5.545,5.545,0,0,0,4.542,11.5c0-1.1-.658-2.326-2.357-3.981A6.522,6.522,0,0,1,.265,3.127,9.064,9.064,0,0,1,.577.224Q.476.11.381,0Z" transform="translate(23.618 25.43)" fill="#1c1c2a" opacity="0.5"/>
            <path id="Vector-122" data-name="Vector" d="M7.317,34.275a4.736,4.736,0,0,1-.667-1,3.188,3.188,0,0,1-.025-2.922,5,5,0,0,0,.186-3.463c-.028-.14-.056-.278-.082-.415a4.337,4.337,0,0,1-.059-1.7,3.216,3.216,0,0,1,1.057-1.717,2.857,2.857,0,0,0,.989-1.968,7.264,7.264,0,0,0-.162-1.753c-.018-.1-.036-.208-.053-.313a5.977,5.977,0,0,1-.05-2.2,4.781,4.781,0,0,1,1.411-2.446l0,0,0,0a2.691,2.691,0,0,0,.367-2.65A5.886,5.886,0,0,0,8.18,9.011c.3-.567.5-1.92-.556-3.7A7.009,7.009,0,0,1,6.465,2.164,3.726,3.726,0,0,1,7.03.03,1.937,1.937,0,0,1,6.76,0a3.933,3.933,0,0,0-.545,2.175A7.233,7.233,0,0,0,7.407,5.438c1.068,1.8.776,3.094.518,3.518a8.6,8.6,0,0,0-2.616,2.8,5.8,5.8,0,0,0-.627,4.554l-.128-.052C2.877,15.6,2.305,14.83,2.248,14.1a3.273,3.273,0,0,1,.975-2.174A7.874,7.874,0,0,0,4.831,9.1a3.25,3.25,0,0,0-.991-3.45,3.292,3.292,0,0,1-1.015-2.8A5.827,5.827,0,0,1,3.61.429L3.394.3a6.069,6.069,0,0,0-.82,2.531,3.533,3.533,0,0,0,1.092,3,3.011,3.011,0,0,1,.921,3.21,7.64,7.64,0,0,1-1.559,2.734A3.5,3.5,0,0,0,2,14.124c.068.863.75,1.686,2.46,2.364q.2.078.368.161a2.5,2.5,0,0,1,1.168.968,1.479,1.479,0,0,1,.128,1.076,6.382,6.382,0,0,1-1.34,2.262l-.07.088c-.107.135-.211.265-.307.39a3.2,3.2,0,0,0-.825,2.031,3.145,3.145,0,0,0,.479,1.479,7.388,7.388,0,0,1-1.148-1.015A2.642,2.642,0,0,1,2.157,22a3.088,3.088,0,0,1,.329-1.176,6.228,6.228,0,0,0,.567-1.567,1.68,1.68,0,0,0-.165-1.206,1.93,1.93,0,0,0-1.11-.763A7.261,7.261,0,0,0,0,17a.73.73,0,0,1,.116.253,6.739,6.739,0,0,1,1.583.266,1.687,1.687,0,0,1,.975.657,1.444,1.444,0,0,1,.133,1.039,6,6,0,0,1-.546,1.5,3.331,3.331,0,0,0-.353,1.256c-.132.532-.327,1.383-.491,2.225-.019.1-.037.194-.055.291q.005.034.009.068a1.519,1.519,0,0,0,.145.51c.043-.264.094-.542.148-.823.1-.519.214-1.041.316-1.49a3.221,3.221,0,0,0,.741,1.329,9.761,9.761,0,0,0,1.711,1.428l.178-.166a3.608,3.608,0,0,1-.778-1.89,2.967,2.967,0,0,1,.774-1.879l.125-.16a10.013,10.013,0,0,0,.07,1.564,6.331,6.331,0,0,0,.724,2.372,2.117,2.117,0,0,1-.141,2.078v0a.616.616,0,0,1,.009.482c.077-.121.149-.246.216-.373a2.351,2.351,0,0,0,.135-2.309,6.1,6.1,0,0,1-.693-2.281A9.324,9.324,0,0,1,5,21.077a6.5,6.5,0,0,0,1.364-2.332A1.718,1.718,0,0,0,6.215,17.5a2.7,2.7,0,0,0-1.23-1.047,5.54,5.54,0,0,1,.542-4.574A8.382,8.382,0,0,1,8.012,9.194,5.65,5.65,0,0,1,10,11.8a2.456,2.456,0,0,1-.319,2.417,5.02,5.02,0,0,0-1.473,2.565,6.2,6.2,0,0,0,.048,2.286q.027.162.054.32a7.01,7.01,0,0,1,.158,1.689,2.617,2.617,0,0,1-.912,1.809,3.456,3.456,0,0,0-1.13,1.845,4.571,4.571,0,0,0,.058,1.793c.026.141.054.281.083.422A4.758,4.758,0,0,1,6.4,30.253a3.426,3.426,0,0,0,.025,3.133,4.812,4.812,0,0,0,.508.811C7.056,34.224,7.185,34.249,7.317,34.275Z" transform="translate(14.186 24.482)" fill="#1c1c2a" opacity="0.5"/>
            <path id="Vector-123" data-name="Vector" d="M0,5.512c1.241-.836,2.557-1.463,2.885-.757.623,1.341,1.869.488,2.243-.488s.5-.731,1.121.731c.267.626.442.314.683-.114.321-.572.758-1.35,1.685-.374.781.823,1.5,0,2.182-.767.73-.828,1.408-1.6,2.054-.208a23.1,23.1,0,0,1,1.015,2.792,16.878,16.878,0,0,0,.886,2.41c-.067-.321.116-.3.217-.2.623.609.748.122.872-.488.1-.488.208-1.92.249-2.575a17.422,17.422,0,0,1-4.023-4.394c-2.492.61-2.954.63-3.079-1.077C6.622.488,1.514,2.265.019,5.471Z" transform="translate(11.01 22.915)" fill="#1c1c2a"/>
            <path id="Vector-124" data-name="Vector" d="M.107.551c-.25-.609,0-.609.125-.488C.515.339.7.391.82.307,1.667,1.12,3.61,2.94,4.611,3.72A18.265,18.265,0,0,0,9.366,5.67,10.133,10.133,0,0,1,8.294,1.039C8.4.714,8.765.161,9.366.551c.751.487.876,1.219,1.251,1.828s.751.488,1.126.488a4.135,4.135,0,0,1,2.628,1.341,4.817,4.817,0,0,0,1.5.731A2.373,2.373,0,0,1,17.5,7.62c-.375,1.219-1.877,2.438-2.627,3.778s-1.877,5.363-5.756,6.094c-.676.127-1.3.23-1.877.308a11.318,11.318,0,0,1-6.256-.532,2.619,2.619,0,0,0-.25-1.97c-1-2.194,2.127-3.656,2.878-5.85s-1-4.875-1.752-5.85A16.174,16.174,0,0,1,.107.551Z" transform="translate(25.619 31.37)" fill="#8cb9ff"/>
            <path id="Vector-125" data-name="Vector" d="M0,3.916A5.82,5.82,0,0,0,3.818,6.446c2.56.243,2.926-2.064,2.682-3.156-1.1.85-3.048,1.578-2.926-.121.017-.237.036-.462.055-.676A4.786,4.786,0,0,0,3.482.079c-.53-.275-.853.234-.952.54A10.28,10.28,0,0,0,3.574,5.232,25.089,25.089,0,0,1,0,3.916Z" transform="translate(31.335 31.729)" fill="#7eaefa"/>
            <path id="Vector-126" data-name="Vector" d="M1.588,12.773c-.363-.094-.72-.2-1.077-.333a2.323,2.323,0,0,0-.286-1.969c-.7-1.343.37-2.412,1.5-3.542a7.433,7.433,0,0,0,1.792-2.3C4.13,3.067,3.3,1.263,2.452,0A37.681,37.681,0,0,0,6.385,1.944c1.863.731,1.433,2.071-1,.853-1-.487-1,1.1,1,1.949s5.732.731,7.021-2.193S16.272,0,15.269,2.8,12.26,8.644,10.684,9.618a7.629,7.629,0,0,1-2.99.733,8.064,8.064,0,0,0-3.315.85C3.061,12.043,2.69,12.727,2.662,13c-.225-.036-.447-.078-.665-.126Z" transform="translate(28.662 36.112)" fill="#7eaefa"/>
            <path id="Vector-127" data-name="Vector" d="M.54,7.834A2.916,2.916,0,0,0,.2,6.212c-.628-1.339.331-2.4,1.345-3.531a7.362,7.362,0,0,0,1.6-2.3A3.2,3.2,0,0,0,3.258,0l1.43,1.355c.9.85,3.975.971,5.513.607-1.026.607-2.308.728-4.744.364s-3.205.729-1.8,1.457,5.513-.364,6.924-1.336C9.309,4.535,6.876,4.833,5.1,5.051c-.186.023-.365.045-.535.068a8.813,8.813,0,0,1-1.928-.034C1.483,4.979.591,4.9.842,5.847A2.1,2.1,0,0,1,.54,7.834Z" transform="translate(26.043 40.347)" fill="#70a2f2" opacity="0.5"/>
            <path id="Vector-128" data-name="Vector" d="M18.282,11.751a3.4,3.4,0,0,1,4.336-2.56c.619.116.124-1.341,2.23-1.585a4.257,4.257,0,0,1,4.089,2.072,11.123,11.123,0,0,0,2.106,2.8A10.683,10.683,0,0,0,33.521,15.9c0,.366.143,2.789.143,3.886,2.106-1.585,1.22-3.032,1.715-4.373a1.89,1.89,0,0,0-.124-1.95,9.386,9.386,0,0,0-.124-2.56,1.469,1.469,0,0,0-1.487-.975,1.221,1.221,0,0,0-.372-1.463,5.071,5.071,0,0,1-1.239-1.828,9.485,9.485,0,0,0-3.345-2.926c-.867-.366-.867-.975-1.115-1.219C24.353-.316,21.5.9,20.884,1.147a1.319,1.319,0,0,1-1.239-.122c-4.832-2.926-7.93,1.219-8.8,2.438-5.2,2.194-7.062,5-6.69,8.9s-.743,5.363-1.611,6.217-.62,1.707.124,2.682c1.363,1.95-.991,2.194-1.858,2.682S.565,25.77.193,26.379a2.46,2.46,0,0,0,.743,2.8c1.487-2.8,5.7-4.022,8.053-4.51s4.584-3.779,6.319-5.242S17.291,15.287,18.282,11.751Z" transform="translate(9.74 0)" fill="#2b2b39"/>
            <path id="Vector-129" data-name="Vector" d="M14.39,18.526a28.149,28.149,0,0,1,1.967-9.151A7.245,7.245,0,0,1,19.3,5.78a4.814,4.814,0,0,1,4.572.25,2.122,2.122,0,0,1-.137.518c.089-.024.185-.046.288-.064a2.328,2.328,0,0,0,.106-.513,2.732,2.732,0,0,0-.756-2.037,18.175,18.175,0,0,0-1.963-1.919c-.187-.164-.367-.322-.537-.477A5.674,5.674,0,0,1,19.635.087,1.247,1.247,0,0,1,19.315,0a4.393,4.393,0,0,0,.877,1.225A9.091,9.091,0,0,0,18.066.671,5.29,5.29,0,0,0,13.352,2.1,20.371,20.371,0,0,0,9.876,7.877a51.7,51.7,0,0,0-2.152,6.211A14.221,14.221,0,0,1,5.288,19.01,7.024,7.024,0,0,1,2.4,21.264a.858.858,0,0,1-.1.3,7.134,7.134,0,0,0,3.181-2.4,14.461,14.461,0,0,0,2.48-5.006,51.5,51.5,0,0,1,2.142-6.182,20.14,20.14,0,0,1,3.431-5.7A4.814,4.814,0,0,1,17.44.858a11.305,11.305,0,0,0-5.22,4.305,24.95,24.95,0,0,0-2.529,6.923l-.054.2c-.7,2.647-1.413,5.255-2.642,7a7.766,7.766,0,0,1-3.661,2.736,9.674,9.674,0,0,1-2.943.619,2.618,2.618,0,0,0-.263.125A.944.944,0,0,0,0,22.854v.037a9.55,9.55,0,0,0,3.424-.638A8.013,8.013,0,0,0,7.2,19.428c1.26-1.788,1.98-4.443,2.678-7.077l.047-.179a24.859,24.859,0,0,1,2.5-6.877A10.69,10.69,0,0,1,18.056.916a8.837,8.837,0,0,1,2.171.587,5.666,5.666,0,0,0-5.033,3.683c-.366.955-.857,2.518-1.435,4.355l-.044.139c-.6,1.9-1.285,4.083-2.023,6.2a54.066,54.066,0,0,1-2.322,5.776A15.974,15.974,0,0,1,8.327,23.5l.015,0a3.389,3.389,0,0,0,.341-.09A17.322,17.322,0,0,0,9.6,21.76a54.291,54.291,0,0,0,2.333-5.8c.74-2.118,1.429-4.3,2.025-6.2L14,9.622c.58-1.844,1.069-3.4,1.432-4.35a5.432,5.432,0,0,1,5.307-3.527c.166.15.339.3.516.458A17.841,17.841,0,0,1,23.18,4.089a2.587,2.587,0,0,1,.707,1.677,5.019,5.019,0,0,0-4.707-.2,7.48,7.48,0,0,0-3.051,3.71,28.716,28.716,0,0,0-2,9.5Q14.259,18.646,14.39,18.526Z" transform="translate(10.375 1.176)" fill="#1c1c2a" opacity="0.5"/>
            <path id="Vector-130" data-name="Vector" d="M.123,18.092A5,5,0,0,0,2.967,14.8a20.4,20.4,0,0,0,.8-3.052c.084-.423.162-.847.24-1.267.118-.64.235-1.272.367-1.878A37.126,37.126,0,0,1,7.95,0q-.189.081-.372.163A36.633,36.633,0,0,0,4.128,8.556C4,9.165,3.878,9.8,3.759,10.448c-.078.42-.156.841-.238,1.258a20.194,20.194,0,0,1-.788,3.016A4.738,4.738,0,0,1,0,17.876Q.07,17.988.123,18.092Z" transform="translate(12.476 3.548)" fill="#1c1c2a" opacity="0.5"/>
            <path id="Vector-131" data-name="Vector" d="M.009.245C.19.259.372.268.553.274c.367.01.734,0,1.087-.015.01-.082.021-.164.035-.246C1.314.033.936.041.56.03.371.025.184.015,0,0,0,.062,0,.145.009.245Z" transform="translate(43.263 15.978)" fill="#3a0a44"/>
            <path id="Vector-132" data-name="Vector" d="M.259.41a9.06,9.06,0,0,0,4.211.925.82.82,0,0,0-.14-.2V1.121l0-.025A8.864,8.864,0,0,1,0,0Q.076.07.156.139C.186.229.221.319.259.41Z" transform="translate(40.626 12.344)" fill="#3a0a44"/>
            <path id="Vector-133" data-name="Vector" d="M0,1.166C.557.538,2.291-.39,5.137.175a2.022,2.022,0,0,0,.168.284C2.4-.185.685.764.186,1.327Z" transform="translate(32.394 2.742)" fill="#1c1c2a" opacity="0.5"/>
            <path id="Vector-134" data-name="Vector" d="M8.436,4.866A1.309,1.309,0,0,0,9.38,4.69a1.367,1.367,0,0,1-.056.17,1.953,1.953,0,0,1,.225.013,1.563,1.563,0,0,1-1.158.232A3.325,3.325,0,0,1,6.8,4.156a17.418,17.418,0,0,1-2.071-2.61c-.161-.232-.31-.447-.444-.632A1.98,1.98,0,0,0,2.258.285a6.365,6.365,0,0,0-2.131.784L0,.861A6.614,6.614,0,0,1,2.221.044,2.225,2.225,0,0,1,4.485.773c.14.193.293.414.457.65A17.062,17.062,0,0,0,6.971,3.981,3.091,3.091,0,0,0,8.436,4.866Z" transform="translate(34.027 5.093)" fill="#1c1c2a" opacity="0.5"/>
            <path id="Vector-135" data-name="Vector" d="M0,.08A5.053,5.053,0,0,1,2.358.2" transform="translate(33.664 1.763)" fill="none" stroke="#151523" stroke-width="0.8"/>
            <path id="Vector-136" data-name="Vector" d="M1.361,4.831a2.848,2.848,0,0,1,4.1.614A18.794,18.794,0,0,0,8.932,8.881M3.1,7.286c1.117.286,3.525,1.251,4.22,2.822.869,1.963,2.482,3.19,3.724,3.068M10.049,14.4a1.128,1.128,0,0,0,1.489.491" transform="translate(32.924 -0.535)" fill="none" stroke="#151523" stroke-width="0.8"/>
            <path id="Vector-137" data-name="Vector" d="M18.916.02c-2.184-.163-6.8.585-7.788,4.877a82.168,82.168,0,0,1-4.08,11.948" transform="translate(9.081 1.176)" fill="none" stroke="#151523" stroke-width="0.8"/>
            <path id="Vector-138" data-name="Vector" d="M18.42,6.727c-1.648-.041-5.291,1.17-6.676,6.34M11.373,8.8a44.822,44.822,0,0,0-3.709,8.9C6.8,21.357,6.181,25.99,0,26.966m1.236-6.218A8.906,8.906,0,0,0,2.6,15.383c-.371-2.682.124-5.243,2.349-6.706" transform="translate(12.915 -2.483)" fill="none" stroke="#151523" stroke-width="0.8"/>
          </g>
        </g>
      </g>
      <g id="Avater-4" data-name="Avater" transform="translate(805.659 285.49)">
        <path id="Vector-139" data-name="Vector" d="M0,42.771A42.771,42.771,0,1,0,42.77,0,42.771,42.771,0,0,0,0,42.771Z" transform="translate(18.912 18.121)" fill="#fff"/>
        <path id="Vector-140" data-name="Vector" d="M13.508,10.328c-4.342,9-11.8,3.633-13.508,0C3.4,10.327,2.308,3.442,1.82,0H11.853A23.451,23.451,0,0,0,13.508,10.328Z" transform="translate(56.317 22.469)" fill="#fcc4ac"/>
        <path id="Vector-141" data-name="Vector" d="M13.508,10.328c-4.342,9-11.8,3.633-13.508,0C3.4,10.327,2.308,3.442,1.82,0H11.853A23.451,23.451,0,0,0,13.508,10.328Z" transform="translate(56.317 22.469)" fill="url(#linear-gradient-2)"/>
        <path id="Vector-142" data-name="Vector" d="M4.676,4.834C4.625,19.55.605,58.468.009,64.525c-.314,3.2,7.506,6,16.263,6.631,11.376.814,20.892-3.023,22.945-4.772.566-17.491,1.463-55.671,1.463-58.915A78.5,78.5,0,0,0,27.5.4C21.9,3.875,17.889,2.688,15.256,0,11.3.739,6.523,3.708,4.676,4.834Z" transform="translate(42.321 32.397)" fill="#307fe2"/>
        <path id="Vector-143" data-name="Vector" d="M4.676,4.834C4.625,19.55.605,58.468.009,64.525c-.314,3.2,7.506,6,16.263,6.631,11.376.814,20.892-3.023,22.945-4.772.566-17.491,1.463-55.671,1.463-58.915A78.5,78.5,0,0,0,27.5.4C21.9,3.875,17.889,2.688,15.256,0,11.3.739,6.523,3.708,4.676,4.834Z" transform="translate(42.321 32.397)" fill="url(#linear-gradient-3)"/>
        <path id="Vector-144" data-name="Vector" d="M4.676,4.834C4.625,19.55.605,58.468.009,64.525c-.314,3.2,7.506,6,16.263,6.631,11.376.814,20.892-3.023,22.945-4.772.566-17.491,1.463-55.671,1.463-58.915A78.5,78.5,0,0,0,27.5.4C21.9,3.875,17.889,2.688,15.256,0,11.3.739,6.523,3.708,4.676,4.834Z" transform="translate(42.321 32.397)" fill="#d42941"/>
        <path id="Vector-145" data-name="Vector" d="M6.447.045,6.648,0a81.716,81.716,0,0,1,.888,9.132C7.7,13.4,7.469,17.837,6.35,20.977c-1.379,3.879-1.379,8.59-1.032,12.975.146,1.875.358,3.687.553,5.348h0v.006c.033.278.065.552.095.822a45.945,45.945,0,0,1,.393,4.8v.815a21.992,21.992,0,0,1-.585,6.285C5.1,54.533,3.655,57.469.6,61.759a3.033,3.033,0,0,0-.341,2.192,11.663,11.663,0,0,0,.91,2.935,27.991,27.991,0,0,0,1.793,3.383l-.271-.054A27.709,27.709,0,0,1,.981,66.968,11.981,11.981,0,0,1,.055,63.98a3.247,3.247,0,0,1,.377-2.338h0c3.05-4.28,4.477-7.194,5.144-9.666a21.905,21.905,0,0,0,.58-6.231h0c0-.266,0-.537,0-.814a45.812,45.812,0,0,0-.39-4.778c-.03-.27-.062-.545-.095-.825v0h0c-.2-1.66-.406-3.477-.555-5.356-.347-4.39-.347-9.138,1.046-13.059C7.26,17.807,7.493,13.4,7.33,9.14A80.585,80.585,0,0,0,6.447.045Z" transform="translate(50.571 32.469)" fill="#fff" opacity="0.35"/>
        <path id="Vector-146" data-name="Vector" d="M.77,64.12c.1.067.2.134.3.2a11.3,11.3,0,0,1-.815-2.712A3.046,3.046,0,0,1,.6,59.417c3.055-4.29,4.5-7.227,5.176-9.731A22.187,22.187,0,0,0,6.361,43.4v0c0-.265,0-.535,0-.81a45.846,45.846,0,0,0-.39-4.8q-.049-.4-.1-.822v-.006h0c-.2-1.661-.406-3.473-.553-5.348-.347-4.385-.347-9.1,1.035-12.975,1.116-3.14,1.346-7.58,1.184-11.845C7.444,4.388,7.23,2.038,6.976,0L6.783.106c.249,2.013.458,4.327.547,6.69.163,4.26-.07,8.667-1.173,11.769-1.392,3.922-1.392,8.669-1.046,13.059.149,1.879.36,3.7.555,5.356h0v0q.049.419.1.825a45.71,45.71,0,0,1,.387,4.778c0,.277,0,.547,0,.813v0a22,22,0,0,1-.577,6.231C4.909,52.1,3.481,55.018.431,59.3h0a3.247,3.247,0,0,0-.376,2.338A11,11,0,0,0,.77,64.12Z" transform="translate(43.192 35.371)" fill="#fff" opacity="0.35"/>
        <path id="Vector-147" data-name="Vector" d="M2.4,69.085A26.916,26.916,0,0,1,.98,66.324a11.856,11.856,0,0,1-.924-2.988A3.234,3.234,0,0,1,.43,61h0c3.05-4.281,4.48-7.195,5.146-9.666A22,22,0,0,0,6.154,45.1h0c0-.266,0-.537,0-.814a45.705,45.705,0,0,0-.387-4.778q-.049-.407-.1-.827h0c-.192-1.66-.406-3.477-.553-5.356-.347-4.39-.349-9.138,1.046-13.06,1.1-3.1,1.333-7.508,1.173-11.768A81.42,81.42,0,0,0,6.544.04c.068-.012.135-.026.2-.04a81.193,81.193,0,0,1,.791,8.488c.163,4.265-.068,8.705-1.184,11.845-1.379,3.879-1.381,8.59-1.035,12.975.149,1.875.36,3.687.553,5.348h0q.049.421.1.828a45.846,45.846,0,0,1,.39,4.8c0,.277,0,.548,0,.815a22.188,22.188,0,0,1-.585,6.285C5.1,53.889,3.656,56.826.6,61.116a3.046,3.046,0,0,0-.341,2.192,11.893,11.893,0,0,0,.91,2.935,27.221,27.221,0,0,0,1.484,2.868Z" transform="translate(58.505 34.742)" fill="#fff" opacity="0.35"/>
        <path id="Vector-148" data-name="Vector" d="M2.72,70.074A27.7,27.7,0,0,1,.981,66.779a11.982,11.982,0,0,1-.926-2.988,3.247,3.247,0,0,1,.377-2.338h0c3.05-4.281,4.477-7.195,5.146-9.666a22,22,0,0,0,.577-6.231c0-.267,0-.538,0-.815a45.7,45.7,0,0,0-.387-4.778q-.049-.406-.1-.827h0c-.192-1.66-.406-3.477-.553-5.356-.349-4.39-.349-9.138,1.046-13.06,1.1-3.1,1.333-7.508,1.173-11.768A81.972,81.972,0,0,0,6.472,0l.222.106a81.825,81.825,0,0,1,.842,8.837c.163,4.265-.068,8.705-1.184,11.845-1.379,3.879-1.381,8.59-1.035,12.975.149,1.875.36,3.688.553,5.348v0q.049.419.1.824a45.845,45.845,0,0,1,.39,4.8c0,.277,0,.547,0,.814h0a22.188,22.188,0,0,1-.585,6.285C5.1,54.344,3.657,57.28.6,61.57a3.046,3.046,0,0,0-.341,2.192,11.894,11.894,0,0,0,.91,2.935,28,28,0,0,0,1.793,3.38Z" transform="translate(66.657 34.287)" fill="#fff" opacity="0.35"/>
        <path id="Vector-149" data-name="Vector" d="M2.472,64.6A27.328,27.328,0,0,1,.98,61.714a11.856,11.856,0,0,1-.924-2.988A3.247,3.247,0,0,1,.43,56.387h0c3.05-4.281,4.477-7.195,5.144-9.666a22.006,22.006,0,0,0,.58-6.231c0-.267,0-.538,0-.815a45.808,45.808,0,0,0-.39-4.778c-.033-.271-.062-.546-.095-.826h0c-.2-1.661-.406-3.477-.555-5.356-.347-4.39-.349-9.138,1.046-13.06,1.1-3.1,1.335-7.508,1.173-11.768C7.28,2.56,7.193,1.25,7.08,0c.076.05.146.1.219.149.106,1.2.19,2.459.236,3.729.163,4.265-.068,8.705-1.184,11.845C4.972,19.6,4.97,24.312,5.316,28.7c.149,1.875.36,3.688.555,5.348.033.28.062.556.095.828a45.846,45.846,0,0,1,.39,4.8c0,.277,0,.548,0,.814a22.189,22.189,0,0,1-.585,6.285C5.1,49.279,3.656,52.215.6,56.505A3.047,3.047,0,0,0,.259,58.7a11.667,11.667,0,0,0,.91,2.935,26.894,26.894,0,0,0,1.52,2.932Z" transform="translate(75.178 39.352)" fill="#fff" opacity="0.35"/>
        <path id="Vector-150" data-name="Vector" d="M.06,0c-.135,3.083,0,10.616,0,16.134,0,9.327,13.979,2.095,16.116-1.662C20.386,7.072,15.732.4,14.844,0Z" transform="translate(51.994 7.997)" fill="url(#linear-gradient-4)"/>
        <path id="Vector-151" data-name="Vector" d="M.06,0c-.135,3.083,0,10.616,0,16.134,0,9.327,13.979,2.095,16.116-1.662C20.386,7.072,15.732.4,14.844,0Z" transform="translate(51.994 7.997)" fill="#fcc4ac"/>
        <path id="Vector-152" data-name="Vector" d="M19.892,5.278c3.055-.58,2.608,1.894,2.432,2.3,7.3,2.011-1.574,16.756-2.663,17.063l-.008-2.751c-.011-1.1,2.134-2.214.962-4.141-1.557-2.558-1.9,2.468-1.9,2.468-1.105-.582-1.506-4.753-.477-7.113-3.613,1.594-5.983-1.375-6.441-2.224-2.549,1.482-6.455.887-7.712-.333a13.246,13.246,0,0,0-.6,4.167C.577,13.141-.926,7.347.615,7.876.417-3.661,10.6.487,11.8,1.858s1.484.987,1.641.884c4.29-2.094,6.376-.019,5.975,1.3S19.773,5.3,19.892,5.278Z" transform="translate(48.5 0)"/>
        <path id="Vector-153" data-name="Vector" d="M8.053,1.994C5.868,2.189,3.971.885,4.4.738c5.683-1.972,13.323.484,17.74,1.839,1.55,3.132-1.023,6.6-2.5,7.947a6,6,0,0,0-3.3-1.727c-5.141-.283-10.088,7.094-15.116,3.422C-2.8,9.282,4.1,4.179,8.053,1.994Z" transform="translate(0 54.875)" fill="#f4b88e"/>
        <path id="Vector-154" data-name="Vector" d="M8.053,1.994C5.868,2.189,3.971.885,4.4.738c5.683-1.972,13.323.484,17.74,1.839,1.55,3.132-1.023,6.6-2.5,7.947a6,6,0,0,0-3.3-1.727c-5.141-.283-10.088,7.094-15.116,3.422C-2.8,9.282,4.1,4.179,8.053,1.994Z" transform="translate(0 54.875)" fill="#fcc4ac"/>
        <path id="Vector-155" data-name="Vector" d="M30.563,0C31.1,9.867,29.48,26.861,28.25,35.509,26.95,38.767-.721,28.62.014,26.658S2.591,21.821,3.5,19.512c.624-1.585,16.551,5.88,17.139,3.2S21.683,4.99,30.563,0Z" transform="translate(16.433 37.229)" fill="#307fe2"/>
        <path id="Vector-156" data-name="Vector" d="M30.563,0C31.1,9.867,29.48,26.861,28.25,35.509,26.95,38.767-.721,28.62.014,26.658S2.591,21.821,3.5,19.512c.624-1.585,16.551,5.88,17.139,3.2S21.683,4.99,30.563,0Z" transform="translate(16.433 37.229)" fill="url(#linear-gradient-5)"/>
        <path id="Vector-157" data-name="Vector" d="M30.563,0C31.1,9.867,29.48,26.861,28.25,35.509,26.95,38.767-.721,28.62.014,26.658S2.591,21.821,3.5,19.512c.624-1.585,16.551,5.88,17.139,3.2S21.683,4.99,30.563,0Z" transform="translate(16.433 37.229)" fill="#d42941"/>
        <path id="Vector-158" data-name="Vector" d="M28.4,0a41.773,41.773,0,0,0-1.65,18.962,23.924,23.924,0,0,1,.3,7.591,6.271,6.271,0,0,1-3.446,4.78,2.577,2.577,0,0,1-2.205.072,12.057,12.057,0,0,1-1.732-.873c-.223-.127-.453-.258-.693-.389a8.767,8.767,0,0,0-7.417-.887,8.849,8.849,0,0,1-7.3-1.337A11.855,11.855,0,0,1,.185,23.862L0,23.95a12.039,12.039,0,0,0,4.15,4.143,9.053,9.053,0,0,0,7.47,1.359,8.563,8.563,0,0,1,7.259.871c.231.126.456.254.676.379a12.4,12.4,0,0,0,1.777.895,2.781,2.781,0,0,0,2.369-.083,6.466,6.466,0,0,0,3.553-4.925,24.077,24.077,0,0,0-.3-7.659A41.58,41.58,0,0,1,28.591.071ZM24.156,5.963c.065-.346.125-.664.178-.951l-.2-.037c-.052.285-.112.6-.177.948C23.6,7.79,23.1,10.466,22.834,13.2c-.314,3.24-.295,6.591.727,8.8,1.2,2.591.715,4.383-.367,5.267a3.4,3.4,0,0,1-4.2-.16,7.363,7.363,0,0,0-3.473-1.48A8.115,8.115,0,0,0,9.935,27.1a3.373,3.373,0,0,1-2.4.227A9.134,9.134,0,0,1,4.5,26.092a7.17,7.17,0,0,1-2.348-2.28,3.381,3.381,0,0,1-.393-2.856l-.194-.064a3.584,3.584,0,0,0,.411,3.024,7.377,7.377,0,0,0,2.415,2.348A9.343,9.343,0,0,0,7.5,27.532a3.567,3.567,0,0,0,2.551-.256,7.911,7.911,0,0,1,5.443-1.444,7.159,7.159,0,0,1,3.376,1.44,3.6,3.6,0,0,0,4.457.155c1.181-.965,1.647-2.871.424-5.512-1-2.151-1.023-5.452-.709-8.691C23.3,10.5,23.8,7.83,24.156,5.963Z" transform="translate(17.274 37.984)" fill="#fff" opacity="0.35"/>
        <path id="Vector-159" data-name="Vector" d="M3.5.223C2.591,2.533.75,5.408.014,7.37c-.126.336.581.912,1.846,1.62C3.892,7.486,5.648,2.642,6.272.408,4.729-.01,3.654-.166,3.5.223Z" transform="translate(16.433 56.517)" fill="#6c0917"/>
        <path id="Vector-160" data-name="Vector" d="M5.521,14.565c.964-.448,4.217-6.928,5.94-11.435L7.555,0C2.062,1.844-.213,7.34,1.166,7.114s1.506.518.32,2.083C-3.073,15.2,4.194,15.182,5.521,14.565Z" transform="translate(71.538 90.377)" fill="#fcc4ac"/>
        <path id="Vector-161" data-name="Vector" d="M18.085,31.465C20.514,23.456,12.616,4.851,6.551,0c0,1.981-.379,11.147-.585,23.318,3.481,6.237-5.1,25.208-5.9,26.809s6.206,7.582,7.351,5.267S15.352,40.471,18.085,31.465Z" transform="translate(76.448 39.866)" fill="#307fe2"/>
        <path id="Vector-162" data-name="Vector" d="M18.085,31.465C20.514,23.456,12.616,4.851,6.551,0c0,1.981-.379,11.147-.585,23.318,3.481,6.237-5.1,25.208-5.9,26.809s6.206,7.582,7.351,5.267S15.352,40.471,18.085,31.465Z" transform="translate(76.448 39.866)" fill="url(#linear-gradient-6)"/>
        <path id="Vector-163" data-name="Vector" d="M18.085,31.465C20.514,23.456,12.616,4.851,6.551,0c0,1.981-.379,11.147-.585,23.318,3.481,6.237-5.1,25.208-5.9,26.809s6.206,7.582,7.351,5.267S15.352,40.471,18.085,31.465Z" transform="translate(76.448 39.866)" fill="#d8002d"/>
        <path id="Vector-164" data-name="Vector" d="M5.479,1.109C5.152.7,4.851.331,4.591,0L4.429.126c.263.335.569.71.9,1.118A51.48,51.48,0,0,1,8.876,6.009c1.5,2.353,2.617,4.913,2.3,7.206a10.037,10.037,0,0,0,.642,4.567c.363,1.069.823,2.144,1.276,3.2.2.466.4.929.588,1.385a13.979,13.979,0,0,1,1.195,4.245,4.294,4.294,0,0,1-1.316,3.537,9.8,9.8,0,0,0-2.86,5.5c-.051.224-.1.447-.16.668a8.42,8.42,0,0,1-1.178,2.84,10.307,10.307,0,0,1-3.259,2.914,5.46,5.46,0,0,0-1.7,2,15.549,15.549,0,0,0-1.222,2.918,14.927,14.927,0,0,0-.607,2.744,4.638,4.638,0,0,0-.022.973,1.345,1.345,0,0,0,.041.225A13.227,13.227,0,0,1,.4,49.328,10.359,10.359,0,0,1,.84,43.807a6.9,6.9,0,0,1,3.237-4.042,4.615,4.615,0,0,0,2.492-2.4,8.545,8.545,0,0,0,.469-3.013c0-.043,0-.086.005-.129a11.9,11.9,0,0,1,.382-3.115,6.385,6.385,0,0,1,2.194-3.18,3.546,3.546,0,0,0,1.574-3.08A6.884,6.884,0,0,0,9.9,21.768c-.209-.322-.428-.643-.645-.964a21.518,21.518,0,0,1-1.333-2.123,4.374,4.374,0,0,1-.577-3.119A9.873,9.873,0,0,0,4.407,5.815l-.141.15a9.662,9.662,0,0,1,2.879,9.548,4.59,4.59,0,0,0,.6,3.263,21.975,21.975,0,0,0,1.352,2.156c.219.319.433.635.637.947a6.7,6.7,0,0,1,1.26,2.981,3.348,3.348,0,0,1-1.5,2.906,6.569,6.569,0,0,0-2.262,3.28,12.182,12.182,0,0,0-.393,3.16c0,.046,0,.091,0,.137a8.409,8.409,0,0,1-.455,2.941,4.405,4.405,0,0,1-2.389,2.3A7.089,7.089,0,0,0,.647,43.738a10.537,10.537,0,0,0-.439,5.668l.008.032.024.022A12.983,12.983,0,0,0,2.8,51.282l.108-.174a.268.268,0,0,1-.089-.133,1.226,1.226,0,0,1-.062-.287,4.414,4.414,0,0,1,.022-.929,14.62,14.62,0,0,1,.6-2.7,15.32,15.32,0,0,1,1.205-2.879,5.26,5.26,0,0,1,1.628-1.929,10.556,10.556,0,0,0,3.321-2.974,8.648,8.648,0,0,0,1.208-2.905c.054-.224.108-.448.16-.673a9.572,9.572,0,0,1,2.8-5.4,4.5,4.5,0,0,0,1.376-3.7,14.111,14.111,0,0,0-1.208-4.31c-.19-.463-.39-.929-.593-1.4-.45-1.052-.907-2.115-1.268-3.176a9.882,9.882,0,0,1-.634-4.474c.328-2.37-.832-4.984-2.329-7.343A51.586,51.586,0,0,0,5.479,1.109Z" transform="translate(78.382 44.068)" fill="#fff" opacity="0.35"/>
        <path id="Vector-165" data-name="Vector" d="M0,17.334C2.156,11.11,4.039,3.523,2.072,0,7.354,3.7,3.342,11.989,0,17.334Z" transform="translate(80.342 63.184)" fill="#b70f27"/>
        <path id="Vector-166" data-name="Vector" d="M.064,1.175c-.8,1.6,6.206,7.582,7.351,5.267.089-.178.211-.418.36-.712A11.123,11.123,0,0,1,.609,0C.346.587.154.993.064,1.175Z" transform="translate(76.448 88.818)" fill="#307fe2"/>
        <path id="Vector-167" data-name="Vector" d="M.064,1.175c-.8,1.6,6.206,7.582,7.351,5.267.089-.178.211-.418.36-.712A11.123,11.123,0,0,1,.609,0C.346.587.154.993.064,1.175Z" transform="translate(76.448 88.818)" fill="url(#linear-gradient-7)"/>
        <path id="Vector-168" data-name="Vector" d="M.064,1.175c-.8,1.6,6.206,7.582,7.351,5.267.089-.178.211-.418.36-.712A11.123,11.123,0,0,1,.609,0C.346.587.154.993.064,1.175Z" transform="translate(76.448 88.818)" fill="#6c0917"/>
      </g>
    </g>
  </g>
</svg>
