<svg id="Group_77852" data-name="Group 77852" xmlns="http://www.w3.org/2000/svg" xmlns:xlink="http://www.w3.org/1999/xlink" width="405" height="215.741" viewBox="0 0 405 215.741">
  <defs>
    <clipPath id="clip-path">
      <rect id="Rectangle_17086" data-name="Rectangle 17086" width="405" height="215.741" fill="none"/>
    </clipPath>
  </defs>
  <g id="Group_77851" data-name="Group 77851" clip-path="url(#clip-path)">
    <path id="Path_75081" data-name="Path 75081" d="M2521.539,526.759a.356.356,0,0,1-.263-.116,19.406,19.406,0,0,1-4.518-8.672,19.522,19.522,0,0,0-3.449-7.339c-5.617-7.074-16.792-5.421-16.908-5.405a.366.366,0,0,1-.111-.724c.116-.017,11.7-1.737,17.583,5.672a20.37,20.37,0,0,1,3.578,7.585c.833,2.8,1.62,5.44,4.351,8.383a.368.368,0,0,1-.015.517.355.355,0,0,1-.248.1" transform="translate(-2161.105 -436.655)" fill="#492a2c"/>
    <path id="Path_75082" data-name="Path 75082" d="M2349.709,786.217s-.848,5.475-2.777,8.527c0,0,6.58,4.039,11.81,1.616l.547-8.706Z" transform="translate(-2032.051 -680.733)"/>
    <path id="Path_75083" data-name="Path 75083" d="M2352.644,795.136a17.77,17.77,0,0,1-8.235-2.45.371.371,0,0,1-.117-.511c1.865-2.95,2.716-8.332,2.725-8.387a.362.362,0,0,1,.41-.3l9.581,1.436a.363.363,0,0,1,.308.385l-.547,8.706a.369.369,0,0,1-.209.311,9.249,9.249,0,0,1-3.915.815m-7.542-2.9c1.338.733,6.636,3.358,10.958,1.5l.513-8.146-8.9-1.335a27.757,27.757,0,0,1-2.569,7.979" transform="translate(-2029.715 -678.361)"/>
    <path id="Path_75084" data-name="Path 75084" d="M2426.115,773.975l.107,17.575,14.461-.391-.863-19.416Z" transform="translate(-2100.61 -668.2)" fill="#f5bd9e"/>
    <path id="Path_75085" data-name="Path 75085" d="M2064.637,964.829l18.083,29.245-69.435-.469-5.126-45.514-.8-4.135-1.144-5.865-31.9,36.437-21.851-1.129s38.358-53.167,44.44-61.2,19.186-12.185,19.186-12.185l7.168,4.458,7.182-5.044s16.71-.1,25.8,6.98,35.119,62.2,35.119,62.2Z" transform="translate(-1690.511 -778.752)" fill="#f8b018"/>
    <path id="Path_75086" data-name="Path 75086" d="M2426.692,830.7v-3.538l6.518-3.55s-1.406,5.428-6.518,7.088" transform="translate(-2101.11 -713.114)" fill="#492a2c" opacity="0.5"/>
    <path id="Path_75089" data-name="Path 75089" d="M2355.145,543.142s-11.231-2.761-17.267,8.8a34.64,34.64,0,0,0-3.888,12.869s-2.283,2.331-2.283,2.83c0,1.165,2.138,2.626,2.138,2.626s.153,8.808,2.387,11.594c1.532,1.911,8.27,5.877,20.49-4.256s13.88-29.194-1.576-34.466" transform="translate(-2018.869 -470.02)" fill="#f5bd9e"/>
    <path id="Path_75093" data-name="Path 75093" d="M2398.422,540.481l-2.606-1.349,1.882,2.61a33.474,33.474,0,0,1-5.155,6.584l-2.968-1.906,1.781,3.05a42.408,42.408,0,0,1-13.756,8.182c-6.4-5.234-8.022-16.2-8.022-16.2l1.81-4.413-.724-1.144a12.014,12.014,0,0,1-6.415-4.765l1.188-4.032-3.186,3.167a8.956,8.956,0,0,1-4.706-4.413l1.346-3.622-2.693,2.1a6.632,6.632,0,0,1-3-4.355,26.8,26.8,0,0,1,18.072-12.434c12.916-2.537,18.868,7.507,20.547,12.214,2.071,5.836,7.631,10.7,9.8,12.449a33.792,33.792,0,0,1-3.2,8.285" transform="translate(-2037.478 -439.09)"/>
    <path id="Path_75094" data-name="Path 75094" d="M2375.264,555.64a.354.354,0,0,1-.227-.081c-6.436-5.264-8.086-15.979-8.152-16.433a.368.368,0,0,1,.024-.195l1.737-4.237-.553-.874a12.262,12.262,0,0,1-6.492-4.888.371.371,0,0,1-.032-.288l.786-2.67-2.185,2.172a.362.362,0,0,1-.376.083,9.249,9.249,0,0,1-4.914-4.611.373.373,0,0,1-.009-.276l.9-2.42-1.687,1.314a.361.361,0,0,1-.414.019,6.95,6.95,0,0,1-3.162-4.619.359.359,0,0,1,.04-.216,27.4,27.4,0,0,1,18.321-12.622c15.019-2.958,20.393,10.864,20.958,12.449,2.018,5.688,7.447,10.486,9.687,12.284a.37.37,0,0,1,.127.375,34.317,34.317,0,0,1-3.235,8.375.359.359,0,0,1-.482.149l-1.252-.649.986,1.368a.372.372,0,0,1,.017.407,34.038,34.038,0,0,1-5.211,6.654.356.356,0,0,1-.447.047l-1.7-1.09,1.014,1.738a.368.368,0,0,1-.069.458,43.006,43.006,0,0,1-13.872,8.253.342.342,0,0,1-.126.023m-7.648-16.524c.181,1.09,1.948,10.871,7.717,15.74a42.323,42.323,0,0,0,13.225-7.837l-1.627-2.791a.368.368,0,0,1,.059-.45.359.359,0,0,1,.445-.046l2.725,1.75a33.273,33.273,0,0,0,4.768-6.1l-1.739-2.413a.369.369,0,0,1,.017-.454.355.355,0,0,1,.441-.089l2.292,1.187a33.51,33.51,0,0,0,2.941-7.658c-2.39-1.943-7.708-6.749-9.736-12.462-.544-1.525-5.745-14.8-20.138-11.979a26.723,26.723,0,0,0-17.761,12.139,6.381,6.381,0,0,0,2.6,3.842l2.489-1.939a.366.366,0,0,1,.436,0,.371.371,0,0,1,.124.424l-1.292,3.475a8.684,8.684,0,0,0,4.225,4l3.021-3a.358.358,0,0,1,.44-.051.366.366,0,0,1,.159.418l-1.14,3.872a11.987,11.987,0,0,0,6.133,4.473.361.361,0,0,1,.192.151l.724,1.144a.366.366,0,0,1,.028.338Z" transform="translate(-2035.144 -436.712)"/>
    <path id="Path_75095" data-name="Path 75095" d="M2440.142,705.452c-2.307,1.911-5.494,1.83-7.119-.18s-1.071-5.19,1.237-7.1,5.494-1.831,7.119.18,1.071,5.19-1.237,7.1" transform="translate(-2105.785 -603.302)" fill="#f5bd9e"/>
    <path id="Path_75098" data-name="Path 75098" d="M2426.692,900.047a22.019,22.019,0,0,0,14.351-.58s-2.165,14.054-6.926,13.961-7.425-13.382-7.425-13.382" transform="translate(-2101.11 -778.788)" fill="#fff"/>
    <path id="Path_75099" data-name="Path 75099" d="M2553.083,1422.634l-6.209-7.588s-5.236,8.94,2.429,16.821Z" transform="translate(-2203.656 -1225.194)" fill="#492a2c"/>
    <path id="Path_75100" data-name="Path 75100" d="M2351.342,1435.162s-20.5.577-25.721,3.267-11.579,7.208-10.725,9.034,26.955,1.25,26.955,1.25,9.408-.289,11.823-3.364-2.331-10.187-2.331-10.187" transform="translate(-2004.246 -1242.611)" fill="#d37e4f"/>
    <path id="Path_75101" data-name="Path 75101" d="M2300.718,1404.587a.358.358,0,0,1-.246-.1.368.368,0,0,1-.02-.517,52.832,52.832,0,0,1,9.292-7.306.36.36,0,0,1,.5.123.369.369,0,0,1-.122.5,51.887,51.887,0,0,0-9.136,7.177.358.358,0,0,1-.266.117" transform="translate(-1991.724 -1209.234)" fill="#492a2c"/>
    <path id="Path_75102" data-name="Path 75102" d="M2338.567,1415.92a.356.356,0,0,1-.246-.1.367.367,0,0,1-.018-.517,30.854,30.854,0,0,1,6.652-5.556.361.361,0,0,1,.493.139.37.37,0,0,1-.137.5,30.733,30.733,0,0,0-6.478,5.416.357.357,0,0,1-.266.117" transform="translate(-2024.495 -1220.567)" fill="#492a2c"/>
    <path id="Path_75103" data-name="Path 75103" d="M2558.138,1373.386s4.664,3.815,2.428,16.821c0,0,51.619.2,55.3-12.328,4.014-13.651-27.791-10.675-27.791-10.675l1.066,2.649Z" transform="translate(-2214.921 -1183.533)" fill="#e1b44c"/>
    <path id="Path_75104" data-name="Path 75104" d="M2410.314,1214.59s-28.525,7.154-47.9,1.963l-.8-4.135c5.054,1.1,25.426,5.031,45.814-2.931Z" transform="translate(-2044.768 -1047.214)" fill="#fff"/>
    <path id="Path_75105" data-name="Path 75105" d="M2559.811,1173.777a.367.367,0,0,1-.044-.73l30.317-3.731-16.362-32.376a.368.368,0,0,1,.134-.5.357.357,0,0,1,.493.136l16.634,32.855a.371.371,0,0,1,.01.347.362.362,0,0,1-.28.2l-30.859,3.8-.044,0" transform="translate(-2216.056 -983.925)" fill="#492a2c"/>
    <path id="Path_75106" data-name="Path 75106" d="M2514.878,757.783h-.025c-4.181-.3-7.785-2.914-10.422-7.552a27.116,27.116,0,0,1-2.735-6.935.367.367,0,0,1,.276-.437.359.359,0,0,1,.431.279c.028.133,2.971,13.224,12.5,13.914a.367.367,0,0,1-.025.732" transform="translate(-2166.044 -643.183)"/>
    <path id="Path_75107" data-name="Path 75107" d="M2348.246,1151.462a.362.362,0,0,1-.356-.306l-3.647-22.086a.364.364,0,0,1,.3-.421.356.356,0,0,1,.416.3l3.647,22.086a.364.364,0,0,1-.3.421.289.289,0,0,1-.059.006" transform="translate(-2029.718 -977.215)" fill="#492a2c"/>
    <path id="Path_75108" data-name="Path 75108" d="M2615.924,1516.057a.363.363,0,0,1-.363.3l-37.843,3.353a.363.363,0,0,1-.354-.373.358.358,0,0,1,.369-.359l37.842-3.353a.362.362,0,0,1,.354.373.333.333,0,0,1-.006.061" transform="translate(-2231.567 -1312.277)" fill="#492a2c"/>
    <path id="Path_75109" data-name="Path 75109" d="M1795.385,886.82s8.944-3.8,22.048,2.479c0,0-13.153,2.624-22.048-2.479" transform="translate(-1554.504 -766.85)" fill="#492a2c"/>
    <path id="Path_75110" data-name="Path 75110" d="M1807.349,888.2c-4.432,0-9.943-.641-14.376-3.185a.348.348,0,0,1,.037-.621c.092-.036,9.24-3.791,22.333,2.487a.347.347,0,0,1-.082.654,45.607,45.607,0,0,1-7.912.665M1794,884.785c7.143,3.693,16.791,2.714,20.019,2.248-10.2-4.56-17.732-2.938-20.019-2.248" transform="translate(-1552.264 -764.744)" fill="#492a2c"/>
    <path id="Path_75111" data-name="Path 75111" d="M1804.368,679.448l.054-6.819c-2.623-3.549-3.616-28.133.161-28.9,4.94-1.008,4.511,14.135,4.511,14.135l12.531,1.393s1.616,13.607-.925,14.505c0,0-.154,4.542-.485,7.416Z" transform="translate(-1560.311 -557.317)" fill="#d37e4f"/>
    <path id="Path_75112" data-name="Path 75112" d="M1918.3,715.029s3.731-1.3,4.254.772.946,8.809-1.425,8.979c-2.829.2-2.829-4.226-2.829-4.226Z" transform="translate(-1660.925 -618.747)" fill="#d37e4f"/>
    <path id="Path_75113" data-name="Path 75113" d="M1918.7,722.909a2.34,2.34,0,0,1-1.648-.64c-1.325-1.232-1.34-3.829-1.34-3.939V712.8a.348.348,0,0,1,.233-.328c.1-.035,2.47-.845,3.829-.115a1.709,1.709,0,0,1,.875,1.131c.411,1.628.879,6.76-.5,8.669a1.636,1.636,0,0,1-1.234.74c-.072.006-.143.008-.213.008m-2.294-9.852v5.273c0,.023.016,2.405,1.12,3.431a1.69,1.69,0,0,0,1.337.447.968.968,0,0,0,.722-.455c1.172-1.62.8-6.467.392-8.092a1.03,1.03,0,0,0-.531-.69,4.847,4.847,0,0,0-3.04.085" transform="translate(-1658.683 -616.522)" fill="#492a2c"/>
    <path id="Path_75114" data-name="Path 75114" d="M1897.669,715.072s3.731-1.44,4.254.855.946,9.756-1.425,9.944c-2.829.225-2.829-4.679-2.829-4.679Z" transform="translate(-1643.064 -618.747)" fill="#d37e4f"/>
    <path id="Path_75115" data-name="Path 75115" d="M1898.071,723.994a2.225,2.225,0,0,1-1.557-.61c-1.416-1.307-1.432-4.3-1.432-4.424v-6.12a.347.347,0,0,1,.223-.324c.1-.035,2.391-.909,3.769-.173a1.835,1.835,0,0,1,.947,1.276c.463,2.028.824,7.762-.574,9.664a1.574,1.574,0,0,1-1.161.7c-.073.005-.145.009-.215.009m-2.294-10.909v5.875c0,.028.016,2.815,1.209,3.914a1.573,1.573,0,0,0,1.245.419.905.905,0,0,0,.657-.422c1.254-1.707.885-7.221.457-9.1a1.158,1.158,0,0,0-.6-.818,4.512,4.512,0,0,0-2.971.13" transform="translate(-1640.825 -616.515)" fill="#492a2c"/>
    <path id="Path_75116" data-name="Path 75116" d="M1876.074,715.1s3.731-1.52,4.254.9.946,10.3-1.425,10.5c-2.829.237-2.829-4.94-2.829-4.94Z" transform="translate(-1624.367 -618.747)" fill="#d37e4f"/>
    <path id="Path_75117" data-name="Path 75117" d="M1876.475,724.634a2.167,2.167,0,0,1-1.508-.592c-1.463-1.346-1.48-4.565-1.48-4.7V712.88a.347.347,0,0,1,.216-.321c.1-.038,2.349-.939,3.736-.209a1.906,1.906,0,0,1,.987,1.359c.471,2.179.829,8.288-.612,10.234a1.539,1.539,0,0,1-1.122.682c-.073.007-.146.01-.217.01m-2.294-11.514v6.219c0,.03.017,3.052,1.256,4.191a1.516,1.516,0,0,0,1.2.4.869.869,0,0,0,.623-.4c1.242-1.677.951-7.543.491-9.674a1.236,1.236,0,0,0-.633-.892,4.369,4.369,0,0,0-2.934.157" transform="translate(-1622.127 -616.53)" fill="#492a2c"/>
    <path id="Path_75118" data-name="Path 75118" d="M1364.411,816.618s7.442-4.335,20.186,0L1374.59,820.3Z" transform="translate(-1181.352 -705.387)" fill="#492a2c"/>
    <path id="Path_75119" data-name="Path 75119" d="M1372.349,818.308a.351.351,0,0,1-.118-.02l-10.179-3.684a.347.347,0,0,1-.057-.627c.309-.18,7.727-4.366,20.473-.028a.346.346,0,0,1,.008.653l-10.007,3.684a.333.333,0,0,1-.12.022m-9.28-4.074,9.279,3.357,8.95-3.293c-9.685-3.03-16.149-.949-18.229-.064" transform="translate(-1179.111 -703.046)" fill="#492a2c"/>
    <path id="Path_75120" data-name="Path 75120" d="M1261.386,568.551h-.028c-.057,0-5.671-.5-5.482-5.578.185-5,6.086-6.713,6.146-6.73a.351.351,0,0,1,.428.241.347.347,0,0,1-.24.427c-.055.016-5.473,1.595-5.639,6.087-.164,4.41,4.638,4.846,4.842,4.862a.347.347,0,0,1-.026.693" transform="translate(-1087.375 -481.601)"/>
    <rect id="Rectangle_17084" data-name="Rectangle 17084" width="15.004" height="32.92" transform="translate(185.02 83.522)" fill="#d37e4f"/>
    <path id="Path_75121" data-name="Path 75121" d="M1404.961,755.494l11.524,6.971v-8.629Z" transform="translate(-1216.462 -652.696)" fill="#492a2c" opacity="0.3"/>
    <path id="Path_75122" data-name="Path 75122" d="M1348.009,521.5c0,10.326-7.137,20.209-15.941,20.209s-15.941-9.883-15.941-20.209,7.137-17.186,15.941-17.186,15.941,6.859,15.941,17.186" transform="translate(-1139.547 -436.656)" fill="#d37e4f"/>
    <path id="Path_75131" data-name="Path 75131" d="M1276.631,450.238s2.8,8.089-2.4,9.451-5.126,0-5.126,0-5.927-2.323-1.281-10.412c0,0-4.022-6.888,4.676-9.691,0,0,.109-7.288,7.768-4.645a5.245,5.245,0,0,1,7.018-3.6s4.966-2.643,7.529,2.082c0,0,6.968-3.2,8.49,4.565,0,0,6.327.8,5.606,8.329,0,0,7.086,6.717.057,12.874l-3.544.5s-4.282-1.6-2.44-7.449c0,0-2.643-1.2-2.243-3.524,0,0-4.645.641-7.288-2.8,0,0-6.577,3.056-10.039.4,0,0-2.134,5.366-6.78,3.924" transform="translate(-1096.182 -372.828)"/>
    <path id="Path_75132" data-name="Path 75132" d="M1533.379,634.844c-1.556,2.7-4.7,3.794-7.017,2.455s-2.938-4.609-1.382-7.3,4.7-3.794,7.017-2.455,2.938,4.609,1.382,7.3" transform="translate(-1319.635 -542.851)" fill="#d37e4f"/>
    <path id="Path_75134" data-name="Path 75134" d="M1271.527,634.844c1.556,2.7,4.7,3.794,7.017,2.455s2.938-4.609,1.382-7.3-4.7-3.794-7.016-2.455-2.938,4.609-1.382,7.3" transform="translate(-1100.188 -542.851)" fill="#d37e4f"/>
    <path id="Path_75136" data-name="Path 75136" d="M1389.666,537.609a6.025,6.025,0,0,1-1.213-.121,7.329,7.329,0,0,1-4.721-3.753.347.347,0,0,1,.625-.3,6.741,6.741,0,0,0,4.241,3.379c2.25.449,4.815-.561,7.618-3.014a.347.347,0,0,1,.457.524c-2.5,2.187-4.851,3.289-7.006,3.289" transform="translate(-1198.051 -461.694)"/>
    <path id="Path_75137" data-name="Path 75137" d="M1528.965,495.634a.347.347,0,0,1-.225-.611c.057-.049,5.623-4.83,3.249-8.874-2.238-3.814-7.654-2.927-7.709-2.919a.347.347,0,0,1-.119-.683c.241-.043,5.944-.98,8.427,3.25,2.669,4.55-3.151,9.545-3.4,9.757a.347.347,0,0,1-.224.081" transform="translate(-1319.42 -417.702)"/>
    <path id="Path_75138" data-name="Path 75138" d="M1140.443,942.538c-13.97,0-24.08-27.733-24.08-27.733l1,22.8,2.96,19.354H1046.2a9.8,9.8,0,0,1-1.887-.173,8.727,8.727,0,0,1-1.61-.519c-4.553-2.026-7.219-6.007-8.483-11.148-4.778-19.129,9.5-54.409,16.082-65.523a45.27,45.27,0,0,1,29.343-21.587l8.223-1.523,6.786,1.523s10.127.381,24.149,9.989c15.441,10.612,16.273,25.361,16.273,25.361s15.39,49.181,5.366,49.181" transform="translate(-894.633 -741.572)" fill="#f05a2a"/>
    <path id="Path_75139" data-name="Path 75139" d="M1743.117,939.538s-9.846,50.356-10.1,58.116,7.675,17.181,15.306,16.781,12.629-11.02,13.029-17.217,0-56.376,0-56.376Z" transform="translate(-1500.499 -813.483)" fill="#999846"/>
    <path id="Path_75140" data-name="Path 75140" d="M1785.1,894.18l-1.594,11.068s15.761,4.6,23.641,1.948V896.659s-14.964.177-22.047-2.479" transform="translate(-1544.219 -774.211)" fill="#fff"/>
    <path id="Path_75141" data-name="Path 75141" d="M1798.651,906.134c-7.8,0-16.984-2.649-17.484-2.794a.348.348,0,0,1-.246-.382l1.594-11.068a.348.348,0,0,1,.466-.277c6.941,2.6,21.771,2.458,21.921,2.458a.416.416,0,0,1,.248.1.348.348,0,0,1,.1.247v10.536a.348.348,0,0,1-.236.329,20.416,20.416,0,0,1-6.366.85m-17-3.38c2.152.6,15.738,4.187,22.907,1.948v-9.934c-2.3,0-14.759-.047-21.417-2.359Z" transform="translate(-1541.978 -771.969)" fill="#492a2c"/>
    <path id="Path_75142" data-name="Path 75142" d="M1810.7,920.478c0,.7-.392,1.26-.876,1.26s-.875-.564-.875-1.26.392-1.26.875-1.26.876.564.876,1.26" transform="translate(-1566.245 -795.889)" fill="#492a2c"/>
    <path id="Path_75143" data-name="Path 75143" d="M1438.038,894.17a.347.347,0,0,1-.347-.347V859.116a.347.347,0,1,1,.694,0v34.707a.347.347,0,0,1-.347.347" transform="translate(-1244.8 -743.551)" fill="#492a2c"/>
    <path id="Path_75144" data-name="Path 75144" d="M1459.123,962.527c0,.722-.339,1.307-.756,1.307s-.756-.585-.756-1.307.339-1.307.756-1.307.756.585.756,1.307" transform="translate(-1262.048 -832.256)" fill="#492a2c"/>
    <path id="Path_75145" data-name="Path 75145" d="M1459.123,1008.437c0,.722-.339,1.307-.756,1.307s-.756-.585-.756-1.307.339-1.307.756-1.307.756.585.756,1.307" transform="translate(-1262.048 -872.006)" fill="#492a2c"/>
    <path id="Path_75146" data-name="Path 75146" d="M1352.83,74.8a15.3,15.3,0,0,0-15.545-15.3,15.494,15.494,0,0,0-15.046,14.849,15.242,15.242,0,0,0,5.55,12.23,9.1,9.1,0,0,1,3.474,6.972v6.689H1343.8V93.881a9.861,9.861,0,0,1,3.656-7.456A15.238,15.238,0,0,0,1352.83,74.8" transform="translate(-1144.833 -51.515)" fill="#95d1cf"/>
    <path id="Path_75147" data-name="Path 75147" d="M1388.2,158.211a.5.5,0,0,1-.5-.5V144.728a.5.5,0,0,1,.114-.315c.043-.052,4.265-5.207,3.546-8.3a2.48,2.48,0,0,0-1.532-1.745c-1.57-.708-2.87-.586-3.859.367a3.827,3.827,0,0,0-.532.636c1.183,1.72,1.658,3.933,1.222,5.11a1.364,1.364,0,0,1-1.31.965,1.674,1.674,0,0,1-1.546-1.207,6.417,6.417,0,0,1,.45-4.789,5.158,5.158,0,0,0-.584-.6,3.011,3.011,0,0,0-3.709-.364,2.642,2.642,0,0,0-1.424,1.892c-.595,3.139,3.373,7.979,3.412,8.027a.494.494,0,0,1,.114.315v12.987a.5.5,0,0,1-.99,0V144.9c-.693-.871-4.135-5.4-3.509-8.7a3.626,3.626,0,0,1,1.917-2.575,4.017,4.017,0,0,1,4.834.48,5.9,5.9,0,0,1,.483.464,4.5,4.5,0,0,1,.486-.55c.9-.867,2.49-1.667,4.951-.553a3.452,3.452,0,0,1,2.091,2.424c.764,3.292-2.916,8.111-3.635,9.012v12.811a.5.5,0,0,1-.5.5m-3.286-21.808a5.178,5.178,0,0,0-.187,3.47c.157.389.368.586.627.586.092,0,.262,0,.381-.319a5.416,5.416,0,0,0-.821-3.737" transform="translate(-1192.677 -115.089)" fill="#fff"/>
    <path id="Path_75148" data-name="Path 75148" d="M1383.494,320.936h-15.656a1.534,1.534,0,0,1-1.534-1.534v-.154a1.534,1.534,0,0,1,1.534-1.534h15.656a1.534,1.534,0,0,1,1.534,1.534v.154a1.534,1.534,0,0,1-1.534,1.534" transform="translate(-1182.991 -275.086)" fill="#fff"/>
    <path id="Path_75149" data-name="Path 75149" d="M1380.3,318.233h-15.656a2.032,2.032,0,0,1-2.029-2.029v-.155a2.032,2.032,0,0,1,2.029-2.029H1380.3a2.032,2.032,0,0,1,2.029,2.029v.155a2.032,2.032,0,0,1-2.029,2.029m-15.656-3.223a1.04,1.04,0,0,0-1.039,1.039v.155a1.04,1.04,0,0,0,1.039,1.039H1380.3a1.04,1.04,0,0,0,1.039-1.039v-.155a1.04,1.04,0,0,0-1.039-1.039Z" transform="translate(-1179.796 -271.889)" fill="#492a2c"/>
    <path id="Path_75150" data-name="Path 75150" d="M1386.553,344.957H1371.91a1.488,1.488,0,0,1-1.488-1.489v-.246a1.488,1.488,0,0,1,1.488-1.489h14.643a1.488,1.488,0,0,1,1.488,1.489v.246a1.488,1.488,0,0,1-1.488,1.489" transform="translate(-1186.557 -295.885)" fill="#fff"/>
    <path id="Path_75151" data-name="Path 75151" d="M1383.357,342.253h-14.642a1.986,1.986,0,0,1-1.984-1.983v-.246a1.986,1.986,0,0,1,1.984-1.985h14.642a1.986,1.986,0,0,1,1.984,1.985v.246a1.986,1.986,0,0,1-1.984,1.983m-14.642-3.223a1,1,0,0,0-.993.994v.246a.994.994,0,0,0,.993.992h14.642a.994.994,0,0,0,.993-.992v-.246a1,1,0,0,0-.993-.994Z" transform="translate(-1183.361 -292.686)" fill="#492a2c"/>
    <path id="Path_75152" data-name="Path 75152" d="M1393.911,368.982h-12.219a1.372,1.372,0,0,1-1.372-1.372v-.48a1.371,1.371,0,0,1,1.372-1.371h12.219a1.371,1.371,0,0,1,1.372,1.371v.48a1.371,1.371,0,0,1-1.372,1.372" transform="translate(-1195.127 -316.686)" fill="#fff"/>
    <path id="Path_75153" data-name="Path 75153" d="M1390.715,366.275H1378.5a1.869,1.869,0,0,1-1.868-1.867v-.482a1.869,1.869,0,0,1,1.868-1.866h12.219a1.869,1.869,0,0,1,1.867,1.866v.482a1.869,1.869,0,0,1-1.867,1.867M1378.5,363.05a.878.878,0,0,0-.877.876v.482a.878.878,0,0,0,.877.876h12.219a.877.877,0,0,0,.876-.876v-.482a.877.877,0,0,0-.876-.876Z" transform="translate(-1191.93 -313.484)" fill="#492a2c"/>
    <path id="Path_75154" data-name="Path 75154" d="M1329.379,33.708a.5.5,0,0,1-.4-.2l-2.1-2.807a.5.5,0,0,1,.793-.6l2.1,2.807a.5.5,0,0,1-.4.793" transform="translate(-1148.77 -25.898)" fill="#492a2c"/>
    <path id="Path_75155" data-name="Path 75155" d="M1399.263,4.424a.5.5,0,0,1-.484-.4l-.7-3.435a.5.5,0,1,1,.971-.2l.7,3.435a.5.5,0,0,1-.387.584.581.581,0,0,1-.1.01" transform="translate(-1210.497 0.001)" fill="#492a2c"/>
    <path id="Path_75156" data-name="Path 75156" d="M1481.586,10.471a.475.475,0,0,1-.114-.013.494.494,0,0,1-.367-.6l.808-3.412a.495.495,0,1,1,.963.228l-.808,3.412a.5.5,0,0,1-.482.381" transform="translate(-1282.378 -5.253)" fill="#492a2c"/>
    <path id="Path_75157" data-name="Path 75157" d="M1533.032,40.164a.5.5,0,0,1-.413-.768l1.938-2.923a.495.495,0,0,1,.826.545l-1.938,2.923a.493.493,0,0,1-.413.222" transform="translate(-1326.921 -31.387)" fill="#492a2c"/>
    <path id="Path_75158" data-name="Path 75158" d="M1573.737,91.2a.5.5,0,0,1-.285-.9l2.866-2.021a.495.495,0,1,1,.571.809l-2.866,2.021a.489.489,0,0,1-.285.091" transform="translate(-1362.165 -76.352)" fill="#492a2c"/>
    <path id="Path_75159" data-name="Path 75159" d="M1276.72,86.261a.489.489,0,0,1-.25-.068l-3.029-1.766a.5.5,0,0,1,.5-.855l3.029,1.766a.5.5,0,0,1-.25.923" transform="translate(-1102.375 -72.3)" fill="#492a2c"/>
    <path id="Path_75160" data-name="Path 75160" d="M754.514,1203.03a.346.346,0,0,1-.346-.329l-.989-19.548a.347.347,0,1,1,.693-.035l.989,19.548a.347.347,0,0,1-.329.365Z" transform="translate(-652.127 -1024.096)" fill="#492a2c"/>
    <path id="Path_75161" data-name="Path 75161" d="M1241.6,1208.151a.348.348,0,0,1-.346-.324c-.322-4.8,1.7-23.612,1.788-24.41a.347.347,0,1,1,.69.076c-.021.194-2.1,19.546-1.785,24.289a.346.346,0,0,1-.323.369h-.024" transform="translate(-1074.686 -1024.373)" fill="#492a2c"/>
    <path id="Path_75162" data-name="Path 75162" d="M1650.7,1208.115h-.026a.347.347,0,0,1-.321-.371c.346-4.742-1.623-24.1-1.643-24.3a.347.347,0,1,1,.69-.071c.082.8,2,19.618,1.646,24.42a.348.348,0,0,1-.346.321" transform="translate(-1427.507 -1024.333)" fill="#492a2c"/>
    <path id="Path_75163" data-name="Path 75163" d="M1238.437,1321.5h-59.5l-9.225-42.18a1.5,1.5,0,0,1,1.461-1.815H1246.2a1.5,1.5,0,0,1,1.461,1.815Z" transform="translate(-1012.747 -1106.104)" fill="#fff"/>
    <path id="Path_75164" data-name="Path 75164" d="M1236.2,1319.608h-59.5a.347.347,0,0,1-.339-.273l-9.225-42.18a1.842,1.842,0,0,1,1.8-2.236h75.026a1.842,1.842,0,0,1,1.8,2.236l-9.226,42.18a.347.347,0,0,1-.339.273m-59.218-.694h58.938l9.166-41.908a1.148,1.148,0,0,0-1.122-1.392h-75.026a1.148,1.148,0,0,0-1.121,1.392Z" transform="translate(-1010.509 -1103.867)" fill="#492a2c"/>
    <path id="Path_75165" data-name="Path 75165" d="M1439.6,1310.783c0,2.246-1.507,4.067-3.366,4.067s-3.366-1.821-3.366-4.067,1.507-4.067,3.366-4.067,3.366,1.821,3.366,4.067" transform="translate(-1240.623 -1131.398)"/>
    <path id="Path_75166" data-name="Path 75166" d="M1341.409,829.052s5.02,3.289,10.007,3.683c0,0-2.587,6.294-1.714,8.743,0,0-7.75-2.012-11.857-5.645Z" transform="translate(-1158.35 -717.821)" fill="#fff"/>
    <path id="Path_75167" data-name="Path 75167" d="M1347.46,839.585a.4.4,0,0,1-.088-.011c-.319-.083-7.878-2.076-12-5.722a.347.347,0,0,1-.077-.422l3.564-6.781a.347.347,0,0,1,.22-.175.352.352,0,0,1,.277.046c.049.033,5.006,3.246,9.844,3.628a.347.347,0,0,1,.294.477c-.026.062-2.527,6.2-1.709,8.494a.347.347,0,0,1-.327.464m-11.422-6.076c3.4,2.875,9.143,4.708,10.95,5.235-.346-2.379,1.167-6.582,1.694-7.948a25.251,25.251,0,0,1-9.382-3.492Z" transform="translate(-1156.109 -715.58)" fill="#492a2c"/>
    <path id="Path_75168" data-name="Path 75168" d="M1450.285,829.052s-5.02,3.289-10.007,3.683c0,0,2.7,4.857,2.2,8.992,0,0,7.267-2.454,11.374-6.087Z" transform="translate(-1247.04 -717.821)" fill="#fff"/>
    <path id="Path_75169" data-name="Path 75169" d="M1440.236,839.842a.348.348,0,0,1-.345-.389c.486-3.973-2.129-8.733-2.156-8.782a.346.346,0,0,1,.276-.514c4.842-.384,9.795-3.6,9.844-3.628a.359.359,0,0,1,.275-.046.343.343,0,0,1,.221.171l3.564,6.589a.347.347,0,0,1-.075.426c-4.112,3.636-11.193,6.054-11.493,6.155a.349.349,0,0,1-.111.018m-1.651-9.043c.631,1.26,2.243,4.84,2.046,8.187,1.677-.614,7.137-2.753,10.542-5.657l-3.255-6.018a25.335,25.335,0,0,1-9.333,3.489" transform="translate(-1244.801 -715.588)" fill="#492a2c"/>
    <path id="Path_75170" data-name="Path 75170" d="M294.618,553.083s-16.22-5.656-19.182,13.6,11.736,21.42,11.736,21.42-1.073-3.647.715-5.578l1.978,5.934c4.7,1.343,13.541.573,13.9-8.366s-9.145-27.01-9.145-27.01" transform="translate(-238.14 -478.207)"/>
    <rect id="Rectangle_17085" data-name="Rectangle 17085" width="16.641" height="32.138" transform="translate(61.889 90.758)" fill="#f5bd9e"/>
    <path id="Path_75171" data-name="Path 75171" d="M147.409,845.388c-8.116,3.013-18.973,8.812-32.3,27.424-10.074,14.074-16.342,44.379-16.342,44.379l31.592-5.779-3.988,34.222h68.093l-2.122-35.31h18.634s-2.078-28.947-16.736-45.661c-6.7-7.642-25.311-19.275-30.2-19.275,0,0-5.023,11.342-7.931,11.028-2.35-.254-8.71-11.028-8.71-11.028" transform="translate(-85.52 -731.965)" fill="#f8b018"/>
    <path id="Path_75172" data-name="Path 75172" d="M491.89,945.634h-29.2l-.472-34.944-.118-7.866-.089-7.157-.118-7.851-.575-42.426s12.529,2.258,16.631,0l10.02,28.156.738,13.458.4,7.334.413,7.541.4,7.378Z" transform="translate(-399.421 -731.967)" fill="#fff"/>
    <path id="Path_75173" data-name="Path 75173" d="M492.815,1162.893a196.566,196.566,0,0,1-27.093,1.328l-.118-7.851c7.9.3,18.992.384,26.813-.812Z" transform="translate(-403.134 -1000.521)" fill="#ed6a69"/>
    <path id="Path_75174" data-name="Path 75174" d="M494.961,1273.806a199.457,199.457,0,0,1-27.7,1.432l-.118-7.866c8.16.3,19.641.369,27.418-.944Z" transform="translate(-404.469 -1096.515)" fill="#999846"/>
    <path id="Path_75175" data-name="Path 75175" d="M567.059,523.468a.336.336,0,0,1-.221-.082.339.339,0,0,1-.036-.478c.235-.273,5.681-6.731,1.059-11.473-4.926-5.055-10.135-2.281-10.187-2.253a.339.339,0,1,1-.327-.593c.058-.032,5.717-3.046,11,2.372,5.055,5.189-.97,12.318-1.031,12.389a.336.336,0,0,1-.257.118" transform="translate(-482.418 -439.605)"/>
    <path id="Path_75176" data-name="Path 75176" d="M517.342,512.93s9.253-3.822,13.076,5.834-17.63,20.446-17.63,20.446Z" transform="translate(-443.988 -443.466)"/>
    <path id="Path_75177" data-name="Path 75177" d="M522.271,762v-6.1l-9.769-3.949s.832,6.166,9.769,10.046" transform="translate(-443.741 -651.062)" fill="#492a2c" opacity="0.3"/>
    <path id="Path_75178" data-name="Path 75178" d="M433.85,537.08s-9.305-20.087,8.23-24.505,24.733,29.984,12.526,35.784c-10.779,5.122-20.756-11.279-20.756-11.279" transform="translate(-373.505 -443.465)" fill="#f5bd9e"/>
    <path id="Path_75186" data-name="Path 75186" d="M398.639,509.159s16.157-8.545,22.287-19.882c0,0-9.182-15.064-22.287-3.855-11.531,9.862,0,23.737,0,23.737" transform="translate(-340.718 -416.704)"/>
    <path id="Path_75187" data-name="Path 75187" d="M399.525,652.945c1.689,2.525,4.82,3.393,6.993,1.94s2.565-4.679.876-7.2-4.82-3.393-6.993-1.939-2.565,4.679-.876,7.2" transform="translate(-345.014 -558.494)" fill="#f5bd9e"/>
    <path id="Path_75189" data-name="Path 75189" d="M267.65,577a.34.34,0,0,1-.183-.053c-4.252-2.725-6.955-7.807-7.415-13.942-.481-6.416,1.561-12.622,5.2-15.815a14,14,0,0,1,14.886-2.3.339.339,0,0,1-.3.606,13.324,13.324,0,0,0-14.136,2.2c-3.486,3.055-5.438,9.043-4.972,15.252.444,5.922,3.034,10.813,7.1,13.422a.339.339,0,0,1-.183.625" transform="translate(-225.102 -470.748)"/>
    <path id="Path_75193" data-name="Path 75193" d="M415.375,845.388s-4.809,3.153-7.114,7.44c0,0,.034,8.748.474,15.1L412.8,866.6l-1.436,6.664s2.6,6.086,4.569,10.674a296.7,296.7,0,0,0-.557-38.55" transform="translate(-353.486 -731.965)" fill="#fff"/>
    <path id="Path_75194" data-name="Path 75194" d="M413.748,882.083a.34.34,0,0,1-.312-.2c-1.966-4.588-4.569-10.674-4.569-10.674a.346.346,0,0,1-.02-.205l1.312-6.087-3.5,1.14a.327.327,0,0,1-.294-.041.338.338,0,0,1-.149-.257c-.436-6.286-.474-15.03-.475-15.117a.338.338,0,0,1,.04-.161c2.319-4.314,7.027-7.434,7.226-7.564a.336.336,0,0,1,.333-.023.34.34,0,0,1,.191.274,299.418,299.418,0,0,1,.558,38.6.338.338,0,0,1-.28.314.294.294,0,0,1-.058.005m-4.215-11.047c.308.721,2.242,5.24,3.949,9.227a297.176,297.176,0,0,0-.576-36.457,23.545,23.545,0,0,0-6.49,6.913c0,.905.058,8.67.443,14.553l3.651-1.187a.329.329,0,0,1,.332.07.339.339,0,0,1,.1.323Z" transform="translate(-351.301 -729.771)" fill="#492a2c"/>
    <path id="Path_75195" data-name="Path 75195" d="M585.315,845.388a32.859,32.859,0,0,1,7.232,5.959s3.771,8.586,4.793,14.866l-2.839.046,2.861,4.942a51.727,51.727,0,0,1-1.522,11.688,307.2,307.2,0,0,0-10.526-37.5" transform="translate(-506.785 -731.965)" fill="#fff"/>
    <path id="Path_75196" data-name="Path 75196" d="M593.654,881.033h-.005a.338.338,0,0,1-.327-.271,309.417,309.417,0,0,0-10.512-37.456.339.339,0,0,1,.489-.408,33.571,33.571,0,0,1,7.317,6.029.363.363,0,0,1,.056.089c.038.086,3.8,8.7,4.817,14.948a.339.339,0,0,1-.329.393l-2.261.037,2.572,4.443a.339.339,0,0,1,.046.161,52.64,52.64,0,0,1-1.531,11.772.339.339,0,0,1-.33.262m-9.883-37.04a314.311,314.311,0,0,1,9.89,35.1,51.091,51.091,0,0,0,1.178-9.991l-2.817-4.866a.338.338,0,0,1,.288-.508l2.443-.04c-1.047-5.884-4.384-13.663-4.682-14.35a32.684,32.684,0,0,0-6.3-5.343" transform="translate(-504.599 -729.769)" fill="#492a2c"/>
    <path id="Path_75197" data-name="Path 75197" d="M89.463,1342.932s-13.1,32.316,10.806,28.781,64.67-16.572,64.67-16.572v-13.689l-49.242,6.3,3.507-10.262Z" transform="translate(-74.36 -1158.044)" fill="#f5bd9e"/>
    <path id="Path_75198" data-name="Path 75198" d="M540.452,876.45h-.024a.338.338,0,0,1-.315-.361c.289-4.15-1.928-12.943-1.95-13.031a.339.339,0,0,1,.657-.167c.093.365,2.265,8.989,1.97,13.246a.339.339,0,0,1-.338.315" transform="translate(-465.95 -746.898)" fill="#492a2c"/>
    <path id="Path_75199" data-name="Path 75199" d="M122.505,1286.548,119.617,1296s-8.267,4.941-33.078,4.611l3.282-10.24s29.927-3.035,32.684-3.823" transform="translate(-74.928 -1113.936)" fill="#fff"/>
    <path id="Path_75200" data-name="Path 75200" d="M86.735,1298.777c-.779,0-1.574-.005-2.388-.016a.339.339,0,0,1-.318-.442l3.282-10.24a.343.343,0,0,1,.289-.234c.3-.03,29.929-3.04,32.626-3.811a.331.331,0,0,1,.335.089.339.339,0,0,1,.083.336l-2.888,9.452a.339.339,0,0,1-.15.192c-.329.2-8.094,4.674-30.868,4.674m-1.921-.688c22.537.234,31.277-3.952,32.332-4.507l2.678-8.765c-4.746.9-29.14,3.4-31.936,3.681Z" transform="translate(-72.741 -1111.747)" fill="#492a2c"/>
    <path id="Path_75201" data-name="Path 75201" d="M336.344,1213.286a.338.338,0,0,1-.326-.434l3.227-11.065a.339.339,0,0,1,.651.191l-3.227,11.066a.34.34,0,0,1-.326.244" transform="translate(-290.924 -1040.335)" fill="#492a2c"/>
    <path id="Path_75202" data-name="Path 75202" d="M1748.944,1015.334a.274.274,0,0,1-.066-.007.346.346,0,0,1-.276-.405l6.83-35.7a.338.338,0,0,1,.406-.275.346.346,0,0,1,.276.405l-6.83,35.7a.347.347,0,0,1-.34.282" transform="translate(-1513.992 -847.6)" fill="#492a2c"/>
    <path id="Path_75203" data-name="Path 75203" d="M1822,702.46s4.83-13.427,8.525-12.012c3.035,1.163-3.358,16.533-3.358,16.533Z" transform="translate(-1577.546 -597.722)" fill="#d37e4f"/>
    <path id="Path_75204" data-name="Path 75204" d="M1824.925,705.089a.333.333,0,0,1-.134-.027.346.346,0,0,1-.187-.453c1.46-3.512,5.018-13.164,3.957-15.636a.746.746,0,0,0-.4-.439,1.4,1.4,0,0,0-1.121.084c-3.24,1.484-6.917,11.618-6.953,11.721a.347.347,0,0,1-.654-.236c.155-.428,3.815-10.51,7.318-12.117a2.082,2.082,0,0,1,1.658-.1,1.413,1.413,0,0,1,.792.814c1.393,3.246-3.734,15.649-3.953,16.175a.347.347,0,0,1-.321.214" transform="translate(-1575.306 -595.484)" fill="#492a2c"/>
    <path id="Path_75205" data-name="Path 75205" d="M1783.506,1461.148s7.982-6.912,14.909-.988c0,0-5.436,6.775-14.909.988" transform="translate(-1544.219 -1262.178)" fill="#492a2c"/>
    <path id="Path_75206" data-name="Path 75206" d="M1050.507,1528.773a8.749,8.749,0,0,1-1.61-.519c-4.553-2.025-7.219-6.007-8.482-11.148,2.77,1.16,10.508,5.02,10.092,11.668" transform="translate(-900.826 -1313.56)" fill="#492a2c"/>
    <path id="Path_75207" data-name="Path 75207" d="M164.661,1580H114.385v-2.538a1.4,1.4,0,0,1,1.4-1.4h48.874Z" transform="translate(-99.038 -1364.601)" fill="#492a2c"/>
    <path id="Path_75208" data-name="Path 75208" d="M488.722,1304.672H421.513l7.237-44.625a2.354,2.354,0,0,1,2.324-1.977h62.439a2.354,2.354,0,0,1,2.324,2.731Z" transform="translate(-364.96 -1089.278)" fill="#492a2c"/>
    <path id="Path_75209" data-name="Path 75209" d="M486.486,1302.782H419.277a.346.346,0,0,1-.342-.4l7.237-44.625a2.691,2.691,0,0,1,2.666-2.268h62.439a2.7,2.7,0,0,1,2.666,3.133l-7.115,43.871a.346.346,0,0,1-.342.292m-66.8-.694h66.5l7.068-43.58a2.006,2.006,0,0,0-1.981-2.328H428.838a2,2,0,0,0-1.981,1.685Z" transform="translate(-362.724 -1087.041)" fill="#492a2c"/>
    <path id="Path_75210" data-name="Path 75210" d="M511.255,1304.672H444.046l7.237-44.625a2.354,2.354,0,0,1,2.324-1.977h62.439a2.354,2.354,0,0,1,2.324,2.731Z" transform="translate(-384.47 -1089.278)" fill="#fff"/>
    <path id="Path_75211" data-name="Path 75211" d="M509.016,1302.782H441.808a.347.347,0,0,1-.343-.4l7.238-44.625a2.689,2.689,0,0,1,2.666-2.268h62.439a2.7,2.7,0,0,1,2.666,3.133l-7.115,43.871a.347.347,0,0,1-.342.292m-66.8-.694h66.5l7.069-43.58a2.007,2.007,0,0,0-1.982-2.328H451.369a2,2,0,0,0-1.981,1.685Z" transform="translate(-382.232 -1087.041)" fill="#492a2c"/>
    <path id="Path_75212" data-name="Path 75212" d="M732.517,1286.735c-.2,2.28-1.793,4.128-3.561,4.128s-3.038-1.848-2.838-4.128,1.794-4.127,3.561-4.127,3.037,1.848,2.838,4.127" transform="translate(-628.679 -1110.524)"/>
    <path id="Path_75213" data-name="Path 75213" d="M2407.2,1580h50.276v-2.538a1.4,1.4,0,0,0-1.4-1.4H2407.2Z" transform="translate(-2084.235 -1364.601)" fill="#492a2c"/>
    <path id="Path_75214" data-name="Path 75214" d="M1927.75,1304.672h67.209l-7.237-44.625a2.354,2.354,0,0,0-2.324-1.977h-62.438a2.354,2.354,0,0,0-2.324,2.731Z" transform="translate(-1662.923 -1089.278)" fill="#492a2c"/>
    <path id="Path_75215" data-name="Path 75215" d="M1925.172,1302.49l-7.115-43.871a2.7,2.7,0,0,1,2.666-3.133h62.438a2.691,2.691,0,0,1,2.666,2.268l7.237,44.625a.346.346,0,0,1-.342.4h-67.208a.346.346,0,0,1-.342-.292m59.971-44.625a2,2,0,0,0-1.982-1.685h-62.438a2.006,2.006,0,0,0-1.981,2.328l7.068,43.58h66.5Z" transform="translate(-1660.687 -1087.041)" fill="#492a2c"/>
    <path id="Path_75216" data-name="Path 75216" d="M1905.218,1304.672h67.209l-7.237-44.625a2.354,2.354,0,0,0-2.324-1.977h-62.438a2.354,2.354,0,0,0-2.324,2.731Z" transform="translate(-1643.413 -1089.278)" fill="#fff"/>
    <path id="Path_75217" data-name="Path 75217" d="M1902.639,1302.49l-7.115-43.871a2.7,2.7,0,0,1,2.666-3.133h62.438a2.689,2.689,0,0,1,2.666,2.268l7.238,44.625a.347.347,0,0,1-.343.4h-67.208a.347.347,0,0,1-.342-.292m59.971-44.625a2,2,0,0,0-1.982-1.685H1898.19a2.007,2.007,0,0,0-1.982,2.328l7.069,43.58h66.5Z" transform="translate(-1641.177 -1087.041)" fill="#492a2c"/>
    <path id="Path_75218" data-name="Path 75218" d="M2122.236,1286.735c.2,2.28,1.793,4.128,3.561,4.128s3.038-1.848,2.838-4.128-1.793-4.127-3.56-4.127-3.038,1.848-2.838,4.127" transform="translate(-1837.484 -1110.524)"/>
    <path id="Path_75219" data-name="Path 75219" d="M880.181,589.645a7.477,7.477,0,0,0,.937-1.259l1.654.019a8.876,8.876,0,0,0,.544-1.491l-1.269-1.058a7.481,7.481,0,0,0-.122-3.112l1.182-1.155a8.851,8.851,0,0,0-.66-1.444l-1.647.149a7.4,7.4,0,0,0-2.292-2.118l.019-1.654a8.834,8.834,0,0,0-1.491-.544l-1.058,1.269a7.485,7.485,0,0,0-3.113.122l-1.155-1.182a8.857,8.857,0,0,0-1.444.66l.149,1.648a7.4,7.4,0,0,0-2.118,2.291l-1.654-.019a8.865,8.865,0,0,0-.544,1.491l1.269,1.058a7.481,7.481,0,0,0,.122,3.113l-1.182,1.155a8.886,8.886,0,0,0,.66,1.444l1.648-.149A7.4,7.4,0,0,0,870.908,591l-.019,1.654a8.875,8.875,0,0,0,1.491.544l1.058-1.269a7.482,7.482,0,0,0,3.113-.122l1.155,1.182a8.877,8.877,0,0,0,1.444-.66L879,590.678a7.484,7.484,0,0,0,1.181-1.033m-7.487-2.879a2.968,2.968,0,1,1,4.194-.165,2.968,2.968,0,0,1-4.194.165" transform="translate(-749.898 -498.701)" fill="#fff"/>
    <path id="Path_75220" data-name="Path 75220" d="M870.242,591.414l-.009,0a9.209,9.209,0,0,1-1.545-.565.32.32,0,0,1-.182-.293l.017-1.472a7.705,7.705,0,0,1-2.122-1.961l-1.466.133a.318.318,0,0,1-.306-.159,9.2,9.2,0,0,1-.684-1.495.32.32,0,0,1,.078-.336l1.052-1.027a7.734,7.734,0,0,1-.114-2.882l-1.129-.941a.321.321,0,0,1-.1-.329,9.194,9.194,0,0,1,.564-1.545.319.319,0,0,1,.293-.183l1.472.016a7.7,7.7,0,0,1,1.962-2.121l-.133-1.466a.32.32,0,0,1,.16-.307,9.261,9.261,0,0,1,1.5-.683.322.322,0,0,1,.336.078l1.027,1.052a7.73,7.73,0,0,1,2.882-.113l.941-1.13a.306.306,0,0,1,.33-.1,9.21,9.21,0,0,1,1.545.565.32.32,0,0,1,.182.293l-.017,1.472a7.7,7.7,0,0,1,2.122,1.961l1.466-.133a.32.32,0,0,1,.306.159,9.1,9.1,0,0,1,.684,1.5.319.319,0,0,1-.078.336l-1.051,1.027a7.731,7.731,0,0,1,.113,2.883l1.129.941a.321.321,0,0,1,.1.329,9.285,9.285,0,0,1-.564,1.544.319.319,0,0,1-.293.183l-1.472-.017a7.844,7.844,0,0,1-.879,1.153h0a7.82,7.82,0,0,1-1.081.968l.133,1.466a.319.319,0,0,1-.159.306,9.129,9.129,0,0,1-1.5.684.317.317,0,0,1-.336-.078l-1.027-1.052a7.738,7.738,0,0,1-2.882.113l-.941,1.13a.321.321,0,0,1-.32.107m-1.094-1.06a8.487,8.487,0,0,0,1.056.385l.925-1.11a.321.321,0,0,1,.3-.111,7.129,7.129,0,0,0,2.98-.117.316.316,0,0,1,.308.086l1.01,1.033a8.487,8.487,0,0,0,1.023-.466l-.131-1.44a.319.319,0,0,1,.134-.29,7.068,7.068,0,0,0,2.027-2.193.319.319,0,0,1,.279-.156l1.446.017a8.659,8.659,0,0,0,.384-1.056l-1.11-.925a.32.32,0,0,1-.111-.3,7.114,7.114,0,0,0-.117-2.98.319.319,0,0,1,.087-.307l1.033-1.009a8.453,8.453,0,0,0-.466-1.023l-1.44.131a.324.324,0,0,1-.29-.134,7.078,7.078,0,0,0-2.194-2.027.32.32,0,0,1-.156-.279l.017-1.446a8.468,8.468,0,0,0-1.056-.385l-.925,1.11a.321.321,0,0,1-.3.111,7.111,7.111,0,0,0-2.98.117.315.315,0,0,1-.308-.086l-1.009-1.034a8.577,8.577,0,0,0-1.023.466l.131,1.44a.319.319,0,0,1-.134.29,7.079,7.079,0,0,0-2.027,2.193.319.319,0,0,1-.279.156L864.785,579a8.575,8.575,0,0,0-.385,1.056l1.11.925a.319.319,0,0,1,.11.3,7.123,7.123,0,0,0,.118,2.98.319.319,0,0,1-.087.308l-1.034,1.01a8.658,8.658,0,0,0,.466,1.023l1.44-.131a.32.32,0,0,1,.29.134,7.085,7.085,0,0,0,2.194,2.027.319.319,0,0,1,.156.279Zm8.97-2.8.008,0Zm-6.243-1.861a3.3,3.3,0,1,1,.9.087,3.31,3.31,0,0,1-.9-.087m1.391-5.773a2.663,2.663,0,0,0-.724-.071,2.647,2.647,0,0,0-1.693,4.59h0a2.647,2.647,0,0,0,3.741-.146,2.65,2.65,0,0,0-1.324-4.373" transform="translate(-747.835 -496.609)" fill="#492a2c"/>
    <path id="Path_75221" data-name="Path 75221" d="M1908.711,567.5a.322.322,0,0,1-.159-.043,4.006,4.006,0,0,1-1.762-2.078.32.32,0,1,1,.6-.222,3.369,3.369,0,0,0,1.481,1.746.32.32,0,0,1-.159.6m4.639-.832a.32.32,0,0,1-.246-.526,3.353,3.353,0,0,0,.782-2.151.342.342,0,0,1,.32-.345.3.3,0,0,1,.319.294h-.32l.321.039a4.005,4.005,0,0,1-.93,2.573.32.32,0,0,1-.245.115m-4.681-5.521a.32.32,0,0,1-.163-.6,4.061,4.061,0,0,1,2.679-.5.32.32,0,1,1-.1.631,3.423,3.423,0,0,0-2.25.419.319.319,0,0,1-.162.044" transform="translate(-1650.943 -484.868)" fill="#492a2c"/>
    <path id="Path_75222" data-name="Path 75222" d="M1113.454,413.034a.323.323,0,0,1-.159-.043,4.006,4.006,0,0,1-1.762-2.078.32.32,0,1,1,.6-.222,3.37,3.37,0,0,0,1.481,1.746.32.32,0,0,1-.159.6m4.639-.832a.32.32,0,0,1-.246-.526,3.353,3.353,0,0,0,.782-2.151.342.342,0,0,1,.32-.345.3.3,0,0,1,.319.294h-.32l.32.039a4,4,0,0,1-.93,2.573.32.32,0,0,1-.246.115m-4.681-5.521a.32.32,0,0,1-.162-.6,4.06,4.06,0,0,1,2.678-.5.32.32,0,1,1-.1.631,3.423,3.423,0,0,0-2.25.419.319.319,0,0,1-.162.044" transform="translate(-962.384 -351.126)" fill="#492a2c"/>
    <path id="Path_75223" data-name="Path 75223" d="M1117.506,721.9a7.471,7.471,0,0,0,1.56-.166l1.109,1.228a8.855,8.855,0,0,0,1.464-.612l-.084-1.65a7.484,7.484,0,0,0,2.2-2.2l1.65.084a8.858,8.858,0,0,0,.612-1.464l-1.228-1.109a7.4,7.4,0,0,0,0-3.12l1.228-1.109a8.846,8.846,0,0,0-.612-1.465l-1.65.084a7.484,7.484,0,0,0-2.2-2.2l.084-1.65a8.861,8.861,0,0,0-1.464-.612l-1.109,1.228a7.4,7.4,0,0,0-3.12,0l-1.109-1.228a8.864,8.864,0,0,0-1.464.613l.084,1.65a7.48,7.48,0,0,0-2.2,2.2l-1.65-.084a8.888,8.888,0,0,0-.613,1.465l1.228,1.109a7.4,7.4,0,0,0,0,3.12l-1.228,1.109a8.87,8.87,0,0,0,.613,1.464l1.65-.084a7.483,7.483,0,0,0,2.2,2.2l-.084,1.65a8.859,8.859,0,0,0,1.464.613l1.109-1.228a7.473,7.473,0,0,0,1.56.166m-3.5-7.453a3.5,3.5,0,1,1,3.5,3.5,3.5,3.5,0,0,1-3.5-3.5" transform="translate(-960.202 -611.22)" fill="#e1b44c"/>
    <path id="Path_75224" data-name="Path 75224" d="M1059.95,777.675a4.873,4.873,0,0,0,.972.317l.333,1.026a5.774,5.774,0,0,0,1.035.026l.389-1a4.872,4.872,0,0,0,1.9-.724l.96.489a5.785,5.785,0,0,0,.754-.708l-.436-.987a4.815,4.815,0,0,0,.831-1.857l1.026-.333a5.732,5.732,0,0,0,.025-1.034l-1-.389a4.879,4.879,0,0,0-.724-1.9l.49-.96a5.793,5.793,0,0,0-.708-.754l-.987.436a4.827,4.827,0,0,0-1.857-.831l-.333-1.026a5.782,5.782,0,0,0-1.034-.026l-.389,1a4.877,4.877,0,0,0-1.9.724l-.96-.49a5.772,5.772,0,0,0-.754.708l.436.987a4.823,4.823,0,0,0-.831,1.857l-1.026.333a5.779,5.779,0,0,0-.026,1.035l1,.389a4.879,4.879,0,0,0,.724,1.9l-.489.96a5.767,5.767,0,0,0,.708.754l.987-.436a4.854,4.854,0,0,0,.884.514m-.1-5.367a2.283,2.283,0,1,1,1.152,3.017,2.283,2.283,0,0,1-1.152-3.017" transform="translate(-914.423 -664.462)" fill="#fff"/>
    <path id="Path_75225" data-name="Path 75225" d="M1053.735,771.154a5.988,5.988,0,0,1,.039-.693.322.322,0,0,1,.219-.267l.854-.277a5.129,5.129,0,0,1,.736-1.644l-.363-.821a.321.321,0,0,1,.052-.341,6.108,6.108,0,0,1,.8-.748.32.32,0,0,1,.344-.034l.8.407a5.155,5.155,0,0,1,1.679-.642l.324-.836a.319.319,0,0,1,.278-.2,6.232,6.232,0,0,1,1.092.027.322.322,0,0,1,.267.219l.277.854a5.118,5.118,0,0,1,1.644.736l.821-.362a.321.321,0,0,1,.341.052,6.126,6.126,0,0,1,.748.8.315.315,0,0,1,.034.343l-.408.8a5.154,5.154,0,0,1,.642,1.68l.835.324a.32.32,0,0,1,.2.277,5.929,5.929,0,0,1-.026,1.093.322.322,0,0,1-.219.267l-.854.277a5.143,5.143,0,0,1-.295.854,5.2,5.2,0,0,1-.441.79l.362.821a.315.315,0,0,1-.052.341,6.123,6.123,0,0,1-.8.748.32.32,0,0,1-.344.034l-.8-.407a5.152,5.152,0,0,1-1.68.642l-.324.836a.32.32,0,0,1-.278.2,6.22,6.22,0,0,1-1.092-.027.322.322,0,0,1-.267-.219l-.277-.854a5.2,5.2,0,0,1-.854-.3,5.136,5.136,0,0,1-.79-.441l-.821.363a.32.32,0,0,1-.341-.053,6.109,6.109,0,0,1-.748-.8.318.318,0,0,1-.034-.344l.408-.8a5.158,5.158,0,0,1-.642-1.68l-.836-.324a.319.319,0,0,1-.2-.278c-.008-.134-.013-.267-.013-.4m.656-.416a5.474,5.474,0,0,0-.014.572l.811.314a.319.319,0,0,1,.2.249,4.526,4.526,0,0,0,.677,1.773.323.323,0,0,1,.016.319l-.394.773a5.412,5.412,0,0,0,.391.417l.795-.351a.32.32,0,0,1,.318.034,4.5,4.5,0,0,0,1.735.776.32.32,0,0,1,.237.214l.268.826a5.528,5.528,0,0,0,.572.014l.314-.81a.319.319,0,0,1,.249-.2,4.529,4.529,0,0,0,1.772-.677.32.32,0,0,1,.319-.016l.774.394a5.413,5.413,0,0,0,.417-.391l-.35-.795a.316.316,0,0,1,.034-.318,4.482,4.482,0,0,0,.776-1.735.321.321,0,0,1,.215-.237l.826-.268a5.076,5.076,0,0,0,.013-.572l-.81-.314a.32.32,0,0,1-.2-.249,4.524,4.524,0,0,0-.677-1.773.315.315,0,0,1-.016-.319l.395-.773a5.461,5.461,0,0,0-.391-.417l-.795.351a.32.32,0,0,1-.318-.034,4.613,4.613,0,0,0-.827-.481,4.526,4.526,0,0,0-.908-.295.32.32,0,0,1-.237-.214l-.268-.827a5.6,5.6,0,0,0-.572-.014l-.314.81a.319.319,0,0,1-.249.2,4.529,4.529,0,0,0-1.773.677.321.321,0,0,1-.319.016l-.774-.394a5.529,5.529,0,0,0-.417.391l.351.795a.314.314,0,0,1-.034.318,4.626,4.626,0,0,0-.481.827,4.532,4.532,0,0,0-.295.908.321.321,0,0,1-.214.237Zm2.875.439a2.609,2.609,0,1,1,.172.929,2.587,2.587,0,0,1-.172-.929m4.569,0a1.968,1.968,0,1,0-.172.8,1.961,1.961,0,0,0,.172-.8" transform="translate(-912.359 -662.399)" fill="#492a2c"/>
    <path id="Path_75226" data-name="Path 75226" d="M1658.786,352.43a7.489,7.489,0,0,0-.166-1.56l1.228-1.109a8.865,8.865,0,0,0-.613-1.465l-1.65.084a7.485,7.485,0,0,0-2.2-2.2l.085-1.65a8.877,8.877,0,0,0-1.465-.612l-1.109,1.228a7.4,7.4,0,0,0-3.12,0l-1.108-1.228a8.852,8.852,0,0,0-1.464.612l.084,1.65a7.483,7.483,0,0,0-2.2,2.2l-1.65-.084a8.853,8.853,0,0,0-.612,1.465l1.228,1.108a7.4,7.4,0,0,0,0,3.12l-1.228,1.109a8.855,8.855,0,0,0,.613,1.464l1.65-.084a7.48,7.48,0,0,0,2.2,2.2l-.084,1.65a8.886,8.886,0,0,0,1.464.612l1.109-1.228a7.4,7.4,0,0,0,3.12,0l1.109,1.228a8.9,8.9,0,0,0,1.465-.612l-.085-1.65a7.485,7.485,0,0,0,2.2-2.2l1.65.084a8.876,8.876,0,0,0,.613-1.464l-1.228-1.109a7.489,7.489,0,0,0,.166-1.56m-7.453,3.5a3.5,3.5,0,1,1,3.5-3.5,3.5,3.5,0,0,1-3.5,3.5" transform="translate(-1422.407 -297.774)" fill="#ed6a69"/>
    <path id="Path_75227" data-name="Path 75227" d="M1714.561,444.83a4.878,4.878,0,0,0,.316-.972l1.026-.333a5.79,5.79,0,0,0,.026-1.035l-1-.389a4.874,4.874,0,0,0-.724-1.9l.489-.959a5.779,5.779,0,0,0-.708-.755l-.987.435a4.821,4.821,0,0,0-1.857-.831l-.333-1.026a5.753,5.753,0,0,0-1.035-.026l-.389,1a4.879,4.879,0,0,0-1.9.724l-.96-.49a5.793,5.793,0,0,0-.754.708l.435.987a4.829,4.829,0,0,0-.831,1.857l-1.026.333a5.789,5.789,0,0,0-.026,1.034l1,.389a4.879,4.879,0,0,0,.724,1.9l-.49.96a5.756,5.756,0,0,0,.708.755l.987-.436a4.822,4.822,0,0,0,1.857.831l.333,1.026a5.785,5.785,0,0,0,1.034.026l.389-1a4.88,4.88,0,0,0,1.9-.724l.96.489a5.775,5.775,0,0,0,.755-.708l-.436-.987a4.875,4.875,0,0,0,.514-.884m-5.367.1a2.283,2.283,0,1,1,3.017-1.152,2.283,2.283,0,0,1-3.017,1.152" transform="translate(-1475.649 -378.396)" fill="#fff"/>
    <path id="Path_75228" data-name="Path 75228" d="M1708.039,446.911a5.97,5.97,0,0,1-.693-.039.322.322,0,0,1-.267-.219l-.277-.854a5.185,5.185,0,0,1-.854-.3,5.131,5.131,0,0,1-.79-.441l-.821.363a.322.322,0,0,1-.341-.053,6.135,6.135,0,0,1-.748-.8.32.32,0,0,1-.034-.343l.408-.8a5.152,5.152,0,0,1-.642-1.68l-.836-.324a.32.32,0,0,1-.2-.278,6.248,6.248,0,0,1,.027-1.092.322.322,0,0,1,.219-.267l.854-.277a5.114,5.114,0,0,1,.736-1.644l-.362-.821a.32.32,0,0,1,.053-.341,6.1,6.1,0,0,1,.8-.748.315.315,0,0,1,.343-.034l.8.408a5.155,5.155,0,0,1,1.68-.642l.324-.835a.319.319,0,0,1,.277-.2,5.917,5.917,0,0,1,1.093.026.322.322,0,0,1,.267.219l.277.854a5.106,5.106,0,0,1,1.644.736l.821-.362a.315.315,0,0,1,.341.052,6.111,6.111,0,0,1,.748.8.319.319,0,0,1,.034.344l-.407.8a5.143,5.143,0,0,1,.642,1.68l.836.324a.32.32,0,0,1,.2.278,6.214,6.214,0,0,1-.027,1.092.321.321,0,0,1-.219.267l-.854.277a5.205,5.205,0,0,1-.3.854,5.144,5.144,0,0,1-.441.79l.363.821a.32.32,0,0,1-.053.341,6.1,6.1,0,0,1-.8.748.318.318,0,0,1-.343.034l-.8-.407a5.16,5.16,0,0,1-1.68.642l-.324.836a.32.32,0,0,1-.278.2c-.134.008-.267.012-.4.012m-.416-.656a5.458,5.458,0,0,0,.572.014l.314-.811a.32.32,0,0,1,.249-.2,4.524,4.524,0,0,0,1.773-.677.323.323,0,0,1,.319-.016l.774.394a5.479,5.479,0,0,0,.418-.391l-.351-.795a.32.32,0,0,1,.034-.318,4.5,4.5,0,0,0,.776-1.735.32.32,0,0,1,.214-.237l.826-.268a5.543,5.543,0,0,0,.014-.572l-.81-.314a.319.319,0,0,1-.2-.249,4.524,4.524,0,0,0-.677-1.772.321.321,0,0,1-.016-.319l.394-.773a5.431,5.431,0,0,0-.391-.417l-.795.35a.316.316,0,0,1-.318-.034,4.49,4.49,0,0,0-1.735-.776.32.32,0,0,1-.237-.214l-.268-.827a5.161,5.161,0,0,0-.573-.013l-.314.81a.32.32,0,0,1-.249.2,4.525,4.525,0,0,0-1.773.677.315.315,0,0,1-.319.016l-.773-.394a5.467,5.467,0,0,0-.417.391l.351.795a.32.32,0,0,1-.034.318,4.608,4.608,0,0,0-.481.827,4.538,4.538,0,0,0-.3.908.319.319,0,0,1-.214.237l-.827.268a5.624,5.624,0,0,0-.014.572l.81.314a.319.319,0,0,1,.2.249,4.526,4.526,0,0,0,.677,1.773.321.321,0,0,1,.016.319l-.394.773a5.5,5.5,0,0,0,.391.418l.795-.351a.314.314,0,0,1,.318.034,4.619,4.619,0,0,0,.827.481,4.546,4.546,0,0,0,.909.295.321.321,0,0,1,.237.214Zm.439-2.875a2.608,2.608,0,1,1,.929-.172,2.59,2.59,0,0,1-.929.172m0-4.569a1.968,1.968,0,1,0,.8.173,1.96,1.96,0,0,0-.8-.173" transform="translate(-1473.586 -376.327)" fill="#492a2c"/>
    <path id="Path_75229" data-name="Path 75229" d="M404.653,1603.521H.347a.347.347,0,1,1,0-.694H404.653a.347.347,0,1,1,0,.694" transform="translate(0 -1387.78)" fill="#492a2c"/>
  </g>
</svg>
