<svg xmlns="http://www.w3.org/2000/svg" width="405" height="227.405" viewBox="0 0 405 227.405">
  <g id="Group_77847" data-name="Group 77847" transform="translate(-450 -3188)">
    <path id="Path_75023" data-name="Path 75023" d="M1793.792,1444.712c-4.478-3.272-13.629-1.063-20.382,1.3a30.807,30.807,0,0,0-3.712-4.307c14.548-9.372,34.642-29.358,23.992-31.05-9.258-1.471-21.752,16.519-28.429,27.471-6.934-4.665-17.559-8.094-33.781-6.9-42.1,3.086-74.989-24.07-99.233-15.013-19.276,7.2-36.941,11.236-53.977,9.858.733-12.446.892-36.882-8.88-39.417-9.922-2.574-.19,25.177,5.219,39.034q-1.9-.243-3.8-.581c-3.5-6.906-9.274-15.944-15.612-16.253-5.968-.291,1.4,7.834,8.647,14.718-20.834-4.374-45.548,12.562-45.958,32.586h260.1a24.108,24.108,0,0,0-2.5-6.777c10.053-.2,23.169-1.11,18.3-4.665" transform="translate(-941.682 1959.247)" fill="#d6eeff"/>
    <rect id="Rectangle_17077" data-name="Rectangle 17077" width="68.553" height="15.48" transform="translate(565.525 3399.924)" fill="#0a3457" opacity="0.9"/>
    <rect id="Rectangle_17078" data-name="Rectangle 17078" width="68.553" height="15.481" transform="translate(544.496 3399.924)" fill="#0a3457"/>
    <rect id="Rectangle_17079" data-name="Rectangle 17079" width="51.046" height="71.349" transform="translate(660.611 3344.052)" fill="#003457" opacity="0.9"/>
    <rect id="Rectangle_17080" data-name="Rectangle 17080" width="51.046" height="71.349" transform="translate(644.948 3344.052)" fill="#003457"/>
    <path id="Path_75025" data-name="Path 75025" d="M1107.76,1457.848s-7.722,5.742-9.228,5.394,5.643-6.2,5.643-6.2c-2.69-1.293-11.053-.482-11.053-.482s-2.785,8.983-4.159,8.274,2.872-7.828,2.872-7.828c-3-.18-6.671,2.044-6.671,2.044-5.031,3.973.331,10.228.331,10.228a15.288,15.288,0,0,1-4.21,5.908,13.274,13.274,0,0,0-4.852,9.352l.823.073s1.306-5.584,3.678-8.225c.092-.1.226-.233.392-.4.387-.358.657-.627.839-.826,1.181-1.135,2.813-2.58,3.6-2.72a1.513,1.513,0,0,1-.034-.4c.011.126.022.256.034.4.269,3.161,6.4,5.922,10.176,6.49s2.607-.983,1.307-3.283-5.414-3.328-6.353-4.387,1-1.061,3.275-.023,2.584,3.807,6.231,5.553,9.134-4.305,9.134-4.305c-2.906-.147-7.057-3.3-6.907-4.269s7.045,1.666,8.224,1.792,3.861-1.34,4.276-6.088-7.368-6.072-7.368-6.072" transform="translate(-585.465 1912.623)" fill="#5cae48"/>
    <path id="Path_75026" data-name="Path 75026" d="M818.439,1358.479s8.529-4.776,4.549-11.258c0,0-3.184-3.98-6.6-5,0,0,1.819,9.666,0,9.893s-1.251-10.917-1.251-10.917-8.984-4.321-12.509-3.98c0,0,5.572,9.439,3.753,9.211s-8.074-9.779-8.074-9.779-9.211-1.706-10.69,3.752.91,8.188,2.274,8.529,10.121.227,9.893,1.365-6.141,2.957-9.439,1.933c0,0,3.639,8.984,8.415,8.529s6.255-3.411,9.211-3.639,5.117.569,3.639,1.365-6.482.261-8.87,2.291-4.321,3.281.114,4.191,12.4.341,13.987-3.07Z" transform="translate(-337.155 2015.557)" fill="#5cae48"/>
    <path id="Path_75027" data-name="Path 75027" d="M849.042,1401.394a18.141,18.141,0,0,1-2.274-8.3c-2.729-8.643-26.61-16.375-26.61-16.375,30.362,12.281,25.018,19.787,25.018,19.787.818.477,2.045,2.753,2.9,4.5.121.3.313.708.6,1.267.116.252.208.459.272.6,1.563,3.911.735,10.667.735,10.667l.948.255a15.751,15.751,0,0,0-1.583-12.4" transform="translate(-365.484 1980.944)" fill="#3e902a"/>
    <path id="Path_75028" data-name="Path 75028" d="M1059.068,1269.373s-11.243-6.3-6-14.84c0,0,4.2-5.247,8.694-6.6,0,0-2.4,12.741,0,13.041s1.649-14.391,1.649-14.391,11.842-5.7,16.489-5.246c0,0-7.345,12.442-4.947,12.142s10.643-12.891,10.643-12.891,12.142-2.248,14.091,4.947-1.2,10.793-3,11.242-13.341.3-13.041,1.8,8.095,3.9,12.442,2.548c0,0-4.8,11.842-11.093,11.243s-8.245-4.5-12.142-4.8-6.745.75-4.8,1.8,8.545.344,11.692,3.02,5.7,4.325-.15,5.524-16.339.45-18.438-4.047Z" transform="translate(-564.215 2098.076)" fill="#76c463"/>
    <path id="Path_75029" data-name="Path 75029" d="M1102.952,1293.414s-31.479,10.193-35.077,21.586a23.914,23.914,0,0,1-3,10.943,20.762,20.762,0,0,0-2.087,16.346l1.249-.336s-1.092-8.9.969-14.06c.084-.19.206-.462.358-.795.376-.736.629-1.278.789-1.67,1.123-2.3,2.74-5.3,3.818-5.931,0,0-7.045-9.893,32.978-26.083" transform="translate(-573.023 2052.45)" fill="#5cae48"/>
    <path id="Path_75030" data-name="Path 75030" d="M967.71,1642.45a22.022,22.022,0,0,0,22.022-22.022H945.687a22.022,22.022,0,0,0,22.023,22.022" transform="translate(-473.236 1771.747)" fill="#003457"/>
    <path id="Path_75031" data-name="Path 75031" d="M989.4,1642.281a22.04,22.04,0,0,1-24.758-21.854h5.471a22.026,22.026,0,0,0,19.287,21.854" transform="translate(-489.504 1771.748)" fill="#204d72"/>
    <path id="Path_75032" data-name="Path 75032" d="M985.475,1765.239H946.256a2.717,2.717,0,0,0-2.717,2.717h44.653a2.717,2.717,0,0,0-2.717-2.717" transform="translate(-471.392 1647.444)" fill="#0a3457"/>
    <path id="Path_75033" data-name="Path 75033" d="M985.505,1620.427H940.911a.338.338,0,0,0,0,.676h44.594a.338.338,0,0,0,0-.676" transform="translate(-468.846 1771.748)" fill="#0a3457"/>
    <path id="Path_75034" data-name="Path 75034" d="M2240.911,782.943c-.789-.12-3.167,2.079-3.167,2.079-5.078.586-12.5,1.935-15.174,2.449-1.9.365-6.99-1.372-11.966-3.366-5.919-2.373-11.671-5.11-11.671-5.11-3.284-.167-7.014,5.825-.354,9.634,1.017.582,4.837,1.574,9.236,2.481h0c6.069,1.25,13.238,2.336,15.678,1.954,2.835-.443,10.859-3.379,15.632-5.627h0l.012-.006.053-.025a5.838,5.838,0,0,1,2.234-.608,4.991,4.991,0,0,0,2.947-2.02c.061-.437-2.673-1.715-3.462-1.834" transform="translate(-1499.613 2460.38)" fill="#ea8888"/>
    <path id="Path_75035" data-name="Path 75035" d="M2186.227,990.4l-2.8.568s-12.794-14.375-14.768-20.424c-1.057-3.233-7.811-4.63-14.869-6.454-6.144-1.589-12.518-3.5-15.562-7.237-6.544-8.023,4.109-17.882,4.109-17.882s11.326,6.732,21.1,13.686c6.829,4.86,12.9,9.829,13.814,12.684,2.221,6.944,6.932,20.144,8.974,25.058" transform="translate(-1451.081 2328.405)" fill="#0a3457"/>
    <path id="Path_75036" data-name="Path 75036" d="M2394.987,1232.946h1.572c.527-.083.916-.235,1.456-.306a1.458,1.458,0,0,1,1.273.306l.015.016h6.68c.168-.24.007-.8-.151-1.205a.949.949,0,0,0-.625-.572,7.209,7.209,0,0,1-3.384-1.546c-.719-.65-3.475-2.391-3.475-2.391l-.015,0c-.061,0-.348.09-1.6,1.148-.648.546-1.752-.771-1.752-.771a1.572,1.572,0,0,0-.362.491,1.664,1.664,0,0,0-.144,1.026,6.645,6.645,0,0,1-.479,2.477c-.156.458-.287.784-.287.784s-.075.378,1.278.547" transform="translate(-1663.671 2090.606)" fill="#060632"/>
    <path id="Path_75037" data-name="Path 75037" d="M2163.439,952.662l-9.645,11.432c-6.144-1.588-12.518-3.5-15.562-7.236-6.544-8.023,4.109-17.882,4.109-17.882s11.326,6.731,21.1,13.686" transform="translate(-1451.012 2328.405)" fill="#072641"/>
    <path id="Path_75038" data-name="Path 75038" d="M2095.748,962.576s-.778,2.452-2.043,6.141c-1.6,4.664-3.985,11.305-6.57,17.464-.568,1.353-1.147,2.684-1.729,3.965-2.15,4.739-4.352,8.8-6.29,10.867-3.483,3.711-11.949,27.573-11.949,27.573l-2.11-.584s-2.941-20.376,7.478-31.97a.737.737,0,0,0,.211-.433,0,0,0,0,0,0,0c.139-1.716.635-9.4,1.713-17.19.265-1.911.565-3.826.9-5.662.021-.118.044-.234.065-.349,1.585-8.487,3.1-12.262,5.062-14.161l14.405,4.1Z" transform="translate(-1392.039 2312.52)" fill="#0a3457"/>
    <path id="Path_75039" data-name="Path 75039" d="M2059.493,1349.95h1.573c.527-.083.916-.236,1.456-.306a1.456,1.456,0,0,1,1.273.306.11.11,0,0,1,.014.016h6.681c.168-.24.007-.8-.152-1.2a.948.948,0,0,0-.625-.572,7.2,7.2,0,0,1-3.384-1.546c-.719-.65-3.475-2.391-3.475-2.391l-.014,0c-.06,0-.348.09-1.6,1.148-.648.546-1.752-.771-1.752-.771a1.566,1.566,0,0,0-.363.491,1.662,1.662,0,0,0-.143,1.026,6.64,6.64,0,0,1-.479,2.477c-.156.458-.287.783-.287.783s-.075.378,1.278.547" transform="translate(-1386.657 1994.087)" fill="#060632"/>
    <path id="Path_75040" data-name="Path 75040" d="M1942.912,820.341s-2.41,5.9-5.189,11.636c-2.337,4.825-4.935,9.539-6.581,10.545-2.322,1.419-8.719,5.42-12.869,8.4,0,0-3.238-.025-3.742.6s-1.664,3.406-1.325,3.687a4.991,4.991,0,0,0,3.539-.49,5.841,5.841,0,0,1,2.062-1.055l.056-.017.013,0h0c5.042-1.551,12.952-4.783,15.346-6.364,2.062-1.361,6.632-6.99,10.277-12h0c2.643-3.632,4.8-6.938,5.16-8.052,2.36-7.3-4.432-9.22-6.748-6.886" transform="translate(-1266.932 2427.045)" fill="#fc9290"/>
    <path id="Path_75041" data-name="Path 75041" d="M2090.288,650.809a12.1,12.1,0,0,0-.864-1.116,2.71,2.71,0,0,0,1.064-.16c.846-.35,1.232-3.036,1.1-3.832s-1.3-3.1-2.751-3.33-2.947,1.38-2.947,1.38c.268-1.162,2.719-1.832,2.719-1.832-5.051.931-4.793,4.3-4.758,4.611-4.624-1.647-7.338,7.059-7.338,7.059l11.976,7.057s.032-1.923,1.174-1.8c1.782.193,3.265-4.182.619-8.038" transform="translate(-1401.778 2573.454)"/>
    <path id="Path_75042" data-name="Path 75042" d="M2118.368,751.907c-2.748,1.295-6.394-.57-6.375-.59.236-.235.153-.941-.063-1.863a13.582,13.582,0,0,0-1.668-3.847c-.2-.334-.392-.667-.628-1.021l.314-.117,5.339-2.139s.863,1.55,1.766,2.964c.765,1.178,1.57,2.237,1.924,2.2.019-.02,3.552,2.414-.608,4.416" transform="translate(-1429.109 2490.623)" fill="#fc9290"/>
    <path id="Path_75043" data-name="Path 75043" d="M2118.247,745.355c-.137,1.9-.785,5.339-3.356,6.595a13.582,13.582,0,0,0-1.668-3.847Z" transform="translate(-1432.058 2488.127)" fill="#ea8888"/>
    <path id="Path_75044" data-name="Path 75044" d="M2083.532,710.159s6.95-2.74,5.177-7.042-2.07-7.553-6.582-5.986-4.693,3.562-4.45,5.142,4,8.487,5.855,7.886" transform="translate(-1402.668 2528.238)" fill="#fc9290"/>
    <path id="Path_75045" data-name="Path 75045" d="M2082.088,700.023c3.209-.453,4.146-1.75,4.146-1.75a8.888,8.888,0,0,1-4.692-3.742s-3.607-1.216-6.28.817a1.8,1.8,0,0,0-.338.754c-.612-.2-1.534-.149-2.065,1.583-.8,2.6,2.042,5.441,2.042,5.441.688-.195-.089-2.513-.2-3.75a5.856,5.856,0,0,1,.677-2.629c.34.441,3.726,4.7,7.859,4.866a17.436,17.436,0,0,1-4.171-2.24,5.335,5.335,0,0,0,3.02.65" transform="translate(-1398.634 2530.351)"/>
    <path id="Path_75046" data-name="Path 75046" d="M2092.912,781.71c-.059-.208-.122-.423-.188-.644a16.294,16.294,0,0,0,1.754-5.256,10.547,10.547,0,0,0-.333-5.143s-4.822-2.557-6.95-2.882a.128.128,0,0,0-.027-.008c-.025,0-.054-.006-.085-.008-2.149-.3-6.8.653-6.8.653a3.367,3.367,0,0,1-1.635,3.982c-2.531,1.592-5.236-.408-5.236-.408-.082.055-.168.115-.258.178h0s-6.662,4.4-7.26,5.4-3.16,5.978-3.16,5.978.813,4.175,9.812,4.524a20.774,20.774,0,0,1,1.49,5c.715,5.667-.115,10.138.718,13.446s15.848,1.422,18.567.785,2.107-3.54,2.317-6.361c.263-3.544-1.84-16.115-2.726-19.241" transform="translate(-1390.442 2469.684)" fill="#f05a2a"/>
    <path id="Path_75047" data-name="Path 75047" d="M2222.779,807.859a16.308,16.308,0,0,1-1.767,5.279c-.235-1.04-1.2-4.848-2.747-6.575a13.306,13.306,0,0,1,4.514,1.3" transform="translate(-1518.787 2437.635)" fill="#cc461c"/>
    <path id="Path_75048" data-name="Path 75048" d="M1894.717,1003.638a47.41,47.41,0,0,1,3.4-3.79,10.328,10.328,0,0,1,3.4-.962c.151.142.158.346-.17.635s-1.577,1.018-1.4,1.1,3.948-1.795,4.492-1.163-.308,3.237-1.761,4.486-5.788,1.782-6.062,1.956c-2.313,1.479-1.9-2.263-1.9-2.263" transform="translate(-1251.629 2279)" fill="#ea8888"/>
    <path id="Path_75049" data-name="Path 75049" d="M1613.551,939.134s4.019,4.768,9.136,2.773a15.5,15.5,0,0,0,1.116-4.626c0-.241,0-.476.009-.7.027-2.21.1-3.451.1-3.451h-.005c-.232-.1-7.823-3.213-7.817-2.955.13,5.978-2.541,8.957-2.541,8.957" transform="translate(-1019.499 2335.676)" fill="#fc9290"/>
    <path id="Path_75050" data-name="Path 75050" d="M1632.394,938.128a11.871,11.871,0,0,0,6.958,4.981c.028-2.21.1-3.451.1-3.451h-.005c-.21-.056-7.273-1.929-7.055-1.529" transform="translate(-1035.048 2329.151)" fill="#ea8888"/>
    <path id="Path_75051" data-name="Path 75051" d="M1630,879.529s-8.536,2.007-9.7-3.328-3.057-8.669,2.344-10.176,6.909.3,7.732,1.982,1.818,10.863-.372,11.522" transform="translate(-1024.004 2389.05)" fill="#fc9290"/>
    <path id="Path_75052" data-name="Path 75052" d="M1600.092,857.945c-.117.075-1.953.639-5.432-6.291a6.035,6.035,0,0,1,.355-5.52c1.273-2.079,5.786-3.714,9.536-4.426s4.65,1.4,5.533,3.519a11.446,11.446,0,0,0,3.6,4.059c-3.234,1.806-7.128-.777-8.478-.352s-1.826,2.551-1.927,3.233-.257,1.248-1.953.639-.767,2.4-.5,2.981c0,0,.231,1.535-.742,2.158" transform="translate(-1003.499 2408.759)"/>
    <path id="Path_75053" data-name="Path 75053" d="M1451.429,1635.068h-5.169c-1.083,0-2.287-1.1-2.589-3.112s-2.529-3.112-3.011-4.76,1.988-3.968,1.988-3.968l.413-.538.429-.56,4.094.976s.1.988.164,2.247c.044.908.068,1.959.017,2.88-.121,2.2.607,4.563,2.533,4.991s1.13,1.845,1.13,1.845" transform="translate(-876.694 1764.856)" fill="#060632"/>
    <path id="Path_75054" data-name="Path 75054" d="M1639.006,1660.124h-13.7a1.2,1.2,0,0,1-.291-.087c-.915-.472-.628-4.078-.518-5.191.021-.207.036-.328.036-.328s4.818-3.968,5.481-.93c.021.1.045.188.071.28h0c.837,2.843,4.575,4.133,6.735,4.494a2.375,2.375,0,0,1,2.188,1.761" transform="translate(-1028.435 1739.85)" fill="#060632"/>
    <path id="Path_75055" data-name="Path 75055" d="M1595.889,1237.8s-.732,9.129-1.592,20.1c-1.169,14.907-2.574,33.217-2.713,36.686-.24,6.024-1.2,15.658-1.2,15.658s-2.288,2.289-6.865,1.324a157.607,157.607,0,0,1-5.245-28.306c-.018-.239-.036-.479-.054-.719-1.083-14.814-2.77-46.01-2.77-46.01Z" transform="translate(-988.051 2082.941)" fill="#0a3457"/>
    <path id="Path_75056" data-name="Path 75056" d="M1595.889,1237.8s-.732,9.129-1.592,20.1l-16.029,25.362c-.018-.239-.036-.479-.054-.719-1.083-14.814-2.77-46.01-2.77-46.01Z" transform="translate(-988.051 2082.941)" fill="#072641"/>
    <path id="Path_75057" data-name="Path 75057" d="M1490.965,1221.862s-13.188,33.061-21.86,48.6-11.382,19.873-11.382,19.873-4.969-1.988-5.42-3.342c0,0,3.316-30,9.124-37.307,3.281-4.132,7.136-16.53,7.317-20.866s1.174-12.918,1.174-12.918Z" transform="translate(-886.398 2099.964)" fill="#0a3457"/>
    <path id="Path_75058" data-name="Path 75058" d="M1470.211,1210.818a44.685,44.685,0,0,1-.592,4.763,9.729,9.729,0,0,1-2.111,2.571c-.193-.028-.309-.183-.211-.583s.673-1.637.491-1.6-2.091,3.513-2.851,3.318-1.5-2.671-1.051-4.419,3.522-4.494,3.639-4.776c.994-2.388,2.685.731,2.685.731" transform="translate(-895.805 2105.502)" fill="#ea8888"/>
    <path id="Path_75059" data-name="Path 75059" d="M1484.019,1026.454c1.46.469,1.694.363,1.694.363s7.1-12.936,7.825-14.12,15.085-14.506,15.085-14.506l-3.692-13.766s-16.339,21.158-18.1,24.194c-2.916,5.017-4.624,16.669-4.624,16.669a4.273,4.273,0,0,0,1.816,1.166" transform="translate(-911.069 2290.913)" fill="#f8b018"/>
    <path id="Path_75060" data-name="Path 75060" d="M1575.075,989.093c-.051,2.827-.216,6.005-.437,9.233q-.02.287-.041.574c-.142,2-.3,4-.472,5.959-.071.784-.146,1.558-.225,2.319l-.012.1c-.006.285-.041.594-.072.876-.72,7.321-1.475,13.1-1.615,13.193a.822.822,0,0,1-.562.143c-1.92-.241-7.648.194-12.337-.826a35.558,35.558,0,0,1-10.975-4.551c-.479-.283-1.572-1.034-1.482-1.594.087-.616.248-1.507.453-2.627a142.087,142.087,0,0,0,2.358-18.432q.122-2.191.354-4.32a65.536,65.536,0,0,1,1.913-10.318c1.608-5.79,3.971-10.223,6.935-11.958.387-.217,2.471,1.109,4.385,2.337a8.448,8.448,0,0,0,5.438,1.289l1.593,1.762a17.792,17.792,0,0,1,4.544,9.471c.042.314.078.646.108,1a62.225,62.225,0,0,1,.149,6.367" transform="translate(-964.443 2305.416)" fill="#f8b018"/>
    <path id="Path_75061" data-name="Path 75061" d="M1646.238,1048.612c-.051,2.827-.215,6.005-.437,9.233-.013.192-.027.383-.041.574-10.966-6.864-12.656-19.425-12.656-19.425a30,30,0,0,1,12.984,3.251,62.192,62.192,0,0,1,.149,6.367" transform="translate(-1035.649 2245.898)" fill="#d39410"/>
    <path id="Path_75062" data-name="Path 75062" d="M1675.993,1005.36c-.565-1.529-1.444-1.43-1.444-1.43s-16.305,4.063-17.768,4.238-17.558-6.284-17.558-6.284-6.335-2.843-9.3-.247a7.089,7.089,0,0,0-2.093,7.513,7.175,7.175,0,0,0,6.064,5.345c6.566.836,19.667,2.41,22.413,2.029,6.112-.851,19.959-8.845,19.959-8.845a5.132,5.132,0,0,0-.27-2.319" transform="translate(-1031.107 2277.617)" fill="#f8b018"/>
    <path id="Path_75063" data-name="Path 75063" d="M2784.006,1194.067s2.265,2.1,1.823,3.591-2.486,2.486-2.762,4.31-1.382,2.818-2.376,2.818h-4.741s-.732-1.283,1.036-1.67,2.435-2.529,2.324-4.518a35.6,35.6,0,0,1,.166-4.641l3.757-.884Z" transform="translate(-1979.363 2118.796)" fill="#0b0754"/>
    <path id="Path_75064" data-name="Path 75064" d="M2600.786,1226.678a8.76,8.76,0,0,1-2.146.248h-10.722c.036-.319.286-1.456,2.039-1.739,1.981-.322,5.412-1.473,6.177-4.007.026-.081.047-.165.066-.248.607-2.707,5.027.828,5.027.828s.013.108.032.293c.1,1,.365,4.206-.473,4.624" transform="translate(-1824.031 2096.655)" fill="#0b0754"/>
    <path id="Path_75065" data-name="Path 75065" d="M2602.563,839.5s.671,8.375,1.46,18.443c1.073,13.676,2.362,30.475,2.49,33.658.22,5.526,1.1,14.366,1.1,14.366s2.1,2.1,6.3,1.215a144.606,144.606,0,0,0,4.812-25.97c.017-.219.033-.439.05-.659.995-13.592,2.541-42.212,2.541-42.212Z" transform="translate(-1836.143 2411.425)" fill="#003457"/>
    <path id="Path_75066" data-name="Path 75066" d="M2602.563,839.5s.671,8.375,1.46,18.443l14.706,23.268c.017-.219.033-.439.05-.659.995-13.592,2.541-42.212,2.541-42.212Z" transform="translate(-1836.143 2411.425)" fill="#062641"/>
    <path id="Path_75067" data-name="Path 75067" d="M2620.074,824.871s12.1,30.333,20.056,44.587,10.442,18.233,10.442,18.233,4.558-1.823,4.973-3.067c0,0-3.042-27.519-8.371-34.227-3.01-3.791-6.547-15.167-6.713-19.145s-1.077-11.851-1.077-11.851Z" transform="translate(-1850.901 2427.045)" fill="#003457"/>
    <path id="Path_75068" data-name="Path 75068" d="M2369.906,753.313a36.333,36.333,0,0,0-3.834-.713,7.91,7.91,0,0,0-2.51,1c-.026.156.066.284.4.306s1.433-.119,1.363.015-3.235.755-3.27,1.392,1.7,1.821,3.165,1.9,4.346-1.623,4.593-1.645c2.094-.183.094-2.259.094-2.259" transform="translate(-1637.523 2482.151)" fill="#fc9290"/>
    <path id="Path_75069" data-name="Path 75069" d="M2397.13,643.541c-.47-1.5-.36-1.738-.36-1.738s13.3-7.194,14.522-7.923,14.967-15.361,14.967-15.361l14.082,3.876s-21.792,16.6-24.916,18.388c-5.161,2.954-17.113,4.626-17.113,4.626a4.372,4.372,0,0,1-1.182-1.869" transform="translate(-1666.295 2592.757)" fill="#d42941"/>
    <path id="Path_75070" data-name="Path 75070" d="M2535.686,547.039s-4.937,8.686-9.762,9.82a13.19,13.19,0,0,1,1.376-4.914c-.481-.567-.9-1.089-1.269-1.555a29.006,29.006,0,0,1-1.792-2.509l1.638-4.4,1.112-2.987a14.365,14.365,0,0,0,1.736,2.5,11.812,11.812,0,0,0,6.963,4.046" transform="translate(-1771.444 2657.124)" fill="#fc9290"/>
    <path id="Path_75071" data-name="Path 75071" d="M2528.723,554.775a9.162,9.162,0,0,1-2.693,7.4,29.011,29.011,0,0,1-1.792-2.509l1.637-4.4a9.362,9.362,0,0,1,2.848-.485" transform="translate(-1771.422 2645.342)" fill="#ea8888"/>
    <path id="Path_75072" data-name="Path 75072" d="M2487.4,519.331s7.376-2.876,5.515-7.442-2.164-8.012-6.952-6.37-4.987,3.756-4.737,5.431,4.207,9.01,6.174,8.38" transform="translate(-1735.872 2686.316)" fill="#fc9290"/>
    <path id="Path_75073" data-name="Path 75073" d="M2566.681,616.757c-2.977,4.278-25.223,9.994-24.96,7.033a32.148,32.148,0,0,0,0-5.841q-.083-.952-.236-2.018a46.532,46.532,0,0,0-4.9-14.685c-.224-.434-.458-.871-.7-1.314a45.223,45.223,0,0,1-3.085-6.93c-1.542-4.455-2.163-8.716-1.385-11.5a.4.4,0,0,1,.013-.039c4.65-2.15,6.452-10.49,6.452-10.49s15.866,2.848,24.753,24c0,0,6.643,18.067,4.054,21.791" transform="translate(-1777.178 2631.982)" fill="#d42941"/>
    <path id="Path_75074" data-name="Path 75074" d="M2567.659,702.373q-.083-.952-.237-2.018a46.532,46.532,0,0,0-4.9-14.685c.514-3.117,1.224-5.708,2-6.875,3.165-4.743,5.008-5.484,5.008-5.484s4.745,20.013-1.872,29.062" transform="translate(-1803.044 2547.558)" fill="#b51f34"/>
    <path id="Path_75075" data-name="Path 75075" d="M2405.907,812.109a47.368,47.368,0,0,0-5.069.476,10.313,10.313,0,0,0-2.794,2.156c.023.206.184.333.612.242s1.756-.661,1.717-.469-3.792,2.1-3.609,2.917,2.785,1.679,4.653,1.256,4.877-3.591,5.18-3.707c2.564-.978-.689-2.871-.689-2.871" transform="translate(-1666.183 2433.061)" fill="#fc9290"/>
    <path id="Path_75076" data-name="Path 75076" d="M2442.094,634.443c-.879-1.42-.245-2.069-.245-2.069s13.559-10.616,14.621-11.688,5.986-18.149,5.986-18.149,1.694-6.911,5.663-7.673a7.264,7.264,0,0,1,7.39,3.043,7.354,7.354,0,0,1,.5,8.269c-3.462,5.833-10.446,17.412-12.484,19.391-4.539,4.4-19.725,10.556-19.725,10.556a5.256,5.256,0,0,1-1.7-1.68" transform="translate(-1703.316 2612.39)" fill="#d42941"/>
    <path id="Path_75077" data-name="Path 75077" d="M2481.014,487.3c.052-.1.2-.211.568-.323a1.534,1.534,0,0,0-.743-.027,1.952,1.952,0,0,0-1.655-1.373,1.163,1.163,0,0,1,.741.683c-1.294-.82-3.692-1.058-9.679.936-7.891,2.628-3.949,7.209-2.753,7.576s3.4-1.99,5.378-2.311,3.051,2.437,3.806,2.665.326-.4,1.116-1.027,1.245.85,1.228,1.889,1.524,2.023,1.524,2.023l.9-1.658c.9-1.658.658-7.678-.206-8.762l-.23-.29" transform="translate(-1722.92 2702.428)"/>
    <rect id="Rectangle_17081" data-name="Rectangle 17081" width="69.907" height="91.819" transform="translate(743.935 3323.581)" fill="#003457" opacity="0.9"/>
    <rect id="Rectangle_17082" data-name="Rectangle 17082" width="69.908" height="91.82" transform="translate(722.702 3323.581)" fill="#003457"/>
  </g>
</svg>
