<svg xmlns="http://www.w3.org/2000/svg" xmlns:xlink="http://www.w3.org/1999/xlink" width="180" height="37.184" viewBox="0 0 180 37.184">
  <defs>
    <linearGradient id="linear-gradient" x1="-0.186" y1="0.533" x2="0.686" y2="0.465" gradientUnits="objectBoundingBox">
      <stop offset="0" stop-color="#231f20"/>
      <stop offset="0.131" stop-color="#231f20" stop-opacity="0.494"/>
      <stop offset="0.274" stop-color="#231f20" stop-opacity="0.169"/>
      <stop offset="0.426" stop-color="#231f20" stop-opacity="0.063"/>
      <stop offset="0.445" stop-color="#231f20" stop-opacity="0.055"/>
      <stop offset="1" stop-color="#231f20" stop-opacity="0"/>
    </linearGradient>
    <linearGradient id="linear-gradient-2" x1="-0.053" y1="0.5" x2="0.426" y2="0.5" xlink:href="#linear-gradient"/>
    <linearGradient id="linear-gradient-3" x1="-0.095" y1="0.647" x2="0.438" y2="0.503" xlink:href="#linear-gradient"/>
    <linearGradient id="linear-gradient-4" x1="0.018" y1="0.955" x2="0.506" y2="0.491" xlink:href="#linear-gradient"/>
    <linearGradient id="linear-gradient-5" x1="0.365" y1="1.304" x2="0.606" y2="0.05" xlink:href="#linear-gradient"/>
  </defs>
  <g id="Group_25173" data-name="Group 25173" transform="translate(-81.702 -236.646)">
    <g id="Group_25169" data-name="Group 25169" transform="translate(81.702 236.647)">
      <g id="Group_25167" data-name="Group 25167" transform="translate(0.007 0)">
        <path id="Path_53713" data-name="Path 53713" d="M81.729,239.78h.008v-.111a2.807,2.807,0,0,1,5.579-.605l.016.1c0,.062.011.142.016.224v2.766L81.716,245.4Z" transform="translate(-81.716 -236.647)" fill="#51499c"/>
        <path id="Path_53714" data-name="Path 53714" d="M81.752,255.976c-.024-.823-.035-1.7-.035-2.613V249.5l10.686-6.17a2.568,2.568,0,0,1,.283-.162l.017-.01.03-.013a3.216,3.216,0,0,1,1.392-.337,2.628,2.628,0,0,1,.523.051l.1.024a2.824,2.824,0,0,1,2.212,2.745,2.776,2.776,0,0,1-1.389,2.409l-.123.072-1.648.91Z" transform="translate(-81.717 -239.574)" fill="#d42941"/>
        <path id="Path_53715" data-name="Path 53715" d="M120.637,260.585Z" transform="translate(-100.289 -248.052)" fill="#d42941"/>
        <path id="Path_53716" data-name="Path 53716" d="M82.764,266.786c-.058-.166-.108-.312-.153-.453a23.126,23.126,0,0,1-.744-5.527l17.138-9.891.047-.025a3.144,3.144,0,0,1,.347-.15,3.439,3.439,0,0,1,1.134-.213h.033a1.671,1.671,0,0,1,.251.013h.026a2.652,2.652,0,0,1,.52.106h.023c.067.021.135.045.2.074l.095.041.058.028a2.8,2.8,0,0,1,.4,4.837l-3.375,1.913Z" transform="translate(-81.79 -243.252)" fill="#d42941"/>
        <path id="Path_53717" data-name="Path 53717" d="M87.9,278.327l-.142-.1a10.523,10.523,0,0,1-3.458-4.316l17.41-10.051c.008,0,.05-.033.126-.072l.031-.016a2.9,2.9,0,0,1,1.234-.3h.171a2.806,2.806,0,0,1,1.189,5.3l-16.557,9.561Z" transform="translate(-82.951 -249.433)" fill="#f05a2a"/>
        <path id="Path_53718" data-name="Path 53718" d="M99.22,287.036a13.357,13.357,0,0,1-6.15-1.355l13.194-7.611a2.986,2.986,0,0,1,.642-.283,2.757,2.757,0,0,1,.554-.126c.088-.011.181-.018.283-.021h.061a2.524,2.524,0,0,1,.716.1,2.826,2.826,0,0,1,2.048,2.4,2.724,2.724,0,0,1-.726,2.192,9.6,9.6,0,0,1-.745.608l-.031.018-.078.045-4.224,2.425c-.354.2-.514.3-.584.35l.008-.018A10.683,10.683,0,0,1,99.22,287.036Z" transform="translate(-87.135 -256.188)" fill="#f8b018"/>
      </g>
      <path id="Path_53719" data-name="Path 53719" d="M81.729,239.78h.008v-.111a2.807,2.807,0,0,1,5.579-.605l.016.1c0,.062.011.142.016.224v2.766L81.716,245.4Z" transform="translate(-81.709 -236.647)" fill="#51499c"/>
      <path id="Path_53720" data-name="Path 53720" d="M81.752,255.976c-.024-.823-.035-1.7-.035-2.613V249.5l10.686-6.17a2.568,2.568,0,0,1,.283-.162l.017-.01.03-.013a3.216,3.216,0,0,1,1.392-.337,2.628,2.628,0,0,1,.523.051l.1.024a2.824,2.824,0,0,1,2.212,2.745,2.776,2.776,0,0,1-1.389,2.409l-.123.072-1.648.91Z" transform="translate(-81.71 -239.574)" fill="#27a7df"/>
      <path id="Path_53721" data-name="Path 53721" d="M120.637,260.585Z" transform="translate(-100.282 -248.052)" fill="#d42941"/>
      <path id="Path_53722" data-name="Path 53722" d="M82.764,266.786c-.058-.166-.108-.312-.153-.453a23.126,23.126,0,0,1-.744-5.527l17.138-9.891.047-.025a3.144,3.144,0,0,1,.347-.15,3.439,3.439,0,0,1,1.134-.213h.033a1.671,1.671,0,0,1,.251.013h.026a2.652,2.652,0,0,1,.52.106h.023c.067.021.135.045.2.074l.095.041.058.028a2.8,2.8,0,0,1,.4,4.837l-3.375,1.913Z" transform="translate(-81.782 -243.252)" fill="#d42941"/>
      <path id="Path_53723" data-name="Path 53723" d="M87.9,278.327l-.142-.1a10.523,10.523,0,0,1-3.458-4.316l17.41-10.051c.008,0,.05-.033.126-.072l.031-.016a2.9,2.9,0,0,1,1.234-.3h.171a2.806,2.806,0,0,1,1.189,5.3l-16.557,9.561Z" transform="translate(-82.944 -249.433)" fill="#f05a2a"/>
      <path id="Path_53724" data-name="Path 53724" d="M99.22,287.036a13.357,13.357,0,0,1-6.15-1.355l13.194-7.611a2.986,2.986,0,0,1,.642-.283,2.757,2.757,0,0,1,.554-.126c.088-.011.181-.018.283-.021h.061a2.524,2.524,0,0,1,.716.1,2.826,2.826,0,0,1,2.048,2.4,2.724,2.724,0,0,1-.726,2.192,9.6,9.6,0,0,1-.745.608l-.031.018-.078.045-4.224,2.425c-.354.2-.514.3-.584.35l.008-.018A10.683,10.683,0,0,1,99.22,287.036Z" transform="translate(-87.128 -256.188)" fill="#f8b018"/>
      <g id="Group_25168" data-name="Group 25168" transform="translate(0 0.023)">
        <path id="Path_53725" data-name="Path 53725" d="M81.716,239.774h.007v-.112a2.807,2.807,0,0,1,5.578-.605l.016.1c0,.064.011.142.016.225v.04c0,.142.01.283.011.4v.067l-.028,2.276L81.7,245.4Z" transform="translate(-81.702 -236.663)" opacity="0.7" fill="url(#linear-gradient)"/>
        <path id="Path_53726" data-name="Path 53726" d="M81.739,255.976c-.024-.823-.035-1.7-.035-2.613V249.5l10.686-6.17a2.778,2.778,0,0,1,.283-.162l.017-.01.03-.013a3.222,3.222,0,0,1,1.392-.337,2.635,2.635,0,0,1,.523.051l.1.024a2.824,2.824,0,0,1,2.212,2.745,2.776,2.776,0,0,1-1.389,2.409l-.123.072-1.648.91Z" transform="translate(-81.704 -239.596)" opacity="0.7" fill="url(#linear-gradient-2)"/>
        <path id="Path_53727" data-name="Path 53727" d="M82.752,266.788c-.06-.166-.108-.312-.153-.453a23.12,23.12,0,0,1-.744-5.527l17.077-9.86h0l.1-.067a2.994,2.994,0,0,1,.347-.15,3.424,3.424,0,0,1,1.134-.213h.033a1.674,1.674,0,0,1,.251.013h.025c.085.009.173.023.261.04a2.246,2.246,0,0,1,.259.067l.023.007c.068.021.135.045.2.074l.095.041.06.028a2.8,2.8,0,0,1,.393,4.837l-3.375,1.913Z" transform="translate(-81.776 -243.277)" opacity="0.7" fill="url(#linear-gradient-3)"/>
        <path id="Path_53728" data-name="Path 53728" d="M87.888,278.325l-.142-.1a10.522,10.522,0,0,1-3.458-4.316l17.41-10.051a.869.869,0,0,1,.081-.048h0l.072-.048a2.886,2.886,0,0,1,1.234-.3h.171a2.808,2.808,0,0,1,.992.215l.035.016a2.806,2.806,0,0,1,.167,5.066l-16.559,9.561Z" transform="translate(-82.938 -249.451)" opacity="0.7" fill="url(#linear-gradient-4)"/>
        <path id="Path_53729" data-name="Path 53729" d="M99.21,287.033a13.35,13.35,0,0,1-6.15-1.353l13.193-7.611a2.985,2.985,0,0,1,.642-.283,2.82,2.82,0,0,1,.842-.142h.061a2.618,2.618,0,0,1,.578.062l.133.038a2.834,2.834,0,0,1,2.051,2.4,2.9,2.9,0,0,1,.018.309,2.77,2.77,0,0,1-.745,1.882h0a3.086,3.086,0,0,1-.751.6l-.03.017-.081.045-4.224,2.425c-.351.2-.513.295-.584.35l.008-.018A10.676,10.676,0,0,1,99.21,287.033Z" transform="translate(-87.12 -256.208)" opacity="0.7" fill="url(#linear-gradient-5)"/>
      </g>
    </g>
    <g id="Group_25171" data-name="Group 25171" transform="translate(114.33 243.896)">
      <path id="Path_53730" data-name="Path 53730" d="M194.442,279.692h-4.314v-8.181a11.347,11.347,0,0,0-.329-3.322,2.894,2.894,0,0,0-1.057-1.445,3.026,3.026,0,0,0-1.794-.516,3.135,3.135,0,0,0-1.81.509,2.976,2.976,0,0,0-1.105,1.492,11.467,11.467,0,0,0-.266,3.142v8.321H179.5v-7.2a17.678,17.678,0,0,1,.709-6.093,6.649,6.649,0,0,1,2.532-3.072,7.755,7.755,0,0,1,4.251-1.071,7.542,7.542,0,0,1,4.525,1.251,6.6,6.6,0,0,1,2.43,3.486,21.1,21.1,0,0,1,.5,5.627Z" transform="translate(-161.023 -256.108)" fill="#08253b"/>
      <path id="Path_53731" data-name="Path 53731" d="M215.234,250.525a2.671,2.671,0,0,1,1.971.832,2.765,2.765,0,0,1,.822,2.017,2.729,2.729,0,0,1-.813,1.992,2.639,2.639,0,0,1-1.947.825,2.68,2.68,0,0,1-1.984-.84,2.81,2.81,0,0,1-.822-2.041,2.782,2.782,0,0,1,2.776-2.785Z" transform="translate(-176.746 -250.508)" fill="#08253b"/>
      <rect id="Rectangle_11175" data-name="Rectangle 11175" width="4.369" height="17.432" transform="translate(36.304 6.154)" fill="#08253b"/>
      <path id="Path_53732" data-name="Path 53732" d="M225.947,262.262H230.4l4.411,10.305,4.4-10.305h4.428L236.225,279.7h-2.834Z" transform="translate(-183.184 -256.108)" fill="#08253b"/>
      <path id="Path_53733" data-name="Path 53733" d="M273.633,262.262h4.161v17.43h-4.159v-2.179a8.172,8.172,0,0,1-2.443,1.668,6.842,6.842,0,0,1-2.654.51,7.379,7.379,0,0,1-5.555-2.491,8.688,8.688,0,0,1-2.344-6.193,8.906,8.906,0,0,1,2.267-6.292,7.227,7.227,0,0,1,5.51-2.453,7,7,0,0,1,2.8.567,7.653,7.653,0,0,1,2.419,1.691Zm-4.372,3.839a4.2,4.2,0,0,0-3.2,1.363,5.445,5.445,0,0,0,.023,7.03,4.2,4.2,0,0,0,3.2,1.386,4.282,4.282,0,0,0,3.249-1.363,4.984,4.984,0,0,0,1.291-3.572,4.84,4.84,0,0,0-1.291-3.5A4.339,4.339,0,0,0,269.261,266.1Z" transform="translate(-199.739 -256.108)" fill="#08253b"/>
      <path id="Path_53734" data-name="Path 53734" d="M298.966,261.881h3.745V264.1a4.677,4.677,0,0,1,1.616-1.968,3.9,3.9,0,0,1,2.208-.672,4.089,4.089,0,0,1,1.776.448l-1.36,3.761a3.006,3.006,0,0,0-1.264-.384,2,2,0,0,0-1.7,1.248,11.421,11.421,0,0,0-.7,4.9l.016.85v7.032h-4.336Z" transform="translate(-218.026 -255.728)" fill="#08253b"/>
      <path id="Path_53735" data-name="Path 53735" d="M321.683,250.525a2.671,2.671,0,0,1,1.971.832,2.765,2.765,0,0,1,.822,2.017,2.729,2.729,0,0,1-.813,1.992,2.638,2.638,0,0,1-1.947.825,2.68,2.68,0,0,1-1.984-.84,2.811,2.811,0,0,1-.822-2.041,2.78,2.78,0,0,1,2.776-2.785Z" transform="translate(-227.542 -250.508)" fill="#08253b"/>
      <rect id="Rectangle_11176" data-name="Rectangle 11176" width="4.369" height="17.432" transform="translate(91.964 6.154)" fill="#08253b"/>
      <path id="Path_53736" data-name="Path 53736" d="M351.337,272.154H337.958a4.45,4.45,0,0,0,1.548,2.814,4.858,4.858,0,0,0,3.211,1.046,5.551,5.551,0,0,0,4.012-1.632l3.509,1.648a8.275,8.275,0,0,1-3.143,2.755,9.832,9.832,0,0,1-4.348.893,8.593,8.593,0,0,1-6.361-2.464,8.385,8.385,0,0,1-2.457-6.171,8.67,8.67,0,0,1,2.449-6.309,8.219,8.219,0,0,1,6.14-2.51,8.529,8.529,0,0,1,6.377,2.51,9.07,9.07,0,0,1,2.457,6.629Zm-4.165-3.279a4.18,4.18,0,0,0-1.627-2.257,4.719,4.719,0,0,0-2.82-.87,4.984,4.984,0,0,0-3.055.976,5.442,5.442,0,0,0-1.529,2.151Z" transform="translate(-234.713 -256.09)" fill="#08253b"/>
      <path id="Path_53737" data-name="Path 53737" d="M372.93,250.5H377.3v6.147h2.592v3.782H377.3V274.08H372.93V260.429h-2.24v-3.782h2.24Z" transform="translate(-252.253 -250.5)" fill="#08253b"/>
      <path id="Path_53738" data-name="Path 53738" d="M390.737,262.262H395.2l4.522,10.924,4.991-10.924h4.477l-10.9,23.78h-4.512l3.58-7.669Z" transform="translate(-261.819 -256.108)" fill="#08253b"/>
      <g id="Group_25170" data-name="Group 25170" transform="translate(0 1.835)">
        <path id="Path_53739" data-name="Path 53739" d="M144.22,254.014h4.406v13.037a7.731,7.731,0,0,0,.337,2.726,2.718,2.718,0,0,0,1.114,1.275,3.506,3.506,0,0,0,1.873.478,3.654,3.654,0,0,0,2-.533,2.8,2.8,0,0,0,1.161-1.355,10.061,10.061,0,0,0,.322-3.142V254.008h4.406v11.878a19.942,19.942,0,0,1-.393,4.829,6.837,6.837,0,0,1-1.5,2.6,6.944,6.944,0,0,1-2.551,1.858,8.644,8.644,0,0,1-3.356.6,8.112,8.112,0,0,1-4.367-1.153,6.7,6.7,0,0,1-2.658-2.885,15.234,15.234,0,0,1-.8-5.857Z" transform="translate(-144.189 -254.008)" fill="#08253b"/>
      </g>
    </g>
  </g>
</svg>
