<svg xmlns="http://www.w3.org/2000/svg" width="18" height="18.007" viewBox="0 0 18 18.007">
  <g id="Path_75803" data-name="Path 75803" transform="translate(-0.098)" fill="red">
    <path d="M 0.2354781329631805 17.8653736114502 L 1.223726153373718 13.55068874359131 L 1.232738614082336 13.52354049682617 C 1.391648650169373 13.04419994354248 1.664588570594788 12.60208988189697 2.022058725357056 12.24497985839844 L 4.880518436431885 9.385210037231445 L 4.951298713684082 9.314400672912598 L 4.880398750305176 9.243710517883301 L 0.2391747385263443 4.615597248077393 L 4.669694900512695 0.1416657269001007 L 9.331818580627441 4.790600299835205 L 9.402548789978027 4.861130237579346 L 9.473158836364746 4.79049015045166 L 13.81130886077881 0.4505003392696381 C 14.02931880950928 0.232410341501236 14.31971836090088 0.1123003363609314 14.62901878356934 0.1123003363609314 C 14.93793869018555 0.1123003363609314 15.22805881500244 0.2321603298187256 15.44593906402588 0.4498103260993958 L 17.65097808837891 2.652580261230469 C 17.86927795410156 2.870660305023193 17.98956871032715 3.160620450973511 17.98969841003418 3.46906042098999 C 17.98982810974121 3.777540445327759 17.86978912353516 4.067600250244141 17.65168952941895 4.285830497741699 L 13.3167085647583 8.622799873352051 L 13.24592876434326 8.693610191345215 L 13.31682872772217 8.764300346374512 L 17.95682334899902 13.39118385314941 L 13.52626323699951 17.86515426635742 L 8.865378379821777 13.21738052368164 L 8.794648170471191 13.1468505859375 L 8.724039077758789 13.21750068664551 L 5.861428737640381 16.08139038085938 C 5.503778457641602 16.43859100341797 5.061118602752686 16.71129035949707 4.581368446350098 16.86993980407715 L 4.554237365722656 16.87893295288086 L 0.2354781329631805 17.8653736114502 Z M 2.333218574523926 14.1041898727417 L 2.2928786277771 14.2802906036377 L 1.874218583106995 16.10795021057129 L 1.838648676872253 16.26324081420898 L 1.993968605995178 16.22776985168457 L 3.823818683624268 15.80985069274902 L 4.000288486480713 15.76955032348633 L 3.872218608856201 15.64161014556885 L 2.461028575897217 14.23187065124512 L 2.333218574523926 14.1041898727417 Z M 12.3940486907959 9.545870780944824 L 12.32343864440918 9.616510391235352 L 9.717258453369141 12.22384071350098 L 9.646478652954102 12.2946605682373 L 9.717378616333008 12.3653507232666 L 13.44986820220947 16.0872802734375 L 13.52092838287354 16.15814018249512 L 13.59152889251709 16.08683967590332 L 16.18557929992676 13.46741008758545 L 16.25570869445801 13.3966007232666 L 16.18513870239258 13.3262300491333 L 14.82572841644287 11.9706506729126 L 14.75433826446533 11.8994607925415 L 14.68373870849609 11.97143077850342 L 13.42660140991211 13.25274085998535 L 12.56646537780762 12.40883922576904 L 13.83157825469971 11.11944007873535 L 13.90104866027832 11.0486307144165 L 13.83080863952637 10.97859001159668 L 12.46477890014648 9.616400718688965 L 12.3940486907959 9.545870780944824 Z M 12.83817863464355 3.128490447998047 L 12.76749897003174 3.199200391769409 L 3.02267861366272 12.94838047027588 L 2.951968669891357 13.01912021636963 L 3.022738695144653 13.08981990814209 L 5.016148567199707 15.08119010925293 L 5.086868762969971 15.15184020996094 L 5.157548427581787 15.081130027771 L 14.90237903594971 5.331950187683105 L 14.97308826446533 5.261210441589355 L 14.90231895446777 5.190510272979736 L 12.90889835357666 3.199140310287476 L 12.83817863464355 3.128490447998047 Z M 4.675058841705322 1.848650336265564 L 4.604458808898926 1.919950366020203 L 2.010418653488159 4.53941011428833 L 1.940288662910461 4.610220432281494 L 2.010858535766602 4.680590152740479 L 5.732448577880859 8.391650199890137 L 5.803178787231445 8.462180137634277 L 5.873788833618164 8.39154052734375 L 8.479969024658203 5.784210205078125 L 8.550748825073242 5.713390350341797 L 8.479848861694336 5.6427001953125 L 7.105028629302979 4.271790504455566 L 7.033648490905762 4.200610160827637 L 6.963048458099365 4.272560119628906 L 5.681754589080811 5.578250885009766 L 4.821669101715088 4.734246253967285 L 6.110868453979492 3.4205002784729 L 6.180358409881592 3.349700450897217 L 6.110108852386475 3.279650449752808 L 4.746118545532227 1.919510364532471 L 4.675058841705322 1.848650336265564 Z M 14.62897872924805 1.33685028553009 L 14.55829906463623 1.40755033493042 L 13.76071834564209 2.205470323562622 L 13.69000816345215 2.276220321655273 L 13.76077842712402 2.346920251846313 L 15.75423908233643 4.338300228118896 L 15.82495880126953 4.408950328826904 L 15.89563846588135 4.338240146636963 L 16.69320869445801 3.540310382843018 L 16.76391792297363 3.469570398330688 L 16.69314956665039 3.398870229721069 L 14.69969844818115 1.407500386238098 L 14.62897872924805 1.33685028553009 Z" stroke="none"/>
    <path d="M 14.62896919250488 0.2122898101806641 C 14.3464183807373 0.2122898101806641 14.08114814758301 0.321990966796875 13.88202857971191 0.5211906433105469 L 9.402658462524414 5.002460479736328 L 4.670141220092773 0.2833309173583984 L 0.3803501129150391 4.615154266357422 L 5.092798233032227 9.314290046691895 L 2.092729568481445 12.3157205581665 C 1.746238708496094 12.6618709564209 1.481689453125 13.0903902053833 1.327638626098633 13.55504035949707 L 1.320133209228516 13.5776481628418 L 0.3685150146484375 17.73241233825684 L 4.549978256225586 16.77499008178711 C 5.014998435974121 16.62121963500977 5.44407844543457 16.35688018798828 5.790708541870117 16.01069068908691 L 8.794538497924805 13.0055103302002 L 13.52581691741943 17.72348785400391 L 17.81564712524414 13.39162635803223 L 13.10442924499512 8.693719863891602 L 17.58095932006836 4.215140342712402 C 17.7801685333252 4.015810012817383 17.88981819152832 3.750860214233398 17.88969802856445 3.469110488891602 C 17.88956832885742 3.187370300292969 17.77968788146973 2.922510147094727 17.58029937744141 2.723320007324219 L 15.37525844573975 0.5205612182617188 C 15.17627906799316 0.3217906951904297 14.91123867034912 0.212310791015625 14.62896919250488 0.2122898101806641 M 15.82501888275146 4.550350189208984 L 13.54855918884277 2.276269912719727 L 14.62892913818359 1.195449829101562 L 16.90535926818848 3.469510078430176 L 15.82501888275146 4.550350189208984 M 4.963089942932129 4.732912063598633 L 5.680420875549316 5.436831474304199 L 7.032878875732422 4.058620452880859 L 8.692248344421387 5.71328067779541 L 5.803288459777832 8.603509902954102 L 1.799118041992188 4.61067008972168 L 4.674618721008301 1.706991195678711 L 6.321208953857422 3.348930358886719 L 4.963089942932129 4.732912063598633 M 5.086918830871582 15.29324054718018 L 2.810518264770508 13.0191707611084 L 12.8381290435791 2.987090110778809 L 15.11452865600586 5.261159896850586 L 5.086918830871582 15.29324054718018 M 12.70788192749023 12.4074878692627 L 13.42525386810303 13.11132049560547 L 14.75355911254883 11.75747013092041 L 16.39687919616699 13.39615058898926 L 13.5213680267334 16.29980087280273 L 9.504978179931641 12.29477024078369 L 12.3939380645752 9.404540061950684 L 14.04189872741699 11.04786014556885 L 12.70788192749023 12.4074878692627 M 1.705598831176758 16.39620971679688 L 2.276088714599609 13.90577030181885 L 4.199028968811035 15.82672023773193 L 1.705598831176758 16.39620971679688 M 4.669248580932617 0 L 9.40242862701416 4.719790458679199 L 13.74057865142822 0.3798007965087891 C 14.23009872436523 -0.1099109649658203 15.02676868438721 -0.110260009765625 15.51660919189453 0.3790607452392578 L 17.72164916992188 2.581830024719238 C 17.95882797241211 2.818770408630371 18.08954811096191 3.13385009765625 18.08969879150391 3.469019889831543 C 18.0898380279541 3.804190635681152 17.95938873291016 4.119410514831543 17.7224178314209 4.356520652770996 L 13.38743877410889 8.693490028381348 L 18.09799957275391 13.39074039459229 L 13.52670860290527 18.00682067871094 L 8.794768333435059 13.2881908416748 L 5.932158470153809 16.15208053588867 C 5.563368797302246 16.52041053771973 5.107288360595703 16.80134963989258 4.612768173217773 16.96487998962402 L 4.581158638000488 16.97536087036133 L 0.1024284362792969 17.99834060668945 L 1.127307891845703 13.52371978759766 L 1.137828826904297 13.49203014373779 C 1.30164909362793 12.99790000915527 1.5830078125 12.54224014282227 1.951377868652344 12.17423057556152 L 4.809788703918457 9.314519882202148 L 0.09799766540527344 4.616040229797363 L 4.669248580932617 0 Z M 15.82490921020508 4.267550468444824 L 16.62247848510742 3.469620704650879 L 14.6290283203125 1.478250503540039 L 13.83144855499268 2.27617073059082 L 15.82490921020508 4.267550468444824 Z M 5.683088302612305 5.719660758972168 L 4.680258750915527 4.735580444335938 L 6.039498329162598 3.350460052490234 L 4.675508499145508 1.990320205688477 L 2.08146858215332 4.609780311584473 L 5.803058624267578 8.320839881896973 L 8.409238815307617 5.713510513305664 L 7.034419059753418 4.342599868774414 L 5.683088302612305 5.719660758972168 Z M 5.086818695068359 15.01044082641602 L 14.83164882659912 5.261260032653809 L 12.83822822570801 3.269890785217285 L 3.093399047851562 13.01906967163086 L 5.086818695068359 15.01044082641602 Z M 13.42794799804688 13.39414978027344 L 12.425048828125 12.41018104553223 L 13.76019859313965 11.04940032958984 L 12.39416885375977 9.687210083007812 L 9.787988662719727 12.29454040527344 L 13.52047920227051 16.01646995544434 L 16.11452865600586 13.39704036712646 L 14.75510883331299 12.04146003723145 L 13.42794799804688 13.39414978027344 Z M 1.971698760986328 16.13027954101562 L 3.801548957824707 15.71235084533691 L 2.390358924865723 14.30261993408203 L 1.971698760986328 16.13027954101562 Z" stroke="none" fill="red"/>
  </g>
</svg>
