<svg width="50" height="44" viewBox="0 0 50 44" fill="none" xmlns="http://www.w3.org/2000/svg">
<path d="M48.0281 20.0201H41.5752L43.7732 16.1981C44.3179 15.2511 43.9947 14.0401 43.0513 13.4934C42.1083 12.9464 40.9014 13.2708 40.357 14.2181L38.1587 18.04L34.9958 12.5403H39.3929C40.4825 12.5403 41.3653 11.6538 41.3653 10.5603C41.3653 9.46681 40.4825 8.58029 39.3929 8.58029H34.9958L38.2224 2.97048C38.767 2.0235 38.4438 0.812522 37.5005 0.265772C36.5566 -0.281242 35.3505 0.0432173 34.8062 0.99046L31.5796 6.60053L29.381 2.77776C28.8366 1.83052 27.6297 1.50606 26.6867 2.05307C25.7433 2.59982 25.4201 3.81081 25.9648 4.75778L28.1631 8.58029H21.8369L24.0355 4.75778C24.5801 3.81081 24.2569 2.59982 23.3136 2.05307C22.37 1.50606 21.1637 1.83078 20.6193 2.77776L18.4207 6.6L15.1944 0.99046C14.6497 0.0434813 13.4431 -0.280978 12.5001 0.265772C11.5565 0.812522 11.2333 2.0235 11.7782 2.97048L15.0045 8.58029H10.6079C9.51857 8.58029 8.63546 9.46681 8.63546 10.5603C8.63546 11.6538 9.51857 12.5403 10.6079 12.5403H15.0042L11.8413 18.04L9.64297 14.2181C9.09832 13.2711 7.89173 12.9466 6.94866 13.4934C6.00532 14.0401 5.68211 15.2511 6.22676 16.1981L8.42507 20.0201H1.97241C0.883112 20.0201 0 20.9066 0 22.0001C0 23.0936 0.883112 23.9801 1.97241 23.9801H8.42507L6.22676 27.8026C5.68211 28.7496 6.00532 29.9606 6.94866 30.5073C7.25925 30.6874 7.5985 30.7729 7.93302 30.7729C8.61469 30.7729 9.27768 30.4176 9.64297 29.7826L11.8413 25.9601L15.0042 31.4599H10.6079C9.51857 31.4599 8.63546 32.3464 8.63546 33.4399C8.63546 34.5334 9.51857 35.4199 10.6079 35.4199H15.0045L11.7782 41.0297C11.2335 41.9767 11.5567 43.1877 12.5001 43.7344C12.8107 43.9145 13.1499 44 13.4844 44C14.1661 44 14.8291 43.6446 15.1944 43.0097L18.4207 37.3997L20.619 41.2219C20.9843 41.8571 21.6473 42.2122 22.329 42.2122C22.6635 42.2122 23.0027 42.1266 23.3133 41.9466C24.2567 41.3998 24.5799 40.1888 24.0352 39.2419L21.8369 35.4196H28.1626L25.9645 39.2419C25.4199 40.1888 25.7431 41.3998 26.6864 41.9466C26.997 42.1266 27.3363 42.2122 27.6708 42.2122C28.3524 42.2122 29.0154 41.8571 29.3807 41.2219L31.5793 37.3994L34.8059 43.0097C35.1712 43.6449 35.8342 44 36.5158 44C36.8504 44 37.1899 43.9145 37.5002 43.7344C38.4435 43.1877 38.7667 41.9767 38.2221 41.0297L34.9958 35.4199H39.3924C40.4819 35.4199 41.3648 34.5334 41.3648 33.4399C41.3648 32.3464 40.4819 31.4599 39.3924 31.4599H34.9952L38.1582 25.9601L40.3565 29.7826C40.7218 30.4178 41.3848 30.7729 42.0664 30.7729C42.401 30.7729 42.7405 30.6874 43.0508 30.5073C43.9942 29.9606 44.3174 28.7496 43.7727 27.8026L41.5744 23.9801H48.0276C49.1171 23.9801 50 23.0936 50 22.0001C50.0005 20.9066 49.1177 20.0201 48.0281 20.0201ZM30.4406 31.4599H19.5597L14.119 22.0001L19.5594 12.5403H30.4406L35.8812 22.0001L30.4406 31.4599Z" fill="#FC0012"/>
</svg>
