<svg width="75" height="84" viewBox="0 0 75 84" fill="none" xmlns="http://www.w3.org/2000/svg">
<path d="M41.7672 59.7344L36.8672 64.6026C39.6672 67.7321 44.4505 67.848 47.4839 64.9503C48.4172 63.9071 47.8339 62.2844 46.4339 62.0526C44.6839 61.8207 42.9339 61.0094 41.7672 59.7344Z" fill="url(#paint0_linear_601_2299)"/>
<path d="M38.7333 62.6318L51.1 74.9182C52.0519 75.875 52.5857 77.1661 52.5857 78.5114C52.5857 79.8567 52.0519 81.1477 51.1 82.1046C50.1369 83.0502 48.8374 83.5806 47.4833 83.5806C46.1292 83.5806 44.8297 83.0502 43.8667 82.1046L31.5 69.9341L38.7333 62.6318Z" fill="url(#paint1_linear_601_2299)"/>
<path opacity="0.07" d="M31.5 69.9341L32.2 70.6296C34.0667 72.4841 37.1 72.4841 39.0833 70.6296L40.1333 69.5864L48.3 77.7C49.8167 79.2068 50.1667 81.4091 49.4667 83.2637C50.05 83.0318 50.6333 82.6841 51.1 82.1046C52.0519 81.1477 52.5857 79.8567 52.5857 78.5114C52.5857 77.1661 52.0519 75.875 51.1 74.9182L38.7333 62.6318L31.5 69.9341Z" fill="black"/>
<path d="M48.0641 43.2745C57.5141 43.2745 65.2141 35.6245 65.2141 26.2359C65.2141 16.8473 57.5141 9.19727 48.0641 9.19727C38.6141 9.19727 30.9141 16.8473 30.9141 26.2359C30.9141 35.6245 38.6141 43.2745 48.0641 43.2745Z" fill="url(#paint2_linear_601_2299)"/>
<path opacity="0.05" d="M35.3477 14.8777L59.6143 38.9868L60.3143 38.2914C62.7643 35.8573 64.281 32.8436 64.981 29.7141L44.5643 9.5459C41.4143 10.2414 38.381 11.7482 35.931 14.1823C35.6977 14.4141 35.581 14.6459 35.3477 14.8777Z" fill="black"/>
<path d="M18.6658 25.309L6.2991 37.5953C4.30254 39.5714 2.71835 41.9197 1.63739 44.5054C0.556438 47.0912 0 49.8636 0 52.6635C0 55.4634 0.556438 58.2358 1.63739 60.8216C2.71835 63.4073 4.30254 65.7556 6.2991 67.7317C8.2881 69.7153 10.6517 71.2892 13.2544 72.3631C15.8571 73.437 18.6475 73.9899 21.4658 73.9899C24.284 73.9899 27.0745 73.437 29.6771 72.3631C32.2798 71.2892 34.6434 69.7153 36.6324 67.7317L48.9991 55.4453C51.3462 53.1755 54.1872 51.4722 57.3026 50.4673C60.418 49.4624 63.7242 49.1827 66.9658 49.6499L69.9991 46.6362L27.5324 4.44531L24.4991 7.45895C24.9693 10.6794 24.6878 13.9642 23.6763 17.0594C22.6648 20.1545 20.9505 22.9771 18.6658 25.309Z" fill="url(#paint3_linear_601_2299)"/>
<path opacity="0.07" d="M27.531 4.44531L69.9977 46.6362L66.9643 49.6499C63.231 49.0703 59.381 49.534 55.881 50.9249L23.0977 18.4703C24.4977 14.993 24.9643 11.168 24.381 7.45895L27.531 4.44531Z" fill="black"/>
<path d="M12.5984 68.659L9.21509 72.0204C8.25201 72.9661 6.95251 73.4964 5.59842 73.4964C4.24434 73.4964 2.94484 72.9661 1.98176 72.0204C1.0299 71.0636 0.496094 69.7725 0.496094 68.4272C0.496094 67.0819 1.0299 65.7909 1.98176 64.834L5.36509 61.4727L12.5984 68.659Z" fill="url(#paint4_linear_601_2299)"/>
<path d="M37.3324 67.152L6.9991 37.0156L6.2991 37.7111C4.30254 39.6872 2.71835 42.0354 1.63739 44.6212C0.556438 47.207 0 49.9793 0 52.7793C0 55.5792 0.556438 58.3515 1.63739 60.9373C2.71835 63.5231 4.30254 65.8714 6.2991 67.8474C8.2881 69.831 10.6517 71.4049 13.2544 72.4789C15.8571 73.5528 18.6475 74.1056 21.4658 74.1056C24.284 74.1056 27.0745 73.5528 29.6771 72.4789C32.2798 71.4049 34.6434 69.831 36.6324 67.8474L37.3324 67.152Z" fill="url(#paint5_linear_601_2299)"/>
<path d="M65.4497 49.9979L24.1497 8.96609C23.1979 8.00926 22.6641 6.7182 22.6641 5.37291C22.6641 4.02761 23.1979 2.73656 24.1497 1.77973C25.1128 0.834056 26.4123 0.303711 27.7664 0.303711C29.1205 0.303711 30.42 0.834056 31.3831 1.77973L72.6831 42.8115C73.6349 43.7684 74.1687 45.0594 74.1687 46.4047C74.1687 47.75 73.6349 49.0411 72.6831 49.9979C70.6997 52.0843 67.4331 52.0843 65.4497 49.9979Z" fill="url(#paint6_linear_601_2299)"/>
<path d="M59.9654 8.38663C59.032 8.38663 58.332 7.69118 58.332 6.7639V2.47527C58.332 1.54799 59.032 0.852539 59.9654 0.852539C60.8987 0.852539 61.5987 1.54799 61.5987 2.47527V6.7639C61.5987 7.69118 60.782 8.38663 59.9654 8.38663Z" fill="url(#paint7_linear_601_2299)"/>
<path d="M71.9813 16.1527H67.6646C66.7313 16.1527 66.0312 15.4572 66.0312 14.53C66.0312 13.6027 66.7313 12.9072 67.6646 12.9072H71.9813C72.9146 12.9072 73.6146 13.6027 73.6146 14.53C73.6146 15.3413 72.9146 16.1527 71.9813 16.1527Z" fill="url(#paint8_linear_601_2299)"/>
<path d="M64.2828 10.1249C63.5828 9.42944 63.5828 8.50217 64.2828 7.80671L67.3161 4.79308C68.0161 4.09762 68.9495 4.09762 69.6495 4.79308C70.3495 5.48853 70.3495 6.4158 69.6495 7.11126L66.6161 10.1249C65.9161 10.8203 64.8661 10.8203 64.2828 10.1249Z" fill="url(#paint9_linear_601_2299)"/>
<defs>
<linearGradient id="paint0_linear_601_2299" x1="45.3465" y1="57.9934" x2="41.884" y2="65.5447" gradientUnits="userSpaceOnUse">
<stop stop-color="#FFF3D9"/>
<stop offset="0.624" stop-color="#FFCC60"/>
<stop offset="1" stop-color="#FDBC31"/>
</linearGradient>
<linearGradient id="paint1_linear_601_2299" x1="31.4277" y1="73.2004" x2="52.3927" y2="73.2004" gradientUnits="userSpaceOnUse">
<stop stop-color="#DADADA"/>
<stop offset="0.416" stop-color="#F5F4F8"/>
<stop offset="1" stop-color="#EFECF3"/>
</linearGradient>
<linearGradient id="paint2_linear_601_2299" x1="33.3407" y1="26.2104" x2="65.1114" y2="26.2104" gradientUnits="userSpaceOnUse">
<stop stop-color="#FFF3D9"/>
<stop offset="0.624" stop-color="#FFCC60"/>
<stop offset="1" stop-color="#FDBC31"/>
</linearGradient>
<linearGradient id="paint3_linear_601_2299" x1="-0.217901" y1="39.2331" x2="69.0949" y2="39.2331" gradientUnits="userSpaceOnUse">
<stop stop-color="white"/>
<stop offset="0.416" stop-color="#F5F4F8"/>
<stop offset="1" stop-color="#EFECF3"/>
</linearGradient>
<linearGradient id="paint4_linear_601_2299" x1="-1.183" y1="63.3687" x2="11.9203" y2="71.0756" gradientUnits="userSpaceOnUse">
<stop stop-color="#FF9AA1"/>
<stop offset="1" stop-color="#FC0012"/>
</linearGradient>
<linearGradient id="paint5_linear_601_2299" x1="-5.17956" y1="42.8644" x2="35.2406" y2="66.6381" gradientUnits="userSpaceOnUse">
<stop stop-color="#FF9AA1"/>
<stop offset="1" stop-color="#FC0012"/>
</linearGradient>
<linearGradient id="paint6_linear_601_2299" x1="15.5182" y1="8.38679" x2="71.3324" y2="41.1578" gradientUnits="userSpaceOnUse">
<stop stop-color="#FF9AA1"/>
<stop offset="1" stop-color="#FC0012"/>
</linearGradient>
<linearGradient id="paint7_linear_601_2299" x1="58.5082" y1="4.63118" x2="61.5544" y2="4.63118" gradientUnits="userSpaceOnUse">
<stop stop-color="#FFF3D9"/>
<stop offset="0.624" stop-color="#FFCC60"/>
<stop offset="1" stop-color="#FDBC31"/>
</linearGradient>
<linearGradient id="paint8_linear_601_2299" x1="66.5738" y1="14.4732" x2="73.5819" y2="14.4732" gradientUnits="userSpaceOnUse">
<stop stop-color="#FFF3D9"/>
<stop offset="0.624" stop-color="#FFCC60"/>
<stop offset="1" stop-color="#FDBC31"/>
</linearGradient>
<linearGradient id="paint9_linear_601_2299" x1="64.2128" y1="7.51578" x2="70.0613" y2="7.51578" gradientUnits="userSpaceOnUse">
<stop stop-color="#FFF3D9"/>
<stop offset="0.624" stop-color="#FFCC60"/>
<stop offset="1" stop-color="#FDBC31"/>
</linearGradient>
</defs>
</svg>
