<svg width="49" height="49" viewBox="0 0 49 49" fill="none" xmlns="http://www.w3.org/2000/svg">
<path d="M30.7188 12.7177C31.4955 12.7177 32.1251 12.088 32.1251 11.3113C32.1251 10.5347 31.4955 9.90503 30.7188 9.90503C29.9421 9.90503 29.3125 10.5347 29.3125 11.3113C29.3125 12.088 29.9421 12.7177 30.7188 12.7177Z" fill="#FC0012"/>
<path d="M38.6876 20.6857C39.4643 20.6857 40.0939 20.0561 40.0939 19.2794C40.0939 18.5027 39.4643 17.873 38.6876 17.873C37.9109 17.873 37.2812 18.5027 37.2812 19.2794C37.2812 20.0561 37.9109 20.6857 38.6876 20.6857Z" fill="#FC0012"/>
<path d="M26.0038 14.1167C25.9369 14.7745 26.3628 15.353 26.9993 15.5823L27.101 15.3001L26.9993 15.5824C30.4489 16.825 33.172 19.5512 34.4132 22.9963C34.6424 23.6327 35.2214 24.0589 35.8787 23.9919C35.9161 23.9881 35.9534 23.9862 35.9907 23.9862H44.7557C44.7809 23.9862 44.8057 23.987 44.8302 23.9887L44.8306 23.9887C45.8788 24.0586 46.6633 23.0924 46.4488 22.0913C44.4589 12.8045 37.1884 5.53615 27.9044 3.54678L27.9044 3.54678C26.9076 3.33326 25.9359 4.11276 26.0069 5.16511L26.0069 5.1654C26.0086 5.18975 26.0094 5.2146 26.0094 5.23969V14.0049C26.0094 14.042 26.0075 14.0793 26.0038 14.1167ZM26.0038 14.1167L26.3022 14.147L26.0037 14.1168C26.0037 14.1168 26.0037 14.1167 26.0038 14.1167ZM23.8061 5.27637L23.8062 5.26637L23.8056 5.25638C23.6722 2.83391 25.9217 0.859097 28.3679 1.38317C38.507 3.55584 46.4403 11.4917 48.6122 21.6275C49.1357 24.071 47.2025 26.3353 44.7296 26.1992L44.7296 26.1989L44.7166 26.1987L43.9208 26.1894L43.6073 26.1857L43.6174 26.4991C44.0062 38.4926 35.1562 48.6993 22.4426 48.6993C10.4231 48.6993 1.29609 39.4139 1.29609 27.5529C1.29609 14.8189 11.5078 5.98947 23.487 6.37788L23.7931 6.38781L23.7967 6.08154L23.8061 5.27637ZM24.3147 16.1033L23.7592 15.2012V16.2606V20.3284V20.5754L24.0016 20.6229C24.9147 20.8015 25.765 21.1341 26.4992 21.6L26.7021 21.7288L26.872 21.5588L28.9026 19.5283L29.1471 19.2837L28.8704 19.0762C28.0735 18.4784 27.1961 18.0049 26.2493 17.6638C25.4149 17.3632 24.7446 16.8015 24.3147 16.1033ZM28.3955 31.6095L28.2667 31.8124L28.4367 31.9824L32.4574 36.0031L32.7003 36.246L32.9083 35.9727C34.4437 33.9552 35.4176 31.2856 35.655 28.5781L35.6836 28.2518H35.3562H29.7621H29.4958L29.4642 28.5163C29.3287 29.6518 28.9597 30.7205 28.3955 31.6095ZM30.8768 38.0255L31.1415 37.8164L30.903 37.5779L26.872 33.5469L26.7021 33.377L26.4991 33.5058C25.7896 33.9561 24.971 34.2815 24.092 34.4641L23.853 34.5137V34.7578V40.4658V40.8048L24.1895 40.7636C26.6007 40.468 28.9381 39.5568 30.8768 38.0255ZM29.3352 25.813L29.387 26.0486H29.6282H33.4576H34.3682L33.6359 25.5073C33.0571 25.0796 32.5945 24.4757 32.3317 23.7461L32.3317 23.7461C31.9905 22.7992 31.5171 21.9219 30.9193 21.1249L30.7118 20.8482L30.4672 21.0928L28.4367 23.1233L28.2667 23.2933L28.3955 23.4962C28.8305 24.1815 29.1493 24.9683 29.3352 25.813ZM21.5467 20.2567V19.911L21.5466 19.911V14.5747V14.2403L21.2142 14.2765C18.5889 14.562 16.0062 15.5538 14.0183 17.0853L13.7479 17.2937L13.9893 17.5351L18.013 21.5588L18.183 21.7287L18.3859 21.5999C19.2224 21.0691 20.2089 20.7104 21.2675 20.5568H21.5467V20.2568V20.2567ZM16.4897 23.4962L16.6184 23.2932L16.4485 23.1233L12.4195 19.0944L12.1802 18.8551L11.9713 19.1213C10.4985 20.9984 9.55205 23.3268 9.24789 25.8059L9.2066 26.1424H9.54566H15.2375H15.4816L15.5312 25.9035C15.7139 25.0244 16.0393 24.2059 16.4897 23.4962ZM16.4485 31.9824L16.6184 31.8124L16.4896 31.6095C15.9433 30.7486 15.5793 29.7289 15.4336 28.6353V28.3549H15.1336H9.48481H9.1603L9.18574 28.6784C9.39881 31.3886 10.3761 33.9514 11.9714 35.9844L12.1803 36.2505L12.4196 36.0113L16.4485 31.9824ZM18.3858 33.5059L18.1829 33.3771L18.0129 33.547L13.9821 37.578L13.7436 37.8165L14.0083 38.0256C16.1129 39.6879 18.6878 40.6195 21.3169 40.826L21.6404 40.8514V40.5269V34.8619V34.5986L21.3793 34.5644C20.2784 34.4204 19.2519 34.0554 18.3858 33.5059ZM23.7968 8.87268V8.58365L23.508 8.57289C18.1547 8.37332 12.5518 10.461 8.9512 14.0616C5.48917 17.5235 3.50873 22.4412 3.50873 27.5529C3.50873 38.2962 11.776 46.4867 22.4425 46.4867C27.5543 46.4867 32.4719 44.5062 35.934 41.0442C39.5345 37.4437 41.6224 31.8407 41.4226 26.4876L41.4119 26.2006L41.1247 26.1988L38.1892 26.1801L37.872 26.178L37.8877 26.4949C38.1121 31.0273 36.4756 35.6768 33.5211 38.6313C30.6641 41.4882 26.6054 43.0674 22.4427 43.0674C13.5421 43.0674 6.92821 36.3115 6.92821 27.5529C6.92821 17.9764 14.5819 11.6136 23.4836 12.0048L23.7968 12.0186V11.7051V8.87268ZM22.4426 32.4215C23.9294 32.4215 25.1536 31.94 26.0063 31.0728C26.8582 30.2064 27.3113 28.9835 27.3113 27.5529C27.3113 26.066 26.8297 24.8418 25.9625 23.9891C25.0961 23.1373 23.8732 22.6842 22.4426 22.6842C20.9565 22.6842 19.7322 23.1655 18.8794 24.0325C18.0274 24.8987 17.574 26.1216 17.574 27.5529C17.574 29.0169 18.0384 30.2407 18.8972 31.0992C19.7559 31.9577 20.9797 32.4215 22.4426 32.4215Z" fill="#FC0012" stroke="white" stroke-width="0.6"/>
</svg>
