<svg width="40" height="40" viewBox="0 0 40 40" fill="none" xmlns="http://www.w3.org/2000/svg">
<path d="M34.1422 5.89773C30.3646 2.09457 25.3422 0 20 0C14.6578 0 9.63539 2.09457 5.85781 5.89773C2.0875 9.69381 0.00789063 14.8477 0 20.2149C0 24.872 1.61445 29.3831 4.54906 32.9728C7.44344 36.5134 11.4801 38.9736 15.9154 39.9003C16.2355 39.9671 16.5574 40 16.8771 40C17.9453 39.9999 18.9864 39.6327 19.8331 38.939C20.9312 38.0395 21.5612 36.7061 21.5615 35.2806L21.5625 28.4771C25.0352 27.7646 27.6564 24.6658 27.6564 20.9622V16.9113C27.6564 16.0425 26.9569 15.3382 26.0939 15.3382H24.7658V11.3267C24.7658 10.4578 24.0663 9.75351 23.2033 9.75351C22.3403 9.75351 21.6408 10.4578 21.6408 11.3267V15.3382H18.5158V11.3267C18.5158 10.4578 17.8162 9.75351 16.9533 9.75351C16.0903 9.75351 15.3908 10.4578 15.3908 11.3267V15.3382H13.9845C13.1216 15.3382 12.422 16.0425 12.422 16.9113V20.9622C12.422 24.6378 15.0039 27.7173 18.4375 28.4601L18.4365 35.2801C18.4364 35.93 18.0758 36.3225 17.8609 36.4985C17.4931 36.7997 17.0155 36.9168 16.5504 36.8196C8.77977 35.1961 3.13719 28.2164 3.12336 20.2149C3.12336 20.2149 3.12508 20.2347 3.12508 20.2149C3.12508 10.8466 10.6952 3.14629 20.0001 3.14629C29.305 3.14629 36.8751 10.768 36.8751 20.1363C36.8751 27.0044 32.8332 33.1666 26.578 35.8351C25.7834 36.174 25.4122 37.0973 25.7489 37.8973C26.0856 38.6974 27.0027 39.0711 27.7972 38.732C31.3674 37.209 34.4074 34.6777 36.5886 31.4119C38.8203 28.0702 40 24.1712 40 20.1363C40 14.7577 37.9197 9.70096 34.1422 5.89773V5.89773ZM15.5469 20.9622V18.4845H24.5312V20.9622C24.5312 23.4561 22.5161 25.485 20.0391 25.485C17.562 25.485 15.5469 23.456 15.5469 20.9622V20.9622Z" fill="#FC0012"/>
</svg>
