<svg width="34" height="34" viewBox="0 0 34 34" fill="none" xmlns="http://www.w3.org/2000/svg">
<path d="M23.1931 5.76329H19.8712C19.9888 4.30303 19.4915 2.80214 18.3769 1.6875C16.3602 -0.329014 13.079 -0.329014 11.0624 1.6875L10.0315 2.71842L9.00054 1.6875C6.98389 -0.329146 3.70262 -0.32908 1.68604 1.68757C0.709167 2.66438 0.171143 3.96329 0.171143 5.34479C0.171143 6.72628 0.709101 8.02513 1.68604 9.002L4.18561 11.5016C3.35885 13.0564 2.92443 14.7924 2.92443 16.5702C2.92443 22.5291 7.77239 27.377 13.7314 27.377H15.3464L22.3893 33.9317V27.377H23.1931C29.1521 27.377 34 22.5291 34 16.5702C34 10.6113 29.152 5.76329 23.1931 5.76329ZM3.08882 3.09028C3.71042 2.46867 4.52674 2.15794 5.34326 2.15794C6.15958 2.15794 6.97623 2.4688 7.5977 3.09028L10.0314 5.52397L12.4651 3.09028C13.7082 1.84726 15.7308 1.8472 16.974 3.09034C17.5762 3.69252 17.9078 4.49312 17.9078 5.34479C17.9078 6.19639 17.5762 6.99705 16.974 7.59923L10.0315 14.5419L3.08882 7.59923C1.84574 6.35608 1.84574 4.33342 3.08882 3.09028ZM23.1931 25.3932H20.4054V29.3754L16.1268 25.3932H13.7314C8.86628 25.3932 4.90831 21.4352 4.90831 16.5702C4.90831 15.3254 5.16896 14.1063 5.66827 12.9842L10.0315 17.3474L18.3769 9.002C18.7561 8.62281 19.0639 8.1989 19.3005 7.7471H23.1932C28.0582 7.7471 32.0163 11.7051 32.0163 16.5702C32.0163 21.4352 28.0581 25.3932 23.1931 25.3932Z" fill="white"/>
<path d="M13.0515 16.0059H15.1482V17.9897H13.0515V16.0059Z" fill="white"/>
<path d="M17.6812 16.0059H19.7778V17.9897H17.6812V16.0059Z" fill="white"/>
<path d="M22.3103 16.0059H24.407V17.9897H22.3103V16.0059Z" fill="white"/>
</svg>
