<svg width="100" height="100" viewBox="0 0 100 100" fill="none" xmlns="http://www.w3.org/2000/svg">
<path d="M67.9699 16.4987H58.1623C58.5094 12.1874 57.0411 7.75619 53.7504 4.46535C47.7965 -1.48819 38.1091 -1.48819 32.1552 4.46535L29.1115 7.50903L26.0678 4.46535C20.1139 -1.48858 10.4263 -1.48839 4.47257 4.46555C1.58846 7.34947 0 11.1844 0 15.2631C0 19.3418 1.58826 23.1765 4.47257 26.0606L11.8523 33.4403C9.41136 38.0307 8.12877 43.156 8.12877 48.4047C8.12877 65.9979 22.4419 80.3108 40.035 80.3108H44.8033L65.5967 99.6628V80.3108H67.9699C85.5631 80.3108 99.876 65.9977 99.876 48.4047C99.876 30.8117 85.5629 16.4987 67.9699 16.4987ZM8.61411 8.60689C10.4493 6.77167 12.8594 5.85425 15.2701 5.85425C17.6802 5.85425 20.0913 6.77206 21.9261 8.60689L29.1113 15.7921L36.2965 8.60689C39.9668 4.93703 45.9383 4.93684 49.6087 8.60708C51.3866 10.385 52.3656 12.7486 52.3656 15.2631C52.3656 17.7773 51.3866 20.1412 49.6087 21.9191L29.1115 42.4165L8.61411 21.9191C4.94406 18.2488 4.94406 12.2771 8.61411 8.60689ZM67.9699 74.4538H59.7395V86.2107L47.1073 74.4538H40.035C25.6714 74.4538 13.9859 62.7683 13.9859 48.4047C13.9859 44.7298 14.7555 41.1304 16.2296 37.8175L29.1117 50.6995L53.7506 26.0606C54.8701 24.9411 55.7788 23.6895 56.4773 22.3556H67.9701C82.3335 22.3556 94.0192 34.0411 94.0192 48.4047C94.0192 62.7683 82.3333 74.4538 67.9699 74.4538Z" fill="#0084FE" fill-opacity="0.04"/>
<path d="M38.0288 46.7388H44.219V52.5959H38.0288V46.7388Z" fill="#0084FE" fill-opacity="0.04"/>
<path d="M51.6963 46.7388H57.8865V52.5959H51.6963V46.7388Z" fill="#0084FE" fill-opacity="0.04"/>
<path d="M65.3638 46.7388H71.5539V52.5959H65.3638V46.7388Z" fill="#0084FE" fill-opacity="0.04"/>
</svg>
