<svg width="82" height="48" viewBox="0 0 82 48" fill="none" xmlns="http://www.w3.org/2000/svg">
<path d="M80.5219 33.5974L78.9203 24.1498C78.6002 22.5482 77.3194 21.1073 75.7177 20.7873L62.7476 17.9048C62.1068 17.7448 61.4668 17.4248 60.9859 16.9439L50.2575 5.41468C47.6958 2.69298 44.1733 1.09131 40.3299 1.09131H20.6339C12.948 1.09131 6.38212 6.53553 4.94127 14.2214L1.09872 35.1983C0.778714 36.6391 1.25873 38.0808 2.21957 39.2016C3.18041 40.3225 4.62126 40.9633 6.06211 40.9633H7.02295C8.62462 44.9667 12.4672 47.8484 17.1114 47.8484C21.5947 47.8484 25.5981 44.9659 27.199 40.9633H54.1C55.7017 44.9667 59.5443 47.8484 64.1876 47.8484C68.671 47.8484 72.6744 44.9659 74.2761 40.9633H75.7169C77.1578 40.9633 78.4394 40.4833 79.3995 39.3617C80.3603 38.4008 81.0011 37.12 81.0011 35.6791L80.5211 33.5974H80.5219ZM6.06293 39.8425C4.94208 39.8425 3.98124 39.3625 3.18041 38.5616C2.53958 37.7608 2.21957 36.6399 2.37957 35.5191L2.53958 34.5583H6.54294C6.38294 35.3591 6.22293 36.3199 6.22293 37.12C6.22293 38.0808 6.38294 38.8816 6.54294 39.8425H6.06211H6.06293ZM26.0789 39.8425C26.0789 40.0025 25.9189 40.3225 25.9189 40.4833C25.9189 40.6441 25.7589 40.9633 25.5989 41.1241C24.1581 44.4867 20.7955 46.7284 16.9522 46.7284C13.1088 46.7284 9.74629 44.4867 8.30543 41.1241C8.14543 40.9641 8.14543 40.6441 7.98542 40.4833C7.98542 40.3233 7.82542 40.0033 7.82542 39.8425C7.50541 39.0416 7.34459 38.0808 7.34459 37.12C7.33397 36.2427 7.4974 35.372 7.82542 34.5583C7.82542 34.3983 7.98542 34.0783 7.98542 33.9174C7.98542 33.7566 8.14543 33.4374 8.14543 33.2766C9.58628 29.9141 12.9488 27.5124 16.7922 27.5124C20.6355 27.5124 23.9981 29.9141 25.4389 33.2766C25.5989 33.4366 25.5989 33.7574 25.5989 33.9174C25.5989 34.0774 25.7589 34.3974 25.7589 34.5583C25.9189 35.3591 26.2398 36.3199 26.2398 37.12C26.3998 38.0808 26.2398 38.8816 26.0798 39.8425H26.0789ZM27.3598 39.8425C27.5198 39.0416 27.6798 38.0808 27.6798 37.12C27.6798 36.1591 27.5198 35.3583 27.3598 34.5583H53.4608C53.3008 35.3591 53.1408 36.3199 53.1408 37.12C53.1408 38.0808 53.3008 38.8816 53.4608 39.8425H27.3598V39.8425ZM72.9952 39.8425C72.9952 40.0025 72.8352 40.3225 72.8352 40.4833C72.8352 40.6441 72.6752 40.9633 72.5152 41.1241C71.0743 44.4867 67.7118 46.7284 63.8685 46.7284C60.0251 46.7284 56.6626 44.4867 55.2217 41.1241C55.0617 40.9641 55.0617 40.6441 54.9017 40.4833C54.9017 40.3233 54.7417 40.0033 54.7417 39.8425C54.4217 39.0416 54.2617 38.0808 54.2617 37.12C54.2508 36.2427 54.414 35.3721 54.7417 34.5583C54.7417 34.3983 54.9017 34.0783 54.9017 33.9174C54.9017 33.7566 55.0617 33.4374 55.0617 33.2766C56.5026 29.9141 59.8651 27.5124 63.7085 27.5124C67.5518 27.5124 70.9143 29.9141 72.3552 33.2766C72.5152 33.4366 72.5152 33.7574 72.5152 33.9174C72.5152 34.0774 72.6752 34.3974 72.6752 34.5583C72.8352 35.3591 73.156 36.3199 73.156 37.12C73.476 38.0808 73.316 38.8816 72.9952 39.8425ZM63.8685 26.3915C59.2251 26.3915 55.3817 29.2741 53.78 33.2766H26.879C25.2773 29.2732 21.4347 26.3915 16.7905 26.3915C12.1463 26.3915 8.3038 29.2741 6.70294 33.2766H2.53958L3.98043 25.1099H7.50296C7.82297 25.1099 8.1438 24.7899 8.1438 24.469C8.1438 24.1482 7.82379 23.8282 7.50296 23.8282H4.30043L4.62044 21.9065H7.82297C8.14298 21.9065 8.46381 21.5865 8.46381 21.2665C8.46381 20.9465 8.1438 20.6257 7.82297 20.6257H4.78045L5.90129 14.2206C7.18214 7.17473 13.2672 2.21134 20.3131 2.21134H40.0083C43.3708 2.21134 46.7333 3.65219 48.975 6.0547L59.7035 17.584C60.3443 18.2248 61.1443 18.7048 62.1051 18.8648L75.0761 21.7473C76.1969 21.9073 76.9969 22.7082 77.157 23.829H72.3536C72.0336 23.829 71.7127 24.149 71.7127 24.4699C71.7127 24.7907 72.0336 25.1107 72.3536 25.1107H77.3178L78.7586 33.1166H73.4744C72.3536 29.2732 68.5102 26.3915 63.8668 26.3915H63.8685ZM79.2403 35.8391C79.2403 36.96 78.7603 37.9208 78.1194 38.7216C77.3194 39.5225 76.3586 39.8425 75.2377 39.8425H74.2769C74.4369 39.0416 74.5969 38.0808 74.5969 37.12C74.5969 36.1591 74.4369 35.3583 74.2769 34.5583H79.2403V35.8391V35.8391Z" fill="#FC0012" stroke="#FC0012" stroke-width="0.3"/>
<path d="M27.8414 20.7888H24.6389C24.3189 20.7888 23.998 21.1088 23.998 21.4297C23.998 21.7505 24.3181 22.0705 24.6389 22.0705H27.8414C28.1614 22.0705 28.4822 21.7505 28.4822 21.4297C28.4822 21.1088 28.1622 20.7888 27.8414 20.7888V20.7888Z" fill="#FC0012" stroke="#FC0012" stroke-width="0.3"/>
<path d="M69.1504 33.9173C68.9904 33.7573 68.8304 33.4373 68.6703 33.2764C67.5495 31.8356 65.7878 30.8748 63.8661 30.8748C61.9445 30.8748 60.1836 31.8356 59.0628 33.2764C58.9028 33.4365 58.7419 33.7573 58.5819 33.9173C58.4219 34.0773 58.4219 34.3973 58.2619 34.5581C57.9419 35.359 57.6211 36.1598 57.6211 37.1198C57.6211 38.0798 57.9419 39.0415 58.2619 39.8423C58.4219 40.0023 58.4219 40.3223 58.5819 40.4832C58.7419 40.644 58.9028 40.9632 59.0628 41.124C60.1836 42.5648 61.9445 43.3657 63.8661 43.3657C65.7878 43.3657 67.5495 42.4048 68.6703 41.124C68.8304 40.964 68.9904 40.804 69.1504 40.4832C69.3104 40.3232 69.3104 40.0031 69.4712 39.8423C69.7912 39.0415 70.1112 38.0807 70.1112 37.1198C70.1112 36.159 69.9512 35.3581 69.4712 34.5581C69.4712 34.2381 69.3104 34.0781 69.1504 33.9173V33.9173ZM68.0295 39.8423C67.8695 40.0023 67.7095 40.3223 67.5495 40.4832L66.9087 41.124C66.1078 41.7648 64.987 42.0848 63.8661 42.0848C62.7453 42.0848 61.7845 41.7648 60.8236 41.124C60.5376 40.998 60.3093 40.7693 60.1836 40.4832C60.0236 40.3232 59.8628 40.1632 59.7028 39.8423C59.2228 39.0415 58.9028 38.0807 58.9028 37.1198C58.9028 36.159 59.2228 35.3581 59.7028 34.5581C59.8628 34.3981 60.0236 34.0781 60.1836 33.9173L60.8236 33.2764C61.6245 32.6356 62.7453 32.1556 63.8661 32.1556C64.987 32.1556 66.1078 32.6356 66.9087 33.2764C67.0687 33.4365 67.3895 33.5965 67.5495 33.9173C67.7095 34.0773 67.8695 34.2373 68.0295 34.5581C68.5103 35.359 68.8303 36.1598 68.8303 37.1198C68.8303 38.0798 68.5103 39.0415 68.0295 39.8423Z" fill="#FC0012" stroke="#FC0012" stroke-width="0.3"/>
<path d="M22.2363 33.9173C22.0763 33.7573 21.9163 33.4373 21.7555 33.2764C20.6346 31.8356 18.873 30.8748 16.9513 30.8748C15.0296 30.8748 13.2687 31.8356 12.1479 33.2764C11.9879 33.4365 11.8279 33.7573 11.6679 33.9173C11.5079 34.0773 11.5079 34.3973 11.3479 34.5581C11.0279 35.359 10.707 36.1598 10.707 37.1198C10.707 38.0798 11.027 39.0415 11.3479 39.8423C11.5079 40.0023 11.5079 40.3223 11.6679 40.4832C11.8279 40.644 11.9879 40.9632 12.1479 41.124C13.2687 42.5648 15.0304 43.3657 16.9513 43.3657C18.8721 43.3657 20.6346 42.4048 21.7555 41.124C21.9155 40.964 22.0755 40.804 22.2363 40.4832C22.3963 40.3232 22.3963 40.0031 22.5563 39.8423C22.8763 39.0415 23.1971 38.0807 23.1971 37.1198C23.1971 36.159 23.0371 35.3581 22.5563 34.5581C22.3963 34.2381 22.2363 34.0781 22.2363 33.9173V33.9173ZM21.1155 39.8423C20.9555 40.0023 20.7954 40.3223 20.6354 40.4832L19.9946 41.124C19.1938 41.7648 18.0729 42.0848 16.9521 42.0848C15.8312 42.0848 14.8704 41.7648 13.9096 41.124C13.6233 40.9981 13.3946 40.7695 13.2687 40.4832C13.1087 40.3232 12.9487 40.1632 12.7887 39.8423C12.3079 39.0415 11.9879 38.0807 11.9879 37.1198C11.9879 36.159 12.3079 35.3581 12.7887 34.5581C12.9487 34.3981 13.1087 34.0781 13.2687 33.9173L13.9096 33.2764C14.7104 32.6356 15.8312 32.1556 16.9521 32.1556C18.0729 32.1556 19.1938 32.6356 19.9946 33.2764C20.1546 33.4365 20.4754 33.5965 20.6354 33.9173C20.7954 34.0773 20.9555 34.2373 21.1155 34.5581C21.5963 35.359 21.9163 36.1598 21.9163 37.1198C21.9163 38.0798 21.5963 39.0415 21.1155 39.8423Z" fill="#FC0012" stroke="#FC0012" stroke-width="0.3"/>
<path d="M56.341 17.1046L48.1751 7.65781C46.0934 5.25612 43.0508 3.81445 39.8483 3.81445H22.394C18.5506 3.81445 15.0281 6.05614 13.4272 9.7395L11.8256 13.422C11.3447 14.3829 11.5056 15.6637 11.9856 16.6246C12.6264 17.5854 13.5864 18.2262 14.7081 18.2262L55.2201 19.5071C55.7001 19.5071 56.181 19.1871 56.501 18.7063C56.661 18.2262 56.661 17.5854 56.341 17.1046V17.1046ZM14.7081 16.9446C13.9073 16.9446 13.2672 16.6246 12.9464 15.9837C12.6256 15.3429 12.4664 14.5429 12.7864 13.9021L14.3881 10.2195C15.3489 7.97782 17.2706 6.21615 19.5123 5.57613L21.274 17.2654L14.7089 16.9454L14.7081 16.9446ZM55.2201 18.2254L22.554 17.2646L20.7923 5.25531C21.2732 5.0953 21.7532 5.0953 22.2332 5.0953H39.6867C42.5692 5.0953 45.2909 6.37615 47.2126 8.45783L55.3793 17.9054L55.2193 18.2254H55.2201Z" fill="#FC0012" stroke="#FC0012" stroke-width="0.3"/>
</svg>
