<svg width="134" height="48" viewBox="0 0 134 48" fill="none" xmlns="http://www.w3.org/2000/svg">
<path d="M132.254 22.2799C130.557 18.8856 126.973 16.8106 122.448 16.6228L94.5371 13.9821C92.0853 13.9821 89.8225 13.2275 87.7485 11.7193L78.1305 5.11864C77.7537 4.92973 77.3758 4.55293 76.8101 4.17614C72.0956 0.781886 71.153 0.404061 70.5873 0.781888C70.2105 0.970802 70.0216 1.34759 69.8327 1.9133L69.6438 2.2901C69.267 3.04472 69.267 3.98723 70.0206 4.74185L79.6387 12.6618L79.8276 13.0386L79.4508 13.2275L48.5237 12.0961L45.883 6.06115C45.5062 5.11864 44.5627 4.5519 43.6202 4.5519C42.8655 4.5519 42.112 4.9287 41.7341 5.49441C41.3563 6.06011 41.1684 6.81474 41.3573 7.56936L42.4888 11.9071L15.8984 10.9646H12.3152H9.10884C7.03491 10.9646 4.95996 11.7193 3.45175 13.2275C1.94354 14.7357 1 16.6217 1 18.8846V25.6731C1 33.593 7.41171 40.1936 15.5205 40.1936H17.0288C19.1027 44.5314 23.4405 47.7367 28.5329 47.7367C33.6253 47.7367 38.151 44.7193 40.037 40.1936H95.1028C97.1767 44.5314 101.514 47.7367 106.606 47.7367C111.886 47.7367 116.224 44.5314 118.299 40.1936C123.201 39.6279 127.539 37.3651 130.368 33.593C130.933 32.8384 131.31 32.0838 131.688 31.3302H131.876V31.1412C133.385 27.747 133.574 24.7295 132.254 22.2778V22.2799ZM42.8655 6.25006C43.2423 5.68435 44.1859 5.87327 44.5627 6.43898L46.8255 11.9082L43.808 11.7193L42.6766 7.00468C42.6766 6.81577 42.6766 6.62789 42.8655 6.25006ZM16.2752 38.4975H15.3327C10.2413 38.4975 5.71458 35.4801 3.64066 31.1423H16.4641C16.0873 32.2737 15.8984 33.594 15.8984 34.9144C15.7095 36.0458 16.0873 37.1772 16.2752 38.4975ZM39.0935 38.4975C38.9046 39.0632 38.7167 39.44 38.5278 40.0057C36.6417 43.5889 32.8707 46.0406 28.7218 46.0406C24.384 46.0406 20.613 43.5889 18.9158 40.0057C18.7269 39.6289 18.539 39.0632 18.3501 38.4975C17.9733 37.3661 17.5955 36.0458 17.5955 34.7254C17.5955 33.4051 17.7844 32.0858 18.3501 30.9534C18.539 30.3877 18.7269 30.0109 18.9158 29.4452C20.8019 25.862 24.5729 23.4102 28.7218 23.4102C33.0596 23.4102 36.6417 25.862 38.5278 29.4452C38.7167 29.8219 38.9046 30.3877 39.0935 30.9534C39.4703 32.0848 39.8481 33.4051 39.8481 34.7254C39.6592 36.0458 39.4713 37.1772 39.0935 38.4975ZM94.5371 38.4975H40.6027C40.9795 37.3661 41.1684 36.0458 41.1684 34.7254C41.1684 33.4051 40.9795 32.0858 40.6027 30.9534H94.726C94.3481 32.0848 94.1603 33.4051 94.1603 34.7254C94.1603 36.0458 94.3481 37.1772 94.5371 38.4975ZM117.355 38.3086C117.167 38.8743 116.979 39.2511 116.79 39.8179C115.832 41.6389 114.394 43.1635 112.633 44.2271C110.871 45.2907 108.852 45.8528 106.795 45.8528C102.458 45.8528 98.6859 43.401 96.9888 39.8179C96.7999 39.4411 96.611 38.8754 96.4231 38.3086C96.0453 37.1772 95.6685 35.8569 95.6685 34.5376C95.6685 33.2183 95.8574 31.8969 96.4231 30.7655C96.611 30.1998 96.7999 29.823 96.9888 29.2562C98.8748 25.6731 102.646 23.2213 106.795 23.2213C110.944 23.2213 114.716 25.6731 116.601 29.2562C116.79 29.633 116.979 30.1987 117.167 30.7655C117.544 31.8969 117.921 33.2172 117.921 34.5376C117.921 36.0458 117.733 37.1782 117.355 38.3086ZM129.236 32.2737C126.785 35.479 123.201 37.554 118.865 38.1197C119.241 36.9883 119.43 35.8569 119.43 34.5365C119.43 33.2162 119.241 31.8959 118.865 30.7644H130.179C129.802 31.3302 129.613 31.8959 129.236 32.2727V32.2737ZM130.933 29.4452H118.299C116.224 25.1074 111.886 21.902 106.795 21.902C101.703 21.902 97.1767 24.9195 95.2917 29.4452H40.037C37.962 25.1074 33.6253 21.902 28.5329 21.902C23.4405 21.902 18.9148 24.9195 17.0298 29.4452H3.07495C2.69816 28.3137 2.50924 27.1823 2.50924 25.862H6.28132C6.47679 25.8479 6.66063 25.7638 6.79921 25.6252C6.93778 25.4867 7.02182 25.3028 7.03595 25.1074C7.02182 24.9119 6.93778 24.7281 6.79921 24.5895C6.66063 24.4509 6.47679 24.3669 6.28132 24.3527H2.50924V19.6382H6.28132C6.47679 19.624 6.66063 19.54 6.79921 19.4014C6.93778 19.2628 7.02182 19.079 7.03595 18.8835C7.02182 18.6881 6.93778 18.5042 6.79921 18.3657C6.66063 18.2271 6.47679 18.143 6.28132 18.1289H2.69816C2.88707 16.6207 3.45278 15.1115 4.5842 13.98C5.71562 12.8486 7.41274 12.2829 8.92199 12.2829H9.1109H12.3173H15.7115L79.4529 14.7347C80.2075 14.7347 80.9621 14.3579 81.15 13.6032C81.2484 13.2385 81.2479 12.854 81.1485 12.4895C81.0491 12.125 80.8543 11.7936 80.5843 11.5293L70.9662 3.79728C70.8758 3.69235 70.8261 3.55846 70.8261 3.41997C70.8261 3.28148 70.8758 3.14758 70.9662 3.04266L71.1551 2.66586L71.344 2.28907C72.2865 2.66586 74.9272 4.5519 76.0586 5.30653C76.6243 5.68332 77.0011 6.06115 77.3789 6.24903L86.997 12.6607C89.2599 14.3579 91.8995 15.1125 94.5401 15.3004L122.451 17.941C125.656 18.1299 128.485 19.4492 130.182 21.5242H123.017C122.821 21.5383 122.637 21.6224 122.499 21.7609C122.36 21.8995 122.276 22.0834 122.262 22.2788C122.276 22.4743 122.36 22.6581 122.499 22.7967C122.637 22.9353 122.821 23.0193 123.017 23.0334H131.125C131.879 24.9195 131.879 27.1823 130.936 29.4452H130.933Z" fill="#111010" stroke="#111010" stroke-width="0.3"/>
<path d="M111.887 29.4512C110.567 28.1308 108.87 27.3762 106.796 27.3762C104.91 27.3762 103.024 28.1308 101.704 29.4512C101.327 29.828 100.95 30.3937 100.572 30.9594C99.8185 32.0908 99.4407 33.4111 99.4407 34.7315C99.4407 36.0518 99.8185 37.3721 100.572 38.5035C100.95 39.0693 101.327 39.446 101.704 40.0118C103.024 41.3321 104.91 42.0867 106.796 42.0867C108.87 42.0867 110.567 41.3321 111.887 40.0118C112.265 39.635 112.642 39.0693 113.019 38.5035C113.584 37.3721 114.15 36.2407 114.15 34.7315C114.15 33.4111 113.773 32.0918 113.019 30.9594C112.642 30.3937 112.265 30.0169 111.887 29.4512ZM111.133 38.5035C110.567 39.0693 110.001 39.635 109.248 40.0118C108.494 40.3886 107.551 40.7664 106.607 40.7664C105.663 40.7664 104.721 40.5775 103.967 40.0118C103.213 39.635 102.647 39.0693 102.081 38.5035C101.327 37.561 100.761 36.2407 100.761 34.7315C100.761 33.2222 101.327 32.0918 102.081 30.9594C102.647 30.3937 103.213 29.828 103.967 29.4512C104.722 29.0744 105.665 28.8855 106.607 28.8855C107.55 28.8855 108.304 29.0744 109.248 29.4512C110.001 29.828 110.567 30.3937 111.133 30.9594C112.076 31.9019 112.453 33.2222 112.453 34.7315C112.642 36.0518 112.076 37.3721 111.133 38.5035Z" fill="#111010" stroke="#111010" stroke-width="0.3"/>
<path d="M52.8604 17.7532H49.0884C48.8929 17.7673 48.7091 17.8513 48.5705 17.9899C48.4319 18.1285 48.3479 18.3123 48.3337 18.5078C48.3479 18.7033 48.4319 18.8871 48.5705 19.0257C48.7091 19.1643 48.8929 19.2483 49.0884 19.2624H52.8604C53.0559 19.2483 53.2397 19.1643 53.3783 19.0257C53.5169 18.8871 53.6009 18.7033 53.6151 18.5078C53.6009 18.3123 53.5169 18.1285 53.3783 17.9899C53.2397 17.8513 53.0559 17.7673 52.8604 17.7532Z" fill="#111010" stroke="#111010" stroke-width="0.3"/>
<path d="M33.6253 29.4512C32.3049 28.1308 30.6078 27.3762 28.5339 27.3762C26.6479 27.3762 24.7618 28.1308 23.4425 29.4512C23.0657 29.828 22.6879 30.3937 22.3111 30.9594C21.5565 32.0908 21.1797 33.4111 21.1797 34.7315C21.1797 36.0518 21.5565 37.3721 22.3111 38.5035C22.6879 39.0693 23.0657 39.446 23.4425 40.0118C24.7629 41.3321 26.6489 42.0867 28.5339 42.0867C30.4189 42.0867 32.306 41.3321 33.6253 40.0118C34.0021 39.635 34.3799 39.0693 34.7567 38.5035C35.3224 37.3721 35.8881 36.2407 35.8881 34.7315C35.8881 33.4111 35.5113 32.0918 34.7567 30.9594C34.3799 30.3937 34.0021 30.0169 33.6253 29.4512ZM32.8707 38.5035C32.3049 39.0693 31.7392 39.635 30.9846 40.0118C30.23 40.3886 29.2875 40.7664 28.344 40.7664C27.4004 40.7664 26.4579 40.5775 25.7043 40.0118C24.9497 39.635 24.384 39.0693 23.8183 38.5035C23.0637 37.561 22.498 36.2407 22.498 34.7315C22.498 33.2222 23.0637 32.0918 23.8183 30.9594C24.384 30.3937 24.9497 29.828 25.7043 29.4512C26.4589 29.0744 27.4014 28.8855 28.344 28.8855C29.2865 28.8855 30.0411 29.0744 30.9846 29.4512C31.7392 29.828 32.3049 30.3937 32.8707 30.9594C33.8132 31.9019 34.191 33.2222 34.191 34.7315C34.3799 36.0518 33.8142 37.3721 32.8707 38.5035Z" fill="#111010" stroke="#111010" stroke-width="0.3"/>
</svg>
