<svg width="121" height="48" viewBox="0 0 121 48" fill="none" xmlns="http://www.w3.org/2000/svg">
<path d="M111.389 16.8921L85.7569 14.4998C85.0736 14.4998 84.2186 14.1576 83.5352 13.987L65.593 5.44339C59.6123 2.53832 52.7766 1 46.1125 1C34.151 1 22.7022 5.44339 13.987 13.3037C13.6449 13.4743 13.3037 13.6458 12.9615 13.6458L8.3475 13.8164C6.46797 13.6458 4.58845 14.4998 3.22073 15.8666C1.85302 17.2333 1 18.9422 1 20.9933V27.1447C1 34.3216 6.81014 40.3023 14.1576 40.3023H15.5244C17.4039 44.2329 21.3345 47.138 25.9485 47.138C30.5625 47.138 34.6637 44.4035 36.3727 40.3023H90.1994C92.0798 44.2329 96.0095 47.138 100.623 47.138C105.579 47.138 109.68 44.0623 111.389 39.7905C116.857 38.2522 120.787 33.1264 120.787 27.3162C121.13 21.3355 116.857 17.0637 111.389 16.8921ZM15.1832 38.5934H14.3292C12.1164 38.5859 9.95021 37.9573 8.07715 36.7791C6.20409 35.6009 4.69943 33.9206 3.73447 31.9293H15.3547C15.0135 32.9548 14.842 34.151 14.842 35.3471C14.6714 36.3727 14.842 37.3972 15.1832 38.5943V38.5934ZM35.8599 38.5934C35.6893 39.1062 35.5177 39.4483 35.3471 39.9601C33.6382 43.2074 30.2204 45.4281 26.2907 45.4281C22.361 45.4281 18.9432 43.2064 17.4049 39.9601C17.2343 39.6189 17.0627 39.1062 16.8921 38.5934C16.5499 37.5678 16.2087 36.3717 16.2087 35.1755C16.2087 33.9794 16.3793 32.7833 16.8921 31.7577C17.0627 31.2449 17.2343 30.9037 17.4049 30.391C19.1138 27.1447 22.5316 24.923 26.2907 24.923C30.2213 24.923 33.4676 27.1447 35.1765 30.391C35.3471 30.7331 35.5187 31.2449 35.6893 31.7577C36.0314 32.7833 36.3727 33.9794 36.3727 35.1755C36.3727 36.3717 36.2021 37.5678 35.8599 38.5934ZM90.0288 38.5934H37.2266C37.5688 37.5678 37.7394 36.3717 37.7394 35.1755C37.7394 33.9794 37.5688 32.7833 37.2266 31.7577H90.0288C89.6876 32.7833 89.516 33.9794 89.516 35.1755C89.516 36.3717 89.6876 37.3972 90.0288 38.5934ZM110.535 38.2522C110.363 38.765 110.193 39.2777 110.022 39.6189C108.313 43.0368 104.895 45.2575 100.966 45.2575C97.036 45.2575 93.6172 43.0358 92.0798 39.7895C91.9083 39.4483 91.7377 38.9356 91.5671 38.4228C91.2249 37.3972 90.8837 36.2011 90.8837 35.0049C90.8837 33.8088 91.0543 32.6126 91.5671 31.5871C91.7377 31.0743 91.9083 30.7331 92.0798 30.2203C93.7888 26.9731 97.2057 24.7524 100.966 24.7524C104.895 24.7524 108.143 26.9741 109.851 30.2203C110.022 30.5625 110.193 31.0743 110.363 31.5871C110.705 32.6126 111.048 33.8088 111.048 35.0049C111.048 36.2011 110.876 37.2266 110.535 38.2522ZM112.072 37.7394C112.244 36.8854 112.414 36.0305 112.414 35.1765C112.414 33.9804 112.244 32.7842 111.902 31.7587H118.566C117.37 34.4931 114.977 36.7139 112.072 37.7394ZM111.389 30.3919C109.509 26.4613 105.579 23.5572 100.966 23.5572C96.3526 23.5572 92.2505 26.2917 90.5415 30.3919H36.7139C34.8343 26.4613 30.9037 23.5572 26.2897 23.5572C21.6757 23.5572 17.5745 26.2917 15.8656 30.3919H3.22169C2.87198 29.3457 2.6987 28.2487 2.70892 27.1456H6.12676C6.30381 27.1329 6.47036 27.0569 6.59587 26.9314C6.72138 26.8059 6.79745 26.6393 6.81014 26.4623C6.79745 26.2852 6.72138 26.1187 6.59587 25.9931C6.47036 25.8676 6.30381 25.7916 6.12676 25.7789H2.70892V21.5071H6.12676C6.30381 21.4944 6.47036 21.4183 6.59587 21.2928C6.72138 21.1673 6.79745 21.0007 6.81014 20.8237C6.79745 20.6466 6.72138 20.4801 6.59587 20.3546C6.47036 20.2291 6.30381 20.153 6.12676 20.1403H2.88048C3.05109 18.7736 3.56386 17.4058 4.58941 16.3813C5.61495 15.3567 7.15231 14.8429 8.52002 14.8429H8.69063L13.3046 14.6723C13.9106 14.6617 14.5018 14.4843 15.0135 14.1596C23.5581 6.46989 34.8363 2.19807 46.4556 2.19807C52.9491 2.19807 59.4426 3.73638 65.4234 6.46989L83.3656 15.0145C84.2196 15.3557 85.0745 15.6979 85.9285 15.6979L111.56 18.0902C114.637 18.2608 117.2 19.7991 118.567 22.1914H111.903C111.726 22.2041 111.559 22.2801 111.433 22.4057C111.308 22.5312 111.232 22.6977 111.219 22.8748C111.232 23.0518 111.308 23.2184 111.433 23.3439C111.559 23.4694 111.726 23.5455 111.903 23.5581H119.25C119.592 24.5837 119.934 25.6083 119.934 26.8044C119.934 28.1712 119.763 29.3673 119.25 30.5635H111.39V30.3929L111.389 30.3919Z" fill="#111010" stroke="#111010" stroke-width="0.3"/>
<path d="M105.578 30.3939C104.382 29.1978 102.843 28.5144 100.964 28.5144C99.2548 28.5144 97.5458 29.1978 96.3497 30.3939C96.0085 30.7361 95.6663 31.2479 95.3241 31.7607C94.6495 32.7729 94.2896 33.9621 94.2896 35.1785C94.2896 36.3949 94.6495 37.5842 95.3241 38.5964C95.6663 39.1091 96.0085 39.4513 96.3497 39.9631C97.5458 41.1593 99.2548 41.8426 100.964 41.8426C102.843 41.8426 104.382 41.1593 105.578 39.9631C105.919 39.621 106.261 39.1091 106.603 38.5964C107.115 37.5708 107.628 36.5462 107.628 35.1785C107.631 33.9631 107.274 32.774 106.603 31.7607C106.261 31.2479 105.919 30.9067 105.578 30.3939ZM104.894 38.5964C104.382 39.1091 103.869 39.6219 103.185 39.9631C102.502 40.3043 101.647 40.6465 100.793 40.6465C99.9391 40.6465 99.0841 40.4759 98.4008 39.9631C97.7174 39.621 97.2046 39.1091 96.6918 38.5964C96.0085 37.7424 95.4957 36.5462 95.4957 35.1785C95.4957 33.8108 96.0085 32.7862 96.6918 31.7607C97.2046 31.2479 97.7174 30.7351 98.4008 30.3939C99.0841 30.0527 99.9381 29.8812 100.793 29.8812C101.648 29.8812 102.33 30.0518 103.185 30.3939C103.869 30.7361 104.382 31.2479 104.894 31.7607C105.748 32.6147 106.09 33.8108 106.09 35.1785C106.261 36.5453 105.748 37.5708 104.894 38.5964Z" fill="#111010" stroke="#111010" stroke-width="0.3"/>
<path d="M44.5751 19.7981H41.1573C40.9802 19.8108 40.8137 19.8869 40.6881 20.0124C40.5626 20.1379 40.4866 20.3044 40.4739 20.4815C40.4866 20.6585 40.5626 20.8251 40.6881 20.9506C40.8137 21.0761 40.9802 21.1522 41.1573 21.1649H44.5751C44.7521 21.1522 44.9187 21.0761 45.0442 20.9506C45.1697 20.8251 45.2458 20.6585 45.2585 20.4815C45.2458 20.3044 45.1697 20.1379 45.0442 20.0124C44.9187 19.8869 44.7521 19.8108 44.5751 19.7981Z" fill="#111010" stroke="#111010" stroke-width="0.3"/>
<path d="M30.9048 30.3939C29.7087 29.1978 28.1703 28.5144 26.2908 28.5144C24.4113 28.5144 22.873 29.1978 21.6768 30.3939C21.3347 30.7361 20.9934 31.2479 20.6513 31.7607C19.9679 32.7862 19.6257 33.9824 19.6257 35.1785C19.6257 36.3747 19.9679 37.5708 20.6513 38.5964C20.9934 39.1091 21.3347 39.4513 21.6768 39.9631C22.873 41.1593 24.5819 41.8426 26.2908 41.8426C28.1703 41.8426 29.7087 41.1593 30.9048 39.9631C31.246 39.6219 31.5882 39.1091 31.9304 38.5964C32.4431 37.5708 32.9559 36.5462 32.9559 35.1785C32.9559 33.9824 32.6137 32.7862 31.9304 31.7607C31.5882 31.2479 31.247 30.9067 30.9048 30.3939ZM30.2214 38.5964C29.7087 39.1091 29.1959 39.6219 28.5125 39.9631C27.8291 40.3043 26.9742 40.6465 26.1202 40.6465C25.2662 40.6465 24.4113 40.4759 23.7279 39.9631C23.0445 39.6219 22.5318 39.1091 22.019 38.5964C21.3356 37.7424 20.8228 36.5462 20.8228 35.1785C20.8228 33.8108 21.3356 32.7862 22.019 31.7607C22.5318 31.2479 23.0445 30.7351 23.7279 30.3939C24.4113 30.0527 25.2662 29.8812 26.1202 29.8812C26.9742 29.8812 27.6585 30.0518 28.5125 30.3939C29.1959 30.7361 29.7087 31.2479 30.2214 31.7607C31.0764 32.6147 31.4176 33.8108 31.4176 35.1785C31.5882 36.5453 31.0754 37.5708 30.2214 38.5964Z" fill="#111010" stroke="#111010" stroke-width="0.3"/>
<path d="M75.6758 14.5036L60.6386 7.66792C58.4169 6.64238 56.1952 5.959 53.9745 5.44623C50.2155 4.59129 46.2848 4.42068 42.3542 5.27562L40.9875 5.44623C35.8607 6.47177 31.0761 9.03468 27.4877 12.7937C26.9749 13.3065 26.8043 14.1605 27.1455 14.8439C27.4867 15.5272 27.9995 16.04 28.8544 16.04L74.9924 17.0656C75.5052 17.0656 76.018 16.7234 76.1886 16.2106C76.5307 15.1851 76.1886 14.6723 75.6758 14.5017V14.5036ZM37.9108 14.6742L29.025 14.5036C28.6829 14.5036 28.5122 14.1614 28.5122 14.1614C28.5122 14.1614 28.3416 13.8193 28.6828 13.6487C31.2458 10.9142 34.493 8.86407 37.9108 7.66792V14.6742ZM39.107 14.6742V7.15515C39.7904 6.98455 40.6453 6.81298 41.3287 6.64238L42.6954 6.47177C44.4044 6.12961 45.9427 5.959 47.6506 5.959C49.7008 5.959 51.7519 6.12961 53.802 6.64238C56.0237 7.15515 58.2444 7.83853 60.2955 8.86407L74.6493 15.5282L39.106 14.6733L39.107 14.6742Z" fill="#111010" stroke="#111010" stroke-width="0.3"/>
</svg>
