<svg width="106" height="47" viewBox="0 0 106 47" fill="none" xmlns="http://www.w3.org/2000/svg">
<path d="M104.233 19.1899C103.609 18.2426 102.362 17.6111 100.489 17.2945C97.5246 16.8205 92.0646 16.5047 87.6961 16.1889C84.7311 16.0307 82.2352 15.7149 81.2993 15.7149C80.5189 15.5566 79.895 15.3991 79.271 14.9251L71.9383 6.55619C68.5057 2.60958 63.5132 0.398438 58.3644 0.398438H20.2965C14.8356 0.398438 9.84313 3.39858 7.1909 8.13581L2.82239 15.8732C0.950507 19.1891 0.638528 23.1373 1.88645 26.6107L4.2267 33.2425V34.8213C4.07031 36.5584 4.07031 37.9797 5.00704 38.927C5.47541 39.401 6.25496 39.7168 7.34729 39.7168H12.6517C14.2116 43.6642 17.9562 46.5069 22.4811 46.5069C26.8496 46.5069 30.7498 43.6642 32.3105 39.7168H77.5555C79.1154 43.6642 82.86 46.5069 87.3849 46.5069C91.7526 46.5069 95.6536 43.6642 97.2135 39.7168H102.986C103.143 39.7168 103.298 39.7168 103.455 39.5585C103.611 39.4002 103.61 39.2428 103.61 39.0845V32.4527C103.61 30.0841 104.079 27.8729 104.546 25.9783C104.703 23.1357 105.327 20.7671 104.234 19.1883L104.233 19.1899ZM7.1909 38.4546C6.41055 38.4546 5.94298 38.2963 5.78659 37.9805C5.31823 37.5065 5.31823 36.2434 5.47462 34.8221V33.2433H12.1834C12.027 34.0331 11.8714 34.9804 11.8714 35.7702C11.8714 36.7175 12.027 37.5073 12.1834 38.4546H7.1909V38.4546ZM31.0618 38.4546C31.0618 38.612 30.9054 38.9286 30.9054 39.0861C30.9054 39.2436 30.749 39.5601 30.5934 39.7176C29.1891 43.0335 25.9129 45.2446 22.1683 45.2446C18.4238 45.2446 15.1476 43.0343 13.7433 39.7176C13.5877 39.5593 13.5869 39.2436 13.4313 39.0861C13.4313 38.9278 13.2749 38.612 13.2749 38.4546C12.9629 37.6648 12.8065 36.7175 12.8065 35.7702C12.8065 34.8229 12.9621 34.0331 13.2749 33.2433C13.2749 33.0858 13.4313 32.7692 13.4313 32.6118C13.4313 32.4543 13.5877 32.1377 13.5877 31.9802C14.992 28.6643 18.2682 26.2957 22.0127 26.2957C25.7573 26.2957 29.0335 28.6643 30.4378 31.9802C30.5934 32.1385 30.5934 32.4543 30.5934 32.6118C30.5934 32.7692 30.7498 33.0858 30.7498 33.2433C30.9062 34.0331 31.2181 34.9804 31.2181 35.7702C31.5301 36.7175 31.3745 37.5073 31.0626 38.4546H31.0618ZM32.3097 38.4546C32.4661 37.6648 32.6217 36.7175 32.6217 35.7702C32.6217 34.8229 32.4653 34.0331 32.3097 33.2433H76.7744C76.6188 34.0331 76.4624 34.9804 76.4624 35.7702C76.4624 36.7175 76.6188 37.5073 76.7744 38.4546H32.3097V38.4546ZM95.8083 38.4546C95.8083 38.612 95.6528 38.9286 95.6528 39.0861C95.6528 39.2436 95.4964 39.5601 95.3408 39.7176C93.9365 43.0335 90.6603 45.2446 86.9157 45.2446C83.1712 45.2446 79.895 43.0343 78.4907 39.7176C78.3351 39.5593 78.3351 39.2436 78.1787 39.0861C78.1787 38.9278 78.0223 38.612 78.0223 38.4546C77.7103 37.6648 77.5547 36.7175 77.5547 35.7702C77.5547 34.8229 77.7103 34.0331 78.0223 33.2433C78.0223 33.0858 78.1787 32.7692 78.1787 32.6118C78.1787 32.4543 78.3351 32.1377 78.3351 31.9802C79.7386 28.6643 83.0156 26.2957 86.7593 26.2957C90.5031 26.2957 93.7801 28.6643 95.1844 31.9802C95.3408 32.1385 95.3408 32.4543 95.3408 32.6118C95.3408 32.7692 95.4964 33.0858 95.4964 33.2433C95.6528 34.0331 95.9647 34.9804 95.9647 35.7702C96.2767 36.7175 96.1211 37.5073 95.8083 38.4546ZM101.893 38.4546H97.0571C97.2127 37.6648 97.369 36.7175 97.369 35.7702C97.369 34.8229 97.2127 34.0331 97.0571 33.2433H101.893V38.4546ZM102.985 25.6642C102.517 27.5596 102.05 29.7699 102.05 31.9802H96.7451C95.1844 28.0328 91.4398 25.1902 86.9157 25.1902C82.3916 25.1902 78.6471 28.0328 77.0864 31.9802H31.8413C30.2814 28.0328 26.5368 25.1902 22.0119 25.1902C17.487 25.1902 13.7433 28.0328 12.1826 31.9802H4.84986L2.82159 26.1374C2.35322 24.8744 2.19763 23.6105 2.19763 22.5058H5.94219C6.25417 22.5058 6.56615 22.19 6.56615 21.8743C6.56615 21.5585 6.25417 21.2427 5.94219 21.2427H2.19843C2.35482 19.5056 2.82239 17.9268 3.60274 16.3472L7.97125 8.60985C10.4679 4.18838 14.992 1.50401 19.9845 1.50401H58.0524C62.8893 1.50401 67.5698 3.55686 70.6896 7.18852L78.1787 15.7157L78.3351 15.8732C79.1146 16.3472 80.0506 16.8205 80.9873 16.8205C81.9232 16.9787 84.5755 17.1362 87.5397 17.2945C91.9082 17.6103 97.369 18.0843 100.177 18.4001C101.738 18.5584 102.674 19.0316 103.142 19.8214C103.921 21.0844 103.454 23.1373 102.985 25.6642V25.6642Z" fill="#FC0012" stroke="#FC0012" stroke-width="0.3"/>
<path d="M51.0326 21.241H47.912C47.6001 21.241 47.2881 21.5567 47.2881 21.8725C47.2881 22.1883 47.6001 22.504 47.912 22.504H51.0326C51.3446 22.504 51.6566 22.1883 51.6566 21.8725C51.6566 21.5567 51.3446 21.241 51.0326 21.241Z" fill="#FC0012" stroke="#FC0012" stroke-width="0.3"/>
<path d="M92.0637 32.61C91.9081 32.4517 91.7517 32.136 91.5961 31.9785C90.5038 30.5572 88.7875 29.6099 86.9156 29.6099C85.0437 29.6099 83.3267 30.5572 82.2351 31.9785C82.0787 32.136 81.9231 32.4525 81.7668 32.61C81.6104 32.7675 81.6112 33.084 81.4548 33.2415C81.1428 34.0313 80.8308 34.8203 80.8308 35.7684C80.8308 36.7165 81.1428 37.663 81.4548 38.4528C81.6112 38.6111 81.6112 38.9268 81.7668 39.0843C81.9223 39.2418 82.0787 39.5584 82.2351 39.7158C83.3267 41.1372 85.0429 41.9262 86.9156 41.9262C88.7883 41.9262 90.5038 40.9789 91.5961 39.7158C91.7517 39.5584 91.9081 39.4001 92.0637 39.0843C92.2201 38.926 92.2201 38.6103 92.3757 38.4528C92.6884 37.663 93.0004 36.7157 93.0004 35.7684C93.0004 34.8211 92.844 34.0313 92.3757 33.2415C92.3757 32.9258 92.2201 32.7675 92.0637 32.61V32.61ZM90.9722 38.4528C90.8158 38.6111 90.6602 38.9268 90.5038 39.0843L89.8798 39.7158C89.0995 40.3474 88.0071 40.6631 86.9156 40.6631C85.8241 40.6631 84.8873 40.3474 83.9514 39.7158C83.6394 39.5584 83.483 39.4001 83.3267 39.0843C83.1711 38.926 83.0147 38.7686 82.8591 38.4528C82.3907 37.663 82.0787 36.7157 82.0787 35.7684C82.0787 34.8211 82.3907 34.0313 82.8591 33.2415C83.0147 33.0832 83.1711 32.7675 83.3267 32.61L83.9514 31.9785C84.731 31.347 85.8233 30.8729 86.9156 30.8729C88.0079 30.8729 89.0995 31.347 89.8798 31.9785C90.0354 32.136 90.3474 32.2942 90.5038 32.61C90.6602 32.7675 90.8158 32.9258 90.9722 33.2415C91.4397 34.0313 91.7517 34.8203 91.7517 35.7684C91.7517 36.7165 91.4397 37.663 90.9722 38.4528Z" fill="#FC0012" stroke="#FC0012" stroke-width="0.3"/>
<path d="M27.3189 32.61C27.1625 32.4517 27.0069 32.136 26.8505 31.9785C25.7582 30.5572 24.0419 29.6099 22.17 29.6099C20.2981 29.6099 18.5818 30.5572 17.4895 31.9785C17.3331 32.136 17.1775 32.4525 17.0211 32.61C16.8648 32.7675 16.8648 33.084 16.7092 33.2415C16.3972 34.0313 16.0852 34.8203 16.0852 35.7684C16.0852 36.7165 16.3972 37.663 16.7092 38.4528C16.8656 38.6111 16.8656 38.9268 17.0211 39.0843C17.1767 39.2418 17.3331 39.5584 17.4895 39.7158C18.5818 41.1372 20.2981 41.9262 22.17 41.9262C24.0419 41.9262 25.7582 40.9789 26.8505 39.7158C27.0061 39.5584 27.1625 39.4001 27.3189 39.0843C27.4753 38.926 27.4753 38.6103 27.6309 38.4528C27.9428 37.663 28.2548 36.7157 28.2548 35.7684C28.2548 34.8211 28.0984 34.0313 27.6309 33.2415C27.4753 32.9258 27.4753 32.7675 27.3189 32.61V32.61ZM26.2265 38.4528C26.071 38.6111 25.9146 38.9268 25.7582 39.0843L25.1342 39.7158C24.3539 40.3474 23.2623 40.6631 22.17 40.6631C21.0777 40.6631 20.1417 40.3474 19.2058 39.7158C18.8938 39.5584 18.7374 39.4001 18.5818 39.0843C18.4255 38.926 18.2699 38.7686 18.1135 38.4528C17.6451 37.663 17.3331 36.7157 17.3331 35.7684C17.3331 34.8211 17.6451 34.0313 18.1135 33.2415C18.2699 33.0832 18.4255 32.7675 18.5818 32.61L19.2058 31.9785C19.9861 31.347 21.0777 30.8729 22.17 30.8729C23.2623 30.8729 24.3547 31.347 25.1342 31.9785C25.2898 32.136 25.6026 32.2942 25.7582 32.61C25.9138 32.7675 26.0702 32.9258 26.2265 33.2415C26.6949 34.0313 27.0069 34.8203 27.0069 35.7684C27.0069 36.7165 26.6949 37.663 26.2265 38.4528Z" fill="#FC0012" stroke="#FC0012" stroke-width="0.3"/>
<path d="M26.2258 21.241H23.1052C22.7932 21.241 22.4812 21.5567 22.4812 21.8725C22.4812 22.1883 22.7932 22.504 23.1052 22.504H26.2258C26.5377 22.504 26.8497 22.1883 26.8497 21.8725C26.8497 21.5567 26.5377 21.241 26.2258 21.241Z" fill="#FC0012" stroke="#FC0012" stroke-width="0.3"/>
<path d="M101.738 21.0894C101.426 21.0894 101.113 21.2476 100.957 21.5634L100.021 26.4589C100.021 26.7747 100.177 27.0904 100.489 27.2487H100.645C100.957 27.2487 101.113 27.0912 101.269 26.7755L102.205 21.88C102.205 21.5642 102.05 21.2485 101.738 21.0902V21.0894Z" fill="#FC0012" stroke="#FC0012" stroke-width="0.3"/>
<path d="M67.8818 8.29338C65.3852 5.29325 61.6414 3.55615 57.8969 3.55615H20.9205C17.0203 3.55615 13.5877 5.60901 11.5595 9.08319C10.4672 10.9778 10.4672 13.3464 11.5595 15.2418C12.6518 17.1371 14.6801 18.4002 16.8639 18.4002H66.9459H71.4708C72.4067 18.4002 73.0307 17.9261 73.4991 17.1371C73.811 16.3473 73.811 15.4 73.1871 14.7685L67.8826 8.29419L67.8818 8.29338ZM16.8639 17.1363C15.1476 17.1363 13.4314 16.189 12.6518 14.6094C11.7159 13.0306 11.7159 11.1352 12.6518 9.7139C14.3681 6.71377 17.4887 4.81839 20.9205 4.81839H23.4171L21.2333 16.9772H16.8639V17.1355V17.1363ZM22.3248 17.1363L24.5086 5.13496V4.8192H41.9827L43.699 17.1363H22.3248V17.1363ZM44.7913 17.1363L43.075 4.82H57.8969C59.6132 4.82 61.1731 5.13577 62.7338 5.76729L66.3219 16.9788H44.7913V17.1371V17.1363ZM72.4059 16.6623C72.2503 16.978 71.9384 17.2938 71.47 17.2938H67.4135L64.1373 6.87205C65.2296 7.50357 66.1655 8.29338 66.9459 9.39895L72.2503 15.715C72.5623 15.8733 72.5623 16.189 72.4059 16.6623V16.6623Z" fill="#FC0012" stroke="#FC0012" stroke-width="0.3"/>
</svg>
