<svg width="47" height="38" viewBox="0 0 47 38" fill="none" xmlns="http://www.w3.org/2000/svg">
<path d="M2.94106 37.9996C2.86557 37.9996 2.79009 37.9996 2.75254 37.9617C2.56402 37.9241 2.3755 37.7732 2.30001 37.5846L0.226291 33.7388C0.0377708 33.3617 0.150809 32.9096 0.52785 32.721L1.77238 32.0421L1.09341 30.6094C0.942815 30.2703 1.05585 29.8553 1.35741 29.6668L2.71498 28.7997L1.99846 27.2915C1.84749 26.952 1.9609 26.5374 2.26246 26.3489L3.65758 25.4063L2.94106 23.8227C2.86557 23.6721 2.86558 23.4835 2.9035 23.3326L4.33618 17.8655C2.07394 15.7918 1.16889 12.5114 2.03601 9.38208C2.6395 7.23288 4.03462 5.42316 5.99494 4.32959C7.95562 3.2364 10.1803 2.97239 12.3671 3.57551C16.8161 4.82004 19.4178 9.45757 18.1357 13.9066C17.2686 17.0739 14.6669 19.5997 11.726 20.2032L7.42799 35.2094C7.39006 35.3979 7.23947 35.5488 7.0885 35.6619L3.3181 37.8486C3.20506 37.9617 3.0541 37.9996 2.94106 37.9996ZM1.88542 33.7012L3.24262 36.1895L6.07042 34.5308L10.4064 19.3737C10.4819 19.0721 10.7459 18.8836 11.0099 18.8457C13.5737 18.5065 15.8735 16.3198 16.6655 13.5295C17.6832 9.87216 15.5719 6.10176 11.9145 5.08367C10.1424 4.59359 8.29511 4.82004 6.71146 5.68716C5.12782 6.59184 3.95914 8.06244 3.46906 9.79668C2.71498 12.4739 3.5821 15.3017 5.65582 16.9984C5.8819 17.1869 5.99494 17.4885 5.91982 17.79L4.44922 23.4456L5.31634 25.3688C5.4673 25.7079 5.35426 26.0849 5.05234 26.3114L3.65758 27.216L4.37374 28.6866C4.5247 29.0257 4.41166 29.4407 4.10974 29.6292L2.75254 30.4964L3.46906 31.967C3.65758 32.344 3.50662 32.7586 3.16713 32.9471L1.88542 33.7012Z" fill="#FC0012"/>
<path d="M10.8214 11.6074C10.5949 11.6074 10.3309 11.5695 10.1049 11.494C9.42626 11.3055 8.8607 10.8533 8.48366 10.2499C8.14418 9.64673 8.06869 8.93021 8.25721 8.25161C8.67218 6.85649 10.1424 6.02692 11.5375 6.40396C12.2161 6.59248 12.7817 7.04501 13.1587 7.64849C13.4982 8.25161 13.5737 8.96813 13.3852 9.64673C13.0457 10.8533 11.9901 11.6074 10.8214 11.6074ZM10.8214 7.83701C10.3309 7.83701 9.84086 8.17613 9.72782 8.66621C9.65234 8.96813 9.69026 9.26969 9.84086 9.53369C9.99182 9.79733 10.2558 9.98585 10.5195 10.0613C11.1229 10.2499 11.764 9.87281 11.9525 9.26969C12.0276 8.96813 11.9901 8.66621 11.8391 8.40257C11.6885 8.13857 11.4245 7.95005 11.1605 7.87457C11.0099 7.83701 10.9344 7.83701 10.8214 7.83701Z" fill="#FC0012"/>
<path d="M17.3061 14.7738C15.6849 14.7738 14.1768 14.2462 12.895 13.2656C12.5556 13.0016 12.518 12.5495 12.7441 12.21C13.0081 11.8705 13.4606 11.8329 13.7997 12.059C14.8178 12.851 16.0244 13.2281 17.3061 13.2281C18.3242 13.2281 19.3423 12.9641 20.2094 12.4361C20.5864 12.21 21.039 12.3609 21.2275 12.7001C21.4536 13.0771 21.303 13.5296 20.9635 13.7181C19.8703 14.4347 18.5882 14.7738 17.3061 14.7738Z" fill="#FC0012"/>
<path d="M10.8556 7.83626H10.8181C10.4031 7.79834 10.1016 7.45922 10.1016 7.04426C10.3656 3.27385 13.5325 0.333008 17.3029 0.333008C20.6587 0.333008 23.6375 2.70829 24.3536 6.02617C24.4291 6.44114 24.203 6.81818 23.7881 6.93122C23.3735 7.0067 22.9964 6.78025 22.8834 6.36566C22.3178 3.68882 19.9801 1.80361 17.3029 1.80361C14.3245 1.80361 11.7982 4.14097 11.6097 7.11974C11.5722 7.49678 11.2327 7.83626 10.8556 7.83626Z" fill="#FC0012"/>
<path d="M35.0254 32.4189C34.8369 32.4189 34.6484 32.3437 34.4978 32.1928L21.6784 19.3734C21.3769 19.0718 20.6979 18.2798 20.6979 17.3372L19.9062 9.00478C19.9062 8.96722 19.9062 8.96722 19.9062 8.9293C19.9062 7.91121 20.2078 7.15713 20.8864 6.44098C21.5654 5.76238 22.3195 5.46045 23.1866 5.46045H23.3751H23.4506L31.783 6.21453C32.7632 6.21453 33.5173 6.93105 33.8192 7.19506L46.6386 20.0144C46.9401 20.316 46.9401 20.7685 46.6386 21.0701L35.5534 32.1928C35.4404 32.3437 35.2519 32.4189 35.0254 32.4189ZM21.4144 8.89174L22.2061 17.2242V17.2997C22.2061 17.6012 22.4325 17.9783 22.7716 18.3178L35.0634 30.6091L45.0549 20.58L32.7632 8.28825C32.4241 7.94914 32.0091 7.72269 31.7455 7.72269C31.7075 7.72269 31.7075 7.72269 31.67 7.72269L23.1866 6.93105C22.7341 6.93105 22.357 7.11958 21.98 7.49662C21.5654 7.91121 21.4144 8.28825 21.4144 8.89174Z" fill="#FC0012"/>
<path d="M29.3323 19.1855C29.1438 19.1855 28.9553 19.1101 28.8043 18.9595C28.5027 18.6575 28.5027 18.2054 28.8043 17.9035L32.4617 14.2465C32.7632 13.9445 33.2157 13.9445 33.5173 14.2465C33.8192 14.548 33.8192 15.0005 33.5173 15.3021L29.8603 18.9595C29.7093 19.1101 29.5208 19.1855 29.3323 19.1855Z" fill="#FC0012"/>
<path d="M33.5939 23.446C33.4054 23.446 33.2169 23.3705 33.0663 23.2199C32.7644 22.9184 32.7644 22.4659 33.0663 22.1643L36.7233 18.5069C37.0252 18.2054 37.4774 18.2054 37.7793 18.5069C38.0809 18.8085 38.0809 19.261 37.7793 19.5626L34.1219 23.2199C33.971 23.3705 33.7824 23.446 33.5939 23.446Z" fill="#FC0012"/>
</svg>
