<svg width="113" height="46" viewBox="0 0 113 46" fill="none" xmlns="http://www.w3.org/2000/svg">
<path d="M107.191 19.2774L103.383 17.9063C98.9662 16.2305 94.549 14.4035 90.2838 12.2709L78.7082 6.63544C71.0929 2.97981 62.7154 1 54.3386 1H10.0158C8.18799 1 6.51295 1.76152 5.14189 2.97981C1.18149 6.94021 0.877509 15.9265 1.0295 19.4294V27.6542C1.0295 34.2039 6.20818 39.3818 12.7579 39.3818H13.9762C15.652 42.8847 19.1549 45.474 23.2673 45.474C27.3797 45.474 31.0353 43.0366 32.5584 39.3818H82.2126C83.8877 42.8847 87.3913 45.474 91.5037 45.474C95.6161 45.474 99.2717 43.0366 100.795 39.3818H101.099C107.497 39.3818 112.827 34.0511 112.827 27.6542C112.827 23.9985 110.543 20.6477 107.192 19.2766L107.191 19.2774ZM12.6051 38.3163C10.0158 38.3163 7.57924 37.25 5.75143 35.727H13.0627C13.0627 36.6405 13.2147 37.5548 13.5195 38.3163H12.6059H12.6051ZM32.2536 35.575C32.2536 36.4885 32.1016 37.4028 31.7968 38.1643C31.6441 38.6211 31.4921 38.9258 31.3401 39.3826C29.817 42.2767 26.7709 44.2565 23.2673 44.2565C19.7636 44.2565 16.7175 42.2767 15.3473 39.3826C15.1953 39.0778 15.0425 38.6211 14.8905 38.1643C14.5857 37.4028 14.4338 36.4885 14.4338 35.575V35.2702C14.4338 34.9654 14.4338 34.6607 14.5865 34.5087C15.0433 29.9395 18.8509 26.2839 23.5728 26.2839C28.2948 26.2839 32.1024 29.9395 32.5592 34.5087C32.5592 34.8134 32.7111 35.1182 32.7111 35.2702C32.4064 35.4222 32.4064 35.4222 32.2544 35.575H32.2536ZM33.1671 38.3163C33.4719 37.4028 33.6239 36.6405 33.6239 35.727H81.2975C81.2975 36.6405 81.4503 37.5548 81.7543 38.3163H33.1671ZM100.641 35.575C100.641 36.4885 100.489 37.4028 100.184 38.1643C100.032 38.6211 99.8797 38.9258 99.7277 39.3826C98.2047 42.2767 95.1585 44.2565 91.8077 44.2565C88.304 44.2565 85.2579 42.2767 83.7349 39.3826C83.5821 39.0778 83.4301 38.6211 83.2781 38.1643C82.9734 37.4028 82.8206 36.4885 82.8206 35.575V35.2702C82.8206 34.9654 82.8206 34.6607 82.9734 34.5087C83.4301 29.9395 87.2377 26.2839 91.9597 26.2839C96.6816 26.2839 100.489 29.9395 100.946 34.5087C100.946 34.8134 101.098 35.1182 101.098 35.2702C100.641 35.4222 100.641 35.4222 100.641 35.575ZM101.403 38.3163C101.708 37.4028 101.86 36.6405 101.86 35.727H108.257C106.277 37.25 103.992 38.1643 101.403 38.3163ZM109.324 34.5087H101.86C101.403 29.178 96.9856 25.0656 91.6549 25.0656C86.3242 25.0656 81.9071 29.178 81.4503 34.5087H33.6239C33.1671 29.178 28.75 25.0656 23.4193 25.0656C18.0886 25.0656 13.6714 29.178 13.2139 34.5087H4.83712C3.31407 32.6809 2.40056 30.2443 2.40056 27.6549V26.1319H5.44666C5.75143 26.1319 6.05619 25.8271 6.05619 25.5224C6.05619 25.2176 5.75143 24.9128 5.44666 24.9128H2.40056V23.085H7.57924C7.88401 23.085 8.18878 22.7802 8.18878 22.4755C8.18878 22.1707 7.88401 21.8659 7.57924 21.8659H2.09579V19.2766C2.09579 15.7737 2.24778 7.24419 5.90342 3.58855C6.96971 2.37027 8.34077 1.91273 9.86382 1.91273H54.1866C62.4114 1.91273 70.6362 3.89254 78.1002 7.39618L89.6759 13.0316C93.9403 15.1642 98.5102 16.992 102.927 18.6671L106.735 20.0381C108.41 20.6477 109.628 21.8659 110.543 23.389H105.212C104.907 23.389 104.602 23.6938 104.602 23.9985C104.602 24.3033 104.907 24.6081 105.212 24.6081H111.151C111.456 25.5216 111.609 26.4359 111.609 27.3494C111.761 30.2435 110.847 32.5281 109.324 34.5079L109.324 34.5087Z" fill="#111010" stroke="#111010" stroke-width="0.236254"/>
<path d="M91.5021 29.3323C88.608 29.3323 86.1714 31.4649 85.7139 34.3582C85.7139 34.663 85.5619 34.9677 85.5619 35.1197V35.4245C85.5619 36.338 85.8667 37.2523 86.3234 38.0138C86.6282 38.4706 86.9329 38.7753 87.2369 39.2321C88.3032 40.2984 89.8263 40.9079 91.3493 40.9079C93.0251 40.9079 94.3962 40.2984 95.4625 39.2321C95.7665 38.9273 96.0712 38.4706 96.376 38.0138C96.8328 37.2523 97.1375 36.3388 97.1375 35.4245V35.1197C97.1375 34.8149 97.1375 34.5102 96.9855 34.3582C96.9855 31.6169 94.5482 29.3323 91.5021 29.3323ZM96.224 35.5773C96.224 36.5472 95.8407 37.4779 95.1577 38.1666C94.7002 38.6234 94.2434 39.0801 93.6347 39.3849C93.0259 39.6896 92.2636 39.9944 91.5021 39.9944C90.7406 39.9944 89.979 39.8424 89.3695 39.3849C88.7608 39.0801 88.3032 38.6234 87.8465 38.1666C87.2369 37.4051 86.7802 36.4916 86.7802 35.5773V35.2725C86.7802 34.9677 86.7802 34.663 86.933 34.511C87.3897 32.3784 89.2175 30.7033 91.5021 30.7033C93.7867 30.7033 95.7665 32.3792 96.0712 34.511C96.0712 34.8157 96.224 35.1205 96.224 35.2725V35.5773Z" fill="#111010" stroke="#111010" stroke-width="0.236254"/>
<path d="M61.6515 20.802H58.6054C58.3006 20.802 57.9958 21.1068 57.9958 21.4115C57.9958 21.7163 58.3006 22.0211 58.6054 22.0211H61.6515C61.9562 22.0211 62.261 21.7163 62.261 21.4115C62.261 21.1068 61.9562 20.802 61.6515 20.802Z" fill="#111010" stroke="#111010" stroke-width="0.236254"/>
<path d="M33.9286 20.802H30.8825C30.5777 20.802 30.2729 21.1068 30.2729 21.4115C30.2729 21.7163 30.5777 22.0211 30.8825 22.0211H33.9286C34.2333 22.0211 34.5381 21.7163 34.5381 21.4115C34.5381 21.1068 34.2333 20.802 33.9286 20.802Z" fill="#111010" stroke="#111010" stroke-width="0.236254"/>
<path d="M23.2656 29.3323C20.3715 29.3323 17.935 31.4649 17.4774 34.3582C17.4774 34.663 17.3254 34.9677 17.3254 35.1197V35.4245C17.3254 36.338 17.6302 37.2523 18.087 38.0138C18.3917 38.4706 18.6965 38.7753 19.0005 39.2321C20.0668 40.2984 21.5898 40.9079 23.1129 40.9079C24.7887 40.9079 26.159 40.2984 27.2253 39.2321C27.53 38.9273 27.8348 38.4706 28.1388 38.0138C28.5955 37.2523 28.9003 36.3388 28.9003 35.4245V35.1197C28.9003 34.8149 28.9003 34.5102 28.7483 34.3582C28.7483 31.6169 26.3117 29.3323 23.2649 29.3323H23.2656ZM27.9876 35.5773C27.9876 36.6435 27.5308 37.5571 26.9213 38.1666C26.4645 38.6234 26.0078 39.0801 25.3982 39.3849C24.7887 39.6896 24.0272 39.9944 23.2656 39.9944C22.5041 39.9944 21.7426 39.8424 21.1331 39.3849C20.5235 39.0801 20.0668 38.6234 19.61 38.1666C19.0005 37.4051 18.5437 36.4916 18.5437 35.5773V35.2725C18.5437 34.9677 18.5437 34.663 18.6965 34.511C19.1533 32.3784 20.9811 30.7033 23.2656 30.7033C25.5502 30.7033 27.53 32.3792 27.8348 34.511C27.8348 34.8157 27.9868 35.1205 27.9868 35.2725V35.5773H27.9876Z" fill="#111010" stroke="#111010" stroke-width="0.236254"/>
<path d="M92.4149 17.296L79.773 10.5943C76.5749 8.91927 73.9855 7.7002 71.5482 6.93868C65.456 4.95887 59.211 3.89258 52.814 3.89258H12.2989C8.33847 3.89258 5.14038 7.24345 5.14038 11.3558C5.14038 15.925 8.64324 19.5806 13.0604 19.5806H91.8062C92.4149 19.5806 92.8725 19.2759 93.0245 18.6671C93.1764 18.2103 92.8725 17.6008 92.4149 17.296ZM12.9084 18.5143C9.25277 18.3616 6.35866 15.3155 6.35866 11.5078C6.35866 8.00497 9.1 5.26285 12.4509 5.26285H12.9076V18.5143H12.9084ZM25.0936 18.5143H13.9747V5.11086H25.0936V18.5143ZM28.4445 18.5143H26.3119V5.11086H28.4445V18.5143ZM55.5562 18.5143H29.51V5.11086H52.814C53.7276 5.11086 54.6419 5.11086 55.5554 5.26285V18.5143H55.5562ZM56.7744 18.5143V5.26364C61.6484 5.56841 66.5223 6.48192 71.2442 8.15775C73.6808 8.91927 76.2701 10.1376 79.3162 11.8134L91.9582 18.5151H56.7744V18.5143Z" fill="#111010" stroke="#111010" stroke-width="0.236254"/>
</svg>
