<svg width="99" height="48" viewBox="0 0 99 48" fill="none" xmlns="http://www.w3.org/2000/svg">
<path d="M87.0054 19.4342L78.8279 18.8706C77.559 18.7295 76.5723 18.3064 75.7259 17.3196L69.9451 10.8342C63.8829 4.20701 55.4233 0.400391 46.3994 0.400391H43.5795C41.4643 0.400391 39.7729 2.09245 39.7729 4.20701V15.3454H2.8332C2.55107 15.3454 2.26895 15.6275 2.26895 15.9097C2.26895 16.1918 2.55107 16.4739 2.8332 16.4739H5.79413V19.2938H5.37094C3.11533 19.2938 1.42327 20.9859 1.2822 23.2415L1.00008 31.2779C0.995204 32.4458 1.22164 33.603 1.66632 34.6829C2.11099 35.7629 2.76511 36.744 3.59092 37.5698C4.41674 38.3956 5.39791 39.0498 6.47782 39.4944C7.55773 39.9391 8.715 40.1656 9.88287 40.1607H12.7027C13.5484 44.5316 17.3557 47.7746 22.008 47.7746C26.52 47.7746 30.4676 44.5316 31.3133 40.1607H71.214C72.0604 44.5316 75.867 47.7746 80.52 47.7746C85.173 47.7746 88.9796 44.5316 89.8253 40.1607C92.0809 40.0196 94.1961 39.0329 95.7471 37.3408C97.4392 35.6488 98.2849 33.3931 98.2849 30.9965C97.8617 24.9335 93.0683 19.9991 87.0054 19.4349V19.4342ZM35.5431 16.6143H39.6319V17.7421C39.6319 18.7288 38.9272 19.4342 37.9398 19.4342H35.5431V16.6143ZM21.1617 16.6143H34.4153V19.4342H21.1623V16.6143H21.1617ZM6.78018 16.6143H20.0331V19.4342H6.78088V16.6143H6.78018ZM1.98682 27.6116H4.94775C5.22988 27.6116 5.51201 27.3295 5.51201 27.0481C5.51201 26.7667 5.22988 26.4838 4.94775 26.4838H1.98682L2.12789 23.3818C2.26895 21.8308 3.53782 20.562 5.08882 20.562H6.07556H20.457H34.8385H37.6584C38.4056 20.5598 39.1215 20.262 39.6499 19.7336C40.1782 19.2053 40.476 18.4893 40.4782 17.7421V4.34807C40.4804 3.60087 40.7782 2.8849 41.3066 2.35655C41.8349 1.8282 42.5509 1.5304 43.2981 1.5282H46.118C54.7187 1.5282 63.0372 5.19375 68.818 11.5388L74.5988 18.0242C75.5855 19.152 76.9955 19.8573 78.4054 19.8573L86.5829 20.4216C89.4028 20.7037 91.9412 21.9726 93.7736 23.9461H88.1339C87.8518 23.9461 87.5703 24.2282 87.5703 24.5103C87.5703 24.7925 87.8518 25.0746 88.1339 25.0746H94.62C95.7478 26.7667 96.4524 28.5998 96.5935 30.8554H85.5962C84.0452 29.5865 82.0717 28.8819 79.9564 28.8819C77.8412 28.8819 75.8677 29.5865 74.3167 30.8554H27.2246C25.6736 29.5865 23.7001 28.8819 21.5848 28.8819C19.4696 28.8819 17.4961 29.5865 15.9451 30.8554H1.84576L1.98682 27.6123V27.6116ZM12.2796 39.1732H9.60075C5.51201 39.1732 2.12789 35.9302 1.84645 31.9825H14.6769C13.1259 33.6746 12.1392 35.9302 12.1392 38.4679C12.2802 38.609 12.2802 38.8911 12.2802 39.1725L12.2796 39.1732ZM30.0445 39.1732V39.7375C30.0445 39.8786 30.0445 40.1607 29.9034 40.3017C29.0577 43.9673 25.6736 46.7872 21.7259 46.7872C17.7782 46.7872 14.3941 43.9673 13.5484 40.3017C13.5484 40.1607 13.5484 39.8786 13.4074 39.7375V39.1732C13.4074 38.8911 13.2663 38.6097 13.2663 38.3276C13.2663 35.6488 14.5352 33.3924 16.3683 31.8421C16.6504 31.7011 16.7915 31.4189 17.0729 31.2779C17.3543 31.1368 17.7775 30.8547 18.0597 30.7136C19.1875 30.1494 20.3153 29.868 21.5841 29.868C22.853 29.868 24.1219 30.1501 25.1093 30.7136C25.3915 30.8547 25.814 30.9958 26.0961 31.2779C26.3782 31.4189 26.5193 31.7011 26.8007 31.8421C28.6338 33.3931 29.9027 35.6488 29.9027 38.3276C30.1848 38.6097 30.0438 38.8911 30.0438 39.1732H30.0445ZM70.9326 39.1732H31.3133V38.3276C31.3133 35.7898 30.3266 33.5335 28.7756 31.8421H73.4703C71.9193 33.5342 70.9326 35.7898 70.9326 38.3276C70.863 38.4576 70.8266 38.6029 70.8266 38.7504C70.8266 38.8979 70.863 39.0432 70.9326 39.1732ZM88.5564 39.1732V39.7375C88.5564 39.8786 88.5564 40.1607 88.4153 40.3017C87.5696 43.9673 84.1855 46.7872 80.2378 46.7872C76.2902 46.7872 72.906 43.9673 72.0604 40.3017C72.0604 40.1607 72.0604 39.8786 71.9193 39.7375V39.1732C71.9193 38.8911 71.7782 38.6097 71.7782 38.3276C71.7782 35.6488 73.0471 33.3924 74.8802 31.8421C75.1624 31.7011 75.3034 31.4189 75.5849 31.2779C75.8663 31.1368 76.2902 30.8547 76.5723 30.7136C77.7001 30.1494 78.8279 29.868 80.0968 29.868C81.3656 29.868 82.6345 30.1501 83.622 30.7136C83.9034 30.8547 84.3266 30.9958 84.6087 31.2779C84.8908 31.4189 85.0319 31.7011 85.3133 31.8421C87.1464 33.3931 88.4153 35.6488 88.4153 38.3276C88.6974 38.6097 88.6974 38.8911 88.5564 39.1732ZM94.7604 36.7766C93.4908 38.1865 91.6584 38.8911 89.8253 39.1732V38.4686C89.8253 35.9309 88.8385 33.6753 87.2875 31.9832H97.016C96.7339 33.6753 96.0292 35.3673 94.7604 36.7773V36.7766Z" fill="#111010" stroke="#111010" stroke-width="0.3"/>
<path d="M80.2385 32.9734C77.2776 32.9734 74.7399 35.3701 74.7399 38.4721C74.7399 38.7542 74.7399 39.0356 74.8809 39.3177C74.8809 39.4588 74.8809 39.7409 75.022 39.882C75.022 40.0231 75.1631 40.3052 75.1631 40.4462C75.8677 42.5615 77.9829 43.9714 80.2385 43.9714C82.6359 43.9714 84.6094 42.4204 85.3147 40.4462C85.3147 40.3052 85.4558 40.0231 85.4558 39.882C85.4558 39.7409 85.5962 39.4588 85.5962 39.3177C85.5962 39.0356 85.7372 38.7542 85.7372 38.4721C85.7372 35.3701 83.3405 32.9734 80.2385 32.9734ZM84.6094 39.1774C84.6094 39.3184 84.4684 39.6006 84.4684 39.7416C84.4684 39.8827 84.3273 40.1648 84.1862 40.3059C83.4816 41.7158 82.0717 42.7026 80.2385 42.7026C78.5472 42.7026 76.9962 41.7158 76.2909 40.3059C76.1498 40.1648 76.1498 39.8827 76.0087 39.7416C76.0087 39.6006 75.8677 39.3184 75.8677 39.1774C75.8677 38.8953 75.7273 38.6131 75.7273 38.3317C75.7273 35.935 77.7008 33.9608 80.0975 33.9608C82.4942 33.9608 84.4684 35.935 84.4684 38.3317C84.6094 38.6138 84.6094 38.8959 84.6094 39.1774Z" fill="#111010" stroke="#111010" stroke-width="0.3"/>
<path d="M21.7267 32.9734C18.7658 32.9734 16.228 35.3701 16.228 38.4721C16.228 38.7542 16.228 39.0356 16.3691 39.3177C16.3691 39.4588 16.3691 39.7409 16.5102 39.882C16.5102 40.0231 16.6512 40.3052 16.6512 40.4462C17.3565 42.5615 19.4711 43.9714 21.7267 43.9714C24.1234 43.9714 26.0976 42.4204 26.8022 40.4462C26.8022 40.3052 26.9433 40.0231 26.9433 39.882C26.9433 39.7409 27.0843 39.4588 27.0843 39.3177C27.0843 39.0356 27.2254 38.7542 27.2254 38.4721C27.2254 35.3701 24.8287 32.9734 21.7267 32.9734ZM26.0976 39.1774C26.0976 39.3184 25.9565 39.6006 25.9565 39.7416C25.9565 39.8827 25.8154 40.1648 25.6744 40.3059C24.9698 41.7158 23.5591 42.7026 21.7267 42.7026C20.0346 42.7026 18.4836 41.7158 17.779 40.3059C17.638 40.1648 17.638 39.8827 17.4969 39.7416C17.4969 39.6006 17.3558 39.3184 17.3558 39.1774C17.3558 38.8953 17.2148 38.6131 17.2148 38.3317C17.2148 35.935 19.189 33.9608 21.5856 33.9608C23.9823 33.9608 25.9565 35.935 25.9565 38.3317C26.0976 38.6138 26.0976 38.8959 26.0976 39.1774Z" fill="#111010" stroke="#111010" stroke-width="0.3"/>
<path d="M46.2576 20.7044L70.9311 20.5633C71.4953 20.5633 72.0589 20.1401 72.341 19.5766C72.6231 19.013 72.4821 18.3077 72.0589 17.8845L68.1112 13.3726C62.7536 7.16858 55.1397 3.78516 46.9622 3.78516H44.8476C44.2834 3.78516 43.7198 4.34941 43.7198 4.91296V18.3077C43.7171 18.6227 43.7781 18.935 43.8991 19.2258C44.0202 19.5165 44.1989 19.7798 44.4244 19.9998C45.1291 20.4229 45.6933 20.7044 46.2576 20.7044ZM44.9887 4.7719H47.1032C54.8575 4.7719 62.3304 8.15602 67.4066 14.0772L71.3543 18.5891C71.4953 18.8712 71.4953 19.0123 71.4953 19.1534C71.4953 19.1534 71.3543 19.4355 71.0721 19.4355L46.3986 19.5766C45.9754 19.5766 45.694 19.4355 45.4119 19.1534C45.1298 18.8712 44.9887 18.5891 44.9887 18.1666V4.7719Z" fill="#111010" stroke="#111010" stroke-width="0.3"/>
<path d="M49.9239 24.2246H47.104C46.8219 24.2246 46.5398 24.5067 46.5398 24.7882C46.5398 25.0696 46.8219 25.3524 47.104 25.3524H49.9239C50.206 25.3524 50.4882 25.0703 50.4882 24.7882C50.4882 24.506 50.206 24.2246 49.9239 24.2246Z" fill="#111010" stroke="#111010" stroke-width="0.3"/>
</svg>
