<svg width="103" height="102" viewBox="0 0 103 102" fill="none" xmlns="http://www.w3.org/2000/svg">
<g opacity="0.03">
<path d="M51.4916 50.9187C60.3004 50.9187 67.4668 43.752 67.4668 34.9434C67.4668 26.1348 60.3004 18.968 51.4916 18.968C42.6828 18.968 35.5164 26.1346 35.5164 34.9432C35.5164 43.7518 42.6828 50.9187 51.4916 50.9187ZM51.4916 26.857C55.9503 26.857 59.5779 30.4846 59.5779 34.9432C59.5779 39.4019 55.9503 43.0295 51.4916 43.0295C47.0329 43.0295 43.4053 39.4019 43.4053 34.9432C43.4053 30.4846 47.0329 26.857 51.4916 26.857Z" fill="#FC0012"/>
<path d="M87.5756 67.6827H71.2503C80.7802 56.1877 85.6117 45.8225 85.6117 36.8481V34.945C85.6117 16.1304 70.3055 0.823242 51.4915 0.823242C32.6775 0.823242 17.3713 16.1302 17.3713 34.9452V36.8483C17.3713 45.8227 22.2028 56.1877 31.7327 67.6829H15.4074L0.0415039 102H102.942L87.5756 67.6827ZM25.2606 36.8483V34.9452H25.2604C25.2604 20.4804 37.0278 8.71218 51.4915 8.71218C65.9552 8.71218 77.7226 20.4804 77.7226 34.9452V36.8483C77.7226 44.2589 72.8648 53.7946 63.6743 64.4245C59.0006 69.8304 54.272 74.2619 51.4907 76.7379C48.7287 74.2806 44.0459 69.8925 39.3851 64.5129C30.1448 53.8473 25.2606 44.281 25.2606 36.8483ZM20.5186 75.5719H38.8527C44.3313 81.1833 48.7592 84.8061 49.0012 85.0033L51.4915 87.0303L53.9816 85.0033C54.2238 84.8061 58.6515 81.1831 64.1301 75.5719H82.4642L90.7655 94.1111H12.2175L20.5186 75.5719Z" fill="#FC0012"/>
</g>
</svg>
