<svg width="34" height="33" viewBox="0 0 34 33" fill="none" xmlns="http://www.w3.org/2000/svg">
<path d="M16.1259 16.0738C18.9523 16.0738 21.2517 13.7743 21.2517 10.948C21.2517 8.1216 18.9523 5.82202 16.1259 5.82202C13.2994 5.82202 11 8.12153 11 10.9479C11 13.7743 13.2994 16.0738 16.1259 16.0738ZM16.1259 8.35329C17.5565 8.35329 18.7205 9.51727 18.7205 10.9479C18.7205 12.3785 17.5565 13.5425 16.1259 13.5425C14.6952 13.5425 13.5313 12.3785 13.5313 10.9479C13.5313 9.51727 14.6952 8.35329 16.1259 8.35329Z" fill="#F1F7FE"/>
<path d="M28.0865 21.4528H22.8483C25.9061 17.7644 27.4564 14.4386 27.4564 11.5591V10.9484C27.4564 4.91152 22.5452 0 16.5084 0C10.4717 0 5.56051 4.91145 5.56051 10.9485V11.5591C5.56051 14.4387 7.11075 17.7644 10.1686 21.4528H4.93035L0 32.464H33.0169L28.0865 21.4528ZM8.09191 11.5591V10.9485H8.09184C8.09184 6.30725 11.8676 2.53127 16.5084 2.53127C21.1493 2.53127 24.925 6.30725 24.925 10.9485V11.5591C24.925 13.9369 23.3663 16.9966 20.4175 20.4073C18.9178 22.1419 17.4006 23.5638 16.5082 24.3583C15.6219 23.5698 14.1194 22.1618 12.6239 20.4357C9.65905 17.0135 8.09191 13.944 8.09191 11.5591ZM6.57036 23.9841H12.4531C14.211 25.7846 15.6317 26.9471 15.7094 27.0103L16.5084 27.6607L17.3074 27.0103C17.3851 26.9471 18.8058 25.7846 20.5637 23.9841H26.4465L29.1101 29.9327H3.90683L6.57036 23.9841Z" fill="#F1F7FE"/>
</svg>
