<svg width="109" height="103" viewBox="0 0 109 103" fill="none" xmlns="http://www.w3.org/2000/svg">
<path d="M86.5012 0H22.393C10.0455 0 0 10.0455 0 22.393C0 34.7406 10.0455 44.786 22.393 44.786H38.698V62.8776L37.9019 62.2097C33.9666 58.9074 27.8086 59.1758 24.1757 62.8091C20.3687 66.6161 20.618 72.6667 24.7579 76.1403L38.6978 87.8375V99.1105C38.6978 100.872 40.1261 102.301 41.888 102.301H80.1711C81.9329 102.301 83.3613 100.872 83.3613 99.1105V63.2614C83.3613 58.4429 79.7555 54.3598 74.9737 53.7641L57.8393 51.6294V44.7856H86.5012C98.8487 44.7856 108.894 34.7402 108.894 22.3926C108.894 10.045 98.8487 0 86.5012 0ZM45.0783 95.9203V89.5398H76.9808V95.9203H45.0783ZM74.1851 60.0956C75.7789 60.2943 76.981 61.6553 76.981 63.2614V83.1593H43.0493L28.859 71.2524C27.5995 70.1956 27.5232 68.4849 28.6874 67.3205C29.995 66.0131 32.3843 65.9089 33.8007 67.0974L39.8375 72.1629C41.9082 73.9001 45.0785 72.4264 45.0785 69.7189V28.925C45.0785 27.1659 46.5096 25.7347 48.2687 25.7347C50.0278 25.7347 51.459 27.1659 51.459 28.925V54.447C51.459 56.0564 52.6579 57.4137 54.2549 57.6128L74.1851 60.0956ZM86.5012 38.4053H57.8393V28.925C57.8393 23.6476 53.5458 19.3542 48.2685 19.3542C42.9912 19.3542 38.6978 23.6476 38.6978 28.925V38.4053H22.3928C13.5637 38.4053 6.38051 31.2222 6.38051 22.393C6.38051 13.5639 13.5637 6.38051 22.393 6.38051H86.5012C95.3303 6.38051 102.513 13.5637 102.513 22.393C102.513 31.2224 95.3303 38.4053 86.5012 38.4053Z" fill="#2ABB52" fill-opacity="0.05"/>
</svg>
