<svg width="38" height="36" viewBox="0 0 38 36" fill="none" xmlns="http://www.w3.org/2000/svg">
<path d="M30.1857 0H7.81434C3.5055 0 0 3.5055 0 7.81434C0 12.1232 3.5055 15.6287 7.81434 15.6287H13.5042V21.942L13.2264 21.7089C11.8531 20.5565 9.70418 20.6502 8.43645 21.9181C7.10793 23.2466 7.19491 25.358 8.63958 26.5702L13.5041 30.652V34.5859C13.5041 35.2008 14.0026 35.6992 14.6174 35.6992H27.9768C28.5916 35.6992 29.09 35.2008 29.09 34.5859V22.0759C29.09 20.3944 27.8317 18.9696 26.1631 18.7617L20.1838 18.0168V15.6285H30.1857C34.4946 15.6285 38 12.123 38 7.8142C38 3.50535 34.4946 0 30.1857 0ZM15.7307 33.4727V31.2461H26.8635V33.4727H15.7307ZM25.8879 20.9712C26.4441 21.0405 26.8636 21.5154 26.8636 22.0759V29.0195H15.0226L10.0707 24.8645C9.63122 24.4957 9.60457 23.8987 10.0108 23.4924C10.4671 23.0362 11.3009 22.9998 11.7952 23.4145L13.9018 25.1822C14.6244 25.7884 15.7307 25.2742 15.7307 24.3294V10.0938C15.7307 9.47989 16.2302 8.98047 16.844 8.98047C17.4579 8.98047 17.9573 9.47989 17.9573 10.0938V19C17.9573 19.5616 18.3757 20.0353 18.933 20.1047L25.8879 20.9712ZM30.1857 13.4021H20.1838V10.0938C20.1838 8.25216 18.6855 6.75391 16.8439 6.75391C15.0024 6.75391 13.5041 8.25216 13.5041 10.0938V13.4021H7.81427C4.73323 13.4021 2.22656 10.8954 2.22656 7.81434C2.22656 4.7333 4.73323 2.22656 7.81434 2.22656H30.1857C33.2668 2.22656 35.7734 4.73323 35.7734 7.81434C35.7734 10.8955 33.2668 13.4021 30.1857 13.4021Z" fill="white"/>
<path d="M29.3382 4.77926L25.6723 8.44515L24.2329 7.00582C23.7982 6.57105 23.0933 6.57105 22.6585 7.00582C22.2237 7.4406 22.2237 8.14545 22.6585 8.58023L24.885 10.8068C25.3197 11.2416 26.0247 11.2416 26.4594 10.8068L30.9126 6.35366C31.3473 5.91889 31.3473 5.21403 30.9126 4.77926C30.4779 4.34441 29.7729 4.34441 29.3382 4.77926Z" fill="white"/>
</svg>
