<svg width="78" height="55" viewBox="0 0 78 55" fill="none" xmlns="http://www.w3.org/2000/svg">
<path d="M60.8766 35C57.5054 35 54.2098 33.9736 51.4067 32.0507C48.6036 30.1278 46.4188 27.3947 45.1287 24.197C43.8385 20.9993 43.501 17.4806 44.1587 14.0859C44.8164 10.6913 46.4398 7.57306 48.8237 5.12564C51.2075 2.67822 54.2447 1.01151 57.5512 0.336265C60.8577 -0.338976 64.285 0.00758245 67.3996 1.33212C70.5143 2.65665 73.1764 4.89967 75.0494 7.77753C76.9224 10.6554 77.9221 14.0388 77.9221 17.5L78 20C78 24.5963 77.1182 29.1475 75.405 33.3939C73.6918 37.6403 71.1806 41.4987 68.015 44.7487C64.8494 47.9988 61.0912 50.5769 56.9551 52.3358C52.819 54.0947 48.386 55 43.9091 55V45C47.1083 45.0088 50.2774 44.3665 53.2333 43.11C56.1891 41.8536 58.8731 40.008 61.1299 37.68C62.007 36.7812 62.8162 35.815 63.5503 34.79C62.6659 34.9327 61.7719 35.0046 60.8766 35.005V35ZM17.0455 35C13.6742 35 10.3786 33.9736 7.57551 32.0507C4.7724 30.1278 2.58765 27.3947 1.29752 24.197C0.00738565 20.9993 -0.330171 17.4806 0.327531 14.0859C0.985234 10.6913 2.60866 7.57306 4.9925 5.12564C7.37635 2.67822 10.4136 1.01151 13.7201 0.336265C17.0266 -0.338976 20.4538 0.00758245 23.5685 1.33212C26.6831 2.65665 29.3453 4.89967 31.2182 7.77753C33.0912 10.6554 34.0909 14.0388 34.0909 17.5L34.1688 20C34.1688 29.2826 30.5771 38.185 24.1838 44.7487C17.7906 51.3125 9.1194 55 0.0779297 55V45C3.27711 45.0088 6.44625 44.3665 9.40211 43.11C12.358 41.8536 15.0419 40.008 17.2987 37.68C18.1758 36.7812 18.985 35.815 19.7192 34.79C18.8347 34.9327 17.9408 35.0046 17.0455 35.005V35Z" fill="#E7E7E7" fill-opacity="0.3"/>
</svg>
