<svg width="376" height="265" viewBox="0 0 376 265" fill="none" xmlns="http://www.w3.org/2000/svg">
<path d="M82.5435 96.3636C98.7947 96.3636 114.681 101.309 128.193 110.574C141.706 119.839 152.238 133.007 158.457 148.415C164.676 163.822 166.303 180.775 163.132 197.131C159.962 213.488 152.136 228.512 140.645 240.304C129.153 252.096 114.513 260.126 98.5736 263.38C82.6346 266.633 66.1134 264.963 51.0992 258.582C36.085 252.2 23.2521 241.392 14.2234 227.526C5.19468 213.66 0.375633 197.358 0.375634 180.682L-6.84837e-06 168.636C-4.91233e-06 146.491 4.25067 124.562 12.5093 104.102C20.768 83.6421 32.8728 65.0518 48.1328 49.3924C63.3928 33.7331 81.509 21.3115 101.447 12.8367C121.385 4.36192 142.755 8.0459e-06 164.336 9.93256e-06L164.336 48.1818C148.914 48.1393 133.637 51.2344 119.388 57.2881C105.14 63.3419 92.2016 72.2342 81.3227 83.4509C77.0944 87.7816 73.1939 92.4366 69.6549 97.3754C73.9184 96.6879 78.2276 96.3416 82.5435 96.3395L82.5435 96.3636ZM293.832 96.3636C310.083 96.3636 325.97 101.309 339.482 110.574C352.995 119.839 363.526 133.008 369.745 148.415C375.964 163.822 377.592 180.775 374.421 197.131C371.251 213.488 363.425 228.512 351.934 240.304C340.442 252.096 325.801 260.126 309.862 263.38C293.923 266.633 277.402 264.963 262.388 258.582C247.374 252.2 234.541 241.392 225.512 227.526C216.483 213.66 211.664 197.358 211.664 180.682L211.289 168.636C211.289 123.911 228.603 81.0179 259.422 49.3925C290.24 17.767 332.04 2.45937e-05 375.624 2.8404e-05L375.624 48.1818C360.203 48.1393 344.926 51.2344 330.677 57.2882C316.428 63.3419 303.49 72.2342 292.611 83.4509C288.383 87.7816 284.483 92.4366 280.944 97.3755C285.207 96.6879 289.516 96.3416 293.832 96.3395L293.832 96.3636Z" fill="white" fill-opacity="0.05"/>
</svg>
