<svg width="87" height="61" viewBox="0 0 87 61" fill="none" xmlns="http://www.w3.org/2000/svg">
<path d="M67.9008 38.8182C64.1406 38.8182 60.4648 37.6799 57.3382 35.5472C54.2117 33.4145 51.7748 30.3832 50.3358 26.8366C48.8968 23.2901 48.5203 19.3876 49.2539 15.6226C49.9875 11.8576 51.7983 8.39921 54.4572 5.6848C57.1161 2.97039 60.5037 1.12185 64.1917 0.372949C67.8798 -0.375955 71.7025 0.00840963 75.1765 1.47744C78.6505 2.94647 81.6199 5.43418 83.7089 8.62599C85.798 11.8178 86.9131 15.5703 86.9131 19.4091L87 22.1818C87 27.2795 86.0165 32.3273 84.1056 37.0369C82.1946 41.7465 79.3938 46.0258 75.8629 49.6304C72.332 53.235 68.1402 56.0943 63.5269 58.0451C58.9135 59.9959 53.969 61 48.9755 61V49.9091C52.5438 49.9189 56.0787 49.2064 59.3756 47.8129C62.6725 46.4194 65.6661 44.3725 68.1833 41.7905C69.1617 40.7937 70.0642 39.7221 70.8831 38.5853C69.8965 38.7435 68.8995 38.8233 67.9008 38.8237V38.8182ZM19.0122 38.8182C15.252 38.8182 11.5762 37.6799 8.44961 35.5472C5.32307 33.4145 2.88622 30.3832 1.44723 26.8366C0.00823784 23.2901 -0.368268 19.3876 0.365323 15.6226C1.09891 11.8576 2.90965 8.39921 5.56856 5.6848C8.22747 2.97039 11.6151 1.12185 15.3031 0.372949C18.9912 -0.375955 22.8139 0.00840963 26.2879 1.47744C29.7619 2.94647 32.7312 5.43418 34.8203 8.62599C36.9094 11.8178 38.0245 15.5703 38.0245 19.4091L38.1114 22.1818C38.1114 32.477 34.1053 42.3506 26.9743 49.6304C19.8433 56.9102 10.1716 61 0.0869216 61V49.9091C3.65524 49.9189 7.19005 49.2064 10.487 47.8129C13.7839 46.4194 16.7775 44.3725 19.2947 41.7905C20.2731 40.7937 21.1756 39.7221 21.9944 38.5853C21.0079 38.7435 20.0109 38.8233 19.0122 38.8237V38.8182Z" fill="#E7E7E7" fill-opacity="0.5"/>
</svg>
