<svg width="66" height="81" viewBox="0 0 66 81" fill="none" xmlns="http://www.w3.org/2000/svg">
<path d="M63.3471 81.0005C65.2635 81.0005 66.4498 78.8104 65.3547 77.2591C63.8034 74.8864 61.0657 73.3351 58.0543 73.3351C57.233 73.3351 56.503 73.4263 55.7729 73.6089C53.7653 69.9586 49.9326 67.4947 45.5523 67.4947C45.096 67.4947 44.731 67.4947 44.2747 67.586V63.4795H21.6434V68.5898C17.4456 68.5898 13.8867 70.8712 11.9703 74.2476C10.784 73.6089 9.32388 73.2438 7.86379 73.2438C4.76111 73.2438 2.1147 74.7952 0.563358 77.1678C-0.531708 78.8104 0.654613 80.9093 2.57098 80.9093H63.3471V81.0005Z" fill="url(#paint0_linear_601_2281)"/>
<path opacity="0.07" d="M45.5529 67.4947C45.0966 67.4947 44.7316 67.4947 44.2753 67.586V63.4795H21.644V68.5898H40.8076C44.7316 68.5898 48.3818 70.8712 50.0244 74.5214C50.1157 74.6127 50.1157 74.7039 50.1157 74.8864C50.2069 74.9777 50.2069 75.1602 50.2982 75.2514C50.572 75.9815 51.4845 76.2553 52.1233 75.7077C53.1271 74.7039 54.4047 73.9739 55.8648 73.6089C53.8572 69.9586 50.0244 67.4947 45.5529 67.4947ZM10.0545 78.7192C10.3283 78.7192 10.6021 78.5366 10.6933 78.1716C10.8758 76.8028 11.3321 75.434 11.9709 74.2476C10.7846 73.6089 9.32449 73.2438 7.8644 73.2438C6.76934 73.2438 5.67427 73.4263 4.76172 73.7914C6.86059 74.6127 8.59445 76.2553 9.59826 78.2629C9.59826 78.6279 9.78077 78.7192 10.0545 78.7192Z" fill="black"/>
<path d="M12.972 39.5699L10.3256 42.2163C6.85789 45.684 4.94153 50.3381 4.94153 55.2658C4.93788 55.6743 5.01564 56.0794 5.17027 56.4575C5.3249 56.8356 5.5533 57.1791 5.84214 57.4679C6.13098 57.7568 6.47448 57.9852 6.85256 58.1398C7.23064 58.2944 7.63575 58.3722 8.04421 58.3685H20.455V37.1973H18.9036C16.6222 37.1973 14.5234 38.1098 12.972 39.5699Z" fill="url(#paint1_linear_601_2281)"/>
<path d="M52.9425 39.5699L55.5889 42.2163C59.0566 45.684 60.973 50.3381 60.973 55.2658C60.9766 55.6743 60.8988 56.0794 60.7442 56.4575C60.5896 56.8356 60.3612 57.1791 60.0723 57.4679C59.7835 57.7568 59.44 57.9852 59.0619 58.1398C58.6838 58.2944 58.2787 58.3722 57.8703 58.3685H45.5508V37.1973H47.1021C49.2923 37.1973 51.3911 38.1098 52.9425 39.5699Z" fill="url(#paint2_linear_601_2281)"/>
<path d="M49.75 28.9843V55.5396H16.168V28.9843C16.168 20.315 19.6357 12.0108 25.7498 5.89666L29.2175 2.42895C30.2387 1.42137 31.6156 0.856445 33.0502 0.856445C34.4848 0.856445 35.8617 1.42137 36.883 2.42895L40.3507 5.89666C46.3735 12.0108 49.75 20.315 49.75 28.9843Z" fill="url(#paint3_linear_601_2281)"/>
<path opacity="0.07" d="M40.1648 5.89709L36.6971 2.42939C34.7808 0.513021 31.8606 0.33051 29.7617 1.88185C30.0355 2.06436 30.218 2.24687 30.4005 2.42939L33.8682 5.89709C39.9823 12.0112 43.45 20.3155 43.45 28.9847V55.5401H49.7467V28.9847C49.7467 20.3155 46.3702 12.0112 40.1648 5.89709Z" fill="black"/>
<path d="M29.1257 2.42963L25.658 5.89733C22.0078 9.63881 19.2701 14.1103 17.7188 19.0381H48.1981C46.6467 14.1103 43.9091 9.63881 40.1676 5.89733L36.6999 2.42963C34.6923 0.33075 31.2246 0.33075 29.1257 2.42963Z" fill="url(#paint4_linear_601_2281)"/>
<path d="M32.959 49.0606C39.8944 49.0606 45.461 43.4941 45.461 36.5586C45.461 29.6232 39.8944 24.0566 32.959 24.0566C26.0236 24.0566 20.457 29.6232 20.457 36.5586C20.457 43.4941 26.0236 49.0606 32.959 49.0606Z" fill="url(#paint5_linear_601_2281)"/>
<path opacity="0.05" d="M32.9582 24.1475C31.8631 24.1475 30.8593 24.33 29.8555 24.5125C35.2395 25.8813 39.1635 30.8091 39.1635 36.5582C39.1635 42.3986 35.2395 47.2351 29.8555 48.6039C30.8593 48.8777 31.9543 48.9689 32.9582 48.9689C39.8936 48.9689 45.4602 43.4024 45.4602 36.4669C45.4602 29.714 39.8936 24.1475 32.9582 24.1475Z" fill="black"/>
<path d="M32.9592 43.768C36.8832 43.768 40.1684 40.574 40.1684 36.5588C40.1684 32.5436 36.9744 29.3496 32.9592 29.3496C28.9439 29.3496 25.75 32.5436 25.75 36.5588C25.75 40.574 29.0352 43.768 32.9592 43.768Z" fill="url(#paint6_linear_601_2281)"/>
<path opacity="0.1" d="M32.9568 29.4414C32.2784 29.4427 31.6032 29.5347 30.9492 29.7152C33.9606 30.5365 36.1508 33.3654 36.1508 36.6506C36.1508 39.9358 33.9606 42.6734 30.9492 43.586C31.588 43.7685 32.2268 43.8598 32.9568 43.8598C34.8674 43.855 36.6982 43.0939 38.0492 41.7429C39.4001 40.392 40.1612 38.5611 40.166 36.6506C40.1612 34.7401 39.4001 32.9092 38.0492 31.5582C36.6982 30.2073 34.8674 29.4462 32.9568 29.4414Z" fill="black"/>
<path d="M16.168 53.7148V60.924C16.168 63.0229 17.8106 64.6655 19.9094 64.6655H46.0085C48.1074 64.6655 49.75 63.0229 49.75 60.924V53.7148H16.168Z" fill="url(#paint7_linear_601_2281)"/>
<path opacity="0.1" d="M43.45 64.6656H46.0052C48.1041 64.6656 49.7467 63.023 49.7467 60.9241V53.715H43.45V64.6656ZM40.1648 5.89709L36.6971 2.42939C34.7808 0.513021 31.8606 0.33051 29.7617 1.88185C30.0355 2.06436 30.218 2.24687 30.4005 2.42939L33.8682 5.89709C37.6097 9.63857 40.3474 14.1101 41.8987 19.0379H48.1953C46.644 14.1101 43.9063 9.63857 40.1648 5.89709Z" fill="black"/>
<defs>
<linearGradient id="paint0_linear_601_2281" x1="32.959" y1="66.9463" x2="32.959" y2="87.9351" gradientUnits="userSpaceOnUse">
<stop stop-color="white"/>
<stop offset="0.416" stop-color="#F5F4F8"/>
<stop offset="1" stop-color="#EFECF3"/>
</linearGradient>
<linearGradient id="paint1_linear_601_2281" x1="2.78903" y1="40.5358" x2="21.8936" y2="48.7161" gradientUnits="userSpaceOnUse">
<stop stop-color="#FF9AA1"/>
<stop offset="1" stop-color="#FC0012"/>
</linearGradient>
<linearGradient id="paint2_linear_601_2281" x1="43.4111" y1="40.5358" x2="62.4378" y2="48.6349" gradientUnits="userSpaceOnUse">
<stop stop-color="#FF9AA1"/>
<stop offset="1" stop-color="#FC0012"/>
</linearGradient>
<linearGradient id="paint3_linear_601_2281" x1="16.0603" y1="28.1858" x2="49.3156" y2="28.1858" gradientUnits="userSpaceOnUse">
<stop stop-color="white"/>
<stop offset="0.416" stop-color="#F5F4F8"/>
<stop offset="1" stop-color="#EFECF3"/>
</linearGradient>
<linearGradient id="paint4_linear_601_2281" x1="13.49" y1="3.72271" x2="36.1574" y2="25.9261" gradientUnits="userSpaceOnUse">
<stop stop-color="#FF9AA1"/>
<stop offset="1" stop-color="#FC0012"/>
</linearGradient>
<linearGradient id="paint5_linear_601_2281" x1="17.9028" y1="36.4738" x2="45.3132" y2="36.6937" gradientUnits="userSpaceOnUse">
<stop stop-color="#FFF3D9"/>
<stop offset="0.606" stop-color="#FFCC60"/>
<stop offset="1" stop-color="#FDBC31"/>
</linearGradient>
<linearGradient id="paint6_linear_601_2281" x1="25.8303" y1="36.5989" x2="39.9265" y2="36.5989" gradientUnits="userSpaceOnUse">
<stop stop-color="#3BCFFE"/>
<stop offset="1" stop-color="#3C76F2"/>
</linearGradient>
<linearGradient id="paint7_linear_601_2281" x1="11.5087" y1="55.4417" x2="23.1295" y2="76.2659" gradientUnits="userSpaceOnUse">
<stop stop-color="#FF9AA1"/>
<stop offset="1" stop-color="#FC0012"/>
</linearGradient>
</defs>
</svg>
