<svg width="45" height="40" viewBox="0 0 45 40" fill="none" xmlns="http://www.w3.org/2000/svg">
<path d="M41.5564 16.2632H41.1744L24.8618 2.34684C24.6528 1.01888 23.5008 0 22.115 0C20.7292 0 19.5773 1.01888 19.3682 2.34684L3.05095 16.2672C1.35454 16.3506 0 17.7567 0 19.4733V36.7898C0 38.5599 1.44014 40 3.21017 40H41.5565C43.3265 40 44.7667 38.5599 44.7667 36.7898V19.4733C44.7666 17.7033 43.3265 16.2632 41.5564 16.2632ZM22.115 1.75552C22.6804 1.75552 23.1403 2.21551 23.1403 2.78086C23.1403 3.3463 22.6803 3.80621 22.115 3.80621C21.5496 3.80621 21.0897 3.34622 21.0897 2.78086C21.0897 2.21551 21.5497 1.75552 22.115 1.75552ZM19.7861 4.29794C20.283 5.0581 21.1411 5.56181 22.115 5.56181C23.089 5.56181 23.947 5.0581 24.4439 4.29794L38.4694 16.2632H5.76064L19.7861 4.29794ZM43.0111 36.7898C43.0111 37.592 42.3586 38.2444 41.5565 38.2444H3.21017C2.40804 38.2444 1.7556 37.5919 1.7556 36.7898V19.4733C1.7556 18.6713 2.40813 18.0187 3.21017 18.0187H41.5565C42.3586 18.0187 43.0111 18.6713 43.0111 19.4733V36.7898V36.7898Z" fill="#FC0012"/>
<path d="M4.2545 21.4485C4.75318 21.4485 5.15744 21.0442 5.15744 20.5455C5.15744 20.0468 4.75318 19.6426 4.2545 19.6426C3.75582 19.6426 3.35156 20.0468 3.35156 20.5455C3.35156 21.0442 3.75582 21.4485 4.2545 21.4485Z" fill="#FC0012"/>
<path d="M4.2545 36.9778C4.75318 36.9778 5.15744 36.5735 5.15744 36.0748C5.15744 35.5761 4.75318 35.1719 4.2545 35.1719C3.75582 35.1719 3.35156 35.5761 3.35156 36.0748C3.35156 36.5735 3.75582 36.9778 4.2545 36.9778Z" fill="#FC0012"/>
<path d="M40.817 21.4485C41.3157 21.4485 41.7199 21.0442 41.7199 20.5455C41.7199 20.0468 41.3157 19.6426 40.817 19.6426C40.3183 19.6426 39.9141 20.0468 39.9141 20.5455C39.9141 21.0442 40.3183 21.4485 40.817 21.4485Z" fill="#FC0012"/>
<path d="M40.817 36.9778C41.3157 36.9778 41.7199 36.5735 41.7199 36.0748C41.7199 35.5761 41.3157 35.1719 40.817 35.1719C40.3183 35.1719 39.9141 35.5761 39.9141 36.0748C39.9141 36.5735 40.3183 36.9778 40.817 36.9778Z" fill="#FC0012"/>
<path d="M9.80564 25.4795C9.80564 24.8027 10.3838 24.3937 11.399 24.3937C12.5834 24.3937 12.9077 24.9296 13.3449 24.9296C13.8526 24.9296 14.0782 24.281 14.0782 23.9567C14.0782 23.026 12.231 22.8286 11.399 22.8286C9.77749 22.8286 7.97257 23.5478 7.97257 25.6487C7.97257 28.9906 12.4989 28.342 12.4989 30.457C12.4989 31.3031 11.7656 31.6837 10.9196 31.6837C9.48135 31.6837 9.10048 30.598 8.52245 30.598C8.08528 30.598 7.71875 31.1902 7.71875 31.585C7.71875 32.4028 9.12881 33.3335 10.976 33.3335C12.9219 33.3335 14.332 32.2902 14.332 30.2737C14.332 26.6216 9.80564 27.228 9.80564 25.4795Z" fill="#FC0012"/>
<path d="M22.6852 32.3041L19.9637 23.4349C19.8369 23.0119 19.3151 22.8145 18.7793 22.8145C18.2575 22.8145 17.7358 23.0119 17.6089 23.4349L14.8875 32.3041C14.8735 32.3605 14.8594 32.417 14.8594 32.4451C14.8594 32.8963 15.5221 33.2066 16.0155 33.2066C16.3257 33.2066 16.5654 33.1079 16.636 32.84L17.1718 30.9646H20.4008L20.9367 32.84C21.0072 33.1079 21.2468 33.2066 21.5571 33.2066C22.0507 33.2066 22.7134 32.8823 22.7134 32.4451C22.7134 32.4028 22.6993 32.3606 22.6852 32.3041ZM17.5526 29.5263L18.7793 25.1974L20.006 29.5263H17.5526Z" fill="#FC0012"/>
<path d="M28.9689 31.6H25.5283V23.4639C25.5283 23.0692 25.063 22.8999 24.6118 22.8999C24.1465 22.8999 23.6953 23.0691 23.6953 23.4639V32.6293C23.6953 33.0101 24.0901 33.2075 24.499 33.2075V33.2074H28.9689C29.3355 33.2074 29.5188 32.7985 29.5188 32.4036C29.5188 31.9949 29.3355 31.6 28.9689 31.6Z" fill="#FC0012"/>
<path d="M36.3352 31.5996H32.3447V28.7652H34.4881C34.8828 28.7652 35.0661 28.3846 35.0661 28.0603C35.0661 27.6795 34.8547 27.327 34.4881 27.327H32.3447V24.5069H36.3352C36.7017 24.5069 36.9133 24.1261 36.9133 23.689C36.9133 23.3083 36.7301 22.8994 36.3352 22.8994H31.3154C30.9066 22.8994 30.5117 23.0968 30.5117 23.4774V32.6288C30.5117 33.0096 30.9065 33.207 31.3154 33.207H36.3352C36.73 33.207 36.9133 32.7981 36.9133 32.4174C36.9133 31.9803 36.7017 31.5996 36.3352 31.5996Z" fill="#FC0012"/>
</svg>
