<svg width="120" height="47" viewBox="0 0 120 47" fill="none" xmlns="http://www.w3.org/2000/svg">
<path d="M109.958 16.1463L92.7542 15.4716C91.9104 15.4716 90.8985 15.1343 90.2239 14.797L79.2607 7.37611C72.5144 2.82189 64.587 0.460693 56.3224 0.460693H40.4677C36.7572 0.460693 33.2149 1.47264 30.0109 3.32834L13.8189 12.605C13.4816 12.7731 13.1443 12.9423 12.8069 12.9423L8.25273 13.1104C6.39703 13.1104 4.54227 13.7851 3.19301 15.1343C1.84376 16.4836 1 18.1711 1 20.195V26.2666C1 33.3502 6.73434 39.2537 13.9871 39.2537H15.3363C17.192 43.1333 21.0707 46 25.6249 46C30.1791 46 34.2269 43.3015 35.9134 39.2537H85.1641C87.0198 43.1333 90.8985 46 95.4527 46C100.007 46 104.055 43.3015 105.741 39.2537H106.079C113.163 39.2537 119.066 33.5194 119.066 26.2666C119.572 20.5323 115.355 16.3154 109.958 16.1463V16.1463ZM14.999 37.5671H14.1553C9.60104 37.5671 5.55327 34.8686 3.69757 30.989H15.1672C14.8299 32.001 14.6608 33.1821 14.6608 34.3622C14.6608 35.3741 14.8299 36.5552 14.9981 37.5671H14.999ZM35.4079 37.5671C35.2398 38.0726 35.0706 38.4109 34.9024 38.9164C33.2159 42.1214 29.8427 44.3134 26.1323 44.3134C22.4218 44.3134 18.8795 42.1204 17.193 38.9164C17.0238 38.5791 16.8557 38.0726 16.6875 37.5671C16.3502 36.5552 16.0128 35.3741 16.0128 34.194C16.0128 33.0139 16.181 31.8328 16.6875 30.8209C16.8557 30.3154 17.0248 29.9771 17.193 29.4716C18.8795 26.2666 22.2527 24.0746 25.9641 24.0746C29.6755 24.0746 33.0477 26.2676 34.7343 29.4716C34.9024 29.8089 35.0716 30.3154 35.2407 30.8209C35.578 31.8328 35.9153 33.0139 35.9153 34.194C35.9153 35.3741 35.7471 36.5552 35.4089 37.5671H35.4079ZM85.1641 37.5671H36.7572C37.0945 36.5552 37.2636 35.3741 37.2636 34.194C37.2636 33.0139 37.0945 31.8328 36.7572 30.8209H85.1641C84.8268 31.8328 84.6586 33.0139 84.6586 34.194C84.6586 35.3741 84.8268 36.5552 85.1641 37.5671ZM105.404 37.5671C105.236 38.0726 105.067 38.4109 104.898 38.9164C103.212 42.1214 99.8378 44.3134 96.1273 44.3134C92.2477 44.3134 88.8746 42.1204 87.3572 38.9164C87.188 38.5791 87.0198 38.0726 86.8507 37.5671C86.5134 36.5552 86.1761 35.3741 86.1761 34.194C86.1761 33.0139 86.3452 31.8328 86.8507 30.8209C87.0198 30.3154 87.188 29.9771 87.3572 29.4716C89.0437 26.2666 92.4169 24.0746 96.1273 24.0746C99.8378 24.0746 103.212 26.2676 104.898 29.4716C105.067 29.8089 105.236 30.3154 105.404 30.8209C105.741 31.8328 106.079 33.0139 106.079 34.194C105.91 35.3751 105.741 36.5552 105.404 37.5671ZM106.753 37.5671C107.091 36.5552 107.26 35.3741 107.26 34.194C107.26 33.0139 107.091 31.8328 106.753 30.8209H117.042C116.107 32.7782 114.654 34.442 112.84 35.6314C111.026 36.8208 108.921 37.4903 106.753 37.5671V37.5671ZM106.248 29.6398C104.392 25.7602 100.512 22.8935 95.9591 22.8935C91.4059 22.8935 87.3572 25.592 85.6706 29.6398H36.2508C34.395 25.7602 30.5164 22.8935 25.9622 22.8935C21.408 22.8935 17.3602 25.592 15.6736 29.6398H3.19207C2.85476 28.6279 2.68657 27.6159 2.68657 26.4348H6.05971C6.23457 26.4225 6.3991 26.3475 6.52305 26.2235C6.647 26.0996 6.72203 25.9351 6.73434 25.7602C6.72203 25.5853 6.647 25.4208 6.52305 25.2969C6.3991 25.1729 6.23457 25.0979 6.05971 25.0856H2.68657V20.8696H6.05971C6.23457 20.8573 6.3991 20.7823 6.52305 20.6583C6.647 20.5344 6.72203 20.3698 6.73434 20.195C6.72203 20.0201 6.647 19.8556 6.52305 19.7317C6.3991 19.6077 6.23457 19.5327 6.05971 19.5204H2.85476C3.02294 18.1711 3.52938 16.8218 4.54133 15.8099C5.55327 14.798 7.07166 14.2915 8.42091 14.2915H8.59004L13.1443 14.1233C13.6507 14.1233 14.3253 13.9552 14.8308 13.6169L31.0229 4.1721C34.0587 2.48552 37.4318 1.47358 40.8059 1.47358H56.6606C64.588 1.47358 72.178 3.83478 78.7561 8.21987L89.7193 15.6408C90.7239 16.1533 91.8066 16.4953 92.9233 16.6527L110.127 17.3274C113.164 17.4955 115.693 19.0139 117.043 21.3751H110.465C110.29 21.3874 110.125 21.4625 110.001 21.5864C109.877 21.7104 109.802 21.8749 109.79 22.0497C109.802 22.2246 109.877 22.3891 110.001 22.5131C110.125 22.637 110.29 22.7121 110.465 22.7244H117.717C118.055 23.7363 118.392 24.7483 118.392 25.9293C118.392 27.2786 118.224 28.4597 117.717 29.6398H106.248Z" fill="#FC0012" stroke="#FC0012" stroke-width="0.3"/>
<path d="M57.1652 4.34033H42.6607C39.1184 4.34033 35.5771 5.85872 33.0468 8.55723C32.4691 9.14635 32.0803 9.89435 31.93 10.7056C31.7797 11.5169 31.8747 12.3545 32.203 13.1114C32.8776 14.6289 34.2269 15.6418 35.9134 15.6418L83.1403 17.1602C83.4776 17.1602 83.8149 16.992 83.8149 16.6547V16.1482L79.598 12.6059C73.5263 7.37711 65.4299 4.34128 57.1652 4.34128V4.34033ZM35.9134 14.4598C34.7324 14.4598 33.7204 13.7851 33.3831 12.6041C32.8776 11.5921 33.2149 10.411 34.0577 9.3991C36.2508 7.0379 39.4548 5.68865 42.6597 5.68865H54.804L58.1771 15.1334L35.9134 14.4588V14.4598ZM59.5264 15.3035C59.5264 15.3035 59.5264 15.1353 59.5264 15.3035L56.1532 5.68959H57.1652C65.0925 5.68959 72.8508 8.55723 78.9234 13.6169L81.6219 15.9781L59.5264 15.3035V15.3035Z" fill="#FC0012" stroke="#FC0012" stroke-width="0.3"/>
<path d="M100.513 29.6396C99.3333 28.4586 97.8149 27.7839 95.9592 27.7839C94.1035 27.7839 92.5861 28.4586 91.406 29.6396C91.0686 29.977 90.7313 30.4834 90.394 30.9889C89.7194 32.0008 89.3821 33.1819 89.3821 34.362C89.3821 35.5422 89.7194 36.7232 90.394 37.7352C90.7313 38.2407 91.0686 38.578 91.406 39.0844C92.5861 40.2646 94.2727 40.9401 95.9592 40.9401C97.6458 40.9401 99.3333 40.2655 100.513 39.0844C100.851 38.7471 101.188 38.2407 101.525 37.7352C102.032 36.7232 102.537 35.7113 102.537 34.362C102.537 33.181 102.2 32.0008 101.525 30.9889C101.188 30.4834 100.851 29.977 100.513 29.6396ZM99.8388 37.567C99.3333 38.0725 98.8269 38.5789 98.1522 38.9162C97.4776 39.2536 96.6339 39.5909 95.791 39.5909C94.9482 39.5909 94.1045 39.4227 93.4298 38.9162C92.7552 38.5789 92.2488 38.0725 91.7433 37.567C90.9804 36.608 90.5642 35.4193 90.5622 34.1939C90.5622 32.8446 91.0687 31.8327 91.7433 30.8207C92.2488 30.3152 92.7552 29.8088 93.4298 29.4715C94.1045 29.1341 94.9473 28.966 95.791 28.966C96.6348 28.966 97.3085 29.1341 98.1522 29.4715C98.8269 29.8088 99.3333 30.3152 99.8388 30.8207C100.683 31.6645 101.02 32.8446 101.02 34.1939C101.188 35.5431 100.683 36.7242 99.8388 37.567Z" fill="#FC0012" stroke="#FC0012" stroke-width="0.3"/>
<path d="M64.589 20.0259H61.2159C61.041 20.0382 60.8765 20.1132 60.7526 20.2372C60.6286 20.3611 60.5536 20.5257 60.5413 20.7005C60.5536 20.8754 60.6286 21.0399 60.7526 21.1638C60.8765 21.2878 61.041 21.3628 61.2159 21.3751H64.589C64.7639 21.3628 64.9284 21.2878 65.0524 21.1638C65.1763 21.0399 65.2513 20.8754 65.2637 20.7005C65.2637 20.3632 65.0955 20.0259 64.589 20.0259Z" fill="#FC0012" stroke="#FC0012" stroke-width="0.3"/>
<path d="M39.4577 20.0259H36.0845C35.9097 20.0382 35.7452 20.1132 35.6212 20.2372C35.4973 20.3611 35.4222 20.5257 35.4099 20.7005C35.4222 20.8754 35.4973 21.0399 35.6212 21.1638C35.7452 21.2878 35.9097 21.3628 36.0845 21.3751H39.4577C39.6325 21.3628 39.7971 21.2878 39.921 21.1638C40.045 21.0399 40.12 20.8754 40.1323 20.7005C40.12 20.5257 40.045 20.3611 39.921 20.2372C39.7971 20.1132 39.6325 20.0382 39.4577 20.0259Z" fill="#FC0012" stroke="#FC0012" stroke-width="0.3"/>
<path d="M30.5173 29.6396C29.3363 28.4586 27.8188 27.7839 25.9631 27.7839C24.2765 27.7839 22.59 28.4586 21.4089 29.6396C21.0716 29.977 20.7343 30.4834 20.397 30.9889C19.7223 32.0008 19.385 33.1819 19.385 34.362C19.385 35.5422 19.7223 36.7232 20.397 37.7352C20.7343 38.2407 21.0716 38.578 21.4089 39.0844C22.59 40.2646 24.2765 40.9401 25.9631 40.9401C27.8188 40.9401 29.3363 40.2655 30.5173 39.0844C30.8546 38.7471 31.192 38.2407 31.5293 37.7352C32.0357 36.7232 32.5412 35.7113 32.5412 34.362C32.5412 33.181 32.2039 32.0008 31.5293 30.9889C31.192 30.4834 30.8546 29.977 30.5173 29.6396ZM29.8427 37.567C29.3363 38.0725 28.8308 38.5789 28.1561 38.9162C27.4815 39.2536 26.6377 39.5909 25.7949 39.5909C24.9521 39.5909 24.1084 39.4227 23.4337 38.9162C22.7591 38.5789 22.2536 38.0725 21.7472 37.567C20.9843 36.608 20.5681 35.4193 20.5661 34.1939C20.5661 32.8446 21.0716 31.8327 21.7472 30.8207C22.2527 30.3152 22.7591 29.8088 23.4337 29.4715C24.1084 29.1341 24.9521 28.966 25.7949 28.966C26.6377 28.966 27.3133 29.1341 28.1561 29.4715C28.8308 29.8088 29.3372 30.3152 29.8427 30.8207C30.6865 31.6645 31.0238 32.8446 31.0238 34.1939C31.192 35.5431 30.6865 36.7242 29.8427 37.567Z" fill="#FC0012" stroke="#FC0012" stroke-width="0.3"/>
</svg>
