<svg width="60" height="74" viewBox="0 0 60 74" fill="none" xmlns="http://www.w3.org/2000/svg">
<g clip-path="url(#clip0_601_2134)">
<path d="M30 67.273C46.5833 67.273 60 53.7344 60 37.0003C60 20.2662 46.5833 6.72754 30 6.72754C13.4167 6.72754 0 20.2662 0 37.0003C0 53.7344 13.4167 67.273 30 67.273Z" fill="url(#paint0_linear_601_2134)"/>
<path opacity="0.1" d="M30.0013 6.72754L27.668 6.81163C34.5846 7.31618 40.7513 10.2594 45.5846 14.7162L44.5013 15.8094C43.5846 16.7344 43.168 18.1639 43.5013 19.4253L44.418 23.2934L29.418 38.5139L27.918 37.0003V40.7844C27.9111 41.0513 27.9581 41.3168 28.0562 41.5648C28.1543 41.8128 28.3013 42.0381 28.4885 42.2269C28.6756 42.4157 28.8988 42.5641 29.1445 42.6631C29.3903 42.762 29.6535 42.8095 29.918 42.8025C30.418 42.8025 31.0013 42.6344 31.3346 42.2139L46.0846 27.3298L49.918 28.2548C51.168 28.5912 52.5846 28.1707 53.5013 27.2457C54.5013 30.273 55.0846 33.5525 55.0846 37.0003C55.0846 52.8934 42.918 65.9275 27.418 67.1889C28.418 67.273 29.168 67.273 30.0013 67.273C46.5846 67.273 60.0013 53.7344 60.0013 37.0003C60.0013 20.2662 46.5846 6.72754 30.0013 6.72754Z" fill="black"/>
<path d="M30 40.5314C31.9167 40.5314 33.5 38.9337 33.5 36.9996C33.5 35.0655 31.9167 33.4678 30 33.4678C28.0833 33.4678 26.5 35.0655 26.5 36.9996C26.5 38.9337 28.0833 40.5314 30 40.5314Z" fill="url(#paint1_linear_601_2134)"/>
<path d="M29.9987 15.6406C18.332 15.6406 8.83203 25.227 8.83203 36.9997C8.83203 48.7724 18.332 58.3588 29.9987 58.3588C41.6654 58.3588 51.1654 48.7724 51.1654 36.9997C51.1654 25.227 41.6654 15.6406 29.9987 15.6406ZM29.9987 49.4452C28.3781 49.4485 26.7729 49.1289 25.275 48.5046C23.7772 47.8803 22.4163 46.9637 21.2704 45.8074C20.1245 44.6511 19.2161 43.2778 18.5975 41.7663C17.9788 40.2549 17.6621 38.635 17.6654 36.9997C17.6621 35.3644 17.9788 33.7446 18.5975 32.2331C19.2161 30.7217 20.1245 29.3484 21.2704 28.192C22.4163 27.0357 23.7772 26.1191 25.275 25.4948C26.7729 24.8706 28.3781 24.5509 29.9987 24.5543C31.6193 24.5509 33.2245 24.8706 34.7224 25.4948C36.2202 26.1191 37.5811 27.0357 38.727 28.192C39.8729 29.3484 40.7813 30.7217 41.3999 32.2331C42.0186 33.7446 42.3353 35.3644 42.332 36.9997C42.3353 38.635 42.0186 40.2549 41.3999 41.7663C40.7813 43.2778 39.8729 44.6511 38.727 45.8074C37.5811 46.9637 36.2202 47.8803 34.7224 48.5046C33.2245 49.1289 31.6193 49.4485 29.9987 49.4452Z" fill="url(#paint2_linear_601_2134)"/>
<path d="M29.418 38.5133L27.918 36.9996V39.8587C28.5013 40.2792 29.168 40.5314 30.0013 40.5314C30.9275 40.5248 31.814 40.1506 32.4689 39.4897C33.1239 38.8288 33.4948 37.9343 33.5013 36.9996C33.5013 36.2428 33.2513 35.5701 32.8346 34.9814L29.418 38.5133Z" fill="url(#paint3_linear_601_2134)"/>
<path opacity="0.1" d="M43.918 20.8545L44.5013 23.2931L39.168 28.5909C40.0846 29.5999 40.918 30.8613 41.418 32.2068L46.2513 27.3295L49.2513 28.0863C48.0013 25.3113 46.168 22.8727 43.918 20.8545Z" fill="black"/>
<path d="M58.7494 14.8841L53.3328 13.4546L51.9994 7.98869C51.9197 7.70091 51.7668 7.43916 51.5559 7.22934C51.3451 7.01953 51.0836 6.86893 50.7973 6.79247C50.511 6.716 50.2099 6.71632 49.9238 6.79339C49.6377 6.87046 49.3765 7.02161 49.1661 7.23187L43.3328 13.1182C42.4161 14.0432 41.9994 15.4728 42.3328 16.7341L43.8328 22.9569L49.9994 24.4705C51.2494 24.8069 52.6661 24.3864 53.5828 23.4614L59.4161 17.575C60.4161 16.7341 59.9994 15.1364 58.7494 14.8841Z" fill="url(#paint4_linear_601_2134)"/>
<path d="M58.7494 14.8841L53.3328 13.4546L51.9994 7.98869C51.9197 7.70091 51.7668 7.43916 51.5559 7.22934C51.3451 7.01953 51.0836 6.86893 50.7973 6.79247C50.511 6.716 50.2099 6.71632 49.9238 6.79339C49.6377 6.87046 49.3765 7.02161 49.1661 7.23187L43.3328 13.1182C42.4161 14.0432 41.9994 15.4728 42.3328 16.7341L43.8328 22.9569L49.9994 24.4705C51.2494 24.8069 52.6661 24.3864 53.5828 23.4614L59.4161 17.575C60.4161 16.7341 59.9994 15.1364 58.7494 14.8841Z" fill="url(#paint5_linear_601_2134)"/>
<path d="M58.7481 14.8841L53.3315 13.4546L51.9981 7.98869C51.9184 7.70091 51.7655 7.43916 51.5546 7.22934C51.3438 7.01953 51.0823 6.86893 50.796 6.79247C50.5097 6.716 50.2086 6.71632 49.9225 6.79339C49.6364 6.87046 49.3752 7.02161 49.1648 7.23187L45.9148 10.5114C44.9981 11.4364 44.5815 12.866 44.9148 14.1273L46.4148 20.3501L52.5815 21.8637C53.8315 22.2001 55.2481 21.7796 56.1648 20.8546L59.4148 17.5751C60.4148 16.7341 59.9981 15.1364 58.7481 14.8841Z" fill="url(#paint6_linear_601_2134)"/>
<path d="M58.7481 14.8841L53.3315 13.4546L51.9981 7.98869C51.9184 7.70091 51.7655 7.43916 51.5546 7.22934C51.3438 7.01953 51.0823 6.86893 50.796 6.79247C50.5097 6.716 50.2086 6.71632 49.9225 6.79339C49.6364 6.87046 49.3752 7.02161 49.1648 7.23187L48.4148 7.98869C47.4981 8.91369 47.0815 10.3432 47.4148 11.6046L48.9148 17.8273L55.0815 19.341C56.3315 19.6773 57.7481 19.2569 58.6648 18.3319L59.4148 17.575C60.4148 16.7341 59.9981 15.1364 58.7481 14.8841Z" fill="url(#paint7_linear_601_2134)"/>
<path d="M29.9987 39.1023C29.4987 39.1023 28.9154 38.9341 28.582 38.5136C27.7487 37.6727 27.7487 36.4114 28.582 35.5705L51.7487 12.1932C52.582 11.3523 53.832 11.3523 54.6654 12.1932C55.4987 13.0341 55.4987 14.2955 54.6654 15.1364L31.4154 38.4295C31.082 38.85 30.4987 39.1023 29.9987 39.1023Z" fill="url(#paint8_linear_601_2134)"/>
</g>
<defs>
<linearGradient id="paint0_linear_601_2134" x1="-8.32449" y1="16.275" x2="57.1538" y2="54.1922" gradientUnits="userSpaceOnUse">
<stop stop-color="#FF9AA1"/>
<stop offset="1" stop-color="#FC0012"/>
</linearGradient>
<linearGradient id="paint1_linear_601_2134" x1="8.705" y1="37.0013" x2="50.6025" y2="37.0013" gradientUnits="userSpaceOnUse">
<stop stop-color="#F2FBFF"/>
<stop offset="0.593" stop-color="#FAF7F7"/>
<stop offset="1" stop-color="#F3EAE6"/>
</linearGradient>
<linearGradient id="paint2_linear_601_2134" x1="8.7037" y1="37.0014" x2="50.6012" y2="37.0014" gradientUnits="userSpaceOnUse">
<stop stop-color="white"/>
<stop offset="0.416" stop-color="#F5F4F8"/>
<stop offset="1" stop-color="#EFECF3"/>
</linearGradient>
<linearGradient id="paint3_linear_601_2134" x1="24.3563" y1="37.7564" x2="50.7271" y2="37.7564" gradientUnits="userSpaceOnUse">
<stop stop-color="#F3EAE6"/>
<stop offset="1" stop-color="#CDBFBA"/>
</linearGradient>
<linearGradient id="paint4_linear_601_2134" x1="40.6261" y1="15.6788" x2="53.1753" y2="15.6788" gradientUnits="userSpaceOnUse">
<stop stop-color="#FFF9DF"/>
<stop offset="0.593" stop-color="#FFE177"/>
<stop offset="1" stop-color="#FEB137"/>
</linearGradient>
<linearGradient id="paint5_linear_601_2134" x1="40.6261" y1="15.6788" x2="53.1753" y2="15.6788" gradientUnits="userSpaceOnUse">
<stop stop-color="#FFF9DF"/>
<stop offset="0.593" stop-color="#FFE177"/>
<stop offset="1" stop-color="#FEB137"/>
</linearGradient>
<linearGradient id="paint6_linear_601_2134" x1="40.6248" y1="14.3931" x2="53.174" y2="14.3931" gradientUnits="userSpaceOnUse">
<stop stop-color="#FFF9DF"/>
<stop offset="0.593" stop-color="#FFE177"/>
<stop offset="1" stop-color="#FEB137"/>
</linearGradient>
<linearGradient id="paint7_linear_601_2134" x1="40.6248" y1="13.1073" x2="53.174" y2="13.1073" gradientUnits="userSpaceOnUse">
<stop stop-color="#FFF9DF"/>
<stop offset="0.593" stop-color="#FFE177"/>
<stop offset="1" stop-color="#FEB137"/>
</linearGradient>
<linearGradient id="paint8_linear_601_2134" x1="28.0245" y1="25.3114" x2="54.8287" y2="25.3114" gradientUnits="userSpaceOnUse">
<stop stop-color="#3BCFFE"/>
<stop offset="1" stop-color="#3C76F2"/>
</linearGradient>
<clipPath id="clip0_601_2134">
<rect width="60" height="74" fill="white"/>
</clipPath>
</defs>
</svg>
