<svg width="123" height="48" viewBox="0 0 123 48" fill="none" xmlns="http://www.w3.org/2000/svg">
<path d="M112.771 17.0658L81.5025 16.548C79.2567 16.548 77.1842 15.8568 75.2841 14.4745L67.1645 8.42841C60.7728 3.59133 52.8256 1 44.706 1C37.6232 1 30.5404 3.07345 24.4942 6.8738L14.1289 13.4388C13.7834 13.6111 13.4378 13.7843 13.0922 13.7843L8.42841 13.9566C6.35496 13.9566 4.62805 14.6478 3.24575 16.0301C1.86345 17.4124 1 19.1393 1 21.2118V27.4311C1 34.6873 6.8738 40.7334 14.3022 40.7334H15.6845C17.5847 44.707 21.5583 47.6439 26.2221 47.6439C30.8859 47.6439 35.0328 44.8803 36.7597 40.7334H87.204C89.1042 44.707 93.0768 47.6439 97.7416 47.6439C102.406 47.6439 106.552 44.8803 108.279 40.7334H108.625C115.881 40.7334 121.927 34.8596 121.927 27.4311C122.618 21.5573 118.299 17.2391 112.771 17.0658V17.0658ZM15.5112 39.0055H14.6478C12.4107 38.9981 10.2206 38.3627 8.32697 37.1716C6.43332 35.9805 4.91223 34.2815 3.9369 32.2682H15.6845C15.3389 33.305 15.1666 34.514 15.1666 35.723C15.1666 36.7597 15.3389 37.7955 15.5122 39.0055H15.5112ZM36.4142 39.0055C36.2419 39.5234 36.0686 39.8689 35.8963 40.3878C34.1684 43.6703 30.7136 45.916 26.9133 45.916C22.9396 45.916 19.4849 43.6703 17.757 40.3878C17.5847 40.0422 17.4114 39.5243 17.2391 39.0055C16.8935 37.9688 16.548 36.7597 16.548 35.5507C16.548 34.3417 16.7203 33.1317 17.2391 32.0959C17.4114 31.578 17.5847 31.2325 17.757 30.7136C19.4849 27.4311 22.9396 25.1854 26.74 25.1854C30.5404 25.1854 33.9951 27.4311 35.723 30.7136C35.8953 31.0592 36.0686 31.5771 36.2409 32.0959C36.5865 33.1326 36.932 34.3417 36.932 35.5507C36.932 36.7597 36.7597 37.7965 36.4142 39.0055V39.0055ZM87.3763 39.0055H37.7965C38.142 37.9688 38.3143 36.7597 38.3143 35.5507C38.3143 34.3417 38.142 33.1317 37.7965 32.0959H87.3763C87.0307 33.1326 86.8584 34.3417 86.8584 35.5507C86.8584 36.7597 87.0307 37.7965 87.3763 39.0055ZM108.107 39.0055C107.934 39.5234 107.761 39.8689 107.588 40.3878C105.861 43.6703 102.405 45.916 98.605 45.916C94.6324 45.916 91.1766 43.6703 89.622 40.3878C89.4497 40.0422 89.2765 39.5243 89.1042 39.0055C88.7586 37.9688 88.413 36.7597 88.413 35.5507C88.413 34.3417 88.5853 33.1317 89.1042 32.0959C89.2765 31.578 89.4497 31.2325 89.622 30.7136C91.3499 27.4311 94.8047 25.1854 98.605 25.1854C102.579 25.1854 105.861 27.4311 107.588 30.7136C107.761 31.0592 107.934 31.5771 108.107 32.0959C108.452 33.1326 108.798 34.3417 108.798 35.5507C108.625 36.7597 108.452 37.7965 108.107 39.0055ZM109.488 38.8332C109.834 37.7965 110.007 36.5874 110.007 35.3784C110.007 34.1694 109.834 32.9603 109.488 31.9236H120.027C118.127 36.0696 114.153 38.8341 109.488 38.8341V38.8332ZM108.97 30.7136C107.07 26.74 103.097 23.8031 98.4327 23.8031C93.7689 23.8031 89.622 26.5667 87.8942 30.7136H37.2776C35.3774 26.74 31.4038 23.8031 26.74 23.8031C22.0762 23.8031 17.9293 26.5667 16.2024 30.7136H3.41902C3.06558 29.6558 2.89057 28.5465 2.90115 27.4311H6.35593C6.53506 27.4185 6.70362 27.3417 6.83061 27.2147C6.95759 27.0877 7.03446 26.9191 7.04707 26.74C7.03446 26.5609 6.95759 26.3923 6.83061 26.2653C6.70362 26.1383 6.53506 26.0615 6.35593 26.0488H2.90115V21.7296H6.35593C6.53506 21.717 6.70362 21.6402 6.83061 21.5132C6.95759 21.3862 7.03446 21.2176 7.04707 21.0385C7.03446 20.8594 6.95759 20.6908 6.83061 20.5638C6.70362 20.4368 6.53506 20.36 6.35593 20.3473H3.07345C3.24575 18.965 3.7646 17.5837 4.80132 16.547C5.83805 15.5103 7.39265 14.9924 8.77495 14.9924H8.94725L13.612 14.8201C14.1299 14.8201 14.8211 14.6478 15.3399 14.3022L25.7033 7.73726C31.5771 4.1092 38.3143 2.03672 45.0516 2.03672C52.8256 2.03672 60.4263 4.62805 66.6457 9.11956L74.7652 15.1657C76.8387 16.7203 79.2567 17.4114 81.6757 17.5847L112.944 18.1026C116.053 18.2749 118.645 19.8304 120.027 22.2485H113.29C113.11 22.2611 112.942 22.338 112.815 22.465C112.688 22.5919 112.611 22.7605 112.598 22.9396C112.611 23.1188 112.688 23.2873 112.815 23.4143C112.942 23.5413 113.11 23.6182 113.29 23.6308H120.718C121.064 24.6675 121.408 25.7042 121.408 26.9133C121.408 28.2956 121.236 29.5046 120.718 30.7136H108.97Z" fill="#FC0012" stroke="#FC0012" stroke-width="0.3"/>
<path d="M103.099 30.7146C101.89 29.5056 100.335 28.8145 98.4338 28.8145C96.5326 28.8145 94.979 29.5056 93.77 30.7146C93.4244 31.0602 93.0788 31.5781 92.7333 32.0969C92.0421 33.1337 91.6965 34.3427 91.6965 35.5517C91.6965 36.7607 92.0421 37.9698 92.7333 39.0065C93.0788 39.5244 93.4244 39.8699 93.77 40.3888C94.979 41.5978 96.7069 42.289 98.4338 42.289C100.161 42.289 101.89 41.5978 103.099 40.3888C103.444 40.0432 103.79 39.5253 104.135 39.0065C104.653 37.9698 105.172 36.933 105.172 35.5517C105.172 34.3427 104.826 33.1327 104.135 32.0969C103.79 31.5791 103.444 31.2335 103.099 30.7146ZM102.407 39.0065C101.89 39.5244 101.371 40.0432 100.68 40.3888C99.9884 40.7344 99.1249 41.0799 98.2615 41.0799C97.398 41.0799 96.5336 40.9076 95.8425 40.3888C95.1523 40.0432 94.6334 39.5253 94.1156 39.0065C93.3346 38.0241 92.9085 36.8067 92.9065 35.5517C92.9065 34.1694 93.4244 33.1327 94.1156 32.0969C94.6334 31.5791 95.1523 31.0602 95.8425 30.7146C96.5326 30.3691 97.398 30.1968 98.2615 30.1968C99.1249 30.1968 99.8161 30.3691 100.68 30.7146C101.371 31.0602 101.89 31.5781 102.407 32.0969C103.271 32.9604 103.616 34.1704 103.616 35.5517C103.79 36.7607 103.271 37.9698 102.407 39.0065Z" fill="#FC0012" stroke="#FC0012" stroke-width="0.3"/>
<path d="M45.2267 20.001H41.772C41.5928 20.0136 41.4243 20.0905 41.2973 20.2174C41.1703 20.3444 41.0934 20.513 41.0808 20.6921C41.0934 20.8713 41.1703 21.0398 41.2973 21.1668C41.4243 21.2938 41.5928 21.3707 41.772 21.3833H45.2267C45.4059 21.3707 45.5744 21.2938 45.7014 21.1668C45.8284 21.0398 45.9053 20.8713 45.9179 20.6921C45.9053 20.513 45.8284 20.3444 45.7014 20.2174C45.5744 20.0905 45.4059 20.0136 45.2267 20.001V20.001Z" fill="#FC0012" stroke="#FC0012" stroke-width="0.3"/>
<path d="M31.4057 30.7146C30.1967 29.5056 28.6421 28.8145 26.7419 28.8145C25.014 28.8145 23.2871 29.5056 22.0781 30.7146C21.7325 31.0602 21.3869 31.5781 21.0414 32.0969C20.3502 33.1337 20.0046 34.3427 20.0046 35.5517C20.0046 36.7607 20.3502 37.9698 21.0414 39.0065C21.3869 39.5244 21.7325 39.8699 22.0781 40.3888C23.2871 41.5978 25.015 42.289 26.7429 42.289C28.643 42.289 30.1976 41.5978 31.4076 40.3888C31.7532 40.0432 32.0988 39.5253 32.4444 39.0065C32.9622 37.9698 33.4811 36.933 33.4811 35.5517C33.4811 34.3427 33.1355 33.1327 32.4444 32.0969C32.0988 31.5791 31.7532 31.2335 31.4076 30.7146H31.4057ZM30.7146 39.0065C30.1967 39.5244 29.6778 40.0432 28.9867 40.3888C28.2955 40.7344 27.4321 41.0799 26.5686 41.0799C25.7052 41.0799 24.8408 40.9076 24.1506 40.3888C23.4594 40.0432 22.9415 39.5253 22.4227 39.0065C21.6417 38.0241 21.2157 36.8067 21.2137 35.5517C21.2137 34.1694 21.7315 33.1327 22.4227 32.0969C22.9406 31.5791 23.4594 31.0602 24.1506 30.7146C24.8417 30.3691 25.7052 30.1968 26.5696 30.1968C27.434 30.1968 28.1242 30.3691 28.9876 30.7146C29.6788 31.0602 30.1967 31.5781 30.7155 32.0969C31.579 32.9604 31.9245 34.1704 31.9245 35.5517C32.0969 36.7607 31.579 37.9698 30.7155 39.0065H30.7146Z" fill="#FC0012" stroke="#FC0012" stroke-width="0.3"/>
<path d="M65.6108 11.0217C62.5016 8.43042 58.8736 6.70254 54.8999 5.49351C50.9263 4.28448 46.9537 3.93891 42.8068 4.28449L40.561 4.45679C36.7607 4.80236 33.1326 6.35697 30.1957 8.94829C28.8134 10.1573 28.4678 11.8852 28.9867 13.6131C29.5055 15.3409 31.0601 16.3767 32.787 16.55L69.9291 18.4501H70.1014C70.7925 18.4501 71.3104 18.1046 71.4837 17.4134C71.6569 16.7223 71.4837 16.0311 70.9658 15.6856L65.6108 11.0217V11.0217ZM33.1336 14.9954C31.579 14.9954 30.7155 13.9586 30.5422 12.9219C30.1967 12.0585 30.1967 10.6762 31.4057 9.63944C33.1336 8.08484 35.2061 6.87581 37.4518 6.18466L39.0064 15.1677L33.1326 14.9954H33.1336ZM70.2756 16.8955L40.2164 15.3409L38.4885 6.01236C39.1797 5.84006 40.0431 5.66678 40.7343 5.66678L42.98 5.49448C43.8435 5.49448 44.7079 5.32218 45.5714 5.32218C48.6806 5.32218 51.6175 5.84006 54.5544 6.70448C58.3547 7.91351 61.8105 9.64138 64.7464 12.0594L70.4469 16.5509V16.7232L70.2746 16.8955H70.2756Z" fill="#FC0012" stroke="#FC0012" stroke-width="0.3"/>
</svg>
