<svg width="103" height="48" viewBox="0 0 103 48" fill="none" xmlns="http://www.w3.org/2000/svg">
<path d="M95.2834 18.5824L76.9301 16.3621C76.6335 16.3621 76.4861 16.2138 76.3378 16.0663L65.8294 3.78086C64.9557 2.75109 63.8665 1.92576 62.6388 1.36315C61.4111 0.80055 60.0748 0.514406 58.7244 0.524939H19.0577C16.2459 0.524939 13.4332 1.85713 11.6569 4.22492L2.33243 16.6579C1.45659 17.805 0.987847 19.2112 1.00024 20.6544V32.1993C1.00024 36.0475 4.10868 39.0077 7.80866 39.0077H12.2493C13.5815 43.5958 17.8738 47 22.906 47C27.9382 47 32.2305 43.5958 33.5627 39.0077H71.6014C72.9336 43.5958 77.2259 47 82.2581 47C87.2902 47 91.5826 43.5958 92.9148 39.0077H98.391C100.907 39.0077 102.832 36.9357 102.832 34.5671V27.6103C103.127 23.0222 99.7232 19.174 95.2834 18.5816V18.5824ZM11.8052 35.7518C11.8052 36.4916 11.8052 37.084 11.9535 37.8238H7.80948C4.70104 37.8238 2.33324 35.456 2.18495 32.3476H12.3976C11.9535 33.384 11.8052 34.5679 11.8052 35.7518ZM32.8229 37.8238C32.8229 37.9721 32.6746 38.2678 32.6746 38.4161C32.6746 38.5644 32.5263 38.8602 32.5263 39.0085C31.1941 43.0051 27.4941 45.8169 23.0535 45.8169C18.6128 45.8169 14.9129 43.0051 13.5807 39.0085C13.5807 38.8602 13.4324 38.5644 13.4324 38.4161C13.4324 38.2678 13.2841 37.9721 13.2841 37.8238C13.1358 37.084 13.1358 36.4916 13.1358 35.7518C13.1358 34.5679 13.2833 33.384 13.7281 32.3476C13.7281 32.1993 13.8764 31.9035 13.8764 31.7552C14.0247 31.6069 14.0247 31.3111 14.1722 31.1628C15.8002 27.9069 19.2044 25.6866 23.2009 25.6866C27.0492 25.6866 30.4534 27.9069 32.2297 31.1628C32.378 31.3111 32.378 31.6069 32.5255 31.7552C32.6729 31.9035 32.6737 32.1993 32.6737 32.3476C33.1178 33.384 33.2661 34.5679 33.2661 35.7518C32.9703 36.4916 32.9703 37.084 32.822 37.8238H32.8229ZM71.3056 35.7518C71.3056 36.4916 71.3056 37.084 71.4531 37.8238H34.0068C34.155 37.084 34.155 36.4916 34.155 35.7518C34.155 34.5679 34.0068 33.5314 33.711 32.3476H71.898C71.4539 33.384 71.3064 34.5679 71.3064 35.7518H71.3056ZM92.3232 37.8238C92.3232 37.9721 92.1749 38.2678 92.1749 38.4161C92.1749 38.5644 92.0266 38.8602 92.0266 39.0085C90.6945 43.0051 86.9945 45.8169 82.5538 45.8169C78.1132 45.8169 74.4132 43.0051 73.0819 39.0085C73.0819 38.8602 72.9336 38.5644 72.9336 38.4161C72.9336 38.2678 72.7853 37.9721 72.7853 37.8238C72.6378 37.084 72.6378 36.4916 72.6378 35.7518C72.6378 34.5679 72.7853 33.384 73.2293 32.3476C73.2293 32.1993 73.3776 31.9035 73.3776 31.7552C73.5259 31.6069 73.5251 31.3111 73.6734 31.1628C75.3014 27.9069 78.7056 25.6866 82.7021 25.6866C86.5504 25.6866 89.9546 27.9069 91.7309 31.1628C91.8792 31.3111 91.8792 31.6069 92.0266 31.7552C92.1741 31.9035 92.1749 32.1993 92.1749 32.3476C92.619 33.384 92.7673 34.5679 92.7673 35.7518C92.4707 36.4916 92.4707 37.084 92.3232 37.8238ZM101.944 34.4196C101.944 36.1958 100.464 37.6755 98.6876 37.6755H93.5071C93.6546 36.9357 93.6546 36.3433 93.6546 35.6035C93.6546 34.4196 93.5071 33.3832 93.2105 32.1993H102.092V34.4196H101.944ZM101.944 31.1637H92.619C90.8428 27.1671 86.9945 24.5035 82.4064 24.5035C77.8183 24.5035 73.9692 27.3154 72.1937 31.1637H33.1186C31.3424 27.1671 27.4941 24.5035 22.906 24.5035C18.3179 24.5035 14.4696 27.3154 12.6934 31.1637H2.03666V27.3154H5.29258C5.58835 27.3154 5.88493 27.0196 5.88493 26.723C5.88493 26.4264 5.58916 26.1307 5.29258 26.1307H2.03666V22.4307H5.29258C5.58835 22.4307 5.88493 22.1349 5.88493 21.8383C5.88493 21.5417 5.58916 21.246 5.29258 21.246H2.03666V20.5061C2.03666 19.3222 2.48072 18.1375 3.07308 17.2502L12.3976 4.81728C13.8773 2.74526 16.2459 1.56136 18.9102 1.56136H58.5769C60.9447 1.56136 63.165 2.59778 64.7929 4.37321L75.3014 16.6579C75.5979 17.1019 76.1895 17.3977 76.6335 17.3977L94.9868 19.618C97.5029 19.9138 99.5757 21.3943 100.76 23.4663H95.5791C95.2834 23.4663 94.9868 23.7621 94.9868 24.0586C94.9868 24.3552 95.2834 24.651 95.5791 24.651H101.351C101.648 25.5391 101.795 26.4273 101.795 27.3154V31.1637H101.944Z" fill="#FC0012" stroke="#FC0012" stroke-width="0.3"/>
<path d="M87.4384 31.7527C87.2901 31.6044 87.1426 31.3087 86.9943 31.1604C85.8104 29.9765 84.1825 29.2358 82.4062 29.2358C80.63 29.2358 79.002 29.9757 77.8181 31.1604C77.6698 31.3087 77.5215 31.6044 77.374 31.7527C77.2266 31.901 77.0775 32.1968 76.93 32.3451C76.3376 33.3815 75.8936 34.4171 75.8936 35.7493C75.8936 36.4891 76.0418 37.2298 76.3376 37.8213C76.3376 37.9696 76.4859 38.2654 76.4859 38.4137C76.6334 38.562 76.6334 38.8577 76.7817 39.006C77.9656 40.9298 79.8901 42.1145 82.2579 42.1145C84.6257 42.1145 86.6985 40.7823 87.7341 39.006C87.8824 38.8577 87.8824 38.562 88.0307 38.4137C88.179 38.2654 88.1782 37.9696 88.1782 37.8213C88.4748 37.229 88.6223 36.4891 88.6223 35.7493C88.6223 34.5654 88.3265 33.3815 87.5867 32.3451C87.7341 32.1968 87.5867 32.0493 87.4384 31.7527ZM87.2901 37.8213C87.1426 37.9696 87.1426 38.2654 86.9943 38.4137C86.846 38.562 86.6985 38.8577 86.5503 39.006C85.6621 40.1899 84.1825 41.0781 82.4062 41.0781C80.63 41.0781 79.2978 40.3382 78.2622 39.006C78.1139 38.8577 77.9656 38.562 77.8181 38.4137C77.6706 38.2654 77.5215 37.9696 77.5215 37.8213C77.2257 37.229 77.0775 36.4891 77.0775 35.7493C77.0775 34.4171 77.5215 33.3815 78.2622 32.3451C78.4096 32.1968 78.5579 31.901 78.8537 31.7527C79.1495 31.6044 79.2978 31.3087 79.5935 31.1604C80.3342 30.7163 81.2223 30.4206 82.2579 30.4206C83.1972 30.4176 84.1191 30.6735 84.9223 31.1604C85.2181 31.3087 85.5146 31.4562 85.6621 31.7527C85.8104 31.901 86.1062 32.0485 86.2545 32.3451C86.9943 33.2332 87.4384 34.4171 87.4384 35.7493C87.7341 36.4891 87.5867 37.0815 87.2901 37.8213Z" fill="#FC0012" stroke="#FC0012" stroke-width="0.3"/>
<path d="M28.0856 31.7527C27.9373 31.6044 27.7898 31.3087 27.6415 31.1604C26.4576 29.9765 24.8297 29.2358 23.0534 29.2358C21.2772 29.2358 19.6492 29.9757 18.4653 31.1604C18.317 31.3087 18.1695 31.6044 18.0213 31.7527C17.873 31.901 17.7255 32.1968 17.5772 32.3451C16.9848 33.3815 16.5408 34.4171 16.5408 35.7493C16.5408 36.4891 16.6891 37.2298 16.9848 37.8213C16.9848 37.9696 17.1331 38.2654 17.1331 38.4137C17.2814 38.562 17.2814 38.8577 17.4289 39.006C18.6128 40.9298 20.5373 42.1145 22.9051 42.1145C25.2729 42.1145 27.3458 40.7823 28.3814 39.006C28.5297 38.8577 28.5297 38.562 28.6771 38.4137C28.8246 38.2654 28.8254 37.9696 28.8254 37.8213C29.1212 37.229 29.2695 36.4891 29.2695 35.7493C29.2695 34.5654 28.9737 33.3815 28.2339 32.3451C28.2339 32.1968 28.2339 32.0493 28.0856 31.7527ZM27.7898 37.8213C27.6415 37.9696 27.6415 38.2654 27.4941 38.4137C27.3466 38.562 27.1983 38.8577 27.05 39.006C26.1619 40.1899 24.6822 41.0781 22.9059 41.0781C21.1297 41.0781 19.7975 40.3382 18.7619 39.006C18.6136 38.8577 18.4661 38.562 18.3178 38.4137C18.1695 38.2654 18.0221 37.9696 18.0221 37.8213C17.7263 37.229 17.578 36.4891 17.578 35.7493C17.578 34.4171 18.0221 33.3815 18.7619 32.3451C18.9102 32.1968 19.0577 31.901 19.3543 31.7527C19.6508 31.6044 19.7983 31.3087 20.0941 31.1604C20.8339 30.7163 21.722 30.4206 22.7585 30.4206C23.7949 30.4206 24.6822 30.7163 25.4228 31.1604C25.7186 31.3087 26.0152 31.4562 26.1627 31.7527C26.311 31.901 26.6067 32.0485 26.755 32.3451C27.4949 33.2332 27.9389 34.4171 27.9389 35.7493C28.2347 36.4891 28.0872 37.0815 27.7906 37.8213H27.7898Z" fill="#FC0012" stroke="#FC0012" stroke-width="0.3"/>
<path d="M52.804 18.8765H49.8438C49.548 18.8765 49.2515 19.1722 49.2515 19.4688C49.2515 19.7654 49.5472 20.0612 49.8438 20.0612H52.804C53.0997 20.0612 53.3963 19.7654 53.3963 19.4688C53.3963 19.1722 53.1006 18.8765 52.804 18.8765Z" fill="#FC0012" stroke="#FC0012" stroke-width="0.3"/>
<path d="M32.2305 18.8765H29.2703C28.9746 18.8765 28.678 19.1722 28.678 19.4688C28.678 19.7654 28.9737 20.0612 29.2703 20.0612H32.2305C32.5263 20.0612 32.8228 19.7654 32.8228 19.4688C32.8228 19.1722 32.5271 18.8765 32.2305 18.8765Z" fill="#FC0012" stroke="#FC0012" stroke-width="0.3"/>
<path d="M64.4955 6.14706C63.1633 4.37081 60.943 3.33521 58.7227 3.33521H22.4602C20.0924 3.33521 18.0196 4.37162 16.5399 6.29535L10.3239 14.5843C9.87981 15.1766 9.87981 15.7682 10.1756 16.3605C10.4713 16.9529 11.0637 17.2486 11.6561 17.2486H69.8242C70.5641 17.2486 71.1556 16.8046 71.4522 16.2122C71.7488 15.6199 71.5997 14.88 71.3039 14.436L64.4955 6.14706ZM11.9518 16.2122C11.6561 16.2122 11.5078 16.0639 11.3595 15.9164C11.2112 15.769 11.2112 15.4724 11.3595 15.3241L17.5755 7.03519C18.7594 5.40723 20.5357 4.5191 22.4602 4.5191H26.9009L23.9407 16.2122H11.9518ZM25.2729 16.2122L28.2331 4.5191H45.4024L46.8829 16.2122H25.2729ZM47.9185 16.2122L46.438 4.5191H58.7227C59.1667 4.5191 59.6108 4.5191 59.9066 4.66739L64.3472 16.2122H47.9185ZM70.4158 15.9164C70.2683 16.0647 70.12 16.2122 69.8242 16.2122H65.6794L61.387 5.11146C62.2752 5.55552 63.015 6.14787 63.6074 6.88771L70.2683 15.3241C70.4158 15.4724 70.5641 15.6199 70.4158 15.9164Z" fill="#FC0012" stroke="#FC0012" stroke-width="0.3"/>
</svg>
