<svg width="40" height="40" viewBox="0 0 40 40" fill="none" xmlns="http://www.w3.org/2000/svg">
<path d="M39.9992 20.0371C39.9993 20.0247 39.9997 20.0123 39.9997 19.9999C39.9997 14.6577 37.9194 9.63533 34.1419 5.85786C30.3644 2.08038 25.342 0 19.9999 0C14.6577 0 9.63533 2.08038 5.85786 5.85786C2.0896 9.62612 0.0106249 14.6333 0.000468747 19.9607V19.9632C0.000390623 19.9754 0 19.9876 0 19.9999C0 25.342 2.0803 30.3644 5.85778 34.1419C9.63268 37.9168 14.6509 39.9968 19.9889 39.9996C19.9928 39.9997 19.9966 40 20.0005 40C20.0025 40 20.0046 39.9997 20.0067 39.9997C25.3463 39.998 30.366 37.9178 34.1419 34.1419C37.9099 30.3738 39.9889 25.3669 39.9992 20.0396C39.9992 20.0388 39.9992 20.0379 39.9992 20.0371V20.0371ZM29.4364 34.9163L27.7173 33.7811C27.1771 33.4246 26.4502 33.5732 26.0936 34.1133C25.737 34.6534 25.8857 35.3803 26.4258 35.737L27.0832 36.1711C25.1205 37.0342 22.9722 37.5499 20.716 37.6404L19.7925 35.7935C19.503 35.2146 18.7991 34.98 18.2202 35.2694C17.6413 35.5589 17.4067 36.2628 17.6961 36.8417L18.0493 37.5479C15.8151 37.3012 13.7055 36.6361 11.8002 35.6327L11.9238 33.5742C11.9627 32.9281 11.4704 32.3729 10.8243 32.3341C10.18 32.2963 9.62307 32.7875 9.58424 33.4336L9.53737 34.2132C7.77425 32.9118 6.2609 31.2912 5.08356 29.4369L6.21856 27.7177C6.57512 27.1775 6.42637 26.4506 5.88622 26.0941C5.34606 25.7375 4.61919 25.8863 4.26263 26.4264L3.82865 27.0837C2.96553 25.121 2.44983 22.9728 2.35928 20.7165L4.20607 19.7929C4.78489 19.5033 5.01942 18.7994 4.72997 18.2206C4.44044 17.6418 3.73662 17.4072 3.15772 17.6967L2.45186 18.0497C2.6985 15.8155 3.36365 13.7058 4.36708 11.8005L6.42551 11.9241C6.44942 11.9256 6.47324 11.9263 6.49692 11.9263C7.11191 11.9263 7.62816 11.4467 7.66558 10.8246C7.70433 10.1785 7.21215 9.62338 6.56613 9.58455L5.78653 9.53768C7.08785 7.77449 8.70862 6.26106 10.5631 5.08364L12.2826 6.21871C12.4814 6.34996 12.7055 6.4127 12.9271 6.4127C13.3076 6.4127 13.6809 6.22762 13.9062 5.88629C14.2627 5.34614 14.1139 4.61927 13.5737 4.26271L12.9164 3.82881C14.8791 2.96569 17.0272 2.45006 19.2832 2.35952L20.2071 4.20646C20.4125 4.617 20.8262 4.85435 21.256 4.85435C21.4322 4.85435 21.611 4.8145 21.7793 4.73029C22.3581 4.44076 22.5928 3.73685 22.3032 3.15803L21.9501 2.45202C24.1845 2.69866 26.2941 3.36381 28.1996 4.3674L28.0762 6.4259C28.0374 7.07199 28.5298 7.62707 29.1758 7.66581C29.1997 7.6673 29.2234 7.66792 29.2471 7.66792C29.8622 7.66792 30.3785 7.18832 30.4158 6.56613L30.4625 5.787C32.2256 7.08832 33.7389 8.70909 34.9163 10.5636L33.7811 12.2827C33.4245 12.8227 33.5732 13.5497 34.1132 13.9063C34.3121 14.0377 34.5362 14.1004 34.7579 14.1004C35.1384 14.1004 35.5115 13.9154 35.7369 13.5741L36.171 12.9167C37.0341 14.8794 37.5497 17.0277 37.6402 19.2838L35.7934 20.2072C35.2145 20.4967 34.9799 21.2006 35.2693 21.7795C35.4746 22.1902 35.8885 22.4276 36.3184 22.4276C36.4945 22.4276 36.6733 22.3878 36.8415 22.3036L37.5477 21.9505C37.301 24.1847 36.6359 26.2944 35.6324 28.1997L33.5736 28.0762C32.9275 28.038 32.3725 28.5298 32.3337 29.1758C32.295 29.8219 32.7873 30.377 33.4333 30.4158L34.2128 30.4625C32.9116 32.2255 31.2908 33.7389 29.4364 34.9163V34.9163Z" fill="#FC0012"/>
<path d="M19.9998 7.53149C13.1247 7.53149 7.53125 13.125 7.53125 20.0002C7.53125 26.8754 13.1247 32.4689 19.9998 32.4689C26.875 32.4689 32.4684 26.8755 32.4684 20.0002C32.4684 13.125 26.875 7.53149 19.9998 7.53149ZM19.9998 22.5939C18.5696 22.5939 17.4061 21.4304 17.4061 20.0002C17.4061 18.57 18.5697 17.4065 19.9998 17.4065C21.4301 17.4065 22.5936 18.5701 22.5936 20.0002C22.5936 21.4304 21.4301 22.5939 19.9998 22.5939ZM9.87499 20.0002C9.87499 18.5753 10.1715 17.2183 10.7051 15.9871L15.2608 18.6173C15.1325 19.0564 15.0623 19.5202 15.0623 20.0002C15.0623 20.4803 15.1325 20.944 15.2608 21.3831L10.7051 24.0133C10.1715 22.7821 9.87499 21.4252 9.87499 20.0002V20.0002ZM24.7388 18.6173L29.2946 15.9871C29.8282 17.2183 30.1247 18.5753 30.1247 20.0002C30.1247 21.4252 29.8282 22.7821 29.2946 24.0133L24.7388 21.3831C24.8672 20.944 24.9373 20.4803 24.9373 20.0002C24.9373 19.5202 24.8672 19.0564 24.7388 18.6173ZM28.12 13.959L23.5644 16.589C22.9244 15.9205 22.0993 15.4311 21.1718 15.2044V9.94343C24.0092 10.272 26.493 11.7778 28.12 13.959V13.959ZM18.828 9.94343V15.2044C17.9004 15.4311 17.0753 15.9204 16.4353 16.589L11.8797 13.959C13.5067 11.7778 15.9905 10.272 18.828 9.94343V9.94343ZM11.8797 26.0415L16.4353 23.4114C17.0753 24.0799 17.9004 24.5693 18.828 24.796V30.057C15.9905 29.7284 13.5067 28.2227 11.8797 26.0415ZM21.1717 30.057V24.796C22.0992 24.5693 22.9244 24.08 23.5644 23.4114L28.12 26.0415C26.493 28.2227 24.0092 29.7284 21.1717 30.057Z" fill="#FC0012"/>
</svg>
