<svg width="119" height="46" viewBox="0 0 119 46" fill="none" xmlns="http://www.w3.org/2000/svg">
<path d="M108.79 16.2458L91.7442 15.5774C90.9084 15.5774 89.906 15.2433 89.2376 14.9091L76.3695 6.21932C70.8546 2.54271 64.5039 0.536865 57.9865 0.536865H16.8764C13.8681 0.536865 11.0274 1.87347 9.18906 4.38008L2.17 13.5716C1.33415 14.5741 1 15.9116 1 17.2482V25.938C1 32.9571 6.68152 38.8062 13.8681 38.8062H15.2047C17.043 42.6494 20.8872 45.4911 25.3987 45.4911C29.9102 45.4911 33.9219 42.8169 35.5927 38.8062H84.391C86.2293 42.6494 90.0726 45.4911 94.585 45.4911C99.0975 45.4911 103.108 42.8169 104.779 38.8062H105.113C112.132 38.8062 117.981 33.1237 117.981 25.938C118.315 20.5907 114.137 16.4124 108.79 16.2458ZM14.8706 37.4695H14.0347C9.52228 37.4695 5.51152 34.7954 3.67322 30.9522H15.0372C14.703 31.9546 14.5355 33.1246 14.5355 34.2946C14.3679 35.2971 14.5355 36.4671 14.8696 37.4695H14.8706ZM34.9244 37.4695C34.7578 37.9712 34.5902 38.3054 34.4227 38.8062C32.7519 41.9811 29.4095 44.1535 25.5653 44.1535C21.7212 44.1535 18.3796 41.9811 16.8755 38.8062C16.7079 38.472 16.5413 37.9703 16.3738 37.4695C16.0396 36.4671 15.7055 35.2971 15.7055 34.1271C15.7055 32.9571 15.873 31.7871 16.3738 30.7846C16.5404 30.2829 16.7079 29.9488 16.8755 29.448C18.5463 26.2731 21.8887 24.1007 25.5653 24.1007C29.4085 24.1007 32.5844 26.2731 34.2551 29.448C34.4227 29.7822 34.5893 30.2839 34.7568 30.7846C35.091 31.7871 35.4251 32.9571 35.4251 34.1271C35.4251 35.2971 35.2585 36.4671 34.9234 37.4695H34.9244ZM84.2235 37.4695H36.2619C36.5961 36.4671 36.7636 35.2971 36.7636 34.1271C36.7636 32.9571 36.5961 31.7871 36.2619 30.7846H84.2244C83.8903 31.7871 83.7237 32.9571 83.7237 34.1271C83.7237 35.2971 83.8903 36.4671 84.2244 37.4695H84.2235ZM104.278 37.4695C104.111 37.9712 103.943 38.3054 103.777 38.8062C102.105 41.9811 98.7633 44.1535 95.0867 44.1535C91.2426 44.1535 87.9001 41.9811 86.2293 38.8062C86.0618 38.472 85.8952 37.9703 85.7276 37.4695C85.3935 36.4671 85.0593 35.2971 85.0593 34.1271C85.0593 32.9571 85.2269 31.7871 85.7276 30.7846C85.8952 30.2829 86.0618 29.9488 86.2293 29.448C87.9001 26.2731 91.2426 24.1007 94.9192 24.1007C98.7633 24.1007 101.938 26.2731 103.609 29.448C103.777 29.7822 103.943 30.2839 104.111 30.7846C104.445 31.7871 104.779 32.9571 104.779 34.1271C104.779 35.2971 104.612 36.4671 104.278 37.4695ZM105.615 37.4695C105.949 36.4671 106.116 35.2971 106.116 34.1271C106.116 32.9571 105.949 31.7871 105.615 30.7846H115.809C113.971 34.6288 110.126 37.302 105.615 37.4695ZM105.113 29.6146C103.275 25.7714 99.4316 22.9297 94.9192 22.9297C90.4067 22.9297 86.3959 25.6039 84.7252 29.6146H35.7602C33.9219 25.7714 30.0787 22.9297 25.5663 22.9297C21.0538 22.9297 17.043 25.6039 15.3723 29.6146H3.00585C2.6717 28.6122 2.50415 27.6097 2.50415 26.4397H5.84661C6.01982 26.4275 6.18281 26.3532 6.3056 26.2304C6.42838 26.1076 6.50271 25.9446 6.51491 25.7714C6.50271 25.5982 6.42838 25.4352 6.3056 25.3124C6.18281 25.1896 6.01982 25.1153 5.84661 25.1031H2.50415V20.9248H5.84661C6.01982 20.9126 6.18281 20.8383 6.3056 20.7155C6.42838 20.5927 6.50271 20.4297 6.51491 20.2565C6.50271 20.0833 6.42838 19.9203 6.3056 19.7975C6.18281 19.6747 6.01982 19.6004 5.84661 19.5882H2.50415V17.2482C2.50522 16.2148 2.85885 15.2127 3.50661 14.4074L10.5257 5.21593C12.0298 3.21008 14.5364 1.87347 17.043 1.87347H58.154C64.5048 1.87347 70.5205 3.71178 75.8688 7.22084L88.7369 15.9107C89.7393 16.4124 90.7418 16.7465 91.9118 16.9131L108.958 17.5814C111.966 17.748 114.473 19.2522 115.81 21.5922H109.292C109.119 21.6044 108.956 21.6787 108.833 21.8015C108.711 21.9243 108.636 22.0873 108.624 22.2605C108.636 22.4337 108.711 22.5967 108.833 22.7195C108.956 22.8423 109.119 22.9166 109.292 22.9288H116.478C116.812 23.9312 117.146 24.9346 117.146 26.1037C117.146 27.4403 116.98 28.6103 116.478 29.7803H105.114V29.6128L105.113 29.6146Z" fill="#FC0012" stroke="#FC0012" stroke-width="0.3"/>
<path d="M56.4833 4.54674L17.3782 4.38013C15.0382 4.38013 13.0333 5.55013 11.6958 7.38843L8.18669 12.5692C7.85254 13.2375 7.685 13.9058 8.01915 14.5741C8.3533 15.2424 9.0216 15.5766 9.68991 15.5766L26.0671 15.9107H26.2346H26.4012L81.8836 17.2473C82.2177 17.2473 82.5519 17.0798 82.5519 16.7456V16.2439L78.3745 12.7349C72.6921 7.55411 64.6705 4.5458 56.4824 4.5458L56.4833 4.54674ZM26.068 14.7407L10.025 14.4066C9.69084 14.4066 9.5233 14.0724 9.5233 14.0724C9.5233 13.9049 9.35669 13.7383 9.5233 13.4041L13.0324 8.22335C14.0348 6.71919 15.7065 5.88335 17.5448 5.88335H29.5771L26.068 14.7407V14.7407ZM27.4046 14.9083L30.9137 5.88428L48.6284 6.05089L50.2992 15.5766L27.4046 14.9083V14.9083ZM51.4692 15.41L49.7984 5.88428H56.3158C64.1698 5.88428 71.8571 8.72504 77.8738 13.7392L80.5479 16.0792L51.4701 15.4109L51.4692 15.41Z" fill="#FC0012" stroke="#FC0012" stroke-width="0.3"/>
<path d="M99.4325 29.6147C98.2625 28.4447 96.7584 27.7764 94.9201 27.7764C93.2493 27.7764 91.5776 28.4447 90.4076 29.6147C90.0734 29.9488 89.7393 30.4505 89.4051 30.9513C88.7455 31.9412 88.3936 33.1042 88.3936 34.2937C88.3936 35.4833 88.7455 36.6463 89.4051 37.6362C89.7393 38.1379 90.0734 38.472 90.4076 38.9728C91.5776 40.1428 93.2493 40.8111 94.9201 40.8111C96.7584 40.8111 98.2625 40.1428 99.4325 38.9728C99.7667 38.6387 100.101 38.137 100.435 37.6362C100.937 36.6337 101.437 35.6313 101.437 34.2937C101.44 33.1051 101.091 31.9422 100.435 30.9513C100.101 30.4496 99.7667 29.9488 99.4325 29.6147ZM98.9308 37.4696C98.4291 37.9713 97.9284 38.472 97.2601 38.8062C96.5917 39.1403 95.7559 39.4745 94.9201 39.4745C94.0842 39.4745 93.2493 39.307 92.5801 38.8062C91.9117 38.472 91.411 37.9703 90.9093 37.4696C90.241 36.6337 89.7393 35.4637 89.7393 34.1271C89.7393 32.7905 90.241 31.7871 90.9093 30.7847C91.411 30.283 91.9117 29.7822 92.5801 29.4481C93.2484 29.1139 94.0842 28.9464 94.9201 28.9464C95.7559 28.9464 96.4242 29.113 97.2601 29.4481C97.9284 29.7822 98.4291 30.2839 98.9308 30.7847C99.7667 31.6205 100.101 32.7905 100.101 34.1271C100.101 35.4637 99.5991 36.6337 98.9308 37.4696Z" fill="#FC0012" stroke="#FC0012" stroke-width="0.3"/>
<path d="M64.0039 20.0898H60.6615C60.4882 20.102 60.3253 20.1764 60.2025 20.2992C60.0797 20.4219 60.0054 20.5849 59.9932 20.7581C60.0054 20.9314 60.0797 21.0944 60.2025 21.2171C60.3253 21.3399 60.4882 21.4143 60.6615 21.4265H64.0039C64.1771 21.4143 64.3401 21.3399 64.4629 21.2171C64.5857 21.0944 64.66 20.9314 64.6722 20.7581C64.66 20.5849 64.5857 20.4219 64.4629 20.2992C64.3401 20.1764 64.1771 20.102 64.0039 20.0898Z" fill="#FC0012" stroke="#FC0012" stroke-width="0.3"/>
<path d="M38.937 20.0898H35.5946C35.4214 20.102 35.2584 20.1764 35.1356 20.2992C35.0128 20.4219 34.9385 20.5849 34.9263 20.7581C34.9385 20.9314 35.0128 21.0944 35.1356 21.2171C35.2584 21.3399 35.4214 21.4143 35.5946 21.4265H38.937C39.1102 21.4143 39.2732 21.3399 39.396 21.2171C39.5188 21.0944 39.5931 20.9314 39.6053 20.7581C39.5931 20.5849 39.5188 20.4219 39.396 20.2992C39.2732 20.1764 39.1102 20.102 38.937 20.0898V20.0898Z" fill="#FC0012" stroke="#FC0012" stroke-width="0.3"/>
<path d="M30.0806 29.6147C28.9106 28.4447 27.4065 27.7764 25.5681 27.7764C23.8974 27.7764 22.2257 28.4447 21.0557 29.6147C20.7215 29.9488 20.3874 30.4505 20.0532 30.9513C19.3849 31.9537 19.0508 33.1237 19.0508 34.2937C19.0508 35.4637 19.3849 36.6337 20.0532 37.6362C20.3874 38.1379 20.7215 38.472 21.0557 38.9728C22.2257 40.1428 23.8965 40.8111 25.5681 40.8111C27.4065 40.8111 28.9106 40.1428 30.0806 38.9728C30.4148 38.6387 30.7489 38.137 31.0831 37.6362C31.5848 36.6337 32.0855 35.6313 32.0855 34.2937C32.0855 33.1237 31.7514 31.9537 31.0831 30.9513C30.7489 30.4496 30.4148 29.9488 30.0806 29.6147ZM29.4123 37.4696C28.9106 37.9713 28.4098 38.472 27.7415 38.8062C27.0732 39.1403 26.2374 39.4745 25.4025 39.4745C24.5676 39.4745 23.7317 39.307 23.0625 38.8062C22.3942 38.472 21.8925 37.9703 21.3917 37.4696C20.6358 36.5193 20.2235 35.3414 20.2217 34.1271C20.2217 32.7905 20.7234 31.7871 21.3917 30.7847C21.8934 30.283 22.3942 29.7822 23.0625 29.4481C23.7308 29.1139 24.5666 28.9464 25.4025 28.9464C26.2383 28.9464 26.9066 29.113 27.7415 29.4481C28.4098 29.7822 28.9115 30.2839 29.4123 30.7847C30.2481 31.6205 30.5823 32.7905 30.5823 34.1271C30.7489 35.4637 30.2481 36.6337 29.4123 37.4696Z" fill="#FC0012" stroke="#FC0012" stroke-width="0.3"/>
</svg>
