<svg width="29" height="28" viewBox="0 0 29 28" fill="none" xmlns="http://www.w3.org/2000/svg">
<path d="M22.736 14.777C19.2759 14.777 16.4703 17.6087 16.4703 21.0989C16.4703 24.5883 19.2759 27.4182 22.736 27.4182C26.1944 27.4182 29 24.5883 29 21.0989C29 17.6086 26.1944 14.777 22.736 14.777ZM23.138 25.771V25.2253C23.138 24.9995 22.9576 24.8171 22.736 24.8171C22.5122 24.8171 22.3322 25 22.3322 25.2253V25.771C20.0889 25.5764 18.297 23.768 18.1041 21.5049H18.6467C18.8683 21.5049 19.0495 21.3228 19.0495 21.0993C19.0495 20.8718 18.8683 20.6919 18.6467 20.6919H18.1041C18.2969 18.428 20.0893 16.6213 22.3322 16.4258V16.9724C22.3322 17.1973 22.5127 17.3798 22.736 17.3798C22.9576 17.3798 23.138 17.1969 23.138 16.9724V16.4258C25.3822 16.6213 27.1742 18.428 27.3662 20.6919H26.8236C26.6007 20.6919 26.4207 20.8722 26.4207 21.0993C26.4207 21.3233 26.6012 21.5049 26.8236 21.5049H27.3662C27.1746 23.7679 25.3822 25.576 23.138 25.771Z" fill="white"/>
<path d="M25.0701 20.4878H23.6168C23.423 20.2059 23.1012 20.0187 22.736 20.0187C22.7304 20.0187 22.7244 20.0204 22.718 20.0204L21.3936 18.1392C21.2008 17.8655 20.8227 17.8019 20.5505 17.9956C20.2792 18.1911 20.2141 18.5734 20.4082 18.848L21.7335 20.73C21.6928 20.8454 21.6667 20.9683 21.6667 21.0993C21.6667 21.6952 22.1446 22.1774 22.736 22.1774C23.1012 22.1774 23.4247 21.9919 23.6168 21.709H25.0701C25.4036 21.709 25.6749 21.4371 25.6749 21.0997C25.6749 20.7607 25.4036 20.4878 25.0701 20.4878Z" fill="white"/>
<path d="M6.02954 8.51733C7.1259 8.51733 8.0131 7.62131 8.0131 6.5164V2.17463C8.0131 1.06929 7.1259 0.173706 6.02954 0.173706C4.93403 0.173706 4.04725 1.06929 4.04725 2.17463V6.51683C4.04725 7.62131 4.93398 8.51733 6.02954 8.51733Z" fill="white"/>
<path d="M18.1761 8.51733C19.2725 8.51733 20.1597 7.62131 20.1597 6.5164V2.17463C20.1597 1.06929 19.2725 0.173706 18.1761 0.173706C17.0815 0.173706 16.1939 1.06929 16.1939 2.17463V6.51683C16.1934 7.62131 17.0815 8.51733 18.1761 8.51733Z" fill="white"/>
<path d="M8.71695 14.0729C8.71695 13.5017 8.2592 13.039 7.69171 13.039H5.79131C5.22515 13.039 4.76527 13.5017 4.76527 14.0729V15.9896C4.76527 16.5617 5.22515 17.0257 5.79131 17.0257H7.69171C8.25873 17.0257 8.71695 16.5617 8.71695 15.9896V14.0729Z" fill="white"/>
<path d="M14.0796 14.0742C14.0796 13.503 13.6205 13.0407 13.0556 13.0407H11.1543C10.5882 13.0407 10.13 13.503 10.13 14.0742V15.9913C10.13 16.5616 10.5881 17.0257 11.1543 17.0257H13.0556C13.621 17.0257 14.0796 16.5616 14.0796 15.9913V14.0742Z" fill="white"/>
<path d="M16.5161 13.039C15.9491 13.039 15.49 13.5017 15.49 14.0729V15.9896C15.49 16.5071 15.8723 16.9154 16.3627 16.9928C17.1144 15.8114 18.1791 14.8548 19.4396 14.2364V14.0729C19.4396 13.5017 18.9814 13.039 18.4144 13.039H16.5161Z" fill="white"/>
<path d="M5.79166 18.2344C5.22549 18.2344 4.76557 18.6966 4.76557 19.2679V21.1853C4.76557 21.7566 5.22549 22.2188 5.79166 22.2188H7.69296C8.25912 22.2188 8.71687 21.7566 8.71687 21.1853V19.2679C8.71687 18.6966 8.25912 18.2344 7.69296 18.2344H5.79166Z" fill="white"/>
<path d="M13.0535 18.2352H11.1539C10.5877 18.2352 10.1296 18.6984 10.1296 19.2697V21.1854C10.1296 21.7566 10.5877 22.2189 11.1539 22.2189H13.0535C13.6188 22.2189 14.0778 21.7566 14.0778 21.1854V19.2697C14.0778 18.6984 13.6188 18.2352 13.0535 18.2352Z" fill="white"/>
<path d="M15.8239 24.1991H6.18259C4.52305 24.1991 3.17252 22.8365 3.17252 21.1638V11.0034H21.0349V13.6621C21.5823 13.535 22.1493 13.4606 22.736 13.4606C23.2392 13.4606 23.7303 13.5129 24.2065 13.6085V4.05234H21.3495V6.51641C21.3495 8.28162 19.9269 9.71738 18.1761 9.71738C16.4261 9.71738 15.0036 8.28167 15.0036 6.51641V4.05234H9.20291V6.51641C9.20291 8.28162 7.77949 9.71738 6.02954 9.71738C4.28039 9.71738 2.85702 8.28167 2.85702 6.51641V4.05234H0V21.1633C0 24.6073 2.76789 27.4014 6.18259 27.4014H18.0236C18.1641 27.4014 18.303 27.3897 18.441 27.3806C17.3035 26.5875 16.3948 25.4869 15.8239 24.1991Z" fill="white"/>
</svg>
