<svg width="10" height="10" viewBox="0 0 10 10" fill="none" xmlns="http://www.w3.org/2000/svg">
<path d="M9.33932 7.4456C8.59873 6.64033 7.64654 6.0315 6.88478 5.24584C6.80015 5.16731 6.73667 5.08872 6.65203 5.01015C7.37149 4.22456 8.13325 3.43893 8.87384 2.65331C9.27588 2.24085 9.76256 1.23918 8.97964 0.866006C8.15441 0.473192 7.3715 1.00349 6.7367 1.47487C6.08075 1.96588 5.46711 2.51582 4.91696 3.0854C4.30332 2.41762 3.66853 1.76948 2.97025 1.16062C2.46235 0.728521 1.10812 -0.46956 0.346399 0.198223C-0.394195 0.807084 0.19828 1.78912 0.769595 2.29977C0.833075 2.3587 0.917714 2.37834 1.00235 2.3587C1.93339 3.04612 2.7163 3.85139 3.47805 4.69594C2.5047 5.87434 1.61599 7.11174 0.642636 8.2509C0.600317 8.29018 0.600317 8.32943 0.600317 8.38835C0.19828 8.66332 -0.0133182 9.29182 0.346399 9.64535C1.02351 10.3132 1.89107 9.92032 2.54702 9.42934C3.58385 8.68299 4.43024 7.6224 5.25548 6.62069C5.89027 7.26883 6.54623 7.87769 7.30798 8.40799C7.92162 8.84009 8.89493 9.48823 9.67788 9.05613C10.4185 8.66332 9.69901 7.81877 9.33932 7.4456ZM3.66849 2.86935C3.66849 2.83007 3.64733 2.79079 3.62617 2.77115C3.54153 2.67295 3.43573 2.5551 3.35109 2.43726V2.41762C3.52037 2.61403 3.68965 2.83007 3.85893 3.02648C3.79542 2.9872 3.73197 2.92828 3.66849 2.86935ZM5.84792 2.9872C5.78444 3.04612 5.74212 3.12468 5.67864 3.1836C5.61516 3.22289 5.53052 3.28181 5.46704 3.32109C5.594 3.20325 5.72096 3.06576 5.84792 2.94792C5.84792 2.96756 5.84792 2.96756 5.84792 2.9872Z" fill="#FFAF60"/>
</svg>
