<svg width="164" height="86" viewBox="0 0 164 86" fill="none" xmlns="http://www.w3.org/2000/svg">
<path opacity="0.7" d="M2.78824 43.5064C5.08812 38.8326 10.0748 38.8 13.9512 39.9689C13.8166 38.724 13.8671 37.2788 13.9031 36.2466C14.2179 32.3303 16.4601 29.308 18.8585 26.9114C24.0326 21.5111 31.9368 19.5134 38.2308 22.8337C38.1755 19.3179 38.6321 16.44 40.6893 13.618C43.2943 10.4018 47.8124 8.49255 51.398 7.79096C55.1686 6.88913 59.5641 8.48953 62.8709 10.672C63.9163 11.3286 64.7767 12.1855 65.4592 13.0361C66.4925 8.93818 67.8455 5.88491 71.4672 4.15107C75.6368 2.02296 80.609 2.40329 84.8339 3.79103C92.0531 6.11015 98.0539 12.7274 99.181 21.2416C100.113 20.0339 101.217 19.0389 102.135 18.2442C105.643 14.6461 110.474 13.988 115.112 13.7365C124.025 13.4277 130.255 18.606 134.22 27.426C137.729 23.8279 143.463 22.7879 147.873 23.9754C148.932 24.2191 149.807 24.6631 150.867 24.9068C156.087 28.3963 160.936 32.2863 161.737 39.9621C162.374 47.2189 160.194 53.5506 155.76 58.1498C153.013 60.3276 149.605 61.0354 146.056 60.7048C146.027 61.5306 145.998 62.3564 145.784 63.3824C144.744 67.6868 140.73 70.4405 137.464 72.1867C130.762 75.4666 119.507 76.5205 114.047 69.7154C114.04 69.9218 114.04 69.9218 113.855 70.1221C112.879 72.5684 111.207 74.577 109.186 76.3668C105.506 79.7522 100.106 81.4239 95.4321 82.7076C86.9872 84.8931 76.6895 78.9526 74.3607 69.1563C73.5485 72.0218 71.15 74.4184 69.1506 75.5888C65.5073 77.942 61.5733 78.4247 57.519 77.2496C52.5828 75.837 47.4063 71.1089 46.3633 65.2848C43.4939 70.9722 35.5056 70.2799 30.9611 67.8475C28.344 66.3092 25.4145 63.5197 24.1144 59.9604C22.4418 61.969 18.3227 62.652 16.5443 62.5899C12.0911 62.6411 7.71006 60.6278 4.63874 56.7999C1.55301 53.3849 0.502802 47.7673 2.78824 43.5064Z" fill="#EAF5FB"/>
</svg>
