<svg width="47" height="47" viewBox="0 0 47 47" fill="none" xmlns="http://www.w3.org/2000/svg">
<g clip-path="url(#clip0)">
<path d="M8.11752 21.7149H4.4843C3.08064 21.7149 1.93848 20.5731 1.93848 19.1694V9.91241C1.93848 8.50875 3.08064 7.36694 4.4843 7.36694H8.11752V8.75551H4.4843C3.84617 8.75551 3.32704 9.27429 3.32704 9.91241V19.1694C3.32704 19.8075 3.84617 20.3263 4.4843 20.3263H8.11752V21.7149Z" fill="#596775"/>
<path d="M3.48929 9.91235H1.77675C1.00981 9.91235 0.388184 10.534 0.388184 11.3009V17.7808C0.388184 18.5477 1.00981 19.1693 1.77675 19.1693H3.48929C4.25623 19.1693 4.87785 18.5477 4.87785 17.7808V11.3009C4.87785 10.534 4.25623 9.91235 3.48929 9.91235Z" fill="#596775"/>
<path d="M38.6653 21.7149H42.2985C43.7022 21.7149 44.8443 20.5731 44.8443 19.1694V9.91241C44.8443 8.50875 43.7022 7.36694 42.2985 7.36694H38.6653V8.75551H42.2985C42.9366 8.75551 43.4558 9.27429 43.4558 9.91241V19.1694C43.4558 19.8075 42.9366 20.3263 42.2985 20.3263H38.6653V21.7149Z" fill="#596775"/>
<path d="M45.0061 9.91235H43.2936C42.527 9.91235 41.905 10.534 41.905 11.3009V17.7808C41.905 18.5477 42.527 19.1693 43.2936 19.1693H45.0061C45.7731 19.1693 46.3947 18.5477 46.3947 17.7808V11.3009C46.3947 10.534 45.7731 9.91235 45.0061 9.91235Z" fill="#596775"/>
<path d="M11.8204 37.5439H9.04324C8.27981 37.5439 7.65503 38.1691 7.65503 38.9325V45.4124C7.65503 46.1761 8.27981 46.8009 9.04324 46.8009H11.8204C12.5842 46.8009 13.2089 46.1761 13.2089 45.4124V38.9325C13.2089 38.1691 12.5842 37.5439 11.8204 37.5439Z" fill="#35404A"/>
<path d="M37.7397 37.5439H34.9625C34.1988 37.5439 33.574 38.1691 33.574 38.9325V45.4124C33.574 46.1761 34.1988 46.8009 34.9625 46.8009H37.7397C38.5031 46.8009 39.1282 46.1761 39.1282 45.4124V38.9325C39.1282 38.1691 38.5031 37.5439 37.7397 37.5439Z" fill="#35404A"/>
<path d="M6.729 5.21557V22.5049L23.3914 25.282L40.0539 22.5049V5.21557C40.0539 3.93301 39.176 2.81472 37.9286 2.51531C28.3732 0.220808 18.4097 0.220808 8.85432 2.51531C7.60721 2.81507 6.729 3.93301 6.729 5.21557Z" fill="#FFB545"/>
<path d="M23.3914 6.20972L9.5061 8.06125V20.1526H37.2774L37.2795 8.06125L23.3914 6.20972Z" fill="#87F8F4"/>
<path d="M34.5024 8.06055L34.5006 17.3754H23.3914V8.06055H20.6143V17.3754H9.5061V20.1526H37.2774L37.2795 8.06125L34.5024 8.06055Z" fill="#00D3D8"/>
<path d="M23.3915 20.7892C23.0083 20.7892 22.6973 20.4786 22.6973 20.0949V8.98676C22.6973 8.60312 23.0083 8.29248 23.3915 8.29248C23.7748 8.29248 24.0858 8.60312 24.0858 8.98676V20.0949C24.0858 20.4786 23.7748 20.7892 23.3915 20.7892Z" fill="#FF983B"/>
<path d="M36.766 5.09597C36.766 5.09597 34.1774 4.46557 30.8772 4.04647C23.7414 3.14159 16.504 3.53401 9.5061 5.21566V8.98683H37.2795L37.2802 5.21566C37.1089 5.17459 36.9376 5.13563 36.766 5.09597Z" fill="#FF983B"/>
<path d="M40.054 20.095H6.72912C5.70665 20.095 4.87793 20.9237 4.87793 21.9465V37.683C4.87793 38.7055 5.70665 39.5345 6.72912 39.5345H23.3916L41.9052 21.9465C41.9052 20.9237 41.0765 20.095 40.054 20.095Z" fill="#FFCF5D"/>
<path d="M40.0538 20.095H37.2774C37.2774 20.7394 37.1436 21.3677 36.8951 21.9465C36.615 22.5994 36.1889 23.1884 35.6368 23.6615L31.7122 27.0255L23.3914 39.5345H40.0538C41.0763 39.5345 41.905 38.7055 41.905 37.683V21.9465C41.905 20.9237 41.0763 20.095 40.0538 20.095Z" fill="#FFB545"/>
<path d="M41.4424 37.6829C41.1212 37.6829 38.7779 37.6829 35.4251 37.6829V27.5004C35.4251 26.4779 34.5964 25.6492 33.5739 25.6492H13.2088C12.1863 25.6492 11.3576 26.4779 11.3576 27.5004V37.6829C8.09327 37.6829 5.77806 37.6829 5.34036 37.6829C4.57693 37.6829 3.95215 38.3077 3.95215 39.0715V39.9971C3.95215 40.7609 4.57693 41.3857 5.34036 41.3857H41.4424C42.2058 41.3857 42.8309 40.7609 42.8309 39.9971V39.0715C42.8309 38.3077 42.2058 37.6829 41.4424 37.6829Z" fill="#596775"/>
<path d="M32.6485 28.426V35.8318H14.1345V28.426H32.6485Z" fill="#35404A"/>
<path d="M16.4489 36.5262C16.0653 36.5262 15.7546 36.2152 15.7546 35.8319V28.4261C15.7546 28.0428 16.0653 27.7322 16.4489 27.7322C16.8322 27.7322 17.1432 28.0428 17.1432 28.4261V35.8319C17.1432 36.2152 16.8322 36.5262 16.4489 36.5262Z" fill="#596775"/>
<path d="M19.2258 36.5262C18.8425 36.5262 18.5315 36.2152 18.5315 35.8319V28.4261C18.5315 28.0428 18.8425 27.7322 19.2258 27.7322C19.6094 27.7322 19.9201 28.0428 19.9201 28.4261V35.8319C19.9201 36.2152 19.6094 36.5262 19.2258 36.5262Z" fill="#596775"/>
<path d="M22.0029 36.5262C21.6196 36.5262 21.3086 36.2152 21.3086 35.8319V28.4261C21.3086 28.0428 21.6196 27.7322 22.0029 27.7322C22.3865 27.7322 22.6972 28.0428 22.6972 28.4261V35.8319C22.6972 36.2152 22.3865 36.5262 22.0029 36.5262Z" fill="#596775"/>
<path d="M24.78 36.5262C24.3967 36.5262 24.0857 36.2152 24.0857 35.8319V28.4261C24.0857 28.0428 24.3967 27.7322 24.78 27.7322C25.1633 27.7322 25.4743 28.0428 25.4743 28.4261V35.8319C25.4743 36.2152 25.1633 36.5262 24.78 36.5262Z" fill="#596775"/>
<path d="M27.5571 36.5262C27.1734 36.5262 26.8628 36.2152 26.8628 35.8319V28.4261C26.8628 28.0428 27.1734 27.7322 27.5571 27.7322C27.9404 27.7322 28.2514 28.0428 28.2514 28.4261V35.8319C28.2514 36.2152 27.9404 36.5262 27.5571 36.5262Z" fill="#596775"/>
<path d="M30.3342 36.5262C29.9505 36.5262 29.6399 36.2152 29.6399 35.8319V28.4261C29.6399 28.0428 29.9505 27.7322 30.3342 27.7322C30.7175 27.7322 31.0281 28.0428 31.0281 28.4261V35.8319C31.0281 36.2152 30.7175 36.5262 30.3342 36.5262Z" fill="#596775"/>
<path d="M10.4318 32.5917C10.4318 33.8697 9.39598 34.9059 8.11762 34.9059C6.83963 34.9059 5.80347 33.8697 5.80347 32.5917C5.80347 31.3137 6.83963 30.2776 8.11762 30.2776C9.39598 30.2776 10.4318 31.3137 10.4318 32.5917Z" fill="#FFF9EB"/>
<path d="M40.9794 32.5917C40.9794 33.8697 39.9432 34.9059 38.6652 34.9059C37.3872 34.9059 36.3511 33.8697 36.3511 32.5917C36.3511 31.3137 37.3872 30.2776 38.6652 30.2776C39.9432 30.2776 40.9794 31.3137 40.9794 32.5917Z" fill="#FFF9EB"/>
</g>
<defs>
<clipPath id="clip0">
<rect width="46.0066" height="46.0066" fill="white" transform="translate(0.388184 0.794434)"/>
</clipPath>
</defs>
</svg>
