<svg width="46" height="47" viewBox="0 0 46 47" fill="none" xmlns="http://www.w3.org/2000/svg">
<g clip-path="url(#clip0)">
<path d="M37.3619 15.1996C37.3619 15.6847 37.3353 16.1702 37.2561 16.6823C37.2561 16.9248 37.2299 17.1403 37.203 17.3832C37.0976 18.1112 36.4362 18.6503 35.6952 18.5152C34.9807 18.4074 34.478 17.7335 34.5841 17.0055C34.6634 16.3857 34.7164 15.7925 34.7164 15.1996C34.7164 14.8223 34.6899 14.4179 34.6634 14.0406C34.3988 11.1561 33.129 8.56814 31.2239 6.62745C29.0807 4.41684 26.0908 3.06899 22.8101 3.06899C18.5503 3.06899 14.8197 5.36033 12.7034 8.81069C11.5655 10.671 10.9041 12.8542 10.9041 15.1996C10.9041 18.3804 12.0947 21.3727 14.2644 23.637C14.767 24.1762 14.767 25.0389 14.2378 25.551C13.7087 26.0635 12.8619 26.0635 12.3593 25.5244C9.71348 22.7476 8.2583 19.0814 8.2583 15.1996C8.2583 12.0996 9.21085 9.21539 10.7983 6.84297C13.4176 2.9342 17.8362 0.373291 22.8101 0.373291C26.8318 0.373291 30.4563 2.04476 33.1021 4.71344C35.7217 7.40913 37.3619 11.102 37.3619 15.1996Z" fill="#7E5D40"/>
<path d="M44.135 29.406L32.917 40.8357C31.3557 42.4261 28.8425 42.3994 27.3078 40.8357C27.3078 40.8357 15.2695 28.5973 15.1372 28.4355C15.1372 28.4355 20.0319 21.9388 22.4396 18.731C23.1803 17.7334 23.6833 17.0595 23.736 16.9788C23.736 16.9788 30.4562 12.342 31.9644 11.2908C32.2025 11.5333 33.2608 12.6116 34.6629 14.0405C35.457 14.8222 36.33 15.7387 37.256 16.6822C40.4044 19.89 43.8174 23.3677 44.135 23.691C45.6694 25.2543 45.6963 27.8153 44.135 29.406Z" fill="#B9DD39"/>
<path d="M1.46746 39.0752C1.15637 39.0752 0.843567 38.9646 0.593114 38.7382C0.0453551 38.2461 -0.00769833 37.3946 0.475294 36.8361C2.73867 34.2208 6.16923 32.7217 9.58118 32.7217C10.3126 32.7217 10.9041 33.3247 10.9041 34.0695C10.9041 34.8144 10.3126 35.4174 9.58118 35.4174C6.9292 35.4174 4.22072 36.5848 2.45963 38.6185C2.19884 38.9211 1.83298 39.0752 1.46746 39.0752Z" fill="#C6E2E7"/>
<path d="M4.11317 46.3798C3.38214 46.3798 2.79028 45.687 2.79028 44.9421C2.79028 41.2264 5.93421 38.113 9.58111 38.113C10.3125 38.113 10.904 38.7161 10.904 39.4609C10.904 40.2057 10.3125 40.8087 9.58111 40.8087C7.39283 40.8087 5.43606 42.7126 5.43606 44.9421C5.43606 45.687 4.84455 46.3798 4.11317 46.3798Z" fill="#C6E2E7"/>
<path d="M29.4245 40.8089H10.9041V35.4175H26.7787L29.4245 40.8089Z" fill="#81A713"/>
<path d="M14.2644 23.6371C14.767 24.1762 14.767 25.039 14.2378 25.5511C13.7087 26.0636 12.8619 26.0636 12.3593 25.5244C9.71348 22.7476 8.2583 19.0814 8.2583 15.1997C8.2583 12.0996 9.21085 9.21544 10.7983 6.84302L12.7034 8.81074C11.5655 10.671 10.9041 12.8543 10.9041 15.1997C10.9041 18.3805 12.0947 21.3728 14.2644 23.6371Z" fill="#684D34"/>
<path d="M38.5258 35.1207L32.917 40.8357C31.3557 42.4261 28.8425 42.399 27.3078 40.8357C27.3078 40.8357 15.2695 28.5969 15.1372 28.4355C15.1372 28.4355 20.0319 21.9388 22.4396 18.731L38.5258 35.1207Z" fill="#A8D32A"/>
<path d="M31.9645 11.2909L23.551 19.8631C19.4235 24.0685 15.2961 28.2738 15.1373 28.4356L12.3327 25.5781C11.8035 25.066 11.8035 24.2036 12.3327 23.6911L27.3078 8.43341C27.8105 7.89427 28.6572 7.89427 29.1599 8.43341L31.9645 11.2909Z" fill="#93BF00"/>
<path d="M23.551 19.863C19.4235 24.0684 15.2961 28.2737 15.1373 28.4355L12.3327 25.578C11.8035 25.0659 11.8035 24.2032 12.3327 23.691L19.8204 16.062L23.551 19.863Z" fill="#81A713"/>
<path d="M13.5499 40.8087L10.173 43.3604C9.29319 43.8083 8.2583 43.1569 8.2583 42.1547V34.0712C8.2583 33.069 9.29319 32.4176 10.173 32.8658L13.5499 35.4173V40.8087Z" fill="#A8D32A"/>
</g>
<defs>
<clipPath id="clip0">
<rect width="45.1546" height="46.0066" fill="white" transform="translate(0.144775 0.373291)"/>
</clipPath>
</defs>
</svg>
