<svg width="46" height="47" viewBox="0 0 46 47" fill="none" xmlns="http://www.w3.org/2000/svg">
<g clip-path="url(#clip0)">
<path d="M24.3608 44.3674H21.4134C20.9577 44.3674 20.5881 43.9909 20.5881 43.5266V29.2322H25.186V43.5267C25.1861 43.9909 24.8166 44.3674 24.3608 44.3674Z" fill="#EE8700"/>
<path d="M25.1861 29.2324H20.5881V35.9955H25.1861V29.2324Z" fill="#CC7400"/>
<path d="M17.9808 1.22125L11.4894 45.3059C11.4038 45.8868 11.8454 46.4094 12.4221 46.4094H14.8065C15.2734 46.4094 15.67 46.0615 15.7392 45.591L22.2306 1.50636C22.3161 0.925348 21.8745 0.402832 21.2978 0.402832H18.9134C18.4466 0.402832 18.05 0.750757 17.9808 1.22125Z" fill="#FF9811"/>
<path d="M27.5835 0.402832H25.1992C24.6225 0.402832 24.1809 0.925348 24.2665 1.50636L30.7579 45.591C30.8271 46.0614 31.2238 46.4094 31.6906 46.4094H34.0749C34.6516 46.4094 35.0932 45.8869 35.0076 45.3059L28.5162 1.22125C28.447 0.750757 28.0504 0.402832 27.5835 0.402832Z" fill="#FF9811"/>
<path d="M29.3449 35.9954H33.6368L32.3577 27.3096H28.0659L29.3449 35.9954Z" fill="#EE8700"/>
<path d="M12.8604 35.9954H17.1522L18.4312 27.3096H14.1393L12.8604 35.9954Z" fill="#EE8700"/>
<path d="M39.3406 31.4157H7.15648C5.59379 31.4157 4.3269 30.125 4.3269 28.5327V7.41983C4.3269 5.82766 5.5937 4.53687 7.15648 4.53687H39.3405C40.9032 4.53687 42.1701 5.82757 42.1701 7.41983V28.5329C42.1701 30.125 40.9033 31.4157 39.3406 31.4157Z" fill="#FFC477"/>
<path d="M15.8785 10.5071C17.7327 8.02923 19.965 6.03028 22.4142 4.53687H7.15648C5.59379 4.53687 4.3269 5.82757 4.3269 7.41982V28.5328C4.3269 30.125 5.59379 31.4158 7.15648 31.4158H12.1776C10.0309 24.6724 11.1691 16.8009 15.8785 10.5071Z" fill="#FFB655"/>
<path d="M7.15647 29.0132C6.89639 29.0132 6.68481 28.7976 6.68481 28.5327V7.41976C6.68481 7.15487 6.8963 6.93921 7.15647 6.93921H39.3405C39.6006 6.93921 39.8122 7.15478 39.8122 7.41976V28.5327C39.8122 28.7976 39.6007 29.0133 39.3405 29.0133H7.15647V29.0132Z" fill="#4E901E"/>
<path d="M15.8785 10.507C16.8728 9.17817 17.9767 7.98846 19.1636 6.93921H7.15647C6.89639 6.93921 6.68481 7.15478 6.68481 7.41976V28.5327C6.68481 28.7976 6.8963 29.0133 7.15647 29.0133H11.5601C10.3448 22.8567 11.7187 16.0663 15.8785 10.507Z" fill="#47821C"/>
<path d="M30.5186 32.5162H15.978C15.4572 32.5162 15.0349 32.086 15.0349 31.5553V27.9907C15.0349 27.46 15.4572 27.0298 15.978 27.0298H30.5187C31.0396 27.0298 31.4618 27.46 31.4618 27.9907V31.5553C31.4618 32.086 31.0396 32.5162 30.5186 32.5162Z" fill="#FFB655"/>
<path d="M19.1637 31.5553V27.9907C19.1637 27.46 19.5859 27.0298 20.1068 27.0298H15.978C15.4572 27.0298 15.0349 27.46 15.0349 27.9907V31.5553C15.0349 32.086 15.4572 32.5162 15.978 32.5162H20.1068C19.5859 32.5162 19.1637 32.086 19.1637 31.5553Z" fill="#FFA733"/>
<path d="M15.2453 17.4212H12.9473C12.6735 17.4212 12.4264 17.2543 12.3197 16.9973C12.213 16.7403 12.2678 16.4433 12.4585 16.2432L13.4401 15.2135C13.4424 15.2111 13.4448 15.2087 13.4471 15.2064C13.9043 14.7366 14.2593 14.0624 14.1494 13.8716C14.1145 13.8109 14.0924 13.8052 14.0747 13.8005C13.9272 13.7619 13.6259 13.8744 13.4737 13.9669C13.1533 14.1681 12.7353 14.0649 12.5381 13.7383C12.3408 13.4118 12.4427 12.983 12.7633 12.782C12.9046 12.6933 13.6484 12.2609 14.4037 12.4529C14.794 12.5521 15.1127 12.7999 15.3253 13.1693C15.9556 14.265 14.9601 15.5712 14.5545 16.0327H15.2453C15.6217 16.0327 15.9266 16.3435 15.9266 16.7269C15.9269 17.1102 15.6217 17.4212 15.2453 17.4212Z" fill="white"/>
<path d="M12.4588 16.2433C12.268 16.4435 12.2132 16.7405 12.32 16.9974C12.3379 17.0406 12.3611 17.0802 12.3864 17.1179C12.5368 16.6761 12.7021 16.2372 12.8801 15.8015L12.4588 16.2433Z" fill="#DCF4CA"/>
<path d="M14.4041 12.4532C13.6488 12.2612 12.9051 12.6936 12.7637 12.7822C12.4433 12.9833 12.3414 13.412 12.5385 13.7386C12.7357 14.065 13.1537 14.1684 13.4742 13.9672C13.5536 13.9188 13.6735 13.8656 13.7911 13.8309C14.0252 13.3804 14.2755 12.9353 14.541 12.4956C14.4964 12.4793 14.4507 12.4651 14.4041 12.4532Z" fill="#DCF4CA"/>
<path d="M24.0583 17.4212H21.7603C21.4865 17.4212 21.2394 17.2543 21.1326 16.9973C21.026 16.7403 21.0808 16.4433 21.2715 16.2432L22.2531 15.2135C22.2554 15.2111 22.2578 15.2087 22.2601 15.2064C22.7173 14.7366 23.0723 14.0624 22.9624 13.8716C22.9275 13.8109 22.9054 13.8052 22.8877 13.8005C22.7402 13.7619 22.4389 13.8744 22.2867 13.9669C21.9663 14.1681 21.5483 14.0649 21.3511 13.7383C21.1538 13.4118 21.2557 12.983 21.5763 12.782C21.7176 12.6933 22.4614 12.2609 23.2166 12.4529C23.607 12.5521 23.9257 12.7999 24.1382 13.1693C24.7686 14.265 23.7731 15.5712 23.3674 16.0327H24.0583C24.4347 16.0327 24.7396 16.3435 24.7396 16.7269C24.7398 17.1102 24.4347 17.4212 24.0583 17.4212Z" fill="white"/>
<path d="M19.6385 14.8756H19.1842V14.4127C19.1842 14.0293 18.8792 13.7185 18.5028 13.7185C18.1264 13.7185 17.8214 14.0293 17.8214 14.4127V14.8756H17.3672C16.9908 14.8756 16.6858 15.1863 16.6858 15.5698C16.6858 15.9533 16.9908 16.2641 17.3672 16.2641H17.8214V16.7269C17.8214 17.1103 18.1264 17.4211 18.5028 17.4211C18.8792 17.4211 19.1842 17.1103 19.1842 16.7269V16.2641H19.6385C20.0148 16.2641 20.3199 15.9533 20.3199 15.5698C20.3199 15.1863 20.0148 14.8756 19.6385 14.8756Z" fill="white"/>
<path d="M28.4963 14.7972H26.7536C26.3772 14.7972 26.0723 14.4863 26.0723 14.1029C26.0723 13.7195 26.3772 13.4087 26.7536 13.4087H28.4963C28.8727 13.4087 29.1777 13.7195 29.1777 14.1029C29.1777 14.4863 28.8727 14.7972 28.4963 14.7972Z" fill="white"/>
<path d="M28.4963 17.0188H26.7536C26.3772 17.0188 26.0723 16.708 26.0723 16.3246C26.0723 15.9412 26.3772 15.6304 26.7536 15.6304H28.4963C28.8727 15.6304 29.1777 15.9412 29.1777 16.3246C29.1778 16.708 28.8727 17.0188 28.4963 17.0188Z" fill="white"/>
<path d="M33.5492 14.4594H33.4315V13.6583C33.4315 13.2749 33.1266 12.9641 32.7502 12.9641C32.3738 12.9641 32.0688 13.2749 32.0688 13.6583V14.4594H31.6413V13.1171C31.6413 12.7337 31.3363 12.4229 30.9599 12.4229C30.5835 12.4229 30.2786 12.7337 30.2786 13.1171V15.1536C30.2786 15.537 30.5835 15.8478 30.9599 15.8478H32.0688V16.7273C32.0688 17.1107 32.3738 17.4215 32.7502 17.4215C33.1266 17.4215 33.4315 17.1107 33.4315 16.7273V15.8478H33.5492C33.9256 15.8478 34.2306 15.537 34.2306 15.1536C34.2306 14.7702 33.9256 14.4594 33.5492 14.4594Z" fill="white"/>
</g>
<defs>
<clipPath id="clip0">
<rect width="45.1546" height="46.0066" fill="white" transform="translate(0.671143 0.402832)"/>
</clipPath>
</defs>
</svg>
