<svg width="31" height="31" viewBox="0 0 31 31" fill="none" xmlns="http://www.w3.org/2000/svg">
<g clip-path="url(#clip0)">
<path d="M29.1212 29.5909V20.6667H28.2958H26.303H24.3103H18.7879H17.3788C16.6006 20.6667 15.9697 20.0358 15.9697 19.2576V17.8485V12.3261V10.3333V8.3406V7.51515H8.92423C8.14603 7.51515 7.51514 8.14605 7.51514 8.92424V19.5668V24.4242V27.2424V28.7772V29.5909C7.51514 30.3691 8.14603 31 8.92423 31H27.7121C28.4903 31 29.1212 30.3691 29.1212 29.5909Z" fill="white"/>
<path d="M22.0758 0.939394H14.9484C14.7548 0.392479 14.2344 0 13.6212 0H11.7424C11.1292 0 10.6089 0.392479 10.4152 0.939394H3.28788C2.50968 0.939394 1.87878 1.57029 1.87878 2.34848V25.8333C1.87878 26.6115 2.50968 27.2424 3.28788 27.2424H4.69697V24.4242V19.5668V3.75758H7.59706C7.79077 4.30449 8.311 4.69697 8.92424 4.69697H16.4394C17.0526 4.69697 17.5729 4.30449 17.7666 3.75758H20.6667V6.24049C20.7055 6.27515 20.7436 6.31085 20.7807 6.34795L22.6595 8.22674L23.4848 9.052V2.34848C23.4848 1.57029 22.8539 0.939394 22.0758 0.939394Z" fill="white"/>
<path d="M20.6666 10.2194L18.7878 8.3406V12.3261V17.8485H24.3103H28.2958L23.4848 13.0376L20.6666 10.2194Z" fill="white"/>
</g>
<defs>
<clipPath id="clip0">
<rect width="31" height="31" fill="white"/>
</clipPath>
</defs>
</svg>
