<svg width="127" height="96" viewBox="0 0 127 96" fill="none" xmlns="http://www.w3.org/2000/svg">
<path opacity="0.7" d="M126.157 40.6817C124.463 44.5421 120.508 44.7099 117.4 43.8707C117.542 44.8778 117.542 46.0527 117.542 46.8919C117.4 50.0809 115.705 52.5985 113.869 54.6126C109.914 59.1444 103.7 60.9906 98.6147 58.473C98.756 61.3263 98.4735 63.6761 96.9198 66.0259C94.9424 68.7114 91.4112 70.3898 88.5863 71.0612C85.6202 71.9004 82.0891 70.7255 79.4054 69.0471C78.558 68.5436 77.8518 67.8722 77.2868 67.2008C76.5806 70.5577 75.5918 73.0753 72.767 74.5859C69.5183 76.4322 65.5635 76.2643 62.1736 75.2573C56.3826 73.5788 51.439 68.3757 50.309 61.4942C49.6028 62.5012 48.7553 63.3404 48.0491 64.0118C45.3655 67.033 41.5519 67.7043 37.8795 68.04C30.8173 68.5436 25.7325 64.5153 22.3426 57.466C19.6589 60.4871 15.1391 61.4942 11.608 60.655C10.7605 60.4871 10.0543 60.1514 9.20683 59.9836C4.96949 57.2981 1.01464 54.2769 0.167174 48.0668C-0.539049 42.1923 1.01464 36.9892 4.40451 33.1288C6.52319 31.2825 9.20683 30.6111 12.0317 30.779C12.0317 30.1076 12.0317 29.4363 12.173 28.597C12.8792 25.0723 15.9866 22.7226 18.529 21.212C23.755 18.3587 32.6535 17.1838 37.1733 22.5547C37.1733 22.3869 37.1733 22.3869 37.3145 22.219C38.0208 20.2049 39.292 18.5265 40.8456 17.0159C43.6705 14.1626 47.9079 12.652 51.5802 11.4771C58.2187 9.46301 66.5522 13.9948 68.6709 21.8834C69.2358 19.5336 71.072 17.5194 72.6257 16.5124C75.4506 14.4983 78.558 13.9948 81.8066 14.834C85.7615 15.841 89.9988 19.5336 90.9875 24.2331C93.1062 19.5336 99.4622 19.8692 103.135 21.7155C105.253 22.8904 107.654 25.0724 108.784 27.9257C110.056 26.2473 113.304 25.5759 114.717 25.5759C118.248 25.408 121.779 26.9186 124.321 29.9398C126.864 32.6253 127.852 37.157 126.157 40.6817Z" fill="#EAF5FB"/>
<g filter="url(#filter0_d)">
<path d="M62.2134 52.449C74.1902 52.449 83.8994 43.1739 83.8994 31.7326C83.8994 20.2913 74.1902 11.0163 62.2134 11.0163C50.2365 11.0163 40.5273 20.2913 40.5273 31.7326C40.5273 43.1739 50.2365 52.449 62.2134 52.449Z" fill="#FDF0DA"/>
<path d="M80.1685 22.7256C80.1685 22.7256 84.3814 34.2962 78.3038 43.0262C72.7096 50.9247 60.071 53.0726 52.0596 50.024C52.0596 50.024 73.3312 58.5461 80.9282 43.9962C87.2821 31.8713 80.1685 22.7256 80.1685 22.7256Z" fill="#E2D2BE"/>
<path d="M50.542 67.6917C50.542 67.6917 51.4398 74.4817 56.0671 77.946C60.6944 81.4102 64.2857 82.6574 64.2857 82.6574L67.7389 76.3524L72.9186 76.8374L77.7531 66.0289C77.7531 66.0289 71.8827 66.306 69.1201 64.7125C69.1201 64.7817 67.5317 67.3453 50.542 67.6917Z" fill="#FDB842"/>
<path d="M54.1318 51.2019C54.1318 51.2019 52.129 51.964 51.2312 54.4583C50.3333 56.8833 49.9189 64.7125 49.9189 64.7125L50.4715 67.8303C50.4715 67.8303 55.7894 68.1768 55.8584 68.1075C55.9966 67.9689 65.5964 66.3754 65.5964 66.3754L71.3287 63.5347L69.0496 60.0704L66.4942 57.0218L64.6295 53.1419C64.6295 53.1419 60.2094 53.419 58.5519 52.7261C56.8944 52.0333 54.1318 51.2019 54.1318 51.2019Z" fill="#86CECA"/>
<path d="M53.8563 51.6175C53.8563 51.6175 51.5772 61.1789 56.9642 64.2274C62.2821 67.276 70.0863 61.5253 70.0863 61.5253L71.3985 63.4653C71.3985 63.4653 66.2878 67.1374 57.7239 67.8303C52.9585 68.246 50.5413 67.761 50.5413 67.761C50.5413 67.761 47.6406 55.3589 53.8563 51.6175Z" fill="#659B98"/>
<path d="M50.9551 68.5925C50.9551 68.5925 54.6845 76.4911 61.1765 77.3225C65.1131 77.8075 67.8066 76.3525 67.8066 76.3525L64.3534 82.6574C64.3534 82.6574 60.2096 81.7567 56.1349 77.946C51.991 74.2046 50.9551 68.5925 50.9551 68.5925Z" fill="#BE8A32"/>
<path d="M76.095 79.401C76.095 79.401 74.7137 87.7845 79.1338 87.2995C83.5538 86.8145 78.2359 79.0546 78.2359 79.0546L76.095 79.401Z" fill="#86CECA"/>
<path d="M85.2797 64.2275C85.2797 64.2275 84.52 68.9389 84.7272 70.9482C84.9344 72.8881 86.3847 74.2738 88.0423 73.9967C89.6307 73.7196 90.8048 69.5624 88.802 67.5532C86.8682 65.5439 85.2797 64.2275 85.2797 64.2275Z" fill="#86CECA"/>
<path d="M56.0665 51.7561C56.0665 51.7561 55.9974 55.2204 59.865 55.6361C63.6635 56.0518 64.2851 52.934 64.2851 52.934C64.2851 52.934 59.6578 53.5576 56.0665 51.7561Z" fill="#FDF0DA"/>
<path d="M58.3455 0.2771C58.3455 0.2771 52.6133 2.28637 54.7542 7.75991C54.7542 7.75991 49.5054 10.1849 44.9472 6.23564C44.9472 6.23564 43.5659 8.10634 44.0494 9.07634C44.0494 9.07634 41.494 9.07634 41.2177 7.75991C41.2177 7.75991 40.389 10.5313 41.2177 12.0556C41.2177 12.0556 40.389 13.7185 38.7314 12.7485C38.7314 12.7485 40.5271 17.5291 47.986 16.9749C55.4449 16.4206 57.3787 13.857 57.3787 13.857C57.3787 13.857 59.0362 22.1713 71.1914 23.6263C71.1914 23.6263 70.8461 22.2405 70.8461 21.2013C70.8461 21.2013 78.9956 26.1205 85.1423 23.1413C85.1423 23.1413 81.8963 22.102 80.7913 21.0627C80.7913 21.0627 85.1423 20.0234 86.4545 16.6977C86.4545 16.6977 81.4128 14.827 79.7553 12.1942C79.7553 12.1942 68.0145 13.3027 62.6275 7.3442C62.6275 7.3442 62.0059 3.87994 64.1469 2.49423C64.1469 2.49423 59.8649 2.07852 58.4146 3.87994C58.4146 3.87994 57.2405 2.49423 58.3455 0.2771Z" fill="#FDB842"/>
<path d="M41.6324 23.6956C41.6324 25.1506 40.3202 26.3977 38.7317 26.3977C37.1433 26.3977 35.8311 25.2198 35.8311 23.6956C35.8311 22.1713 37.1433 20.9934 38.7317 20.9934C40.3202 20.9934 41.6324 22.2406 41.6324 23.6956Z" fill="#FDF0DA"/>
<path d="M88.9413 33.0491C88.9413 34.4348 87.8363 35.5434 86.455 35.5434C85.0738 35.5434 83.9688 34.4348 83.9688 33.0491C83.9688 31.6634 85.0738 30.5548 86.455 30.5548C87.8363 30.4855 88.9413 31.6634 88.9413 33.0491Z" fill="#FDF0DA"/>
<path d="M41.4933 9.35352C41.3552 9.4228 41.2861 9.56137 41.2171 9.69994C41.148 9.83851 41.2171 10.0464 41.2861 10.1157C41.5624 10.5314 41.9077 10.9471 42.253 11.2935C42.3912 11.4321 42.5984 11.5706 42.7365 11.7092C42.8746 11.7785 42.9437 11.8478 43.0818 11.9171C43.2199 11.9864 43.3581 12.0556 43.4962 12.1249C44.0487 12.4021 44.5321 12.6099 45.0847 12.8178C46.1897 13.1642 47.2947 13.4414 48.3997 13.5799C48.8832 13.6492 49.3666 13.7185 49.8501 13.7185C50.0572 13.7185 50.3335 13.7185 50.5407 13.7185C50.886 13.7185 51.1623 13.6492 51.5076 13.5799C51.6457 13.5799 51.7838 13.5106 51.922 13.4414C52.1292 13.3721 52.3363 13.3028 52.4745 13.2335C52.7507 13.1642 52.9579 13.0256 53.2342 12.9564C53.7176 12.7485 54.132 12.5406 54.5464 12.2635C54.6845 12.1942 54.7536 12.1249 54.7536 11.9864C54.7536 11.8478 54.7536 11.7092 54.6845 11.6399C54.5464 11.4321 54.2701 11.3628 54.0629 11.5014C53.7176 11.7092 53.3723 11.8478 53.027 11.9864C52.3363 12.2635 51.5766 12.5406 50.8169 12.6792C50.1263 12.7485 49.4357 12.6792 48.8141 12.6099C48.4688 12.5406 48.1925 12.5406 47.8472 12.4714C47.4328 12.4021 47.0184 12.2635 46.6731 12.1942C45.9825 11.9864 45.3609 11.7785 44.7393 11.5706C44.2559 11.3628 43.8415 11.1549 43.4271 10.8085C43.1509 10.6007 42.9437 10.3928 42.7365 10.1157C42.5984 9.97708 42.5293 9.83851 42.3912 9.63066C42.3221 9.49209 42.184 9.4228 42.0458 9.35352C41.9768 9.35352 41.9768 9.35352 41.9077 9.35352C41.7005 9.28423 41.5624 9.35352 41.4933 9.35352Z" fill="#1C1C1C"/>
<path d="M62.4195 10.7392C62.2814 10.7392 62.2123 10.8778 62.1433 10.9471C62.0742 11.0857 62.0742 11.155 62.0742 11.2935C62.1433 11.64 62.2123 11.9171 62.2814 12.2635C62.4195 12.8871 62.6958 13.4414 63.0411 13.9957C63.3864 14.5499 63.8699 15.0349 64.3533 15.5199C64.5605 15.7278 64.8368 15.9356 65.044 16.0742C65.2512 16.2128 65.3893 16.3514 65.5965 16.4899C65.7346 16.6285 65.9418 16.7671 66.0799 16.8364C66.2871 16.9749 66.5634 17.1828 66.7706 17.3214C66.9777 17.4599 67.1849 17.5985 67.3921 17.7371C68.9806 18.7763 70.6381 19.6771 72.2957 20.5085C72.71 20.7163 73.1935 20.9935 73.6079 21.2013C73.9532 21.4092 74.2985 21.5478 74.7129 21.7556C74.9891 21.8942 75.2654 22.0328 75.4726 22.102C75.6798 22.1713 75.8179 22.2406 76.0251 22.3792C76.2323 22.4485 76.4395 22.587 76.7157 22.6563C76.8539 22.7256 76.992 22.7949 77.1301 22.7949C77.1992 22.8642 77.3373 22.8642 77.4064 22.9335C77.6826 23.0027 77.9589 23.1413 78.1661 23.1413C78.3733 23.2106 78.5114 23.2106 78.7186 23.2799C78.8567 23.2799 78.9948 23.3492 79.133 23.3492C79.2711 23.3492 79.4092 23.4185 79.5474 23.4185C79.6855 23.4185 79.8236 23.4877 79.9617 23.4877C80.1689 23.4877 80.3761 23.4877 80.5142 23.4877C80.7214 23.4877 80.9977 23.4877 81.2049 23.4185C81.4121 23.4185 81.5502 23.3492 81.7574 23.2799C81.9646 23.2106 82.1027 23.0028 82.0336 22.7949C81.9646 22.587 81.7574 22.5178 81.5502 22.5178C81.4811 22.5178 81.4121 22.5178 81.343 22.587C80.9286 22.6563 80.4452 22.587 80.0308 22.5178C79.7545 22.4485 79.5474 22.4485 79.2711 22.3792C78.9948 22.3099 78.6495 22.2406 78.3733 22.1713C78.097 22.102 77.8898 22.0328 77.6136 21.8942C77.4754 21.8249 77.3373 21.8249 77.1992 21.7556C77.0611 21.6863 76.9229 21.6863 76.7848 21.617C76.3704 21.4092 76.0251 21.2706 75.6107 21.0628C75.1273 20.8549 74.7129 20.5778 74.2294 20.3699C73.4697 19.9542 72.71 19.5385 71.9503 19.1228C70.2928 18.2221 68.6353 17.3214 67.0468 16.2821C66.8396 16.1435 66.5634 15.9356 66.3562 15.7971C66.149 15.6585 65.9418 15.4506 65.6655 15.3121C65.4583 15.1735 65.2512 14.9657 65.044 14.8271C64.6296 14.4807 64.2152 14.0649 63.8699 13.6492C63.5936 13.3028 63.3864 12.8871 63.1792 12.5407C63.0411 12.2635 62.972 11.9171 62.903 11.5707C62.8339 11.3628 62.8339 11.155 62.7649 10.9471C62.7649 10.8085 62.6267 10.7392 62.5577 10.67C62.4886 10.6007 62.4195 10.6007 62.3505 10.6007C62.5577 10.67 62.4886 10.67 62.4195 10.7392ZM63.4555 12.6792C63.4555 12.6792 63.4555 12.7485 63.4555 12.6792C63.4555 12.7485 63.4555 12.6792 63.4555 12.6792Z" fill="#1C1C1C"/>
<path d="M57.6551 0.0692853C57.3789 0.207856 57.1717 0.415712 56.8954 0.623568C56.481 0.900709 56.2048 1.38571 55.9976 1.80142C55.8595 2.07856 55.7213 2.42499 55.6523 2.70213C55.5832 2.8407 55.5832 3.04855 55.5141 3.25641C55.4451 3.46427 55.4451 3.67212 55.376 3.87998C55.307 4.36497 55.307 4.84997 55.376 5.33497C55.4451 5.81997 55.7213 6.30496 55.9976 6.72068C56.2048 6.99782 56.412 7.27496 56.6192 7.5521C56.7573 7.69067 57.0335 7.75996 57.1717 7.62139C57.3098 7.5521 57.3789 7.48281 57.3789 7.34424C57.3789 7.20567 57.3789 7.0671 57.3098 6.99782C57.0335 6.65139 56.7573 6.23568 56.5501 5.81997C56.5501 5.54283 56.481 5.26568 56.481 4.98854C56.481 4.7114 56.481 4.36498 56.481 4.08783C56.481 4.01855 56.481 3.87998 56.5501 3.81069C56.5501 3.81069 56.5501 3.81069 56.5501 3.87998C56.6192 3.67212 56.6192 3.39498 56.6882 3.18712C56.7573 2.90998 56.8264 2.70213 56.9645 2.42499C57.1026 2.14785 57.1717 1.93999 57.3789 1.73213C57.517 1.59356 57.5861 1.52428 57.7242 1.38571C57.9314 1.24714 58.0695 1.10857 58.2767 1.03928C58.4148 0.969994 58.4839 0.900709 58.4839 0.762139C58.4839 0.623568 58.4839 0.484997 58.4148 0.415712C58.2767 0.0692853 58.0695 0 57.9314 0C57.8623 0 57.7242 0 57.6551 0.0692853Z" fill="#1C1C1C"/>
<path d="M61.7995 3.04861C61.5924 3.1179 61.3161 3.1179 61.1089 3.25647C60.8327 3.32576 60.6255 3.46433 60.4183 3.6029C60.0039 3.88004 59.7276 4.29575 59.3823 4.64218C59.3133 4.85003 59.1751 5.05789 59.1061 5.26575C58.9679 5.4736 58.8989 5.75074 58.8298 5.9586C58.7607 6.23574 58.7607 6.4436 58.7607 6.72074C58.7607 6.99788 58.8298 7.20573 58.9679 7.48288C59.037 7.69073 59.2442 7.8293 59.4514 7.76002C59.6586 7.69073 59.7276 7.48288 59.7276 7.27502C59.6586 7.13645 59.6586 6.92859 59.5895 6.79002C59.5895 6.65145 59.5895 6.58217 59.5895 6.4436C59.6586 6.23574 59.6586 6.09717 59.7276 5.88931C59.8658 5.54289 60.073 5.19646 60.2801 4.91932C60.4873 4.71146 60.6945 4.43432 60.9017 4.29575C61.0398 4.22647 61.178 4.08789 61.3161 4.01861C61.5233 3.94932 61.7305 3.88004 62.0067 3.81075C62.2139 3.74147 62.3521 3.53361 62.283 3.32576C62.2139 3.1179 62.0758 3.04861 61.9377 3.04861C61.7995 3.04861 61.7995 3.04861 61.7995 3.04861Z" fill="#1C1C1C"/>
<path d="M60.0036 27.3677C59.5892 27.5063 59.2439 27.7141 58.8985 28.0606C58.6223 28.3377 58.346 28.6149 58.0698 28.9613C58.0007 29.0999 57.9316 29.1691 57.9316 29.3077C57.9316 29.4463 58.0007 29.5849 58.0698 29.7234C58.1388 29.7927 58.277 29.862 58.4151 29.862C58.5532 29.862 58.6913 29.7927 58.8295 29.7234C59.1748 29.377 59.451 28.9613 59.8654 28.6841C60.0036 28.6149 60.1417 28.5456 60.2798 28.4763C60.487 28.407 60.6942 28.3377 60.9014 28.3377C61.2467 28.3377 61.523 28.3377 61.8683 28.407C62.1445 28.4763 62.3517 28.5456 62.628 28.6149C62.7661 28.6841 62.9733 28.8227 63.1114 28.892C63.2495 29.0306 63.4567 29.1691 63.5949 29.377C63.6639 29.4463 63.733 29.5156 63.8711 29.6541C63.9402 29.7234 64.0093 29.7927 64.0783 29.7927C64.1474 29.862 64.2164 29.9313 64.3546 30.0006C64.4927 30.0698 64.6308 30.0698 64.769 30.0698C64.9761 30.0698 65.1833 29.9313 65.2524 29.7234C65.3215 29.4463 65.1833 29.1691 64.9071 29.0999C64.769 28.9613 64.6308 28.8227 64.4927 28.6841C64.3546 28.5456 64.2164 28.407 64.0783 28.3377C63.8021 28.1299 63.5949 27.922 63.2495 27.7834C62.7661 27.5063 62.2136 27.437 61.6611 27.3677C61.523 27.3677 61.3848 27.3677 61.3158 27.3677C60.7633 27.2292 60.3489 27.2292 60.0036 27.3677Z" fill="#1C1C1C"/>
<path d="M79.4098 49.6776C78.7883 49.7469 78.2358 49.8162 77.6142 49.8854C77.0617 49.9547 76.5782 50.0933 76.0257 50.1626C75.4732 50.3011 74.9207 50.4397 74.3682 50.5783C73.8157 50.7169 73.3322 50.7861 72.7797 50.9247C71.6747 51.2019 70.6388 51.479 69.5337 51.8254C68.8431 52.0333 68.2215 52.2411 67.5309 52.449C67.2546 52.5183 67.1165 52.7954 67.1856 53.0033C67.2546 53.2804 67.5309 53.419 67.7381 53.3497C68.774 53.0033 69.8791 52.6568 70.915 52.3797C72.02 52.1026 73.056 51.8254 74.161 51.5483C74.9898 51.3404 75.7495 51.1326 76.5782 50.994C77.3379 50.7861 78.1667 50.7169 78.9264 50.6476C79.9624 50.5783 81.0674 50.509 82.1033 50.509C83.2084 50.509 84.3824 50.5783 85.4875 50.5783C86.04 50.5783 86.6615 50.6476 87.2141 50.7169C87.4903 50.7861 87.7666 50.8554 87.9738 50.9247C88.25 50.994 88.5263 51.1326 88.8025 51.2019C89.0097 51.2711 89.286 51.2019 89.4241 50.994C89.5622 50.7861 89.4932 50.3704 89.286 50.2319C89.0097 50.0933 88.7335 49.9547 88.3881 49.8162C88.1119 49.7469 87.8356 49.6776 87.4903 49.6083C86.9378 49.539 86.4544 49.4697 85.9018 49.4697C84.7968 49.4697 83.6227 49.4697 82.5177 49.4697C82.4487 49.4697 82.4487 49.4697 82.3796 49.4697C81.4818 49.539 80.4458 49.6083 79.4098 49.6776Z" fill="#1C1C1C"/>
<path d="M91.4964 47.8761C91.2201 47.8761 90.8748 47.8761 90.5986 47.9454C90.0461 48.0147 89.4936 48.1533 88.941 48.2919C88.5957 48.3611 88.3885 48.7076 88.5267 48.9847C88.5957 49.3311 88.941 49.4697 89.2173 49.4004C89.8389 49.2619 90.3914 49.1233 91.013 49.054C91.2202 49.054 91.3583 49.054 91.5655 48.9847C91.8417 48.9847 92.0489 48.9154 92.3252 48.9154C92.3942 48.9154 92.4633 48.8461 92.5324 48.7769C92.6014 48.7076 92.6705 48.569 92.6705 48.4304C92.6705 48.2226 92.5324 48.0147 92.3252 47.9454C92.0489 47.8761 91.7727 47.8069 91.4964 47.8069C91.5655 47.8761 91.5655 47.8761 91.4964 47.8761Z" fill="#1C1C1C"/>
<path d="M90.3219 49.8854C90.1838 49.9547 90.0456 50.024 89.9766 50.1626C89.9075 50.3011 89.8384 50.4397 89.9075 50.6476C89.9766 50.7861 90.0456 50.9247 90.1838 50.994C90.3219 51.0633 90.5291 51.1326 90.6672 51.0633C90.9435 50.994 91.1507 50.9247 91.4269 50.8554C91.6341 50.7861 91.8413 50.7861 92.0485 50.7169C92.3247 50.7169 92.601 50.7169 92.8082 50.7169C93.0154 50.7861 93.2916 50.8554 93.4988 50.9247C93.637 50.994 93.7751 50.994 93.9132 50.9247C94.0513 50.8554 94.1895 50.7169 94.1895 50.509C94.1895 50.024 93.706 49.7469 93.2916 49.6083C93.0154 49.4697 92.6701 49.4697 92.3247 49.4697H92.2557C91.565 49.539 90.9435 49.6776 90.3219 49.8854Z" fill="#1C1C1C"/>
<path d="M90.5994 51.2019C90.4613 51.2019 90.3232 51.2019 90.185 51.2712C90.116 51.2712 90.0469 51.2712 90.0469 51.2712C89.9088 51.2712 89.8397 51.3404 89.7707 51.4097C89.6325 51.5483 89.5635 51.6869 89.5635 51.8254C89.5635 51.964 89.6325 52.1719 89.7016 52.2412C89.7707 52.3797 89.9779 52.449 90.116 52.449C90.4613 52.449 90.8066 52.3797 91.1519 52.449C91.3591 52.5183 91.4973 52.5183 91.7045 52.6569C92.1188 52.8647 92.5332 53.1419 92.8785 53.419C93.0857 53.5576 93.362 53.4883 93.5692 53.3497C93.7764 53.1419 93.7764 52.7954 93.5692 52.5876C93.362 52.3797 93.1548 52.1719 92.9476 52.0333C92.7404 51.8947 92.6023 51.7562 92.3951 51.6869C92.1188 51.5483 91.8426 51.4097 91.4973 51.3404C91.2901 51.2712 91.0829 51.2712 90.8066 51.2712C90.7376 51.2019 90.6685 51.2019 90.5994 51.2019Z" fill="#1C1C1C"/>
<path d="M36.7986 45.5898C36.7295 45.7283 36.7295 45.7976 36.7295 45.9362C36.7295 46.0748 36.7986 46.1441 36.9367 46.2133C37.0057 46.2133 37.0748 46.2826 37.1439 46.2826C37.2129 46.2826 37.282 46.2826 37.3511 46.2826C37.4201 46.2826 37.4892 46.2826 37.5583 46.2826C37.6273 46.2826 37.7654 46.2826 37.8345 46.2826C37.9726 46.2826 38.1108 46.2826 38.318 46.2826C38.6633 46.2826 38.9395 46.3519 39.2158 46.4212C39.1467 46.4212 39.1467 46.4212 39.0777 46.4212C39.1467 46.4212 39.1467 46.4212 39.2158 46.4212H39.2849C39.3539 46.4212 39.3539 46.4212 39.423 46.4212C39.5611 46.4212 39.6302 46.4905 39.7683 46.4905C40.2517 46.5598 40.6661 46.6983 41.0805 46.8369C41.564 46.9755 41.9783 47.1141 42.4618 47.3219C42.8762 47.4605 43.3596 47.6683 43.774 47.8762C44.2574 48.084 44.7409 48.3612 45.1553 48.6383C45.6387 48.9155 46.1222 49.2619 46.5365 49.6083C46.8128 49.8162 47.0891 50.0933 47.2962 50.3012C47.5725 50.5783 47.7797 50.7862 47.9869 51.0633C48.1941 51.4097 48.4013 51.6869 48.6085 52.0333C48.7466 52.2412 49.0228 52.3797 49.2991 52.2412C49.5063 52.1026 49.6444 51.8255 49.5063 51.5483C49.23 51.0633 48.9538 50.5783 48.5394 50.0933C48.1941 49.6776 47.8488 49.3312 47.5034 48.9848C47.2962 48.7769 47.02 48.569 46.8128 48.4305C46.6056 48.2919 46.3984 48.1533 46.1912 48.0148C45.984 47.8762 45.7768 47.7376 45.5697 47.599C45.3625 47.4605 45.1553 47.3219 44.9481 47.2526C44.6718 47.114 44.3956 46.9755 44.1193 46.9062C43.9121 46.7676 43.6359 46.6983 43.4287 46.6291C42.9452 46.4212 42.4618 46.2826 41.9783 46.1441C41.4949 46.0055 41.0114 45.8669 40.528 45.7283C40.1827 45.6591 39.8374 45.5898 39.492 45.5205C39.492 45.5205 39.492 45.5205 39.423 45.5205C39.2849 45.5205 39.1467 45.4512 39.0086 45.4512C38.7323 45.3819 38.5251 45.3819 38.2489 45.3126C38.1108 45.3126 37.9726 45.3126 37.9036 45.2433C37.8345 45.2433 37.7654 45.2433 37.6964 45.2433C37.6273 45.2433 37.6273 45.2433 37.5583 45.2433C37.4892 45.2433 37.4892 45.2433 37.4201 45.2433C37.3511 45.2433 37.3511 45.2433 37.282 45.2433C37.0748 45.3126 36.9367 45.4512 36.7986 45.5898Z" fill="#1C1C1C"/>
<path d="M34.3112 46.0747C34.104 46.0747 33.8968 46.144 33.6896 46.144C33.4824 46.2133 33.3443 46.2133 33.2061 46.2826C33.1371 46.3519 32.9989 46.4212 32.8608 46.4212C32.7918 46.4905 32.6536 46.5597 32.5846 46.5597C32.5155 46.629 32.3774 46.6983 32.3774 46.8369C32.3083 46.9755 32.3774 47.0447 32.3774 47.1833C32.5155 47.3912 32.7918 47.4605 32.9989 47.3912C33.2752 47.2526 33.5515 47.114 33.7586 46.9755C33.9658 46.9062 34.104 46.8369 34.3112 46.8369C34.5184 46.7676 34.6565 46.7676 34.8637 46.7676C35.0018 46.7676 35.0709 46.7676 35.209 46.7676C35.3471 46.7676 35.4852 46.7676 35.6234 46.7676C35.8306 46.7676 35.9687 46.8369 36.1759 46.9062C36.4521 46.9755 36.6593 47.0447 36.9356 47.114C37.0046 47.114 37.2118 47.0447 37.2809 46.8369C37.2809 46.6983 37.2118 46.4905 37.0737 46.4212C36.7284 46.3519 36.3831 46.2133 35.9687 46.144C35.7615 46.0747 35.5543 46.0747 35.3471 46.0055C35.1399 46.0055 35.0018 46.0055 34.7946 46.0055C34.7946 46.0055 34.7946 46.0055 34.7255 46.0055C34.6565 46.0055 34.4493 46.0747 34.3112 46.0747Z" fill="#1C1C1C"/>
<path d="M53.0968 51.3404C52.8896 51.479 52.7515 51.5483 52.5443 51.6868C52.3371 51.8254 52.199 51.964 52.0608 52.1025C51.8536 52.2411 51.7155 52.449 51.5774 52.6568C51.4393 52.8647 51.3702 53.0725 51.2321 53.2804C51.163 53.419 51.0939 53.6268 50.9558 53.8347C50.6796 54.4582 50.4033 55.0818 50.1961 55.7054C49.7817 57.0218 49.5745 58.4075 49.4364 59.7932C49.2983 61.1096 49.2292 62.4261 49.1602 63.6732C49.1602 64.366 49.1602 65.0589 49.2292 65.7518C49.2983 66.0982 49.2983 66.3753 49.3673 66.7217C49.4364 67.1375 49.5055 67.6225 49.7127 67.9689C49.9199 68.3846 50.4033 68.5925 50.8867 68.5925C51.0249 68.5925 51.163 68.5925 51.3702 68.5925C51.7155 68.5925 51.9918 68.5925 52.3371 68.5925C52.9587 68.5925 53.6493 68.6617 54.2709 68.6617C54.9615 68.6617 55.6521 68.5925 56.3428 68.4539C56.9644 68.3153 57.655 68.1767 58.2766 68.1075C58.9672 67.9689 59.5888 67.8303 60.2794 67.6917C60.9701 67.5532 61.5916 67.4839 62.2132 67.276C62.8348 67.1375 63.4564 66.9989 64.0779 66.8603C64.7686 66.7217 65.4592 66.6525 66.1498 66.5139C66.8405 66.3753 67.462 66.1675 68.1527 65.9596C68.498 65.821 68.7743 65.6825 69.1196 65.5439C69.3958 65.4053 69.6721 65.2668 69.9483 65.0589C70.2246 64.851 70.5009 64.7125 70.7771 64.5046C71.0534 64.366 71.3296 64.1582 71.6059 63.9503C71.8131 63.7425 71.9512 63.5346 71.9512 63.2575C71.9512 62.9803 71.8131 62.7725 71.6749 62.5646C71.4677 62.2875 71.3296 61.9411 71.1224 61.6639C70.8462 61.3175 70.5699 60.9018 70.2937 60.5554C69.9483 60.2089 69.6721 59.7932 69.3268 59.4468C69.0505 59.1004 68.7052 58.8232 68.4289 58.4768C68.1527 58.1304 67.8074 57.7839 67.5311 57.3682C67.393 57.1604 67.1858 56.8832 67.0477 56.6754C66.9095 56.3982 66.7714 56.0518 66.6333 55.7747C66.5642 55.4975 66.4261 55.2897 66.357 55.0125C66.288 54.874 66.288 54.8047 66.2189 54.6661C66.1498 54.5968 66.1498 54.5275 66.0808 54.4582C65.9426 54.3197 65.8736 54.1811 65.6664 54.0425C65.5283 53.9732 65.4592 53.904 65.252 53.8347C65.1139 53.8347 64.9758 53.904 64.8376 53.9732C64.6304 54.1811 64.6304 54.5275 64.8376 54.7354C64.9067 54.8047 64.9758 54.874 64.9758 54.874C65.1829 55.1511 65.252 55.4282 65.3901 55.7747C65.5283 56.0518 65.6664 56.3982 65.8045 56.6754C66.0808 57.2989 66.4952 57.8532 66.9095 58.3382C67.3239 58.8232 67.7383 59.3775 68.2218 59.8625C68.6361 60.3475 69.1196 60.9018 69.534 61.3868C69.8102 61.7332 70.0865 62.0796 70.3627 62.4261C70.4318 62.5646 70.5699 62.7032 70.639 62.8418C70.708 62.9803 70.8462 63.1189 70.9152 63.1882C70.7771 63.2575 70.639 63.3268 70.5009 63.3961C70.2246 63.5346 70.0174 63.6732 69.7411 63.8118C69.1886 64.0889 68.7052 64.366 68.1527 64.5739C67.6002 64.7818 66.9786 64.9896 66.357 65.1282C65.7355 65.2668 65.0448 65.336 64.4232 65.4053C63.8017 65.4746 63.111 65.6132 62.4895 65.7518C61.7988 65.8903 61.1082 66.0289 60.4175 66.0982C60.0032 66.1675 59.5888 66.2367 59.1744 66.306C58.691 66.3753 58.2766 66.4446 57.7931 66.5832C56.9644 66.7217 56.1356 66.9296 55.2378 66.9989C54.8924 66.9989 54.5471 67.0682 54.2018 66.9989C53.8565 66.9989 53.4421 66.9989 53.0968 66.9296C52.7515 66.9296 52.3371 66.9296 51.9918 66.9296C51.7846 66.9296 51.6465 66.9296 51.4393 66.9296C51.3011 66.9296 51.163 66.9296 50.9558 66.9296C50.8867 66.6525 50.8177 66.306 50.7486 66.0289C50.6796 65.6825 50.6105 65.4053 50.6105 65.0589C50.6105 64.7818 50.5414 64.5046 50.5414 64.2968C50.5414 63.9503 50.5414 63.6732 50.5414 63.3268C50.5414 62.7032 50.6105 62.0796 50.6105 61.4561C50.6105 60.8325 50.6796 60.1396 50.7486 59.5161C50.8177 58.8925 50.8867 58.2689 50.9558 57.6454C51.0939 56.9525 51.2321 56.2597 51.4393 55.6361C51.6465 54.9432 51.9227 54.3197 52.199 53.6961C52.3371 53.419 52.4752 53.1418 52.6824 52.934C52.8205 52.7954 52.9587 52.6568 53.0968 52.5875C53.304 52.449 53.4421 52.3797 53.6493 52.2411C53.9256 52.1025 54.0637 51.7561 53.8565 51.4097C53.7874 51.4097 53.5802 51.2711 53.373 51.2711C53.304 51.2711 53.1659 51.3404 53.0968 51.3404Z" fill="#1C1C1C"/>
<path d="M55.7891 52.1718C55.5128 52.2411 55.3056 52.5183 55.3747 52.7954C55.4438 53.1418 55.5819 53.4883 55.72 53.8347C55.9272 54.2504 56.2035 54.5968 56.5488 54.9433C57.0322 55.359 57.5848 55.5668 58.1373 55.7747C58.6898 55.9825 59.2423 56.1211 59.7948 56.1904C60.071 56.2597 60.3473 56.2597 60.6236 56.329C61.0379 56.3982 61.4523 56.329 61.8667 56.1904C62.4192 56.0518 62.9027 55.7054 63.317 55.2897C63.5242 55.0818 63.6624 54.874 63.8696 54.6661C63.9386 54.5968 64.0077 54.4583 64.0767 54.389C64.1458 54.2504 64.2149 54.1118 64.2839 53.9733C64.353 53.7654 64.2839 53.4883 64.0767 53.3497C63.8005 53.2111 63.5242 53.2804 63.3861 53.4883C63.317 53.5575 63.248 53.6961 63.1789 53.7654C62.9027 54.1118 62.5573 54.4583 62.143 54.8047C62.0048 54.874 61.8667 55.0125 61.6595 55.0818C61.5214 55.1511 61.3142 55.1511 61.1761 55.2204C60.8998 55.2204 60.6236 55.2204 60.3473 55.1511C60.1401 55.1511 59.8639 55.0818 59.6567 55.0818C59.0351 54.9433 58.4826 54.8047 57.861 54.5275C57.7229 54.4583 57.5848 54.389 57.5157 54.3197C57.3776 54.2504 57.3085 54.1811 57.2394 54.1118C57.1013 53.9733 56.9632 53.904 56.8941 53.7654C56.8251 53.6268 56.756 53.5575 56.6869 53.419C56.6179 53.1418 56.5488 52.8647 56.4797 52.6568C56.4107 52.449 56.2035 52.2411 55.9963 52.2411C55.8582 52.1718 55.8582 52.1718 55.7891 52.1718Z" fill="#1C1C1C"/>
<path d="M49.9189 67.3453C49.9189 67.761 49.988 68.1767 50.0571 68.5925C50.1261 69.0082 50.1952 69.3546 50.2643 69.7703C50.3333 70.1167 50.4024 70.4632 50.5405 70.8789C50.6786 71.2946 50.8168 71.7103 50.9549 72.126C51.2312 72.8189 51.5765 73.5117 51.9909 74.1353C52.4052 74.8281 52.8887 75.4517 53.4412 76.0753C53.9246 76.6988 54.4081 77.3224 54.9606 77.8767C55.5131 78.431 56.1347 79.0545 56.7563 79.5395C57.3778 80.0245 57.9303 80.4402 58.621 80.856C59.2425 81.2717 59.9332 81.6874 60.6238 82.0338C61.3835 82.3802 62.0742 82.7267 62.8339 83.0038C63.1792 83.1424 63.5245 83.2117 63.8698 83.2809C64.2842 83.3502 64.6986 83.4195 65.0439 83.2117C65.3202 83.0038 65.5273 82.7267 65.6655 82.3802C66.0108 81.6874 66.3561 80.9945 66.7014 80.3017C67.0468 79.6088 67.4611 78.8467 67.8065 78.0845C67.9446 77.7381 68.0827 77.3917 68.2208 77.0453C68.359 76.6988 68.1518 76.3524 67.8065 76.2831C67.6683 76.2138 67.4611 76.2831 67.323 76.3524C67.1849 76.4217 67.1158 76.5603 67.0468 76.6988C66.9777 76.9067 66.9086 77.0453 66.8396 77.2531C66.4942 78.0845 66.0108 78.8467 65.5964 79.6088C65.3892 80.0245 65.182 80.371 64.9748 80.7867C64.7676 81.1331 64.6295 81.4795 64.4223 81.7567C64.2842 81.7567 64.1461 81.6874 64.077 81.6181C63.8698 81.5488 63.6626 81.4795 63.4554 81.4102C63.1101 81.2717 62.7648 81.1331 62.3504 80.9945C61.936 80.7867 61.5217 80.5788 61.1073 80.371C60.6238 80.0938 60.2094 79.8167 59.7951 79.5395C59.3807 79.2624 58.9663 79.0545 58.621 78.7774C58.2066 78.5003 57.8613 78.2231 57.4469 77.8767C56.6872 77.2531 55.9966 76.5603 55.3059 75.8674C54.6153 75.1053 53.9937 74.2738 53.3031 73.4424C53.0268 73.096 52.8196 72.7496 52.6124 72.3339C52.4052 71.9182 52.2671 71.5717 52.0599 71.156C51.8527 70.671 51.7146 70.1167 51.6455 69.6317C51.5074 69.0775 51.3693 68.5232 51.3002 67.9689C51.3002 67.761 51.3002 67.5532 51.2312 67.3453C51.2312 67.1375 51.1621 66.9989 51.024 66.8603C50.8858 66.7218 50.7477 66.6525 50.5405 66.6525C50.2643 66.7218 49.9189 66.9989 49.9189 67.3453Z" fill="#1C1C1C"/>
<path d="M69.1194 64.2275C68.9813 64.2275 68.8431 64.3661 68.7741 64.4353C68.6359 64.6432 68.705 64.9896 68.9122 65.1282C69.5338 65.4746 70.2244 65.7518 70.915 65.9596C71.6057 66.1675 72.2963 66.3753 72.987 66.4446C73.3323 66.5139 73.7467 66.5832 74.092 66.5832C74.4373 66.6525 74.7135 66.6525 75.0589 66.6525C75.6804 66.6525 76.302 66.6525 76.9236 66.6525C76.4401 67.6917 75.9567 68.731 75.5423 69.8396C75.2661 70.4632 74.9898 71.156 74.7135 71.7796C74.4373 72.4031 74.161 73.0267 73.8848 73.6503C73.6776 74.1353 73.4704 74.6203 73.2632 75.036C73.1251 75.3824 72.987 75.7288 72.9179 76.0753C72.5035 76.006 72.0891 75.9367 71.7438 75.9367C71.2604 75.8674 70.7769 75.7981 70.2935 75.7288C69.5338 75.5903 68.7741 75.4517 68.0834 75.1053C67.7381 74.9667 67.4619 74.7588 67.1856 74.6203C66.7712 74.4124 66.4259 74.1353 66.0115 73.9274C65.6662 73.7196 65.2518 73.5117 64.9065 73.3039C64.4921 73.096 64.0777 72.8881 63.7324 72.6803C63.5252 72.611 63.3871 72.5417 63.1799 72.611C62.9727 72.6803 62.8346 72.7496 62.6965 72.9574C62.5583 73.096 62.5583 73.3731 62.6274 73.5117C62.6965 73.7196 62.7655 73.8581 62.9727 73.9967C63.5943 74.3431 64.2159 74.6203 64.9065 74.9667C65.5281 75.3131 66.1496 75.6596 66.7712 76.0753C67.3928 76.4217 68.0144 76.7681 68.705 76.9067C69.3956 77.1145 70.0863 77.2531 70.846 77.3917C71.1913 77.461 71.4676 77.461 71.8129 77.5303C72.0891 77.5303 72.4344 77.5995 72.7107 77.5995C72.8488 77.5995 72.987 77.5995 73.1251 77.5995C73.2632 77.5995 73.3323 77.5995 73.4704 77.5995C73.6776 77.5995 73.8157 77.461 73.9538 77.3917C74.092 77.2531 74.161 77.0453 74.2301 76.9067C74.2301 76.8374 74.2992 76.7681 74.2992 76.6988C74.3682 76.5603 74.3682 76.3524 74.4373 76.2138C74.6445 75.5903 74.8517 74.9667 75.1279 74.4124C75.4042 73.7889 75.6804 73.1653 75.9567 72.5417C76.4401 71.4332 76.8545 70.2553 77.338 69.0775C77.5452 68.5232 77.8214 67.9689 78.0286 67.4146C78.1667 67.1375 78.3049 66.791 78.3739 66.4446C78.443 66.2368 78.443 66.0982 78.3049 65.8903C78.1667 65.6825 78.0286 65.6132 77.7523 65.5439C77.6142 65.5439 77.407 65.5439 77.1998 65.6132C76.5092 65.6825 75.8876 65.6132 75.197 65.6132C74.5064 65.6132 73.8157 65.4746 73.1251 65.4053C71.951 65.1975 70.7769 64.851 69.6719 64.3661C69.6719 64.3661 69.6028 64.3661 69.6028 64.2968C69.5338 64.2275 69.3956 64.2275 69.3266 64.2275C69.1884 64.2275 69.1194 64.2275 69.1194 64.2275Z" fill="#1C1C1C"/>
<path d="M90.3902 69.8396C90.3212 69.5625 90.2521 69.216 90.114 68.9389C89.9758 68.5925 89.8377 68.3153 89.6996 68.0382C89.4233 67.4146 89.1471 66.791 88.6636 66.306C88.3183 65.821 87.8349 65.4053 87.4895 64.9203C87.3514 64.6432 87.1442 64.4353 87.0061 64.1582C86.937 64.0196 86.868 63.9503 86.7298 63.8811C86.5917 63.7425 86.3845 63.6039 86.1773 63.5346C85.9701 63.4653 85.7629 63.3961 85.5558 63.3961C85.4176 63.3961 85.3486 63.3961 85.2795 63.4653C85.1414 63.5346 85.0032 63.6732 85.0032 63.8118C84.9342 63.8118 84.9342 63.8118 84.8651 63.8811C84.727 63.9503 84.6579 64.0889 84.5198 64.2275C84.4507 64.2968 84.3817 64.3661 84.3817 64.4353C84.2435 64.5739 84.1745 64.7125 84.0364 64.851C83.5529 65.4053 83.0695 65.821 82.586 66.306C82.1026 66.791 81.5501 67.276 80.9975 67.6917C80.8594 67.8303 80.6522 67.8996 80.5141 67.9689C80.376 68.0382 80.2378 68.1075 80.0997 68.1767C79.8925 68.246 79.6163 68.3153 79.34 68.3846C79.1328 68.4539 78.9256 68.4539 78.7184 68.4539C78.3041 68.4539 77.8897 68.4539 77.4753 68.5232C77.199 68.5232 76.8537 68.5925 76.5775 68.5925C76.5775 68.6617 76.5775 68.731 76.5084 68.8003C76.3703 69.0775 76.2321 69.4239 76.1631 69.7703C76.4393 69.7703 76.7156 69.701 76.9918 69.701C77.2681 69.701 77.6134 69.701 77.8897 69.6317C78.5113 69.6317 79.1328 69.5624 79.7544 69.3546C80.0997 69.2853 80.445 69.1467 80.7213 69.0082C80.9975 68.8696 81.2738 68.731 81.481 68.5232C82.0335 68.1075 82.517 67.6917 83.0004 67.276C83.4148 66.9296 83.8292 66.5139 84.1745 66.1675L84.2435 66.0982C84.1745 66.6525 84.1745 67.276 84.1745 67.8996C84.1745 68.5232 84.1745 69.1467 84.2435 69.7703C84.2435 70.3939 84.3126 71.0174 84.4507 71.641C84.5198 71.9874 84.6579 72.2646 84.7961 72.5417C84.8651 72.6803 84.9342 72.8189 85.0032 72.8881C85.0723 73.0267 85.2104 73.2346 85.3486 73.3039C85.5558 73.5117 85.832 73.7889 86.1083 73.9274C86.3845 74.1353 86.7298 74.2739 87.0752 74.3431C87.3514 74.4124 87.6277 74.4817 87.9039 74.4817C88.2492 74.4817 88.5946 74.3431 88.9399 74.2046C89.2852 74.066 89.5615 73.8581 89.7686 73.581C90.2521 73.0267 90.4593 72.3339 90.5974 71.641C90.6665 71.2946 90.6665 71.0174 90.6665 70.671C90.5283 70.4632 90.4593 70.1167 90.3902 69.8396ZM89.4233 71.7103C89.3543 71.9874 89.2852 72.1953 89.2161 72.4724C89.1471 72.611 89.0089 72.8189 88.9399 72.9574C88.8708 73.096 88.7327 73.1653 88.5946 73.2346C88.4564 73.3039 88.3183 73.3731 88.1802 73.4424C88.0421 73.5117 87.973 73.5117 87.8349 73.5117C87.7658 73.5117 87.6967 73.5117 87.5586 73.5117C87.2823 73.4424 87.0752 73.3731 86.868 73.2346C86.6608 73.096 86.4536 73.0267 86.3155 72.8881C86.1773 72.7496 86.1083 72.6803 85.9701 72.5417C85.9011 72.4724 85.832 72.4031 85.832 72.2646C85.7629 72.1953 85.6939 72.0567 85.6939 71.9182C85.5558 71.5024 85.4867 71.0867 85.4176 70.671C85.3486 70.1167 85.3486 69.6317 85.3486 69.0775C85.3486 68.5232 85.3486 67.9689 85.4176 67.4146C85.4867 66.8603 85.4867 66.306 85.5558 65.7518C85.5558 65.4746 85.6248 65.1975 85.6939 64.9203C85.6939 64.851 85.6939 64.7818 85.7629 64.7125C85.9011 64.851 86.0392 65.0589 86.1773 65.2668C86.3155 65.4746 86.4536 65.6132 86.5917 65.821C86.7298 66.0289 86.937 66.1675 87.0752 66.3753C87.2133 66.5139 87.4205 66.7218 87.5586 66.8603C87.6967 66.9989 87.8349 67.2068 88.042 67.4146C88.3183 67.761 88.5255 68.1767 88.7327 68.5232C88.9399 68.9389 89.1471 69.3546 89.2852 69.7703C89.4233 70.186 89.4924 70.5324 89.5615 70.9482C89.5615 71.0867 89.5615 71.156 89.5615 71.2946C89.4233 71.3639 89.4233 71.5024 89.4233 71.7103Z" fill="#1C1C1C"/>
<path d="M81.1361 83.6274C81.1361 83.4888 81.0671 83.281 81.0671 83.1424C80.998 82.796 80.8599 82.4495 80.7218 82.1724C80.5146 81.5488 80.1692 80.9946 79.8239 80.4403C79.6167 80.0938 79.3405 79.6781 79.0642 79.3317C78.788 78.9853 78.4426 78.6389 78.0283 78.3617C77.9592 78.2924 77.8211 78.2231 77.6829 78.2231C77.5448 78.2231 77.3376 78.2924 77.1995 78.431C76.9232 78.6389 76.9232 79.1239 77.1995 79.401C77.4758 79.6781 77.8211 79.9553 78.0283 80.3017C78.2355 80.5788 78.5117 80.856 78.7189 81.1331C79.1333 81.6874 79.4786 82.311 79.7549 82.9345C79.893 83.281 79.9621 83.6967 80.0311 84.0431C80.0311 84.3895 80.0311 84.6667 80.0311 85.0131C79.9621 85.2902 79.893 85.5674 79.7549 85.7752C79.6858 85.9138 79.5477 86.1217 79.4786 86.2602C79.4095 86.3295 79.3405 86.3988 79.2024 86.5374C79.1333 86.6067 79.0642 86.6067 78.9952 86.676C78.857 86.7452 78.7189 86.7452 78.5808 86.7452C78.4426 86.7452 78.3736 86.7452 78.2355 86.7452C78.1664 86.7452 78.0973 86.676 78.0283 86.676C77.9592 86.6067 77.8211 86.5374 77.752 86.4681C77.6139 86.3295 77.4758 86.191 77.3376 86.0524C77.1304 85.706 76.9232 85.2902 76.7851 84.9438C76.7161 84.736 76.647 84.5281 76.5779 84.251C76.5089 83.9738 76.5089 83.766 76.5089 83.4888C76.4398 83.0038 76.3707 82.4495 76.4398 81.9646C76.4398 81.4103 76.5089 80.856 76.5779 80.371C76.647 80.1631 76.647 79.9553 76.7161 79.6781C76.7161 79.5396 76.7161 79.401 76.647 79.2624C76.5779 79.1239 76.4398 78.9853 76.3017 78.9853C76.2326 78.9853 76.1635 78.9853 76.1635 78.9853C76.0945 78.9853 76.0254 78.9853 75.9564 78.9853C75.8873 78.9853 75.8182 79.0546 75.7492 79.0546C75.4729 79.1239 75.2657 79.1931 74.9895 79.3317C74.6441 79.4703 74.2988 79.5396 74.0226 79.6089C73.401 79.7474 72.7104 79.8167 72.0197 79.886C71.6744 79.886 71.3291 79.9553 70.9838 79.9553C70.6384 79.9553 70.2931 79.886 69.9478 79.8167C69.5334 79.7474 69.119 79.6089 68.7047 79.5396C68.2903 79.4703 67.8759 79.3317 67.4615 79.1931C67.1162 79.1239 66.8399 79.0546 66.4946 78.9853V79.0546C66.3565 79.401 66.0802 79.6781 65.873 79.9553C65.9421 79.9553 66.0112 79.9553 66.0802 79.9553C66.6327 80.0938 67.1853 80.2324 67.6687 80.371C67.945 80.4403 68.2212 80.5096 68.4975 80.5788C68.7737 80.6481 69.119 80.7174 69.3953 80.7867C69.7406 80.856 70.155 80.9253 70.5003 80.9946C70.7766 81.0638 71.1219 81.0638 71.3981 81.0638C71.7435 81.0638 72.0888 80.9946 72.4341 80.9946C72.7104 80.9946 73.0557 80.9253 73.3319 80.9253C73.6082 80.856 73.8154 80.856 74.0916 80.7867C74.3679 80.7174 74.6441 80.6481 74.8513 80.5788C75.0585 80.5096 75.2657 80.4403 75.4038 80.371C75.4038 80.4403 75.4038 80.5096 75.4038 80.5788C75.3348 80.856 75.3348 81.2024 75.2657 81.4796C75.1967 82.1031 75.2657 82.7267 75.2657 83.3503C75.3348 83.9738 75.3348 84.6667 75.611 85.2902C75.7492 85.6367 75.8182 85.9138 76.0254 86.191C76.1635 86.5374 76.3707 86.8145 76.647 87.0917C76.7851 87.2302 76.9232 87.3688 77.0614 87.5074C77.1995 87.6459 77.4067 87.7152 77.5448 87.7845C77.752 87.8538 77.9592 87.9231 78.2355 87.9231C78.4426 87.9231 78.6498 87.9231 78.857 87.9231C78.9261 87.9231 78.9952 87.9231 79.0642 87.8538C79.2023 87.7845 79.3405 87.7845 79.4786 87.7152C79.6858 87.6459 79.8239 87.5074 79.9621 87.4381C80.1692 87.2302 80.3764 87.0224 80.5146 86.7452C80.6527 86.6067 80.7218 86.3988 80.7908 86.2602C80.998 85.8445 81.1361 85.3595 81.1361 84.8745C81.2743 84.4588 81.2052 84.0431 81.1361 83.6274Z" fill="#1C1C1C"/>
<path d="M46.9498 14.9657C40.665 22.3792 38.1787 31.1784 41.9772 40.3241C44.8088 47.1141 50.8864 51.479 58 52.8647C65.666 54.389 72.7796 53.2112 78.5809 47.5991C84.5895 41.7791 86.7305 30.0006 81.5507 23.0028C81.0672 22.3792 80.0313 23.0028 80.5147 23.6263C86.178 31.2477 82.5176 43.0262 75.6803 48.4305C70.5005 52.5876 63.9394 52.934 57.6546 51.5483C51.9223 50.3012 46.8116 46.9755 43.98 41.7791C39.0765 32.8413 41.3556 23.2799 47.7785 15.7278C48.331 15.2428 47.4332 14.3421 46.9498 14.9657Z" fill="#1C1C1C"/>
<path d="M71.1232 27.8527C71.8829 27.437 72.8498 27.5755 73.5404 28.1991C74.0929 28.7534 74.9217 27.922 74.3692 27.3677C73.3332 26.3284 71.8138 26.1205 70.5707 26.8134C69.88 27.2291 70.5016 28.2684 71.1232 27.8527Z" fill="#1C1C1C"/>
<path d="M49.3669 25.2891C49.8504 25.1506 50.3338 25.012 50.8173 25.012C51.3698 25.0813 51.7842 25.4277 52.1295 25.7741C52.682 26.2591 53.5798 25.4277 52.9582 24.9427C52.4057 24.4577 51.8532 24.042 51.1626 23.9034C50.4719 23.7648 49.7122 23.9727 49.0216 24.1806C48.331 24.3884 48.6072 25.497 49.3669 25.2891Z" fill="#1C1C1C"/>
<path d="M79.0646 33.4648C79.0646 34.7119 78.0287 35.6819 76.8546 35.6819C75.6805 35.6819 74.6445 34.6426 74.6445 33.4648C74.6445 32.2176 75.6805 31.2477 76.8546 31.2477C78.0287 31.2477 79.0646 32.2176 79.0646 33.4648Z" fill="#F7B7C9"/>
<path d="M52.0597 29.5848C52.0597 30.8319 51.0238 31.8019 49.8497 31.8019C48.6065 31.8019 47.6396 30.7627 47.6396 29.5848C47.6396 28.3377 48.6756 27.3677 49.8497 27.3677C51.0928 27.3677 52.0597 28.3377 52.0597 29.5848Z" fill="#F7B7C9"/>
<path d="M58.4141 11.0163C59.1047 16.767 64.1464 20.2313 68.9118 22.3791C69.6024 22.7256 70.224 21.6863 69.5333 21.3399C65.1823 19.3999 60.2788 16.282 59.5881 11.0163C59.5191 10.2542 58.345 10.2542 58.4141 11.0163Z" fill="#1C1C1C"/>
<path d="M64.2154 9.0071C67.7376 12.9564 73.539 13.9956 78.5116 13.2335C79.2713 13.0949 78.9259 11.9864 78.1662 12.0557C73.539 12.8178 68.2211 11.7785 64.9751 8.17568C64.5607 7.55211 63.7319 8.38354 64.2154 9.0071Z" fill="#1C1C1C"/>
<path d="M55.0313 12.7485C50.1278 15.4506 44.4645 15.3813 39.561 12.6099C38.8704 12.2635 38.3178 13.2335 38.9394 13.6492C44.1883 16.6285 50.2659 16.6977 55.5838 13.7878C56.2744 13.4413 55.6529 12.402 55.0313 12.7485Z" fill="#1C1C1C"/>
<path d="M43.7037 7.13638C46.0519 10.9471 51.7842 11.5013 55.2374 9.14565C55.8589 8.72994 55.3064 7.69066 54.6158 8.10637C51.7151 10.0464 46.6735 9.76922 44.6706 6.51281C44.3253 5.88924 43.2893 6.51281 43.7037 7.13638Z" fill="#1C1C1C"/>
<path d="M63.6641 10.7393C68.7057 17.0442 77.4078 18.0142 85.0048 17.8756C85.7645 17.8756 85.7645 16.6978 85.0048 16.6978C77.7531 16.8364 69.3964 16.0049 64.5619 9.90783C64.0785 9.35355 63.1806 10.185 63.6641 10.7393Z" fill="#1C1C1C"/>
<path d="M84.5207 31.6634C85.7638 30.6934 88.7336 31.1784 88.1811 33.2569C88.0429 33.8805 87.6286 34.5733 87.007 34.7119C86.2473 34.8505 85.1423 34.6426 84.3826 34.2962C83.6919 33.9498 83.0704 34.989 83.761 35.3355C84.7969 35.8898 86.7307 36.3055 87.8357 35.6819C88.7336 35.1969 89.3551 33.9498 89.4242 32.9798C89.4933 31.7326 88.5264 30.6934 87.4904 30.2084C86.1782 29.5848 84.7969 29.9312 83.6919 30.8319C83.1394 31.3169 83.9682 32.1483 84.5207 31.6634Z" fill="#1C1C1C"/>
<path d="M42.8744 22.8642C41.7694 21.8249 40.3881 20.7163 38.7997 20.8549C37.4875 20.9242 36.3134 21.8249 35.968 23.072C35.6227 24.4577 36.2443 25.6356 37.4184 26.3284C38.04 26.7441 38.7997 27.0906 39.4903 27.2984C40.3191 27.5063 40.7334 27.1599 41.4931 27.0213C42.2528 26.8827 41.9075 25.7742 41.1478 25.8434C40.6644 25.9127 40.3191 26.1899 39.7666 26.1206C39.3522 26.0513 38.9378 25.7742 38.5925 25.6356C37.6946 25.1506 36.7968 24.527 37.0731 23.3492C37.3493 22.2406 38.5925 21.8249 39.6284 22.102C40.5953 22.3099 41.355 23.072 42.0457 23.6956C42.5982 24.2499 43.4269 23.4184 42.8744 22.8642Z" fill="#1C1C1C"/>
<path d="M31.7559 44.6891C32.9991 44.4812 34.3113 44.8969 35.3473 45.5898C35.9688 46.0055 36.5904 44.9662 35.9688 44.5505C34.7257 43.6498 32.9991 43.3034 31.4797 43.5112C30.6509 43.6498 30.9962 44.8276 31.7559 44.6891Z" fill="#1C1C1C"/>
<path d="M32.0323 42.264C33.4827 41.7098 35.3474 42.8876 36.3833 43.8576C36.9358 44.4119 37.7646 43.5112 37.2121 43.0262C35.8999 41.779 33.5517 40.3933 31.687 41.1555C30.9964 41.3633 31.3417 42.5412 32.0323 42.264Z" fill="#1C1C1C"/>
<path d="M49.3672 31.5248C49.6434 46.2826 71.3295 49.1926 76.233 35.4741C76.5092 34.7812 75.3352 34.4348 75.0589 35.1277C70.6388 47.4604 50.8175 44.8969 50.5413 31.4555C50.5413 30.7627 49.3672 30.7627 49.3672 31.5248Z" fill="#1C1C1C"/>
</g>
<defs>
<filter id="filter0_d" x="27" y="0" width="71.1895" height="95.9231" filterUnits="userSpaceOnUse" color-interpolation-filters="sRGB">
<feFlood flood-opacity="0" result="BackgroundImageFix"/>
<feColorMatrix in="SourceAlpha" type="matrix" values="0 0 0 0 0 0 0 0 0 0 0 0 0 0 0 0 0 0 127 0"/>
<feOffset dy="4"/>
<feGaussianBlur stdDeviation="2"/>
<feColorMatrix type="matrix" values="0 0 0 0 0 0 0 0 0 0 0 0 0 0 0 0 0 0 0.1 0"/>
<feBlend mode="normal" in2="BackgroundImageFix" result="effect1_dropShadow"/>
<feBlend mode="normal" in="SourceGraphic" in2="effect1_dropShadow" result="shape"/>
</filter>
</defs>
</svg>
