<svg width="127" height="100" viewBox="0 0 127 100" fill="none" xmlns="http://www.w3.org/2000/svg">
<path opacity="0.7" d="M126.157 45.6817C124.463 49.5421 120.508 49.7099 117.4 48.8707C117.542 49.8778 117.542 51.0527 117.542 51.8919C117.4 55.0809 115.705 57.5985 113.869 59.6126C109.914 64.1444 103.7 65.9906 98.6147 63.473C98.756 66.3263 98.4735 68.6761 96.9198 71.0259C94.9424 73.7114 91.4112 75.3898 88.5863 76.0612C85.6202 76.9004 82.0891 75.7255 79.4054 74.0471C78.558 73.5436 77.8518 72.8722 77.2868 72.2008C76.5806 75.5577 75.5918 78.0753 72.767 79.5859C69.5183 81.4322 65.5635 81.2643 62.1736 80.2573C56.3826 78.5788 51.439 73.3757 50.309 66.4942C49.6028 67.5012 48.7553 68.3404 48.0491 69.0118C45.3655 72.033 41.5519 72.7043 37.8795 73.04C30.8173 73.5436 25.7325 69.5153 22.3426 62.466C19.6589 65.4871 15.1391 66.4942 11.608 65.655C10.7605 65.4871 10.0543 65.1514 9.20683 64.9836C4.96949 62.2981 1.01464 59.2769 0.167174 53.0668C-0.539049 47.1923 1.01464 41.9892 4.40451 38.1288C6.52319 36.2825 9.20684 35.6111 12.0317 35.779C12.0317 35.1076 12.0317 34.4363 12.173 33.597C12.8792 30.0723 15.9866 27.7226 18.529 26.212C23.755 23.3587 32.6535 22.1838 37.1733 27.5547C37.1733 27.3869 37.1733 27.3869 37.3145 27.219C38.0208 25.2049 39.292 23.5265 40.8456 22.0159C43.6705 19.1626 47.9079 17.652 51.5802 16.4771C58.2187 14.463 66.5522 18.9948 68.6709 26.8834C69.2358 24.5336 71.072 22.5194 72.6257 21.5124C75.4506 19.4983 78.558 18.9948 81.8066 19.834C85.7615 20.841 89.9988 24.5336 90.9875 29.2331C93.1062 24.5336 99.4622 24.8692 103.135 26.7155C105.253 27.8904 107.654 30.0724 108.784 32.9257C110.056 31.2473 113.304 30.5759 114.717 30.5759C118.248 30.408 121.779 31.9186 124.321 34.9398C126.864 37.6253 127.852 42.157 126.157 45.6817Z" fill="#EAF5FB"/>
<g filter="url(#filter0_d)">
<path d="M77.2082 59.149C77.1223 58.3352 76.7789 57.5642 76.135 57.0503C76.0492 57.0074 76.0063 56.9218 75.9204 56.879C74.2892 55.5084 71.9713 55.594 70.5547 56.8361C70.426 56.8361 70.3401 56.879 70.2113 56.879C66.9061 55.7654 62.957 56.0223 59.5229 56.0652C58.5786 54.6089 56.2606 54.1378 54.8012 55.0801C54.4578 55.2942 54.2002 55.5084 53.9856 55.7654C52.612 56.0223 51.4101 57.0931 51.453 59.0205C51.453 60.3482 51.3242 61.676 51.3242 63.0037C51.3242 66.3445 54.9299 66.9441 56.7757 65.3166C57.4196 65.4879 58.1064 65.5307 58.7503 65.3594C59.7805 65.0596 60.8966 65.1024 61.9697 65.1881C62.3989 65.2309 62.8282 65.2309 63.2145 65.2309C63.6008 65.2309 63.9872 65.1881 64.3306 65.1024C66.4339 65.3594 68.4085 65.2309 70.3401 64.5456C70.383 64.5456 70.426 64.5456 70.5118 64.5456C70.8552 64.9739 71.2845 65.3166 71.7567 65.5307C74.3322 68.8715 79.5261 66.9441 78.6676 62.5754C78.3671 61.3333 77.895 60.1341 77.2082 59.149Z" fill="#4A9200"/>
<path d="M80.9856 45.8287C80.9427 45.7859 80.8568 45.743 80.8139 45.6574C80.3417 45.2291 79.6978 44.8864 79.011 44.8008C78.7535 44.1583 78.5389 43.5159 78.1955 42.9591C77.6804 42.0596 76.6931 41.6313 75.7058 41.6313C75.6199 41.5028 75.5341 41.3743 75.4482 41.2458C74.8902 40.3464 73.9888 40.2607 73.302 40.689C72.8298 40.6034 72.3147 40.6462 71.7567 40.7747C71.4562 40.8604 71.1986 40.9889 70.984 41.1173C69.3958 40.0466 66.992 40.2607 66.3052 42.2738C66.2193 42.2738 66.1764 42.3166 66.0905 42.3166C65.833 42.3594 65.5325 42.4023 65.2749 42.4023C64.6311 42.3594 63.9872 42.2738 63.3433 42.1881C63.2575 42.1881 63.1716 42.1453 63.0858 42.1453C61.4546 41.8883 59.523 41.2458 57.8918 41.203C57.1621 41.0317 56.4753 41.4172 56.046 41.974C55.4451 40.689 53.728 39.8324 52.4832 40.7747C51.5818 41.46 50.8091 42.3166 50.0794 43.3017C49.6931 43.6872 49.3497 44.1583 49.135 44.7151C48.4053 45.9144 47.7614 47.1564 47.1605 48.27C46.86 48.8697 46.7742 49.4693 46.86 50.0261C46.86 50.0689 46.86 50.0689 46.86 50.1118C46.302 53.1099 49.5643 55.0801 51.8823 53.0242C53.1271 51.9535 53.728 50.3687 54.1573 48.8268C54.2002 48.6127 54.2431 48.4414 54.2861 48.2272C54.5436 48.3557 54.8441 48.4842 55.1875 48.527C58.9649 49.041 62.9141 49.4693 66.7344 49.2551C68.2797 49.1695 69.9967 48.9982 71.4991 48.6555C72.1001 48.527 72.8727 48.1416 73.4307 47.6704C73.6454 48.6984 73.9888 49.7263 74.5897 50.5829C75.1478 51.3538 76.0921 51.825 76.9935 51.8678C78.5389 52.4674 80.3417 51.7393 80.8997 50.0261C82.0158 49.041 82.1446 46.9423 80.9856 45.8287Z" fill="#4A9200"/>
<path d="M88.068 20.8584C86.7803 20.1732 85.4925 20.5158 84.5052 20.9013C83.3462 21.3724 82.1873 22.1005 81.2 22.9143C80.4273 20.7728 78.9249 18.9739 77.0791 17.6033C76.3065 16.7039 75.3621 15.9329 74.3319 15.419C71.9281 14.1769 69.138 13.8771 66.4766 14.3054C65.7898 13.3631 64.9313 12.4637 63.8152 11.7355C59.8232 9.03722 54.8439 9.93666 50.9377 12.2923C51.0664 11.864 51.1523 11.4357 51.1952 11.0074C51.2381 10.365 50.723 9.76534 50.1221 9.59402C46.6022 8.69457 44.6276 13.149 43.9408 15.8473C43.297 15.5475 42.5243 15.3761 41.5799 15.419V15.4618C40.3351 15.419 39.1332 16.0186 38.9186 17.432C38.7469 18.7169 38.3605 19.9162 39.1332 21.1583C39.3049 21.4581 39.5195 21.7579 39.7342 22.0577C39.6483 25.4841 40.7644 29.1247 42.4384 32.0372C44.1125 34.9497 47.0315 37.1341 50.2508 37.7337C52.0108 39.0186 54.1141 39.8324 56.3892 39.8752C57.5481 39.8752 58.6642 39.6611 59.6515 39.2328C59.6086 39.4041 59.6086 39.5754 59.6515 39.7895C59.6086 39.9609 59.5656 40.1322 59.5656 40.3892C59.5656 40.432 59.5656 40.432 59.5656 40.4748C59.5227 40.6462 59.5227 40.7747 59.4798 40.946C59.351 41.5456 59.2652 42.1024 59.1793 42.702C59.1364 43.0447 58.9647 44.4581 59.1364 43.0018C58.9647 44.2439 59.0505 45.3147 59.9949 46.257C61.0251 47.2849 62.785 47.5847 64.0299 46.7709C65.9186 45.5288 67.0776 42.702 65.103 40.9031C65.0601 40.7318 65.0171 40.6033 64.9313 40.432C65.8327 40.432 66.7771 40.3892 67.6356 40.2179C70.9408 39.7039 74.2032 38.2477 76.7357 36.2346C76.7787 36.1918 76.8645 36.149 76.9074 36.1061C79.3113 34.6071 81.2 32.3799 82.0585 29.9814C83.1745 30.1527 84.3335 29.81 85.192 28.9963C86.1793 28.054 86.6944 27.1974 87.5529 26.2123C88.4973 25.1843 89.0553 24.0707 89.0982 22.7002C89.0982 21.9292 88.7119 21.2011 88.068 20.8584Z" fill="#FDF0DA"/>
<path d="M50.2508 26.5549C49.7357 25.4842 48.6197 24.5419 47.4178 24.2849C47.2031 24.1564 46.9885 24.0707 46.7739 23.9851C45.572 23.514 44.2842 23.9423 43.2111 24.4134C41.6229 25.0987 40.8073 26.7691 40.7214 28.4395C40.6785 29.8957 41.4512 31.3091 42.3955 32.337C43.5974 33.622 45.4003 34.1788 47.0744 33.8789C48.4051 33.622 49.8216 32.5084 50.3796 31.2663C51.1093 29.6387 51.0235 28.0968 50.2508 26.5549Z" fill="#F7BFA7"/>
<path d="M84.6348 28.6536C84.0338 25.0558 79.8272 23.5139 76.9082 25.3557C76.0927 25.8696 75.4488 26.6406 75.0195 27.4544C74.2039 28.3966 73.8605 29.4246 73.7747 30.6666C73.6888 32.594 74.9337 34.6499 76.5648 35.5493C78.754 36.7486 81.3295 35.9776 83.0465 34.3501C84.5919 32.8082 84.9353 30.6666 84.6348 28.6536Z" fill="#F7BFA7"/>
<path d="M87.5103 14.2626C87.0811 12.121 85.7504 10.4506 83.9046 9.5512C83.3037 6.72438 81.5867 4.24021 78.7107 3.68342C77.0366 3.3836 75.1479 3.76908 73.6455 4.66852C73.5596 4.58286 73.4738 4.45437 73.345 4.36871C72.8728 3.42643 72.186 2.56982 71.2846 1.88453C69.2242 0.342635 66.6487 -0.214162 64.1161 0.171312C63.3005 0.299804 62.8283 0.642448 62.5278 1.15641C61.5835 0.685279 60.4674 0.513957 59.3514 0.856601C58.4929 0.685279 57.5056 0.685279 56.5183 0.856601C52.8267 1.4134 50.1653 3.89757 48.7917 7.23835C47.0318 11.4786 52.3116 14.1341 55.9173 14.3054C56.9905 15.419 58.407 16.0614 60.0811 16.0186C60.7679 17.3464 61.9269 18.3743 63.6868 18.8026C64.5882 19.0168 65.4897 19.0596 66.3053 18.9311C67.593 19.1452 69.0095 18.8883 70.2973 18.2886C70.6407 18.5884 71.027 18.8883 71.4134 19.1024C73.345 20.1732 75.062 20.1732 76.4356 19.5307C77.0795 19.8734 77.8092 20.0447 78.5819 20.0875C80.0843 20.987 82.0588 21.2868 83.7758 20.8156C86.7377 20.1303 88.0684 17.0894 87.5103 14.2626Z" fill="#ECC547"/>
<path d="M75.6193 52.3818C75.6193 50.4972 73.8593 48.3129 71.7989 48.5698C69.6956 48.8268 67.3776 49.0838 65.1026 48.9981C65.0167 48.9981 64.8879 48.9981 64.8021 48.9553C61.8402 48.527 59.0501 47.4991 56.0453 47.1136C52.3967 46.6425 50.7226 52.7244 54.1137 54.1806C54.4142 54.3091 54.7146 54.4376 55.0151 54.5233C55.058 54.5233 55.058 54.5233 55.101 54.5233C55.5732 54.6946 56.0883 54.8659 56.6034 55.0372C58.0628 56.0223 59.7798 56.6648 61.7544 56.9218C63.729 57.2216 65.7035 57.2216 67.6781 57.4786C69.438 57.6927 71.2409 57.6499 72.8291 56.7076C73.473 56.3222 73.9452 55.7654 74.2456 55.1657C75.0612 54.6089 75.6193 53.6667 75.6193 52.3818Z" fill="#45B4B7"/>
<path d="M79.1398 70.0279C78.9681 69.3854 78.9252 68.743 78.7106 68.1434C78.4101 67.2867 77.7662 66.6015 76.9935 66.216C76.736 65.8733 76.4784 65.5307 76.135 65.188C73.9459 63.0465 69.868 63.3463 67.0778 63.7746C64.4164 64.1601 61.9697 64.2886 59.3083 64.2886C59.0937 64.2886 58.8791 64.2886 58.6645 64.3314C57.5484 63.2178 55.6168 63.2178 54.6724 64.8026C54.5866 64.9739 54.5007 65.1024 54.4149 65.2737C53.8139 64.8454 52.8266 64.9311 52.6978 65.7877L52.6549 66.0447C52.5691 66.5158 52.7408 66.8584 52.9554 67.1154C52.9125 67.3724 52.8266 67.8007 52.7408 68.1862C52.6549 68.4432 52.612 68.7001 52.5691 68.9571C52.3544 69.7709 52.612 70.4562 53.1271 70.9273C53.5134 71.6983 54.2861 72.2122 55.1446 72.3407C56.4323 73.4972 59.0937 73.0689 59.8234 71.0987C59.9522 70.7132 60.081 70.3277 60.2098 69.9422C60.2527 69.9422 60.2956 69.9422 60.3385 69.9422C61.7551 70.0279 63.0858 70.0279 64.4594 69.8994C64.9316 69.8566 67.8934 69.5568 69.9538 69.5139C70.0826 71.2271 70.6835 72.8119 71.4562 74.4823C72.1001 75.8528 74.3751 76.4953 75.577 75.553C76.2209 75.0819 76.6931 74.6108 77.0794 74.0111C78.7964 73.54 80.1271 71.8696 79.1398 70.0279Z" fill="#00588F"/>
<path d="M56.4752 82.1918C54.1143 81.9777 51.6246 83.6052 49.6071 84.5903C48.5769 85.1043 48.7486 86.946 49.9505 87.1173C52.2685 87.46 54.7582 86.6462 56.9903 85.9181C59.1365 85.2756 58.6214 82.3631 56.4752 82.1918Z" fill="#00588F"/>
<path d="M82.1444 88.0168C81.8869 86.5605 80.2557 86.1322 79.0109 85.7467C78.0236 85.4469 76.5212 85.1471 75.491 85.2756C74.5896 85.3613 74.1603 86.1322 74.5037 86.9888C74.933 87.9739 76.092 88.4879 76.9505 89.0447C77.4656 89.3445 78.1095 89.5158 78.6246 89.8156C79.3972 90.2439 79.9553 90.5009 80.8567 90.2868C81.9298 89.987 82.3161 88.959 82.1444 88.0168Z" fill="#00588F"/>
<path d="M84.2478 88.4879C84.2478 86.9032 82.7454 86.1322 81.4147 85.6182C80.5562 85.2756 79.6118 85.0614 78.7104 84.8901C77.8519 84.7188 77.1222 84.8045 76.2207 84.8473C75.8344 84.8901 75.491 84.8473 75.1047 84.8901C75.1047 84.8473 75.1047 84.8473 75.1047 84.8045C75.0617 84.5475 75.0617 84.3333 75.0617 84.0763C75.0188 83.0056 75.0188 81.9348 75.0188 80.8641C75.0188 79.108 75.4481 77.3091 75.1476 75.5531C75.491 75.5102 75.8344 75.4674 76.1778 75.4674C77.6802 75.4674 78.8392 74.8249 79.1396 73.283C79.483 71.527 78.6675 69.8138 78.8392 68.1005C78.925 67.4153 78.925 66.73 78.9679 66.0447C79.1826 65.959 79.3113 65.7449 79.2255 65.4451C79.1826 65.3594 79.1826 65.3166 79.1396 65.2309C79.3113 65.1024 79.3543 64.8883 79.2684 64.6741L79.0109 64.0316C78.9679 63.9032 78.8821 63.8175 78.7962 63.7747C78.7104 63.3464 78.6675 62.9609 78.6245 62.5326C78.4958 61.419 78.3241 60.3054 78.0665 59.1918C77.5943 57.1788 77.0363 55.1657 76.5212 53.1527C77.766 52.0391 79.3113 51.3538 80.7279 50.4972C80.5991 50.7113 80.5991 51.054 80.8996 51.2253C81.3718 51.4823 81.4576 52.0819 81.6293 52.5531C81.8439 53.1955 82.2303 53.838 82.5307 54.4376C83.0888 55.6369 83.7326 56.8789 84.119 58.1639C84.7199 60.1769 85.3209 62.3184 85.3209 64.4171C85.1921 64.4599 85.0633 64.5028 84.9775 64.6741C84.4195 65.8734 83.6039 66.9013 82.96 68.0577C82.9171 68.1005 82.8741 68.1434 82.8312 68.229L82.6166 68.6573C82.359 69.2141 83.2175 69.5996 83.518 69.0428C83.9043 68.2719 84.3765 67.5437 84.8487 66.8156C84.9346 67.2011 84.8916 67.7151 84.8487 68.0577C84.8487 68.3147 84.8058 68.5717 84.7629 68.8287C84.5912 68.9143 84.5053 69.0428 84.5482 69.2998C84.5912 69.3855 84.5912 69.4711 84.5912 69.5996C84.5482 69.6853 84.5482 69.7709 84.5053 69.8138C84.2478 70.3706 85.1492 70.7989 85.4067 70.1992C85.4497 70.1136 85.4497 70.0707 85.4926 69.9851C85.7072 69.2998 85.7931 68.5717 85.836 67.8864C85.836 67.5437 85.836 67.1154 85.7931 66.7728C86.1365 67.5437 86.4799 68.2719 86.6086 69.0856C86.3082 69.2141 86.1794 69.6424 86.4799 69.8994C86.6086 69.9851 86.6945 70.1992 86.8233 70.3277C87.0808 70.5419 87.5959 70.4134 87.5959 70.0279C87.6818 68.6145 86.995 67.3724 86.4799 66.0875C87.5101 66.8156 89.27 68.229 88.8408 68.5717C88.3686 68.9572 88.9266 69.7709 89.3988 69.3426C91.1587 67.9292 87.3384 65.2737 86.2223 64.7598C86.2652 62.4041 85.6214 60.0484 84.9775 57.8212C84.5482 56.3221 83.8185 54.9516 83.1317 53.5382C82.8312 52.8957 82.5307 52.2532 82.2732 51.568C82.0586 51.0112 81.7581 50.6257 81.243 50.3259C81.1571 50.283 81.1142 50.283 81.0284 50.283C81.9298 49.7262 82.7454 49.1266 83.4322 48.3128C83.5609 48.1415 83.5609 47.8845 83.4322 47.7132C82.3161 46.1285 80.7708 45.0577 79.2255 43.9441C78.3241 43.3445 77.6373 42.6592 76.9075 41.8454C76.3066 41.1173 75.6627 40.432 74.89 39.8752C75.3622 39.6611 75.8344 39.4041 76.3066 39.1471C79.9981 37.1341 83.1746 34.1788 84.7199 30.1955C87.4242 29.9814 89.5276 27.0689 89.7851 24.4991C89.9997 22.743 89.3129 20.9013 87.6818 20.0447C86.2652 19.3166 84.7629 20.0875 83.7756 21.2439C83.6897 21.0298 83.5609 20.8156 83.4751 20.6015C84.0331 20.0447 84.4624 19.4022 84.7199 18.5884C85.278 16.9609 84.7199 15.2905 83.0458 14.648C82.4449 14.4339 82.0586 15.2905 82.6595 15.5475C83.9043 16.0186 84.2048 17.1322 83.8185 18.3743C83.6468 18.9311 83.3463 19.3594 83.0029 19.7449C82.96 19.702 82.9171 19.6164 82.8741 19.5735L82.7454 19.1881C82.5307 18.5884 81.6293 18.9311 81.8439 19.5307C81.8869 19.6592 81.9727 19.8305 82.0156 19.959C82.0586 20.0875 82.1444 20.2588 82.1873 20.3873C81.801 20.6015 81.3718 20.7728 80.8996 20.8585C79.2684 21.2011 77.5943 20.73 76.5212 19.4451C76.3066 19.1881 76.049 18.8454 75.8344 18.5028C75.8773 18.4171 75.9202 18.3315 75.9632 18.2458C76.3924 17.2607 76.8217 15.5475 75.9202 14.6909C75.7915 14.5624 75.6627 14.4767 75.491 14.391C75.2764 14.3054 75.0617 14.391 74.933 14.5195C73.9457 15.6331 74.1603 17.1322 74.8042 18.4171C74.7183 18.5884 74.6325 18.7169 74.5466 18.8026C73.3447 20.5586 70.5546 19.8734 69.3956 18.4171C69.0522 18.0316 68.8805 17.5605 68.7947 17.1322C69.6961 16.3184 70.6834 15.2477 70.9409 14.0056C71.1555 13.1061 70.297 11.9925 69.3527 12.2924C68.4083 12.5922 68.0649 14.1769 67.8932 15.0335C67.7644 15.5903 67.7215 16.1899 67.8074 16.7467C67.5498 16.9609 67.2923 17.175 66.9918 17.3464C65.2748 18.6313 63.0856 19.4022 60.9393 19.2737C59.3082 19.1881 57.5912 18.8454 56.7756 17.3035C56.518 16.8752 56.3893 16.3613 56.3463 15.8901C56.518 15.8901 56.6897 15.8901 56.8614 15.8901C58.6643 15.8901 60.5101 15.5903 62.1412 14.7765C63.5578 14.0912 64.9314 12.7635 64.8026 11.0931C64.6738 9.59403 63.0427 8.18062 61.6261 7.83798C60.0379 7.4525 58.6643 8.35194 57.5482 9.42271C56.1746 10.7505 55.359 12.892 55.359 14.9478C54.6722 14.9478 54.0284 14.905 53.3416 14.8622C51.2811 14.7337 49.049 14.1341 47.8471 12.2924C47.6325 11.9497 47.5037 11.6071 47.4179 11.2216C47.5466 11.1359 47.6325 11.0503 47.7613 10.9218C47.7613 10.8361 47.7613 10.7505 47.7613 10.622C48.0188 10.9218 48.6198 10.7505 48.6198 10.2365C48.6198 9.85101 48.4051 9.50837 48.0188 9.42271C47.8042 9.37988 47.5466 9.46554 47.3749 9.59403C47.4179 9.16572 47.5466 8.78025 47.6754 8.39477C48.6627 5.99626 50.7231 3.59775 52.9982 2.14151C56.0888 0.171309 61.5832 0.428293 63.1285 4.24021C63.3431 4.79701 64.2875 4.45436 64.0299 3.89757C62.6563 0.471123 58.6643 -0.471149 55.3161 0.21414C52.526 0.770937 50.3368 2.74114 48.6627 4.9255C47.4608 6.51023 46.3447 8.60893 46.4306 10.622C46.0443 11.0074 45.7009 11.4357 45.4862 11.864C45.4433 11.9069 45.4433 11.9925 45.4433 12.0354C44.5848 13.0205 43.898 14.0912 43.2112 15.162C43.0824 14.648 42.9107 14.2197 42.7819 13.9627C41.7517 12.1639 39.6055 13.4059 38.5323 14.4339C37.2017 15.7616 35.7422 17.9888 36.0427 19.959C36.2144 20.9869 37.3734 21.6722 38.2748 21.9292C38.9616 22.1005 39.7342 22.1862 40.464 22.0577C40.1206 23.6424 40.0347 25.27 40.2064 26.8976C40.5498 30.3668 42.181 33.5363 44.6277 35.9776C46.8598 38.2477 49.8646 39.8324 52.8694 40.9032C52.6118 41.1601 52.2255 41.3743 51.9679 41.6313C51.4958 42.1024 51.0665 42.6592 50.6373 43.1732C49.8646 44.2011 49.049 45.229 48.3193 46.2998C47.6325 47.2849 47.1174 48.3557 46.3447 49.2551C45.6579 50.1117 45.0141 51.0112 44.7136 52.0819C44.6706 52.2961 44.7994 52.5102 45.0141 52.5959C46.0013 53.0242 46.9457 53.4525 47.933 53.9236C47.89 53.9665 47.8471 54.0093 47.8042 54.095C46.9457 56.0223 46.0872 57.9497 45.3575 59.9199C44.7565 61.5475 44.3702 63.3035 43.7263 64.9311C42.9107 65.7877 42.0522 66.6443 41.2366 67.4581C40.8503 67.7151 40.5498 68.0149 40.2923 68.486C40.0347 69 40.7644 69.3855 41.1079 69C41.3654 68.743 41.58 68.486 41.8376 68.229C41.9664 68.1862 42.0522 68.0577 42.0951 67.9721C42.5673 67.5009 42.9966 67.0726 43.4687 66.6015C43.5546 67.1154 43.2112 68.0577 43.1253 68.4004C42.9536 69.0856 42.6961 69.7709 42.6102 70.4562C42.5244 71.013 43.297 71.2272 43.5117 70.7132L43.7263 70.2849C43.8121 70.1136 43.7692 69.9851 43.7263 69.8566C43.8551 69.257 44.0697 68.6145 44.2414 68.0149C44.2843 67.7579 44.3702 67.4153 44.4131 67.0726C44.8853 68.1434 45.057 69.3426 45.3145 70.4991C45.4433 71.0559 46.1301 71.0559 46.2589 70.4991C46.3447 70.1136 46.216 69.7709 46.0872 69.3855C46.0872 69.3426 46.0443 69.2998 46.0443 69.2998C45.8296 68.4004 45.615 67.4581 45.2287 66.6015C45.7438 66.987 46.216 67.5009 46.5594 68.0577C46.9028 68.5717 47.6754 68.0149 47.332 67.5009C46.8169 66.6871 46.0872 65.959 45.2287 65.4879C45.1858 65.4451 45.1428 65.4022 45.0999 65.4022L44.8853 65.3166C44.7994 65.2737 44.7136 65.2737 44.6277 65.2737C45.2716 63.689 45.6579 61.9758 46.216 60.391C46.9028 58.4208 47.8042 56.4935 48.6627 54.5661C48.7056 54.5233 48.7056 54.4376 48.7056 54.3948C49.049 54.5661 49.3924 54.7803 49.6929 54.9516C50.208 55.2514 50.8519 55.594 51.4958 55.7654C51.3241 56.7076 51.1524 57.6927 51.0665 58.6778C50.9807 59.6629 51.0236 60.648 51.0236 61.6331C50.9807 62.7467 50.8948 64.3315 52.0109 64.9311C52.1396 66.1732 51.8392 67.4153 51.925 68.6573C52.0538 70.2421 52.526 71.8696 52.1396 73.4544C52.0967 73.6685 52.2255 73.8827 52.4401 73.9683C53.2986 74.2681 54.1571 74.0968 55.0586 73.9255C55.402 73.8398 55.7454 73.797 56.0888 73.797C56.0888 73.8398 56.0888 73.8398 56.0888 73.8827C56.561 75.2961 56.1317 76.9236 56.0458 78.3799C55.96 80.1359 56.1317 81.892 56.2605 83.6909C54.4147 83.1341 52.4401 83.391 50.5943 84.0335C49.5641 84.3762 47.6325 85.3184 48.4051 86.7318C49.2637 88.3166 51.5387 88.4879 53.084 88.2737C54.801 88.0596 56.7756 87.1601 57.4195 85.4469C57.5482 85.1471 57.3336 84.8901 57.0761 84.8045C57.2048 84.7188 57.2907 84.5475 57.2907 84.3333C57.2048 82.2775 56.9044 80.2216 57.0331 78.1657C57.119 76.7095 57.4624 75.1676 57.0761 73.7113C57.3765 73.7113 57.7199 73.6685 58.0204 73.5829C58.6643 73.4544 59.3082 73.283 59.6086 72.6406C59.952 71.9125 59.9091 71.0987 59.952 70.3277C59.995 69.5996 60.0379 69 60.7676 68.7002C61.4974 68.4004 62.3559 68.4432 63.0856 68.486C64.4592 68.5288 65.8328 68.743 67.2493 68.743C68.1078 68.743 69.0093 68.743 69.8249 69.0428C70.6404 69.3855 70.5546 70.2849 70.5975 71.013C70.6404 72.3408 70.6404 74.054 71.5848 75.1248C72.057 75.6387 72.5721 75.7244 73.2589 75.6815C73.5594 75.6815 73.9028 75.6387 74.2032 75.5959C74.4179 76.9665 74.1174 78.2942 74.1174 79.6648C74.0745 81.3352 74.0745 83.0484 74.1603 84.7188C73.9886 84.7188 73.8598 84.8045 73.774 84.9758C73.1301 86.4748 73.0443 87.7598 74.1603 89.0447C75.2334 90.2868 76.9934 91.0149 78.4958 91.5288C79.6977 91.9572 81.1142 92.1713 82.359 91.6145C83.6039 91.1862 84.2478 89.7728 84.2478 88.4879ZM36.987 19.702C36.7724 18.2886 37.8885 16.7039 38.747 15.7188C39.3479 14.9907 40.8503 13.4488 41.8376 14.2626C42.181 14.5624 42.3098 15.1192 42.3956 15.5475C42.4385 15.7616 42.4385 16.0186 42.3956 16.2328C42.3527 16.4041 42.2668 16.4897 42.3527 16.4469C41.9664 16.5754 41.9664 16.9609 42.181 17.175C41.5371 18.4171 41.0649 19.702 40.7215 21.0298C39.3908 21.2868 37.2017 21.1154 36.987 19.702ZM44.2843 65.9162C44.2843 66.0018 44.3702 66.0875 44.4131 66.1303C44.3702 66.1303 44.3702 66.1732 44.3272 66.1732C44.2843 66.0875 44.2414 66.0018 44.1985 65.9162C44.2414 65.9162 44.2843 65.9162 44.2843 65.9162ZM56.6897 84.8473C56.6468 84.8901 56.561 84.9758 56.561 85.0614C55.6595 87.5028 51.367 88.1024 49.5212 86.5177C48.5339 85.7039 50.809 84.9758 51.3241 84.8045C53.084 84.2477 54.9298 84.0763 56.6468 84.8473H56.6897ZM78.5816 44.5437C80.0411 45.5717 81.5005 46.5568 82.6166 47.9702C80.8996 49.8547 78.3241 50.5829 76.3495 52.1248C76.0061 50.7113 75.6627 49.2979 75.3622 47.8417C75.4051 47.7132 75.3622 47.5419 75.2764 47.4134C75.1047 46.7281 74.9759 46.0428 74.8471 45.3575C74.6754 44.5009 74.5466 43.6871 74.4608 42.8305C74.4179 42.2737 74.332 41.6741 74.0745 41.1601C74.1174 40.946 74.0745 40.7318 73.8169 40.6033L73.6452 40.5177C73.8598 40.432 74.0745 40.3464 74.2891 40.2607C74.2891 40.3892 74.332 40.5177 74.4608 40.6033C76.0061 41.7169 76.9934 43.4302 78.5816 44.5437ZM88.111 21.3296C89.1412 22.229 89.1842 23.9423 88.8837 25.1415C88.4544 26.9404 87.0379 28.7393 85.235 29.1248C85.7931 26.8547 85.3638 24.4134 84.4624 22.1862C85.278 20.9869 86.7803 20.216 88.111 21.3296ZM75.5768 15.5903C75.8344 16.0186 75.7485 16.6611 75.491 17.3035C75.3193 16.7039 75.3193 16.1043 75.5768 15.5903ZM69.8678 13.2775C69.8678 13.2775 70.1253 13.5344 70.1683 13.6201C70.297 13.8771 70.0824 14.2626 69.9536 14.5195C69.6961 15.0763 69.3098 15.5475 68.8805 15.9758C68.9234 15.5046 69.0522 14.9907 69.181 14.5624C69.3098 14.1769 69.4815 13.4916 69.8678 13.2775ZM59.6516 9.16572C61.2827 8.18062 63.6007 9.50837 63.9441 11.3073C64.1158 12.2495 63.2573 13.0633 62.5705 13.5773C61.7549 14.1769 60.6818 14.5195 59.6945 14.6909C58.6643 14.905 57.5482 14.9907 56.4322 15.0335C56.4322 14.3482 56.561 13.7058 56.7756 13.1061C57.2048 11.4786 58.1492 10.0652 59.6516 9.16572ZM46.4306 36.3203C43.5546 33.9646 41.6659 30.6667 41.1937 26.9832C40.9791 25.27 41.1079 23.514 41.4513 21.8007C41.7947 21.6722 41.7947 21.2868 41.623 21.0726C41.9234 20.0447 42.2668 19.0167 42.739 18.0316C43.5546 16.2756 44.6706 14.5195 45.9155 13.0205C46.173 12.7207 46.4306 12.378 46.7311 12.0782C46.774 12.1639 46.774 12.2495 46.8169 12.2924C48.1476 15.6331 52.1826 15.9329 55.4878 15.9329C55.5737 16.4897 55.7024 17.0465 55.9171 17.5605C57.3336 20.73 61.7549 20.6871 64.5451 19.7877C65.8328 19.3594 67.0776 18.6741 68.1508 17.8175C68.2795 18.1601 68.4513 18.5028 68.623 18.8454C69.4815 20.2588 71.4989 20.9869 73.0872 20.8156C74.0745 20.73 74.89 20.1303 75.4481 19.4022C75.5339 19.5735 75.6627 19.702 75.7915 19.8734C77.0792 21.5437 79.1396 22.1862 81.1571 21.8007C81.7152 21.7151 82.2303 21.5437 82.6595 21.2868C82.6595 21.3296 82.7024 21.3724 82.7024 21.4153C82.7883 21.6294 82.96 21.7151 83.1317 21.7151C83.2175 21.8436 83.2605 21.9721 83.3034 22.1434C83.2605 22.229 83.2175 22.2719 83.2175 22.3575C83.0458 22.743 83.3463 23 83.6897 23.0428C83.8614 23.514 84.0331 23.9851 84.119 24.4991C84.5053 26.0838 84.5053 27.7113 84.119 29.2532C83.9044 29.2532 83.7326 29.2104 83.518 29.1248C82.9171 28.9534 82.7883 29.8957 83.3892 30.067C83.5609 30.1099 83.6897 30.1527 83.8614 30.1527C83.8185 30.324 83.7326 30.4953 83.6468 30.6667C82.7024 32.851 81.0713 34.6927 79.2684 36.1918C76.2637 38.676 72.4004 40.175 68.623 40.9888C64.8026 41.8026 60.8106 41.7598 56.9902 41.0316C53.2128 40.3035 49.4354 38.7188 46.4306 36.3203ZM49.4783 53.6667C48.3193 52.9814 47.0745 52.4674 45.8296 51.9534C46.173 51.0112 46.9028 50.1974 47.5466 49.4264C48.3193 48.4842 48.8773 47.2849 49.5641 46.257C50.2509 45.2719 51.0236 44.2868 51.7533 43.3445C52.1396 42.8734 52.5689 42.3594 53.0411 41.9739C53.3416 41.7169 53.5991 41.5028 53.8137 41.203C53.9854 41.2458 54.1571 41.3315 54.3288 41.3743C54.5435 41.4599 54.7581 41.5028 54.9727 41.5456C53.2128 45.1862 52.6118 49.1266 51.9679 53.067C51.925 53.1527 51.8821 53.2812 51.925 53.3668C51.8392 53.838 51.7533 54.3091 51.6675 54.8231C50.8948 54.6518 50.0363 54.0093 49.4783 53.6667ZM55.8312 42.1452L56.0458 42.2309C56.3463 42.3594 56.6039 42.1881 56.6897 41.9311C59.3511 42.4879 62.0983 42.6592 64.8455 42.445C65.3606 43.5158 64.7168 44.9292 63.8582 45.6145C62.3559 46.7709 61.4115 44.7151 61.8837 43.4302C62.0983 42.8734 61.2398 42.445 60.9823 43.0447C60.2525 44.9292 61.5403 47.6275 63.8582 46.7281C65.4894 46.0856 66.305 43.9869 65.8328 42.3594C68.2366 42.1024 70.6404 41.5884 72.9155 40.7318C72.8726 40.8603 72.8726 41.0316 72.9584 41.1601C73.4306 41.8026 73.4306 42.6592 73.4735 43.4302C73.5164 44.4153 73.8169 45.3575 73.9886 46.2998C74.0745 46.6424 74.1174 46.9423 74.2032 47.2849C74.0745 47.3277 73.9457 47.4134 73.8169 47.5419C73.7311 47.6275 73.6881 47.756 73.6881 47.8417C72.8296 48.2272 71.7136 48.2272 70.8121 48.2272C69.4815 48.1843 68.1937 47.9702 66.863 47.9274C64.9743 47.9274 63.0856 47.8417 61.1969 47.8417C60.1237 47.8417 59.0506 47.8417 57.9775 47.7132C57.0761 47.6275 56.1317 47.756 55.2732 47.4134C54.6722 47.1992 54.2859 48.0559 54.8869 48.3128C55.7454 48.6555 56.6897 48.6126 57.5912 48.6555C58.6214 48.6983 59.6516 48.784 60.6818 48.784C62.828 48.8268 64.9743 48.8268 67.1206 48.9125C69.3098 48.9981 72.4004 49.8119 74.4179 48.527C74.7183 49.8119 75.0188 51.0968 75.3193 52.3817C75.2764 52.4246 75.2334 52.4674 75.1905 52.5531C75.0188 52.9814 75.1047 53.324 75.5768 53.4953H75.6198C75.6198 53.5382 75.6627 53.6238 75.6627 53.6667C75.5768 53.7095 75.491 53.7523 75.4481 53.7951C74.1603 55.2514 72.2287 55.7225 70.3829 55.8938C68.4083 56.0652 66.3479 55.9367 64.3733 55.7225C61.8837 55.4655 59.2652 55.2514 56.9044 54.4376C56.2605 54.2234 55.5307 54.1378 54.8439 53.9665C54.3288 53.838 53.2557 53.7095 52.9123 53.1955C53.642 49.5121 54.1571 45.7002 55.8312 42.1452ZM52.4831 63.9888C52.3113 63.8603 52.1826 63.6462 52.0967 63.3464C51.9679 62.6182 52.0538 61.8473 52.0538 61.0763C52.0967 59.2775 52.2255 57.6071 52.526 55.851C52.6977 55.851 52.8694 55.8082 53.0411 55.7654C53.642 55.594 53.2986 54.7374 52.7406 54.8659C52.7835 54.6946 52.7835 54.5661 52.8265 54.3948C53.8137 54.9944 55.3161 55.1229 56.2175 55.2942C57.3336 55.5512 58.4497 55.8938 59.6086 56.108C61.0681 56.4078 62.5705 56.5791 64.0299 56.7076C66.2621 56.9646 68.5371 57.0931 70.8121 56.8789C72.7438 56.7076 74.6754 56.1508 76.0919 54.7374C76.5212 56.4078 76.9934 58.0782 77.3368 59.7914C77.5943 61.0335 77.6802 62.3184 77.8948 63.6033C77.7231 63.7318 77.6373 63.9888 77.8519 64.203C77.809 64.2886 77.766 64.3743 77.766 64.5028C77.3368 64.5456 76.8646 64.4599 76.3924 64.4171C75.5768 64.3315 74.7613 64.203 73.9028 64.203C71.7136 64.1173 69.5244 64.0316 67.3352 63.946C65.1031 63.8603 62.9139 63.9032 60.6818 63.9888C58.4067 64.0745 56.1317 64.2458 53.8567 64.1601C53.5133 64.1601 53.1269 64.1601 52.8265 64.0745C52.7406 64.0745 52.6118 63.9888 52.4831 63.9888ZM72.1428 74.2253C71.7565 73.54 71.7136 72.6406 71.6706 71.8696C71.5848 70.4991 71.7994 69.0856 70.4687 68.2719C69.8249 67.8864 68.9234 67.8436 68.1937 67.8007C67.3352 67.7579 66.4767 67.7579 65.6611 67.7151C63.4719 67.6294 59.4369 66.6443 59.0935 69.8138C59.0077 70.4134 59.0506 71.013 59.0077 71.5698C58.9218 72.4264 58.3638 72.5978 57.5912 72.7262C56.9044 72.8119 56.1746 72.7262 55.4878 72.8547C54.801 72.9832 54.0284 73.283 53.2986 73.1974C53.5562 71.7411 53.2128 70.2849 53.0411 68.8287C52.9123 67.6294 53.1699 66.4302 53.1269 65.2309C53.8567 65.3166 54.6293 65.2737 55.3161 65.2737C56.561 65.2737 57.8058 65.1452 59.0935 65.1024C61.5832 65.0167 64.0299 64.9739 66.5196 65.0167C68.9664 65.0596 71.3702 65.1881 73.8169 65.2737C75.1905 65.3166 76.7358 65.7877 78.1094 65.5735C78.1094 65.7449 78.1094 65.9162 78.1094 66.0447C78.1094 66.7728 78.0236 67.4581 77.9807 68.1862C77.9377 68.8287 78.1094 69.4711 78.1953 70.1136C78.3241 71.013 78.4528 71.9125 78.367 72.8119C78.3241 73.54 78.0236 74.1825 77.2939 74.4395C76.8646 74.568 76.3495 74.568 75.9202 74.5251C75.4051 74.4823 74.9759 74.568 74.5037 74.6536C73.6023 74.7393 72.5721 75.0819 72.1428 74.2253ZM79.9981 90.9721C78.6245 90.7579 77.2939 90.1154 76.1349 89.4302C75.3622 89.0019 74.7613 88.4022 74.3749 87.6313C74.0745 86.9888 74.2891 86.3035 74.5896 85.6611C74.9759 85.8752 75.5768 85.7896 76.1349 85.7896C76.9075 85.7896 77.5943 85.6611 78.367 85.7896C79.1826 85.9181 79.9981 86.1322 80.8137 86.3892C81.5435 86.6462 82.4449 86.946 82.96 87.5456C83.4322 88.0596 83.3463 88.8734 83.1317 89.5158C82.6595 90.8864 81.2859 91.1862 79.9981 90.9721Z" fill="black"/>
<path d="M77.1646 29.6816C76.3061 30.324 76.3061 31.2663 75.6622 31.9944C74.9325 32.851 74.1598 33.4507 73.1726 33.9646C71.2838 34.9069 69.1376 35.2495 67.0342 35.4637C64.7592 35.6778 62.3983 35.7207 60.1662 35.2067C59.0501 34.9497 58.0199 34.4358 56.9468 33.9646C56.5175 33.7933 56.3458 33.6648 56.0883 33.2793C55.9166 33.0223 55.6161 32.851 55.3156 32.6797C54.7576 32.3799 54.3713 33.2793 54.9293 33.5791C55.3156 33.7505 55.4015 34.0503 55.659 34.3501C55.8737 34.6499 56.4746 34.7784 56.818 34.9497C57.8482 35.4209 58.8784 35.892 59.9945 36.149C62.3125 36.7486 64.8021 36.6201 67.1201 36.406C69.3093 36.1918 71.4985 35.7635 73.473 34.8212C74.4174 34.3929 75.19 33.8361 75.8768 33.108C76.1344 32.851 76.5637 32.4656 76.6924 32.1229C76.9071 31.6518 76.9929 31.1378 77.3363 30.7523C77.4651 30.7523 77.6368 30.6667 77.7226 30.4953L77.8085 30.2812C78.066 29.8101 77.5509 29.3818 77.1646 29.6816Z" fill="black"/>
<path d="M53.5986 25.5698C53.6415 25.3128 53.6844 25.0558 53.7703 24.8417C54.0278 24.2849 53.1264 23.8566 52.8688 24.4562C52.6113 25.0987 52.5684 25.7411 52.5684 26.4264C52.5684 26.9404 53.2981 26.9832 53.5127 26.5549L53.7273 26.1266C53.8561 25.8696 53.7703 25.6983 53.5986 25.5698Z" fill="black"/>
<path d="M70.512 27.6685C70.4691 27.1546 70.2545 26.6406 70.4262 26.1266C70.6408 25.527 69.7823 25.1415 69.5248 25.7411C69.396 26.0838 69.3531 26.4264 69.396 26.7691C69.396 26.9832 69.396 27.1974 69.4818 27.4115C69.5248 27.4544 69.5248 27.54 69.5248 27.5829V27.6257C69.3101 27.8827 69.3531 28.3966 69.7823 28.4823C70.2974 28.6108 70.512 28.0968 70.512 27.6685Z" fill="black"/>
</g>
<defs>
<filter id="filter0_d" x="32" y="0" width="62" height="100" filterUnits="userSpaceOnUse" color-interpolation-filters="sRGB">
<feFlood flood-opacity="0" result="BackgroundImageFix"/>
<feColorMatrix in="SourceAlpha" type="matrix" values="0 0 0 0 0 0 0 0 0 0 0 0 0 0 0 0 0 0 127 0"/>
<feOffset dy="4"/>
<feGaussianBlur stdDeviation="2"/>
<feColorMatrix type="matrix" values="0 0 0 0 0 0 0 0 0 0 0 0 0 0 0 0 0 0 0.1 0"/>
<feBlend mode="normal" in2="BackgroundImageFix" result="effect1_dropShadow"/>
<feBlend mode="normal" in="SourceGraphic" in2="effect1_dropShadow" result="shape"/>
</filter>
</defs>
</svg>
