<svg width="127" height="98" viewBox="0 0 127 98" fill="none" xmlns="http://www.w3.org/2000/svg">
<path opacity="0.7" d="M126.157 40.6817C124.463 44.5421 120.508 44.7099 117.4 43.8707C117.542 44.8778 117.542 46.0527 117.542 46.8919C117.4 50.0809 115.705 52.5985 113.869 54.6126C109.914 59.1444 103.7 60.9906 98.6147 58.473C98.756 61.3263 98.4735 63.6761 96.9198 66.0259C94.9424 68.7114 91.4112 70.3898 88.5863 71.0612C85.6202 71.9004 82.0891 70.7255 79.4054 69.0471C78.558 68.5436 77.8518 67.8722 77.2868 67.2008C76.5806 70.5577 75.5918 73.0753 72.767 74.5859C69.5183 76.4322 65.5635 76.2643 62.1736 75.2573C56.3826 73.5788 51.439 68.3757 50.309 61.4942C49.6028 62.5012 48.7553 63.3404 48.0491 64.0118C45.3655 67.033 41.5519 67.7043 37.8795 68.04C30.8173 68.5436 25.7325 64.5153 22.3426 57.466C19.6589 60.4871 15.1391 61.4942 11.608 60.655C10.7605 60.4871 10.0543 60.1514 9.20683 59.9836C4.96949 57.2981 1.01464 54.2769 0.167174 48.0668C-0.539049 42.1923 1.01464 36.9892 4.40451 33.1288C6.52319 31.2825 9.20684 30.6111 12.0317 30.779C12.0317 30.1076 12.0317 29.4363 12.173 28.597C12.8792 25.0723 15.9866 22.7226 18.529 21.212C23.755 18.3587 32.6535 17.1838 37.1733 22.5547C37.1733 22.3869 37.1733 22.3869 37.3145 22.219C38.0208 20.2049 39.292 18.5265 40.8456 17.0159C43.6705 14.1626 47.9079 12.652 51.5802 11.4771C58.2187 9.46301 66.5522 13.9948 68.6709 21.8834C69.2358 19.5336 71.072 17.5194 72.6257 16.5124C75.4506 14.4983 78.558 13.9948 81.8066 14.834C85.7615 15.841 89.9988 19.5336 90.9875 24.2331C93.1062 19.5336 99.4622 19.8692 103.135 21.7155C105.253 22.8904 107.654 25.0724 108.784 27.9257C110.056 26.2473 113.304 25.5759 114.717 25.5759C118.248 25.408 121.779 26.9186 124.321 29.9398C126.864 32.6253 127.852 37.157 126.157 40.6817Z" fill="#EAF5FB"/>
<g filter="url(#filter0_d)">
<path d="M53.0242 45.8434C53.0242 45.8434 53.9872 50.6329 51.0292 54.3118C48.0712 57.9907 43.875 61.6002 43.875 61.6002L44.2877 62.2249C44.2877 62.2249 46.4203 61.9472 47.1082 62.9884C47.7961 64.0296 48.6216 68.2638 50.8917 68.5415C53.1617 68.8191 56.1885 66.5979 57.0828 66.5285C57.9771 66.5285 59.6281 70.0686 60.4536 70.3462C61.2791 70.6239 62.0358 70.485 63.5491 69.2356C65.0625 67.9862 66.1632 67.5697 67.2638 68.1944C68.3645 68.8191 69.3964 69.9991 71.1849 69.7909C72.9735 69.5133 74.4869 67.6391 74.8996 66.8061C74.8996 66.8061 69.0524 62.0166 67.9518 56.6718C66.9199 51.327 67.6078 46.8846 67.6078 46.8846C67.6078 46.8846 59.8345 49.5223 53.0242 45.8434Z" fill="#F7B7C9"/>
<path d="M60.2461 51.8129C60.2461 51.8129 63.6856 57.0883 65.4742 62.7108C67.2628 68.2638 69.3953 70.138 71.1838 69.8603C72.9724 69.5827 74.8985 66.8756 74.8985 66.8756C74.8985 66.8756 68.8449 63.5437 67.9507 56.7413C67.0564 49.9388 67.6067 46.954 67.6067 46.954L64.4423 47.5093C64.4423 47.3705 64.6487 51.5353 60.2461 51.8129Z" fill="#B98997"/>
<path d="M62.5171 47.3705C74.5985 47.3705 84.3925 38.3581 84.3925 27.2407C84.3925 16.1233 74.5985 7.1109 62.5171 7.1109C50.4356 7.1109 40.6416 16.1233 40.6416 27.2407C40.6416 38.3581 50.4356 47.3705 62.5171 47.3705Z" fill="#FDF0DA"/>
<path d="M83.2228 21.6182C83.2228 21.6182 82.3285 32.3773 76.6189 38.4856C70.1525 45.4269 61.5537 47.9952 52.6797 45.774C52.6797 45.774 71.1156 51.3965 79.1641 40.0821C86.4559 29.9478 83.2228 21.6182 83.2228 21.6182Z" fill="#E2D2BE"/>
<path d="M89.9638 16.7593C89.9638 16.7593 88.6568 24.8806 90.8581 28.4901C93.0594 32.0996 92.9906 34.7373 100.833 34.9455C100.833 34.9455 98.4939 37.2362 96.3614 36.9585C96.3614 36.9585 99.1818 39.9433 102.828 39.2492C102.828 39.2492 99.8009 43.6222 95.1231 42.1645C95.1231 42.1645 95.3983 45.7046 100.695 45.0104C100.695 45.0104 96.7053 50.98 90.4454 49.5223C90.4454 49.5223 91.8212 50.9106 94.0225 51.327C94.0225 51.327 83.6351 53.4094 79.3013 49.1058C76.1369 45.9822 76.756 42.7892 76.756 42.7892C76.756 42.7892 80.1955 40.6374 82.8096 33.8349C85.6988 26.1995 84.5294 21.2712 84.5294 21.2712C84.5294 21.2712 87.2122 20.9241 87.1434 17.2452L89.9638 16.7593Z" fill="#FDB842"/>
<path d="M62.3788 82.0076C62.3788 82.0076 62.1036 85.6171 64.2361 87.3524C66.3686 89.0878 68.226 88.463 68.7763 87.0748C69.3266 85.6865 67.882 84.2983 66.5062 83.0488C65.1992 81.7994 62.3788 82.0076 62.3788 82.0076Z" fill="#FB7E00"/>
<path d="M55.7751 81.8688C55.7751 81.8688 52.3356 80.6193 50.1343 81.8688C47.933 83.1182 46.3508 84.5065 48.0018 85.9642C50.4782 88.1854 55.7751 81.8688 55.7751 81.8688Z" fill="#FB7E00"/>
<path d="M87.2131 18.2864C87.2131 19.8829 85.9061 21.1323 84.3927 21.1323C82.8793 21.1323 81.5723 19.8135 81.5723 18.2864C81.5723 16.6899 82.8793 15.4405 84.3927 15.4405C85.9061 15.4405 87.2131 16.6899 87.2131 18.2864Z" fill="#F7B7C9"/>
<path d="M86.3184 15.3016L89.4139 9.88739L95.0548 15.9957C95.0548 15.9957 88.5885 15.4404 86.9375 17.1064L86.3184 15.3016Z" fill="#B8D9F4"/>
<path d="M81.9841 18.6334C81.9841 18.6334 78.5446 17.4534 75.1738 18.9805L80.1268 27.4489C80.1268 27.4489 82.7408 24.1865 83.3599 22.0347L81.9841 18.6334Z" fill="#B8D9F4"/>
<path d="M56.4629 47.0234C56.4629 47.0234 56.5317 51.3964 60.2464 51.8129C63.8923 52.2294 64.5114 47.4399 64.5114 47.4399C64.5114 47.4399 59.1457 48.5505 56.4629 47.0234Z" fill="#FDF0DA"/>
<path d="M52.3356 5.58379C52.3356 5.58379 45.1126 3.98729 40.0909 9.74858C35.1379 15.5099 36.6513 20.2994 36.6513 20.2994C36.6513 20.2994 37.0641 19.1888 38.0959 18.2864C38.0959 18.2864 36.445 25.2971 41.4667 26.963C41.4667 26.963 42.8425 15.024 52.9547 9.3321C52.9547 9.3321 57.2198 9.54034 63.9613 16.9675C63.9613 16.9675 64.9931 15.5099 65.2683 14.3993C65.2683 14.3993 66.9193 16.3428 67.1256 19.1193C67.1256 19.1193 69.2581 18.1476 69.8085 16.6205C69.8085 16.6205 71.1843 18.564 71.8034 20.6464C71.8034 20.6464 73.592 20.0911 74.2799 18.3558L78.3385 17.384L82.0532 18.7029L81.7781 16.4122L82.6036 15.5099L86.0431 15.0934L88.382 12.8028C88.382 12.8028 83.9106 3.15434 73.592 0.724879C59.9714 -2.39871 52.3356 5.58379 52.3356 5.58379Z" fill="#FDB842"/>
<path d="M53.0237 45.8434C52.9549 46.3293 52.9549 46.8152 52.9549 47.3705C52.9549 47.8564 52.8861 48.3423 52.8173 48.8282C52.7485 49.2446 52.6797 49.7305 52.5421 50.147C52.4046 50.6329 52.267 51.0494 52.1294 51.4659C51.5791 52.6459 50.96 53.8259 50.2033 54.8671C49.5841 55.6307 48.965 56.2554 48.2771 56.9495C47.9332 57.2966 47.658 57.6436 47.314 57.9907C47.0389 58.3378 46.6949 58.6848 46.351 58.9625C46.007 59.2401 45.6631 59.5872 45.3191 59.8649C44.9752 60.1425 44.6312 60.4202 44.2872 60.6978C44.0809 60.8366 43.9433 60.9755 43.8057 61.1837C43.6681 61.3225 43.5306 61.4614 43.393 61.6002C43.2554 61.6696 43.1178 61.8084 43.1178 62.0167C43.049 62.2249 43.1178 62.4331 43.2554 62.572C43.393 62.7108 43.5993 62.7802 43.8057 62.7802C44.0121 62.7802 44.1497 62.7802 44.356 62.8496C44.7 62.919 45.0439 62.9884 45.3879 63.0579C45.7319 63.1273 46.0758 63.1273 46.4198 63.2661C46.4886 63.2661 46.5573 63.3355 46.6261 63.4049C46.6949 63.4743 46.7637 63.5437 46.8325 63.6132C47.1077 63.9602 47.2453 64.3767 47.4516 64.7932C47.658 65.2097 47.9332 65.6261 48.1395 66.0426C48.5523 66.8756 48.8962 67.7779 49.6529 68.4721C50.0657 68.8191 50.5472 69.0968 51.0287 69.2356C51.3039 69.305 51.5791 69.305 51.7854 69.3745C51.9918 69.3745 52.1982 69.3745 52.4733 69.3745C52.9549 69.3745 53.4364 69.2356 53.9179 69.0274C54.3995 68.8191 54.881 68.6109 55.3626 68.4027C55.7065 68.1944 56.1193 68.0556 56.4632 67.9168C56.8072 67.7779 57.0823 67.6391 57.4263 67.5003C57.4951 67.5003 57.5639 67.4309 57.6326 67.3615C57.7702 67.2226 57.7702 67.0838 57.7702 66.945C57.7702 66.6673 57.4951 66.3897 57.2199 66.3897C57.0135 66.3897 56.876 66.4591 56.6696 66.4591C56.532 66.5285 56.3944 66.5979 56.2568 66.5979C55.9129 66.7368 55.6377 66.8756 55.2938 67.0144C54.7434 67.292 54.1931 67.5697 53.574 67.8474C53.2988 67.9862 52.9549 68.0556 52.6109 68.125C52.4733 68.125 52.3358 68.125 52.1294 68.125C51.9918 68.125 51.8542 68.125 51.7166 68.125C51.4415 68.0556 51.2351 68.0556 50.9599 67.9168C50.7536 67.8474 50.616 67.7085 50.4096 67.5697C50.272 67.4309 50.1345 67.3615 50.0657 67.1532C49.7905 66.8062 49.6529 66.4591 49.4466 66.0426C49.2402 65.6261 49.0338 65.2097 48.8274 64.7932C48.6899 64.5849 48.6211 64.3767 48.4835 64.1685C48.3459 63.9602 48.2771 63.752 48.1395 63.5437C48.0707 63.3355 47.9332 63.1273 47.7956 62.919C47.658 62.7108 47.4516 62.5026 47.1765 62.2943C46.6949 61.9472 46.1446 61.9472 45.5943 61.8084C45.3191 61.739 45.1127 61.739 44.8376 61.6696C44.9064 61.6002 44.9064 61.6002 44.9752 61.5308C45.3191 61.1837 45.6631 60.906 46.007 60.6284C46.351 60.3507 46.6949 60.0037 47.0389 59.726C47.3828 59.379 47.7268 59.1013 48.0019 58.7542C48.3459 58.4072 48.6211 58.0601 48.965 57.6436C49.2402 57.2966 49.5841 56.9495 49.9281 56.6024C50.272 56.2554 50.616 55.8389 50.8912 55.4224C51.1663 55.0059 51.4415 54.6589 51.7166 54.2424C51.9918 53.8259 52.1982 53.4094 52.4046 52.993C52.6109 52.5765 52.8173 52.0906 53.0237 51.6047C53.23 51.1882 53.2988 50.7023 53.4364 50.2858C53.574 49.8 53.6428 49.3141 53.7116 48.8282C53.7804 48.3423 53.7804 47.8564 53.7804 47.3011C53.7804 46.8152 53.8492 46.2599 53.8492 45.774C53.8492 45.6352 53.7116 45.4963 53.574 45.4963C53.1613 45.5658 53.0237 45.7046 53.0237 45.8434ZM50.2033 54.9365C50.2033 54.9365 50.1345 54.9365 50.2033 54.9365C50.1345 54.9365 50.2033 54.9365 50.2033 54.9365Z" fill="#1C1C1C"/>
<path d="M56.9443 66.4591C56.6692 66.4591 56.394 66.5285 56.1188 66.5979C55.9125 66.6673 55.7749 66.6673 55.5685 66.7367C55.2934 66.8061 55.1558 67.0838 55.2246 67.3614C55.2934 67.6391 55.5685 67.7779 55.8437 67.7085C56.0501 67.6391 56.2564 67.6391 56.4628 67.5697C56.6692 67.5697 56.9443 67.5697 57.1507 67.5697C57.2883 67.5697 57.3571 67.6391 57.4947 67.6391C57.5634 67.7085 57.6322 67.7085 57.701 67.7779C57.8386 67.8473 57.9074 67.9862 58.045 68.125C58.1826 68.3332 58.3201 68.472 58.3889 68.6803C58.5265 68.8885 58.6641 69.0274 58.7329 69.2356C58.8705 69.4438 59.0081 69.6521 59.1456 69.8603C59.2832 70.0685 59.4208 70.2768 59.5584 70.485C59.6272 70.6238 59.696 70.6933 59.8335 70.8321C60.0399 71.0403 60.2463 71.1792 60.5214 71.2486C60.659 71.2486 60.7966 71.318 60.8654 71.318C61.0718 71.3874 61.2781 71.3874 61.5533 71.3874C61.8973 71.3874 62.1724 71.2486 62.4476 71.1097C62.7228 70.9709 62.9291 70.7627 63.1355 70.6239C63.4795 70.3462 63.7546 70.0685 64.0298 69.7909C64.3049 69.5827 64.5801 69.305 64.8553 69.0968C65.0616 68.9579 65.3368 68.8191 65.5432 68.6803C65.6808 68.6109 65.8871 68.5415 66.0247 68.5415C66.1623 68.5415 66.2311 68.5415 66.3687 68.5415C66.5062 68.5415 66.575 68.6109 66.7126 68.6109C66.919 68.7497 67.1254 68.8191 67.3317 69.0274C67.6757 69.305 68.0196 69.6521 68.4324 69.8603C68.6388 69.9991 68.8451 70.0685 69.1203 70.0685C69.3955 70.138 69.6018 70.138 69.877 70.2074C70.0834 70.2074 70.2897 70.2768 70.4961 70.2768C70.7025 70.2768 70.9089 70.2768 71.1152 70.2768C71.5968 70.2074 72.0783 70.138 72.491 69.8603C72.6974 69.7909 72.835 69.6521 72.9726 69.5132C73.1789 69.3744 73.3165 69.2356 73.5229 69.0968C73.7981 68.8191 74.142 68.472 74.3484 68.125C74.6236 67.7085 74.8299 67.2226 74.8987 66.7367C74.8987 66.5979 74.8987 66.4591 74.7611 66.3897C74.6236 66.3202 74.4172 66.3202 74.3484 66.5285C74.2108 66.7367 74.0732 67.0144 74.0044 67.2226C73.9356 67.4309 73.7981 67.5697 73.6605 67.7779C73.4541 67.9862 73.2477 68.1944 73.0414 68.3332C72.835 68.4721 72.6974 68.5415 72.491 68.6803C72.2847 68.8191 72.1471 68.8885 71.9407 69.0274C71.7343 69.0968 71.528 69.1662 71.3904 69.1662C71.0464 69.2356 70.6337 69.1662 70.2897 69.1662C70.1522 69.1662 70.0146 69.0968 69.877 69.0968H69.9458C69.6706 69.0273 69.3955 68.9579 69.1203 68.8885C68.9139 68.8191 68.7763 68.6803 68.57 68.5415C68.226 68.2638 67.8133 67.9167 67.4005 67.7085C67.1254 67.5697 66.7814 67.4309 66.4375 67.4309C66.1623 67.4309 65.8871 67.4309 65.612 67.5003C65.1304 67.6391 64.6489 67.8473 64.2361 68.1944C63.8234 68.4721 63.4795 68.8191 63.0667 69.1662C62.9291 69.305 62.7915 69.3744 62.654 69.5132C62.5164 69.6521 62.3788 69.7215 62.1724 69.8603C62.0348 69.9297 61.8973 69.9991 61.7597 70.0685C61.6909 70.0685 61.6221 70.138 61.4845 70.138H61.4157C61.3469 70.138 61.2094 70.0685 61.1406 70.0685C61.0718 70.0685 60.9342 69.9991 60.8654 69.9991C60.7966 69.9297 60.7966 69.9297 60.7278 69.8603C60.5902 69.7215 60.5214 69.5132 60.3839 69.305C60.2463 69.0968 60.1087 68.8885 59.9023 68.6109C59.7648 68.4026 59.6272 68.2638 59.4896 68.0556C59.2832 67.8473 59.1456 67.5697 58.9393 67.3614C58.8017 67.1532 58.5953 66.945 58.3889 66.8061C58.2514 66.7367 58.1138 66.6673 57.9762 66.5979C57.8386 66.5285 57.701 66.5285 57.4947 66.4591C57.4259 66.4591 57.2883 66.4591 57.2195 66.4591C57.1507 66.3897 57.0819 66.3897 56.9443 66.4591Z" fill="#1C1C1C"/>
<path d="M74.5555 67.7085C74.6242 67.7779 75.3809 66.945 74.693 65.9038C74.693 65.9038 74.4179 65.6261 74.3491 65.6261C74.1427 65.4873 74.0051 65.2791 73.7988 65.1402C73.5924 64.932 73.386 64.7238 73.1796 64.5155C72.8357 64.099 72.4229 63.6826 72.079 63.1967C71.5975 62.5025 71.1159 61.8084 70.7032 61.0449C70.4968 60.6978 70.2904 60.2813 70.0841 59.9343C69.8777 59.5178 69.6713 59.1707 69.4649 58.7542C69.121 57.9213 68.8458 57.0883 68.5707 56.2554C68.4331 55.8389 68.2955 55.353 68.1579 54.9365C68.0203 54.4506 67.9516 54.0341 67.8828 53.5482C67.814 53.1318 67.814 52.7153 67.814 52.2988C67.814 51.8823 67.814 51.3964 67.814 50.98C67.814 50.4941 67.8828 50.0082 67.8828 49.5917C67.8828 49.1752 67.9516 48.6893 68.0203 48.2729C68.0891 47.787 68.2267 47.2317 68.2955 46.7458C68.2955 46.7458 68.2955 46.7458 68.2267 46.7458C68.0203 46.7458 67.814 46.8152 67.5388 46.8152H67.47C67.47 46.8846 67.47 46.954 67.4012 47.0928C67.3324 47.3705 67.2636 47.6481 67.1949 47.9258C67.0573 48.5505 66.9885 49.1752 66.9197 49.8693C66.8509 50.4941 66.7821 51.1188 66.7133 51.7435C66.7133 52.0212 66.6445 52.3682 66.6445 52.6459C66.6445 52.9235 66.6445 53.2706 66.6445 53.5482C66.6445 53.8259 66.7133 54.173 66.7133 54.4506C66.7821 54.7977 66.7821 55.1448 66.8509 55.4918C66.9197 55.7695 66.9885 56.1165 67.0573 56.3942C67.1261 56.6718 67.1949 57.0189 67.2636 57.2966C67.4012 57.8519 67.6076 58.4766 67.814 59.0319C67.9516 59.3789 68.0891 59.726 68.2267 60.0037C68.3643 60.2813 68.5019 60.559 68.6395 60.8366C68.9146 61.3919 69.121 61.8778 69.3962 62.3637C69.6713 62.919 70.0153 63.4049 70.3592 63.8908C70.5656 64.1685 70.772 64.5155 71.0471 64.7932C71.2535 65.0014 71.3911 65.2791 71.5975 65.4873C71.8038 65.6955 72.0102 65.9732 72.2166 66.1814C72.4917 66.4591 72.7669 66.6673 73.0421 66.8756C73.3172 67.0838 73.5924 67.2226 73.8675 67.4309C74.2803 67.5697 74.4179 67.6391 74.5555 67.7085Z" fill="#1C1C1C"/>
<path d="M56.601 66.5979C56.3947 66.8062 56.2571 66.945 56.0507 67.1532C55.8443 67.3615 55.7068 67.5697 55.5692 67.8474C55.294 68.3332 55.0876 68.8191 54.8813 69.3744C54.7437 69.8603 54.6061 70.3462 54.5373 70.8321C54.4685 71.3874 54.3997 71.8733 54.3309 72.4286C54.2621 72.9145 54.2621 73.4698 54.2621 73.9557C54.2621 74.511 54.1934 74.9969 54.1934 75.5522C54.1934 76.0381 54.1934 76.524 54.1934 77.0793C54.1934 77.5652 54.2621 78.1205 54.2621 78.6064C54.2621 79.3005 54.3309 79.9946 54.3309 80.6888C54.3309 81.0358 54.3309 81.3829 54.3997 81.73C54.3997 81.8688 54.4685 82.077 54.4685 82.2159C54.4685 82.2853 54.4685 82.2853 54.4685 82.3547C54.4685 82.4935 54.4685 82.5629 54.5373 82.7018C54.6061 82.7712 54.6749 82.91 54.7437 82.9794C54.8813 83.0488 55.0188 83.0488 55.2252 83.0488C55.3628 82.9794 55.5004 82.8406 55.5692 82.7018C55.5692 82.6323 55.5692 82.5629 55.5692 82.4935C55.5692 82.4241 55.5692 82.2853 55.5692 82.2159C55.5692 82.077 55.5692 81.9382 55.5692 81.8688C55.5692 81.6606 55.5692 81.3829 55.5692 81.1747C55.5692 80.6888 55.5692 80.1335 55.5692 79.6476C55.5692 78.6064 55.5004 77.6346 55.5004 76.5934C55.5004 75.5522 55.5004 74.511 55.5004 73.4698C55.5004 72.9839 55.5004 72.498 55.5004 72.0121C55.5004 71.5263 55.5692 71.0404 55.638 70.5545C55.7068 69.9992 55.8443 69.4439 56.0507 68.8886C56.1883 68.4721 56.3947 68.125 56.6698 67.7779C56.8074 67.5697 57.0138 67.3615 57.2202 67.2226C57.3577 67.0838 57.3577 66.8062 57.2202 66.6673C57.1514 66.5979 57.0138 66.5285 56.945 66.5285C56.7386 66.4591 56.6698 66.4591 56.601 66.5979Z" fill="#1C1C1C"/>
<path d="M62.5168 69.8603C62.3792 69.9297 62.2416 69.9991 62.1728 70.1379C61.9665 70.485 61.8289 70.9015 61.7601 71.318C61.6913 71.7345 61.6225 72.0815 61.6225 72.498C61.5537 73.1921 61.5537 73.8863 61.5537 74.6498C61.5537 75.3439 61.5537 76.0381 61.5537 76.8016C61.5537 77.4957 61.6225 78.1899 61.6225 78.884C61.6225 79.5087 61.6913 80.1334 61.6913 80.7582C61.6913 81.0358 61.7601 81.3135 61.7601 81.6605C61.8289 82.077 61.8289 82.4935 62.0352 82.8406C62.1728 83.1182 62.5168 83.257 62.7919 83.1876C63.0671 83.1182 63.2735 82.8406 63.2735 82.4935C63.2735 82.3547 63.2735 82.1464 63.2735 82.0076C63.2735 81.7994 63.2735 81.6605 63.2047 81.4523C63.2047 81.1052 63.1359 80.7582 63.1359 80.4805C63.0671 79.7864 63.0671 79.0228 62.9983 78.3287C62.9295 76.9404 62.8607 75.5522 62.8607 74.1639C62.8607 73.4004 62.8607 72.6368 62.9295 71.8733C62.9983 71.5956 63.0671 71.3874 63.1359 71.1097C63.2047 71.0403 63.2047 70.9709 63.2735 70.9015C63.3423 70.7627 63.4111 70.5544 63.3423 70.4156C63.2735 70.2768 63.2047 70.138 63.0671 70.0685C62.9983 69.9991 62.8607 69.9991 62.7232 69.9991C62.5856 69.7909 62.5856 69.7909 62.5168 69.8603Z" fill="#1C1C1C"/>
<path d="M50.341 80.9664C49.997 81.0358 49.6531 81.2441 49.3091 81.3829C48.9652 81.5217 48.69 81.73 48.3461 81.9382C48.0021 82.1465 47.6582 82.4241 47.383 82.7018C47.2454 82.8406 47.1078 83.0488 46.9702 83.2571C46.8327 83.4653 46.7639 83.6735 46.6263 83.8818C46.4887 84.2289 46.4199 84.6453 46.4199 84.9924C46.4199 85.2006 46.4199 85.4089 46.4887 85.5477C46.5575 85.8254 46.6951 86.103 46.9015 86.3807C47.1078 86.6583 47.4518 86.936 47.7957 87.0748C48.0021 87.1442 48.1397 87.2136 48.3461 87.283C48.5524 87.3525 48.8276 87.3525 49.034 87.4219C49.3779 87.4913 49.7219 87.4219 50.0658 87.3524C50.2722 87.3524 50.5474 87.283 50.7537 87.2136C50.9601 87.1442 51.0977 87.1442 51.3041 87.0748C51.7168 86.936 52.1296 86.7277 52.5423 86.5195C52.955 86.3112 53.299 86.0336 53.6429 85.7559C54.1933 85.3395 54.5372 84.7842 54.95 84.2289C55.2939 83.743 55.5691 83.1876 55.8443 82.6323C55.9818 82.3547 55.9818 82.0076 55.7067 81.73C55.4315 81.4523 55.0188 81.4523 54.6748 81.73L54.606 81.7994C54.3309 81.5217 53.9869 81.3135 53.6429 81.1053C53.299 80.9664 52.8863 80.8276 52.4735 80.7582C52.1296 80.6888 51.7856 80.6888 51.4416 80.6888C51.1665 80.8276 50.7537 80.8276 50.341 80.9664ZM52.8863 82.0076C53.0926 82.0076 53.2302 82.077 53.4366 82.1465C53.5742 82.2159 53.643 82.2853 53.7805 82.3547C53.8493 82.4241 53.9869 82.4935 54.0557 82.6323C54.0557 82.6323 54.1245 82.6323 54.1245 82.7018C54.0557 82.8406 53.9181 82.9794 53.8493 83.1182C53.5054 83.6041 53.0926 84.0206 52.6111 84.3677C52.3359 84.5759 51.992 84.7842 51.7168 84.923C51.4416 85.0618 51.0977 85.2006 50.7537 85.3395C50.4098 85.4783 49.997 85.5477 49.5843 85.6171C49.3779 85.6171 49.1028 85.6865 48.8964 85.6171C48.7588 85.6171 48.69 85.5477 48.6212 85.5477C48.5524 85.4783 48.4149 85.4089 48.3461 85.4089L48.2773 85.3395C48.2773 85.2701 48.2085 85.2701 48.2085 85.2006C48.2085 85.1312 48.1397 85.0618 48.1397 84.9924C48.1397 84.923 48.1397 84.8536 48.1397 84.7842C48.1397 84.5759 48.2085 84.4371 48.2773 84.2289C48.3461 84.09 48.4149 83.9512 48.4836 83.8818C48.69 83.6041 48.9652 83.3959 49.2403 83.1877C49.7219 82.8406 50.2034 82.5629 50.7537 82.2853C50.8913 82.2159 51.0977 82.1465 51.2353 82.1465C51.3729 82.077 51.5792 82.077 51.7168 82.077C52.0608 82.0076 52.4735 81.9382 52.8863 82.0076Z" fill="#1C1C1C"/>
<path d="M61.6222 81.5911C61.6222 81.9382 61.691 82.2853 61.691 82.6323C61.691 83.0488 61.691 83.3959 61.7598 83.8124C61.8286 84.09 61.8286 84.4371 61.9661 84.7147C62.0349 85.0618 62.1725 85.3394 62.3789 85.6865C62.7228 86.3112 63.1356 86.8665 63.5483 87.3524C63.7547 87.6301 64.0299 87.8383 64.305 88.0465C64.4426 88.1854 64.649 88.3242 64.7866 88.3936C64.9929 88.5324 65.1993 88.6019 65.4057 88.6713C65.7496 88.8101 66.0248 88.8795 66.3687 88.9489C66.5751 89.0183 66.7127 89.0183 66.9191 89.0183C67.1254 89.0183 67.3318 88.9489 67.5382 88.9489C67.6758 88.9489 67.8133 88.8795 67.8821 88.8101C67.9509 88.8101 68.0197 88.7407 68.0885 88.6713C68.2261 88.6019 68.2949 88.5324 68.3637 88.463C68.5012 88.3242 68.7076 88.1854 68.7764 87.9771C68.9828 87.6301 69.1892 87.283 69.2579 86.8665C69.3267 86.4501 69.3267 86.0336 69.2579 85.6171C69.2579 85.4783 69.1204 85.27 69.0516 85.1312C68.9828 85.0618 68.9828 84.923 68.914 84.8536C68.8452 84.7147 68.7764 84.5759 68.6388 84.3677C68.2949 83.8124 67.8133 83.2571 67.3318 82.8406C67.1254 82.7018 66.9879 82.5629 66.7815 82.4241C66.5751 82.2853 66.3687 82.2159 66.1624 82.1464C65.8184 82.0076 65.4745 81.8688 65.1305 81.73C64.7866 81.5912 64.4426 81.4523 64.0986 81.3135C63.8235 81.2441 63.5483 81.1747 63.2732 81.1747C63.0668 81.1747 62.8604 81.2441 62.7228 81.3135C62.7228 81.2441 62.654 81.1747 62.5852 81.1053C62.4477 80.9664 62.3101 80.9664 62.1725 80.9664C61.8973 81.0358 61.5534 81.2441 61.6222 81.5911ZM63.4107 82.8406C63.8235 82.91 64.305 83.0488 64.7178 83.1876C65.1305 83.3265 65.612 83.4653 66.0248 83.6041C66.2312 83.7429 66.4375 83.8818 66.6439 84.0206C66.7815 84.1594 66.9879 84.2983 67.1254 84.4371C67.263 84.5759 67.4006 84.7147 67.5382 84.8536C67.7446 85.1312 67.8821 85.4089 68.0885 85.7559C68.0885 85.8253 68.1573 85.8948 68.1573 86.0336C68.1573 86.1724 68.1573 86.3112 68.1573 86.5195C68.1573 86.6583 68.0885 86.8665 68.0197 87.0054C67.9509 87.0748 67.9509 87.1442 67.8821 87.283C67.8133 87.4218 67.6758 87.4912 67.5382 87.6301C67.4694 87.6995 67.4006 87.6995 67.263 87.7689C67.1942 87.7689 67.1254 87.7689 67.0566 87.8383C66.9879 87.8383 66.9191 87.8383 66.8503 87.8383C66.5063 87.7689 66.1624 87.6301 65.8184 87.4912C65.6808 87.4218 65.4745 87.3524 65.3369 87.2136C65.1993 87.0748 64.9929 86.9359 64.8553 86.7971C64.7178 86.6583 64.5802 86.45 64.4426 86.3112C64.0299 85.7559 63.5483 85.1312 63.2732 84.4371C63.1356 84.0206 62.998 83.5347 62.9292 83.1182C63.0668 83.1182 63.2044 83.0488 63.3419 83.0488C63.3419 82.8406 63.4107 82.8406 63.4107 82.8406ZM65.6808 87.283C65.6808 87.283 65.6808 87.3524 65.6808 87.283C65.6808 87.3524 65.6808 87.283 65.6808 87.283Z" fill="#1C1C1C"/>
<path d="M33.3495 42.3727C33.0743 42.4422 32.7991 42.5116 32.524 42.581C32.1112 42.6504 31.9049 43.1363 32.0424 43.4833C32.1112 43.6916 32.18 43.8304 32.3864 43.8998C32.5928 43.9692 32.7304 44.0386 32.9367 43.9692C33.2119 43.8998 33.4871 43.8304 33.7622 43.8304C34.0374 43.8304 34.2438 43.8304 34.5189 43.8304C34.7253 43.8304 34.9317 43.8998 35.138 43.9692C35.2068 43.9692 35.3444 44.0387 35.4132 44.0387C35.6196 44.1081 35.8259 44.1081 36.0323 44.0387C36.2387 43.9692 36.4451 43.8304 36.5138 43.5528C36.5826 43.2751 36.4451 42.9975 36.2387 42.7892C36.1699 42.7892 36.1699 42.7198 36.1011 42.7198C36.0323 42.6504 35.8947 42.6504 35.7571 42.581C35.6196 42.581 35.482 42.5116 35.3444 42.5116C35.0004 42.4421 34.7253 42.3727 34.3813 42.3727C34.2438 42.3727 34.175 42.3727 34.0374 42.3727C33.7622 42.3033 33.5558 42.3033 33.3495 42.3727Z" fill="#1C1C1C"/>
<path d="M32.5244 39.2492C32.3868 39.3186 32.2492 39.4574 32.2492 39.5962C32.1804 39.735 32.2492 39.9433 32.318 40.0821C32.3868 40.2209 32.5244 40.3598 32.7307 40.3598C33.0747 40.4292 33.3498 40.4292 33.6938 40.4986C33.8314 40.4986 33.969 40.568 34.1753 40.568C34.3129 40.568 34.3817 40.6374 34.5193 40.7068C34.7257 40.7762 34.932 40.9151 35.1384 41.0539C35.2072 41.1233 35.2072 41.1233 35.276 41.1927C35.3448 41.2621 35.4824 41.3315 35.6199 41.401C35.7575 41.401 35.8263 41.401 35.9639 41.401C36.1015 41.401 36.1703 41.3315 36.2391 41.1927C36.4454 41.0539 36.4454 40.7762 36.3078 40.568C36.2391 40.4986 36.1703 40.3598 36.0327 40.3598C35.6887 40.0127 35.276 39.735 34.8632 39.5268C34.3129 39.2492 33.6938 39.2491 33.0747 39.1103C33.0059 39.1103 32.9371 39.1103 32.8683 39.1103C32.7307 39.1797 32.5932 39.1797 32.5244 39.2492Z" fill="#1C1C1C"/>
<path d="M34.7939 35.9173C34.6563 35.9867 34.5875 36.1256 34.5187 36.2644C34.4499 36.4032 34.5187 36.542 34.5875 36.6809C34.7251 36.8891 34.8627 37.0279 35.0691 37.1667C35.2754 37.3056 35.413 37.4444 35.5506 37.6526C35.8258 38.0691 36.0321 38.4856 36.2385 38.9021C36.3073 39.1103 36.3761 39.3185 36.4449 39.5268C36.5825 39.8738 36.8576 40.0821 37.2016 39.9433C37.5455 39.8738 37.7519 39.5268 37.6143 39.1797C37.5455 38.9021 37.4079 38.6244 37.3391 38.3468C37.1328 37.8609 36.9264 37.4444 36.6512 37.0279C36.5137 36.8197 36.3073 36.6114 36.1697 36.4032C36.0321 36.2644 35.8945 36.195 35.8258 36.1256C35.757 36.0561 35.6194 35.9867 35.5506 35.9867C35.413 35.8479 35.2754 35.8479 35.1378 35.8479C34.9315 35.7785 34.8627 35.8479 34.7939 35.9173ZM37.3391 38.3468C37.3391 38.4162 37.3391 38.4162 37.4079 38.4856C37.3391 38.4162 37.3391 38.4162 37.3391 38.3468Z" fill="#1C1C1C"/>
<path d="M63.8236 47.4399C63.8236 47.5093 63.8236 47.5787 63.7548 47.6481C63.686 48.0646 63.5484 48.4811 63.3421 48.8976C63.1357 49.314 62.9293 49.7305 62.6541 50.0776C62.4478 50.2858 62.3102 50.4941 62.035 50.7023C61.8974 50.7717 61.7599 50.9106 61.6223 50.98C61.4159 51.0494 61.1408 51.1188 60.9344 51.1188C60.7968 51.1188 60.5904 51.1188 60.4528 51.1188C60.3153 51.1188 60.1089 51.1188 59.9713 51.0494C59.6961 50.98 59.4898 50.98 59.2146 50.8411C58.8707 50.7023 58.5267 50.4941 58.2515 50.2858C58.114 50.2164 58.0452 50.0776 57.9076 49.9388C57.6324 49.5223 57.3573 49.1058 57.1509 48.6199C57.0133 48.2729 56.8757 47.8564 56.8069 47.5093C56.8069 47.3011 56.8069 47.1622 56.8069 46.954C56.8069 46.8846 56.8069 46.8152 56.8757 46.7458C56.6006 46.6763 56.3254 46.6069 56.0502 46.6069C55.9814 46.8152 55.9814 47.0234 55.9814 47.2317C55.9814 47.5093 55.9814 47.787 56.0502 48.0646C56.119 48.6199 56.3254 49.1058 56.5318 49.5917C56.7381 50.147 57.0133 50.6329 57.426 51.0494C57.6324 51.2576 57.9076 51.4659 58.1828 51.6047C58.4579 51.8129 58.7331 51.9518 59.0082 52.0212C59.2834 52.0906 59.4898 52.16 59.7649 52.2294C60.1089 52.2988 60.3841 52.2988 60.728 52.2988C61.072 52.2988 61.3471 52.2294 61.6223 52.16C61.9662 52.0906 62.2414 52.0212 62.5166 51.8129C62.6541 51.7435 62.7229 51.6741 62.8605 51.6047C62.9981 51.4659 63.1357 51.3964 63.2733 51.2576C63.4796 51.0494 63.686 50.7717 63.8924 50.5635C64.2363 50.0776 64.4427 49.5917 64.6491 49.0364C64.7179 48.8282 64.7867 48.6199 64.8554 48.4811C64.9242 48.2034 64.993 47.9258 64.993 47.6481C64.993 47.5787 64.993 47.4399 64.993 47.3705C64.5803 47.4399 64.1675 47.4399 63.8236 47.4399Z" fill="#1C1C1C"/>
<path d="M78.2007 17.3146C77.6504 17.3146 77.1 17.384 76.5497 17.4534C75.9306 17.5228 75.3803 17.5923 74.8299 17.8005C74.7611 17.8699 74.6236 17.8699 74.5548 17.9393C74.4172 18.0087 74.2796 18.1476 74.2108 18.2864C74.142 18.4252 74.0732 18.564 74.0732 18.7723C74.0732 18.9805 74.142 19.2582 74.2108 19.4664C74.3484 19.7441 74.486 19.9523 74.6236 20.23C74.8987 20.7158 75.2427 21.2017 75.5866 21.6876C75.9306 22.1735 76.2058 22.6594 76.5497 23.1453C76.8937 23.6312 77.2376 24.1171 77.5816 24.603C78.2695 25.5748 78.8198 26.6159 79.7829 27.3101C79.9204 27.3795 79.9892 27.4489 80.1268 27.5183C80.2644 27.5877 80.402 27.5183 80.5396 27.5183C80.6084 27.5183 80.6771 27.4489 80.7459 27.4489C80.8147 27.3795 80.9523 27.3101 81.0211 27.2407C81.0899 27.1713 81.1587 27.0324 81.2275 26.963C81.2963 26.8936 81.2963 26.8242 81.3651 26.8242C81.4338 26.6854 81.5026 26.6159 81.5714 26.4771C81.8466 25.9912 82.1217 25.5053 82.4657 25.0194C82.8784 24.3253 83.2224 23.5618 83.5664 22.8676C83.6351 22.7288 83.6351 22.59 83.6351 22.4512C83.5664 22.3123 83.4976 22.2429 83.4288 22.1735C83.2224 22.0347 82.8784 22.1041 82.7409 22.3818C82.5345 22.7288 82.3969 23.1453 82.1905 23.4924C81.9842 23.8394 81.7778 24.1865 81.6402 24.5336C81.2963 25.1583 80.8835 25.8524 80.4708 26.4771C80.3332 26.3383 80.2644 26.2689 80.1268 26.1301C79.9892 25.9912 79.9204 25.8524 79.7829 25.7136C79.4389 25.2971 79.1638 24.8112 78.8886 24.3253C78.6134 23.8394 78.2007 23.423 77.9255 22.9371C77.5816 22.4512 77.3064 21.8959 76.9624 21.41C76.6185 20.9241 76.3433 20.4382 75.9994 19.9523C75.8618 19.8135 75.793 19.6052 75.6554 19.4664C75.5866 19.3276 75.4491 19.1888 75.3803 19.0499C75.7242 18.9111 76.137 18.8417 76.5497 18.7723C76.8249 18.7723 77.0312 18.7029 77.3064 18.7029C77.5816 18.7029 77.7879 18.6334 78.0631 18.6334C78.5446 18.6334 79.095 18.6335 79.5765 18.7029C79.8517 18.7723 80.1268 18.8417 80.4708 18.9111C80.8147 18.9805 81.1587 19.1193 81.4338 19.2582C81.709 19.3276 82.053 19.1193 82.1217 18.8417C82.1905 18.564 82.053 18.217 81.709 18.1476C81.4338 18.0781 81.1587 17.9393 80.8835 17.8699C80.6084 17.8005 80.3332 17.7311 80.058 17.6617C79.3701 17.384 78.8198 17.3146 78.2007 17.3146C78.2695 17.3146 78.2007 17.3146 78.2007 17.3146ZM75.1051 18.9805C75.1051 19.0499 75.1051 19.0499 75.1051 18.9805C75.1051 19.0499 75.1051 19.0499 75.1051 18.9805Z" fill="#1C1C1C"/>
<path d="M84.8053 14.7463C84.6677 14.7463 84.5301 14.8157 84.3925 14.8852C84.3237 14.9546 84.2549 15.024 84.2549 15.0934C84.1862 15.024 84.1862 15.024 84.1174 15.024C83.9798 15.024 83.7734 14.9546 83.6358 14.9546C83.4983 14.9546 83.2919 14.9546 83.1543 15.024C82.9479 15.0934 82.6728 15.2322 82.4664 15.371C82.3288 15.4405 82.1912 15.5793 82.1224 15.6487C81.9161 15.8569 81.7785 16.0652 81.6409 16.2734C81.3657 16.7593 81.2282 17.3146 81.2282 17.8699C81.1594 18.4252 81.2282 18.9805 81.3657 19.5358C81.4345 19.6747 81.5033 19.8135 81.5721 19.9523C81.6409 20.0911 81.7097 20.1605 81.7785 20.2994C81.9849 20.6464 82.26 20.8547 82.5352 21.0629C82.7416 21.2017 82.9479 21.3406 83.2231 21.4794C83.3607 21.5488 83.567 21.6182 83.7046 21.6182C83.9798 21.6876 84.3237 21.6876 84.5989 21.6182C84.7365 21.6182 84.8053 21.5488 84.9429 21.5488C85.1492 21.4794 85.2868 21.41 85.4244 21.3406C85.6308 21.2712 85.8371 21.1323 86.0435 20.9935C86.3187 20.7853 86.525 20.577 86.7314 20.2994C86.9378 20.0217 87.0066 19.7441 87.1442 19.4664C87.213 19.2582 87.2817 18.9805 87.3505 18.7029C87.4193 18.4252 87.4881 18.1476 87.4881 17.8699C87.4881 17.5228 87.4881 17.2452 87.4193 16.8981C87.4193 16.7593 87.3505 16.6205 87.2817 16.4816C87.2129 16.1346 87.0066 15.8569 86.8002 15.6487C86.6626 15.4405 86.4563 15.3016 86.2499 15.0934C86.1123 14.9546 85.9747 14.8851 85.9059 14.8157C85.6308 14.6075 85.2868 14.5381 84.9429 14.5381C84.9429 14.7463 84.8741 14.7463 84.8053 14.7463ZM84.2549 15.7875C84.3237 15.7181 84.3925 15.7181 84.3925 15.6487C84.4613 15.7875 84.6677 15.8569 84.8053 15.8569C84.8741 15.8569 84.8741 15.8569 84.9429 15.8569C85.0116 15.8569 85.0804 15.8569 85.1492 15.9263C85.2868 15.9958 85.3556 16.0652 85.4932 16.1346C85.7683 16.3428 85.9747 16.5511 86.1811 16.7593C86.2499 16.8287 86.2499 16.8981 86.3187 16.9675C86.3875 17.1064 86.3875 17.3146 86.4563 17.4534C86.4563 17.6617 86.4563 17.8699 86.4563 18.0782C86.3875 18.4946 86.2499 18.9111 86.1123 19.3276C86.0435 19.5358 85.9059 19.6747 85.8371 19.8135C85.7683 19.8829 85.6996 19.9523 85.6308 20.0217C85.4244 20.1605 85.218 20.2994 84.9429 20.3688C84.8053 20.4382 84.5989 20.4382 84.4613 20.5076C84.3925 20.5076 84.2549 20.5076 84.1862 20.5076C84.0486 20.5076 83.9798 20.4382 83.8422 20.4382C83.567 20.2994 83.3607 20.1605 83.1543 20.0217C83.0855 19.9523 83.0167 19.8829 82.9479 19.8135C82.8103 19.6052 82.7416 19.4664 82.604 19.2582C82.5352 19.0499 82.4664 18.8417 82.3976 18.6335C82.3976 18.4252 82.3976 18.217 82.3976 18.0087C82.3976 17.8005 82.3976 17.6617 82.4664 17.4534C82.4664 17.3146 82.5352 17.1758 82.5352 17.037C82.5352 16.9675 82.604 16.8287 82.604 16.7593C82.6728 16.6205 82.7416 16.4816 82.8103 16.4122C82.8791 16.2734 83.0167 16.204 83.0855 16.1346C83.0855 16.1346 83.0855 16.1346 83.1543 16.1346C83.1543 16.1346 83.1543 16.1346 83.0855 16.204C83.2231 16.1346 83.2919 16.0652 83.4295 15.9958C83.4983 15.9958 83.567 15.9263 83.6358 15.9263C83.7046 15.9263 83.8422 15.9263 83.911 15.9263H83.9798C84.0486 15.9263 84.0486 15.9263 84.1174 15.9263C84.1174 15.7875 84.1862 15.7875 84.2549 15.7875ZM83.0855 16.0652C83.0167 16.0652 83.0167 16.0652 83.0855 16.0652C83.0167 16.0652 83.0167 16.0652 83.0855 16.0652Z" fill="#1C1C1C"/>
<path d="M89.2767 9.54033C89.1391 9.60974 89.0015 9.74857 88.8639 9.81798C88.6576 10.0262 88.52 10.2345 88.3136 10.4427C88.176 10.6509 88.0385 10.8592 87.8321 11.0674C87.5569 11.4839 87.2818 11.9004 87.0066 12.3169C86.7314 12.7333 86.4563 13.2192 86.2499 13.7051C85.9747 14.2604 85.7684 14.8157 85.562 15.371C85.4244 15.7181 85.6996 16.0652 85.9747 16.1346C86.1123 16.204 86.3187 16.1346 86.4563 16.0652C86.5938 15.9958 86.6626 15.8569 86.7314 15.7181C86.8002 15.4404 86.9378 15.2322 87.0066 14.9546C87.3505 14.1216 87.7633 13.3581 88.2448 12.6639C88.4512 12.3169 88.7264 11.9698 88.9327 11.6227C89.1391 11.2757 89.3455 10.998 89.6206 10.6509C89.9646 10.998 90.3085 11.3451 90.5837 11.6921C90.9965 12.178 91.3404 12.6639 91.7532 13.1498C91.9595 13.3581 92.0971 13.6357 92.3035 13.8439C92.5099 14.0522 92.7162 14.3298 92.9226 14.5381C93.129 14.7463 93.3353 15.024 93.5417 15.2322C93.6105 15.3016 93.6793 15.4404 93.8169 15.5099C93.6105 15.5099 93.4729 15.4404 93.2666 15.4404C92.6474 15.371 92.0283 15.371 91.3404 15.4404C90.6525 15.4404 90.0334 15.5793 89.4143 15.7181C88.7951 15.7875 88.176 15.8569 87.6257 16.0652C87.2818 16.204 87.0066 16.3428 86.6626 16.4816C86.5938 16.5511 86.5251 16.6205 86.4563 16.6899C86.3875 16.8287 86.3187 17.037 86.3875 17.1758C86.4563 17.3146 86.5251 17.4534 86.6626 17.5228C86.8002 17.5923 87.0066 17.6617 87.1442 17.5923C87.4881 17.4534 87.7633 17.384 88.1072 17.2452C88.4512 17.1758 88.7264 17.037 89.0703 17.037C89.6206 16.8981 90.171 16.8287 90.7213 16.7593C91.7532 16.6205 92.8538 16.6899 93.8857 16.7593C94.1608 16.8287 94.436 16.8287 94.7799 16.8981C94.9175 16.8981 95.0551 16.9675 95.1239 16.9675C95.1927 16.9675 95.3303 16.9675 95.3991 16.9675C95.4679 16.9675 95.5366 16.8981 95.5366 16.8981C95.6054 16.8287 95.6742 16.7593 95.743 16.6899C95.8118 16.6205 95.8118 16.5511 95.8118 16.4816C95.8806 16.2734 95.8118 16.1346 95.743 15.9958C95.743 15.9263 95.6742 15.8569 95.6054 15.7875C95.3991 15.5099 95.1927 15.2322 94.9863 14.9546C94.7799 14.7463 94.5736 14.4687 94.3672 14.2604C94.1608 13.9828 94.0232 13.7745 93.8169 13.5663C93.6105 13.3581 93.4041 13.0804 93.1978 12.8722C92.785 12.4557 92.4411 11.9698 92.0971 11.5533C91.6844 11.0674 91.3404 10.5815 90.8589 10.1651C90.6525 9.95681 90.3773 9.74857 90.1022 9.54033C90.0334 9.47092 89.9646 9.47092 89.8958 9.40151C89.827 9.40151 89.7582 9.40151 89.6894 9.33209C89.6894 9.33209 89.6894 9.33209 89.6206 9.33209C89.4831 9.40151 89.3455 9.47092 89.2767 9.54033ZM93.7481 16.7593H93.8169C93.8169 16.7593 93.8169 16.7593 93.7481 16.7593Z" fill="#1C1C1C"/>
<path d="M89.2078 22.1041C89.139 22.4512 89.0702 22.7982 89.0014 23.1453C88.9326 23.4924 88.9326 23.77 88.9326 24.1171C88.9326 24.3947 88.9326 24.7418 89.0014 25.0195C89.0014 25.2971 89.0702 25.6442 89.0702 25.9218C89.139 26.5466 89.2766 27.1713 89.4142 27.8654C89.5517 28.4901 89.6893 29.1148 89.8957 29.6701C89.9645 29.8784 90.0333 30.0866 90.1709 30.2949C90.2396 30.5031 90.3772 30.6419 90.446 30.8502C90.6524 31.1972 90.9275 31.5443 91.1339 31.8219C91.1339 31.8219 91.1339 31.8219 91.2027 31.8914C91.2715 31.9608 91.3403 32.0302 91.4091 32.0996C91.6842 32.4467 91.9594 32.7937 92.2346 33.1408C92.5097 33.4879 92.7849 33.8349 93.1289 34.1126C93.3352 34.3208 93.5416 34.4596 93.748 34.5985C93.9543 34.7373 94.1607 34.8067 94.3671 34.9455C94.5735 35.0844 94.8486 35.1538 95.055 35.2232C95.399 35.362 95.6741 35.5008 96.0181 35.4314C96.0869 35.4314 96.2244 35.4314 96.2932 35.362C96.4308 35.2926 96.4996 35.1538 96.5684 35.015C96.6372 34.7373 96.4996 34.3902 96.1556 34.3208H96.0869C95.7429 34.1126 95.3302 33.9738 94.9862 33.8349C94.6423 33.6961 94.3671 33.4879 94.0231 33.2796C93.6792 32.9326 93.3352 32.5855 92.9913 32.169C92.7161 31.8219 92.3722 31.4055 92.097 31.0584C91.8906 30.7808 91.753 30.5725 91.5467 30.2949C91.4091 30.0172 91.2027 29.7396 91.1339 29.4619C90.9963 29.1843 90.9276 28.9066 90.8588 28.5595C90.79 28.2125 90.6524 27.9348 90.5836 27.5877C90.446 26.963 90.3084 26.2689 90.1709 25.5748C90.1021 24.8112 90.0333 24.0477 90.1021 23.2841C90.1708 23.0065 90.2396 22.7288 90.3084 22.4512C90.3772 22.1735 90.2396 21.8265 89.9645 21.757C89.8957 21.757 89.8957 21.757 89.8269 21.757C89.4829 21.757 89.2766 21.8959 89.2078 22.1041ZM91.3403 32.0302C91.3403 31.9608 91.2715 31.9608 91.2715 31.8914C91.2715 31.9608 91.3403 31.9608 91.3403 32.0302ZM91.1339 31.7525C91.1339 31.7525 91.1339 31.6831 91.1339 31.7525C91.1339 31.6831 91.1339 31.7525 91.1339 31.7525Z" fill="#1C1C1C"/>
<path d="M84.2541 38.4856C84.1165 38.4856 84.0477 38.6244 83.979 38.6938C83.9102 38.8326 83.9102 38.9021 83.9102 39.0409C83.9789 39.388 84.0477 39.6656 84.1165 40.0127C84.1853 40.2903 84.3229 40.6374 84.4605 40.915C84.7356 41.4704 85.0108 42.0257 85.286 42.581C85.9051 43.6222 86.6618 44.5939 87.4873 45.4963C87.6936 45.7046 87.9 45.9128 88.1752 46.121C88.4503 46.3293 88.7255 46.5375 89.0007 46.7458C89.2758 46.8846 89.4822 47.0928 89.7574 47.1622C90.0325 47.3011 90.3765 47.4399 90.6517 47.5093C91.202 47.6481 91.8211 47.787 92.3714 47.8564C92.9905 47.9258 93.6097 48.0646 94.2976 48.0646C94.5727 48.0646 94.8479 48.0646 95.123 48.0646C95.2606 48.0646 95.3294 48.0646 95.467 47.9952C95.6046 47.9258 95.7422 47.787 95.7422 47.6481C95.811 47.5093 95.7422 47.3011 95.6734 47.1622C95.6046 47.0234 95.467 46.8846 95.3294 46.8846C94.7791 46.8152 94.2976 46.8152 93.7472 46.7458C93.2657 46.7458 92.7842 46.6763 92.3026 46.6069C91.9587 46.5375 91.6835 46.5375 91.3396 46.4681C90.9956 46.3987 90.6517 46.3293 90.3077 46.1905C90.1013 46.121 89.895 45.9822 89.6886 45.8434C89.4822 45.7046 89.2758 45.5657 89.1383 45.4269C88.3128 44.7328 87.6249 43.9692 86.9369 43.1363C86.3178 42.3033 85.7675 41.4009 85.286 40.4292C85.2172 40.1515 85.0796 39.9433 85.0108 39.6656C84.942 39.388 84.8732 39.0409 84.8044 38.7632C84.7356 38.555 84.5293 38.4162 84.3229 38.4162C84.3229 38.4856 84.2541 38.4856 84.2541 38.4856Z" fill="#1C1C1C"/>
<path d="M86.1117 49.3834C86.0429 49.314 85.8366 49.1752 85.699 49.2446C85.6302 49.2446 85.5614 49.2446 85.5614 49.2446C84.9423 49.1752 84.2544 49.0364 83.6353 48.967C83.0161 48.8281 82.397 48.6199 81.7779 48.4117C81.5027 48.2728 81.2964 48.2034 81.09 48.0646C80.8836 47.9258 80.6085 47.7869 80.4021 47.5787C80.1957 47.3705 79.9893 47.2316 79.783 47.0234C79.5766 46.8152 79.439 46.6069 79.2326 46.3987C78.7511 45.774 78.3384 45.0798 78.0632 44.3163C78.0632 44.3163 78.0632 44.2469 77.9944 44.2469C77.788 43.8304 77.6505 43.3445 77.5817 42.8586C77.5817 42.6504 77.5817 42.4421 77.5817 42.3033C77.5817 42.2339 77.5817 42.0951 77.5817 42.0256C77.2377 42.0256 76.9625 42.0257 76.6186 41.9562C76.6186 42.0951 76.6186 42.2339 76.5498 42.3727C76.5498 42.5115 76.5498 42.6504 76.5498 42.7198C76.5498 42.8586 76.5498 42.9974 76.6186 43.1363C76.6874 43.761 76.8938 44.3857 77.1689 44.941C77.3753 45.4963 77.6505 46.0516 77.9944 46.6069C78.2008 46.8846 78.4072 47.1622 78.6135 47.4399C78.8199 47.6481 78.9575 47.9258 79.1639 48.134C79.3702 48.3422 79.6454 48.5505 79.9206 48.7587C80.1269 48.967 80.4021 49.1058 80.6085 49.2446C80.9524 49.4529 81.3652 49.6611 81.7779 49.7999C82.1906 49.9387 82.5346 50.0776 82.9473 50.2164C83.3601 50.2858 83.7728 50.3552 84.1856 50.4246C84.3919 50.4246 84.5983 50.494 84.8047 50.494C85.1486 50.494 85.4238 50.4941 85.7678 50.4246C85.8366 50.4246 85.9741 50.3552 86.0429 50.2858C86.1117 50.2164 86.1805 50.0082 86.1805 49.8693C86.1805 49.7305 86.2493 49.4529 86.1117 49.3834Z" fill="#1C1C1C"/>
<path d="M43.9431 10.4427C43.7368 10.5815 43.4616 10.7204 43.2552 10.8592C43.0489 10.9286 42.7737 11.0674 42.5673 11.2062C42.0858 11.5533 41.7418 12.0392 41.3979 12.5251C41.2603 12.7333 41.0539 13.011 40.9164 13.2192C40.7788 13.4275 40.6412 13.6357 40.4348 13.9134C40.1597 14.3993 39.8157 14.8157 39.5405 15.3016C39.2654 15.7875 39.059 16.3428 38.8526 16.8981C38.7838 17.1758 38.715 17.384 38.6463 17.6617C38.5775 18.0087 38.5087 18.2864 38.5087 18.6334C38.4399 19.1888 38.4399 19.6746 38.3711 20.23C38.3711 20.5076 38.3711 20.7853 38.3711 20.9935C38.3711 21.2711 38.3711 21.5488 38.4399 21.8265C38.5087 22.3123 38.5775 22.7982 38.6463 23.2841C38.6463 23.4924 38.715 23.7006 38.7838 23.9088C38.7838 24.0477 38.8526 24.1865 38.9214 24.3253C39.059 24.603 39.3342 24.7418 39.6093 24.7418C39.8157 24.7418 40.0221 24.603 40.0909 24.4641C40.1597 24.3947 40.1597 24.2559 40.1597 24.1865C40.1597 24.1171 40.1597 24.1171 40.1597 24.0477C40.1597 23.9783 40.1597 23.8394 40.0909 23.77C40.0909 23.7006 40.0909 23.6312 40.0221 23.4924C39.9533 23.2841 39.9533 23.0759 39.8845 22.9371C39.8157 22.59 39.7469 22.2429 39.6781 21.8959C39.6781 21.6182 39.6093 21.3406 39.6093 20.9935C39.6093 20.6464 39.6093 20.3688 39.6093 20.0217C39.6093 19.397 39.6093 18.7723 39.6781 18.1476C39.8157 17.384 40.0221 16.6205 40.2972 15.9263C40.5724 15.3016 40.9164 14.7463 41.1915 14.191C41.5355 13.6357 41.8794 13.011 42.2234 12.5251C42.4297 12.3169 42.5673 12.1086 42.8425 11.9004C43.0489 11.7616 43.2552 11.6227 43.4616 11.5533C43.7368 11.4145 43.9431 11.2757 44.1495 11.1368C44.3559 10.998 44.4247 10.7898 44.2871 10.5815C44.2183 10.4427 44.0807 10.3733 43.9431 10.3733C44.0807 10.3733 44.0119 10.3733 43.9431 10.4427Z" fill="#1C1C1C"/>
<path d="M54.0552 6.625C53.5737 6.625 53.1609 6.76383 52.7482 6.83324C52.473 6.90265 52.3355 7.24972 52.4042 7.45795C52.473 7.73561 52.7482 7.87443 53.0234 7.80502C53.2985 7.73561 53.5049 7.6662 53.7801 7.6662C53.9864 7.6662 54.1928 7.6662 54.3304 7.6662C54.468 7.6662 54.6743 7.73561 54.8119 7.73561C55.0183 7.80502 55.2247 7.87443 55.3622 7.94385C55.7062 8.08267 56.0502 8.15209 56.3941 8.29091C56.6005 8.36033 56.8069 8.49915 57.082 8.63798C57.3572 8.7768 57.6323 8.91563 57.9075 9.12387C58.389 9.40152 58.8018 9.74859 59.2145 10.0262C59.5585 10.3039 59.8336 10.5815 60.1776 10.8592C60.4528 11.1368 60.7967 11.4839 61.0719 11.7616C61.347 12.0392 61.691 12.3863 61.9662 12.7333C62.2413 13.011 62.4477 13.3581 62.7229 13.6357C62.8604 13.844 62.998 14.0522 63.2044 14.1216C63.4108 14.2604 63.6171 14.2604 63.8235 14.1216C64.0299 13.9828 64.1675 13.7051 64.0987 13.4275C63.9611 13.011 63.6859 12.7333 63.4108 12.3863C63.0668 11.9004 62.7229 11.4145 62.3101 10.998C61.8974 10.5121 61.4846 10.0957 61.0031 9.67917C60.5216 9.19328 60.04 8.84622 59.4897 8.49915C58.9394 8.15209 58.4578 7.80502 57.9075 7.52737C57.4948 7.31913 57.082 7.11089 56.6693 6.97207C56.2565 6.83324 55.8438 6.69441 55.4998 6.625C54.8807 6.69441 54.468 6.625 54.0552 6.625ZM54.3304 7.73561C54.3992 7.73561 54.3992 7.73561 54.3304 7.73561C54.3992 7.73561 54.3992 7.73561 54.3304 7.73561ZM63.342 12.5945L63.4108 12.6639C63.342 12.5945 63.342 12.5945 63.342 12.5945Z" fill="#1C1C1C"/>
<path d="M61.1409 7.1803C61.0034 7.31913 60.9346 7.52737 60.9346 7.73561C60.9346 7.94385 61.0034 8.15208 61.1409 8.29091C61.4161 8.56856 61.6225 8.84622 61.9664 9.05446C62.2416 9.2627 62.5168 9.40152 62.7919 9.60976C63.2047 9.95683 63.6174 10.3039 63.9614 10.7204C64.3741 11.1369 64.7181 11.5533 65.062 11.9698C65.3372 12.3863 65.6123 12.7334 65.8187 13.2192C66.0251 13.6357 66.2315 14.0522 66.4378 14.4687C66.5754 14.8852 66.713 15.3016 66.7818 15.6487C66.8506 15.8569 66.8506 16.0652 66.9194 16.2734C66.9194 16.3428 66.9194 16.4122 66.9881 16.5511C67.0569 16.8287 67.2633 17.1064 67.5385 17.1758C67.7448 17.1758 67.8824 17.1758 68.0888 17.1064C68.2264 17.037 68.364 16.8287 68.4327 16.6205C68.5015 16.4122 68.4327 16.204 68.4327 15.9958C68.4327 15.7875 68.364 15.6487 68.364 15.4405C68.2952 15.1628 68.2264 14.8157 68.1576 14.5381C67.9512 13.7745 67.6761 13.0804 67.3321 12.3863C67.1945 12.0392 66.9881 11.7616 66.7818 11.4145C66.5754 11.0674 66.3002 10.7204 66.0251 10.3733C65.7499 10.0957 65.4748 9.818 65.1996 9.54035C64.9244 9.26269 64.6493 8.98504 64.3053 8.70739C64.0301 8.49915 63.755 8.29091 63.4798 8.08267C63.2735 7.94385 63.0671 7.80502 62.8607 7.66619C62.6543 7.52737 62.5168 7.31913 62.3104 7.11089C62.1728 6.97206 61.9664 6.90265 61.7601 6.90265C61.4849 6.90265 61.2785 6.97206 61.1409 7.1803Z" fill="#1C1C1C"/>
<path d="M66.7817 7.24971C66.6441 7.52737 66.7129 7.87443 66.9881 8.01326C67.332 8.2215 67.6072 8.42974 67.9511 8.63798C68.2263 8.84622 68.5702 8.98504 68.8454 9.19328C68.983 9.33211 69.1206 9.47093 69.2582 9.54035C69.3957 9.67917 69.5333 9.818 69.6021 9.95683C69.8085 10.2345 70.0148 10.5121 70.1524 10.7898C70.3588 11.0674 70.4964 11.4145 70.634 11.7616C70.8403 12.2475 70.9779 12.8028 71.1155 13.2887C71.2531 13.844 71.3219 14.3993 71.4595 15.024C71.5282 15.4405 71.597 15.9264 71.597 16.3428C71.597 16.5511 71.6658 16.8287 71.6658 17.037C71.6658 17.3146 71.6658 17.5923 71.7346 17.8699V17.8005C71.7346 17.9393 71.8034 18.0782 71.8722 18.1476C72.0098 18.2864 72.1474 18.2864 72.3537 18.2864C72.5601 18.2864 72.6289 18.0782 72.6977 17.9393C72.7665 17.8005 72.7665 17.5923 72.7665 17.384C72.7665 17.2452 72.7665 17.1064 72.7665 16.9676C72.7665 16.6899 72.6977 16.4817 72.6977 16.204C72.6289 15.6487 72.5601 15.024 72.4913 14.4687C72.2849 13.2887 72.0098 12.1086 71.5282 10.998C71.3219 10.5815 71.1155 10.1651 70.8403 9.818C70.5652 9.40152 70.29 9.05446 69.9461 8.70739C69.8085 8.56857 69.6021 8.36033 69.3957 8.2215C69.1894 8.08267 68.983 7.87443 68.7078 7.73561C68.2951 7.45795 67.8823 7.24972 67.5384 6.97206C67.4696 6.90265 67.332 6.90265 67.2632 6.90265C67.1256 6.90265 66.9193 7.04148 66.7817 7.24971Z" fill="#1C1C1C"/>
<path d="M72.0787 7.80501C72.0099 7.87442 71.9411 8.01325 72.0099 8.15207C72.0787 8.22149 72.1475 8.2909 72.2163 8.36032C72.2851 8.42973 72.3539 8.49914 72.4227 8.56855C72.4915 8.63797 72.6291 8.63797 72.6978 8.56855C72.7666 8.63797 72.8354 8.63797 72.8354 8.70738C73.0418 8.84621 73.2482 8.98503 73.4545 9.12386C73.6609 9.3321 73.8673 9.47092 74.0737 9.67916C74.28 9.8874 74.4176 10.0262 74.5552 10.2345C74.8304 10.5815 75.0367 10.9286 75.2431 11.2757C75.4495 11.6921 75.6559 12.1086 75.8622 12.4557C76.1374 13.0804 76.3438 13.7745 76.5501 14.3992C76.6189 14.7463 76.6877 15.0934 76.7565 15.4404C76.7565 15.5793 76.8253 15.7875 76.8253 15.9263C76.8253 15.9957 76.8253 16.1346 76.8941 16.204C76.8941 16.2734 76.8941 16.2734 76.8941 16.3428C76.9629 16.5511 77.0317 16.6899 77.238 16.7593C77.5132 16.9675 77.9947 16.7593 78.0635 16.4122C78.1323 16.1346 78.0635 15.7875 77.9947 15.5099C77.926 15.3016 77.926 15.0934 77.8572 14.8851C77.7884 14.4687 77.6508 14.0522 77.5132 13.6357C77.3756 13.2192 77.1693 12.7333 76.9629 12.3169C76.7565 11.9004 76.5501 11.4839 76.3438 11.1368C76.0686 10.7204 75.7934 10.3039 75.5183 9.8874C75.3119 9.60975 75.1055 9.3321 74.8304 9.12386C74.5552 8.84621 74.28 8.63797 74.0049 8.42973C73.7985 8.2909 73.5233 8.08266 73.2482 7.94384C73.1106 7.87442 72.973 7.80501 72.7666 7.7356C72.6291 7.66618 72.4915 7.59677 72.3539 7.59677C72.2851 7.7356 72.1475 7.7356 72.0787 7.80501ZM75.5183 9.95682L75.4495 9.8874L75.5183 9.95682Z" fill="#1C1C1C"/>
<path d="M71.1842 5.16732C71.1154 5.44497 71.253 5.86145 71.5969 5.93087C71.9409 6.00028 72.2848 6.06969 72.56 6.20852C72.8352 6.27793 73.1103 6.41676 73.3855 6.48617C73.7982 6.69441 74.211 6.83324 74.6237 7.04147C74.8301 7.1803 75.0365 7.24971 75.2428 7.38854C75.3804 7.45795 75.5868 7.59678 75.7244 7.73561C76.4123 8.29091 77.0314 8.98504 77.6505 9.60976C77.9257 9.95683 78.2696 10.2345 78.6136 10.5121C78.8888 10.7898 79.1639 11.0674 79.4391 11.4145C79.783 11.9004 80.0582 12.3169 80.3334 12.8028C80.6085 13.2887 80.8149 13.844 81.0901 14.3299C81.2276 14.6075 81.5716 14.7463 81.8467 14.6769C82.0531 14.6075 82.1907 14.5381 82.2595 14.3299C82.3283 14.191 82.3971 13.9828 82.3283 13.7745C82.0531 13.0804 81.7092 12.4557 81.3652 11.831C81.2276 11.5533 81.0213 11.2757 80.8149 10.998C80.6085 10.651 80.3334 10.3733 80.0582 10.0957C79.8518 9.818 79.5767 9.60976 79.3015 9.33211C79.0263 9.12387 78.82 8.91563 78.6136 8.70739C78.1321 8.2215 77.5817 7.66619 77.1002 7.1803C76.7562 6.83324 76.3435 6.55558 75.9307 6.27793C75.518 6.00028 75.1053 5.79204 74.6237 5.65321C74.211 5.44497 73.7294 5.23673 73.3167 5.09791C72.8352 4.95908 72.3536 4.82025 71.9409 4.68143C71.8721 4.68143 71.8721 4.68143 71.8033 4.68143C71.4594 4.75084 71.253 4.88967 71.1842 5.16732ZM73.3855 6.48617H73.4543C73.4543 6.48617 73.4543 6.48617 73.3855 6.48617Z" fill="#1C1C1C"/>
<path d="M66.0247 0.655457C65.4056 0.72487 64.7177 0.794283 64.0986 0.863696C63.5482 0.933109 62.9979 1.07193 62.4476 1.21076C60.659 1.62724 58.8705 2.11313 57.1507 2.80726C57.2195 2.80726 57.2195 2.80726 57.2883 2.73785C56.6692 3.0155 56.05 3.29315 55.4309 3.64022C55.1558 3.77905 54.8806 3.98729 54.6054 4.19553C54.3303 4.40376 54.0551 4.68142 53.7799 4.95907C53.6424 5.09789 53.6424 5.37555 53.7799 5.58379C53.9175 5.72261 54.1927 5.72261 54.3991 5.58379C54.6054 5.37555 54.8118 5.23672 55.0182 5.02848C55.7061 4.54259 56.4628 4.19553 57.2195 3.84846C57.1507 3.84846 57.1507 3.84846 57.0819 3.91787C58.1825 3.50139 59.2832 3.08492 60.4526 2.80726C61.6221 2.52961 62.7227 2.25196 63.8922 2.04372C64.0986 1.97431 64.3737 1.9743 64.5801 1.90489C66.1623 1.69665 67.7445 1.76607 69.2579 1.97431C69.8082 2.04372 70.3585 2.11313 70.84 2.25196C71.3904 2.39078 72.0095 2.52961 72.5598 2.66844C73.1101 2.80726 73.7293 2.94609 74.2796 3.08491C74.5547 3.15433 74.8299 3.29315 75.1051 3.43198C75.3802 3.50139 75.6554 3.64022 75.8618 3.70963C76.0681 3.77905 76.2745 3.84846 76.4121 3.91787C77.2376 4.26494 77.9943 4.68142 78.751 5.23672C79.0949 5.51437 79.3701 5.79203 79.7141 6.13909C80.058 6.48616 80.402 6.83322 80.7459 7.18029C81.0899 7.52735 81.365 7.805 81.6402 8.15207C81.9154 8.49913 82.2593 8.8462 82.5345 9.19326C82.7408 9.47092 82.8784 9.67916 83.0848 9.95681C83.2912 10.2345 83.4976 10.5121 83.6351 10.7898C83.9791 11.2757 84.1855 11.831 84.3918 12.3863C84.4606 12.5251 84.4606 12.5945 84.5294 12.7333C84.5982 12.8722 84.5982 12.9416 84.667 13.0804C84.7358 13.2192 84.8046 13.2886 84.8734 13.3581C85.0797 13.5663 85.4237 13.6357 85.6301 13.4275C85.9052 13.2886 85.974 13.011 85.9052 12.6639C85.8364 12.4557 85.7676 12.2474 85.6989 11.9698C85.5613 11.6921 85.4925 11.3451 85.3549 11.0674C85.2173 10.7898 85.1485 10.5121 85.0109 10.3039C84.8734 10.0262 84.7358 9.81798 84.5294 9.54033C84.1855 9.05444 83.7727 8.49914 83.4288 8.01324C83.0848 7.59677 82.6721 7.18029 82.2593 6.76381C81.8466 6.34733 81.4338 5.93085 80.9523 5.51437C80.7459 5.30613 80.4708 5.0979 80.2644 4.88966C80.058 4.68142 79.8516 4.47318 79.6453 4.33435C78.6822 3.57081 77.5815 2.94609 76.4121 2.52961C75.8618 2.32137 75.3114 2.11313 74.7611 1.90489C74.2108 1.69665 73.5917 1.62724 73.0414 1.48841C72.491 1.34959 71.8719 1.21076 71.3216 1.14135C71.0464 1.07194 70.7713 1.00252 70.4961 1.00252C70.1521 0.933109 69.8082 0.933109 69.533 0.863696C68.7763 0.794283 68.0196 0.724872 67.1941 0.724872C66.919 0.586045 66.5062 0.586044 66.0247 0.655457ZM69.1891 1.90489H69.2579H69.1891Z" fill="#1C1C1C"/>
<path d="M51.1664 7.94385C34.6567 16.6899 36.4452 42.2339 54.9499 47.2317C62.6545 49.314 71.2533 48.2729 77.3757 42.7198C83.1541 37.4444 86.1809 28.7678 84.3924 21.1323C84.186 20.3688 83.0853 20.7159 83.2229 21.4794C84.8739 28.4901 82.1223 36.6115 76.8942 41.5398C71.4597 46.6763 63.8239 47.9258 56.6697 46.3987C38.3026 42.5116 35.3446 17.5923 51.7168 8.91564C52.4047 8.56857 51.7856 7.59679 51.1664 7.94385Z" fill="#1C1C1C"/>
<path d="M53.2988 31.0584C54.0555 31.6831 54.8122 32.169 55.8441 32.2384C56.7384 32.2384 57.4951 31.8914 58.183 31.3361C58.7333 30.8502 57.9078 29.9478 57.3575 30.5031C56.3256 31.4749 55.1562 31.0584 54.1931 30.2254C53.574 29.6701 52.6797 30.5725 53.2988 31.0584Z" fill="#1C1C1C"/>
<path d="M69.327 28.1431C70.0868 28.1431 70.7028 27.5215 70.7028 26.7548C70.7028 25.9881 70.0868 25.3665 69.327 25.3665C68.5671 25.3665 67.9512 25.9881 67.9512 26.7548C67.9512 27.5215 68.5671 28.1431 69.327 28.1431Z" fill="#1C1C1C"/>
<path d="M48.2087 23.8394C48.2087 24.603 47.5895 25.2277 46.8328 25.2277C46.0761 25.2277 45.457 24.603 45.457 23.8394C45.457 23.0759 46.0761 22.4512 46.8328 22.4512C47.5895 22.4512 48.2087 23.0759 48.2087 23.8394Z" fill="#1C1C1C"/>
<path d="M51.0978 5.30612C44.6315 5.51436 37.1333 10.0956 36.583 17.2452C36.5142 18.0087 37.6836 18.0087 37.7524 17.2452C38.234 10.8592 45.3882 6.69438 51.029 6.55556C51.8545 6.48614 51.8545 5.30612 51.0978 5.30612Z" fill="#1C1C1C"/>
<path d="M67.9513 36.8891C69.167 36.8891 70.1526 35.8946 70.1526 34.6679C70.1526 33.4411 69.167 32.4467 67.9513 32.4467C66.7356 32.4467 65.75 33.4411 65.75 34.6679C65.75 35.8946 66.7356 36.8891 67.9513 36.8891Z" fill="#F7B7C9"/>
<path d="M50.8909 32.3772C50.8909 33.6267 49.859 34.5984 48.6896 34.5984C47.5201 34.5984 46.4883 33.5573 46.4883 32.3772C46.4883 31.1278 47.5201 30.156 48.6896 30.156C49.859 30.156 50.8909 31.1278 50.8909 32.3772Z" fill="#F7B7C9"/>
<path d="M82.122 43.0669C83.0162 46.4681 85.08 48.8976 88.5195 49.7999C89.2762 50.0082 89.5514 48.8282 88.8635 48.6199C85.7679 47.8564 84.0481 45.774 83.2914 42.7198C83.085 42.0257 81.9156 42.3033 82.122 43.0669Z" fill="#1C1C1C"/>
<path d="M85.2178 32.7243C85.2866 37.4444 88.4509 41.3315 93.0599 42.2339C93.8166 42.3727 94.0918 41.2621 93.4039 41.0539C89.3452 40.2209 86.5248 36.9585 86.456 32.7243C86.3872 31.9608 85.2178 31.9608 85.2178 32.7243Z" fill="#1C1C1C"/>
<path d="M86.6621 25.5748C86.5245 28.3513 87.2812 30.7113 89.6201 32.3078C90.2392 32.7243 90.8583 31.6831 90.2392 31.2666C88.2442 29.8784 87.7627 27.8654 87.9003 25.5748C87.9003 24.8112 86.7308 24.8112 86.6621 25.5748Z" fill="#1C1C1C"/>
<path d="M90.9957 35.9173C92.2339 39.5268 95.0544 40.915 98.6315 40.915C99.3882 40.915 99.3882 39.735 98.6315 39.735C95.6047 39.735 93.197 38.7632 92.1651 35.6397C91.89 34.8761 90.7205 35.1538 90.9957 35.9173Z" fill="#1C1C1C"/>
<path d="M81.5714 61.6695C82.8784 62.5025 84.323 62.7802 85.7676 62.5719C86.5243 62.4331 86.1804 61.3225 85.4237 61.3919C84.2543 61.6001 83.0848 61.2531 82.1217 60.6284C81.5026 60.2119 80.8835 61.2531 81.5714 61.6695Z" fill="#1C1C1C"/>
<path d="M80.4024 62.7802C81.1591 64.2379 82.4661 65.7649 84.2547 65.6261C85.0114 65.5567 85.0114 64.3767 84.2547 64.4461C82.8101 64.5155 81.9846 63.3355 81.3655 62.1555C81.0903 61.5307 80.0585 62.1555 80.4024 62.7802Z" fill="#1C1C1C"/>
<path d="M81.9844 60.1425C83.1539 60.3507 84.3233 60.559 85.4928 60.4896C86.2495 60.4201 86.2495 59.2401 85.4928 59.3095C84.3921 59.4484 83.3603 59.1707 82.2596 59.0319C81.5029 58.8931 81.2277 60.0037 81.9844 60.1425Z" fill="#1C1C1C"/>
<path d="M37.3388 42.9975C39.4025 45.4963 41.6726 47.9952 44.9746 48.6893C47.9326 49.2447 50.8218 48.2729 53.2983 46.8152C53.9862 46.3987 53.3671 45.3575 52.6791 45.774C50.2027 47.2317 47.2447 48.2035 44.3555 47.3705C41.6726 46.5375 39.8153 44.3163 38.0955 42.2339C37.6828 41.6092 36.8573 42.4422 37.3388 42.9975Z" fill="#1C1C1C"/>
<path d="M68.6392 47.0234C69.7398 53.4788 73.5921 59.379 80.3336 60.6978C81.0903 60.8366 81.3655 59.6566 80.6775 59.5178C74.3488 58.2683 70.8405 52.7847 69.8086 46.6764C69.671 45.9128 68.5016 46.2599 68.6392 47.0234Z" fill="#1C1C1C"/>
<path d="M48.0703 34.182C49.0334 44.941 63.4794 45.8434 67.6069 36.7503C67.9508 36.0561 66.919 35.4314 66.575 36.1255C64.9928 39.6656 61.7597 42.1645 57.8386 42.0257C53.6424 41.8868 49.6525 38.555 49.2397 34.182C49.171 33.4184 48.0015 33.4184 48.0703 34.182Z" fill="#1C1C1C"/>
</g>
<defs>
<filter id="filter0_d" x="28" y="0" width="78.8277" height="97.0183" filterUnits="userSpaceOnUse" color-interpolation-filters="sRGB">
<feFlood flood-opacity="0" result="BackgroundImageFix"/>
<feColorMatrix in="SourceAlpha" type="matrix" values="0 0 0 0 0 0 0 0 0 0 0 0 0 0 0 0 0 0 127 0"/>
<feOffset dy="4"/>
<feGaussianBlur stdDeviation="2"/>
<feColorMatrix type="matrix" values="0 0 0 0 0 0 0 0 0 0 0 0 0 0 0 0 0 0 0.1 0"/>
<feBlend mode="normal" in2="BackgroundImageFix" result="effect1_dropShadow"/>
<feBlend mode="normal" in="SourceGraphic" in2="effect1_dropShadow" result="shape"/>
</filter>
</defs>
</svg>
