<svg width="127" height="95" viewBox="0 0 127 95" fill="none" xmlns="http://www.w3.org/2000/svg">
<path opacity="0.7" d="M126.157 40.6817C124.463 44.5421 120.508 44.7099 117.4 43.8707C117.542 44.8778 117.542 46.0527 117.542 46.8919C117.4 50.0809 115.705 52.5985 113.869 54.6126C109.914 59.1444 103.7 60.9906 98.6147 58.473C98.756 61.3263 98.4735 63.6761 96.9198 66.0259C94.9424 68.7114 91.4112 70.3898 88.5863 71.0612C85.6202 71.9004 82.0891 70.7255 79.4054 69.0471C78.558 68.5436 77.8518 67.8722 77.2868 67.2008C76.5806 70.5577 75.5918 73.0753 72.767 74.5859C69.5183 76.4322 65.5635 76.2643 62.1736 75.2573C56.3826 73.5788 51.439 68.3757 50.309 61.4942C49.6028 62.5012 48.7553 63.3404 48.0491 64.0118C45.3655 67.033 41.5519 67.7043 37.8795 68.04C30.8173 68.5436 25.7325 64.5153 22.3426 57.466C19.6589 60.4871 15.1391 61.4942 11.608 60.655C10.7605 60.4871 10.0543 60.1514 9.20683 59.9836C4.96949 57.2981 1.01464 54.2769 0.167174 48.0668C-0.539049 42.1923 1.01464 36.9892 4.40451 33.1288C6.52319 31.2825 9.20684 30.6111 12.0317 30.779C12.0317 30.1076 12.0317 29.4363 12.173 28.597C12.8792 25.0723 15.9866 22.7226 18.529 21.212C23.755 18.3587 32.6535 17.1838 37.1733 22.5547C37.1733 22.3869 37.1733 22.3869 37.3145 22.219C38.0208 20.2049 39.292 18.5265 40.8456 17.0159C43.6705 14.1626 47.9079 12.652 51.5802 11.4771C58.2187 9.46301 66.5522 13.9948 68.6709 21.8834C69.2358 19.5336 71.072 17.5194 72.6257 16.5124C75.4506 14.4983 78.558 13.9948 81.8066 14.834C85.7615 15.841 89.9988 19.5336 90.9875 24.2331C93.1062 19.5336 99.4622 19.8692 103.135 21.7155C105.253 22.8904 107.654 25.0724 108.784 27.9257C110.056 26.2473 113.304 25.5759 114.717 25.5759C118.248 25.408 121.779 26.9186 124.321 29.9398C126.864 32.6253 127.852 37.157 126.157 40.6817Z" fill="#EAF5FB"/>
<g clip-path="url(#clip0)" filter="url(#filter0_d)">
<path d="M83.1565 10.7737C82.1972 8.86684 80.8061 7.19835 78.8874 6.00657C71.7881 1.57314 62.3864 6.19725 57.0619 11.8701C55.383 11.9655 53.8481 12.2992 52.6009 12.9666C52.5529 12.9666 52.5529 13.0142 52.505 13.0142C52.0733 13.1096 51.6415 13.2526 51.2098 13.4433C46.7968 15.1118 42.9114 20.3079 44.5423 25.1704C44.6862 25.5518 44.8301 25.8855 44.974 26.2192C43.9187 26.6482 42.9593 27.411 42.3837 28.3167C41.4723 29.4608 40.8967 30.9863 41.2325 32.3688C41.8561 34.8477 44.5902 35.5151 46.7488 34.7523C47.4683 34.514 48.2358 34.1326 48.9074 33.6559C52.5529 37.9463 59.6042 37.6603 65.4084 36.2301C65.4084 36.4208 65.4563 36.6115 65.5043 36.7068C65.8401 37.5649 66.1758 38.0893 66.9913 38.6137C67.9027 39.1857 69.1499 39.1381 70.0133 38.6137C71.0206 38.0416 71.4044 37.0882 71.5003 36.0394C71.5483 35.4197 71.3564 34.8477 71.0206 34.3233C73.8987 33.0838 76.489 31.3677 78.6955 29.2701C80.7102 27.7447 82.2931 25.7901 83.3484 23.4542C83.8761 22.5962 84.3557 21.7381 84.7874 20.8323C85.0753 20.2126 85.8907 19.4499 84.8354 19.8789C86.0826 19.3545 87.1858 18.9731 88.1452 17.972C91.2631 14.6351 87.2818 8.48547 83.1565 10.7737Z" fill="#FDF0DA"/>
<path d="M57.9721 25.2181C57.8282 25.0751 57.6363 24.932 57.4924 24.8367C57.1087 24.217 56.5331 23.6926 55.8136 23.3112C53.7509 22.3101 51.7363 22.6915 50.0094 24.1216C48.8102 25.0751 48.1387 26.7436 48.1387 28.2214C48.1387 30.4142 49.6736 32.0827 51.6883 32.7025C53.7509 33.3699 55.6217 32.3688 57.2046 31.0816C58.8355 29.6515 59.7469 26.9819 57.9721 25.2181Z" fill="#F7BFA7"/>
<path d="M83.7793 15.3025C83.5874 15.1595 83.3476 15.0165 83.1077 14.9688C82.2923 14.2537 81.4289 14.0154 80.3736 13.92C79.2223 13.777 78.1191 14.5874 77.2556 15.2548C75.9125 16.3036 75.7207 18.2581 76.0564 19.8313C76.3443 21.2137 77.3516 22.2625 78.4069 23.0729C79.75 24.074 81.6207 23.931 83.0118 23.2636C84.259 22.6439 85.2663 21.1661 85.5061 19.8313C85.8419 17.9721 85.2663 16.3989 83.7793 15.3025Z" fill="#F7BFA7"/>
<path d="M77.5437 50.2455C76.7762 47.2422 76.3445 43.9529 76.2006 40.8542C76.1527 39.9008 75.8169 39.1381 75.2892 38.6137C74.4738 35.4674 69.9648 35.086 68.3818 37.5649C67.5184 37.7556 66.703 38.28 66.2233 39.1858C66.1273 39.1858 66.0794 39.1858 65.9834 39.1858C64.5924 37.5649 61.6183 37.8986 60.3712 39.7578C59.5078 40.9973 59.076 42.4274 58.8362 43.9052C58.2126 45.9551 58.0207 48.1003 57.8768 50.1978C57.8768 50.3885 57.8768 50.5792 57.8289 50.8175C55.4784 52.8674 54.1353 56.1567 54.5191 59.303C54.8549 62.1156 58.4525 64.5945 60.8029 61.8773C61.0907 61.5436 61.3305 61.2099 61.5704 60.8762C62.8175 61.3529 64.3525 61.0668 65.4558 60.1134C66.1753 60.8762 67.2306 61.1622 68.2859 61.0668C68.3818 61.3529 68.5257 61.5912 68.6217 61.8773C69.7249 64.1655 72.4111 64.1655 74.138 62.8783C74.6177 62.8783 75.0494 62.783 75.4331 62.64C77.112 62.5447 78.695 61.3529 78.8389 59.017C79.1267 56.0137 78.3112 53.1058 77.5437 50.2455Z" fill="#ABCF5E"/>
<path d="M78.6951 62.497C78.5512 62.4493 78.4553 62.4016 78.3114 62.354C75.961 60.4471 72.4113 60.5425 69.4373 60.1611C65.5039 59.6844 61.3787 59.589 57.4453 60.2564C56.1022 60.4948 55.3827 61.6866 55.3347 62.926C55.0469 63.1167 54.7591 63.3074 54.5193 63.5458C53.0323 65.1189 54.5193 67.4548 56.5819 67.0258C55.8624 67.1688 57.0616 67.2641 57.3494 67.3118C58.1169 67.5501 58.8844 67.7408 59.6998 67.9315C61.4746 68.3605 63.3934 68.5989 65.2161 68.7896C69.2934 69.2663 73.7065 69.9814 77.7837 69.5523C81.909 69.1709 82.5806 64.0225 78.6951 62.497Z" fill="#EEC64E"/>
<path d="M45.4056 76.8937C45.0698 76.0833 44.9259 75.2252 44.83 74.3671C44.6861 73.0323 43.8227 71.9835 42.8153 71.1254C42.6714 70.9824 42.4316 70.9824 42.2877 71.1254C41.4243 72.0789 41.7121 73.2707 41.4722 74.4624C41.1844 75.8449 40.9926 77.1797 41.808 78.4191C42.9592 80.1353 46.269 79.0389 45.4056 76.8937Z" fill="#E8A142"/>
<path d="M83.0118 82.4235C83.6354 82.2805 82.676 82.4712 82.4842 82.5189C82.3882 82.5666 82.2443 82.5666 82.1004 82.6142C82.0525 82.6142 82.0525 82.6142 82.0045 82.6142C81.285 82.6619 80.8053 82.7572 79.8939 82.8526C78.5988 83.0433 76.9199 84.1397 77.5435 85.6652C77.7353 86.1896 78.1191 86.4756 78.6947 86.5233C78.7427 86.5233 79.2703 86.571 78.8386 86.5233C79.1744 86.571 79.5101 86.6663 79.8459 86.6663C80.3736 86.6663 80.9012 86.714 81.3809 86.8093C82.6281 86.9523 84.163 86.8093 84.9785 85.7605C86.1297 84.1874 85.0744 81.9945 83.0118 82.4235Z" fill="#E8A142"/>
<path d="M91.6458 4.05205C91.358 3.38466 90.8783 2.86027 90.3027 2.52658C89.1515 1.28712 87.5685 0.572055 85.6978 1.09644C84.4506 1.43014 83.6352 2.09753 83.0595 2.95562C83.0116 2.90795 82.9156 2.86027 82.8677 2.8126C82.5319 2.62192 82.2441 2.4789 81.9083 2.33589C79.7977 3.24164 77.4473 2.43123 75.1448 1.76384C73.1302 1.23945 71.0675 0.905753 69.0529 0.429041C68.813 0.38137 68.0456 0.238356 67.1342 0C62.1935 0.572055 57.3007 2.19288 53.0316 4.67178C52.9356 4.71945 52.8397 4.76712 52.7917 4.8148C52.312 4.91014 51.8803 5.14849 51.4007 5.48219C49.4819 7.00767 47.2274 8.91452 45.4046 11.0597C44.0615 12.2038 43.0062 13.6816 42.0949 15.2071C40.8957 16.1605 39.9363 17.543 39.1208 18.7825C38.4973 19.7836 37.9696 20.8323 37.2501 21.7858C37.2021 21.8811 37.1062 21.9764 37.0582 22.0718C36.0509 21.9288 35.1875 21.9288 34.2281 22.0241C33.7964 22.0718 33.3647 22.2148 32.9809 22.4055H32.933C28.8557 22.5008 28.8557 28.6027 32.933 28.6981C32.9809 28.6981 33.0289 28.6981 33.0769 28.6981C33.5086 30.3666 34.9956 31.6537 37.0102 30.9386C38.2574 30.4619 39.4086 29.9375 40.368 29.0318C40.4639 28.9364 40.5119 28.8888 40.6078 28.7934C40.6558 28.7458 40.7038 28.6981 40.7517 28.6504C40.7997 28.5551 40.8957 28.5074 40.9436 28.4121C41.1835 28.126 41.3753 27.84 41.5672 27.5063C41.6631 27.3156 41.7111 27.1249 41.807 26.9342C41.855 26.7912 41.9509 26.6482 41.9989 26.5052C42.8144 27.3633 44.1575 26.9342 44.6851 26.0285L44.7331 26.1238C45.5965 24.8367 45.5006 22.9775 45.8364 21.4521C45.8843 21.2614 45.9323 21.0707 45.9803 20.88C46.2201 20.8323 46.4599 20.737 46.6998 20.6416C48.9543 19.6882 50.921 16.8279 51.8324 14.206C53.3673 13.1096 55.0462 12.1562 56.6771 11.2504C57.4926 10.7737 58.356 10.3447 59.1715 9.96329C60.7544 9.53425 62.2414 8.86685 63.6805 8.00877C63.8723 7.86575 64.0642 7.72274 64.2561 7.57973C64.4959 7.48438 64.7358 7.38904 64.9756 7.2937C65.2634 7.34137 65.5512 7.38904 65.839 7.38904C67.6618 7.38904 69.4846 7.38904 71.3074 7.48438C72.7464 7.91342 74.2334 7.9611 75.7684 7.9611C75.9603 7.9611 76.1521 7.9611 76.2961 7.91342C78.0229 8.43781 79.6538 9.29589 81.3327 10.297C83.0595 11.3458 85.0742 11.3934 86.849 10.3923C86.897 10.3447 86.945 10.3447 86.9929 10.297C87.2807 10.4877 87.6165 10.6784 88.0003 10.8214C88.6718 11.0597 89.3434 11.1074 90.0149 11.0597C90.0629 11.0597 90.1108 11.0597 90.1588 11.0597C90.4946 11.0597 90.8304 11.0121 91.1661 10.9644C94.5719 10.583 94.7158 5.05315 91.6458 4.05205Z" fill="#AA7139"/>
<path d="M100.28 20.4986C99.8007 20.594 99.4169 20.9277 98.9852 21.2614C99.1771 20.9277 99.321 20.594 99.5129 20.2603C99.8966 19.5452 100.376 18.9732 100.424 18.1628C100.472 17.4 99.321 17.4 99.273 18.1628C99.2251 18.7348 98.7933 19.2115 98.5055 19.6882C98.2657 20.1173 98.0259 20.6417 97.7381 21.0707C97.786 20.4986 97.786 19.9266 97.834 19.4022C97.834 18.7348 97.9299 17.4954 97.2104 17.114C96.5388 16.7326 95.9632 17.7337 96.6348 18.1151C96.4909 18.0674 96.6348 18.4965 96.6348 18.6871C96.6828 19.1162 96.6348 19.5929 96.6348 20.0219C96.6348 20.451 96.5868 20.9277 96.5388 21.3567C96.4429 21.3091 96.347 21.3091 96.299 21.3091C95.8673 20.737 95.5795 20.0696 95.3396 19.4022C95.1957 19.0208 94.7161 18.8301 94.3803 19.1638C94.3323 19.2115 94.2364 19.3069 94.1884 19.3545C93.8047 19.7359 94.0925 20.2126 94.4762 20.308C94.86 21.166 95.2917 21.9764 95.9153 22.6915C96.1551 22.9299 96.4909 22.8822 96.7307 22.6915C96.7307 22.6915 96.7787 22.6915 96.7787 22.7392C96.7787 22.7869 96.8267 22.8822 96.8267 22.9299C96.7307 23.5019 96.5388 24.3123 96.4909 24.5507C96.251 25.5995 95.7234 26.5529 95.0998 27.411C93.6608 29.2225 91.5502 30.6049 89.6315 31.8921C85.6501 34.514 80.5175 36.7069 75.6728 35.5628C75.6248 35.3244 75.4329 35.1337 75.1451 35.1337H74.8093C76.9679 34.0849 78.9826 32.7025 80.7574 31.1293C84.1631 28.0784 86.4656 23.931 86.9452 19.4022C87.7607 19.4022 88.5762 18.8778 89.1038 18.2581C90.0152 17.257 90.0152 15.7792 89.8713 14.5397C89.8233 14.1107 89.3916 13.4433 88.816 12.8712C89.4396 12.9666 90.0632 12.9666 90.5908 12.8712C91.4542 12.7282 92.4616 11.9178 91.6941 11.0121C91.5981 10.9167 91.5502 10.8214 91.4063 10.7737C91.79 10.7737 92.1738 10.726 92.5095 10.6784C93.5648 10.4877 94.812 10.2017 95.3396 9.20056C95.4356 8.9622 95.4356 8.67617 95.2437 8.48549C94.6201 7.91343 93.0372 7.72275 93.0372 6.72165C93.0372 6.00659 93.277 5.24385 92.3656 4.95782C91.4542 4.67179 90.5908 4.86248 89.6794 4.91015C89.8233 4.67179 89.7754 4.38576 89.5835 4.19508C89.7274 3.86138 89.9672 3.52768 90.0632 3.43234C90.351 2.95563 90.5428 2.47891 90.5908 1.90686C90.6388 1.62083 90.303 1.3348 90.0152 1.3348C88.0965 1.38248 86.2737 2.14522 84.4989 2.90796C83.8273 3.19398 83.2037 3.52768 82.5802 3.90905C82.1005 4.19508 80.9492 5.05316 80.4696 4.43344C80.1338 4.00439 79.6541 4.29042 79.5102 4.71946C77.4476 3.337 75.0971 2.38357 72.6987 1.85919C72.315 1.6685 71.9313 1.52549 71.4995 1.57316C71.4516 1.57316 71.4036 1.57316 71.3077 1.62083C69.5808 1.3348 67.806 1.23946 66.1271 1.28713C65.9353 1.04878 65.6954 0.810421 65.5035 0.619736C64.9759 0.0953525 64.2084 0.858092 64.6401 1.38248C62.6734 1.52549 60.7547 1.85919 58.836 2.38357C58.836 2.38357 58.836 2.38357 58.788 2.38357C58.4522 2.19289 58.1165 2.38357 57.9726 2.62193C55.4303 3.38467 53.0319 4.48111 50.8253 5.8159C46.6521 8.00878 43.0545 11.6795 41.6634 16.2082C41.2317 17.686 41.0399 19.3069 41.0399 20.9277C40.9919 20.9277 40.9919 20.9277 40.9439 20.9277C39.9366 20.9754 38.8813 21.3091 37.874 21.3091C36.7227 21.3091 35.5715 21.3091 34.4203 21.3567C33.1251 21.4521 31.6381 21.4521 30.343 21.7858C29.4316 21.9764 28.5682 22.7392 29.2877 23.6926C30.2471 24.8844 31.878 25.5041 33.365 25.9332C33.0292 26.1715 32.6455 26.3622 32.4536 26.5052C32.0698 26.7912 31.5902 27.2203 31.5902 27.7447C31.5902 28.3644 32.1178 28.6981 32.6455 28.8411C32.9812 28.9365 33.365 28.8411 33.7007 28.8411C34.5642 28.7458 34.2284 29.1748 33.9886 29.7469C33.7967 30.2712 33.269 30.8433 33.6048 31.4154C33.9406 32.0351 34.6601 32.1304 35.2837 31.8444C35.6674 31.6537 36.0512 31.4154 36.387 31.177C36.4829 31.0817 36.6268 31.034 36.7707 30.9863C36.6268 31.606 36.387 32.1781 36.339 32.7978C36.339 33.1792 36.7227 33.4175 37.0585 33.3699C38.4016 33.1315 39.313 31.9874 40.0805 30.9863C40.1764 30.891 40.2244 30.7956 40.3203 30.7003C40.2724 31.034 40.3203 31.4154 40.3203 31.7491C40.4642 33.4652 41.4716 34.9907 43.0545 35.6581C44.3496 36.2302 46.844 36.1348 47.3237 34.5617C48.331 35.3721 49.3863 35.9918 50.5855 36.3255C50.6335 36.5639 50.8253 36.7545 51.1131 36.7545C52.3603 36.7545 53.6554 36.5639 54.8546 36.9452C55.5262 37.1359 56.3417 37.1359 57.0132 37.2789C57.8287 37.4219 58.6921 37.5649 59.5075 37.6603C59.7953 37.708 60.1311 37.7556 60.4669 37.7556C59.1238 38.8997 57.3969 39.5195 55.814 40.2822C53.5595 41.3786 51.1611 42.0937 48.7147 42.6658C45.5488 43.3808 40.5122 44.2389 38.0179 41.5693C38.2577 40.2822 38.5455 38.0417 38.8333 38.0417C39.6008 38.0893 39.6008 36.9452 38.8333 36.8975C37.4423 36.8022 37.2983 38.6614 37.1544 40.1869C37.1065 39.9962 37.0105 39.8055 36.9626 39.5671C36.7227 38.9951 36.387 38.2323 36.291 37.5173C36.4349 37.4219 36.5309 37.2789 36.5309 37.0406C36.4829 36.5639 36.2431 36.2778 35.7634 36.2778C35.5235 36.2778 35.2357 36.4685 35.1878 36.7069C34.9959 37.994 35.6674 39.1858 36.0512 40.4252C36.0512 40.4729 36.0512 40.4729 36.0991 40.5206C35.3317 39.8532 34.5162 39.1381 34.1804 38.28C33.9406 37.5649 32.7894 37.8986 33.0292 38.566C33.269 39.1858 33.6528 39.7102 34.0845 40.1869C33.8926 40.0915 33.7487 40.0438 33.5568 39.9962C32.8373 39.7578 32.5495 40.8543 33.269 41.0926C33.8447 41.2833 34.4203 41.5693 34.9959 41.8077C35.2837 41.903 35.5715 41.9507 35.8593 42.046C35.9552 42.1891 36.0991 42.2844 36.339 42.2844H36.5309C36.5788 42.2844 36.6268 42.2844 36.7227 42.2367H36.7707C36.8666 42.5704 37.2504 42.7134 37.5382 42.5704C40.1764 44.9063 44.3976 44.5726 47.7074 44.0006C50.3936 43.5239 53.0319 42.7134 55.5262 41.6647C56.8693 41.0926 58.4043 40.4729 59.7474 39.7102C58.3563 42.7611 58.0205 46.1458 57.2051 49.3874C56.6295 51.628 56.0059 53.8685 55.5262 56.1091C55.4303 56.6334 55.4303 57.2055 55.2864 57.7775C55.1904 58.2543 55.0945 58.588 55.0945 59.0647C55.0945 59.2554 55.1425 59.446 55.1904 59.5891C54.279 62.1633 54.0872 64.9282 53.1278 67.4548C53.0319 67.7408 53.2237 68.1222 53.5595 68.1699C55.1904 68.4082 56.8213 68.1699 58.4522 68.2176C58.9799 68.2176 59.5075 68.2652 59.9872 68.2652C59.4596 68.6943 58.884 68.9803 58.3083 69.314C57.301 69.8384 56.2937 70.3628 55.1904 70.7441C53.1278 71.5069 50.8733 71.7452 48.6668 71.7929C47.6594 71.7929 46.6521 71.6975 45.6448 71.4592C45.0212 71.3162 44.5895 70.9825 44.1578 70.5534C43.87 70.2674 43.4383 70.0291 43.1984 69.6954C42.8147 69.2187 42.2391 69.3617 41.8073 69.6954C41.3277 70.0767 41.2797 70.7918 41.2797 71.3162C41.1358 73.1754 41.0399 75.2252 41.5675 77.0367C41.8553 78.1808 42.9106 79.2773 44.2057 78.9436C45.6928 78.5622 45.9326 76.2263 45.7407 75.0345C45.5968 74.1765 45.2131 73.4614 44.7334 72.7463C44.5415 72.508 43.6781 71.7452 43.3423 71.2208C43.774 71.6022 44.2057 72.0312 44.7334 72.3173C45.309 72.651 46.1724 72.6986 46.844 72.794C48.5708 72.9847 50.3456 72.8893 52.0725 72.651C53.8953 72.4126 55.6221 71.8882 57.301 71.1255C58.6921 70.5058 60.4189 69.743 61.4263 68.5036C61.4742 68.4082 61.5222 68.3129 61.5702 68.2176C62.4816 68.2652 63.3929 68.2652 64.2564 68.2652C67.9979 68.2176 71.6914 67.6455 75.4329 67.5025C77.3037 67.4071 81.4769 67.6455 81.6688 65.0236C81.7647 64.0702 81.1891 63.0691 80.8053 62.211C80.5655 61.7343 80.2777 61.2099 79.9899 60.6855C80.0379 60.5902 80.0858 60.4948 80.0858 60.3995C79.9419 58.1589 79.5582 55.966 79.1265 53.8208C78.6947 51.5326 78.359 49.2921 78.0232 47.0039C77.6874 44.7156 77.0159 42.5228 76.5362 40.2345C76.2963 39.0904 76.0565 37.7556 75.6248 36.5639C81.1411 37.8033 86.8973 35.1814 91.3103 32.0828C93.5648 30.5096 95.9632 28.7934 97.2104 26.2669C97.6421 25.4088 97.882 24.4077 97.9779 23.4543C97.9779 23.3589 97.9779 23.2636 98.0259 23.1682C98.4096 23.0729 98.7454 22.8822 99.0812 22.6915C99.6088 22.3578 100.088 21.7858 100.664 21.6428C101.288 21.4044 101 20.308 100.28 20.4986ZM43.2944 72.9847C43.822 73.5567 44.2057 74.2718 44.3976 75.0345C44.5895 75.8449 44.5415 77.2751 43.774 77.7995C43.2464 78.1332 42.7187 77.0367 42.5748 76.703C42.287 75.7973 42.287 74.7962 42.287 73.8428C42.287 73.223 42.335 72.5556 42.335 71.9359C42.6228 72.3173 42.9586 72.651 43.2944 72.9847ZM87.9046 17.4C87.6648 17.686 87.281 17.7814 86.9452 17.8767C86.9932 15.8745 86.3696 13.8723 85.5062 12.0132C85.6501 11.9178 85.794 11.9178 85.9379 11.9178C86.1298 12.0132 86.3696 12.1085 86.5615 12.1562C86.6095 12.1562 86.7054 12.2038 86.7534 12.2038C87.0891 12.3945 87.377 12.5852 87.5209 12.7282C88.3843 13.4433 88.7201 14.4444 88.6721 15.4932C88.6721 16.3036 88.3843 16.9233 87.9046 17.4ZM83.3956 4.48111C84.9786 3.48001 87.1851 2.57426 89.1518 2.3359C88.9599 2.81261 88.6721 3.19398 88.4323 3.62302C87.6648 3.57535 86.8973 3.86138 86.2257 4.09974C85.1225 4.48111 83.9233 4.67179 82.7241 4.86248C82.9639 4.76713 83.2037 4.62412 83.3956 4.48111ZM85.4582 5.57754C86.1298 5.43453 87.281 4.86248 88.1444 4.81481C88.1444 4.91015 88.1444 5.00549 88.1924 5.10083C88.3843 6.05426 89.8233 5.86357 90.4949 5.8159C90.6388 5.8159 91.886 5.67289 91.886 5.86357C91.886 6.38796 91.742 6.76933 91.9339 7.29371C92.2217 8.19946 93.1811 8.39015 93.9006 8.81919C93.2291 9.2959 91.9819 9.48659 91.3103 9.48659C91.2624 9.48659 91.2144 9.48659 91.1664 9.48659H91.2144C91.9339 9.24823 91.5981 8.10412 90.9266 8.34248C88.9599 9.05754 86.8973 8.72385 84.8347 8.72385C84.0672 8.72385 84.0672 9.86796 84.8347 9.86796C86.1298 9.86796 87.4729 10.011 88.768 9.91563C88.6241 10.011 88.4323 10.1063 88.2883 10.2017C87.8566 10.5354 88.2404 11.2028 88.7201 11.2028C89.3436 11.2028 90.0152 11.2028 90.5908 11.4411H90.6388H90.5908C90.3989 11.5364 90.1591 11.5364 89.9672 11.5364C89.5835 11.5841 89.1518 11.5364 88.768 11.4411C87.6648 11.2504 86.6095 11.0121 85.6021 10.4877C85.1704 10.2493 84.7387 10.011 84.355 9.77261C83.5875 8.48549 82.6761 7.29371 81.6208 6.24494C82.868 6.00659 84.1631 5.8159 85.4582 5.57754ZM75.5768 3.86138C78.1671 4.91015 80.3257 6.53097 82.0045 8.6285C81.8606 8.72385 81.7647 8.9622 81.7167 9.15289C80.4696 8.6285 79.1265 8.29481 77.7354 8.10412C76.6801 6.62631 75.7207 5.10083 74.5695 3.71837C74.4736 3.62302 74.4256 3.52768 74.3297 3.43234C74.7614 3.52768 75.1931 3.6707 75.5768 3.86138ZM72.267 2.81261C72.9386 3.28933 73.4662 4.14741 73.8979 4.62412C74.7614 5.62522 75.4809 6.72165 76.2484 7.81809C75.0971 7.72275 73.9459 7.62741 72.8906 7.62741C72.267 7.62741 71.6914 7.57974 71.1158 7.62741C69.7727 5.8159 68.4776 3.95672 67.0385 2.19289C68.7654 2.24056 70.5402 2.43124 72.267 2.81261ZM65.5035 2.24056C67.0385 3.95672 68.3337 5.8159 69.6768 7.67508C67.4702 7.77042 65.3596 8.10412 63.249 8.72385C63.0572 8.43782 62.8653 8.15179 62.7214 7.86576C62.2897 7.19837 61.9539 6.4833 61.5702 5.76823C61.3303 5.33919 61.1864 4.81481 60.8986 4.43344C60.5149 3.95672 60.0832 3.52768 59.6514 3.09864C61.5702 2.62193 63.5369 2.3359 65.5035 2.24056ZM58.4522 3.43234C58.6441 3.62302 58.836 3.90905 58.9799 4.05207C59.3157 4.43344 59.8433 4.76713 60.0352 5.24385C60.323 5.91124 60.6588 6.57864 61.0425 7.19837C61.2344 7.57974 61.6181 8.39015 62.0498 9.10522C61.3303 9.34357 60.5628 9.6296 59.8433 9.9633C58.0205 10.7737 56.2457 11.8225 54.5668 12.9666C54.327 11.9178 54.279 10.726 54.1351 9.77261C53.8953 8.43782 53.9433 6.86467 53.1758 5.72056C53.1278 5.67289 53.0798 5.62522 53.0798 5.57754C54.7587 4.67179 56.5815 4.00439 58.4522 3.43234ZM50.0578 8.43782C50.2017 8.34248 50.3456 8.19946 50.3456 7.96111V7.77042C50.3456 7.57974 50.2497 7.43672 50.1538 7.34138C50.7774 6.91234 51.4489 6.4833 52.1205 6.10193V6.57864C52.1205 6.91234 52.3123 7.10302 52.6001 7.1507C52.9359 8.19946 52.9359 9.43891 53.0798 10.44C53.2717 11.4888 53.3197 12.6329 53.6075 13.7293C52.0725 14.8734 50.5855 16.1606 49.2904 17.543C49.2424 17.5907 49.1944 17.6384 49.1465 17.686C49.1465 17.5907 49.1465 17.4954 49.0985 17.4C49.0025 16.3036 49.0025 15.2071 49.0025 14.1107C48.9546 12.2038 49.2424 10.154 50.0578 8.43782ZM42.5748 17.4477C43.1025 14.9688 44.4936 12.6806 46.1724 10.8214C46.9879 9.86796 47.8993 9.05754 48.8586 8.24713C47.8033 10.7737 47.7074 13.634 47.8033 16.3036C47.8513 17.0663 47.8033 18.0197 47.9473 18.8778C46.9879 20.0696 46.1245 21.4044 45.4049 22.7869C44.6854 24.217 43.9659 25.8378 43.6781 27.411C43.5342 27.0296 43.3903 26.6482 43.2464 26.2669C43.2944 26.0762 43.1984 25.8855 43.0545 25.7425C43.0545 25.6948 43.0065 25.5995 43.0065 25.5518C42.8147 24.8367 42.6228 24.1217 42.4789 23.4066C42.8147 23.4543 43.1984 23.3112 43.2464 22.8822C43.2944 22.3578 42.8626 22.1671 42.287 22.1195C42.1911 20.5463 42.2391 18.9732 42.5748 17.4477ZM32.8853 24.503C31.9739 24.1693 31.1105 23.7403 30.343 23.0729C30.295 23.0252 30.295 23.0252 30.2471 23.0252C30.4389 22.9299 30.6308 22.8822 30.8227 22.8345C31.2544 22.7392 31.6861 22.6915 32.1178 22.6915C33.365 22.5962 34.6121 22.5008 35.9073 22.5008C36.7227 22.5008 37.4902 22.5008 38.3057 22.5008C38.6415 22.5008 39.0732 22.3578 39.4089 22.2625C39.9366 22.1671 40.4642 22.1195 41.0399 22.1195C41.0878 22.1195 41.1358 22.1195 41.1838 22.0718C41.1838 22.1195 41.1838 22.1195 41.1838 22.1671C40.3203 22.2625 39.5049 22.5008 39.2171 22.5485C38.0179 22.7869 36.8187 23.0252 35.6195 23.2636C34.8999 23.4066 34.1325 23.6449 33.4129 23.6449C32.8853 23.6449 32.6934 24.1693 32.8853 24.503ZM36.5788 29.3655C36.6268 29.5085 36.7707 29.6515 36.9146 29.6992C36.5788 29.7469 36.291 29.8899 36.0032 30.0329C35.6195 30.2236 35.2837 30.5096 34.8999 30.7003C34.4682 30.9863 34.7081 30.8433 34.8999 30.5096C34.9959 30.3666 35.0439 30.1759 35.1398 29.9852C35.4276 29.3178 35.8113 28.4597 35.1878 27.8877C34.6601 27.3633 33.6528 27.6493 33.0292 27.6493C32.5495 27.6493 32.7414 27.7447 33.0292 27.4586C33.269 27.268 33.5568 27.0773 33.8447 26.8866C34.3243 26.5529 34.756 26.2669 34.9479 25.6948C35.0439 25.4088 34.804 25.0751 34.5162 24.9797C34.2764 24.9321 34.0365 24.8367 33.7967 24.7414C33.8926 24.7414 33.9406 24.7414 33.9886 24.6937C35.3317 24.5507 36.6748 24.1217 37.9699 23.8833C38.9772 23.6926 39.9366 23.5019 40.9439 23.3589C41.0878 23.3589 41.1838 23.3112 41.3277 23.3112C41.3756 23.5496 41.4236 23.788 41.4716 24.0263C39.7927 24.6937 38.1618 25.5995 36.387 25.9808C36.2431 25.8378 36.0512 25.6948 35.8113 25.7425C35.4276 25.8378 35.0918 26.0285 34.756 26.2669C34.3723 26.6006 34.7081 27.268 35.1878 27.268C37.5382 27.2203 39.6008 26.0285 41.7594 25.1704C41.8073 25.3134 41.8073 25.4088 41.8553 25.5518C41.1838 25.9332 40.5122 26.5052 39.8886 26.9343C39.361 27.3156 38.8333 27.6493 38.3057 28.0307C38.0658 28.1737 37.874 28.3167 37.6341 28.4121C37.5862 28.4597 37.4902 28.4597 37.4423 28.5074C37.0105 28.2691 36.339 28.7934 36.5788 29.3655ZM39.8407 29.2702C39.265 30.0329 38.5935 31.0817 37.7301 31.7014C37.9699 30.9386 38.2097 30.1282 37.5382 29.7469C37.4902 29.6992 37.4423 29.6992 37.3943 29.6992C38.3536 29.5562 39.7927 28.5074 40.9439 27.6017C40.6081 28.1737 40.2724 28.7458 39.8407 29.2702ZM44.5895 34.4663C43.3423 34.514 42.4789 33.7036 41.9512 32.7025C41.4716 31.7967 41.4716 30.7003 41.7594 29.7469C41.9512 29.0795 42.383 28.7458 42.9106 28.6981C43.2464 29.4132 43.6301 30.1282 44.0618 30.748C44.7814 31.8921 45.7407 33.0839 46.844 34.0373C46.0765 33.9896 45.4049 34.4186 44.5895 34.4663ZM59.1238 36.2778C57.7327 36.0871 56.1977 35.9441 54.9026 35.5628C54.5189 35.4674 54.0872 35.4197 53.7034 35.3721C53.6075 35.2767 53.4636 35.2291 53.2717 35.2291C50.6814 35.5628 48.4269 34.0373 46.748 32.2258C45.8846 31.32 45.2131 30.3666 44.6375 29.3178C44.6375 29.2701 44.6854 29.2225 44.6854 29.1748C44.7814 29.0795 44.8293 28.9365 44.9253 28.8411C45.2131 28.5551 45.0692 28.126 44.8293 27.9354C45.1171 26.2192 45.8846 24.503 46.6521 23.0252C47.1798 21.9764 47.8033 21.023 48.5229 20.1173C49.0025 20.6893 49.6261 20.4033 50.1058 19.7836C50.4896 19.3069 49.9139 18.8778 49.4343 18.9732C49.6261 18.7348 49.866 18.4965 50.1058 18.2581C51.305 17.0186 52.6001 15.8745 53.9912 14.8258C54.0392 14.9211 54.0872 15.0641 54.1831 15.1595C54.375 15.5408 55.0465 15.5408 55.2384 15.1118C55.6221 14.8258 55.4782 14.1584 55.0465 14.063C56.5815 12.9666 58.2604 12.0132 59.8913 11.2028C60.8506 10.726 61.858 10.297 62.8653 9.9633C63.1051 10.154 63.345 10.2017 63.5848 10.154C63.9206 10.1063 64.0165 9.82028 64.0165 9.58193C64.4962 9.43892 65.0239 9.2959 65.5515 9.20056C67.1824 8.81919 68.9093 8.72385 70.5882 8.72385C70.876 9.10522 71.1638 9.48659 71.4516 9.82028C71.9313 10.3923 72.7467 9.58193 72.267 9.00987C72.1711 8.91453 72.1231 8.81919 72.0272 8.72385C72.0752 8.72385 72.1711 8.72385 72.2191 8.72385C73.8979 8.72385 75.5768 8.86686 77.2077 9.10522C77.2557 9.20056 77.3037 9.24823 77.3996 9.34357C77.6874 9.72494 78.2151 9.6296 78.4549 9.2959C78.5988 9.2959 78.6947 9.34357 78.8386 9.34357C80.5175 9.67727 82.3883 10.3447 83.7794 11.4411C83.6834 11.8225 84.0192 12.1085 84.355 12.0608C84.7867 13.0143 85.1704 14.0154 85.5062 15.0164C86.3217 17.686 85.746 20.7847 84.7387 23.3112C83.8273 25.5995 82.2923 27.697 80.5655 29.4608C77.1598 32.8455 72.363 35.2291 67.6621 35.9918C64.784 36.5162 61.858 36.7069 59.1238 36.2778ZM65.1678 37.5173C65.9832 37.4219 66.7507 37.3266 67.5182 37.2312C67.9979 37.1836 68.4296 37.0882 68.9093 36.9929C69.5808 38.9474 65.2157 40.5206 65.1678 37.5173ZM80.2777 64.3562C80.6135 65.5956 79.6061 65.834 78.5508 66.0723C77.0638 66.4061 75.5289 66.3107 74.0418 66.4537C70.7321 66.6921 67.4223 67.1211 64.0645 67.1688C62.3856 67.2165 60.7067 67.1211 59.0279 67.0258C57.4929 66.9304 55.9099 67.1688 54.375 67.0258C55.0945 64.8329 55.3343 62.5447 56.0059 60.3518C56.6774 60.6378 57.4449 60.7332 58.1644 60.8285C59.2677 61.0192 60.4189 61.0669 61.5702 61.2576C63.8726 61.5913 66.1271 61.9726 68.4296 62.1156C70.7321 62.2586 73.0825 62.2586 75.337 62.068C76.4402 61.9726 77.8793 61.9249 78.7427 61.2099C79.2704 62.2586 79.9899 63.2597 80.2777 64.3562ZM76.776 47.3376C77.1118 49.4828 77.3996 51.628 77.8313 53.8208C78.1671 55.537 78.5029 57.3008 78.6947 59.0647C78.263 59.16 78.1671 59.6367 78.359 59.9704C78.311 60.0181 78.311 60.0658 78.263 60.1134C78.0232 60.7332 76.824 60.6855 76.2963 60.7808C75.337 60.9715 74.3776 60.9715 73.4183 61.0192C71.5475 61.0669 69.6768 61.0192 67.854 60.9239C65.8873 60.8285 63.9206 60.4948 62.0019 60.1611C60.2271 59.8751 58.0685 60.0181 56.4376 59.2077C56.3896 59.1123 56.3417 59.017 56.2457 58.9693C56.1498 58.4926 56.5335 57.3008 56.5815 57.0148C56.7254 56.0614 56.9173 55.108 57.1571 54.1545C57.6368 52.2 58.2604 50.2455 58.6441 48.291C59.4116 44.5726 59.9393 40.8543 62.2417 37.708C62.8653 37.708 63.4889 37.708 64.0645 37.6603C64.2084 42.3797 71.3077 40.1392 70.1085 36.7545C71.2597 36.4685 72.4109 36.0395 73.5142 35.6104C73.6101 35.7534 73.802 35.8488 73.9459 35.8488C74.2817 36.4685 74.4736 37.1836 74.6175 37.8033C74.9053 38.8521 75.1451 39.9008 75.385 40.9496C75.8167 43.0471 76.4402 45.1447 76.776 47.3376Z" fill="black"/>
<path d="M90.1112 6.57861C88.0966 6.62628 86.0819 7.103 84.1152 7.38902C83.3477 7.48437 83.6835 8.62847 84.403 8.53313C86.2738 8.2471 88.1925 7.81806 90.1112 7.77039C90.8307 7.72272 90.8307 6.57861 90.1112 6.57861Z" fill="black"/>
<path d="M58.6445 20.6417C58.4527 20.2603 58.3567 19.7836 58.3567 19.4023C58.3567 18.6395 57.1575 18.6395 57.2055 19.4023C57.2055 20.022 57.3974 20.6894 57.6852 21.2614C57.8291 21.5475 58.2128 21.6428 58.5006 21.4521C58.6925 21.2614 58.7884 20.9277 58.6445 20.6417Z" fill="black"/>
<path d="M71.6906 14.9688C71.067 14.5874 70.4434 15.5885 71.115 15.9699C71.019 15.9222 71.067 15.9222 71.115 16.0175C71.1629 16.1605 71.1629 16.2559 71.2109 16.3989C71.2589 16.6849 71.2589 16.971 71.2589 17.2093C71.2589 17.972 72.4101 17.972 72.4101 17.2093C72.3621 16.4942 72.4101 15.4455 71.6906 14.9688Z" fill="black"/>
<path d="M77.208 20.737C77.1121 25.3611 72.699 27.0296 69.0055 28.412C66.655 29.2701 63.9688 29.6992 61.5225 28.9364C60.755 28.6981 60.2273 28.269 59.6517 27.697C59.3639 27.4109 58.2606 26.3622 58.5964 25.8855C59.0281 25.2657 57.9728 24.6937 57.5891 25.3134C56.6297 26.7912 58.9322 28.7457 59.9875 29.5085C62.1461 31.034 65.5038 30.6049 67.9022 29.9852C72.5551 28.7934 78.3113 26.2668 78.4072 20.737C78.4072 19.9742 77.256 19.9742 77.208 20.737Z" fill="black"/>
<path d="M83.9711 82.9479C83.7313 81.8515 82.2443 81.9468 81.4288 81.9468C80.7093 81.9468 80.0378 81.9945 79.3182 82.0422C78.4548 82.0898 77.6394 82.3282 76.7759 82.4235C76.8719 81.7085 76.8239 80.9934 76.8239 80.2783C76.8239 78.3715 76.7759 76.56 76.5361 74.6531C76.2483 72.4602 75.8645 70.315 75.8645 68.1222C75.8645 67.3594 74.6653 67.3594 74.7133 68.1222C74.7613 73.08 76.3442 77.9901 75.5288 82.9956C75.2889 84.378 75.145 85.8559 76.4881 86.7139C77.4475 87.286 78.6947 87.0476 79.654 86.7616C80.9491 86.2849 84.3549 84.7594 83.9711 82.9479ZM81.4768 84.5211C80.6134 85.0931 79.702 85.5222 78.6947 85.7605C77.9272 85.9512 77.0637 85.9035 76.632 85.1885C76.3922 84.7594 76.4402 84.1874 76.5841 83.6153C76.632 83.6153 76.632 83.6153 76.68 83.6153C77.4475 83.5676 78.167 83.2339 78.9345 83.2339C79.4142 83.2339 79.8459 83.1863 80.3256 83.1386C80.9012 83.0909 81.4768 83.0909 82.1004 83.0909C82.3402 83.0909 82.5801 83.1386 82.8199 83.1863C82.8679 83.1863 82.8679 83.1863 82.8679 83.1863C82.7719 83.7107 81.7646 84.2827 81.4768 84.5211Z" fill="black"/>
</g>
<defs>
<filter id="filter0_d" x="25" y="0" width="80" height="95" filterUnits="userSpaceOnUse" color-interpolation-filters="sRGB">
<feFlood flood-opacity="0" result="BackgroundImageFix"/>
<feColorMatrix in="SourceAlpha" type="matrix" values="0 0 0 0 0 0 0 0 0 0 0 0 0 0 0 0 0 0 127 0"/>
<feOffset dy="4"/>
<feGaussianBlur stdDeviation="2"/>
<feColorMatrix type="matrix" values="0 0 0 0 0 0 0 0 0 0 0 0 0 0 0 0 0 0 0.1 0"/>
<feBlend mode="normal" in2="BackgroundImageFix" result="effect1_dropShadow"/>
<feBlend mode="normal" in="SourceGraphic" in2="effect1_dropShadow" result="shape"/>
</filter>
<clipPath id="clip0">
<rect width="72" height="87" fill="white" transform="translate(29)"/>
</clipPath>
</defs>
</svg>
