<svg width="127" height="107" viewBox="0 0 127 107" fill="none" xmlns="http://www.w3.org/2000/svg">
<path opacity="0.7" d="M126.157 50.6817C124.463 54.5421 120.508 54.7099 117.4 53.8707C117.542 54.8778 117.542 56.0527 117.542 56.8919C117.4 60.0809 115.705 62.5985 113.869 64.6126C109.914 69.1444 103.7 70.9906 98.6147 68.473C98.756 71.3263 98.4735 73.6761 96.9198 76.0259C94.9424 78.7114 91.4112 80.3898 88.5863 81.0612C85.6202 81.9004 82.0891 80.7255 79.4054 79.0471C78.558 78.5436 77.8518 77.8722 77.2868 77.2008C76.5806 80.5577 75.5918 83.0753 72.767 84.5859C69.5183 86.4322 65.5635 86.2643 62.1736 85.2573C56.3826 83.5788 51.439 78.3757 50.309 71.4942C49.6028 72.5012 48.7553 73.3404 48.0491 74.0118C45.3655 77.033 41.5519 77.7043 37.8795 78.04C30.8173 78.5436 25.7325 74.5153 22.3426 67.466C19.6589 70.4871 15.1391 71.4942 11.608 70.655C10.7605 70.4871 10.0543 70.1514 9.20683 69.9836C4.96949 67.2981 1.01464 64.2769 0.167174 58.0668C-0.539049 52.1923 1.01464 46.9892 4.40451 43.1288C6.52319 41.2825 9.20683 40.6111 12.0317 40.779C12.0317 40.1076 12.0317 39.4363 12.173 38.597C12.8792 35.0723 15.9866 32.7226 18.529 31.212C23.755 28.3587 32.6535 27.1838 37.1733 32.5547C37.1733 32.3869 37.1733 32.3869 37.3145 32.219C38.0208 30.2049 39.292 28.5265 40.8456 27.0159C43.6705 24.1626 47.9079 22.652 51.5802 21.4771C58.2187 19.463 66.5522 23.9948 68.6709 31.8834C69.2358 29.5336 71.072 27.5194 72.6257 26.5124C75.4506 24.4983 78.558 23.9948 81.8066 24.834C85.7615 25.841 89.9988 29.5336 90.9875 34.2331C93.1062 29.5336 99.4622 29.8692 103.135 31.7155C105.253 32.8904 107.654 35.0724 108.784 37.9257C110.056 36.2473 113.304 35.5759 114.717 35.5759C118.248 35.408 121.779 36.9186 124.321 39.9398C126.864 42.6253 127.852 47.157 126.157 50.6817Z" fill="#EAF5FB"/>
<g clip-path="url(#clip0)" filter="url(#filter0_d)">
<path d="M46.6283 44.7848C46.5098 44.5094 46.3493 44.1868 46.1837 43.9534C45.5632 43.0669 44.5283 42.3805 43.4317 42.765C43.3922 42.6732 43.3527 42.5814 43.2686 42.487C42.8241 41.6555 41.9496 41.2917 41.0889 41.4659C41.1696 40.8438 41.2948 40.2242 41.6406 39.6621C42.5785 38.1492 40.4219 36.7266 39.3554 38.1425C38.3334 39.561 37.9576 41.4197 37.6368 43.1025C37.2404 45.3182 36.4897 47.4687 36.7601 49.7676C36.9456 51.211 38.655 51.8467 39.8881 51.4253C39.8803 51.5592 39.8752 51.6484 39.9121 51.7849C40.0959 54.034 43.0538 53.9807 44.1624 52.6119C44.2594 52.4832 44.3563 52.3544 44.4533 52.2257C44.6738 52.2832 44.8523 52.2935 45.078 52.2617C46.2288 53.2683 48.0549 52.6572 48.7198 51.2181C49.6414 49.2117 48.0786 46.0325 46.6283 44.7848Z" fill="#F2933D"/>
<path d="M85.8626 43.7333C85.7544 43.2794 85.6463 42.8254 85.5381 42.3715C85.5012 42.2351 85.4643 42.0986 85.4695 42.0094C86.554 40.2811 84.5193 37.5223 82.5208 38.795C80.8475 39.8626 80.8098 41.2931 80.9034 42.7759C80.7619 42.9021 80.6649 43.0308 80.5654 43.2041C80.5156 43.2908 80.4186 43.4195 80.3689 43.5062C80.1011 43.4908 79.8308 43.52 79.558 43.5938C78.8783 43.7337 78.3197 44.1044 77.8898 44.5721C77.0651 44.1216 75.8818 44.4564 75.8098 45.7058C75.7532 46.6875 75.6074 47.664 75.5482 48.6904C75.4325 50.6984 77.6696 51.4989 79.1198 50.4184C79.3532 50.2528 79.5917 49.9979 79.7857 49.7405C81.0661 51.6051 84.3072 51.2995 84.4169 48.6195C84.4297 48.3964 84.4426 48.1733 84.4555 47.9502C85.0956 47.7185 85.662 47.2139 85.9339 46.3789C86.1244 45.4049 86.0368 44.594 85.8626 43.7333Z" fill="#F2933D"/>
<path d="M57.3595 8.51239C57.1476 9.08219 57.6401 8.30472 57.3595 8.51239V8.51239Z" fill="#EA5760"/>
<path d="M57.3569 8.55703C57.3595 8.51241 57.3595 8.51241 57.3569 8.55703C57.3595 8.51241 57.4092 8.42573 57.4118 8.38111C57.4092 8.42573 57.362 8.46778 57.3569 8.55703Z" fill="#EA5760"/>
<path d="M56.9796 8.89335C60.3192 5.32512 55.7855 0.0942427 51.9335 3.23001C50.431 4.44176 49.7747 6.50814 49.2676 8.31451C49.1552 8.71097 49.0428 9.10743 48.9304 9.50389C46.265 8.3653 43.0153 8.04367 40.4041 8.29609C39.3228 8.41285 38.481 9.03589 37.9834 9.90262C37.4591 10.4544 37.1923 11.2001 37.4111 12.0634C37.4284 13.318 37.939 14.5562 39.0657 15.2032C39.5412 15.4992 40.0638 15.7532 40.5889 15.9625C43.226 17.592 46.8671 18.1152 49.6722 17.6054C50.079 17.5393 50.4437 17.426 50.7663 17.2655C51.1156 17.4199 51.5146 17.4877 51.8716 17.5083C54.0135 17.6317 55.9013 15.9497 56.0247 13.8079C56.0479 13.4063 56.1156 13.0072 56.1808 12.6528C56.1834 12.6082 56.2383 12.4323 56.246 12.2984C56.3138 11.8994 56.4236 11.5475 56.4888 11.1931C56.6613 10.5315 56.8337 9.8699 57.0482 9.25548C57.1057 9.03494 57.2078 8.81697 57.2627 8.64105C57.2653 8.59643 57.1709 8.68053 56.9796 8.89335Z" fill="#EA5760"/>
<path d="M78.298 53.8184C78.1812 52.7372 77.3505 51.6148 76.5884 50.8545C75.6556 49.9501 74.5289 49.3032 73.2297 49.3178C72.4239 49.3161 71.5632 49.4904 70.8681 49.898C69.8932 46.6183 64.9452 46.2436 63.3844 49.2428C63.1312 48.1985 62.3512 47.7506 61.5008 47.7463C60.6555 47.6528 59.7399 48.003 59.4079 49.1031C59.2406 49.6755 59.238 49.7201 59.1831 49.896C58.857 49.34 58.3944 48.8209 57.8349 48.4304C56.7108 47.7388 55.1069 47.6016 53.9897 48.3431C52.9668 49.0005 52.2907 49.8569 51.7802 50.9468C51.4189 51.7766 51.1813 52.7926 51.353 53.6979C51.3821 53.9682 51.5006 54.2437 51.6216 54.4745C51.4732 55.4957 51.9049 56.5503 52.5279 57.3921C53.3561 58.5591 54.9076 58.8276 56.2591 58.6816C56.574 58.655 56.8915 58.5838 57.167 58.4653C57.0237 59.3973 56.8779 60.3738 56.69 61.3032C56.2911 63.5635 55.4177 66.2889 55.7353 68.5458C55.8915 69.7188 56.1078 70.6267 56.857 71.61C57.2329 72.0794 57.7924 72.4698 58.3596 72.7264C58.5827 72.7392 60.6963 73.3536 59.5936 73.0661C61.7098 73.6358 63.8654 74.2973 66.009 73.615C66.9666 73.312 67.7561 72.8203 68.3275 72.2265C68.9471 72.3517 69.6164 72.3903 70.1622 72.2427C72.1118 71.8178 73.0969 70.2628 73.428 68.4015C73.887 65.8761 73.0647 63.0529 72.6261 60.5652C72.4544 59.6599 72.2854 58.71 72.1137 57.8047C72.287 57.9042 72.4629 57.9591 72.6363 58.0587C73.8154 58.5743 75.0751 58.4679 76.2215 57.9967C78.0004 57.4277 78.5151 55.4874 78.298 53.8184Z" fill="#EA5760"/>
<path d="M58.6617 72.9229C58.575 72.8732 58.4437 72.8208 58.357 72.7711C58.2678 72.7659 58.3544 72.8157 58.6617 72.9229Z" fill="#EA5760"/>
<path d="M81.4707 76.4313C81.2757 73.5995 79.8708 70.7875 76.6529 70.6916C75.5348 70.6719 74.5248 71.1061 73.8091 71.8708C73.4865 72.0312 73.1141 72.2784 72.7837 72.5728C72.6893 72.6569 72.5924 72.7856 72.498 72.8697C72.2723 72.9014 72.0912 72.9358 71.9102 72.9701C71.004 72.3806 69.9931 72.0537 68.7703 72.2966C68.3163 72.4048 67.9491 72.5627 67.671 72.7258C67.054 72.5559 66.3375 72.5594 65.4768 72.7336C65.3404 72.7705 65.2486 72.81 65.1121 72.8469C64.9808 72.7945 64.8495 72.7422 64.6736 72.6873C63.8387 72.4153 62.8492 72.4926 61.9783 72.8453C60.8438 72.3322 59.5498 72.2576 58.3982 72.8181C58.351 72.8601 58.3064 72.8575 58.2592 72.8996C56.7857 72.0535 54.8121 72.1189 53.9137 73.7236C53.0367 73.4044 51.9949 73.613 51.245 74.1966C49.328 75.6083 49.2157 78.3328 50.1735 80.3579C51.2497 82.6585 54.544 82.9827 56.4953 81.752C56.4953 81.752 56.4953 81.752 56.54 81.7546C56.6266 81.8044 56.6687 81.8516 56.7554 81.9013C57.8692 82.7714 59.9347 82.6666 60.9361 81.6051C61.1275 81.3923 61.3188 81.1794 61.4655 80.964C61.8174 81.0739 62.1692 81.1837 62.5708 81.2068C62.8832 81.2248 63.1535 81.1956 63.4238 81.1665C64.5746 82.173 66.0153 82.0322 67.1772 81.2933C68.0147 81.5206 68.9647 81.3515 69.7936 80.9516C70.5736 81.3995 71.5553 81.4561 72.4212 81.1926C74.1443 82.3664 76.5951 81.7914 77.6402 79.9712C77.6402 79.9712 77.6402 79.9712 77.6848 79.9738C79.3539 79.7566 81.6175 78.544 81.4707 76.4313Z" fill="#C82452"/>
<path d="M65.6411 93.2032C64.1153 92.4885 62.7886 91.4271 61.2079 90.8883C59.7585 90.4018 58.5564 92.6158 59.9904 93.37C61.553 94.2212 62.7493 95.9914 64.5609 96.4092C66.7268 96.8923 67.6474 94.1248 65.6411 93.2032Z" fill="#C82452"/>
<path d="M78.3258 95.2776C77.2643 94.2762 76.098 93.5374 74.7928 92.8802C73.7476 92.3722 71.9678 92.1801 70.9476 92.7929C70.4361 93.1215 70.1221 93.9093 70.6318 94.3864C71.3124 95.0076 72.1945 95.2376 72.9274 95.7275C73.8782 96.3196 74.787 96.8644 75.5911 97.6719C77.2362 99.4232 80.0258 96.853 78.3258 95.2776Z" fill="#C82452"/>
<path d="M79.6873 28.1553C79.6401 28.1973 79.5955 28.1947 79.5483 28.2368C79.0797 27.0457 78.5193 25.8942 77.8173 24.8688C75.0119 20.7225 71.2738 17.9998 66.3069 17.1763C61.0303 16.2901 55.8509 19.9314 53.1 24.1604C52.4607 25.1532 51.9527 26.1984 51.5761 27.296C50.2872 27.1322 48.9726 27.4146 47.9892 28.1637C46.3819 27.31 44.1328 27.4938 43.6497 29.6597C43.6472 29.7043 43.6446 29.7489 43.642 29.7935C42.2347 29.3543 40.6026 29.7079 39.3197 30.216C35.744 31.6664 36.4685 36.1852 38.8593 38.2034C39.3716 38.6358 39.8916 38.9344 40.4143 39.1884C41.003 39.8491 41.5968 40.4206 42.5682 40.6557C43.5396 40.8908 44.4321 40.9422 45.243 40.8546C45.7871 41.5128 46.3809 42.0843 46.9379 42.5193C47.663 43.1431 48.3933 43.6777 49.218 44.1282C50.3164 45.266 51.7452 46.1094 53.0582 46.6328C54.8122 47.2712 56.773 47.429 58.6128 47.3559C59.8606 48.2337 61.1658 48.891 62.5783 49.241C62.7079 50.0991 63.1448 51.0645 63.9274 51.4678C64.5367 51.7715 64.8834 51.9706 65.5527 52.0092C66.222 52.0478 66.7678 51.9001 67.3659 51.6212C67.8696 51.4264 68.339 51.0505 68.7191 50.6695C69.1464 50.2464 69.5317 49.7761 69.8749 49.2587C69.9247 49.172 70.0191 49.0879 70.0688 49.0012C70.1632 48.9171 70.213 48.8305 70.3074 48.7464C74.1475 48.9229 77.4906 46.0712 79.035 42.5786C79.6502 41.2262 79.9977 39.8583 80.1692 38.4355C81.1423 37.8648 81.9103 36.9689 82.5101 35.8842C82.9133 35.1016 83.2746 34.2718 83.5886 33.484C83.798 32.9588 83.8734 32.4259 83.9936 31.8956C84.0536 31.6304 84.0562 31.5858 84.0562 31.5858C84.4628 29.1916 82.1767 26.9109 79.6873 28.1553Z" fill="#FFEDC9"/>
<path d="M79.9229 18.6328C79.4286 17.8879 78.845 17.138 78.2589 16.4326C78.2615 16.388 78.2194 16.3408 78.2194 16.3408C76.9622 14.0746 74.719 12.6021 72.3059 11.7467C71.3378 9.9001 69.0535 9.14164 67.0952 8.93922C63.9794 8.62531 58.5741 9.97026 57.3918 13.3942C57.1189 13.468 56.8907 13.5444 56.6599 13.6654C55.6422 14.2336 54.8793 15.0402 54.2006 15.9413C53.7467 16.0494 53.3322 16.2494 52.9941 16.6776C52.7058 17.0192 52.3703 17.4028 52.1266 17.7469C51.2075 17.3805 50.0422 17.4029 49.1532 18.068C48.592 18.4833 48.0703 18.9905 47.6379 19.5028C47.5117 19.3612 47.2912 19.3038 47.1127 19.2935C44.1573 19.3022 40.8366 23.3192 39.904 27.071C39.1729 28.1033 38.4419 29.1357 37.9683 30.362C36.9687 32.9458 40.5608 34.3169 42.0599 32.3886C42.0599 32.3886 42.0625 32.344 42.1071 32.3466C42.2435 32.3097 42.3379 32.2256 42.4769 32.1441C42.9935 31.7261 43.3393 31.164 43.643 30.5548C43.879 30.3445 44.0703 30.1317 44.2617 29.9189C44.853 30.535 45.73 30.8541 46.6404 30.5932C47.7672 31.2402 49.2921 31.1938 50.4007 29.825C51.2682 28.7558 52.1383 27.6419 53.0083 26.528C53.234 26.4962 53.5043 26.467 53.7326 26.3906C53.6657 27.5508 54.4149 28.5342 55.4129 29.0842C56.2488 30.1173 57.7849 30.6536 59.1098 30.1927C60.0812 30.4278 61.2096 30.269 61.9252 29.5043C62.1638 29.2495 62.3577 28.992 62.5962 28.7372C63.6363 29.3344 65.114 29.33 66.1789 28.7198C67.376 28.9231 68.6039 28.591 69.3058 27.2883C70.3586 25.3343 70.7609 21.4624 69.7576 18.6736C69.7602 18.629 69.7628 18.5844 69.7628 18.5844C70.8037 19.9427 72.2223 20.9647 73.863 21.2383C74.1548 21.6133 74.4045 21.9411 74.6542 22.2689C75.2773 23.1107 75.9896 23.9576 76.6572 24.802C77.0751 25.3185 77.9711 26.0865 78.1607 26.6794C78.9143 29.1405 82.6334 29.0862 82.7929 26.3197C82.8923 23.8182 81.2823 20.681 79.9229 18.6328Z" fill="#F2933D"/>
<path d="M57.0968 34.8224C56.3502 33.7944 54.8219 33.1243 53.5699 33.0969C51.8716 33.0437 50.6154 33.8667 49.5565 35.1488C48.6916 36.1735 48.5544 37.7773 48.7055 39.0396C48.8986 40.3491 49.6847 41.4689 50.7591 42.2471C52.7792 43.7067 56.3035 43.1487 57.5948 40.9399C57.993 40.2465 58.2178 39.4536 58.2169 38.6924C58.222 38.6032 58.2743 38.4719 58.2795 38.3826C58.5377 37.0096 57.8014 35.8032 57.0968 34.8224Z" fill="#F7BFA7"/>
<path d="M81.2987 34.3818C79.8844 32.5094 77.207 32.3551 75.2214 33.4047C73.1414 34.5384 72.0628 36.9386 72.5564 39.2503C73.013 41.4256 74.9885 42.8826 77.078 43.1374C79.0783 43.387 81.0588 42.4267 82.3116 40.8871C84.0886 38.7958 83.3239 35.7521 81.2987 34.3818Z" fill="#F7BFA7"/>
<path d="M65.1253 25.2564C65.5518 24.0722 66.0691 22.0873 64.7244 21.3383C64.1623 20.9925 63.7067 21.9064 64.2713 22.2076C65.0934 22.7026 64.256 24.8034 63.9969 25.4152C63.5731 26.5548 63.0102 27.776 62.3237 28.8109C61.6399 29.8012 60.2995 30.5298 59.2793 31.1426C58.259 31.7553 56.3652 32.7654 55.5945 31.3779C55.2684 30.8218 54.4317 31.3556 54.7579 31.9117C55.6521 33.4854 57.4627 33.1421 58.8872 32.5079C59.7607 32.1105 60.5973 31.5767 61.3473 30.9932C61.9085 30.5778 62.6061 30.1255 63.0412 29.5686C64.0108 28.2814 64.6388 26.7058 65.1253 25.2564Z" fill="black"/>
<path d="M56.417 25.6498C57.1892 23.9035 58.5123 21.9203 57.9562 19.9184C57.7691 19.2808 56.856 19.5863 56.9985 20.2213C57.4414 21.8586 56.1234 23.7526 55.5031 25.1942C54.6785 27.0718 53.5965 28.7555 51.955 30.0488C50.969 30.8426 49.8544 31.5395 48.7002 32.1445C47.8216 32.6311 46.156 33.5648 45.1631 32.9256C44.601 32.5798 44.1454 33.4937 44.7075 33.8395C45.8763 34.5337 47.4372 33.8625 48.5416 33.3442C49.9239 32.6627 51.2694 31.8449 52.4888 30.8854C54.2693 29.5106 55.4929 27.7008 56.417 25.6498Z" fill="black"/>
<path d="M78.5674 95.7393C77.6877 93.1366 73.9574 92.6082 71.4929 92.6452C71.2808 90.887 71.158 89.1338 71.2137 87.391C71.314 85.6507 71.0127 83.8873 71.2023 82.1521C71.6039 82.1753 72.0081 82.1538 72.462 82.0457C74.0967 81.6474 74.8509 80.2135 75.2954 78.7169C76.5482 79.5054 77.9616 80.6166 79.4153 80.2527C81.6404 79.7094 82.343 76.8398 82.2777 74.8661C82.2553 73.7008 81.9206 72.5175 81.4443 71.4603C81.1259 70.7704 80.7912 69.587 79.8961 69.5802C78.9565 69.5708 78.1619 70.1518 77.1751 70.1845C76.5478 70.1931 76.0277 69.8945 75.4107 69.7246C75.4185 69.5908 75.379 69.4989 75.3421 69.3625C75.3446 69.3179 75.3 69.3153 75.3026 69.2707C75.2605 69.2235 75.2211 69.1317 75.179 69.0845C75.1447 68.9034 75.1575 68.6803 75.0786 68.4967C74.9043 67.636 74.8614 66.8276 74.7764 65.9721C74.6167 64.0825 74.3652 62.2324 74.1583 60.3849C74.0733 59.5294 73.9883 58.6738 73.8586 57.8157C74.5992 58.1718 75.7774 57.9263 76.4622 57.6971C77.0998 57.51 77.6609 57.0947 78.0514 56.5352C78.0883 56.6716 78.1724 56.766 78.3037 56.8183L78.4324 56.9153C78.477 56.9179 78.4744 56.9625 78.5191 56.9651C81.9224 58.5044 85.039 54.9233 87.0125 52.5299C87.8277 51.5919 88.6403 50.6985 89.3267 49.6636C90.1127 48.4553 90.7699 47.1501 91.4693 45.8921C91.6186 45.632 91.773 45.2828 91.9721 44.9361C92.0613 44.9412 92.1085 44.8992 92.2003 44.8597C93.6351 44.047 95.8893 43.774 96.5723 42.0225C96.7868 41.4081 95.9175 40.9551 95.703 41.5695C95.3366 42.4886 94.3713 42.9254 93.3639 43.315C93.5054 43.1889 93.5629 42.9683 93.3973 42.7349C93.1476 42.4071 95.1975 40.242 95.4935 39.7666C95.7947 39.2019 94.9254 38.7489 94.6242 39.3135C94.2759 39.9203 92.957 41.053 92.5383 42.1034C92.4962 42.0562 92.4542 42.009 92.4568 41.9644L92.4147 41.9172C92.7262 41.174 92.993 40.4283 93.3465 39.7324C93.5482 39.3411 93.8545 38.6872 93.7909 38.2358C93.7643 37.9209 93.3361 37.5828 93.0083 37.8325C92.9139 37.9166 92.8195 38.0007 92.7698 38.0874C92.6728 38.2161 92.6625 38.3946 92.7466 38.489C92.6368 38.8408 92.43 39.3214 92.2807 39.5814C92.0293 40.0594 91.8646 40.5871 91.6578 41.0677C91.6174 40.2147 91.7109 39.3695 91.9331 38.6212C92.103 38.0042 91.1316 37.7691 90.9592 38.4307C90.5593 39.9299 90.4934 41.8512 91.1276 43.2757C91.204 43.5039 91.3773 43.6035 91.5558 43.6137C91.4511 43.8763 91.349 44.0943 91.2967 44.2256C91.0376 44.8375 90.7338 45.4467 90.4327 46.0114C89.9273 47.012 89.3773 48.01 88.7826 49.0055C88.1408 50.043 87.3334 50.8471 86.5654 51.743C84.8355 53.7923 81.9318 57.5647 78.888 56.0014C78.8013 55.9516 78.6675 55.9439 78.5782 55.9387C78.8794 55.3741 79.0518 54.7125 79.1299 54.1349C79.2568 52.7096 78.3472 51.4036 77.4195 50.4099C76.6205 49.5132 75.5461 48.735 74.3465 48.5763C75.1256 48.263 75.8207 47.8554 76.5183 47.4031C78.2413 46.2489 79.5988 44.4467 80.6439 42.6266L80.6413 42.6712C80.3282 44.2202 80.5746 46.1595 81.0277 47.6183C81.2148 48.2559 82.1725 47.9529 81.9854 47.3153C81.5691 45.993 81.3125 44.2321 81.6153 42.8617C81.7354 42.3314 81.0764 42.1143 80.7906 42.4112C81.6341 40.9824 82.1283 39.3991 82.4019 37.7584C85.1651 37.2013 86.4074 33.5122 86.4596 31.0528C86.4948 29.667 85.9318 28.56 84.6686 27.95C84.406 27.8453 84.1434 27.7406 83.8782 27.6806C84.1519 26.0398 83.7562 24.3605 83.1718 22.8494C82.5504 21.2018 81.7034 19.586 80.804 18.1015C78.837 14.9437 76.0514 12.0074 72.7003 10.3368C69.478 8.76315 65.7452 8.27936 62.2183 8.88194C60.817 9.11456 59.4501 9.52825 58.12 10.0784C59.2303 7.90383 59.8205 5.4307 58.5976 3.34553C57.7429 1.8636 55.776 1.03389 54.1044 1.29571C52.2071 1.58928 51.0994 3.71919 50.34 5.2424C49.73 6.50558 49.3902 7.73958 49.2187 9.16235C49.156 9.47214 49.1355 9.82912 49.1149 10.1861C48.098 9.18729 46.7532 8.43822 45.708 7.93027C43.1422 6.61833 39.8161 6.06845 37.1405 7.43643C33.8643 9.12795 34.7149 13.7884 36.7282 16.1429C38.321 18.0256 40.8182 18.9754 43.3144 19.1641C42.1869 20.084 41.2645 21.3292 40.4785 22.5375C39.3021 24.3053 38.2493 26.2593 37.4617 28.2733C36.7813 29.9801 36.1455 31.6896 35.6856 33.4539C35.4583 34.2914 34.8465 36.3604 35.9836 36.8288C36.5954 37.088 37.051 36.174 36.4366 35.9595C35.956 35.7528 36.7746 33.2032 36.8895 32.7622C37.334 31.2656 37.8676 29.7741 38.488 28.3325C39.2207 26.4943 40.2632 24.7188 41.3427 23.0798C42.2256 21.7428 43.2398 20.4581 44.5879 19.5956C44.7269 19.5141 44.8685 19.3879 45.0075 19.3064C45.5902 19.2952 46.1308 19.2369 46.7186 19.1364C47.1253 19.0703 47.1511 18.6241 46.8988 18.3409L46.946 18.2989C47.0326 18.3486 47.1193 18.3984 47.2557 18.3615C49.1007 18.1992 50.8718 17.7641 52.4533 16.736C53.9404 15.792 55.1408 14.3837 56.2022 13.057C56.5403 12.6288 56.881 12.1559 57.177 11.6805C57.4996 11.52 57.8223 11.3596 58.187 11.2463C59.6535 10.6592 61.1569 10.2086 62.6946 9.93912C65.9906 9.45755 69.406 10.0126 72.4104 11.4841C75.4568 13.0028 77.8957 15.7401 79.7494 18.5332C80.6118 19.8813 81.3327 21.3555 82.009 22.8271C82.6407 24.2962 83.1676 26.0278 82.8966 27.624C82.894 27.6686 82.8888 27.7578 82.8863 27.8025C82.2092 27.8977 81.6085 28.2213 81.3443 28.9224C81.3443 28.9224 81.3443 28.9224 81.3417 28.967C81.3022 28.8752 81.3048 28.8306 81.2653 28.7387C80.4071 26.5403 78.8589 24.6602 77.0199 23.1663C74.926 21.4339 72.4365 20.3502 70.044 19.1378C69.6948 18.9834 69.4142 19.191 69.3541 19.4562C69.2074 19.6716 69.1868 20.0286 69.4889 20.2251C70.0484 20.6155 70.1677 21.6521 70.3548 22.2897C70.5394 22.9719 70.7265 23.6094 70.7299 24.326C70.7918 25.5831 70.3628 26.812 69.763 27.8967C68.7128 29.806 66.6337 31.7009 64.3699 30.5854C63.8052 30.2843 63.305 31.1956 63.9168 31.4547C66.6612 32.7769 69.147 30.816 70.5354 28.4784C71.3291 27.1363 71.7786 25.5505 71.6902 23.9784C71.6524 23.0808 71.3417 22.257 71.1228 21.3937C71.049 21.1209 70.9726 20.8926 70.8988 20.6197C72.64 21.4812 74.3365 22.3401 75.8812 23.5036C77.7279 24.8637 79.2787 26.6991 80.1892 28.7663C81.9709 32.8088 82.1239 37.9215 80.0183 41.8294C78.9131 43.9147 77.3695 45.8404 75.3289 47.0659C73.7526 48.0048 71.9763 48.5292 70.1657 48.8725C70.0765 48.8674 70.0318 48.8648 69.94 48.9043C69.6225 48.9756 69.263 48.9996 68.948 49.0262C64.3502 49.5671 59.3757 48.8774 55.0275 47.4179C53.2263 46.8216 51.4877 45.9156 49.8932 44.8387C48.4275 43.8588 47.1609 42.5322 45.8891 41.2949C44.746 40.1545 43.7394 38.9772 43.2939 37.3845C42.8116 35.6554 43.673 33.9143 43.4164 32.1534C43.3185 31.521 42.3317 31.5537 42.4295 32.1861C42.5514 33.1781 42.3138 34.1941 42.2126 35.1732C42.1088 36.197 42.1886 37.1417 42.489 38.144C42.6049 38.4641 42.7208 38.7842 42.8812 39.1068C42.8341 39.1489 42.7422 39.1883 42.695 39.2304C41.2166 40.8017 38.9536 38.1193 38.2593 36.96C37.6937 35.8977 37.5615 35.0842 38.0172 34.1703C38.7242 32.7784 40.2353 32.1939 41.3707 33.4682C41.7912 33.9401 42.4596 33.2175 42.0391 32.7456C40.8222 31.3323 39.0665 31.4998 37.7845 32.769C36.6442 33.9121 36.428 35.3323 37.015 36.7988C37.8835 38.8187 41.0579 42.0013 43.2417 39.8439C43.9042 40.7775 44.7504 41.6322 45.6017 42.3976C47.215 43.9232 48.7863 45.4017 50.6931 46.4965C51.2998 46.8449 51.9537 47.1512 52.6076 47.4575C51.8233 47.86 51.1102 48.58 50.6203 49.3129C49.6927 50.6473 48.6923 52.47 48.731 54.1288C48.7482 55.3833 49.4691 56.8576 50.5675 57.9954C50.5675 57.9954 50.565 58.04 50.5203 58.0374C49.3131 60.3407 48.1505 62.6465 47.2058 65.0545C46.7296 66.3254 46.2534 67.5963 45.5987 68.8569C44.9938 70.0308 44.3889 71.2047 43.8706 72.4285C42.6006 72.7134 41.7383 73.6934 40.5893 74.2092C40.4975 74.2487 40.361 74.2856 40.2666 74.3697C39.6711 74.604 39.9741 75.5617 40.5696 75.3274C40.706 75.2905 40.8451 75.2089 40.9841 75.1274C41.1205 75.0905 41.2595 75.009 41.438 75.0193C41.7529 74.9926 41.8997 74.7772 41.9125 74.5541C42.2377 74.349 42.5183 74.1413 42.8436 73.9362C42.134 75.3728 42.086 76.9817 41.3764 78.4183C41.1198 78.9855 41.9891 79.4385 42.2457 78.8713L42.8034 77.7394C42.9029 77.5661 42.8686 77.385 42.7871 77.246C43.0222 76.2746 43.2126 75.3006 43.6682 74.3867C43.6657 74.4313 43.7103 74.4339 43.7103 74.4339C43.7318 74.8381 43.7532 75.2422 43.8665 75.6069C44.0116 76.1973 44.0597 76.9164 44.0211 77.5858C44.0185 77.6304 44.0134 77.7196 44.0082 77.8089C43.9851 78.2105 43.9173 78.6095 43.8547 78.9193C43.7346 79.4496 44.5644 79.8108 44.7763 79.241C45.0329 78.6738 45.0637 78.1383 44.9212 77.5033C44.8972 77.1438 44.9152 76.8314 44.8912 76.4719C44.8697 76.0677 44.8928 75.6661 44.7821 75.2568C44.7426 75.165 44.7478 75.0757 44.7083 74.9839C45.436 75.5631 46.0119 76.4469 46.7919 76.8948C47.3566 77.196 47.8096 76.3267 47.245 76.0255C46.2495 75.4309 45.6788 74.4578 44.6834 73.8632C44.7906 73.556 44.6276 73.278 44.365 73.1733C44.4568 73.1338 44.5512 73.0497 44.5563 72.9605C45.5507 70.4659 46.9365 68.1729 47.8417 65.6731C48.7443 63.218 49.9541 60.8701 51.1614 58.5669C52.2727 59.4816 53.6328 59.9629 54.8213 59.5389C54.4481 61.353 54.0775 63.1225 53.7936 64.9417C53.5928 66.0942 53.7044 67.2646 53.5037 68.4171C53.3682 69.2152 53.3665 70.0209 53.4987 70.8344C51.9437 69.8494 50.4155 71.5074 49.4115 72.6135C48.7431 73.3361 48.2008 74.2003 48.0104 75.1742C47.8148 76.2375 48.3408 77.208 48.8721 78.0892C49.9714 79.9882 51.6869 81.2959 53.9154 81.4691C54.8971 81.5257 55.865 81.0442 56.694 80.6443C57.3393 80.3233 57.8635 79.7715 58.3853 79.2644C58.3742 81.0098 58.4524 82.7604 58.5777 84.4689C58.7108 86.0435 59.0696 87.5864 59.2053 89.1164C59.2267 89.5206 59.2405 90.0586 59.3461 90.5572C59.1255 90.4997 58.8998 90.5315 58.7505 90.7915C57.3176 93.1265 60.4301 95.052 62.1687 95.9581C63.2113 96.5106 64.3355 97.2022 65.5429 97.2271C66.8867 97.215 67.2393 95.7579 66.9415 94.711C66.5647 93.4804 65.4062 92.6078 64.3215 92.008C63.6256 91.6545 62.8558 91.0281 62.0054 91.0239C61.6012 91.0453 61.1996 91.0222 60.8427 91.0016C60.5303 90.9836 60.5303 90.9836 60.4196 90.5743C60.1904 89.8895 60.2367 89.0863 60.144 88.3646C60.017 87.4619 59.8479 86.512 59.7208 85.6092C59.5191 83.6725 59.4065 81.7409 59.4279 79.8169C59.8304 80.6012 60.3693 81.3486 61.1048 81.794C62.1423 82.4358 63.1712 82.4503 64.3073 82.1576C65.3096 81.8573 66.9623 81.1466 67.6067 80.0645C68.2743 80.9089 69.0861 81.5825 70.0078 81.9042C69.8182 83.6393 70.1667 85.3607 70.0218 87.0984C69.882 88.7469 70.0099 90.4108 70.1851 92.0326C70.1404 92.03 70.0486 92.0695 70.0014 92.1116C66.8728 94.3488 73.5063 97.3279 75.0449 97.8195C75.6173 97.9868 76.2343 98.1567 76.8667 98.0588C78.3126 97.8288 78.9888 96.9724 78.5674 95.7393ZM92.9966 43.4729C92.8601 43.5098 92.7211 43.5914 92.5847 43.6283C92.6345 43.5416 92.6422 43.4077 92.6473 43.3185C92.776 43.4155 92.8627 43.4652 92.9966 43.4729ZM56.4776 10.6105C55.187 11.2524 54.0174 12.1252 53.3155 13.4279C53.1662 13.6879 53.3636 14.147 53.676 14.165C53.1989 14.6747 52.6798 15.1373 52.0765 15.5054C50.9095 16.3336 49.6318 16.7524 48.2305 16.985C48.1567 16.7122 47.8126 16.4685 47.4899 16.629C46.5666 17.113 45.6012 17.5498 44.6754 18.0785C42.2083 18.1601 39.5197 17.4231 37.7828 15.7113C35.749 13.7137 34.7782 9.58357 37.779 8.01048C39.9483 6.88194 42.9097 7.54512 45.0001 8.56102C46.0453 9.06898 47.0828 9.7108 47.9341 10.4762C48.3177 10.8117 48.6987 11.1918 48.9854 11.6561C49.0463 12.1521 49.1519 12.6506 49.3047 13.1071C49.2995 13.1964 49.339 13.2882 49.4257 13.338C49.7441 14.0279 50.2959 14.5522 51.0442 14.7744C51.6586 14.9889 51.849 14.0149 51.2346 13.8004C50.7961 13.6408 50.5018 13.3104 50.2992 12.9406C50.3327 12.3605 50.2297 11.8173 49.943 11.3531C49.9507 11.2192 49.9138 11.0828 49.9215 10.9489C49.9018 9.73897 50.1102 8.45264 50.4002 7.30532C50.7477 5.93745 51.4993 4.54812 52.3694 3.43423C52.9983 2.61984 53.8796 2.08862 54.9034 2.1924C55.7932 2.28847 56.6153 2.78356 57.2512 3.40223C58.3497 4.54005 58.0975 6.58496 57.7054 7.95025C57.4755 8.83241 57.0199 9.74633 56.4776 10.6105ZM82.4216 36.6403C82.6077 34.1886 82.2609 31.6615 81.4524 29.3763C81.6678 29.523 81.9827 29.4964 82.1346 29.1918C82.5508 28.1861 83.8268 28.573 84.5176 29.0158C85.3818 29.558 85.3595 30.7208 85.3107 31.5686C85.1683 33.2617 84.2477 36.0292 82.4216 36.6403ZM60.4317 91.9181C60.9148 92.0803 61.4528 92.0665 61.9462 92.0502C62.752 92.0519 63.3956 92.5367 64.0916 92.8902C65.0922 93.3956 66.2481 94.3128 66.31 95.57C66.3615 97.0056 64.1055 95.7563 63.5408 95.4551C62.2802 94.8005 58.7901 93.2114 59.8378 91.3466C59.9562 91.6221 60.1691 91.8134 60.4317 91.9181ZM73.0687 48.9951C73.0533 49.2628 73.2138 49.5855 73.5759 49.5168C75.5573 49.3176 77.5259 51.6696 78.0083 53.3987C78.3035 54.4903 77.5047 55.9216 76.6629 56.5447C76.2905 56.7918 74.5614 57.2742 74.3194 56.8125C74.201 56.5371 73.9779 56.5242 73.7496 56.6006C73.4002 54.1181 72.8698 51.6699 72.1137 49.2535C72.4312 49.1822 72.7512 49.0663 73.0687 48.9951ZM64.0122 49.9953C65.7524 50.0956 67.5004 50.062 69.1695 49.8449C68.5148 51.1055 67.7811 52.1824 66.1593 52.3576C64.9888 52.4692 63.221 51.2928 64.0122 49.9953ZM49.765 54.0541C49.7006 52.8415 50.4968 51.4548 51.0915 50.4593C51.6363 49.5506 52.8625 47.6961 54.1703 48.3087C54.3883 48.4108 54.5693 48.3765 54.7109 48.2503C55.5459 48.5223 56.3388 48.7471 57.1763 48.9745C57.3522 49.0294 57.5728 49.0869 57.7513 49.0972C57.6595 49.1366 57.6071 49.2679 57.5574 49.3546C56.7157 52.3057 55.9607 55.3066 55.2503 58.3101C53.0871 60.1105 49.9093 56.2114 49.765 54.0541ZM54.7531 68.4891C54.8312 67.9116 54.778 67.2817 54.8114 66.7017C54.9177 65.6333 55.1133 64.5701 55.3089 63.5068C55.6246 61.9133 55.9378 60.3644 56.2981 58.7734C56.3453 58.7314 56.3925 58.6893 56.4397 58.6473C56.631 58.4344 56.5993 58.2087 56.4757 58.0225C57.0865 55.1924 57.7866 52.3674 58.576 49.5476C58.6283 49.4163 58.5888 49.3245 58.5493 49.2327C59.9644 49.5381 61.4292 49.7569 62.8992 49.8864C62.2239 51.504 63.9317 52.9455 65.4806 53.2586C68.0455 53.8094 69.3841 51.5585 70.3897 49.6466C70.4343 49.6491 70.4815 49.6071 70.5708 49.6122C70.7518 49.5779 70.9775 49.5461 71.1586 49.5118C71.156 49.5564 71.156 49.5564 71.1534 49.601C72.2151 52.9305 72.7782 56.3655 73.1602 59.8349C73.3723 61.5932 73.5397 63.3489 73.7518 65.1072C73.8368 65.9627 73.8771 66.8157 73.9596 67.7158C74.0128 68.3457 74.4204 69.0408 74.2059 69.6552L74.2034 69.6998C74.0223 69.7341 73.8859 69.771 73.7022 69.85C73.4268 69.9684 73.3195 70.2756 73.3959 70.5039C71.9817 70.9596 69.6408 71.1829 69.192 71.2018C65.636 71.534 62.1271 71.8243 58.5548 71.6631C57.5285 71.604 56.4103 71.5843 55.4415 71.3046C55.3102 71.2522 54.864 71.2265 54.8296 71.0455C54.7138 70.7254 54.6528 70.2294 54.6288 69.8698C54.5653 69.4185 54.6828 68.9328 54.7531 68.4891ZM67.8777 78.4684C67.8357 78.4212 67.7962 78.3294 67.7542 78.2822C67.3834 77.7236 66.5914 78.2599 66.9175 78.816C67.7405 80.0722 65.0435 81.036 64.2223 81.3021C61.8084 82.0136 60.6799 79.8443 59.8483 77.9608C59.7324 77.6407 59.3806 77.5309 59.1026 77.694C58.4993 78.0621 58.0248 78.5273 57.5057 78.9898C56.8424 79.6231 56.1945 79.9887 55.3707 80.2994C53.7232 80.9208 52.1107 80.1563 50.9702 78.9713C49.8297 77.7863 48.7647 76.0684 49.5738 74.4585C49.9299 73.7179 50.5906 73.1292 51.1595 72.58C51.6315 72.1595 52.4913 71.2241 53.2216 71.7586C53.5236 71.9551 53.8437 71.8393 53.9904 71.6239C54.1981 71.9045 54.4581 72.0538 54.81 72.1636C55.9075 72.5403 57.1149 72.5651 58.2751 72.632C62.1993 72.9029 66.2067 72.5071 70.0802 72.1036C71.0276 71.9791 74.0379 71.7945 75.0864 70.6909C75.6193 70.7664 76.0973 71.0178 76.6251 71.1825C77.1974 71.3498 78.0135 71.173 78.6064 70.9833C79.0158 70.8726 79.3856 70.6701 79.7924 70.604C80.0627 70.5748 80.2446 71.3016 80.3682 71.4878C80.805 72.4532 81.1526 73.4134 81.2694 74.4946C81.4497 76.0272 81.007 79.0461 79.1097 79.3397C77.7556 79.5303 76.3156 78.1041 75.2284 77.549C74.9237 77.3971 74.5565 77.555 74.4913 77.9094C74.2356 79.2378 73.7568 80.5533 72.3822 81.1009C70.3725 81.7909 68.8166 80.0447 67.8777 78.4684ZM76.5191 97.0986C75.9862 97.0231 75.4585 96.8584 74.9753 96.6962C74.3189 96.4346 69.8256 94.3847 70.5644 93.2185C70.5936 93.4888 70.8064 93.6802 71.0767 93.651C73.1843 93.5934 76.216 93.8129 77.4887 95.8114C78.0225 96.648 77.3618 97.2367 76.5191 97.0986Z" fill="black"/>
<path d="M37.188 51.6725C37.4446 51.1053 36.5779 50.6076 36.3187 51.2195C36.1669 51.5241 36.0571 51.8759 35.9052 52.1806C35.8708 51.9995 35.8365 51.8185 35.8048 51.5928C35.7198 50.7372 35.8158 49.8474 35.7308 48.9918C35.6776 48.362 35.8106 47.6085 35.8466 46.9838C35.9006 46.0467 35.9992 45.1122 36.0979 44.1777C36.2874 42.4426 36.658 40.6731 37.4646 39.1079C37.7658 38.5432 36.8518 38.0876 36.5953 38.6549C35.6343 40.5694 35.2851 42.743 35.0304 44.8325C34.846 46.4784 34.7482 48.1741 34.7475 49.741C34.7355 50.7253 34.5511 52.3712 35.2685 53.1288C36.1936 54.1671 36.9289 52.2844 37.188 51.6725Z" fill="black"/>
<path d="M42.3586 52.0602C42.4659 51.753 42.4864 51.396 42.5963 51.0442C42.7061 50.6924 42.4984 50.4118 42.2358 50.3071C42.2487 50.084 42.2143 49.9029 42.2272 49.6798C42.192 48.7376 42.2039 47.7533 42.2133 46.8137C42.215 46.0079 42.2639 45.1601 42.2209 44.3517C42.1969 43.9922 42.2724 43.4593 41.9754 43.1735C41.5103 42.699 40.8393 43.4662 41.307 43.8961C41.0968 43.6601 41.186 43.6653 41.2126 43.9802C41.2392 44.2951 41.2212 44.6075 41.2032 44.9199C41.199 45.7703 41.1973 46.576 41.1484 47.4239C41.1082 48.899 40.9684 50.5474 41.3795 51.959C41.5348 52.3709 42.199 52.4987 42.3586 52.0602Z" fill="black"/>
<path d="M48.2804 50.2973C48.2503 49.2659 47.9997 48.1769 47.7439 47.1772C47.4882 46.1775 47.1139 44.9024 46.3021 44.2288C45.8344 43.7989 45.1214 44.5189 45.6337 44.9514C46.3168 45.528 46.5648 46.6615 46.7863 47.4802C47.0472 48.3906 47.303 49.3903 47.2936 50.33C47.255 50.9993 48.2865 50.9692 48.2804 50.2973Z" fill="black"/>
<path d="M87.0731 48.3696C87.1443 46.3591 86.268 44.4729 85.6149 42.5997C85.0381 40.9547 85.3693 39.0934 84.1996 37.6381C83.7817 37.1216 82.945 37.6553 83.3629 38.1719C84.4485 39.5328 84.1646 41.3521 84.6572 42.9027C85.1181 44.2276 85.7129 45.5602 85.9455 46.9615C85.6331 46.9435 85.253 47.3245 85.453 47.739C85.6134 48.0616 85.9576 48.3053 86.1181 48.628C86.3995 49.1814 87.0474 48.8159 87.0731 48.3696Z" fill="black"/>
<path d="M72.3504 40.4921C69.3936 45.9628 59.6633 45.4467 57.8215 39.3413C57.6344 38.7037 56.6767 39.0067 56.8638 39.6442C59.0138 46.6181 69.9042 47.201 73.2643 40.9477C73.5209 40.3805 72.6516 39.9275 72.3504 40.4921Z" fill="black"/>
<path d="M60.0027 35.6615C59.9658 35.5251 60.0207 35.3491 60.073 35.2178C60.1331 34.9527 60.1459 34.7296 60.1614 34.4618C60.1768 34.1941 59.8773 33.953 59.6516 33.9848C59.3813 34.0139 59.19 34.2268 59.1745 34.4945C59.1462 34.9853 58.9395 35.4659 59.045 35.9645C59.1875 36.5995 60.1452 36.2965 60.0027 35.6615Z" fill="black"/>
<path d="M73.6911 34.3015C73.5804 33.8922 73.6087 33.4014 73.6344 32.9551C73.6258 32.3278 72.6389 32.3605 72.6475 32.9878C72.6613 33.5258 72.6304 34.0613 72.7806 34.5624C72.9231 35.1975 73.8808 34.8945 73.6911 34.3015Z" fill="black"/>
</g>
<defs>
<filter id="filter0_d" x="26" y="0" width="76.8733" height="107.234" filterUnits="userSpaceOnUse" color-interpolation-filters="sRGB">
<feFlood flood-opacity="0" result="BackgroundImageFix"/>
<feColorMatrix in="SourceAlpha" type="matrix" values="0 0 0 0 0 0 0 0 0 0 0 0 0 0 0 0 0 0 127 0"/>
<feOffset dy="4"/>
<feGaussianBlur stdDeviation="2"/>
<feColorMatrix type="matrix" values="0 0 0 0 0 0 0 0 0 0 0 0 0 0 0 0 0 0 0.1 0"/>
<feBlend mode="normal" in2="BackgroundImageFix" result="effect1_dropShadow"/>
<feBlend mode="normal" in="SourceGraphic" in2="effect1_dropShadow" result="shape"/>
</filter>
<clipPath id="clip0">
<rect width="63.469" height="95.7399" fill="white" transform="translate(35.5098) rotate(3.29894)"/>
</clipPath>
</defs>
</svg>
