<svg width="127" height="94" viewBox="0 0 127 94" fill="none" xmlns="http://www.w3.org/2000/svg">
<path opacity="0.7" d="M126.157 40.6817C124.463 44.5421 120.508 44.7099 117.4 43.8707C117.542 44.8778 117.542 46.0527 117.542 46.8919C117.4 50.0809 115.705 52.5985 113.869 54.6126C109.914 59.1444 103.7 60.9906 98.6147 58.473C98.756 61.3263 98.4735 63.6761 96.9198 66.0259C94.9424 68.7114 91.4112 70.3898 88.5863 71.0612C85.6202 71.9004 82.0891 70.7255 79.4054 69.0471C78.558 68.5436 77.8518 67.8722 77.2868 67.2008C76.5806 70.5577 75.5918 73.0753 72.767 74.5859C69.5183 76.4322 65.5635 76.2643 62.1736 75.2573C56.3826 73.5788 51.439 68.3757 50.309 61.4942C49.6028 62.5012 48.7553 63.3404 48.0491 64.0118C45.3655 67.033 41.5519 67.7043 37.8795 68.04C30.8173 68.5436 25.7325 64.5153 22.3426 57.466C19.6589 60.4871 15.1391 61.4942 11.608 60.655C10.7605 60.4871 10.0543 60.1514 9.20683 59.9836C4.96949 57.2981 1.01464 54.2769 0.167174 48.0668C-0.539049 42.1923 1.01464 36.9892 4.40451 33.1288C6.52319 31.2825 9.20684 30.6111 12.0317 30.779C12.0317 30.1076 12.0317 29.4363 12.173 28.597C12.8792 25.0724 15.9866 22.7226 18.529 21.212C23.755 18.3587 32.6535 17.1838 37.1733 22.5547C37.1733 22.3869 37.1733 22.3869 37.3145 22.219C38.0208 20.2049 39.292 18.5265 40.8456 17.0159C43.6705 14.1626 47.9079 12.652 51.5802 11.4771C58.2187 9.463 66.5522 13.9948 68.6709 21.8834C69.2358 19.5336 71.072 17.5194 72.6257 16.5124C75.4506 14.4983 78.558 13.9948 81.8066 14.834C85.7615 15.841 89.9988 19.5336 90.9875 24.2331C93.1062 19.5336 99.4622 19.8692 103.135 21.7155C105.253 22.8904 107.654 25.0724 108.784 27.9257C110.056 26.2473 113.304 25.5759 114.717 25.5759C118.248 25.408 121.779 26.9186 124.321 29.9398C126.864 32.6253 127.852 37.157 126.157 40.6817Z" fill="#EAF5FB"/>
<g clip-path="url(#clip0)" filter="url(#filter0_d)">
<path d="M53.7959 12.0487L65.1356 10.3893V21.7886L67.271 22.3658L70.9527 11.3272L81.1878 14.2853L78.3161 23.1594L75.9598 33.9094L55.6368 30.302L53.7959 12.0487Z" fill="#B8D9F4"/>
<path d="M54.3115 11.7601L55.6369 30.302C55.6369 30.302 56.8887 16.2332 65.1358 10.3893" fill="#8AA3B7"/>
<path d="M63.1475 75.9715C76.9337 75.9715 88.1095 66.4748 88.1095 54.7601C88.1095 43.0453 76.9337 33.5486 63.1475 33.5486C49.3614 33.5486 38.1855 43.0453 38.1855 54.7601C38.1855 66.4748 49.3614 75.9715 63.1475 75.9715Z" fill="#FDF0DA"/>
<path d="M84.059 40.2584C84.059 40.2584 87.9616 52.4513 82.8072 62.2634C78.6101 70.1997 70.7312 75.25 61.9688 75.9715C61.9688 75.9715 79.2728 75.8993 86.1944 62.8406C93.116 49.7819 84.059 40.2584 84.059 40.2584Z" fill="#BEB4A4"/>
<path d="M53.2067 2.38089C53.2067 2.45303 50.0405 1.08223 47.3896 3.10236C44.7388 5.1225 43.7079 9.30706 47.9787 7.79196C52.1759 6.34901 53.2067 2.38089 53.2067 2.38089Z" fill="#86CECA"/>
<path d="M83.9121 2.16442C83.9121 2.16442 86.7838 2.02013 88.4774 3.67952C90.171 5.33892 89.5819 7.4312 88.772 8.22482C88.0356 9.01845 84.3539 7.07046 83.9121 2.16442Z" fill="#86CECA"/>
<path d="M64.5463 32.1057C67.3444 30.5185 74.266 29.9413 78.1686 32.3222C78.1686 32.3222 91.0546 35.8574 94.0736 34.198C94.0736 34.198 86.1211 47.6175 72.4988 47.3289C58.9501 47.0403 52.5439 45.8138 43.6342 45.0923C34.7245 44.3708 33.1781 38.9598 32 35.2802C32 35.2802 39.2898 35.7131 45.696 32.3222C54.3848 27.7047 64.5463 32.1057 64.5463 32.1057Z" fill="#FDB842"/>
<path d="M39.2159 55.9144C39.2159 57.4295 38.0378 58.6561 36.6387 58.6561C35.2397 58.6561 34.0615 57.4295 34.0615 55.9144C34.0615 54.3993 35.2397 53.1728 36.6387 53.1728C38.1114 53.1007 39.2159 54.3272 39.2159 55.9144Z" fill="#FDF0DA"/>
<path d="M92.0858 57.5738C92.0858 58.8725 91.0549 59.9547 89.8032 59.9547C88.5514 59.9547 87.5205 58.8725 87.5205 57.5738C87.5205 56.2752 88.5514 55.193 89.8032 55.193C91.1286 55.193 92.0858 56.2752 92.0858 57.5738Z" fill="#FDF0DA"/>
<path d="M50.4087 31.3842C50.1878 31.4564 49.8933 31.6007 49.6724 31.745C49.4515 31.8171 49.3042 31.9614 49.0833 32.1057C48.6415 32.3222 48.2733 32.5386 47.8315 32.7551C47.0216 33.1158 46.1379 33.4765 45.328 33.8373C44.2235 34.2702 43.1189 34.7752 41.9408 35.1359C41.3517 35.3524 40.7626 35.4967 40.1736 35.641C39.5845 35.7853 38.9954 35.9296 38.4064 36.0017C37.8909 36.0017 37.4491 36.0738 36.9337 36.0738C36.271 36.146 35.6819 36.2181 35.0928 36.3624C34.9455 36.3624 34.7246 36.5067 34.651 36.651C34.5774 36.7953 34.5037 37.0118 34.5774 37.1561C34.651 37.3004 34.7246 37.4447 34.8719 37.5889C35.0192 37.6611 35.2401 37.6611 35.3874 37.6611C35.7555 37.5889 36.1973 37.5168 36.6391 37.4447C37.0073 37.3725 37.3018 37.3725 37.67 37.3725C38.0382 37.3725 38.48 37.3004 38.8482 37.3004C39.5845 37.1561 40.3208 37.0118 41.1308 36.7953C41.8672 36.5789 42.6035 36.4346 43.2662 36.146C44.0026 35.8574 44.7389 35.5688 45.4752 35.2802C46.4325 34.9195 47.4634 34.4866 48.347 34.0537C48.7888 33.8373 49.2306 33.6208 49.6724 33.3322C50.1142 33.1158 50.556 32.8272 50.9242 32.5386C51.1451 32.3943 51.2923 32.1057 51.2187 31.8171C51.1451 31.6728 51.0714 31.5285 50.9242 31.3842C50.8505 31.3121 50.7033 31.3121 50.556 31.3121C50.556 31.3843 50.4824 31.3842 50.4087 31.3842Z" fill="#1C1C1C"/>
<path d="M52.4708 32.3943C52.029 32.6107 51.6608 32.9715 51.2926 33.3322C50.9245 33.693 50.5563 34.0537 50.1881 34.4144C49.5254 35.1359 48.7891 35.7852 47.9791 36.4346C46.9482 37.156 45.9173 37.8775 44.8128 38.5268C44.2238 38.8876 43.7083 39.1762 43.1192 39.4648C42.5302 39.7534 41.9411 40.0419 41.352 40.3305C41.0575 40.4027 40.8366 40.547 40.542 40.6191C40.1739 40.6913 39.8793 40.8356 39.5112 40.9077C39.143 40.9799 38.7748 40.9799 38.4067 40.9799C37.9649 40.9799 37.5967 41.3406 37.5967 41.7735C37.5967 42.2064 37.9649 42.5671 38.4067 42.5671C38.8485 42.5671 39.2903 42.5671 39.6584 42.495C40.1002 42.4228 40.542 42.3507 40.9839 42.2064C41.352 42.0621 41.7202 41.9178 42.162 41.7735C42.5302 41.6292 42.8983 41.4849 43.1929 41.2685C43.9292 40.9077 44.6656 40.4748 45.3283 40.1141C45.991 39.7534 46.6537 39.3205 47.2428 38.8876C47.8318 38.4547 48.4945 38.0218 49.0836 37.5889C49.5991 37.156 50.1145 36.7232 50.5563 36.2181C51.4399 35.2802 52.3235 34.2701 53.2071 33.3322C53.428 33.1158 53.5017 32.8272 53.2808 32.5386C53.1335 32.3221 52.9126 32.25 52.6917 32.25C52.6917 32.3221 52.5444 32.3221 52.4708 32.3943Z" fill="#1C1C1C"/>
<path d="M55.0478 32.6107C54.9006 32.6829 54.7533 32.755 54.6797 32.8993C54.6797 32.8993 54.6797 32.8993 54.6797 32.9715C54.0906 33.693 53.5752 34.4144 53.0597 35.1359C52.2497 36.146 51.5134 37.0839 50.6298 38.0218C50.188 38.5269 49.7462 38.9597 49.2307 39.3926C48.7889 39.8255 48.2735 40.2584 47.7581 40.6913C47.7581 40.6913 47.8317 40.6913 47.8317 40.6191C47.7581 40.6913 47.6844 40.7634 47.5372 40.8356C47.6108 40.8356 47.6108 40.7634 47.6844 40.7634C47.6108 40.8356 47.6108 40.8356 47.5372 40.8356C47.4635 40.9077 47.3899 40.9077 47.3163 40.9799C46.9481 41.2685 46.5063 41.4849 46.1381 41.7735C45.7699 41.9899 45.6963 42.4228 45.8436 42.7836C46.0645 43.1443 46.5063 43.2164 46.8745 43.0722C47.169 42.8557 47.5372 42.7114 47.8317 42.495C47.979 42.3507 48.1999 42.2064 48.3471 42.1342C48.4208 42.1342 48.4208 42.0621 48.4944 41.9899C48.568 41.9178 48.6417 41.9178 48.6417 41.8456C49.2307 41.4128 49.7462 40.9077 50.2616 40.4027C50.7771 39.8977 51.2189 39.4648 51.7343 38.8876C52.2497 38.3104 52.6916 37.8054 53.1334 37.2282C53.6488 36.5789 54.0906 35.9295 54.606 35.2802C54.8269 34.9916 55.0478 34.703 55.1951 34.4144C55.416 34.1258 55.6369 33.8373 55.7842 33.4765C55.8578 33.3322 55.8578 33.1879 55.8578 33.0436C55.7842 32.8993 55.7106 32.755 55.5633 32.6829C55.4897 32.6107 55.3424 32.6107 55.2688 32.6107C55.1215 32.6107 55.1215 32.6107 55.0478 32.6107ZM47.6108 40.6913C47.6108 40.6913 47.6844 40.6913 47.6108 40.6913C47.6844 40.6913 47.6108 40.6913 47.6108 40.6913Z" fill="#1C1C1C"/>
<path d="M59.466 32.1779C59.0978 32.3943 58.7296 32.6107 58.4351 32.8993C58.1406 33.1158 57.846 33.4044 57.6251 33.693C57.1097 34.2701 56.5943 34.8473 56.0788 35.4245C55.5634 36.0738 55.0479 36.651 54.6061 37.3003C54.1643 37.9497 53.7225 38.599 53.3543 39.2483C53.1334 39.7534 52.9125 40.2584 52.6916 40.7634C52.5444 41.1963 52.4707 41.7014 52.3235 42.2064C52.2498 42.4228 52.3235 42.6393 52.3971 42.8557C52.4707 43 52.6916 43.1443 52.9125 43.2165C53.3543 43.3608 53.7962 43.0722 53.9434 42.6393C54.0171 42.2785 54.0907 41.8456 54.238 41.4849C54.3116 41.1242 54.4589 40.7634 54.6061 40.4748C54.7534 40.1141 54.9007 39.8255 55.1216 39.4648C55.3425 39.104 55.5634 38.8154 55.7843 38.4547C56.2261 37.8054 56.7415 37.1561 57.1833 36.5067C57.6251 35.9295 58.1406 35.3524 58.5824 34.7752C58.8033 34.4866 59.0978 34.198 59.3187 33.9816C59.6133 33.693 59.9078 33.4044 60.2023 33.1158C60.4232 32.8993 60.4232 32.6107 60.276 32.3222C60.2023 32.1779 60.0551 32.1057 59.9078 32.0336C59.8342 32.0336 59.8342 32.0336 59.7605 32.0336C59.6869 32.1057 59.6133 32.1779 59.466 32.1779Z" fill="#1C1C1C"/>
<path d="M61.7487 33.7651C61.086 35.0637 60.3497 36.3624 59.7606 37.7332C59.6133 38.0939 59.466 38.3825 59.3188 38.7433C59.1715 39.104 59.0979 39.4648 58.9506 39.8255C58.8033 40.1862 58.7297 40.547 58.6561 40.9077C58.5824 41.1963 58.5088 41.557 58.4352 41.8456C58.2879 42.4228 58.2143 43.0721 58.1406 43.7215C58.1406 43.7936 58.1406 43.8658 58.1406 43.8658C58.1406 44.0101 58.1406 44.0822 58.2143 44.2265C58.2879 44.3708 58.4352 44.5151 58.6561 44.5151C58.8033 44.5872 59.0242 44.5151 59.1715 44.4429C59.3188 44.3708 59.466 44.2265 59.466 44.0101C59.5397 43.4329 59.6133 42.9278 59.7606 42.3507C59.8342 41.8456 59.9815 41.3406 60.1287 40.8356C60.276 40.3305 60.4233 39.8976 60.5706 39.4648C60.7178 39.0319 60.9387 38.5268 61.086 38.0939C61.6751 36.8674 62.2641 35.6409 62.9268 34.4144C63.0005 34.2701 63.0741 34.1258 63.0005 33.9094C62.9268 33.7651 62.8532 33.6208 62.7059 33.5486C62.6323 33.4765 62.485 33.4765 62.3378 33.4765C62.0432 33.4044 61.8223 33.5486 61.7487 33.7651Z" fill="#1C1C1C"/>
<path d="M63.3686 34.4866C63.1477 34.7752 63.0004 35.1359 62.7795 35.4245C62.7059 35.641 62.6322 35.7853 62.5586 36.0017C62.485 36.2181 62.4113 36.3624 62.3377 36.5789C62.2641 36.9396 62.1904 37.2282 62.1168 37.5889C62.0432 37.9497 62.0432 38.3826 61.9695 38.7433C61.8959 39.3926 61.8223 40.1141 61.8223 40.7634C61.8223 41.1242 61.8223 41.4128 61.8223 41.7735C61.8223 42.1342 61.8959 42.5671 61.9695 42.9279V43C61.9695 43.0722 61.9695 43.2165 62.0432 43.2886C62.1168 43.4329 62.2641 43.505 62.4113 43.5772C62.7795 43.6493 63.074 43.4329 63.2213 43.1443C63.2949 42.8557 63.2949 42.5671 63.2949 42.2785C63.2949 42.0621 63.2213 41.8456 63.2213 41.5571C63.2213 41.1242 63.1477 40.6913 63.1477 40.2584C63.1477 39.3926 63.2213 38.4547 63.2949 37.5889C63.3686 37.3003 63.3686 37.0118 63.4422 36.7953C63.5159 36.5067 63.5895 36.2903 63.7368 36.0017C63.884 35.7131 64.1049 35.3524 64.2522 35.0638C64.3995 34.7752 64.3258 34.4144 64.0313 34.198C63.9577 34.1259 63.8104 34.1259 63.7368 34.1259C63.6631 34.198 63.4422 34.3423 63.3686 34.4866Z" fill="#1C1C1C"/>
<path d="M65.7985 34.1258C65.6512 34.4866 65.5775 34.8473 65.4303 35.2081C65.3566 35.4967 65.283 35.8574 65.283 36.146C65.2094 36.8675 65.1357 37.5168 65.1357 38.2383C65.1357 38.599 65.1357 38.9597 65.1357 39.3205C65.1357 39.4648 65.1357 39.6091 65.1357 39.8255C65.1357 39.8977 65.1357 39.9698 65.1357 40.042C65.1357 40.1862 65.1357 40.3305 65.2094 40.4748C65.283 40.7634 65.3566 41.1242 65.4303 41.4128C65.5039 41.7735 65.6512 42.0621 65.7248 42.3507C66.0194 43.2164 66.4612 44.0101 66.8293 44.8037C67.0502 45.1644 67.1975 45.5973 67.4184 45.9581C67.492 46.1745 67.6393 46.3188 67.7866 46.4631C67.8602 46.6074 67.9338 46.6795 68.0075 46.8238C68.0811 46.896 68.1547 46.9681 68.302 47.0403C68.5229 47.1846 68.7438 47.1846 68.9647 47.1124C69.0384 47.1124 69.1856 47.0403 69.2593 46.9681C69.4065 46.8238 69.4802 46.6795 69.4802 46.5352C69.4802 46.3188 69.3329 46.1024 69.1856 46.0302C69.0384 45.7416 68.8175 45.453 68.6702 45.1644C68.4493 44.8037 68.302 44.5151 68.1547 44.1544C67.8602 43.505 67.492 42.8557 67.2711 42.2064C67.1239 41.8456 66.9766 41.4128 66.8293 41.052C66.6821 40.6191 66.6084 40.4027 66.6084 40.1862C66.5348 39.9698 66.5348 39.8255 66.5348 39.6091C66.4612 38.3826 66.4612 37.156 66.6084 36.0017C66.6821 35.7852 66.6821 35.4967 66.7557 35.2802C66.8293 34.9916 66.903 34.703 67.0502 34.4144C67.1239 34.1258 66.903 33.7651 66.6084 33.693C66.5348 33.693 66.5348 33.693 66.4612 33.693C66.1666 33.693 65.9457 33.9094 65.7985 34.1258Z" fill="#1C1C1C"/>
<path d="M68.8172 34.9195C68.7436 35.2802 68.5963 35.7131 68.5227 36.146C68.449 36.5067 68.3754 36.9396 68.3754 37.3725C68.3754 37.7332 68.3018 38.094 68.3018 38.5269C68.3018 38.9598 68.3754 39.3205 68.449 39.7534C68.5227 40.1141 68.5963 40.4749 68.6699 40.8356C68.7436 41.1963 68.8908 41.5571 69.0381 41.9178C69.3326 42.6393 69.7008 43.3608 70.069 44.0101C70.4372 44.5151 70.8053 45.0202 71.2471 45.453C71.6889 45.8859 72.0571 46.3188 72.5725 46.6074C72.8671 46.7517 73.1616 46.6796 73.3825 46.5353C73.6771 46.2467 73.6034 45.8138 73.3825 45.5973C73.088 45.3088 72.7934 45.0202 72.5725 44.7316C72.278 44.443 72.0571 44.1544 71.7626 43.7937C71.5417 43.4329 71.2471 43.1443 71.0262 42.7836C70.8053 42.4228 70.5844 41.99 70.4372 41.5571C70.2899 41.1963 70.1426 40.7634 70.069 40.3306C69.9953 39.8977 69.8481 39.4648 69.7744 39.0319C69.7008 38.6712 69.7008 38.3104 69.7008 38.0218C69.7008 37.6611 69.7744 37.3004 69.7744 36.9396C69.7744 36.7232 69.8481 36.5067 69.9217 36.2903C69.9953 36.0017 70.069 35.7131 70.1426 35.4245C70.2162 35.0638 69.9953 34.703 69.6272 34.5587C69.5535 34.5587 69.4799 34.5587 69.4799 34.5587C69.1854 34.4145 68.8908 34.6309 68.8172 34.9195Z" fill="#1C1C1C"/>
<path d="M72.0572 35.7852C71.91 35.9295 71.91 36.0738 71.8363 36.2181C71.8363 36.5788 71.7627 36.8674 71.7627 37.2282C71.7627 37.3725 71.7627 37.5168 71.7627 37.6611C71.7627 37.8054 71.8363 38.0218 71.8363 38.1661C71.91 38.3104 71.91 38.4547 71.9836 38.599C72.2045 39.1762 72.499 39.8255 72.7936 40.4027C73.0881 40.9799 73.3826 41.4849 73.6772 41.9899C73.8981 42.2785 74.119 42.5671 74.3399 42.7835C74.5608 43 74.7081 43.2164 74.929 43.4329C75.2971 43.7936 75.7389 44.0822 76.1807 44.3708C76.4016 44.5151 76.5489 44.6594 76.7698 44.7315C76.9907 44.8758 77.2116 45.0201 77.4325 45.0923C77.5798 45.1644 77.7271 45.1644 77.8743 45.1644C78.0216 45.0923 78.0952 45.0201 78.1689 44.948C78.2425 44.8037 78.2425 44.6594 78.2425 44.5151C78.1689 44.3708 78.0952 44.2986 78.0216 44.2265C77.5062 43.8658 76.9907 43.505 76.4753 43.1443C76.2544 42.9278 75.9598 42.7835 75.7389 42.5671C75.518 42.3507 75.2971 42.1342 75.0762 41.8456C74.7081 41.3406 74.4135 40.8356 74.119 40.3305C73.8245 39.8255 73.6036 39.2483 73.3826 38.7433C73.2354 38.3825 73.0881 38.0218 73.0145 37.6611C72.9408 37.2282 73.0145 36.7953 73.0881 36.3624C73.0881 36.2181 73.0145 36.0017 72.8672 35.9295C72.7199 35.7852 72.5727 35.7131 72.4254 35.7131C72.2781 35.7131 72.1309 35.7131 72.0572 35.7852Z" fill="#1C1C1C"/>
<path d="M74.5604 35.7131C74.4131 35.7852 74.2659 35.9295 74.2659 36.0738C74.1922 36.2903 74.2659 36.4346 74.3395 36.5789C74.5604 37.0117 74.7077 37.4446 74.9286 37.8054C75.1495 38.1661 75.3704 38.599 75.5913 38.9597C75.8122 39.3205 76.1067 39.6812 76.4012 40.0419C76.6958 40.4027 77.064 40.6913 77.4321 40.9799C77.4321 40.9799 77.3585 40.9799 77.3585 40.9077L77.4321 40.9799C77.4321 40.9799 77.5058 40.9799 77.5058 41.052C77.5058 41.052 77.5058 41.052 77.4321 40.9799L77.5058 41.052L77.5794 41.1242C78.1685 41.557 78.8312 41.9899 79.4939 42.4228C79.7884 42.6393 80.083 42.7835 80.4511 43C80.5984 43.0721 80.7457 43.2164 80.9666 43.2886C81.0402 43.3607 81.1138 43.3607 81.1875 43.4329C81.2611 43.4329 81.3347 43.505 81.3347 43.505C81.4084 43.5772 81.482 43.5772 81.5556 43.5772C81.6293 43.5772 81.7029 43.5772 81.7765 43.5772C81.9974 43.5772 82.292 43.3607 82.292 43.1443C82.3656 42.9278 82.2183 42.6393 81.9974 42.495C81.8502 42.3507 81.6293 42.2064 81.482 42.0621C81.3347 41.9899 81.1875 41.8456 81.0402 41.7735C80.7457 41.557 80.3775 41.4127 80.083 41.1963C79.4202 40.8356 78.8312 40.4027 78.2421 39.9698C78.0212 39.8255 77.8003 39.6091 77.5794 39.3926C77.4321 39.2483 77.2112 39.0319 77.064 38.8154C76.7694 38.3825 76.4012 37.8775 76.1803 37.4446C75.8858 36.9396 75.6649 36.4346 75.3704 35.8574C75.2967 35.7131 75.1495 35.5688 75.0022 35.5688C74.9286 35.5688 74.8549 35.5688 74.8549 35.5688C74.7813 35.6409 74.7077 35.6409 74.5604 35.7131ZM77.8003 41.2685C77.8003 41.1963 77.7267 41.1963 77.8003 41.2685C77.7267 41.1963 77.8003 41.1963 77.8003 41.2685ZM77.653 41.1242C77.7267 41.1963 77.7267 41.1963 77.653 41.1242C77.7267 41.1963 77.653 41.1242 77.653 41.1242ZM77.7267 41.1963C77.653 41.1242 77.653 41.1242 77.7267 41.1963C77.653 41.1242 77.653 41.1963 77.7267 41.1963ZM77.653 41.1242C77.653 41.1242 77.5794 41.1242 77.653 41.1242C77.5794 41.1242 77.653 41.1242 77.653 41.1242ZM77.5794 41.052C77.5794 41.052 77.5058 41.052 77.5794 41.052C77.5058 41.052 77.5794 41.052 77.5794 41.052Z" fill="#1C1C1C"/>
<path d="M76.9901 36.146C76.7692 36.5067 76.9165 36.8675 77.2111 37.0839C77.5056 37.3004 77.8738 37.5168 78.1683 37.6611C78.4628 37.8775 78.7574 38.0218 79.1255 38.1661C79.7146 38.5269 80.3773 38.8876 80.9664 39.2483C81.6291 39.6091 82.2918 39.8255 83.0282 40.042C83.3963 40.1141 83.7645 40.1863 84.059 40.2584C84.4272 40.3305 84.869 40.3306 85.2372 40.3306C85.6054 40.3306 85.9735 40.3306 86.3417 40.3306C86.489 40.3306 86.7099 40.3306 86.8571 40.3306C87.0044 40.3306 87.1517 40.3306 87.2253 40.3306C87.2989 40.3306 87.4462 40.2584 87.5198 40.2584C87.6671 40.1863 87.7407 40.042 87.8144 39.9698C87.9616 39.8255 87.888 39.5369 87.8144 39.3926C87.6671 39.1762 87.3726 39.0319 87.1517 39.104C86.9308 39.104 86.6362 39.0319 86.4153 39.0319C86.1944 39.0319 85.9735 39.0319 85.679 38.9597C85.2372 38.9597 84.7217 38.8876 84.2799 38.8154C83.9118 38.7433 83.5436 38.6712 83.1754 38.599C82.8073 38.5269 82.5127 38.3826 82.1445 38.2383C81.7764 38.094 81.4818 37.9497 81.1137 37.7332C80.7455 37.5168 80.3773 37.3725 80.0091 37.1561C79.641 36.9396 79.2728 36.7953 78.9046 36.5789C78.5365 36.3624 78.1683 36.146 77.7265 35.8574C77.6529 35.7852 77.5056 35.7852 77.3583 35.7852C77.3583 35.7852 77.0638 35.9295 76.9901 36.146Z" fill="#1C1C1C"/>
<path d="M78.5364 34.0537C78.3891 34.1258 78.2418 34.3423 78.1682 34.4866C78.0946 34.703 78.1682 34.9195 78.2418 35.0638C78.3155 35.2081 78.5364 35.3524 78.6836 35.4245C79.5672 35.5688 80.3772 35.7131 81.1872 35.8574C81.9235 36.0017 82.7335 36.2181 83.4699 36.2903C83.9117 36.3624 84.4271 36.4346 84.8689 36.4346C85.2371 36.4346 85.6789 36.4346 86.0471 36.3624C86.857 36.2903 87.667 36.146 88.477 36.0017C88.6242 36.0017 88.7715 35.9295 88.9188 35.9295C89.2133 35.8574 89.4342 35.5688 89.4342 35.2081C89.4342 34.8473 89.0661 34.4866 88.6979 34.4866C87.8879 34.4866 87.1516 34.6309 86.3416 34.703C85.9734 34.7752 85.6053 34.7752 85.2371 34.7752C84.7953 34.7752 84.4271 34.7752 83.9853 34.703C83.1753 34.5587 82.439 34.4144 81.629 34.2701C80.7454 34.1258 79.8618 33.9815 78.9045 33.7651C78.8309 33.7651 78.7573 33.7651 78.6836 33.7651C78.7573 33.9815 78.6836 33.9816 78.5364 34.0537Z" fill="#1C1C1C"/>
<path d="M64.4725 9.81211C64.1043 9.81211 63.8098 9.88425 63.4416 9.88425C62.6316 9.9564 61.8953 10.1728 61.0853 10.3171C60.349 10.4614 59.6126 10.6779 58.8763 10.75C58.8026 10.75 58.729 10.75 58.6554 10.75C57.919 10.8222 57.1091 10.8943 56.3727 11.1108C56.0045 11.1829 55.71 11.2551 55.3418 11.3994C54.9737 11.4715 54.6791 11.6158 54.311 11.7601C54.09 11.8322 53.9428 11.9044 53.7955 12.0487C53.6482 12.193 53.501 12.4094 53.501 12.6259C53.501 12.8423 53.5746 13.0588 53.6482 13.203C53.7219 13.5638 53.7955 13.8524 53.8691 14.2131C53.9428 14.8624 54.0901 15.5839 54.1637 16.2332C54.3846 17.6762 54.5319 19.1192 54.6791 20.5621C54.7528 21.2836 54.8264 22.0051 54.9737 22.7265C55.0473 23.448 55.1946 24.2416 55.2682 24.9631C55.3418 25.7567 55.3418 26.5504 55.3418 27.2718C55.3418 28.1376 55.4155 28.9312 55.4891 29.797C55.4891 29.9413 55.5627 30.0856 55.6364 30.1577C55.71 30.2299 55.8573 30.302 56.0045 30.302C56.2991 30.302 56.5936 30.0135 56.5936 29.7249C56.52 28.9312 56.4463 28.2098 56.4463 27.4161C56.4463 26.6225 56.4463 25.901 56.3727 25.1074C56.2991 24.3859 56.2254 23.7366 56.1518 23.0151C56.0782 22.2937 56.0045 21.5 55.8573 20.7785C55.71 19.3356 55.5627 17.9648 55.4155 16.5218C55.3418 15.8004 55.1946 15.0067 55.1209 14.2853C55.0473 13.9245 55.0473 13.6359 54.9737 13.2752C54.9737 13.0588 54.9 12.9145 54.8264 12.698C55.1946 12.5537 55.6364 12.4094 56.0045 12.3373C56.4463 12.193 56.9618 12.1208 57.4036 12.0487C57.8454 11.9765 58.2872 11.9765 58.8026 11.9044C59.3181 11.8322 59.8335 11.7601 60.4226 11.6879C61.3062 11.5437 62.1898 11.3272 63.0734 11.1829C63.4416 11.1108 63.7361 11.1108 64.1043 11.1108C64.2516 11.1108 64.4725 11.1108 64.6197 11.1108H64.6934C64.767 11.7601 64.767 12.4094 64.767 12.9866C64.767 13.7081 64.8406 14.4296 64.8406 15.151C64.8406 16.6661 64.8406 18.1091 64.6934 19.6242C64.6934 19.9849 64.6197 20.2735 64.6197 20.6343C64.6197 20.995 64.5461 21.3557 64.5461 21.7165C64.5461 21.9329 64.6197 22.0772 64.6934 22.2215C64.767 22.3658 64.9143 22.4379 64.9879 22.5101C65.0615 22.5822 65.1352 22.5822 65.2088 22.6544C65.4297 22.7265 65.577 22.7987 65.7979 22.8708C66.0924 22.943 66.4606 23.0151 66.7551 23.0151C66.8288 23.0151 66.9024 23.0151 66.976 23.0151C67.2706 23.0873 67.5651 23.0873 67.8596 22.943C68.3015 22.7265 68.5224 22.2937 68.6696 21.8608C68.8169 21.5 68.8905 21.2114 68.9642 20.8507C69.1114 20.1292 69.3323 19.3356 69.4796 18.6141C69.7741 17.1712 69.995 15.7282 70.3632 14.2853C70.5841 13.7081 70.7314 12.9866 71.0259 12.2651C71.0259 12.2651 71.0259 12.2651 71.0259 12.193C71.1732 12.193 71.3205 12.193 71.4677 12.193C71.9832 12.2651 72.5722 12.4816 73.0877 12.6259C73.7504 12.9145 74.4131 13.203 75.1494 13.4195C75.5176 13.4916 75.8858 13.6359 76.1803 13.7081C76.5485 13.7802 76.843 13.9245 77.2112 13.9967C77.8739 14.141 78.463 14.3574 79.1257 14.5017C79.6411 14.646 80.2302 14.7903 80.7456 14.9346C80.5984 15.5118 80.4511 16.089 80.2302 16.6661C79.9357 17.3876 79.6411 18.0369 79.4202 18.7584C78.9048 20.1292 78.3157 21.5 77.7266 22.8708C77.4321 23.5923 77.1376 24.2416 76.9167 24.9631C76.6221 25.6846 76.4012 26.3339 76.1803 27.0554C75.9594 27.7769 75.8121 28.4262 75.5912 29.1477C75.3703 29.8692 75.2231 30.5185 75.0758 31.24C75.0022 31.6007 75.0022 31.9614 74.9285 32.3222C74.9285 32.4665 74.8549 32.6108 74.8549 32.7551C74.8549 32.8272 74.8549 32.8994 74.8549 32.9715V33.0436C74.8549 33.1879 74.8549 33.2601 74.9285 33.4044C74.9285 33.4765 75.0022 33.5487 75.0022 33.5487C75.0758 33.693 75.1494 33.7651 75.2967 33.8373C75.444 33.9094 75.6649 33.9816 75.8858 33.9094C75.9594 33.9094 76.1067 33.8373 76.1803 33.7651C76.3276 33.693 76.4012 33.6208 76.4749 33.4765C76.6958 33.2601 76.7694 32.8994 76.6221 32.6108C76.6221 32.6108 76.6221 32.5386 76.5485 32.5386C76.5485 32.25 76.6221 32.0336 76.6221 31.745C76.6958 31.0957 76.9167 30.3742 77.0639 29.7249C77.2848 29.0034 77.4321 28.3541 77.653 27.6326C77.8739 26.9111 78.0948 26.2618 78.3157 25.5403C78.5366 24.8188 78.8311 24.1695 79.0521 23.448C79.3466 22.7987 79.5675 22.0772 79.862 21.4279C80.1566 20.7064 80.3775 20.0571 80.672 19.3356C80.9665 18.6141 81.1874 17.9648 81.482 17.2433C81.7765 16.594 81.9974 15.8725 82.1447 15.2232C82.2183 15.0067 82.2183 14.7181 82.2183 14.5017C82.2183 14.2131 82.1447 13.9967 81.9238 13.7802C81.7765 13.6359 81.6292 13.5638 81.4083 13.4916C81.2611 13.4195 81.1138 13.4195 80.9665 13.3473C80.8193 13.2752 80.672 13.2752 80.5247 13.203C80.2302 13.1309 79.862 12.9866 79.5675 12.9145C79.273 12.8423 78.9048 12.7702 78.6102 12.6259C78.3157 12.5537 77.9475 12.4094 77.653 12.3373C77.2848 12.2651 76.9903 12.193 76.6958 12.0487C76.033 11.8322 75.2967 11.6879 74.634 11.3994C74.4867 11.3272 74.4131 11.3272 74.2658 11.2551C73.8977 11.1108 73.5295 10.9665 73.1613 10.8222C72.7931 10.6779 72.425 10.6057 72.1304 10.5336C71.7623 10.4614 71.3205 10.3893 70.9523 10.4614C70.5841 10.5336 70.2159 10.6057 69.9214 10.8943C69.7005 11.1108 69.6269 11.3994 69.5532 11.6879C69.4796 11.9765 69.3323 12.3373 69.2587 12.6259C69.1851 12.9866 69.0378 13.2752 68.9642 13.6359C68.8169 14.3574 68.596 15.0789 68.4487 15.8004C68.2278 16.7383 68.0069 17.7483 67.786 18.6863C67.6387 19.1913 67.5651 19.6963 67.4178 20.2014C67.2706 20.7064 67.1969 21.1393 66.976 21.6443C66.9024 21.6443 66.8288 21.6443 66.7551 21.6443C66.4606 21.5722 66.0924 21.5722 65.7979 21.4279C65.7979 21.1393 65.7979 20.9228 65.8715 20.6343C65.8715 20.2735 65.9452 19.9128 65.9452 19.552C66.0188 18.8306 66.0924 18.1091 66.0924 17.3876C66.1661 15.8725 66.1661 14.4296 66.0924 12.9145C66.0924 12.5537 66.0924 12.193 66.0924 11.8322C66.0924 11.3994 66.0924 10.9665 65.9452 10.5336C65.9452 10.3893 65.8715 10.245 65.7979 10.1728C65.7243 10.1007 65.577 9.88425 65.5034 9.88425C65.4297 9.81211 65.2824 9.81211 65.2088 9.73996C65.1352 9.73996 64.9879 9.73996 64.9143 9.73996H64.8406C64.767 9.73996 64.6197 9.73996 64.4725 9.81211Z" fill="#1C1C1C"/>
<path d="M83.9117 1.948C83.9117 2.02015 83.9117 2.0923 83.9117 2.16445C83.838 2.16445 83.838 2.16445 83.7644 2.23659C83.6171 2.30874 83.4699 2.52518 83.3962 2.66948C83.249 2.81377 83.1017 3.03022 83.0281 3.24666C82.8072 3.53525 82.5862 3.82384 82.439 4.11243C81.9972 4.68961 81.629 5.33894 81.2608 5.91612C80.5245 7.14263 79.9354 8.51344 79.3463 9.8121C78.9782 10.6057 78.61 11.3993 78.2418 12.193C78.1682 12.4094 78.0946 12.5537 78.1682 12.7702C78.2418 12.9866 78.3891 13.1309 78.5364 13.203C78.6836 13.2752 78.9782 13.3473 79.1254 13.2752C79.2727 13.203 79.4936 13.0587 79.5672 12.9144C80.23 11.6158 80.819 10.3171 81.4081 8.94632C81.7026 8.297 81.9972 7.64767 82.3653 6.99834C82.7335 6.34901 83.1017 5.77183 83.4699 5.1225C83.6171 4.9782 83.6908 4.76176 83.838 4.61747C83.9117 4.68961 83.9117 4.83391 83.9853 4.90606C84.2798 5.62753 84.648 6.27686 85.0898 6.92619C85.3107 7.21478 85.5316 7.50337 85.7525 7.79196C85.9734 8.08055 86.268 8.297 86.5625 8.44129C86.7098 8.51344 86.857 8.65773 87.0043 8.72988C87.1516 8.80203 87.2988 8.87418 87.4461 8.94632C87.667 9.01847 87.8879 9.01847 88.1088 9.09062C88.477 9.09062 88.8452 9.01847 89.2133 8.87418C89.5815 8.72988 89.8024 8.36914 90.0233 8.08055C90.2442 7.64767 90.3178 7.21478 90.3915 6.7819C90.4651 6.34901 90.3915 5.91612 90.3178 5.41109C90.2442 4.90606 89.9497 4.47317 89.7288 4.11243C89.5079 3.75169 89.2133 3.4631 88.9188 3.24666C88.6243 2.95807 88.3297 2.74163 87.9615 2.52518C87.667 2.30874 87.2988 2.16445 87.0043 2.02015C86.6361 1.87585 86.3416 1.80371 85.9734 1.73156C85.5316 1.65941 85.1634 1.58726 84.7216 1.58726C84.2798 1.51512 83.9853 1.65941 83.9117 1.948ZM84.7216 3.10236C84.7216 2.95807 84.7216 2.88592 84.7216 2.74163C84.7953 2.74163 84.8689 2.74163 84.8689 2.74163C84.7953 2.74163 84.7953 2.74163 84.7216 2.74163C85.0162 2.74163 85.2371 2.81377 85.5316 2.88592C85.8261 2.95807 86.1207 3.03022 86.4152 3.10236C86.857 3.31881 87.2988 3.53525 87.667 3.82384C87.8143 3.96814 87.9615 4.04028 88.1088 4.18458C88.2561 4.32887 88.3297 4.47317 88.477 4.54532C88.6979 4.83391 88.7715 5.05035 88.9188 5.19465C88.9924 5.41109 89.0661 5.55538 89.0661 5.77183C89.0661 5.98827 89.0661 6.27686 89.0661 6.4933C88.9924 6.70975 88.9924 6.92619 88.9188 7.14263C88.8452 7.21478 88.8452 7.35908 88.7715 7.43122C88.7715 7.50337 88.6979 7.50337 88.6243 7.57552C88.5506 7.57552 88.5506 7.64767 88.477 7.64767C88.4033 7.64767 88.2561 7.71981 88.1824 7.71981C88.1088 7.71981 88.0352 7.71981 87.9615 7.71981C87.8879 7.71981 87.8143 7.64767 87.7406 7.64767C87.4461 7.50337 87.1516 7.35908 86.9307 7.14263C86.7834 6.99834 86.5625 6.85404 86.4152 6.6376C85.8998 5.91612 85.458 5.19465 85.0898 4.40102C84.9425 4.04028 84.7953 3.75169 84.7953 3.31881C84.7953 3.31881 84.7953 3.24666 84.7216 3.10236Z" fill="#1C1C1C"/>
<path d="M53.7956 1.44296C53.5747 1.51511 53.4275 1.65941 53.2802 1.8037C53.1329 2.02014 53.1329 2.16444 53.2066 2.38088C53.3538 3.24665 53.5747 4.04028 53.7956 4.90605C54.0165 5.62753 54.1638 6.42115 54.3847 7.14263C54.6056 7.93625 54.7529 8.72988 54.9738 9.5235C55.0474 9.88424 55.1947 10.245 55.342 10.6057C55.4892 11.0386 55.6365 11.3993 55.8574 11.8322C55.931 11.9044 55.931 11.9765 56.0047 12.1208C56.0783 12.193 56.1519 12.2651 56.1519 12.3373C56.2992 12.4816 56.3728 12.4816 56.5201 12.5537C56.8146 12.6258 57.1092 12.5537 57.2565 12.3373C57.3301 12.2651 57.3301 12.193 57.4037 12.1208C57.4774 12.0487 57.4774 11.9765 57.4774 11.9044C57.4774 11.8322 57.4774 11.7601 57.4774 11.7601C57.4774 11.6879 57.4774 11.5436 57.551 11.4715C57.551 11.3272 57.551 11.255 57.4774 11.1107C57.4037 10.9665 57.2565 10.8222 57.1092 10.8222C56.8883 10.3171 56.6674 9.81209 56.5201 9.30706C56.2992 8.51343 56.1519 7.79196 55.931 6.99833C55.7101 6.20471 55.4892 5.41108 55.342 4.61746C55.1211 3.82384 54.9738 3.10236 54.8265 2.30873C54.8265 2.23659 54.8265 2.16444 54.7529 2.02014C54.6793 1.65941 54.3111 1.44296 53.9429 1.44296C53.8693 1.44296 53.7956 1.44296 53.7956 1.44296Z" fill="#1C1C1C"/>
<path d="M50.3351 1.58725C49.746 1.6594 49.0833 1.80369 48.4942 2.02014C47.9051 2.23658 47.3161 2.59732 46.727 2.95806C46.4325 3.1745 46.1379 3.39094 45.917 3.60738C45.6961 3.82383 45.4016 4.04027 45.2543 4.32886C45.0334 4.61745 44.8861 4.83389 44.7389 5.12248C44.5916 5.48322 44.4443 5.91611 44.4443 6.349C44.4443 6.56544 44.4443 6.70973 44.4443 6.92618C44.4443 7.14262 44.518 7.28691 44.5916 7.50336C44.6652 7.64765 44.7389 7.79195 44.8125 7.93624C44.9598 8.08054 45.0334 8.22483 45.1807 8.36913C45.4016 8.51342 45.6961 8.65772 45.9907 8.72987C46.5061 8.87416 47.0952 8.87416 47.6106 8.80202C47.9051 8.72987 48.2733 8.65772 48.5679 8.58557C49.2306 8.36913 49.8196 8.08054 50.4823 7.79195C50.8505 7.64765 51.145 7.35906 51.4396 7.14262C51.7341 6.92618 51.955 6.63759 52.1759 6.42114C52.4705 6.13255 52.6914 5.84396 52.9123 5.48322C53.1332 5.19463 53.2804 4.83389 53.4277 4.47316C53.5013 4.25671 53.575 4.04027 53.7222 3.82383C53.7222 3.75168 53.7959 3.60738 53.7959 3.53524C53.7959 3.46309 53.8695 3.31879 53.8695 3.24665C53.9431 2.95806 53.8695 2.66946 53.575 2.52517C53.5013 2.45302 53.3541 2.45302 53.2804 2.45302C53.2068 2.30873 53.1332 2.23658 52.9859 2.23658C52.6914 2.09228 52.3232 2.02014 52.0287 1.94799C51.8814 1.87584 51.7341 1.87584 51.5869 1.80369C51.366 1.73155 51.0714 1.73155 50.8505 1.73155C50.6296 1.58725 50.4823 1.58725 50.3351 1.58725ZM51.145 2.45302C51.5869 2.52517 52.0287 2.66946 52.4705 2.81376C52.3968 2.95806 52.3232 3.10235 52.3232 3.1745C52.2496 3.31879 52.1759 3.53524 52.1023 3.67953C52.0287 3.89597 51.8814 4.11242 51.8078 4.25671C51.6605 4.47316 51.5869 4.6896 51.4396 4.83389C51.2923 5.05034 51.0714 5.26678 50.8505 5.48322C50.7032 5.69967 50.4823 5.84396 50.2614 5.98826C50.1142 6.0604 50.0405 6.13255 49.8933 6.2047C49.746 6.27685 49.5987 6.349 49.4515 6.42114C49.1569 6.56544 48.936 6.63759 48.6415 6.78188C48.4206 6.85403 48.126 6.99832 47.8315 7.07047C47.6106 7.14262 47.3161 7.21477 47.0952 7.21477C46.8743 7.21477 46.6534 7.21477 46.4325 7.21477C46.2852 7.21477 46.0643 7.14262 45.917 7.07047C45.9907 7.21477 45.917 7.21477 45.917 7.21477L45.8434 7.14262C45.8434 7.14262 45.8434 7.07047 45.7698 7.07047C45.6961 6.92618 45.6961 6.78188 45.6961 6.70973C45.6961 6.56544 45.6961 6.349 45.6961 6.2047C45.6961 6.13255 45.6961 5.98826 45.7698 5.91611C45.7698 5.77181 45.8434 5.69967 45.917 5.55537C46.0643 5.33893 46.1379 5.12249 46.2852 4.90604C46.5797 4.61745 46.8743 4.32886 47.1688 4.11242C47.4633 3.89597 47.7579 3.67953 48.126 3.46309C48.4206 3.24665 48.7888 3.10235 49.0833 2.95806C49.3042 2.88591 49.5251 2.81376 49.746 2.74161C49.9669 2.66946 50.2614 2.59732 50.4823 2.59732C50.6296 2.45302 50.9241 2.45302 51.145 2.45302ZM53.4277 4.40101C53.4277 4.40101 53.4277 4.32886 53.5013 4.25671C53.5013 4.32886 53.4277 4.32886 53.4277 4.40101Z" fill="#1C1C1C"/>
<path d="M80.0829 83.6191C80.0093 83.4748 80.0093 83.2584 80.0093 83.1141C79.9356 82.8976 79.9356 82.7533 79.862 82.5369C79.7147 82.1762 79.6411 81.7433 79.4938 81.3825C79.2729 80.5168 79.1256 79.651 78.9784 78.8574C78.8311 77.9916 78.6838 77.198 78.6102 76.3322C78.4629 75.5386 78.3893 74.8171 78.242 74.0235C78.1684 73.5906 78.1684 73.1577 78.1684 72.7248C78.1684 72.2198 78.1684 71.7148 78.1684 71.2097C77.5793 71.5705 77.1375 72.0033 76.4012 72.1476C76.3275 72.1476 76.3275 72.1476 76.2539 72.1476C76.2539 72.7248 76.2539 73.302 76.3275 73.807C76.4012 74.745 76.6221 75.6829 76.7693 76.5486C76.9166 77.4144 77.0639 78.208 77.2112 79.0738C77.3584 79.9396 77.5057 80.8053 77.8002 81.6711C77.9475 82.104 78.0948 82.5369 78.242 82.8976C78.3157 83.1141 78.3893 83.3305 78.4629 83.4748C78.4629 83.547 78.5366 83.6913 78.5366 83.7634C78.6102 84.052 78.8311 84.2684 79.052 84.4127C79.3465 84.6292 79.7147 84.557 80.0093 84.2684C80.0829 84.1963 80.1565 84.052 80.2302 83.9077C80.2302 83.9798 80.1565 83.7634 80.0829 83.6191Z" fill="#1C1C1C"/>
<path d="M83.1761 85.0621C82.6606 85.0621 82.2188 85.1342 81.777 85.2785C81.3352 85.3507 80.8934 85.495 80.4516 85.5671C79.9362 85.7114 79.6416 86.2886 79.7889 86.7936C79.8625 87.0101 80.0098 87.2265 80.2307 87.3708C80.4516 87.5151 80.7461 87.5151 80.967 87.4429C81.4088 87.3708 81.777 87.2987 82.2188 87.1544C82.5133 87.0822 82.8815 87.0101 83.1761 86.9379C83.6915 86.8658 84.2069 86.9379 84.6487 87.0101C84.796 87.0101 84.8696 87.0822 85.0169 87.0822C85.3114 87.0822 85.606 87.0101 85.7533 86.7936C85.9742 86.5772 86.0478 86.2164 85.9005 85.9278C85.606 85.4228 85.0169 85.3507 84.5015 85.2064C84.0597 85.1342 83.6915 85.0621 83.2497 85.0621C83.2497 85.0621 83.1761 85.0621 83.1761 85.0621Z" fill="#1C1C1C"/>
<path d="M82.0709 83.1141C81.7027 83.1141 81.4082 83.4027 81.4082 83.7634C81.4082 84.1242 81.7027 84.4849 82.0709 84.4127C82.5864 84.4127 83.1754 84.3406 83.6909 84.3406C84.1327 84.3406 84.5745 84.3406 85.0163 84.3406C85.2372 84.4127 85.3844 84.4127 85.6054 84.4849C85.679 84.4849 85.7526 84.557 85.8999 84.557C86.1944 84.7013 86.5626 84.6292 86.7835 84.4127C86.9308 84.2684 86.9308 84.1242 86.9308 83.9077C86.8571 83.7634 86.7835 83.6191 86.6362 83.547C86.6362 83.547 86.6362 83.547 86.5626 83.547C86.489 83.4748 86.4153 83.4748 86.3417 83.4027C86.2681 83.3305 86.1944 83.3305 86.1208 83.3305C85.8999 83.2584 85.7526 83.1862 85.5317 83.1141C85.1635 82.9698 84.7217 82.9698 84.3536 82.9698C84.2799 82.9698 84.2799 82.9698 84.2063 82.9698C83.47 83.0419 82.8073 83.0419 82.0709 83.1141Z" fill="#1C1C1C"/>
<path d="M84.5013 81.5269C83.9859 81.5269 83.5441 81.6712 83.0287 81.7433C82.5868 81.8154 82.3659 82.3205 82.5132 82.6812C82.5868 82.8977 82.6605 83.042 82.8814 83.1141C83.1023 83.1862 83.2496 83.2584 83.4705 83.1863C83.765 83.1141 84.0595 83.042 84.2804 83.042C84.4277 83.042 84.575 83.042 84.7959 83.042C85.0168 83.042 85.164 83.042 85.3849 83.1141C85.6058 83.1141 85.8268 83.1863 86.0477 83.2584C86.2686 83.3305 86.5631 83.4027 86.784 83.4748C87.0785 83.6191 87.3731 83.7634 87.7412 83.8356C87.8149 83.8356 87.9621 83.8356 88.0358 83.8356C88.183 83.7634 88.3303 83.6913 88.4039 83.547C88.5512 83.2584 88.4776 82.8977 88.183 82.7534L88.1094 82.6812C88.1094 82.6812 88.183 82.6812 88.183 82.7534C88.0358 82.6091 87.8885 82.5369 87.6676 82.3926C87.5203 82.3205 87.2994 82.2483 87.1522 82.1762C86.9313 82.104 86.7104 81.9597 86.4895 81.8876C86.2686 81.8154 86.1213 81.8154 85.9004 81.7433C85.6795 81.6712 85.4586 81.6711 85.164 81.6711C85.0168 81.6711 84.7959 81.6711 84.6486 81.6711C84.575 81.5269 84.5013 81.5269 84.5013 81.5269Z" fill="#1C1C1C"/>
<path d="M44.5915 68.5402C44.2233 69.1174 43.7815 69.6946 43.4134 70.3439C43.0452 70.9211 42.7507 71.4983 42.5298 72.0755C41.9407 73.302 41.4989 74.5285 41.1307 75.755C40.7625 76.7651 40.3944 77.8473 40.0262 78.8574C39.8789 79.3624 39.658 79.8674 39.5107 80.3725C39.4371 80.661 39.3635 80.8775 39.2898 81.1661C39.2898 81.3104 39.2162 81.3825 39.2162 81.5268C39.1426 81.8154 39.0689 82.104 39.2898 82.3926C39.3635 82.4647 39.4371 82.5369 39.5107 82.609C39.5844 82.6812 39.7317 82.6812 39.8053 82.6812C39.8789 82.6812 39.9526 82.6812 40.0262 82.609C40.0998 82.609 40.2471 82.5369 40.3207 82.4647C40.468 82.3204 40.5416 82.1761 40.5416 82.0318C40.5416 81.9597 40.5416 81.9597 40.5416 81.8876C40.5416 81.8154 40.6153 81.7433 40.6153 81.6711C40.6153 81.5268 40.6889 81.3825 40.7625 81.2382C40.8362 80.9496 40.9098 80.5889 41.0571 80.3003C41.278 79.651 41.4989 79.0738 41.7198 78.4245C42.1616 77.198 42.5298 75.9714 42.9716 74.7449C43.1925 74.0235 43.487 73.302 43.7815 72.5805C44.0024 72.0033 44.297 71.4983 44.5915 70.9933C44.9597 70.4161 45.3279 69.8389 45.696 69.2617C45.8433 68.9731 45.7697 68.6124 45.4751 68.4681C45.4015 68.396 45.2542 68.396 45.1806 68.396C44.886 68.2517 44.7388 68.3959 44.5915 68.5402Z" fill="#1C1C1C"/>
<path d="M35.2398 77.9194C34.9452 77.9916 34.7243 77.9916 34.4298 78.0637C34.2825 78.0637 34.2089 78.1359 34.0616 78.1359C33.988 78.1359 33.8407 78.208 33.7671 78.2802C33.6935 78.2802 33.6935 78.3523 33.6198 78.3523C33.5462 78.4245 33.5462 78.4245 33.4726 78.4966C33.3989 78.5688 33.3989 78.6409 33.3253 78.7131C33.178 78.9295 33.178 79.2181 33.3253 79.4346C33.3989 79.5067 33.3989 79.5789 33.4726 79.5789C33.6198 79.7231 33.6935 79.7231 33.8407 79.7953C33.988 79.7953 34.0616 79.7953 34.2089 79.7953C34.3562 79.7953 34.4298 79.7231 34.5771 79.5789C34.8716 79.5067 35.0925 79.3624 35.3871 79.2903C35.6816 79.2181 36.0498 79.146 36.4179 79.0738C36.7861 79.0017 37.2279 79.0017 37.5961 79.0738C37.817 79.146 38.0379 79.146 38.2588 79.2181C38.7006 79.4346 39.1424 79.651 39.5842 79.8674C39.7315 79.9396 39.8787 80.0117 40.0996 79.9396C40.2469 79.8674 40.3942 79.7953 40.4678 79.651C40.6151 79.3624 40.5414 78.9295 40.2469 78.7852C39.8051 78.5688 39.2897 78.2802 38.8479 78.0637C38.3324 77.8473 37.7433 77.703 37.1543 77.703C37.0806 77.703 36.9334 77.703 36.8597 77.703C36.197 77.7752 35.7552 77.8473 35.2398 77.9194Z" fill="#1C1C1C"/>
<path d="M38.1853 80.0118C37.7435 80.0118 37.3017 80.0118 36.8599 80.0839C36.4181 80.0839 36.0499 80.0839 35.6081 80.0839C35.2399 80.0839 34.8718 80.0839 34.5036 80.1561C34.209 80.1561 33.9881 80.2282 33.7672 80.3004C33.4727 80.3725 33.1782 80.4447 32.9573 80.589C32.8836 80.6611 32.8836 80.6611 32.81 80.7333C32.7364 80.8054 32.6627 80.9497 32.5891 81.094C32.5155 81.3104 32.5891 81.5269 32.6627 81.6712C32.7364 81.8155 32.9573 81.9598 33.1045 82.0319C33.2518 82.1041 33.3991 82.0319 33.5463 82.0319C33.6936 81.9598 33.8409 81.9598 33.9881 81.8876C33.9881 81.8876 33.9881 81.8876 34.0618 81.8876C34.1354 81.8876 34.1354 81.8876 34.209 81.8155C34.3563 81.7433 34.5772 81.7433 34.7245 81.6712C35.019 81.599 35.2399 81.5269 35.5345 81.5269C36.4917 81.4547 37.3753 81.3826 38.3326 81.3826C38.7007 81.3826 38.9953 81.094 38.9953 80.7333C38.848 80.3725 38.5535 80.0118 38.1853 80.0118Z" fill="#1C1C1C"/>
<path d="M36.7864 81.4547C36.5655 81.4547 36.3446 81.5269 36.1237 81.599C35.7555 81.7433 35.3874 81.8876 35.0928 82.104C34.7247 82.3205 34.2828 82.6812 34.2092 83.1141C34.1356 83.3305 34.2092 83.547 34.2828 83.6913C34.4301 83.9077 34.651 84.052 34.9456 84.052C35.1665 84.052 35.3874 83.9799 35.6083 83.8356C35.6819 83.7634 35.8292 83.6913 35.9028 83.6191C36.1237 83.4748 36.3446 83.4027 36.5655 83.2584C36.7128 83.1863 36.86 83.1863 37.0073 83.1141C37.1546 83.1141 37.2282 83.1141 37.3755 83.1141C37.7437 83.1863 38.0382 83.2584 38.4064 83.3305C38.8482 83.4748 39.3636 83.1863 39.4372 82.7534C39.5845 82.3205 39.29 81.8155 38.8482 81.7433C38.48 81.6712 38.1118 81.5269 37.7437 81.5269C37.5228 81.5269 37.3018 81.4547 37.0809 81.4547C36.9337 81.4547 36.86 81.4547 36.7864 81.4547Z" fill="#1C1C1C"/>
<path d="M62.1897 27.9212C62.0424 28.0654 61.9688 28.2819 61.9688 28.4262C61.9688 28.5705 62.0424 28.8591 62.1897 28.9312C62.926 29.5084 63.5887 30.0134 64.1778 30.7349C64.2514 30.8071 64.325 30.9514 64.3987 31.0235C64.4723 31.1678 64.5459 31.3121 64.6196 31.4564C64.7668 31.8893 64.9141 32.3222 64.9141 32.755C64.9141 32.8993 64.9877 33.1158 64.9877 33.2601C64.9877 33.3322 64.9877 33.3322 64.9877 33.4044C65.0614 33.6208 65.135 33.7651 65.3559 33.8373C65.6505 34.0537 66.0923 33.9816 66.3132 33.7651C66.5341 33.5487 66.6077 33.3322 66.755 33.1158C66.8286 32.8993 66.9022 32.755 67.0495 32.5386C67.344 31.8893 67.7122 31.1678 68.154 30.5906C68.4486 30.2299 68.7431 29.9413 69.0376 29.6527C69.1849 29.5084 69.2585 29.3641 69.2585 29.2198C69.2585 29.0755 69.1849 28.9312 69.0376 28.7869C68.8167 28.5705 68.3749 28.5705 68.154 28.7869C68.0068 28.9312 67.8595 29.0755 67.6386 29.2198C67.4913 29.3641 67.344 29.5084 67.1968 29.6527C66.9022 30.0134 66.6077 30.3742 66.3868 30.7349C66.2395 30.9514 66.0923 31.1678 66.0186 31.3842C65.8714 30.9514 65.6505 30.5185 65.4296 30.1577C64.8405 29.292 63.9569 28.5705 63.1469 27.9212C63.0733 27.849 63.0733 27.849 62.9996 27.7769C62.8524 27.7047 62.7787 27.7047 62.6315 27.7047C62.5578 27.7047 62.3369 27.7769 62.1897 27.9212Z" fill="#1C1C1C"/>
<path d="M75.5175 62.8406C75.5175 64.5 74.1921 65.7987 72.4985 65.7987C70.8049 65.7987 69.4795 64.5 69.4795 62.8406C69.4795 61.1812 70.8049 59.8826 72.4985 59.8826C74.1921 59.8826 75.5175 61.2534 75.5175 62.8406Z" fill="#F7B7C9"/>
<path d="M49.6723 64.2114C51.3397 64.2114 52.6913 62.887 52.6913 61.2533C52.6913 59.6197 51.3397 58.2953 49.6723 58.2953C48.005 58.2953 46.6533 59.6197 46.6533 61.2533C46.6533 62.887 48.005 64.2114 49.6723 64.2114Z" fill="#F7B7C9"/>
<path d="M42.9719 40.1863C32.1476 52.5235 39.5111 70.9933 54.5324 75.6108C63.5158 78.3524 74.2664 75.6829 81.2617 69.6225C90.7605 61.3255 90.245 49.9983 86.0479 39.2483C85.7533 38.5269 84.5016 38.8155 84.7961 39.6091C87.0788 45.3809 88.9196 51.0084 87.3733 57.2131C86.2688 61.542 83.9125 65.5822 80.599 68.6124C73.9719 74.6007 63.5158 77.1259 54.9006 74.4564C40.8365 70.1275 33.7676 52.6678 43.9291 41.052C44.4446 40.4749 43.561 39.5369 42.9719 40.1863Z" fill="#1C1C1C"/>
<path d="M49.5251 62.9849C51.7341 68.2517 53.9431 71.1376 59.9075 71.8591C65.3564 72.5084 69.7745 69.1896 72.2781 64.6443C72.6462 63.9228 71.5417 63.2735 71.1735 63.995C69.1854 67.6745 65.651 70.6326 61.1593 70.7047C55.4158 70.849 52.6914 67.4581 50.7032 62.6242C50.4823 61.9749 49.2306 62.2634 49.5251 62.9849Z" fill="#1C1C1C"/>
<path d="M88.9927 55.9866C90.1709 55.2651 91.7908 56.7081 91.349 58.0067C90.9072 59.1611 89.0664 59.5218 88.1091 58.7282C87.5201 58.151 86.6364 59.0889 87.2255 59.594C88.9191 61.1812 92.0117 60.3154 92.6008 58.151C93.1899 55.9144 90.3181 53.8222 88.33 54.9765C87.6673 55.3373 88.2564 56.4195 88.9927 55.9866Z" fill="#1C1C1C"/>
<path d="M38.4794 53.6779C37.0067 51.802 33.1777 53.5336 33.1777 55.7701C33.1777 58.5118 36.8594 59.5218 39.0685 59.1611C39.8784 59.0168 39.5103 57.8624 38.7003 57.9346C37.3013 58.151 35.6813 57.7181 34.7977 56.6359C34.2086 55.9144 34.4295 55.1208 35.2395 54.6158C35.6077 54.3993 37.0067 53.8222 37.3749 54.255C37.8903 54.9044 38.9948 54.3272 38.4794 53.6779Z" fill="#1C1C1C"/>
<path d="M57.036 58.5118C58.7295 61.3255 62.5585 61.7584 64.7676 59.2332C65.283 58.6561 64.3994 57.7181 63.8839 58.3675C62.264 60.2433 59.4659 60.099 58.1405 57.9346C57.6987 57.141 56.5942 57.7903 57.036 58.5118Z" fill="#1C1C1C"/>
<path d="M75.0026 53.5336C75.0026 54.1829 74.4135 54.7601 73.7508 54.7601C73.0881 54.7601 72.499 54.1829 72.499 53.5336C72.499 52.8842 73.0881 52.3071 73.7508 52.3071C74.4871 52.2349 75.0026 52.8121 75.0026 53.5336Z" fill="#1C1C1C"/>
<path d="M49.8932 51.8742C49.8932 52.5235 49.3041 53.1007 48.6414 53.1007C47.9787 53.1007 47.3896 52.5235 47.3896 51.8742C47.3896 51.2249 47.9787 50.6477 48.6414 50.6477C49.3041 50.6477 49.8932 51.2249 49.8932 51.8742Z" fill="#1C1C1C"/>
</g>
<defs>
<filter id="filter0_d" x="28" y="0" width="70" height="94" filterUnits="userSpaceOnUse" color-interpolation-filters="sRGB">
<feFlood flood-opacity="0" result="BackgroundImageFix"/>
<feColorMatrix in="SourceAlpha" type="matrix" values="0 0 0 0 0 0 0 0 0 0 0 0 0 0 0 0 0 0 127 0"/>
<feOffset dy="4"/>
<feGaussianBlur stdDeviation="2"/>
<feColorMatrix type="matrix" values="0 0 0 0 0 0 0 0 0 0 0 0 0 0 0 0 0 0 0.1 0"/>
<feBlend mode="normal" in2="BackgroundImageFix" result="effect1_dropShadow"/>
<feBlend mode="normal" in="SourceGraphic" in2="effect1_dropShadow" result="shape"/>
</filter>
<clipPath id="clip0">
<rect width="62" height="86" fill="white" transform="translate(32)"/>
</clipPath>
</defs>
</svg>
