<svg width="45" height="45" viewBox="0 0 45 45" fill="none" xmlns="http://www.w3.org/2000/svg">
<g clip-path="url(#clip0)">
<path d="M39.2898 19.5267C35.0905 14.7414 30.7078 13.629 30.7078 8.35221C30.7078 2.6011 25.8507 -1.80915 17.3495 1.26124C8.23443 4.55333 1.92236 12.4942 1.92236 22.3874C1.92236 34.6315 11.8483 44.5575 24.0925 44.5575C26.1064 44.5575 28.0576 44.289 29.9121 43.7859L29.9116 43.7835C39.2898 41.0711 46.9779 28.2875 39.2898 19.5267ZM29.8587 17.2124C28.5623 18.8711 24.9716 17.9014 23.5858 15.5544C22.3642 13.4858 22.8112 10.5275 24.9256 9.22319C26.1512 8.46717 27.7676 9.21112 28.0751 10.6179C28.3254 11.7627 28.8388 13.181 29.8844 14.4787C30.5216 15.2698 30.4843 16.412 29.8587 17.2124Z" fill="#E6BE94"/>
<path d="M14.7856 16.6661C17.15 16.6661 19.0667 14.7494 19.0667 12.3849C19.0667 10.0205 17.15 8.10376 14.7856 8.10376C12.4211 8.10376 10.5044 10.0205 10.5044 12.3849C10.5044 14.7494 12.4211 16.6661 14.7856 16.6661Z" fill="#FF4F19"/>
<path d="M15.8442 12.8128C16.6717 12.8128 17.3426 12.1419 17.3426 11.3144C17.3426 10.4868 16.6717 9.81592 15.8442 9.81592C15.0166 9.81592 14.3457 10.4868 14.3457 11.3144C14.3457 12.1419 15.0166 12.8128 15.8442 12.8128Z" fill="#FF8C62"/>
<path d="M10.4945 27.3936C12.859 27.3936 14.7757 25.4769 14.7757 23.1125C14.7757 20.748 12.859 18.8313 10.4945 18.8313C8.13012 18.8313 6.21338 20.748 6.21338 23.1125C6.21338 25.4769 8.13012 27.3936 10.4945 27.3936Z" fill="#FFCD00"/>
<path d="M11.5531 23.5404C12.3807 23.5404 13.0516 22.8695 13.0516 22.0419C13.0516 21.2143 12.3807 20.5435 11.5531 20.5435C10.7256 20.5435 10.0547 21.2143 10.0547 22.0419C10.0547 22.8695 10.7256 23.5404 11.5531 23.5404Z" fill="#FFE671"/>
<path d="M15.4811 37.3863C17.8455 37.3863 19.7623 35.4696 19.7623 33.1051C19.7623 30.7407 17.8455 28.824 15.4811 28.824C13.1167 28.824 11.2 30.7407 11.2 33.1051C11.2 35.4696 13.1167 37.3863 15.4811 37.3863Z" fill="#00C37A"/>
<path d="M16.5397 33.5333C17.3673 33.5333 18.0382 32.8624 18.0382 32.0348C18.0382 31.2073 17.3673 30.5364 16.5397 30.5364C15.7121 30.5364 15.0413 31.2073 15.0413 32.0348C15.0413 32.8624 15.7121 33.5333 16.5397 33.5333Z" fill="#60DC4D"/>
<path d="M26.2282 40.9818C28.5926 40.9818 30.5094 39.065 30.5094 36.7006C30.5094 34.3362 28.5926 32.4194 26.2282 32.4194C23.8638 32.4194 21.947 34.3362 21.947 36.7006C21.947 39.065 23.8638 40.9818 26.2282 40.9818Z" fill="#4CD7FF"/>
<path d="M27.2868 37.1285C28.1144 37.1285 28.7852 36.4576 28.7852 35.63C28.7852 34.8025 28.1144 34.1316 27.2868 34.1316C26.4592 34.1316 25.7883 34.8025 25.7883 35.63C25.7883 36.4576 26.4592 37.1285 27.2868 37.1285Z" fill="#AEEFFF"/>
<path d="M34.0951 33.0953C36.4596 33.0953 38.3763 31.1786 38.3763 28.8141C38.3763 26.4497 36.4596 24.533 34.0951 24.533C31.7307 24.533 29.814 26.4497 29.814 28.8141C29.814 31.1786 31.7307 33.0953 34.0951 33.0953Z" fill="#009BCA"/>
<path d="M35.1535 29.2423C35.9811 29.2423 36.6519 28.5714 36.6519 27.7438C36.6519 26.9162 35.9811 26.2454 35.1535 26.2454C34.3259 26.2454 33.655 26.9162 33.655 27.7438C33.655 28.5714 34.3259 29.2423 35.1535 29.2423Z" fill="#4CD7FF"/>
</g>
<defs>
<clipPath id="clip0">
<rect width="44.3026" height="44.3026" fill="white" transform="translate(0.0263672 0.254883)"/>
</clipPath>
</defs>
</svg>
