<svg width="11" height="10" viewBox="0 0 11 10" fill="none" xmlns="http://www.w3.org/2000/svg">
<path d="M10.5196 0.0765961C10.0233 -0.19847 9.46961 0.332014 9.14506 0.646375C8.40052 1.39298 7.77051 2.25748 7.0641 3.04338C6.28135 3.90787 5.55588 4.77236 4.75404 5.61724C4.29585 6.08878 3.79947 6.59962 3.49401 7.18904C2.80672 6.50135 2.21489 5.75474 1.45124 5.1457C0.897588 4.71345 -0.0187978 4.39909 0.000293609 5.44041C0.0384763 6.79613 1.20305 8.25004 2.06216 9.17345C2.4249 9.5664 2.90218 9.979 3.45583 9.99864C4.12403 10.0379 4.81132 9.21274 5.21223 8.76085C5.91865 7.97495 6.49139 7.09078 7.14046 6.28526C7.98048 5.22429 8.83959 4.18294 9.66052 3.10232C10.176 2.4343 11.7988 0.783876 10.5196 0.0765961ZM0.840282 5.36182C0.821191 5.36182 0.8021 5.36182 0.763917 5.38144C0.687551 5.36182 0.630277 5.34214 0.553912 5.30285C0.611186 5.26355 0.706643 5.2832 0.840282 5.36182Z" fill="#46AADC"/>
</svg>
