<svg width="47" height="47" viewBox="0 0 47 47" fill="none" xmlns="http://www.w3.org/2000/svg">
<g clip-path="url(#clip0)">
<path d="M35.07 3.5144C28.8562 3.5144 23.8193 6.79908 23.8193 13.1357C23.8193 19.4724 28.8562 24.6082 35.07 24.6082C41.2831 24.6082 46.3196 19.4724 46.3196 13.1357C46.3196 6.79908 41.2831 3.5144 35.07 3.5144Z" fill="#FBC4AC"/>
<path d="M26.0408 13.1357C26.0408 7.1813 30.4884 2.28728 36.1806 1.71865C35.8152 1.6818 35.4449 1.66284 35.07 1.66284C28.8562 1.66284 23.8193 6.79906 23.8193 13.1357C23.8193 19.4724 28.8562 24.6082 35.07 24.6082C35.4449 24.6082 35.8152 24.5893 36.1806 24.5528C30.4884 23.9838 26.0408 19.0898 26.0408 13.1357Z" fill="#E3B098"/>
<path d="M41.0666 15.5409C40.683 15.5409 40.3723 15.2303 40.3723 14.8466V13.6806C40.3723 13.2973 40.683 12.9863 41.0666 12.9863C41.4502 12.9863 41.7609 13.2973 41.7609 13.6806V14.8466C41.7609 15.2303 41.4502 15.5409 41.0666 15.5409Z" fill="#3A484A"/>
<path d="M41.8606 17.255H40.2727C39.889 17.255 39.5784 16.944 39.5784 16.5607C39.5784 16.1774 39.889 15.8665 40.2727 15.8665H41.8606C42.2442 15.8665 42.5549 16.1774 42.5549 16.5607C42.5549 16.944 42.2442 17.255 41.8606 17.255Z" fill="#F98084"/>
<path d="M29.0725 15.5409C28.6888 15.5409 28.3782 15.2303 28.3782 14.8466V13.6806C28.3782 13.2973 28.6888 12.9863 29.0725 12.9863C29.4561 12.9863 29.7667 13.2973 29.7667 13.6806V14.8466C29.7667 15.2303 29.4561 15.5409 29.0725 15.5409Z" fill="#3A484A"/>
<path d="M29.8664 17.255H28.2785C27.8949 17.255 27.5842 16.944 27.5842 16.5607C27.5842 16.1774 27.8949 15.8665 28.2785 15.8665H29.8664C30.2501 15.8665 30.5607 16.1774 30.5607 16.5607C30.5607 16.944 30.2501 17.255 29.8664 17.255Z" fill="#F98084"/>
<path d="M35.0692 17.189C34.4508 17.189 33.8695 16.9296 33.4739 16.4772C33.2216 16.1883 33.2514 15.7499 33.5399 15.4975C33.8288 15.2451 34.2672 15.2746 34.5196 15.5635C34.6512 15.7141 34.8516 15.8004 35.0692 15.8004C35.2868 15.8004 35.4876 15.7141 35.6192 15.5631C35.8716 15.2746 36.31 15.2451 36.5989 15.4975C36.8878 15.7499 36.9173 16.1886 36.6645 16.4772C36.2693 16.9296 35.6877 17.189 35.0692 17.189Z" fill="#3A484A"/>
<path d="M45.7812 9.61998C45.0086 0.214521 41.2161 1.66276 35.07 1.66276C30.4234 1.66276 28.1921 1.19768 27.2416 0.901082C26.8615 0.782092 26.4522 0.953381 26.2714 1.30824C25.5126 2.79755 23.8193 6.82635 23.8193 13.1356C23.8193 13.1356 26.5101 8.29003 35.0697 8.29003C39.0518 8.29003 38.7187 9.61998 45.7812 9.61998Z" fill="#C86D5C"/>
<path d="M28.4933 1.30824C28.5108 1.27385 28.5308 1.24155 28.5526 1.21102C27.9657 1.10396 27.5403 0.994098 27.2416 0.901082C26.8615 0.782092 26.4522 0.953381 26.2714 1.30824C25.5126 2.79755 23.8193 6.82635 23.8193 13.1356C23.8193 13.1356 24.4634 11.977 26.1216 10.793C26.4659 5.82319 27.8327 2.60379 28.4933 1.30824Z" fill="#AD4F3D"/>
<path d="M0.734863 34.9529V42.3489C0.734863 44.1913 2.12027 45.7395 3.9518 45.9431L9.26773 46.5346L0.734863 34.9529Z" fill="#3A484A"/>
<path d="M23.2188 34.9529V42.3489C23.2188 44.1913 21.8337 45.7395 20.0022 45.9431L14.6863 46.5346L23.2188 34.9529Z" fill="#3A484A"/>
<path d="M23.2187 34.953C23.218 34.954 23.218 34.954 23.218 34.954L11.7272 26.2671L0.735933 34.954L0.73488 34.953C0.729615 35.1008 0.726807 35.2482 0.726807 35.397C0.726807 41.7337 5.76334 46.8702 11.9768 46.8702C18.1906 46.8702 23.2271 41.7337 23.2271 35.397C23.2271 35.2485 23.2243 35.1008 23.2187 34.953Z" fill="#FBC4AC"/>
<path d="M2.59589 34.5874C1.98831 34.7573 1.36668 34.884 0.735933 34.9538L0.73488 34.9528C0.729615 35.1006 0.726807 35.248 0.726807 35.3968C0.726807 41.7335 5.76334 46.87 11.9768 46.87C12.298 46.87 12.6156 46.8556 12.9298 46.8286C7.34285 46.3183 2.90548 41.089 2.59589 34.5874Z" fill="#E3B098"/>
<path d="M5.97993 37.8024C5.59663 37.8024 5.28564 37.4918 5.28564 37.1081V35.9421C5.28564 35.5588 5.59663 35.2478 5.97993 35.2478C6.36357 35.2478 6.67421 35.5588 6.67421 35.9421V37.1081C6.67421 37.4918 6.36357 37.8024 5.97993 37.8024Z" fill="#3A484A"/>
<path d="M6.77392 39.5163H5.18598C4.80234 39.5163 4.4917 39.2056 4.4917 38.822C4.4917 38.4387 4.80234 38.1277 5.18598 38.1277H6.77392C7.15756 38.1277 7.4682 38.4387 7.4682 38.822C7.4682 39.2056 7.15756 39.5163 6.77392 39.5163Z" fill="#F98084"/>
<path d="M17.9741 37.8024C17.5908 37.8024 17.2798 37.4918 17.2798 37.1081V35.9421C17.2798 35.5588 17.5908 35.2478 17.9741 35.2478C18.3577 35.2478 18.6684 35.5588 18.6684 35.9421V37.1081C18.6684 37.4918 18.3577 37.8024 17.9741 37.8024Z" fill="#3A484A"/>
<path d="M18.7681 39.5163H17.1801C16.7965 39.5163 16.4858 39.2056 16.4858 38.822C16.4858 38.4387 16.7965 38.1277 17.1801 38.1277H18.7681C19.1517 38.1277 19.4623 38.4387 19.4623 38.822C19.4623 39.2056 19.1517 39.5163 18.7681 39.5163Z" fill="#F98084"/>
<path d="M11.9769 39.4505C11.3585 39.4505 10.7772 39.1911 10.3816 38.7383C10.1293 38.4498 10.1591 38.0111 10.4476 37.7587C10.7361 37.5067 11.1749 37.5362 11.4273 37.8247C11.5589 37.9756 11.7593 38.062 11.9769 38.062C12.1946 38.062 12.3953 37.9756 12.527 37.8247C12.7793 37.5362 13.2181 37.5067 13.5066 37.759C13.7955 38.0114 13.825 38.4498 13.5726 38.7387C13.177 39.1911 12.5954 39.4505 11.9769 39.4505Z" fill="#3A484A"/>
<path d="M0.734863 34.9528L0.735916 34.9539C6.77386 34.2859 11.9768 28.454 11.9768 28.454C11.9768 28.454 17.18 34.2859 23.218 34.9539C23.218 34.9539 23.218 34.9539 23.2187 34.9528C22.9902 28.8222 18.0449 23.9243 11.9768 23.9243C5.90899 23.9243 0.963717 28.8222 0.734863 34.9528Z" fill="#3A484A"/>
<path d="M12.949 23.9675C12.6286 23.9394 12.3046 23.9243 11.9768 23.9243C5.90899 23.9243 0.963717 28.8222 0.734863 34.9532L0.735916 34.9539C1.40317 34.8802 1.95495 34.7724 2.59588 34.5874C2.99427 28.9707 7.46112 24.4463 12.949 23.9675Z" fill="#323E40"/>
<path d="M18.9442 16.5021V9.56735C18.9442 7.08998 16.9361 5.08154 14.4584 5.08154H5.21262C2.73524 5.08154 0.726807 7.08998 0.726807 9.56735V15.9047C0.726807 18.3821 2.73524 20.3902 5.21262 20.3902H21.0927L18.9442 16.5021Z" fill="#58B78C"/>
<path d="M14.6779 10.2616H4.99335C4.61006 10.2616 4.29907 9.95062 4.29907 9.56733C4.29907 9.18368 4.61006 8.87305 4.99335 8.87305H14.6779C15.0615 8.87305 15.3721 9.18368 15.3721 9.56733C15.3721 9.95062 15.0615 10.2616 14.6779 10.2616Z" fill="#EFEDEE"/>
<path d="M14.6779 13.4301H4.99335C4.61006 13.4301 4.29907 13.1194 4.29907 12.7358C4.29907 12.3525 4.61006 12.0415 4.99335 12.0415H14.6779C15.0615 12.0415 15.3721 12.3525 15.3721 12.7358C15.3721 13.1194 15.0615 13.4301 14.6779 13.4301Z" fill="#EFEDEE"/>
<path d="M11.0331 16.599H4.99335C4.61006 16.599 4.29907 16.288 4.29907 15.9047C4.29907 15.5211 4.61006 15.2104 4.99335 15.2104H11.0331C11.4163 15.2104 11.7273 15.5211 11.7273 15.9047C11.7273 16.288 11.4163 16.599 11.0331 16.599Z" fill="#EFEDEE"/>
<path d="M28.1023 39.1635V32.2284C28.1023 29.751 30.1108 27.7429 32.5882 27.7429H41.8339C44.3113 27.7429 46.3197 29.751 46.3197 32.2284V38.5657C46.3197 41.0431 44.3113 43.0515 41.8339 43.0515H25.9539L28.1023 39.1635Z" fill="#F2C42C"/>
<path d="M42.0531 32.923H32.3686C31.985 32.923 31.6743 32.612 31.6743 32.2287C31.6743 31.8451 31.985 31.5344 32.3686 31.5344H42.0531C42.4368 31.5344 42.7474 31.8451 42.7474 32.2287C42.7474 32.612 42.4364 32.923 42.0531 32.923Z" fill="#EFEDEE"/>
<path d="M42.0531 36.0914H32.3686C31.985 36.0914 31.6743 35.7805 31.6743 35.3972C31.6743 35.0139 31.985 34.7029 32.3686 34.7029H42.0531C42.4368 34.7029 42.7474 35.0139 42.7474 35.3972C42.7474 35.7805 42.4364 36.0914 42.0531 36.0914Z" fill="#EFEDEE"/>
<path d="M42.0531 39.2604H36.0134C35.6301 39.2604 35.3191 38.9494 35.3191 38.5661C35.3191 38.1825 35.6301 37.8718 36.0134 37.8718H42.0531C42.4364 37.8718 42.7474 38.1825 42.7474 38.5661C42.7474 38.9494 42.4364 39.2604 42.0531 39.2604Z" fill="#EFEDEE"/>
</g>
<defs>
<clipPath id="clip0">
<rect width="46.0066" height="46.0066" fill="white" transform="translate(0.457275 0.863525)"/>
</clipPath>
</defs>
</svg>
