<svg width="43" height="45" viewBox="0 0 43 45" fill="none" xmlns="http://www.w3.org/2000/svg">
<g clip-path="url(#clip0)">
<path d="M34.9501 42.9942H7.97095L21.4605 20.5447L34.9501 42.9942Z" fill="#89B140"/>
<path d="M22.1705 35.0283L17.9106 42.9943H26.4304L22.1705 35.0283Z" fill="#79A73A"/>
<path d="M22.1704 35.0283L28.5602 38.6492L26.4303 42.9943L22.1704 35.0283Z" fill="#AAC16B"/>
<path d="M21.4605 20.5447L7.97095 42.9942H12.2308L21.4605 20.5447Z" fill="#79A73A"/>
<path d="M37.0798 11.1304H38.4998V43.7184H37.0798V11.1304Z" fill="#533222"/>
<path d="M4.4209 21.2688H5.84086V43.7183H4.4209V21.2688Z" fill="#533222"/>
<path d="M0.161133 42.27H42.7598V43.7184H0.161133V42.27Z" fill="#804D35"/>
<path d="M40.2749 4.61296H39.8169C39.4314 3.06756 37.8907 2.13365 36.3756 2.52687C35.3821 2.78468 34.603 3.57023 34.3387 4.58037C34.3387 4.59123 34.3387 4.6021 34.3338 4.61296H33.8851C32.9048 4.61296 32.1101 5.42349 32.1101 6.4234C32.1101 7.42331 32.9048 8.23385 33.8851 8.23385H40.2749C41.2552 8.23385 42.0498 7.42331 42.0498 6.4234C42.0498 5.42349 41.2552 4.61296 40.2749 4.61296Z" fill="#B9B9B9"/>
<path d="M40.6298 6.42333C40.6298 5.42342 39.8352 4.61289 38.8549 4.61289H38.397C38.1464 3.6061 37.3843 2.81466 36.4019 2.54102H36.3934C35.3961 2.79031 34.6096 3.57143 34.3387 4.58175C34.3387 4.59261 34.3387 4.60347 34.3338 4.61434H33.8851C32.9048 4.61434 32.1101 5.42487 32.1101 6.42478C32.1101 7.42469 32.9048 8.23522 33.8851 8.23522H38.8549C39.8352 8.23522 40.6298 7.42469 40.6298 6.42478C40.6298 6.42433 40.6298 6.42387 40.6298 6.42333Z" fill="#DBDBDB"/>
<path d="M19.0778 5.04743C18.8368 3.89363 18.9644 2.69141 19.442 1.617C19.0889 1.61528 18.7367 1.65194 18.3912 1.72635C15.5744 2.38563 13.8145 5.24893 14.4601 8.12229C15.0066 11.0166 17.7494 12.9113 20.5872 12.3551C22.1729 12.0063 23.4991 10.904 24.1541 9.39032C21.6717 9.33909 19.5593 7.53181 19.0778 5.04743Z" fill="#FBB540"/>
<path d="M13.6948 8.32415H11.4782C11.2761 5.73286 9.09695 3.77106 6.55097 3.88856C3.80628 3.90413 1.59354 6.18619 1.60872 8.98577C1.62248 11.5189 3.46744 13.6529 5.92973 13.9836V14.027H13.6948C15.2387 14.0521 16.5103 12.7959 16.5349 11.221C16.5594 9.64622 15.3278 8.34931 13.7839 8.32415C13.7541 8.32369 13.7245 8.32369 13.6948 8.32415Z" fill="#DBDBDB"/>
<path d="M12.2749 9.77263H10.0583C9.85613 7.18134 7.67704 5.21955 5.13105 5.33704C4.16016 5.33605 3.21048 5.62671 2.40048 6.17274C0.891687 8.50767 1.52419 11.6481 3.81334 13.187C4.44956 13.6148 5.17374 13.8873 5.92978 13.9837V14.0272H13.6948C14.0852 14.0264 14.4711 13.9418 14.8272 13.7788C15.4565 12.3454 14.8275 10.6629 13.4222 10.021C13.0613 9.85618 12.6702 9.77154 12.2749 9.77263Z" fill="#B9B9B9"/>
<path d="M24.3003 12.5786H25.7203V14.027H24.3003V12.5786Z" fill="#F4CA62"/>
<path d="M19.3306 15.4753H20.7505V16.9237H19.3306V15.4753Z" fill="#F4CA62"/>
<path d="M11.5208 15.4753H12.9407V16.9237H11.5208V15.4753Z" fill="#F4CA62"/>
<path d="M31.4001 11.8545H32.8201V13.3029H31.4001V11.8545Z" fill="#F4CA62"/>
<path d="M27.8503 14.7512H29.2703V16.1996H27.8503V14.7512Z" fill="#F4CA62"/>
<path d="M8.68084 30.259L5.13095 26.6381L1.58106 30.259L0.577148 29.235L4.62899 25.1022C4.90624 24.8195 5.35565 24.8195 5.6329 25.1022L9.68474 29.235L8.68084 30.259Z" fill="#5B3726"/>
<path d="M8.68084 25.9138L5.13095 22.2929L1.58106 25.9138L0.577148 24.8898L4.62899 20.7569C4.90624 20.4742 5.35565 20.4742 5.6329 20.7569L9.68474 24.8898L8.68084 25.9138Z" fill="#5B3726"/>
<path d="M8.68084 34.604L5.13095 30.9831L1.58106 34.604L0.577148 33.58L4.62899 29.4471C4.90624 29.1644 5.35565 29.1644 5.6329 29.4471L9.68474 33.58L8.68084 34.604Z" fill="#5B3726"/>
<path d="M41.3398 20.1204L37.7899 16.4995L34.24 20.1204L33.2361 19.0964L37.2879 14.9635C37.5652 14.6808 38.0146 14.6808 38.2918 14.9635L42.3437 19.0964L41.3398 20.1204Z" fill="#5B3726"/>
<path d="M41.3398 15.7754L37.7899 12.1545L34.24 15.7754L33.2361 14.7514L37.2879 10.6185C37.5652 10.3358 38.0146 10.3358 38.2918 10.6185L42.3437 14.7514L41.3398 15.7754Z" fill="#5B3726"/>
<path d="M41.3398 24.4656L37.7899 20.8447L34.24 24.4656L33.2361 23.4416L37.2879 19.3087C37.5652 19.026 38.0146 19.026 38.2918 19.3087L42.3437 23.4416L41.3398 24.4656Z" fill="#5B3726"/>
<path d="M41.3398 28.8105L37.7899 25.1897L34.24 28.8105L33.2361 27.7865L37.2879 23.6537C37.5652 23.371 38.0146 23.371 38.2918 23.6537L42.3437 27.7865L41.3398 28.8105Z" fill="#5B3726"/>
</g>
<defs>
<clipPath id="clip0">
<rect width="42.5987" height="43.4507" fill="white" transform="translate(0.161133 0.942383)"/>
</clipPath>
</defs>
</svg>
