<svg width="47" height="47" viewBox="0 0 47 47" fill="none" xmlns="http://www.w3.org/2000/svg">
<g clip-path="url(#clip0)">
<path d="M46.5321 18.4891C46.3779 13.9367 44.5437 9.63212 41.3672 6.36826C37.9689 2.87652 33.3664 0.931931 28.4075 0.892574C23.4494 0.849443 18.821 2.7234 15.3703 6.15826C12.7171 8.7995 10.9593 12.1349 10.2871 15.8039C9.63079 19.3862 10.0449 23.0403 11.4847 26.3713C11.7829 27.0611 11.6167 27.8912 11.0713 28.4367L1.85586 37.6523C1.00482 38.5032 0.536133 39.6346 0.536133 40.8381C0.536133 42.0416 1.00482 43.173 1.85586 44.024L3.35413 45.5223C4.20507 46.3733 5.33654 46.8419 6.5399 46.8419C7.74344 46.8419 8.87483 46.3732 9.72568 45.5223L18.9441 36.3039C19.488 35.76 20.3155 35.5945 21.0032 35.8919C24.0862 37.2253 27.4818 37.6817 30.8228 37.2121C31.4429 37.1249 31.9177 36.6162 31.9619 35.9916C32.1797 32.9137 34.7695 30.5027 37.8579 30.5027C38.8337 30.5027 39.7638 30.7335 40.6223 31.1887C41.1745 31.4815 41.8565 31.3492 42.2592 30.871C45.1681 27.4159 46.6855 23.0187 46.5321 18.4891Z" fill="#FEB03B"/>
<path d="M46.5322 18.4889C46.378 13.9365 44.5438 9.63194 41.3672 6.36799C37.9691 2.87634 33.3665 0.931752 28.4075 0.892485C23.4481 0.852139 18.821 2.72331 15.3704 6.15826C14.1217 7.40125 13.0632 8.80867 12.2243 10.3414C11.9413 10.8584 12.0332 11.5002 12.45 11.917L32.3065 31.7734C32.3528 31.8199 32.4049 31.8643 32.4576 31.9033C32.6927 32.0773 32.9701 32.1637 33.2469 32.1637C33.548 32.1637 33.8485 32.0615 34.0934 31.8588C35.1496 30.9841 36.4867 30.5025 37.8581 30.5025C38.8339 30.5025 39.764 30.7332 40.6225 31.1884C41.1749 31.4814 41.8568 31.3489 42.2594 30.8707C45.1682 27.4157 46.6856 23.0185 46.5322 18.4889Z" fill="#E50058"/>
<path d="M46.5321 18.4889C46.3779 13.9365 44.5437 9.63191 41.3672 6.36805C41.3009 6.29994 41.2333 6.23345 41.1661 6.1665L2.58228 44.7503L3.35405 45.5221C4.205 46.3731 5.33647 46.8417 6.53983 46.8417C7.74328 46.8417 8.87466 46.373 9.72561 45.522L18.944 36.3036C19.4879 35.7598 20.3155 35.5942 21.0032 35.8916C24.0862 37.225 27.4817 37.6815 30.8229 37.2118C31.4429 37.1246 31.9177 36.6159 31.9619 35.9913C32.1797 32.9134 34.7695 30.5025 37.8579 30.5025C38.8338 30.5025 39.7639 30.7332 40.6223 31.1884C41.1745 31.4812 41.8565 31.3489 42.2593 30.8707C45.1681 27.4157 46.6855 23.0185 46.5321 18.4889Z" fill="#DB891D"/>
<path d="M46.5322 18.4889C46.378 13.9365 44.5437 9.63191 41.3672 6.36796C41.301 6.29985 41.2333 6.23336 41.1661 6.1665L23.9329 23.3997L32.3063 31.7732C32.3528 31.8197 32.4047 31.8641 32.4575 31.9031C32.6925 32.0771 32.9699 32.1635 33.2468 32.1635C33.5479 32.1635 33.8484 32.0613 34.0933 31.8586C35.1496 30.9839 36.4865 30.5023 37.8579 30.5023C38.8338 30.5023 39.7639 30.733 40.6224 31.1882C41.1747 31.4812 41.8566 31.3487 42.2593 30.8705C45.1681 27.4157 46.6855 23.0185 46.5322 18.4889Z" fill="#C50048"/>
<path d="M37.8581 27.8481C33.134 27.8481 29.2908 31.6914 29.2908 36.4154C29.2908 41.1395 33.134 44.9827 37.8581 44.9827C42.5821 44.9827 46.4253 41.1395 46.4253 36.4154C46.4253 31.6914 42.5822 27.8481 37.8581 27.8481Z" fill="#EDEEF0"/>
<path d="M37.8579 27.8481C37.8035 27.8481 37.7495 27.8492 37.6953 27.8502V44.9807C37.7494 44.9817 37.8035 44.9828 37.8579 44.9828C42.5819 44.9828 46.4252 41.1396 46.4252 36.4155C46.4252 31.6915 42.582 27.8481 37.8579 27.8481Z" fill="#D8D9DD"/>
</g>
<defs>
<clipPath id="clip0">
<rect width="46.0066" height="46.0066" fill="white" transform="translate(0.536133 0.863525)"/>
</clipPath>
</defs>
</svg>
