<svg width="127" height="88" viewBox="0 0 127 88" fill="none" xmlns="http://www.w3.org/2000/svg">
<path opacity="0.7" d="M126.157 43.6817C124.463 47.5421 120.508 47.7099 117.4 46.8707C117.542 47.8778 117.542 49.0527 117.542 49.8919C117.4 53.0809 115.705 55.5985 113.869 57.6126C109.914 62.1444 103.7 63.9906 98.6147 61.473C98.756 64.3263 98.4735 66.6761 96.9198 69.0259C94.9424 71.7114 91.4112 73.3898 88.5863 74.0612C85.6202 74.9004 82.0891 73.7255 79.4054 72.0471C78.558 71.5436 77.8518 70.8722 77.2868 70.2008C76.5806 73.5577 75.5918 76.0753 72.767 77.5859C69.5183 79.4322 65.5635 79.2643 62.1736 78.2573C56.3826 76.5788 51.439 71.3757 50.309 64.4942C49.6028 65.5012 48.7553 66.3404 48.0491 67.0118C45.3655 70.033 41.5519 70.7043 37.8795 71.04C30.8173 71.5436 25.7325 67.5153 22.3426 60.466C19.6589 63.4871 15.1391 64.4942 11.608 63.655C10.7605 63.4871 10.0543 63.1514 9.20683 62.9836C4.96949 60.2981 1.01464 57.2769 0.167174 51.0668C-0.539049 45.1923 1.01464 39.9892 4.40451 36.1288C6.52319 34.2825 9.20683 33.6111 12.0317 33.779C12.0317 33.1076 12.0317 32.4363 12.173 31.597C12.8792 28.0723 15.9866 25.7226 18.529 24.212C23.755 21.3587 32.6535 20.1838 37.1733 25.5547C37.1733 25.3869 37.1733 25.3869 37.3145 25.219C38.0208 23.2049 39.292 21.5265 40.8456 20.0159C43.6705 17.1626 47.9079 15.652 51.5802 14.4771C58.2187 12.463 66.5522 16.9948 68.6709 24.8834C69.2358 22.5336 71.072 20.5194 72.6257 19.5124C75.4506 17.4983 78.558 16.9948 81.8066 17.834C85.7615 18.841 89.9988 22.5336 90.9875 27.2331C93.1062 22.5336 99.4622 22.8692 103.135 24.7155C105.253 25.8904 107.654 28.0724 108.784 30.9257C110.056 29.2473 113.304 28.5759 114.717 28.5759C118.248 28.408 121.779 29.9186 124.321 32.9398C126.864 35.6253 127.852 40.157 126.157 43.6817Z" fill="#EAF5FB"/>
<g clip-path="url(#clip0)">
<g filter="url(#filter0_d)">
<path d="M83.6083 27.3398C83.1124 27.2948 82.5713 27.3848 82.0303 27.5197C82.1205 26.4854 82.0303 25.4062 81.7598 24.417C80.5424 20.325 76.3494 18.6612 72.4269 19.2458C71.8408 19.3357 71.2547 19.5605 70.7137 19.8303C69.6767 19.1109 68.4594 18.5713 67.1519 18.1666C66.3403 16.8176 65.2583 15.6934 63.9958 14.839C62.4629 13.8498 59.8479 13.7598 58.315 14.839C57.4133 15.4686 56.6468 16.1431 56.0156 16.8625C54.1671 16.8176 52.3636 17.6719 51.4168 19.5605C51.3266 19.7854 51.1914 19.9652 51.1012 20.1901C51.0561 20.235 51.011 20.28 50.966 20.325C50.0642 19.7404 49.0273 19.5156 47.9903 19.5156C45.2851 18.3015 41.9487 19.9652 40.7765 22.6183C39.1985 22.1237 37.6656 21.674 36.0425 21.4941C32.9766 21.0894 31.6691 25.4062 33.6529 27.2948C35.8621 29.4083 38.928 30.1727 41.7233 31.162C42.2192 31.3418 42.7152 31.5217 43.2562 31.7016C43.3013 31.7465 43.3013 31.7915 43.3464 31.8365C43.5267 32.1512 43.7071 32.466 43.9325 32.7358C43.3464 34.4446 44.1129 36.513 45.3302 37.7271C48.6666 41.1446 54.0318 41.3245 58.5404 41.0547C58.4503 41.2795 58.3601 41.5493 58.2699 41.7741C57.819 42.9882 58.5404 44.4721 59.6225 45.0567C60.7947 45.7312 62.1924 45.5064 63.1843 44.607C63.9508 43.8876 64.2213 42.9882 64.3114 41.954C64.3565 41.4594 64.2213 40.9647 63.9508 40.56C64.5369 40.4701 65.1681 40.3352 65.7091 40.1553C67.0166 39.7506 68.0536 39.0761 68.9102 38.2667C71.1645 38.3117 73.3738 37.8171 75.3575 36.7828C77.2963 36.9177 79.4153 36.603 81.0384 36.1083C82.9771 35.5687 85.0961 34.3097 86.1331 32.511C87.2152 30.4875 86.2684 27.5646 83.6083 27.3398Z" fill="#FDF0DA"/>
<path d="M51.6416 28.5539V28.509C51.2358 26.8452 50.1087 25.3163 48.5307 24.7767C47.4937 24.4619 46.5018 24.6418 45.6903 25.1364C45.0591 25.2713 44.4278 25.5861 43.977 25.9908C43.3007 26.6204 43.0753 27.3848 43.0302 28.1942C42.9851 28.509 43.0302 28.8237 43.0753 29.0935C42.6695 30.8023 43.5712 32.4211 44.9689 33.4103C46.3215 34.3546 48.17 34.1748 49.5677 33.5452C51.5515 32.6459 52.0925 30.5325 51.6416 28.5539Z" fill="#F7BFA7"/>
<path d="M80.8574 29.0036C80.4516 27.7895 79.6851 27.1599 78.558 26.7103C77.7014 26.3505 76.5742 26.5304 75.7176 26.6653C74.9511 26.8002 74.1396 27.115 73.4182 27.5197C72.4714 28.0593 71.5246 29.0036 71.2991 30.1278C70.9835 31.7466 71.6598 33.5902 73.2829 34.3097C74.6806 34.9842 75.9881 34.9392 77.3858 34.2197C77.5661 34.1298 77.7014 34.0399 77.8366 33.9499C78.4678 33.7251 79.0539 33.3654 79.5499 32.9157L79.595 32.8707C80.1811 32.1063 80.2262 32.0613 79.6851 32.7358C79.7302 32.6909 79.7753 32.6009 79.8204 32.556C80.0007 32.3311 80.3163 31.9714 80.4967 31.6566C80.9476 30.8472 81.173 29.9479 80.8574 29.0036Z" fill="#F7BFA7"/>
<path d="M105.7 74.375C105.655 73.5206 105.475 72.7112 105.159 71.9918C105.159 71.3622 105.069 70.6877 104.934 70.1032C104.889 69.9683 104.889 69.8334 104.844 69.6985C104.618 68.8891 104.258 68.0797 103.717 67.3602C103.446 67.0005 103.176 66.6407 102.86 66.326C101.778 65.1119 100.335 64.1226 98.8474 63.538C97.9006 63.1783 96.9537 62.9534 95.9619 62.9085C91.8139 60.6601 85.0059 62.6837 85.051 68.1246C85.051 68.934 85.1863 69.6985 85.3666 70.4629C85.3215 71.0025 85.3666 71.4971 85.4117 72.0367C85.4117 74.0602 86.0429 76.0838 87.2151 77.6576C87.2151 77.6576 87.2151 77.6576 87.2151 77.7026C87.5307 78.1522 87.8914 78.6019 88.2972 79.0066C90.3712 81.4798 93.5272 83.0086 96.6832 83.3684C101.643 83.908 106.016 79.0965 105.7 74.375Z" fill="#E8481B"/>
<path d="M90.2808 63.4932C89.9201 62.9985 89.4692 62.5938 88.9733 62.414C88.3872 62.0093 87.6207 61.8743 86.8993 62.1441C85.8623 62.5039 85.2311 63.1784 84.8704 64.2126C84.6901 64.6623 84.645 65.2019 84.6901 65.6965C84.7803 66.371 84.8704 66.9556 85.2762 67.5402C85.8172 68.3496 86.719 69.0241 87.756 69.0241C88.6126 69.0241 89.334 68.6643 90.0103 68.1247C90.6866 67.5851 90.912 66.8207 91.0022 66.0113C91.0923 65.2469 90.7316 64.1227 90.2808 63.4932Z" fill="#F6A900"/>
<path d="M92.5809 77.298C92.4908 77.1631 92.4006 77.0282 92.2653 76.8933C92.1752 76.7584 92.0399 76.6235 91.9948 76.5335C91.7694 76.2637 91.4538 76.0389 91.1833 75.859C90.8226 75.6342 90.4168 75.4993 89.9659 75.4543C89.5602 75.0496 88.929 74.8248 88.3879 74.7798C87.0804 74.7349 85.9984 75.4993 85.5475 76.7134C85.2319 77.6127 85.5024 78.5121 85.8631 79.3215C86.4943 80.7154 88.2978 81.5249 89.7856 81.4799C90.9578 81.4349 91.9497 80.9403 92.5809 79.951C93.167 79.2315 93.0769 78.1074 92.5809 77.298Z" fill="#F6A900"/>
<path d="M102.455 71.3622C102.094 70.5528 101.102 70.0582 100.245 70.0582C100.2 70.0132 100.11 69.9233 100.02 69.8783C99.7494 69.6535 99.4789 69.4736 99.1633 69.3837C98.5772 69.2038 97.9911 69.3387 97.4951 69.6085C97.0442 69.8333 96.7737 70.1931 96.5032 70.5978C95.9171 71.4072 96.0524 72.7112 96.5483 73.5206C97.3148 74.6448 98.5321 75.3643 99.9298 75.4092C100.922 75.4542 101.778 74.9146 102.319 74.1501C102.364 74.1052 102.409 74.0152 102.409 73.9703C102.455 73.8803 102.455 73.8354 102.5 73.7904C102.59 73.6105 102.635 73.4756 102.68 73.2958C102.86 72.6213 102.68 71.9917 102.455 71.3622Z" fill="#F6A900"/>
<path d="M103.446 78.2422C103.175 77.7925 102.679 77.5227 102.183 77.5227C101.823 77.5227 101.417 77.6576 101.147 77.9274C100.786 78.2871 100.651 78.8267 100.786 79.3214C101.011 80.3106 102.048 80.7603 102.95 80.4905C103.536 80.3556 103.942 79.816 103.942 79.2314C103.942 78.7818 103.762 78.467 103.446 78.2422Z" fill="#F6A900"/>
<path d="M35.9527 65.3817C34.9157 65.6516 34.0591 66.461 33.3828 67.1804C32.3458 68.3945 31.3088 69.6986 31.7597 71.4073C32.0302 72.3516 32.8869 72.9811 33.8337 72.9811C34.8707 72.9811 35.592 72.3066 35.9076 71.4073C35.6371 72.0368 35.7724 71.7221 35.8625 71.5422C36.0429 71.2724 36.1331 70.9127 36.2232 70.5979C36.2683 70.463 36.3134 70.2831 36.4036 70.1482C36.3134 70.3281 36.5839 69.7885 36.629 69.6986C36.7192 69.4737 36.8544 69.2939 36.9446 69.069C37.0348 68.9341 37.4856 67.8999 37.2151 68.4845C37.3053 68.3046 37.3504 68.1697 37.4406 67.9898C37.4856 67.9449 37.4856 67.8999 37.4856 67.8999C38.5226 66.8207 37.4856 65.022 35.9527 65.3817Z" fill="#923B91"/>
<path d="M80.6325 85.8416C80.2718 84.1778 78.5134 83.953 77.0707 83.8181C75.7632 83.6832 74.4106 84.1328 73.1933 84.6275C71.9309 85.1671 72.5621 86.7859 73.5089 87.1456C74.5459 87.5503 75.5828 87.6402 76.71 87.7751C77.7921 87.8651 78.829 88.3147 79.866 87.6852C80.5423 87.2805 80.8128 86.561 80.6325 85.8416Z" fill="#923B91"/>
<path d="M76.3948 60.0306C76.3948 58.7266 75.7185 57.8722 74.8619 57.4225C74.8619 57.4225 74.8619 57.4225 74.8168 57.3776C74.7717 55.489 74.0053 53.6453 73.0134 52.0265C71.9313 50.2728 69.6319 48.3392 69.3614 46.2258C69.181 44.9667 68.5949 43.8426 67.5129 43.303C65.9799 41.8191 62.7788 42.7634 62.7337 45.3265C62.7337 45.7761 62.5985 46.1808 62.373 46.4956C62.0123 46.6305 61.6517 46.8104 61.3361 47.0352C61.1106 46.8553 60.9303 46.7204 60.7048 46.5855C60.5696 46.4956 60.3892 46.4057 60.2089 46.3607C59.5777 45.8661 58.8112 45.6862 58.0448 45.7761C57.9997 45.3265 57.9546 44.8768 57.8193 44.4271C57.5939 43.5278 56.2864 43.1231 55.6552 43.8426C53.3107 46.4506 52.1836 49.2386 51.0564 52.5211C50.2449 54.9494 48.757 57.9621 49.0275 60.5702C49.6137 66.5508 57.3234 65.2467 61.5615 65.4266C65.1684 65.6065 69.4966 65.5615 72.292 63.2682C74.0954 63.9877 76.5301 62.3689 76.5301 60.3454C76.3948 60.2554 76.3948 60.1205 76.3948 60.0306ZM67.1522 58.097C67.1071 58.097 67.062 58.142 67.0169 58.142C67.2423 58.0071 67.4227 57.8272 67.603 57.6474C67.603 57.6923 67.6481 57.7373 67.6481 57.7823C67.603 57.9621 67.4227 57.9621 67.1522 58.097Z" fill="#ED7762"/>
<path d="M73.4193 63.0434C72.8332 63.8978 70.2633 63.8528 69.3165 63.9877C66.6113 64.3475 63.9963 64.7072 61.2912 64.977C58.6311 65.2018 56.1513 64.977 53.5814 64.3025C51.778 63.8079 49.4786 62.234 47.585 62.5937C46.9989 62.7286 46.8636 63.4931 47.2694 63.8528C48.126 64.7522 48.7121 65.7864 49.6589 66.6857C50.8312 67.7649 52.4092 68.3945 53.897 68.9341C57.008 70.0133 60.3894 69.6535 63.6356 69.6535C66.431 69.6535 69.2263 68.8891 71.9766 68.4844C74.4112 68.1696 76.891 67.4052 77.7025 64.8421C78.5591 62.234 74.817 60.93 73.4193 63.0434Z" fill="#E72F50"/>
<path d="M71.3 52.0715C69.6318 52.4762 68.0538 53.4655 66.4307 53.9601C64.1313 54.6796 61.877 55.0843 59.4874 55.0393C57.5487 54.9943 55.8805 54.5447 54.0771 53.9601C53.0852 53.6004 52.0482 53.1507 50.9661 53.4655C50.4251 53.6453 50.2898 54.2749 50.6505 54.6796C53.4008 57.6474 56.0609 59.2212 60.2539 59.491C62.7787 59.6709 65.3035 59.2212 67.6931 58.4568C69.6769 57.8272 72.7427 57.0628 73.5994 54.9943C74.2757 53.4655 73.1485 51.6668 71.3 52.0715Z" fill="#FADADD"/>
<path d="M84.4195 18.1216C84.149 17.7619 83.8334 17.4471 83.4727 17.1324C84.3294 14.3894 82.3005 11.3766 80.1814 9.48801C77.7017 7.28464 74.8162 4.2269 71.7954 2.83293C70.4879 2.24836 68.8197 2.60809 67.6926 3.46246H67.6475C65.9342 2.78796 64.4464 2.56313 62.688 2.65306C62.6429 2.65306 62.6429 2.65306 62.5979 2.60809C60.6141 2.15843 58.2696 2.743 56.2858 3.91213C55.0685 3.77723 53.761 4.27187 52.5887 4.85643C49.6131 4.00207 45.7807 6.56517 43.7969 8.31888C41.0467 10.7471 38.1161 15.1538 40.3253 18.7512C40.3253 18.7961 40.3253 18.7961 40.3253 18.8411C40.3704 20.8646 41.5426 22.5284 43.4813 23.1579C49.4327 25.1365 55.9702 19.7854 59.9829 15.7834C60.7944 14.974 61.606 14.0746 62.3273 13.1753C62.3724 13.3102 62.4626 13.4451 62.5077 13.535C64.8522 17.672 70.4879 21.5391 75.6728 21.674C75.8983 22.3035 76.1688 22.9331 76.5295 23.4727C78.3329 26.4405 82.1652 25.4962 83.3375 22.5733C84.8253 21.7639 85.727 19.8753 84.4195 18.1216Z" fill="#F2933D"/>
<path d="M88.0718 35.5687C87.3955 34.9392 86.5389 34.5794 85.5019 34.6694C84.51 34.7593 83.7886 34.9841 83.1574 35.3888C81.9401 35.119 80.5424 35.6586 79.9112 36.9627C79.6407 37.0076 79.4153 37.1425 79.1898 37.4123C77.5216 39.1211 76.2141 42.6735 79.5054 43.5728C79.7309 43.6178 79.9112 43.6627 80.0915 43.6627C81.1736 44.9218 83.3828 45.3265 84.51 43.8876C84.6452 43.7077 84.7805 43.5728 84.8707 43.3929C86.3585 44.7869 89.3793 44.652 90.1457 42.5835C91.4082 42.3137 92.4001 41.1896 92.5353 39.6607C92.7157 37.1875 90.281 35.5687 88.0718 35.5687Z" fill="#F2933D"/>
<path d="M47.0881 40.9647C46.6824 39.7956 46.5922 38.6265 45.8257 37.5922C45.2847 36.8727 44.6535 36.4231 43.9772 36.1982C43.887 34.9841 43.0304 34.0848 41.9934 33.7251C41.9934 32.1962 40.6408 31.0271 39.2882 30.9821C38.7923 30.5774 38.116 30.3526 37.4397 30.3975C35.0952 29.6331 32.5253 30.1727 30.1358 31.4767C27.9265 32.6908 28.5578 36.2882 30.8121 36.7828C31.0375 37.3224 31.4433 37.7721 31.8941 38.0868C32.9311 38.8063 34.0132 38.8063 35.0502 38.3567C35.0952 39.5258 35.5461 40.65 36.7634 41.4594C37.2594 41.8191 37.7553 41.999 38.2513 42.0889C38.9726 43.348 40.4154 43.8426 41.8131 43.5728C43.3009 46.2258 48.2153 44.0225 47.0881 40.9647Z" fill="#F2933D"/>
<path d="M101.238 46.1816C100.291 46.4065 99.3891 46.4065 98.4873 46.3165C99.8399 46.0018 101.328 45.3722 102.049 44.2481C102.41 43.6635 101.508 43.1239 101.147 43.7085C100.742 44.383 99.885 44.7877 99.0284 45.0575C99.5694 44.293 100.065 43.4387 100.336 42.5393C100.561 41.8648 99.5243 41.595 99.2989 42.2695C98.9382 43.4387 98.2168 44.4279 97.4504 45.4172C97.4955 45.2823 97.4954 45.1474 97.5405 45.1024C97.5856 44.9675 97.5856 44.8326 97.5856 44.7427C97.9463 44.5179 97.9914 43.8883 97.4955 43.7534L97.2249 43.6635C96.8192 43.5286 96.5036 43.9333 96.5486 44.293C96.5937 44.6528 96.4134 45.0575 96.3683 45.3722C96.3232 45.5971 96.3683 45.8669 96.4134 46.0467C96.0527 46.2266 95.9625 46.9011 96.5036 47.036C96.5937 47.036 96.6388 47.081 96.729 47.081C95.9174 49.0145 94.3394 50.1387 92.3105 50.8582C90.2366 51.5776 87.847 51.7125 85.6829 51.2179C82.7523 50.5434 79.8668 49.2394 77.3419 47.6655C74.6368 46.0018 72.5177 43.7085 69.9929 41.8199C69.8126 41.685 69.6322 41.685 69.497 41.7749C69.3166 41.5051 69.1363 41.2353 68.9559 40.9655C70.3987 40.6507 71.7964 40.246 73.1489 39.7514C73.9605 39.4816 74.727 39.1218 75.5385 38.7171C75.0877 40.3359 75.5385 42.2695 76.5755 43.6635C78.1986 45.9118 80.9488 46.0018 82.8425 44.2481C83.6991 45.2373 85.0968 45.9568 86.3592 45.9118C87.7118 45.8669 88.343 44.8326 88.5233 43.6635C89.5603 44.338 90.6874 45.2373 91.8597 44.6078C93.5279 43.7534 94.4296 41.64 94.6099 39.8413C94.8354 37.7728 93.573 36.4238 91.9949 35.3446C90.5973 34.3554 88.9742 33.6359 87.3511 33.0963C88.3881 31.8372 89.2898 29.5439 88.0724 28.1499C87.5314 27.5204 86.1337 26.8909 84.7812 26.711C85.5025 25.9016 86.1338 25.0472 86.5395 24.058C87.2158 22.4392 87.306 20.7754 87.0355 19.0217C86.4944 15.5143 84.3303 12.3666 82.2563 9.57867C80.0471 6.65583 76.846 4.40749 73.5547 2.83365C71.0299 1.66451 68.1895 1.12491 65.7548 2.65378C65.0785 2.11418 64.4924 1.52961 63.771 1.03498C62.9595 0.495376 62.0127 0.270542 61.0208 0.135642C58.8116 -0.179126 56.5122 0.540343 54.4382 1.21484C50.4706 2.47391 46.4129 4.67729 43.347 7.55516C40.8673 9.84847 39.3344 12.8163 38.117 15.919C37.9818 16.2338 37.8465 16.5485 37.7563 16.9083C36.8095 17.1331 37.035 18.2573 37.4858 19.3365C37.5309 19.4264 37.5309 19.5163 37.576 19.6063C37.6211 19.6962 37.6662 19.7412 37.6662 19.8311C37.6211 19.7861 37.5309 19.7412 37.4858 19.6962C36.3587 18.9318 34.961 19.2465 33.8338 19.7861C31.7148 20.7754 30.1368 22.7989 30.8582 25.1821C31.3541 26.8459 32.6616 28.1949 34.1495 29.1842C34.0593 29.1392 33.9691 29.0942 33.8789 29.0942C33.4732 28.9594 33.0223 29.0493 32.6165 29.1392C31.8951 29.2741 31.2639 29.9486 30.8131 30.4433C29.9114 31.4775 28.7391 33.1862 28.9195 34.6701C29.0998 36.199 30.5426 37.1883 31.8501 37.6829C32.4813 37.9077 33.1576 37.9977 33.7888 37.9977C32.887 40.0212 32.7067 42.6742 34.9159 43.6635C35.7726 44.0682 36.7644 44.0682 37.6662 43.7984C38.0719 43.6635 38.4326 43.4387 38.7482 43.1689C38.9737 42.989 39.1991 42.7642 39.5147 42.6742C39.5598 42.6742 39.7401 43.2138 39.7401 43.2588C39.8303 43.6185 39.9205 43.9783 40.0557 44.293C40.2812 44.7427 40.9575 45.1924 41.3632 45.4622C42.31 46.0917 43.4372 46.1816 44.5193 45.9118C46.4129 45.4172 47.4949 43.4836 48.1262 41.8199C48.2614 41.4151 48.3967 40.9205 48.4418 40.4259C50.1099 41.3702 51.9585 41.9548 53.8521 42.2695C53.6717 42.3595 53.4914 42.4944 53.3561 42.6742C53.2209 42.6293 53.0405 42.6742 52.9053 42.8091C52.229 43.4836 51.5076 44.1581 50.651 44.6528C50.2452 44.9226 49.6591 45.1024 49.2082 45.4172C47.7655 46.1367 46.2776 46.7212 44.7447 47.1709C41.769 47.9803 38.613 48.2051 35.5471 47.8904C32.4362 47.5756 29.6408 46.5414 27.3414 44.4279C26.2143 43.3937 25.4478 42.1796 24.6363 40.9205C24.5912 40.8306 24.5461 40.7407 24.501 40.6507C24.5912 40.4708 24.5461 40.246 24.3658 40.0661C24.3658 39.6614 24.4559 39.3017 24.5461 38.942C24.6363 38.6272 24.9068 38.3124 24.9519 37.9527C24.997 37.8628 24.997 37.7279 24.997 37.593C25.4929 37.4581 25.6282 36.6936 25.0421 36.5587C24.6363 36.4688 24.1403 36.5138 24.0051 36.9634C23.8247 37.548 23.5993 38.1326 23.419 38.7621C23.2837 38.3574 23.1484 37.9527 23.0583 37.6379C22.8328 36.9634 22.6525 36.244 22.4721 35.5245C22.6976 35.2547 22.6525 34.7601 22.2467 34.6701L21.9762 34.5802C21.5704 34.4453 21.2548 34.85 21.2999 35.2097C21.4352 35.8842 21.6155 36.5587 21.7959 37.2332C21.7057 37.1433 21.6606 37.0534 21.5704 36.9634C21.6155 36.8285 21.6155 36.6936 21.5253 36.5587C21.2097 36.0641 20.804 35.9292 20.2629 35.7493C19.767 35.6144 19.3161 36.2889 19.7219 36.6487C20.7138 37.4581 21.5704 38.5822 22.2016 39.7514C21.5253 39.4366 20.849 39.0769 20.1277 38.8071C20.0826 38.7621 20.0375 38.7621 19.9924 38.7621L19.7219 38.6722C19.0456 38.4923 18.7751 39.4816 19.4063 39.7064C20.804 40.1561 22.0213 40.9655 23.3739 41.3702C23.464 41.4151 23.5542 41.4151 23.6444 41.3702C23.8698 41.8648 24.1854 42.3145 24.501 42.8091C26.4397 45.5971 29.2802 47.6206 32.6165 48.43C36.1783 49.2843 39.9205 49.1944 43.4823 48.5199C45.3759 48.1602 47.1793 47.4857 48.9377 46.6763C49.1631 46.8112 49.4787 46.7662 49.614 46.4964C49.6591 46.4065 49.7493 46.3615 49.8394 46.2716C50.1099 46.1367 50.3805 46.0018 50.651 45.8669V45.8219C50.9666 45.642 51.2822 45.5071 51.5527 45.3273C51.7781 45.1924 51.9585 45.0575 52.1388 44.9226C51.733 45.9568 51.4625 47.081 51.192 48.1602C51.1018 48.43 51.0117 48.7447 50.8764 49.0145C50.1099 51.128 49.4336 53.3313 48.8024 55.4898C48.7123 55.8495 48.577 56.2092 48.4868 56.569V56.6139C48.1262 57.873 47.6753 59.1321 47.3597 60.4361C47.1793 60.4811 46.999 60.6609 47.0441 60.9307C47.0441 61.1106 47.0892 61.2455 47.1793 61.3804C47.1343 61.7401 47.0892 62.0549 47.0441 62.4146C46.999 62.9093 46.9539 63.4039 46.9088 63.8985C46.7285 64.9777 46.6383 66.1019 47.0892 66.8663C47.1793 67.0013 47.2695 67.0462 47.3597 67.0912C47.4499 67.1361 47.54 67.1811 47.5851 67.1811C47.9909 67.4959 48.4418 67.7657 48.9828 67.9456C50.1099 68.3952 51.3273 68.6201 52.4995 68.8899C52.4995 68.9348 52.5446 69.0248 52.5897 69.0697C52.77 69.2946 52.4544 70.7335 52.4093 71.0932C52.3192 71.6778 52.229 72.2624 52.0486 72.802C50.2001 73.1167 48.2163 72.5771 46.458 72.0825C44.5193 71.4979 42.4002 70.9583 40.9575 69.4295C40.4164 68.8449 39.9205 68.1704 39.5598 67.4509C39.6049 67.1362 39.65 66.8214 39.8754 66.5516C40.2812 66.012 39.4245 65.4724 38.9737 65.967C38.8384 65.6073 38.6581 65.2026 38.4326 64.8878C37.576 63.6737 36.0882 64.1683 35.1413 64.9328C33.2928 66.3267 29.9114 70.014 33.1125 71.7677C34.42 72.4872 36.0882 72.3523 37.2604 71.4979C37.9818 70.9583 38.5228 70.1939 38.9286 69.3845C39.0188 69.2046 39.1089 69.0697 39.154 68.8899C39.2442 69.0248 39.3344 69.1597 39.4245 69.2946C40.3713 70.6885 41.5887 71.6328 43.1667 72.2174C46.0522 73.2966 49.4787 74.5557 52.5897 73.9261C52.77 73.8812 52.9053 73.7463 52.9504 73.5664C53.2209 72.6671 53.3561 71.7228 53.4914 70.7785C53.5365 70.3288 53.6717 69.7892 53.6267 69.2946C54.6636 69.5644 55.7006 69.8342 56.7827 70.014C56.963 70.3738 57.459 70.4187 57.6844 70.1939C58.6763 70.3738 59.7133 70.5087 60.7052 70.5986C63.9514 70.9134 67.3779 70.6436 70.579 69.7442C70.8496 70.5986 71.1652 71.408 71.4808 72.2174C71.9316 73.2966 72.5177 74.3308 72.5628 75.5449C72.6079 77.2087 72.1571 78.7376 71.5709 80.3114C71.3455 80.941 70.7143 82.2 70.9848 83.0544C70.9848 83.0994 70.9848 83.0994 70.9397 83.1443C70.8496 83.5041 70.8496 83.8188 70.8045 84.1786C70.6692 84.2685 70.579 84.4034 70.534 84.5833C70.1733 87.1913 74.5917 87.9108 76.3501 88.0907C77.4772 88.2256 78.8298 88.2256 79.9119 87.686C81.2645 87.0115 81.3546 85.2578 80.498 84.2235C79.3708 82.8296 77.5223 82.3799 75.8541 82.1551C74.9975 82.0202 74.1859 82.245 73.3744 82.5148C72.9686 82.6497 72.5628 82.7396 72.1571 82.7846C71.8414 82.7846 72.0669 82.29 72.1571 82.0202C72.3825 81.2557 72.6981 80.4913 72.9686 79.7718C73.2842 78.9624 73.4195 78.153 73.5096 77.2537C73.6449 76.2194 73.69 75.1852 73.4195 74.151C73.2842 73.6563 72.9686 73.1167 72.7883 72.6671C72.4727 71.9476 72.2021 71.2281 71.9316 70.5087C71.7964 70.1939 71.7062 69.8791 71.616 69.5644C72.0669 69.4295 72.4727 69.2496 72.9235 69.0697C73.194 69.5644 74.0056 69.2946 73.9154 68.665C74.9073 68.2154 75.809 67.7207 76.5755 67.0013C76.5755 67.0013 76.5755 67.0013 76.5755 67.0462C76.8911 67.6758 77.8379 67.1361 77.5223 66.5066C77.4772 66.3717 77.387 66.2368 77.3419 66.1019C77.4321 66.012 77.4772 65.8771 77.5674 65.7871C77.6576 65.6523 77.7477 65.5173 77.7928 65.3824C78.0182 65.3824 78.1986 65.2476 78.2437 65.0227C78.5593 63.6737 78.1986 62.2348 77.883 60.8408C77.9732 60.616 77.883 60.3462 77.7477 60.2113C77.7026 60.0764 77.7026 59.9415 77.6576 59.8515C77.6125 59.6267 77.4772 59.4918 77.2969 59.4918C77.2518 59.3569 77.2067 59.222 77.1616 59.1321C76.4402 57.3784 75.6287 55.6696 74.9073 53.9159C73.9605 51.6226 72.8784 49.3743 71.8414 47.081C71.3455 46.0018 70.9397 44.8776 70.3987 43.7984C72.653 45.642 74.727 47.6655 77.2518 49.1944C79.8668 50.8132 83.0679 52.2072 86.1337 52.7018C88.5233 53.1065 91.0932 52.8367 93.3024 51.9374C95.4215 51.083 96.9544 49.734 97.766 47.6655C98.9833 47.8904 100.201 47.8904 101.463 47.5756C102.184 47.036 101.914 46.0018 101.238 46.1816ZM38.3875 68.0355C38.117 68.8449 37.7113 69.5644 37.1251 70.1939C36.1332 71.2281 34.42 71.453 33.2928 70.4637C32.2107 69.5644 33.7437 67.9456 34.3298 67.2261C34.8708 66.5965 36.8546 64.3032 37.6662 65.5173C38.0269 66.012 38.1621 66.6415 38.3425 67.2261C38.3875 67.361 38.4326 67.4509 38.4777 67.5858C38.4777 67.6758 38.4326 67.8556 38.3875 68.0355ZM73.0588 83.4591C73.9605 83.2792 74.6819 82.9195 75.5836 82.9645C76.4402 82.9645 77.4321 83.2792 78.1986 83.594C78.8749 83.8638 79.6413 84.4484 79.9569 85.1229C80.5431 86.6068 78.5142 86.8316 77.6125 86.8316C76.305 86.8766 74.9975 86.6517 73.7351 86.247C73.1039 86.0222 72.112 85.6625 71.7964 85.0329C71.8865 84.5833 71.8865 84.0886 71.9767 83.639C72.3374 83.639 72.6981 83.549 73.0588 83.4591ZM82.8425 42.0447C82.7974 41.9098 82.7523 41.7749 82.7523 41.64C82.9326 41.8648 82.9777 42.0447 82.8875 42.2246C82.8875 42.1796 82.8425 42.1346 82.8425 42.0447ZM87.306 28.8694C88.0724 30.1285 87.0806 31.7473 86.1337 32.7366C85.9534 32.7815 85.7731 32.9164 85.728 33.0963C85.0968 33.6359 84.15 33.9956 83.3835 34.3104C82.7072 34.5352 82.1211 34.4003 81.4448 34.4903C80.7685 34.5802 81.039 35.6144 81.7153 35.5245C82.076 35.4795 82.4818 35.6144 82.8425 35.5695C83.4737 35.4346 84.0598 35.2097 84.6459 34.9849C85.3222 34.6701 85.9534 34.3554 86.4944 33.9057C87.847 34.3104 89.1545 34.895 90.4169 35.5695C91.8146 36.3339 93.4377 37.3681 93.573 39.1218C93.7082 40.6957 92.8967 42.3145 91.7695 43.3937C90.7776 44.338 89.2898 42.6742 88.343 42.2695C87.9823 42.0897 87.4863 42.2695 87.5314 42.7192C87.5765 43.7984 87.3511 44.8776 86.0436 44.8326C85.1419 44.7877 84.195 44.1132 83.5638 43.3937C84.195 42.4044 84.3303 41.0104 82.9326 40.5158C82.3014 40.291 81.9407 40.7856 81.7604 41.3252C81.535 41.9548 81.8957 42.7642 82.2563 43.3487C81.7153 43.8883 80.9939 44.293 80.2725 44.4279C78.6494 44.7427 77.2969 43.0789 76.8009 41.7299C76.2599 40.3359 76.3951 38.7171 77.4321 37.6379C78.7396 36.7836 79.8668 35.7493 80.7685 34.4903C81.6702 33.1862 82.2563 31.5674 82.5269 29.9936C82.5719 29.6339 82.617 29.2741 82.617 28.9144L83.0228 29.0493C83.6991 29.2292 83.9696 28.1949 83.2933 28.015H83.2482C83.2933 27.9251 83.3835 27.8352 83.5188 27.7902C83.6089 27.7902 83.6991 27.7452 83.7893 27.7003C84.8262 27.4305 86.9453 28.2399 87.306 28.8694ZM39.6049 15.1096C40.191 13.9404 40.6869 12.6814 41.3632 11.5572C42.3551 9.9384 43.7077 8.54443 45.1505 7.33033C47.9458 4.99205 51.5076 3.23835 54.9792 2.11418C56.8278 1.48465 58.7665 0.990011 60.7052 1.12491C62.7341 1.25981 63.9063 2.51888 65.4392 3.68802C65.6196 3.86789 65.9352 3.73298 66.0704 3.59808C68.3698 1.88935 71.3004 2.83365 73.5998 4.00279C76.4853 5.44172 79.2356 7.46523 81.2645 9.98337C83.2032 12.4116 85.0066 15.2894 85.7731 18.3022C86.1788 19.8761 86.2239 21.5398 85.6829 23.1137C85.1869 24.5076 84.2401 25.5868 83.2031 26.6211C82.8875 26.711 82.5719 26.8459 82.3916 27.1157C82.3014 26.2164 82.1662 25.317 82.2563 24.4627C82.2563 24.4627 82.2563 24.4627 82.2563 24.4177C82.3916 24.1029 82.2563 23.6533 81.8055 23.6533C80.0471 23.6982 78.1535 22.8888 76.4853 22.3942C74.4564 21.8096 72.5177 21.1351 70.6692 20.1459C69.0461 19.2915 67.5132 18.3022 66.2057 16.9982C65.4843 16.2787 64.1768 15.0646 63.9514 13.8955C64.0866 13.8055 64.1768 13.6706 64.1768 13.4908C64.1768 13.0861 63.9965 12.8163 63.5907 12.6364C63.3202 12.5465 63.0046 12.7263 62.9144 12.9961C63.0497 12.3216 62.0127 12.0069 61.8774 12.7263C61.5167 14.7948 59.7133 16.4586 58.1353 17.7177C56.2867 19.2465 54.303 20.5506 52.0486 21.4499C50.6059 22.0345 49.0279 22.5291 47.4048 22.7539C47.1343 22.8439 46.8637 22.8888 46.5932 22.8888C46.1424 22.8888 45.6915 22.7989 45.3308 22.619C45.2406 22.619 45.1956 22.619 45.1505 22.664C44.6545 22.709 44.2037 22.664 43.7979 22.5741C43.7528 22.5741 43.7528 22.5741 43.7077 22.5741C43.6626 22.5741 43.6626 22.5741 43.6175 22.5741C43.2568 22.4392 42.9412 22.3043 42.6256 22.1244C41.9944 22.1244 41.4083 21.8996 40.9124 21.4499C40.3713 21.27 39.8754 20.9553 39.4696 20.5506C39.4696 20.5955 39.4245 20.6855 39.4245 20.7304C39.1991 20.4606 39.0188 20.1009 38.8384 19.7412C38.7031 19.5163 38.613 19.2465 38.4777 19.0217C38.4777 18.9767 38.4326 18.9318 38.4326 18.8868C38.3875 18.4821 38.5228 18.0774 38.613 17.7177C38.8384 16.8183 39.1991 15.919 39.6049 15.1096ZM32.0304 25.2721C30.9934 23.1137 32.7518 21.4049 34.6003 20.5506C35.7726 20.011 37.2153 20.2808 37.8465 21.4499C38.2523 22.2143 38.4326 22.8888 39.2442 23.2486C39.1991 25.0023 39.4696 26.711 39.8754 28.4198C39.9205 28.5996 39.9656 28.7345 40.0106 28.9144C39.65 29.3641 39.2893 29.8137 38.6581 29.7688C37.8014 29.7238 36.7644 29.3191 35.998 28.9594C34.3298 28.2399 32.7969 26.8909 32.0304 25.2721ZM46.4129 42.8541C45.3308 44.7877 43.1216 45.687 41.3181 44.0682C40.6869 43.5286 40.7771 42.6293 40.3263 41.9548C39.8754 41.3252 39.154 41.5051 38.5679 41.8648C37.8014 42.3595 37.2604 42.8991 36.2234 42.8541C35.3217 42.8091 34.5552 42.2695 34.2847 41.4151C33.9691 40.291 34.3298 38.8071 34.961 37.7279C35.2766 37.6379 35.5922 37.548 35.9078 37.4131C36.7644 37.0534 38.7933 35.7943 37.5309 34.7151C36.539 33.8607 35.2315 35.6144 34.6905 36.2889C34.5552 36.4688 34.42 36.6037 34.3298 36.8285C33.1576 37.0084 31.9853 36.7386 30.9934 36.0641C30.3171 35.6144 29.8663 34.9399 29.9114 34.1305C29.9564 33.3661 30.6327 32.4218 31.0385 31.8372C31.4443 31.2527 31.8951 30.6681 32.5264 30.3084C33.383 29.8137 34.2396 30.5332 35.0061 30.803C35.502 30.9829 35.7726 30.4433 35.6373 30.0835C36.4939 30.4882 37.5309 30.803 38.4326 30.9379C38.9737 30.9829 39.4245 30.9379 39.8754 30.6681C40.0557 30.5782 40.191 30.3983 40.3263 30.2634C41.6337 34.0856 44.0233 37.593 47.3597 39.8413C47.4048 40.7856 46.7736 42.1796 46.4129 42.8541ZM49.9296 39.9312C49.3435 39.6614 48.8475 39.3916 48.3065 39.0769C48.1262 38.2225 47.5851 37.548 46.5481 37.3681C46.4129 37.3232 46.2776 37.3681 46.1874 37.4581C43.843 35.2547 42.1748 32.3319 41.228 29.2741C41.6337 28.9594 41.3632 28.2848 40.9575 28.2848C40.5066 26.6211 40.2812 24.9123 40.3263 23.2036C40.3263 23.0687 40.3263 22.8888 40.3263 22.7539C40.8673 22.9788 41.4083 23.1586 41.9043 23.2935C42.4002 23.4284 42.8962 23.5633 43.4372 23.6533C45.421 24.2378 47.5851 23.9231 49.614 23.4284C51.1469 23.0687 52.6799 22.4841 54.0775 21.8096C55.5654 21.0902 56.7827 20.1009 58.1353 19.2016C60.1191 17.8076 62.5086 15.6042 62.9595 13.0861C62.6439 14.6149 63.7259 15.874 64.6728 16.9083C65.9803 18.3922 67.423 19.5613 69.1363 20.5506C71.075 21.6747 73.1489 22.4841 75.268 23.1586C76.3951 23.5184 77.5674 23.8331 78.7396 24.1929C79.2356 24.3278 79.6864 24.4627 80.1824 24.5976C80.2275 24.6425 80.2726 24.6425 80.3176 24.6425L81.2194 24.9123C81.1743 25.9915 81.3546 27.0258 81.4899 28.105C81.6251 29.409 81.3546 30.6231 80.9038 31.8372C80.2275 33.7708 78.8749 35.2547 77.2969 36.4238C77.2067 36.4238 77.1616 36.4688 77.0714 36.5138C76.9813 36.6037 76.846 36.6936 76.7558 36.7836C76.6206 36.8735 76.4853 36.9634 76.3501 37.0534C72.653 39.3916 68.1895 40.0661 63.9965 40.8755C59.2624 41.685 54.348 41.9098 49.9296 39.9312ZM59.7584 42.4494C59.9838 42.4494 60.2092 42.4044 60.4347 42.4044C61.2913 42.3145 62.193 42.1796 63.0497 42.0447C62.8242 42.8091 62.5537 43.6185 62.0578 44.2031C61.3364 45.0575 59.2624 43.8883 59.7133 42.8541C59.8035 42.7192 59.8035 42.5843 59.7584 42.4494ZM48.5319 66.5066C47.9909 66.1918 47.9007 65.7871 47.9458 65.1576C47.9458 64.9777 47.9909 64.8428 47.9909 64.663C47.9909 64.663 47.9909 64.618 48.036 64.618C47.9909 64.573 47.9909 64.5281 47.9458 64.4381C47.9458 64.3932 47.9458 64.3482 47.9458 64.3032C48.036 63.6287 48.036 62.9542 48.0811 62.2797C48.2614 62.4146 48.4418 62.5046 48.6221 62.5945C48.9828 62.8193 49.3435 62.9992 49.7042 63.224C49.5238 64.0784 49.614 64.9328 49.5238 65.8321C49.4787 66.2368 49.4787 66.6415 49.5689 67.0013C49.2082 66.8214 48.8475 66.6865 48.5319 66.5066ZM50.8313 67.316C50.8313 67.1811 50.8313 67.0462 50.6961 66.9113C50.4255 66.5965 50.6059 65.8771 50.6059 65.4724C50.651 64.8878 50.6059 64.3032 50.651 63.7187C51.1018 63.9435 51.5527 64.1234 52.0036 64.3032H52.0486C51.9585 64.4381 51.9585 64.618 52.0486 64.7979C52.229 65.0677 52.1388 65.8771 52.1388 66.1918C52.1388 66.6865 52.1388 67.1361 52.1839 67.6308C51.733 67.5858 51.2822 67.4509 50.8313 67.316ZM53.4463 68.0355C53.4012 67.9456 53.4012 67.9006 53.3111 67.8556C53.1758 67.2261 53.266 66.5516 53.2209 65.9221C53.2209 65.5623 53.266 65.1126 53.1758 64.7079C54.2128 64.9777 55.2948 65.0677 56.3318 65.2925C56.2867 65.8771 56.422 66.4617 56.5573 67.0462C56.6474 67.5858 56.6023 68.2154 56.6474 68.7999C55.5654 68.5301 54.4833 68.3053 53.4463 68.0355ZM60.4797 69.3395C59.578 69.2496 58.6312 69.1147 57.7295 68.9798C57.6844 68.3952 57.7295 67.7207 57.6844 67.1362C57.5942 66.5965 57.4139 66.012 57.4139 65.4724C58.7214 65.6972 60.074 65.7871 61.3815 65.8771C61.5167 66.3717 61.4266 66.9563 61.5167 67.4959C61.6069 68.1704 61.6069 68.7999 61.6971 69.4744C61.2913 69.4295 60.8855 69.3845 60.4797 69.3395ZM62.9144 69.4744C62.9144 69.2946 62.8242 69.1597 62.7341 69.0697C62.6439 68.3503 62.5988 67.6308 62.5988 66.9563C62.5988 66.5965 62.5988 66.1918 62.5086 65.8321C63.8612 65.8321 65.1687 65.7422 66.5664 65.5173C66.8369 65.4724 67.1074 65.4274 67.3779 65.3824C67.4681 65.8321 67.423 66.3717 67.4681 66.7314C67.6034 67.4509 67.8288 68.2154 67.8288 68.9348C67.8288 68.9798 67.8288 69.0697 67.8739 69.1147C66.2057 69.3845 64.5375 69.4744 62.9144 69.4744ZM71.3906 68.2154C70.6241 68.4852 69.8126 68.71 69.0461 68.8899C69.0461 68.755 68.9559 68.62 68.8658 68.5301C68.7756 67.7657 68.5502 67.0462 68.46 66.2818C68.4149 65.967 68.4149 65.6073 68.3247 65.2476C69.4068 65.0677 70.4889 64.8428 71.5709 64.4831C71.616 64.4831 71.7062 64.4381 71.7513 64.4381C71.7964 64.5281 71.8414 64.618 71.9316 64.663C72.2923 65.6972 72.4276 66.7764 72.653 67.8107C72.2472 67.9456 71.7964 68.0805 71.3906 68.2154ZM76.0345 65.7871C75.4033 66.4616 74.5466 66.9563 73.6449 67.361C73.3744 66.2368 73.2391 65.0677 72.8333 63.9885C73.7351 63.6287 74.5917 63.224 75.4033 62.7294C75.4033 62.7744 75.4033 62.7744 75.4483 62.8193C75.809 63.7187 75.9443 64.7079 76.2148 65.6073C76.1246 65.6522 76.0795 65.7422 76.0345 65.7871ZM76.9813 61.5153C77.2067 62.3247 77.2518 63.1791 77.2067 63.9885C77.2067 64.2133 77.1165 64.3932 76.9813 64.5281C76.846 63.9435 76.7558 63.4039 76.5304 62.8193C76.5304 62.7294 76.5304 62.6395 76.4402 62.5495C76.3951 62.5046 76.3951 62.4596 76.3501 62.4146C76.305 62.3247 76.2148 62.2348 76.1246 62.1898C76.4402 61.965 76.7108 61.7401 76.9813 61.5153ZM71.3004 48.0702C72.112 49.8689 72.9235 51.6676 73.7351 53.5112C73.5998 53.5562 73.4646 53.6461 73.4195 53.826C73.1489 54.5904 72.3825 55.13 71.7964 55.6247C71.0299 56.2542 70.2634 56.7488 69.3617 57.1535C67.5132 58.0079 65.3941 58.3227 63.3653 58.2327C61.0659 58.1428 58.7214 58.0978 56.422 57.828C55.3399 57.6931 54.3029 57.3784 53.266 57.1086C52.3192 56.8837 51.3723 56.6139 50.6059 56.0294C50.0198 55.6247 49.4787 56.569 50.0649 56.9287C50.8764 57.5133 51.8232 57.7831 52.7249 58.0529C53.7619 58.3676 54.8891 58.6374 55.9711 58.8173C58.5861 59.222 61.2913 59.267 63.9063 59.3119C66.1606 59.3569 68.4149 58.8173 70.4438 57.828C71.3004 57.4233 72.0218 56.8388 72.7432 56.2092C73.3293 55.7596 73.8703 55.22 74.231 54.5904C74.3663 54.9502 74.5466 55.2649 74.6819 55.6247C75.3131 57.1535 76.2599 58.7274 76.6206 60.3462C76.5304 60.3911 76.4853 60.4811 76.4402 60.4811C75.9443 60.8858 75.5385 61.3354 74.9975 61.6952C73.8703 62.4146 72.5628 62.9093 71.3455 63.3589C70.2634 63.7636 69.1363 63.9435 67.964 64.1683C67.964 64.1234 67.919 64.1234 67.919 64.0784C67.6034 63.7187 67.1525 63.9435 67.0172 64.3032C65.6196 64.573 64.267 64.7529 62.8242 64.7529C61.3364 64.7079 59.8485 64.663 58.4058 64.4831C58.0902 64.4381 57.7746 64.3932 57.459 64.3032C57.3237 64.1683 57.0983 64.1234 56.8729 64.2133C55.9711 64.0334 55.1145 63.8536 54.2128 63.7187C52.7249 63.4938 51.4174 62.9542 50.155 62.1898C49.7943 61.965 48.6672 61.5153 48.2614 61.0656C48.2614 61.0207 48.2614 60.9757 48.3065 60.9307C48.3516 60.8858 48.3967 60.8408 48.4418 60.7958C48.5319 60.3911 48.6672 60.0314 48.8475 59.6717C48.9377 59.3119 49.0279 58.9072 49.118 58.5475C49.1631 58.4576 49.2082 58.3676 49.2082 58.2777C49.614 57.1086 49.9296 55.8945 50.2452 54.6804C50.3805 54.1408 50.5608 53.5562 50.6961 53.0166C51.8683 54.3656 54.2128 54.9052 55.8359 55.13C58.1804 55.4448 60.5699 55.4898 62.9144 55.3998C66.1606 55.3099 71.075 54.9052 72.653 51.4877C72.9235 50.8582 72.0218 50.3186 71.7513 50.9481C70.3536 53.9609 66.0253 54.2307 63.1398 54.3206C61.2462 54.4106 59.3977 54.3206 57.5041 54.2307C56.1064 54.1408 54.7538 53.9609 53.4012 53.4213C52.7249 53.1515 51.7781 52.8367 51.3724 52.1622C51.2822 52.0273 51.1469 51.9374 51.0117 51.9374C51.2822 51.083 51.5527 50.2286 51.8683 49.4192C52.1388 48.6998 52.4544 48.0253 52.6348 47.3058C52.6798 47.1709 52.7249 46.991 52.77 46.8561C52.8602 46.6313 52.9053 46.4065 52.9955 46.1816C53.3111 45.2373 53.807 44.338 54.1226 43.3937C54.1226 43.3487 54.1226 43.3038 54.1677 43.3038C54.2579 43.2138 54.348 43.1239 54.4833 43.1239C54.844 43.034 54.9342 42.6742 54.844 42.4044C56.1515 42.5843 57.5041 42.6293 58.8566 42.5843C58.3156 44.2481 59.9838 45.732 61.652 45.687C63.3653 45.642 63.9514 43.2138 64.3121 41.9098C65.2138 41.7299 66.0704 41.5501 66.9721 41.3702C67.2878 41.3252 67.6484 41.2353 67.964 41.1454C67.964 41.2353 68.0091 41.3252 68.0542 41.3702C69.5421 43.3487 70.2634 45.8219 71.3004 48.0702Z" fill="black"/>
<path d="M54.5724 26.5753C54.5724 26.5304 54.6175 26.4854 54.6175 26.4404C54.7076 26.2156 54.7978 26.0357 54.8429 25.8109C55.0232 25.1364 54.0313 24.8666 53.8059 25.5411C53.7157 25.8559 53.5354 26.1706 53.4903 26.5304C53.4001 27.025 53.6256 27.4297 54.0764 27.5646C54.6625 27.6995 54.9781 26.8901 54.5724 26.5753Z" fill="black"/>
<path d="M72.1559 28.2391C72.1559 28.0143 72.1109 27.7895 72.201 27.6096C72.3814 26.9351 71.3444 26.6653 71.164 27.3398C71.119 27.5646 71.0739 27.7895 71.0739 28.0593C71.0739 28.2841 71.119 28.5089 71.0288 28.6888C70.8484 29.3633 71.8854 29.6331 72.0658 28.9586C72.1559 28.7338 72.1559 28.5089 72.1559 28.2391Z" fill="black"/>
<path d="M75.2673 31.5217C75.4026 30.8472 74.3656 30.5325 74.2303 31.2519C73.8245 33.3204 71.8858 34.3546 70.0373 34.9392C67.9633 35.6137 65.7541 35.8385 63.5449 35.7936C60.975 35.7936 58.36 35.3439 55.9704 34.3996C54.708 33.905 53.671 33.1405 52.589 32.3761C51.9127 31.8815 50.8306 31.117 50.515 30.2177C50.5601 30.1278 50.6052 30.0378 50.6052 29.9479C50.6052 29.5432 50.4248 29.2734 50.0191 29.0935C49.7035 28.9586 49.3428 29.2734 49.3428 29.5882C49.3428 30.7573 50.1994 31.6566 50.9659 32.4211C51.9127 33.3204 53.13 34.1298 54.3022 34.7593C56.9623 36.2433 60.2085 36.7829 63.2293 36.8278C65.7541 36.8728 68.324 36.603 70.7136 35.7936C72.7425 35.164 74.8164 33.815 75.2673 31.5217Z" fill="black"/>
<path d="M107.955 72.3516C107.414 67.8999 103.627 64.1227 99.6592 62.4589C97.3598 61.5146 94.9702 60.93 92.4454 61.0649C91.3633 61.1099 90.3264 61.4247 89.3345 61.7844C88.6582 62.0092 88.027 62.4139 87.6212 62.9985C86.0883 63.8529 85.412 65.5166 84.9611 67.2254C84.3299 69.5187 83.9241 71.767 84.2848 74.1503C84.8709 77.8825 87.5761 80.8503 90.9125 82.4691C94.0234 83.998 98.2164 84.4477 101.372 82.7389C104.979 80.7154 108.496 76.7583 107.955 72.3516ZM87.0351 64.9321C87.3056 64.5723 87.6212 64.2576 87.9819 64.0327C88.1171 64.0327 88.2524 63.9428 88.3426 63.8079C88.4778 63.7629 88.568 63.718 88.7033 63.673C89.0189 63.5831 89.109 63.2683 89.0639 62.9985C89.2443 62.9086 89.4697 62.8186 89.6501 62.7287C89.6952 62.8636 89.8304 62.9535 90.0108 62.9985C91.2281 63.2233 90.7321 65.4267 90.3714 66.1911C89.9657 66.9556 89.0189 67.0006 88.2975 66.9106C87.9368 66.8657 87.531 66.7757 87.2605 66.5509C87.1252 66.416 86.99 66.2811 86.8547 66.1012L86.7646 65.9663C86.6744 65.7415 86.6744 65.7415 86.8096 65.9663C87.4408 65.9663 87.531 65.067 87.0351 64.9321ZM90.1009 79.996C89.7853 79.7711 89.4697 79.951 89.1992 80.1758C87.9368 79.1866 86.8547 77.9275 86.1333 76.4886C86.2235 76.5785 86.3137 76.6684 86.449 76.7134L86.7195 76.8033C87.3056 76.9832 87.6212 76.1738 87.2154 75.859C87.7565 74.0154 90.9125 74.4201 91.9945 75.4993C92.8963 76.3986 92.761 78.3772 91.9044 79.2315C91.6339 79.5463 90.4616 80.2658 90.1009 79.996ZM101.778 80.5805C100.786 79.4564 103.762 78.0624 104.664 78.2423C104.799 78.2872 104.889 78.2423 104.979 78.1973C104.123 79.2765 103.041 80.2658 101.868 81.0752C101.959 80.8953 101.959 80.7154 101.778 80.5805ZM105.881 76.9832C105.701 77.253 105.52 77.5228 105.34 77.7926C105.385 77.5678 105.295 77.2979 104.979 77.208C103.041 76.7583 99.1181 79.1866 101.012 81.3C101.102 81.3899 101.192 81.4349 101.282 81.4799C101.057 81.6148 100.786 81.7946 100.561 81.9295C98.8927 82.8289 96.7286 82.8738 94.8801 82.604C93.3471 82.3792 91.8593 81.8846 90.5067 81.0752C90.7772 80.9852 91.0477 80.8953 91.3633 80.8054C92.1749 80.4906 92.8963 79.951 93.257 79.1416C93.8882 77.7476 93.6627 75.7691 92.5807 74.6449C90.7321 72.7563 86.3137 73.161 85.9981 76.2187C85.9981 76.2637 85.9981 76.3087 85.9981 76.3536C85.9981 76.3536 85.9981 76.3536 85.9981 76.3087C85.0062 74.1952 84.9611 71.767 85.412 69.4737C85.5923 68.6643 85.7727 67.72 86.0432 66.8207C86.0883 66.9106 86.1334 66.9556 86.1784 67.0006C86.99 68.0348 88.9287 68.2596 90.1009 67.72C91.3633 67.1355 91.724 65.8764 91.8142 64.6173C91.8593 63.8079 91.6789 62.8636 91.0928 62.324H91.1379C92.4003 62.0092 93.798 62.0992 95.0604 62.2341C97.45 62.5039 99.9297 63.628 101.913 64.9321C103.852 66.2361 105.385 68.3046 106.332 70.418C107.324 72.5764 107.053 74.9597 105.881 76.9832Z" fill="black"/>
<path d="M103.672 69.6985C103.086 68.5743 102.049 67.8549 100.786 67.72C99.7494 67.5851 98.532 67.8549 98.1263 68.8891C98.1263 68.9341 98.1263 68.9341 98.0812 68.979C97.495 69.024 96.9991 69.4737 96.7286 70.1482C96.3228 71.1374 96.2326 72.2166 96.6835 73.2059C97.5401 75.0496 99.9748 76.1737 101.913 75.7241C104.574 75.1395 104.619 71.5871 103.672 69.6985ZM101.553 74.7348C100.29 75.0496 98.8476 74.1952 98.0361 73.2958C97.5852 72.7562 97.45 72.2166 97.4951 71.5421C97.5852 70.9126 97.7656 69.8334 98.6222 70.1482C99.1632 70.373 99.4788 69.6535 99.1181 69.2938C99.1181 69.2488 99.1632 69.2488 99.1632 69.2039C99.3887 68.5743 100.696 68.7542 101.147 68.8441C102.004 69.024 102.635 69.9683 102.95 70.7327C103.492 72.1267 103.221 74.3301 101.553 74.7348Z" fill="black"/>
</g>
</g>
<defs>
<filter id="filter0_d" x="15.0498" y="0.0594482" width="96.9606" height="96.1062" filterUnits="userSpaceOnUse" color-interpolation-filters="sRGB">
<feFlood flood-opacity="0" result="BackgroundImageFix"/>
<feColorMatrix in="SourceAlpha" type="matrix" values="0 0 0 0 0 0 0 0 0 0 0 0 0 0 0 0 0 0 127 0"/>
<feOffset dy="4"/>
<feGaussianBlur stdDeviation="2"/>
<feColorMatrix type="matrix" values="0 0 0 0 0 0 0 0 0 0 0 0 0 0 0 0 0 0 0.1 0"/>
<feBlend mode="normal" in2="BackgroundImageFix" result="effect1_dropShadow"/>
<feBlend mode="normal" in="SourceGraphic" in2="effect1_dropShadow" result="shape"/>
</filter>
<clipPath id="clip0">
<rect width="89" height="88" fill="white" transform="translate(19)"/>
</clipPath>
</defs>
</svg>
