<svg id="_001-play" data-name="001-play" xmlns="http://www.w3.org/2000/svg" width="32" height="31.861" viewBox="0 0 32 31.861">
  <g id="Group_43861" data-name="Group 43861" transform="translate(17.778 5.925)">
    <path id="Path_71124" data-name="Path 71124" d="M200.952,73.462l-9.047-4.416a.52.52,0,0,0-.759.461V78.34a.52.52,0,0,0,.759.461l9.047-4.416A.52.52,0,0,0,200.952,73.462Z" transform="translate(-190.489 -68.329)" fill="#ffc3c6"/>
    <path id="Path_71125" data-name="Path 71125" d="M185.5,73.348a1.185,1.185,0,0,1-.615-.174,1.17,1.17,0,0,1-.566-1.006V63.336a1.178,1.178,0,0,1,1.719-1.046l9.033,4.409.014.007a1.178,1.178,0,0,1,0,2.091l-9.061,4.423A1.138,1.138,0,0,1,185.5,73.348Zm-.062-1.305,0,0Zm.2-8.485v8.388l8.592-4.194Zm-.188-.092h0Z" transform="translate(-184.319 -62.157)" fill="#ffc3c6"/>
  </g>
  <path id="Path_71126" data-name="Path 71126" d="M61.44,72.3V89.844a1.309,1.309,0,0,0,1.912,1.163L86.144,79.881a1.309,1.309,0,0,0,0-2.325L63.352,66.43a1.309,1.309,0,0,0-1.912,1.163" transform="translate(-55.509 -59.954)" fill="#fff"/>
  <path id="Path_71127" data-name="Path 71127" d="M56.583,85.643a1.975,1.975,0,0,1-1.97-1.971V66.127a.658.658,0,0,1,1.316,0V83.672a.651.651,0,0,0,.951.579L79.687,73.118a.652.652,0,0,0-.014-1.15L56.894,60.85a.656.656,0,0,0-.652.015.642.642,0,0,0-.313.557.658.658,0,0,1-1.316,0,1.967,1.967,0,0,1,2.872-1.747L80.264,70.792a1.967,1.967,0,0,1,.014,3.5L57.472,85.426A1.928,1.928,0,0,1,56.583,85.643Z" transform="translate(-49.341 -53.782)"/>
  <g id="Group_43862" data-name="Group 43862" transform="translate(10.534 13.168)">
    <path id="Path_71128" data-name="Path 71128" d="M125.858,148.555l-9.047-4.416a.52.52,0,0,0-.759.461v8.832a.52.52,0,0,0,.759.461l9.047-4.416A.52.52,0,0,0,125.858,148.555Z" transform="translate(-115.395 -143.422)" fill="red"/>
    <path id="Path_71129" data-name="Path 71129" d="M110.407,148.441a1.185,1.185,0,0,1-.615-.174,1.17,1.17,0,0,1-.566-1.006v-8.832a1.178,1.178,0,0,1,1.719-1.046l9.033,4.409.014.007a1.178,1.178,0,0,1,0,2.091l-9.061,4.423A1.137,1.137,0,0,1,110.407,148.441Zm-.062-1.305,0,0Zm.2-8.485v8.388l8.592-4.194Zm-.188-.092h0Z" transform="translate(-109.226 -137.25)" fill="red"/>
  </g>
  <g id="Group_43863" data-name="Group 43863" transform="translate(0 0)">
    <path id="Path_71130" data-name="Path 71130" d="M26.2,20.748a.656.656,0,0,1-.465-.193L24.087,18.91a.658.658,0,0,1,.931-.931l1.645,1.645a.658.658,0,0,1-.465,1.123Z" transform="translate(-21.591 -16.141)"/>
    <path id="Path_71131" data-name="Path 71131" d="M75.751,4.668a.658.658,0,0,1-.658-.658V1.377a.658.658,0,1,1,1.316,0V4.01A.658.658,0,0,1,75.751,4.668Z" transform="translate(-67.853 -0.719)"/>
    <path id="Path_71132" data-name="Path 71132" d="M3.291,63.475H.658a.658.658,0,0,1,0-1.316H3.291a.658.658,0,1,1,0,1.316Z" transform="translate(0 -56.236)"/>
  </g>
</svg>
