<svg xmlns="http://www.w3.org/2000/svg" width="32" height="32" viewBox="0 0 32 32">
  <g id="_002-question" data-name="002-question" opacity="0.8">
    <path id="Path_71133" data-name="Path 71133" d="M35.3,13.925a15.36,15.36,0,1,0,1.508,2.945" transform="translate(-6.383 -6.384)" fill="#fff"/>
    <path id="Path_71134" data-name="Path 71134" d="M16,32A16,16,0,1,1,29.385,7.233a.561.561,0,0,1-.938.616A14.8,14.8,0,1,0,29.9,10.686a.561.561,0,0,1,1.048-.4A16.01,16.01,0,0,1,16,32Z" transform="translate(0 -0.001)"/>
    <g id="Group_43864" data-name="Group 43864" transform="translate(6.045 6.045)">
      <ellipse id="Ellipse_202" data-name="Ellipse 202" cx="9.402" cy="9.402" rx="9.402" ry="9.402" transform="translate(0.553 0.553)" fill="red"/>
      <path id="Path_71135" data-name="Path 71135" d="M85.168,95.125a9.955,9.955,0,1,1,9.955-9.955A9.967,9.967,0,0,1,85.168,95.125Zm0-18.8a8.849,8.849,0,1,0,8.849,8.849A8.859,8.859,0,0,0,85.168,76.32Z" transform="translate(-75.213 -75.214)" fill="red"/>
    </g>
    <path id="Path_71136" data-name="Path 71136" d="M155.929,130.073a.654.654,0,0,1-.217-.5,3.328,3.328,0,0,1,.318-1.424,3.823,3.823,0,0,1,.7-1.011,11.081,11.081,0,0,1,1.059-.912,6.712,6.712,0,0,0,1.032-.921,1.389,1.389,0,0,0,.343-.9q.039-1.973-2.551-2.024a5.011,5.011,0,0,0-1.243.13,3.877,3.877,0,0,0-1.086.422.8.8,0,0,1-.456.137.743.743,0,0,1-.71-.739.794.794,0,0,1,.466-.679,5.36,5.36,0,0,1,1.516-.641,6.691,6.691,0,0,1,1.688-.166,4.487,4.487,0,0,1,2.943.981,3.077,3.077,0,0,1,1.065,2.52,2.865,2.865,0,0,1-.277,1.236,3.309,3.309,0,0,1-.633.893,10.081,10.081,0,0,1-.976.823,7.011,7.011,0,0,0-1.189,1.092,1.92,1.92,0,0,0-.413,1.214.643.643,0,0,1-.245.493.822.822,0,0,1-.566.2A.81.81,0,0,1,155.929,130.073Zm-.282,3.328a1.05,1.05,0,0,1-.3-.776,1.083,1.083,0,0,1,1.089-1.047,1.049,1.049,0,0,1,.764.332,1.029,1.029,0,0,1,.3.757,1.084,1.084,0,0,1-1.108,1.066A1.028,1.028,0,0,1,155.647,133.4Z" transform="translate(-140.762 -111.101)" fill="#fff"/>
    <path id="Path_71137" data-name="Path 71137" d="M34.805,48.08a.553.553,0,0,1-.553-.553A13.289,13.289,0,0,1,47.526,34.253a.553.553,0,0,1,0,1.106A12.181,12.181,0,0,0,35.358,47.527.553.553,0,0,1,34.805,48.08Z" transform="translate(-31.477 -31.478)" fill="#ffc3c6"/>
    <path id="Path_71138" data-name="Path 71138" d="M213.215,383.519h-7.743a.553.553,0,0,1,0-1.106h7.743a.553.553,0,0,1,0,1.106Z" transform="translate(-188.387 -351.529)"/>
  </g>
</svg>
