<svg xmlns="http://www.w3.org/2000/svg" width="32" height="22.417" viewBox="0 0 32 22.417">
  <g id="_003-binoculars" data-name="003-binoculars" opacity="0.8">
    <rect id="Rectangle_14787" data-name="Rectangle 14787" width="10.997" height="2.999" transform="translate(10.502 7.917)" fill="#fff"/>
    <path id="Path_71139" data-name="Path 71139" d="M148.029,170.682h-11a.5.5,0,0,1-.5-.5v-3a.5.5,0,0,1,.5-.5h11a.5.5,0,0,1,.5.5v3A.5.5,0,0,1,148.029,170.682Zm-10.5-1h10v-2h-10Z" transform="translate(-126.531 -159.266)"/>
    <path id="Path_71140" data-name="Path 71140" d="M154.357,114.838h-11v-3l3.562-1.3a5.667,5.667,0,0,1,3.873,0l3.562,1.3v3Z" transform="translate(-132.858 -106.924)" fill="#ffc3c6"/>
    <path id="Path_71141" data-name="Path 71141" d="M148.029,109.014h-11a.5.5,0,0,1-.5-.5v-3a.5.5,0,0,1,.329-.47l3.562-1.3a6.168,6.168,0,0,1,4.214,0l3.562,1.3a.5.5,0,0,1,.329.47v3A.5.5,0,0,1,148.029,109.014Zm-10.5-1h10v-2.149L144.3,104.69a5.177,5.177,0,0,0-3.531,0l-3.233,1.175Z" transform="translate(-126.531 -100.6)"/>
    <path id="Path_71142" data-name="Path 71142" d="M81.091,79.577h-6l.667-4.665a2.666,2.666,0,0,1,2.666-2.666h0a2.666,2.666,0,0,1,2.666,2.666Z" transform="translate(-69.593 -71.746)" fill="#fff"/>
    <path id="Path_71143" data-name="Path 71143" d="M74.763,73.754h-6a.5.5,0,0,1-.495-.571l.662-4.631a3.166,3.166,0,0,1,6.331.037v4.665A.5.5,0,0,1,74.763,73.754Zm-5.422-1h4.922V68.589a2.166,2.166,0,0,0-4.332,0,.48.48,0,0,1-.005.071Z" transform="translate(-63.265 -65.424)"/>
    <path id="Path_71144" data-name="Path 71144" d="M31.477,143.958h-11l2.062-7.221a4.469,4.469,0,0,1,4.467-4.47h0a4.469,4.469,0,0,1,4.467,4.47v7.221Z" transform="translate(-18.98 -127.373)" fill="#fff"/>
    <path id="Path_71145" data-name="Path 71145" d="M25.149,138.127h-11a.5.5,0,0,1-.481-.637l2.043-7.155a4.967,4.967,0,0,1,9.934.072v7.22A.5.5,0,0,1,25.149,138.127Zm-10.334-1h9.834v-6.72a3.968,3.968,0,1,0-7.935,0,.5.5,0,0,1-.019.137Z" transform="translate(-12.653 -121.042)"/>
    <ellipse id="Ellipse_203" data-name="Ellipse 203" cx="5.998" cy="5.998" rx="5.998" ry="5.998" transform="translate(0.5 9.92)" fill="#fff"/>
    <path id="Path_71146" data-name="Path 71146" d="M6.5,206.986a6.5,6.5,0,1,1,6.5-6.5A6.505,6.505,0,0,1,6.5,206.986Zm0-12a5.5,5.5,0,1,0,5.5,5.5A5.5,5.5,0,0,0,6.5,194.99Z" transform="translate(0 -184.57)"/>
    <ellipse id="Ellipse_204" data-name="Ellipse 204" cx="4.499" cy="4.499" rx="4.499" ry="4.499" transform="translate(1.999 11.419)" fill="red"/>
    <path id="Path_71147" data-name="Path 71147" d="M25.478,224.466a5,5,0,1,1,5-5A5,5,0,0,1,25.478,224.466Zm0-9a4,4,0,1,0,4,4A4,4,0,0,0,25.478,215.469Z" transform="translate(-18.98 -203.549)"/>
    <g id="Group_43865" data-name="Group 43865" transform="translate(3.189 0.5)">
      <path id="Path_71148" data-name="Path 71148" d="M44.056,241.888a.5.5,0,0,1-.468-.676,3.492,3.492,0,0,1,1.711-1.9.5.5,0,1,1,.448.893,2.5,2.5,0,0,0-1.224,1.359A.5.5,0,0,1,44.056,241.888Z" transform="translate(-43.556 -227.029)" fill="#fff"/>
      <path id="Path_71149" data-name="Path 71149" d="M279.893,79.577h6l-.667-4.665a2.666,2.666,0,0,0-2.666-2.666h0a2.666,2.666,0,0,0-2.666,2.666Z" transform="translate(-262.589 -72.246)" fill="#fff"/>
    </g>
    <path id="Path_71150" data-name="Path 71150" d="M279.564,73.754h-6a.5.5,0,0,1-.5-.5V68.59a3.166,3.166,0,0,1,6.331-.037l.662,4.631a.5.5,0,0,1-.495.571Zm-5.5-1h4.922L278.4,68.66a.48.48,0,0,1-.005-.071,2.166,2.166,0,0,0-4.332,0v4.165Z" transform="translate(-253.064 -65.424)"/>
    <path id="Path_71151" data-name="Path 71151" d="M266.24,143.958h11l-2.062-7.221a4.469,4.469,0,0,0-4.467-4.47h0a4.469,4.469,0,0,0-4.467,4.47v7.221Z" transform="translate(-246.736 -127.373)" fill="#fff"/>
    <path id="Path_71152" data-name="Path 71152" d="M270.909,138.127h-11a.5.5,0,0,1-.5-.5v-7.22a4.967,4.967,0,0,1,9.934-.072l2.043,7.155a.5.5,0,0,1-.481.637Zm-10.5-1h9.834l-1.88-6.583a.5.5,0,0,1-.019-.137,3.968,3.968,0,1,0-7.935,0v6.72Z" transform="translate(-240.409 -121.042)"/>
    <ellipse id="Ellipse_205" data-name="Ellipse 205" cx="5.998" cy="5.998" rx="5.998" ry="5.998" transform="translate(19.504 9.92)" fill="#fff"/>
    <path id="Path_71153" data-name="Path 71153" d="M265.911,206.985a6.5,6.5,0,1,1,6.5-6.5A6.505,6.505,0,0,1,265.911,206.985Zm0-12a5.5,5.5,0,1,0,5.5,5.5A5.5,5.5,0,0,0,265.911,194.989Z" transform="translate(-240.409 -184.569)"/>
    <ellipse id="Ellipse_206" data-name="Ellipse 206" cx="4.499" cy="4.499" rx="4.499" ry="4.499" transform="translate(21.003 11.419)" fill="red"/>
    <path id="Path_71154" data-name="Path 71154" d="M284.891,224.466a5,5,0,1,1,5-5A5,5,0,0,1,284.891,224.466Zm0-9a4,4,0,1,0,4,4A4,4,0,0,0,284.891,215.469Z" transform="translate(-259.389 -203.549)"/>
    <path id="Path_71155" data-name="Path 71155" d="M303.47,241.888a.5.5,0,0,1-.468-.676,3.492,3.492,0,0,1,1.711-1.9.5.5,0,1,1,.448.893,2.5,2.5,0,0,0-1.224,1.359A.5.5,0,0,1,303.47,241.888Z" transform="translate(-280.779 -226.525)" fill="#fff"/>
  </g>
</svg>
