<svg xmlns="http://www.w3.org/2000/svg" width="18.001" height="15.821" viewBox="0 0 18.001 15.821">
  <path id="_003-portfolio" data-name="003-portfolio" d="M17.477,2.11H12.692V1.582A1.584,1.584,0,0,0,11.11,0H6.891A1.584,1.584,0,0,0,5.309,1.582V2.11H.527A.529.529,0,0,0,0,2.637v11.6a1.584,1.584,0,0,0,1.582,1.582H16.419A1.584,1.584,0,0,0,18,14.239V2.646A.512.512,0,0,0,17.477,2.11ZM6.364,1.582a.528.528,0,0,1,.527-.527H11.11a.528.528,0,0,1,.527.527V2.11H6.364ZM16.742,3.164,15.1,8.077a.526.526,0,0,1-.5.361H11.638V7.911a.527.527,0,0,0-.527-.527H6.891a.527.527,0,0,0-.527.527v.527H3.4a.526.526,0,0,1-.5-.361L1.259,3.164ZM10.583,8.438V9.493H7.419V8.438Zm6.364,5.8a.528.528,0,0,1-.527.527H1.582a.528.528,0,0,1-.527-.527V5.887L1.9,8.411A1.58,1.58,0,0,0,3.4,9.493H6.364v.527a.527.527,0,0,0,.527.527H11.11a.527.527,0,0,0,.527-.527V9.493H14.6a1.58,1.58,0,0,0,1.5-1.082l.841-2.524Zm0,0" opacity="0.8"/>
</svg>
