<svg id="_007-scholarship-1" data-name="007-scholarship-1" xmlns="http://www.w3.org/2000/svg" width="48" height="46.452" viewBox="0 0 48 46.452">
  <g id="Group_43815" data-name="Group 43815" transform="translate(15.441 13.893)">
    <path id="Path_71090" data-name="Path 71090" d="M43,41.787V45.65a2.253,2.253,0,0,0,1.426-1.733A1.82,1.82,0,0,0,43,41.787Z" transform="translate(-25.947 -24.898)" fill="#ffedc3"/>
    <path id="Path_71091" data-name="Path 71091" d="M39.743,36.334a1.233,1.233,0,0,0,.338,1.216,4.593,4.593,0,0,0,.631.4V35.122A1.623,1.623,0,0,0,39.743,36.334Z" transform="translate(-25.204 -23.399)" fill="#ffedc3"/>
    <path id="Path_71092" data-name="Path 71092" d="M39.078,28A10.078,10.078,0,1,0,49.155,38.078,10.078,10.078,0,0,0,39.078,28Zm3.734,13.075a3.771,3.771,0,0,1-2.955,3.092v.888a.775.775,0,0,1-1.55,0v-.828a4.625,4.625,0,0,1-2.518-.882.775.775,0,1,1,.849-1.3,3.152,3.152,0,0,0,1.669.63v-4.6a7.441,7.441,0,0,1-1.588-.908,2.765,2.765,0,0,1-.9-2.724A3.133,3.133,0,0,1,38.306,31.9v-.8a.775.775,0,0,1,1.55,0v.736a3.968,3.968,0,0,1,1.979.885.775.775,0,1,1-1.046,1.144,2.4,2.4,0,0,0-.933-.445v3.617c.226.085.453.168.675.246a3.313,3.313,0,0,1,2.28,3.791Z" transform="translate(-22.798 -21.798)" fill="#ffedc3"/>
    <path id="Path_71093" data-name="Path 71093" d="M37.279,20A16.279,16.279,0,1,0,53.559,36.279,16.279,16.279,0,0,0,37.279,20Zm0,27.908A11.628,11.628,0,1,1,48.908,36.279,11.628,11.628,0,0,1,37.279,47.908Z" transform="translate(-21 -20)" fill="#ffedc3"/>
  </g>
  <path id="Path_71094" data-name="Path 71094" d="M39.229,8.241,20.624,2.04a.777.777,0,0,0-.491,0L1.528,8.241a.776.776,0,0,0,0,1.471l3.346,1.115V22.863a.775.775,0,0,0,.821.774,21.388,21.388,0,0,1,2.663.028L7.211,30.556a.775.775,0,0,0,.765.9h6.2a.775.775,0,0,0,.765-.9L13.983,24.8a18.97,18.97,0,0,1,5.893,3.369.774.774,0,0,0,1.005,0,20.172,20.172,0,0,1,14.18-4.535.775.775,0,0,0,.821-.774V10.828l3.346-1.115a.776.776,0,0,0,0-1.471ZM8.616,22.122c-.734-.053-1.467-.083-2.191-.067V11.345L10.3,12.637v7.968H9.526a.775.775,0,0,0-.765.648Zm.274,7.785,1.291-7.752H11.97l1.291,7.752Zm25.442-7.852a21.689,21.689,0,0,0-13.954,4.523,20.815,20.815,0,0,0-6.684-3.505l-.3-1.82a.775.775,0,0,0-.765-.648h-.775V13.153l8.282,2.761a.777.777,0,0,0,.491,0l13.708-4.569ZM20.379,14.361l-6.851-2.284,7.1-2.365a.775.775,0,1,0-.491-1.471l-9.057,3.019L4.225,8.977,20.379,3.592,36.532,8.977Z" transform="translate(-1 -2)" fill="#ffb606"/>
</svg>
