<svg id="_008-college" data-name="008-college" xmlns="http://www.w3.org/2000/svg" xmlns:xlink="http://www.w3.org/1999/xlink" width="48.484" height="51.346" viewBox="0 0 48.484 51.346">
  <defs>
    <clipPath id="clip-path">
      <path id="SVGID_3_" d="M2071.153,1255.015v4.844a1.11,1.11,0,0,1-1.11,1.11h-11.2a1.11,1.11,0,0,1-1.11-1.11v-4.844Z" transform="translate(-2057.734 -1255.015)" fill="#ffe0e0"/>
    </clipPath>
  </defs>
  <g id="Group_43844" data-name="Group 43844" transform="translate(0 0)">
    <g id="Group_43816" data-name="Group 43816" transform="translate(0 20.372)">
      <path id="Path_71095" data-name="Path 71095" d="M1036.384,2162.661h47.737v30.974h-47.737Z" transform="translate(-1036.384 -2162.661)" fill="#ffe0e0"/>
    </g>
    <g id="Group_43817" data-name="Group 43817" transform="translate(7.47 4.659)">
      <path id="Path_71096" data-name="Path 71096" d="M1489.431,1233.87l.786,1.672,1.758.268-1.272,1.3.3,1.838-1.572-.868-1.572.868.3-1.838-1.272-1.3,1.758-.268Z" transform="translate(-1486.887 -1233.87)" fill="#fe4157"/>
    </g>
    <g id="Group_43818" data-name="Group 43818" transform="translate(0.708 9.712)">
      <path id="Path_71097" data-name="Path 71097" d="M1082.041,1535.742l.786,1.673,1.758.268-1.272,1.3.3,1.838-1.572-.868-1.572.868.3-1.838-1.272-1.3,1.758-.268Z" transform="translate(-1079.497 -1535.742)" fill="#fe4157"/>
    </g>
    <g id="Group_43819" data-name="Group 43819" transform="translate(36.71 4.659)">
      <path id="Path_71098" data-name="Path 71098" d="M3248.708,1233.87l-.786,1.672-1.758.268,1.272,1.3-.3,1.838,1.572-.868,1.572.868-.3-1.838,1.272-1.3-1.758-.268Z" transform="translate(-3246.164 -1233.87)" fill="#fe4157"/>
    </g>
    <g id="Group_43820" data-name="Group 43820" transform="translate(43.396 9.712)">
      <path id="Path_71099" data-name="Path 71099" d="M3656.1,1535.742l-.786,1.673-1.759.268,1.272,1.3-.3,1.838,1.572-.868,1.572.868-.3-1.838,1.272-1.3-1.758-.268Z" transform="translate(-3653.553 -1535.742)" fill="#fe4157"/>
    </g>
    <g id="Group_43821" data-name="Group 43821" transform="translate(11.39 37.542)">
      <path id="Path_71100" data-name="Path 71100" d="M1723.743,3208.892h2.17v12.892h-2.17Z" transform="translate(-1723.743 -3208.892)" fill="#fff"/>
    </g>
    <g id="Group_43822" data-name="Group 43822" transform="translate(33.732 37.542)">
      <path id="Path_71101" data-name="Path 71101" d="M3072.077,3208.892h2.17v12.892h-2.17Z" transform="translate(-3072.077 -3208.892)" fill="#fff"/>
    </g>
    <g id="Group_43823" data-name="Group 43823" transform="translate(8.011 49.523)">
      <path id="Path_71102" data-name="Path 71102" d="M1512.247,3938.955h30.806v1.822h-30.806Z" transform="translate(-1512.247 -3938.955)" fill="red"/>
    </g>
    <g id="Group_43824" data-name="Group 43824" transform="translate(13.095 16.485)">
      <path id="Path_71103" data-name="Path 71103" d="M1821.3,1940.649h21.26v17.2H1821.3Z" transform="translate(-1821.298 -1940.649)" fill="red"/>
    </g>
    <g id="Group_43825" data-name="Group 43825" transform="translate(4.85 29.734)">
      <path id="Path_71104" data-name="Path 71104" d="M1345.909,2750.281H1332.42a.474.474,0,0,1-.179-.915l18.05-7.188a2.147,2.147,0,0,1,1.606.007l17.57,7.183a.474.474,0,0,1-.184.914Z" transform="translate(-1331.939 -2742.025)" fill="red"/>
    </g>
    <g id="Group_43826" data-name="Group 43826" transform="translate(4.338 25.633)">
      <path id="Path_71105" data-name="Path 71105" d="M1300.736,2495.709h4.339v5.922h-4.339Z" transform="translate(-1300.736 -2495.709)" fill="#fff"/>
    </g>
    <g id="Group_43827" data-name="Group 43827" transform="translate(4.338 41.325)">
      <path id="Path_71106" data-name="Path 71106" d="M1300.721,3439.375h4.339v5.921h-4.339Z" transform="translate(-1300.721 -3439.375)" fill="#fff"/>
    </g>
    <g id="Group_43828" data-name="Group 43828" transform="translate(39.059 25.632)">
      <path id="Path_71107" data-name="Path 71107" d="M3389.321,2495.694h4.339v5.921h-4.339Z" transform="translate(-3389.321 -2495.694)" fill="#fff"/>
    </g>
    <g id="Group_43829" data-name="Group 43829" transform="translate(16.365 19.881)">
      <path id="Path_71108" data-name="Path 71108" d="M2023.534,2148.875h4.339v5.921h-4.339Z" transform="translate(-2023.534 -2148.875)" fill="#fff"/>
    </g>
    <g id="Group_43830" data-name="Group 43830" transform="translate(26.753 19.881)">
      <path id="Path_71109" data-name="Path 71109" d="M2650.129,2148.875h4.339v5.921h-4.339Z" transform="translate(-2650.129 -2148.875)" fill="#fff"/>
    </g>
    <g id="Group_43831" data-name="Group 43831" transform="translate(39.059 41.325)">
      <path id="Path_71110" data-name="Path 71110" d="M3389.314,3439.371h4.339v5.921h-4.339Z" transform="translate(-3389.314 -3439.371)" fill="#fff"/>
    </g>
    <g id="Group_43832" data-name="Group 43832" transform="translate(22.346 32.517)">
      <path id="Path_71111" data-name="Path 71111" d="M2387.733,2913.632a1.52,1.52,0,1,1-1.519-1.594A1.558,1.558,0,0,1,2387.733,2913.632Z" transform="translate(-2384.696 -2912.038)" fill="#fff"/>
    </g>
    <g id="Group_43833" data-name="Group 43833" transform="translate(19.745 41.781)">
      <path id="Path_71112" data-name="Path 71112" d="M2226.063,3467.158h8.678v7.742h-8.678Z" transform="translate(-2226.063 -3467.158)" fill="#fff"/>
    </g>
    <g id="Group_43843" data-name="Group 43843" transform="translate(13.101 0)">
      <g id="Group_43838" data-name="Group 43838">
        <g id="Group_43834" data-name="Group 43834" transform="translate(20.338 3.282)">
          <path id="Path_71113" data-name="Path 71113" d="M3061.005,1154.446a.461.461,0,0,1-.461-.461v-3.531a.461.461,0,1,1,.922,0v3.531A.461.461,0,0,1,3061.005,1154.446Z" transform="translate(-3060.544 -1149.993)" fill="#ffe0e0"/>
        </g>
        <g id="Group_43835" data-name="Group 43835" transform="translate(3.88 5.006)">
          <path id="Path_71114" data-name="Path 71114" d="M2071.153,1255.015v4.844a1.11,1.11,0,0,1-1.11,1.11h-11.2a1.11,1.11,0,0,1-1.11-1.11v-4.844Z" transform="translate(-2057.734 -1255.015)" fill="#ffe0e0"/>
        </g>
        <g id="Group_43836" data-name="Group 43836">
          <path id="Path_71115" data-name="Path 71115" d="M1831.062,956.959l-9.6-3.187a.238.238,0,0,1,0-.452l9.6-3.187a2.619,2.619,0,0,1,1.65,0l9.6,3.187a.238.238,0,0,1,0,.452l-9.6,3.187A2.617,2.617,0,0,1,1831.062,956.959Z" transform="translate(-1821.297 -950)" fill="#ffe0e0"/>
        </g>
        <g id="Group_43837" data-name="Group 43837" transform="translate(19.689 7.274)">
          <path id="Path_71116" data-name="Path 71116" d="M3023.241,1394.365a1.11,1.11,0,1,0-1.11,1.109A1.109,1.109,0,0,0,3023.241,1394.365Z" transform="translate(-3021.022 -1393.256)" fill="#ffe0e0"/>
        </g>
      </g>
      <g id="Group_43842" data-name="Group 43842" transform="translate(3.88 5.006)">
        <g id="Group_43841" data-name="Group 43841" clip-path="url(#clip-path)">
          <g id="Group_43839" data-name="Group 43839" transform="translate(-0.289 0.224)">
            <path id="Path_71117" data-name="Path 71117" d="M2054.093,1268.693l-6.483,2.178a1.619,1.619,0,0,1-1.031,0l-6.483-2.178Z" transform="translate(-2040.096 -1268.693)" fill="#ffe0e0"/>
          </g>
          <g id="Group_43840" data-name="Group 43840" transform="translate(-0.606 -0.092)">
            <path id="Path_71118" data-name="Path 71118" d="M2028.13,1252.311a1.937,1.937,0,0,0,.616-.1l6.483-2.178a.316.316,0,0,0-.2-.6l-6.483,2.178a1.31,1.31,0,0,1-.83,0l-6.483-2.178a.316.316,0,1,0-.2.6l6.483,2.178A1.936,1.936,0,0,0,2028.13,1252.311Z" transform="translate(-2020.815 -1249.417)" fill="#ffe0e0"/>
          </g>
        </g>
      </g>
    </g>
  </g>
</svg>
