<svg xmlns="http://www.w3.org/2000/svg" width="97" height="29.571" viewBox="0 0 97 29.571">
  <g id="abstrack" transform="translate(-328 -647)">
    <path id="Union" d="M10.292,19.456c-.41,0-.819-.819,2.457-.41s32.761.409,55.285-6.552C84.47,7.414,90.656,3.642,93.914,1.656A12.543,12.543,0,0,1,96.7.209c2.867-.819,3.276.819-2.048,4.1S75.405,14.951,64.758,17.818s-19.247,4.1-22.933,4.1-4.5-.819,2.457-2.048,15.561-4.1,6.962-2.048a124.861,124.861,0,0,1-19.158,2.656c-.948.075-1.8.143-2.546.21-4.5.41-4.5,1.229-1.229,1.229a47.789,47.789,0,0,0,8.6-1.229c-1.092.41-3.6,1.31-4.914,1.638a8.84,8.84,0,0,0,2.457.41c-.273.137-2.129.573-7.371,1.229-6.552.819-13.1.41-15.561-.819s-1.639-2.457-1.229-2.457C11.111,20.275,10.7,19.456,10.292,19.456Z" transform="translate(326.222 647)" fill="#FFFFFF"/>
    <path id="Union-2" data-name="Union" d="M4.008,21.722a15.664,15.664,0,0,1,5.324-2.048c3.686-.819,6.552-2.048,7.371-2.867s1.638-3.276-4.1-1.229c-1.433.512-2.661.972-3.735,1.375-3.226,1.21-5.069,1.9-6.912,1.9C-.5,18.855-.5,20.9,1.142,23.769a12.971,12.971,0,0,0,3.682,3.542c1.4,1.04,2.664,1.973,2.871,3.01.41,2.048,1.229,2.867,2.048.41S8.1,25.817,6.056,24.588,3.344,22.132,4.008,21.722Z" transform="translate(328 644.324)" fill="#FFFFFF"/>
  </g>
</svg>
