<svg xmlns="http://www.w3.org/2000/svg" width="16" height="15.597" viewBox="0 0 16 15.597">
  <g id="_7-Check" data-name="7-Check" transform="translate(-32.027 -37.756)">
    <path id="Path_75019" data-name="Path 75019" d="M33.69,44.879A1.668,1.668,0,0,0,32.4,47.6l4.236,5.19a1.514,1.514,0,0,0,1.266.562,1.624,1.624,0,0,0,1.274-.755l8.8-14.172,0-.007a.456.456,0,0,0-.115-.536.467.467,0,0,0-.679.047l-.01.011L38.3,47.967a.385.385,0,0,1-.547.03l-2.945-2.68A1.66,1.66,0,0,0,33.69,44.879Z" transform="translate(0)" fill="#FF0000"/>
  </g>
</svg>
