<svg xmlns="http://www.w3.org/2000/svg" xmlns:xlink="http://www.w3.org/1999/xlink" width="23.5" height="23.5" viewBox="0 0 23.5 23.5">
  <defs>
    <clipPath id="clip-path">
      <path id="path111" d="M0-682.665H23.5v23.5H0Z" transform="translate(0 682.665)" fill="none" stroke="red" stroke-width="1.25"/>
    </clipPath>
  </defs>
  <g id="g105" transform="translate(0 682.665)">
    <g id="g107" transform="translate(0 -682.665)">
      <g id="g109" clip-path="url(#clip-path)">
        <g id="g115" transform="translate(5.528 8.318)">
          <path id="path117" d="M-349.037,0V4.92c0,.764-2.786,1.844-6.222,1.844s-6.222-1.08-6.222-1.844V0" transform="translate(361.48)" fill="none" stroke="red" stroke-linecap="round" stroke-linejoin="round" stroke-width="1.25"/>
        </g>
        <g id="g119" transform="translate(0.688 2.638)">
          <path id="path121" d="M-310.271-219.775l-11.062-3.932,11.062-3.9,11.062,3.9Z" transform="translate(321.333 227.61)" fill="none" stroke="red" stroke-linecap="round" stroke-linejoin="round" stroke-width="1.25"/>
        </g>
        <g id="g123" transform="translate(21.158 7.266)">
          <path id="path125" d="M0,0V7.631" fill="none" stroke="red" stroke-linecap="round" stroke-linejoin="round" stroke-width="1.25"/>
        </g>
        <g id="g127" transform="translate(19.775 14.897)">
          <path id="path129" d="M-77.568-38.784A1.383,1.383,0,0,1-78.95-37.4a1.383,1.383,0,0,1-1.383-1.383,1.383,1.383,0,0,1,1.383-1.383A1.383,1.383,0,0,1-77.568-38.784Z" transform="translate(80.333 40.167)" fill="none" stroke="red" stroke-linecap="round" stroke-linejoin="round" stroke-width="1.25"/>
        </g>
        <g id="g131" transform="translate(21.158 17.663)">
          <path id="path133" d="M0,0V3.2" fill="none" stroke="red" stroke-linecap="round" stroke-linejoin="round" stroke-width="1.25"/>
        </g>
      </g>
    </g>
  </g>
</svg>
