<svg xmlns="http://www.w3.org/2000/svg" width="48" height="38.349" viewBox="0 0 48 38.349" >
  <path id="graduation-cap" d="M47.588,79.593,43.87,75.875V63.122l2.427-.875a1.406,1.406,0,0,0,0-2.645L24.092,51.56a1.406,1.406,0,0,0-.958,0L.927,59.6a1.406,1.406,0,0,0-.01,2.641l8.2,3.036v9.267a1.406,1.406,0,0,0,.253.8,8.572,8.572,0,0,0,3.141,2.4,24.16,24.16,0,0,0,10.8,2.1,24.582,24.582,0,0,0,10.859-2.1,8.913,8.913,0,0,0,3.195-2.384,1.406,1.406,0,0,0,.27-.829V65.37l3.422-1.234V75.875L37.34,79.593a1.406,1.406,0,0,0,0,1.988L41.058,85.3v3.119a1.406,1.406,0,1,0,2.812,0V85.3l3.718-3.718a1.406,1.406,0,0,0,0-1.988ZM23.613,54.377l18.07,6.544L23.318,67.542l-17.824-6.6Zm11.21,19.608c-4.807,4.325-19.091,3.829-22.9.014V66.321l10.9,4.037a1.4,1.4,0,0,0,.965,0l11.035-3.978v7.6Zm7.64,8.743-2.141-2.141,2.141-2.141,2.141,2.141Z" fill='#FF0000' transform="translate(0 -51.476)"/>
</svg>
