<svg xmlns="http://www.w3.org/2000/svg" xmlns:xlink="http://www.w3.org/1999/xlink" width="1953" height="743" viewBox="0 0 1953 743">
  <defs>
    <linearGradient id="linear-gradient" x1="0.5" x2="0.633" y2="0.976" gradientUnits="objectBoundingBox">
      <stop offset="0" stop-color="#fff"/>
      <stop offset="0.296" stop-color="#f6fffe"/>
      <stop offset="1" stop-color="#d6fff9"/>
    </linearGradient>
    <clipPath id="clip-path">
      <path id="Path_70703" data-name="Path 70703" d="M0,0H1920V241H0Z" transform="translate(0 436)" fill="#fff"/>
    </clipPath>
    <linearGradient id="linear-gradient-2" x1="0.051" x2="0.955" y2="1.018" gradientUnits="objectBoundingBox">
      <stop offset="0" stop-color="#146c5e" stop-opacity="0"/>
      <stop offset="0.447" stop-color="#45d8c0"/>
      <stop offset="1" stop-color="#146c5e" stop-opacity="0"/>
    </linearGradient>
  </defs>
  <g id="Group_78458" data-name="Group 78458" transform="translate(9 66)">
    <rect id="base" width="1953" height="742" transform="translate(-9 -66)" fill="url(#linear-gradient)"/>
    <g id="Mask_Group_73" data-name="Mask Group 73" clip-path="url(#clip-path)">
      <path id="shape" d="M1440,641.026v245c-74.5-173-380-118-536.5-160s-68-282-373.5-249c-244.4,26.4-455.167-108-530-178.5v-139c19-167,228.819-258.8,391.819-4.8,25.348,39.5,91.5,54,167.5,0,47.5-33.75,162-23.5,220,90,41.9,82,205.881,158.9,368.681,117.3,222.122-36.578,264.5,12,292,74.5Z" transform="translate(-498.728 527.306) rotate(-13)" fill="url(#linear-gradient-2)"/>
      <path id="shape-2" data-name="shape" d="M0,0H2897.411V2412.5c-149.9-348.092-764.594-237.427-1079.487-321.935s-179.076-395.376-793.77-328.977C532.4,1814.706,274.65,1447.7,0,1638.849Z" transform="translate(2317.491 2058.945) rotate(166)" fill="#fff"/>
    </g>
  </g>
</svg>
