<svg id="office-building" xmlns="http://www.w3.org/2000/svg" width="42.003" height="42.003" viewBox="0 0 42.003 42.003" fill='#FF0000'>
  <path id="Path_75230" data-name="Path 75230" d="M42,39.542H37V36.727a4.975,4.975,0,0,0,2.461-4.651A4.975,4.975,0,0,0,37,27.426V5H27.154V0H24.693V5H14.849v5.537L5,17.925v9.5a4.975,4.975,0,0,0-2.461,4.651A4.975,4.975,0,0,0,5,36.727v2.814H0V42H42Zm-6.235-5c-.5,0-1.231-.959-1.231-2.461s.729-2.461,1.231-2.461S37,30.574,37,32.076,36.27,34.538,35.768,34.538ZM34.538,7.465v19.96a4.975,4.975,0,0,0-2.461,4.651,4.975,4.975,0,0,0,2.461,4.651v2.814H29.615V32.076H22.232v7.465H17.31V7.465ZM27.154,39.542H24.693v-5h2.461ZM6.235,29.615c.5,0,1.231.959,1.231,2.461s-.729,2.461-1.231,2.461S5,33.579,5,32.076,5.733,29.615,6.235,29.615Zm1.231,7.112a4.975,4.975,0,0,0,2.461-4.651,4.975,4.975,0,0,0-2.461-4.651v-8.27l7.383-5.537V39.542H7.465Z"/>
  <path id="Path_75231" data-name="Path 75231" d="M241,121h2.461v2.461H241Z" transform="translate(-221.229 -111.074)"/>
  <path id="Path_75232" data-name="Path 75232" d="M301,121h2.461v2.461H301Z" transform="translate(-276.307 -111.074)"/>
  <path id="Path_75233" data-name="Path 75233" d="M361,121h2.461v2.461H361Z" transform="translate(-331.385 -111.074)"/>
  <path id="Path_75234" data-name="Path 75234" d="M241,181h2.461v2.461H241Z" transform="translate(-221.229 -166.151)"/>
  <path id="Path_75235" data-name="Path 75235" d="M121,241h2.461v2.461H121Z" transform="translate(-111.074 -221.229)"/>
  <path id="Path_75236" data-name="Path 75236" d="M121,301h2.461v2.461H121Z" transform="translate(-111.074 -276.307)"/>
  <path id="Path_75237" data-name="Path 75237" d="M301,181h2.461v2.461H301Z" transform="translate(-276.307 -166.151)"/>
  <path id="Path_75238" data-name="Path 75238" d="M361,181h2.461v2.461H361Z" transform="translate(-331.385 -166.151)"/>
  <path id="Path_75239" data-name="Path 75239" d="M241,241h2.461v2.461H241Z" transform="translate(-221.229 -221.229)"/>
  <path id="Path_75240" data-name="Path 75240" d="M301,241h2.461v2.461H301Z" transform="translate(-276.307 -221.229)"/>
  <path id="Path_75241" data-name="Path 75241" d="M361,241h2.461v2.461H361Z" transform="translate(-331.385 -221.229)"/>
  <path id="Path_75242" data-name="Path 75242" d="M241,301h2.461v2.461H241Z" transform="translate(-221.229 -276.307)"/>
  <path id="Path_75243" data-name="Path 75243" d="M301,301h2.461v2.461H301Z" transform="translate(-276.307 -276.307)"/>
  <path id="Path_75244" data-name="Path 75244" d="M361,301h2.461v2.461H361Z" transform="translate(-331.385 -276.307)"/>
</svg>
