<svg id="school" xmlns="http://www.w3.org/2000/svg" width="42" height="42" viewBox="0 0 42 42">
  <g id="Group_78470" data-name="Group 78470" transform="translate(21)">
    <path id="Path_75696" data-name="Path 75696" d="M263.383,7.383H256V1.23A1.231,1.231,0,0,1,257.23,0h6.152a1.23,1.23,0,0,1,1.23,1.23V6.152A1.23,1.23,0,0,1,263.383,7.383Z" transform="translate(-256)" fill="#ffbe40"/>
  </g>
  <g id="Group_78471" data-name="Group 78471" transform="translate(19.77)">
    <path id="Path_75697" data-name="Path 75697" d="M243.461,0V11.238a1.23,1.23,0,1,1-2.461,0V1.23A1.23,1.23,0,0,1,242.23,0Z" transform="translate(-241)" fill="#f3f5f9"/>
  </g>
  <path id="Path_75698" data-name="Path 75698" d="M257.23,0V11.238a1.23,1.23,0,0,1-1.23,1.23V0Z" transform="translate(-235)" fill="#e1e6f0"/>
  <g id="Group_78472" data-name="Group 78472" transform="translate(2.543 21.082)">
    <path id="Path_75699" data-name="Path 75699" d="M31,257v3.691l2.461,1.23L31,263.152v2.461l2.461,1.23L31,268.074v2.461l2.461,1.23L31,273v3.691a1.219,1.219,0,0,0,1.23,1.23h8.613l2.461-1.23V257Z" transform="translate(-31 -257)" fill="#e1e6f0"/>
  </g>
  <g id="Group_78473" data-name="Group 78473" transform="translate(27.152 21.082)">
    <path id="Path_75700" data-name="Path 75700" d="M343.3,260.691V257H331v19.688l2.461,1.23h8.613a1.219,1.219,0,0,0,1.23-1.23V273l-2.461-1.23,2.461-1.23v-2.461l-2.461-1.23,2.461-1.23v-2.461l-2.461-1.23Z" transform="translate(-331 -257)" fill="#cfd7e6"/>
  </g>
  <g id="School_1_" transform="translate(0 10.002)">
    <g id="Group_78474" data-name="Group 78474" transform="translate(27.152 9.85)">
      <path id="Path_75701" data-name="Path 75701" d="M344.617,244.461H332.23a1.23,1.23,0,0,1,0-2.461h12.387a1.23,1.23,0,0,1,0,2.461Z" transform="translate(-331 -242)" fill="#e63a57"/>
    </g>
    <g id="Group_78475" data-name="Group 78475" transform="translate(0 9.85)">
      <path id="Path_75702" data-name="Path 75702" d="M13.617,244.461H1.23a1.23,1.23,0,0,1,0-2.461H13.617a1.23,1.23,0,0,1,0,2.461Z" transform="translate(0 -242)" fill="#ff5959"/>
    </g>
    <path id="Path_75703" data-name="Path 75703" d="M159.613,139.854,151,146.827v23.555h4.922l3.33-2.461,4.052,2.461h4.922V146.827Z" transform="translate(-138.613 -138.383)" fill="#f3f5f9"/>
    <path id="Path_75704" data-name="Path 75704" d="M256,139.854h0V168.14l3.691,2.242h4.922V146.827Z" transform="translate(-235 -138.383)" fill="#e1e6f0"/>
    <path id="Path_75705" data-name="Path 75705" d="M151,130.367l8.613-5.742,8.613,5.742v-2.285a1.251,1.251,0,0,0-.541-1.034l-7.383-4.922a1.271,1.271,0,0,0-1.378,0l-7.383,4.922a1.251,1.251,0,0,0-.541,1.034Z" transform="translate(-138.613 -121.924)" fill="#ff5959"/>
    <path id="Path_75706" data-name="Path 75706" d="M256,124.625l8.613,5.742v-2.285a1.251,1.251,0,0,0-.541-1.034l-7.383-4.922a1.268,1.268,0,0,0-.689-.2Z" transform="translate(-235 -121.924)" fill="#e63a57"/>
    <g id="Group_78476" data-name="Group 78476" transform="translate(17.309 7.389)">
      <path id="Path_75707" data-name="Path 75707" d="M214.691,219.383a3.691,3.691,0,1,1,3.691-3.691A3.7,3.7,0,0,1,214.691,219.383Z" transform="translate(-211 -212)" fill="#ffbe40"/>
      <path id="Path_75708" data-name="Path 75708" d="M259.691,215.691A3.7,3.7,0,0,0,256,212v7.383A3.7,3.7,0,0,0,259.691,215.691Z" transform="translate(-252.309 -212)" fill="#ff9f40"/>
      <ellipse id="Ellipse_242" data-name="Ellipse 242" cx="0.824" cy="1.235" rx="0.824" ry="1.235" transform="translate(2.868 2.786)" fill="#f3f5f9"/>
      <path id="Path_75709" data-name="Path 75709" d="M257.23,243.23A1.232,1.232,0,0,0,256,242v2.461A1.232,1.232,0,0,0,257.23,243.23Z" transform="translate(-252.309 -239.539)" fill="#e1e6f0"/>
    </g>
    <g id="Group_78478" data-name="Group 78478" transform="translate(17.309 22.155)">
      <g id="Group_78477" data-name="Group 78477">
        <path id="Path_75710" data-name="Path 75710" d="M218.383,393.23v8.613H211V393.23a1.218,1.218,0,0,1,1.23-1.23h4.922A1.218,1.218,0,0,1,218.383,393.23Z" transform="translate(-211 -392)" fill="#804b40"/>
      </g>
    </g>
    <g id="Group_78480" data-name="Group 78480" transform="translate(21 22.155)">
      <g id="Group_78479" data-name="Group 78479">
        <path id="Path_75711" data-name="Path 75711" d="M258.461,392H256v9.844h3.691V393.23A1.218,1.218,0,0,0,258.461,392Z" transform="translate(-256 -392)" fill="#633"/>
      </g>
    </g>
    <g id="Group_78482" data-name="Group 78482" transform="translate(2.543 14.772)">
      <g id="Group_78481" data-name="Group 78481">
        <path id="Path_75712" data-name="Path 75712" d="M38.383,303.23a1.219,1.219,0,0,1-1.23,1.23H31V302h6.152A1.218,1.218,0,0,1,38.383,303.23Z" transform="translate(-31 -302)" fill="#f3f5f9"/>
      </g>
    </g>
    <g id="Group_78484" data-name="Group 78484" transform="translate(2.543 19.694)">
      <g id="Group_78483" data-name="Group 78483">
        <path id="Path_75713" data-name="Path 75713" d="M38.383,363.23a1.219,1.219,0,0,1-1.23,1.23H31V362h6.152A1.218,1.218,0,0,1,38.383,363.23Z" transform="translate(-31 -362)" fill="#f3f5f9"/>
      </g>
    </g>
    <g id="Group_78485" data-name="Group 78485" transform="translate(32.074 14.772)">
      <path id="Path_75714" data-name="Path 75714" d="M398.383,302v2.461H392.23a1.23,1.23,0,0,1,0-2.461Z" transform="translate(-391 -302)" fill="#e1e6f0"/>
    </g>
    <g id="Group_78486" data-name="Group 78486" transform="translate(32.074 19.694)">
      <path id="Path_75715" data-name="Path 75715" d="M398.383,362v2.461H392.23a1.23,1.23,0,0,1,0-2.461Z" transform="translate(-391 -362)" fill="#e1e6f0"/>
    </g>
    <g id="Group_78488" data-name="Group 78488" transform="translate(2.543 24.616)">
      <g id="Group_78487" data-name="Group 78487">
        <path id="Path_75716" data-name="Path 75716" d="M38.383,423.23a1.219,1.219,0,0,1-1.23,1.23H31V422h6.152A1.218,1.218,0,0,1,38.383,423.23Z" transform="translate(-31 -422)" fill="#f3f5f9"/>
      </g>
    </g>
    <g id="Group_78489" data-name="Group 78489" transform="translate(32.074 24.616)">
      <path id="Path_75717" data-name="Path 75717" d="M398.383,422v2.461H392.23a1.23,1.23,0,0,1,0-2.461Z" transform="translate(-391 -422)" fill="#e1e6f0"/>
    </g>
  </g>
</svg>
