<svg id="school_1_" data-name="school (1)" xmlns="http://www.w3.org/2000/svg" width="42" height="42" viewBox="0 0 42 42" fill='#820607'>
  <path id="Path_75245" data-name="Path 75245" d="M40.6,21.4l-9.862-3.28V16.973A2.058,2.058,0,0,0,29.72,15.2l-7.49-4.385V7.383H29.2a1.23,1.23,0,0,0,1.23-1.23V1.23A1.23,1.23,0,0,0,29.2,0H21a1.23,1.23,0,0,0-1.23,1.23v9.584l-7.5,4.389a2.058,2.058,0,0,0-1.015,1.77V18.12L1.4,21.4A2.048,2.048,0,0,0,0,23.345v16.6A2.053,2.053,0,0,0,2.051,42h37.9A2.053,2.053,0,0,0,42,39.949v-16.6A2.048,2.048,0,0,0,40.6,21.4ZM27.973,4.922H22.23V2.461h5.742ZM2.461,23.641l8.8-2.928V39.539h-8.8Zm11.26-6.433L21,12.948l7.277,4.261V39.539H25.327V33.448a4.327,4.327,0,0,0-8.653,0v6.091H13.721V17.208Zm5.414,22.331V33.448a1.866,1.866,0,1,1,3.731,0v6.091Zm20.4,0h-8.8V20.713l8.8,2.928Z" transform="translate(0)"/>
  <path id="Path_75246" data-name="Path 75246" d="M209.6,222.077a3.932,3.932,0,1,0-3.932-3.932A3.937,3.937,0,0,0,209.6,222.077Zm0-5.521a1.589,1.589,0,1,1-1.589,1.589A1.59,1.59,0,0,1,209.6,216.556Z" transform="translate(-188.599 -196.435)"/>
  <path id="Path_75247" data-name="Path 75247" d="M69.8,317.787a1.172,1.172,0,0,0-1.172,1.172v.844a1.172,1.172,0,0,0,2.344,0v-.844A1.172,1.172,0,0,0,69.8,317.787Z" transform="translate(-63.268 -291.611)"/>
  <path id="Path_75248" data-name="Path 75248" d="M69.8,392.12a1.172,1.172,0,0,0-1.172,1.172v.844a1.172,1.172,0,0,0,2.344,0v-.844A1.172,1.172,0,0,0,69.8,392.12Z" transform="translate(-63.268 -359.821)"/>
  <path id="Path_75249" data-name="Path 75249" d="M414.507,320.975a1.172,1.172,0,0,0,1.172-1.172v-.844a1.172,1.172,0,0,0-2.344,0v.844A1.172,1.172,0,0,0,414.507,320.975Z" transform="translate(-379.043 -291.611)"/>
  <path id="Path_75250" data-name="Path 75250" d="M414.507,395.308a1.172,1.172,0,0,0,1.172-1.172v-.844a1.172,1.172,0,0,0-2.344,0v.844A1.172,1.172,0,0,0,414.507,395.308Z" transform="translate(-379.043 -359.821)"/>
</svg>
