<svg xmlns="http://www.w3.org/2000/svg" width="42.5" height="42.5" viewBox="0 0 42.5 42.5" fill='#FF0000'>
  <path id="Union_5" data-name="Union 5" d="M1776.853,845.911a17.18,17.18,0,0,1-5.831-23.16h-6.095a.928.928,0,0,1-.927-.927v-9.48a.929.929,0,0,1,.927-.928h13.549a.93.93,0,0,1,.928.928v3.066a17.166,17.166,0,0,1,11.694-.486v-8a.928.928,0,0,1,.927-.927h13.549a.928.928,0,0,1,.927.927v9.48a.928.928,0,0,1-.927.927h-9.656a17.184,17.184,0,0,1-1.828,29.105,17.193,17.193,0,0,1-17.236-.528ZM1770.6,831.3a15.314,15.314,0,0,0,17.79,15.123v-5.28a4.855,4.855,0,0,0-4.855-4.853,3.96,3.96,0,0,1-3.951-3.95v-.464a2.068,2.068,0,0,0-.177-.848v7.294h-1.855v-9.1a9.8,9.8,0,0,0-5.586-1.737h-.881A15.337,15.337,0,0,0,1770.6,831.3Zm8.807-3c.3.247.6.51.874.785a3.948,3.948,0,0,1,1.158,2.8v.464a2.1,2.1,0,0,0,2.1,2.1,6.716,6.716,0,0,1,6.709,6.707v4.86a15.2,15.2,0,0,0,3.065-1.277l-.608-.6a4.736,4.736,0,0,1,0-6.681,1.464,1.464,0,0,0,.431-1.037,3.33,3.33,0,0,1,3.322-3.322h4.7a15.555,15.555,0,0,0,.106-1.781c0-.305-.012-.626-.037-1a5.952,5.952,0,0,0-3.934-1.48h-.568a6,6,0,0,0-4.021,1.542l-2.317,2.084a4.442,4.442,0,0,1-7.414-3.3V827.58a4.857,4.857,0,0,0-3.564-4.675Zm15.58,8.106a3.315,3.315,0,0,1-.974,2.349,2.879,2.879,0,0,0,0,4.058l.9.9a15.33,15.33,0,0,0,5.909-8.771h-4.366A1.472,1.472,0,0,0,1794.983,836.406Zm-15.58-18.967V821a6.7,6.7,0,0,1,5.42,6.58v1.565a2.588,2.588,0,0,0,4.318,1.922l2.317-2.084a7.839,7.839,0,0,1,5.256-2.018h.566a7.809,7.809,0,0,1,3.577.865,15.373,15.373,0,0,0-7.9-10.144v9.128H1791.1v-9.937a15.312,15.312,0,0,0-11.694.563Zm-7.714,8.2h.258a11.715,11.715,0,0,1,5.6,1.425v-4.31h-4.33A15.241,15.241,0,0,0,1771.69,825.637Zm-5.835-4.739h11.694v-2.886h-11.694Zm0-4.74h11.694v-2.885h-11.694Zm27.1-.677h11.694v-.854h-11.694Zm0-2.709h11.694v-2.209h-11.694Zm0-4.063h11.694v-.854h-11.694Z" transform="translate(-1764 -806)"/>
</svg>
