<svg id="XMLID_125_" xmlns="http://www.w3.org/2000/svg" width="48" height="48" viewBox="0 0 48 48">
  <path id="XMLID_126_" d="M40.12,331.31H50.5v16.036H40.12Z" transform="translate(-36.351 -300.286)" fill="#ffe0e0"/>
  <path id="XMLID_127_" d="M361.43,331.31h10.377v16.036H361.43Z" transform="translate(-327.576 -300.286)" fill="#ffe0e0"/>
  <g id="XMLID_128_" transform="translate(0 5.656)">
    <path id="XMLID_129_" d="M47.062,100.67H34.822V86.547H45.18a2.82,2.82,0,1,0,0-5.639H34.822V77.136h.011a2.815,2.815,0,0,0,2.812-2.812v-.016a2.816,2.816,0,0,0-2.439-2.785L24.937,62.6v-1.46S24.518,60.2,24,60.2s-.938.937-.938.937V62.6L12.8,71.522a2.816,2.816,0,0,0-2.44,2.786v.016a2.815,2.815,0,0,0,2.813,2.812h.011v3.771H2.82a2.82,2.82,0,1,0,0,5.639H13.178V100.67H.938a.937.937,0,1,0,0,1.874H47.062a.937.937,0,1,0,0-1.874ZM45.18,82.782a.945.945,0,0,1,0,1.89H34.822v-1.89ZM24,64.266,32.318,71.5H15.682ZM12.23,74.324v-.016a.94.94,0,0,1,.945-.937H34.833a.938.938,0,0,1,.938.937v.016a.938.938,0,0,1-.937.937H13.167a.938.938,0,0,1-.938-.937ZM2.82,84.672a.945.945,0,0,1,0-1.89H13.178v1.89Zm12.233-7.536H32.947V100.67H29.173v-6.6h.946a.937.937,0,1,0,0-1.874H17.881a.937.937,0,1,0,0,1.874h.946v6.6H15.053ZM27.3,94.074v6.6H20.7v-6.6Z" transform="translate(0 -60.2)" fill="red"/>
    <path id="XMLID_137_" d="M403.513,381.55h-.943a.94.94,0,0,0,0,1.879h.943a.94.94,0,0,0,0-1.879Z" transform="translate(-363.982 -351.435)" fill="red"/>
    <path id="XMLID_138_" d="M403.513,431.76h-.943a.94.94,0,0,0,0,1.879h.943a.94.94,0,1,0,0-1.879Z" transform="translate(-363.982 -396.954)" fill="red"/>
    <path id="XMLID_139_" d="M81.27,383.429h.943a.94.94,0,0,0,0-1.879H81.27a.94.94,0,0,0,0,1.879Z" transform="translate(-72.8 -351.435)" fill="red"/>
    <path id="XMLID_140_" d="M81.27,433.639h.943a.94.94,0,1,0,0-1.879H81.27a.94.94,0,0,0,0,1.879Z" transform="translate(-72.8 -396.954)" fill="red"/>
    <path id="XMLID_141_" d="M191.719,272.979h.943a.939.939,0,1,0,0-1.879h-.943a.939.939,0,0,0,0,1.879Z" transform="translate(-172.897 -251.336)" fill="red"/>
    <path id="XMLID_142_" d="M241.919,272.979h.943a.939.939,0,0,0,0-1.879h-.943a.939.939,0,1,0,0,1.879Z" transform="translate(-218.391 -251.336)" fill="red"/>
    <path id="XMLID_143_" d="M292.12,272.979h.943a.939.939,0,1,0,0-1.879h-.943a.939.939,0,1,0,0,1.879Z" transform="translate(-263.886 -251.336)" fill="red"/>
    <path id="XMLID_144_" d="M191.719,313.149h.943a.939.939,0,1,0,0-1.879h-.943a.939.939,0,1,0,0,1.879Z" transform="translate(-172.897 -287.741)" fill="red"/>
    <path id="XMLID_145_" d="M241.919,313.149h.943a.939.939,0,1,0,0-1.879h-.943a.939.939,0,1,0,0,1.879Z" transform="translate(-218.391 -287.741)" fill="red"/>
    <path id="XMLID_146_" d="M292.12,313.149h.943a.939.939,0,1,0,0-1.879h-.943a.939.939,0,1,0,0,1.879Z" transform="translate(-263.886 -287.741)" fill="red"/>
    <path id="XMLID_147_" d="M191.719,353.309h.943a.939.939,0,1,0,0-1.879h-.943a.939.939,0,1,0,0,1.879Z" transform="translate(-172.897 -324.138)" fill="red"/>
    <path id="XMLID_148_" d="M241.919,353.309h.943a.939.939,0,1,0,0-1.879h-.943a.939.939,0,1,0,0,1.879Z" transform="translate(-218.391 -324.138)" fill="red"/>
    <path id="XMLID_149_" d="M292.12,353.309h.943a.939.939,0,1,0,0-1.879h-.943a.939.939,0,1,0,0,1.879Z" transform="translate(-263.886 -324.138)" fill="red"/>
  </g>
  <path id="XMLID_150_" d="M253.539,0V6.6H246V0Z" transform="translate(-222.947)" fill="#ffe0e0"/>
</svg>
