<svg width="738" height="386" viewBox="0 0 738 386" fill="none" xmlns="http://www.w3.org/2000/svg">
<g opacity="0.3">
<path d="M-34.9091 161.578H-23.5974H-9.36462L13.9424 133.301H-11.6021L-23.5974 147.781L-34.9091 161.578Z" fill="#4D4D4D"/>
<path d="M44.397 249.644H53.782C55.7051 249.649 57.5913 249.116 59.2276 248.106C60.864 247.095 62.1853 245.648 63.0426 243.926L65.9016 238.333H39.0519L38.5548 239.39C37.8246 240.835 37.6114 242.486 37.9506 244.069C38.2899 245.652 39.1611 247.071 40.4193 248.09C41.5674 248.662 42.7507 249.16 43.962 249.582L44.397 249.644Z" fill="#4D4D4D"/>
<path d="M7.35352 249.147C8.13925 249.481 8.98555 249.651 9.83961 249.644H18.976C21.0384 249.627 23.0497 249 24.7561 247.841C22.0686 246.258 18.961 245.534 15.8503 245.767C12.7396 246.001 9.77472 247.18 7.35352 249.147V249.147Z" fill="#4D4D4D"/>
<path d="M20.2192 224.224C17.681 225.212 14.9869 225.738 12.2637 225.778L10.7721 225.405L7.16726 232.552L10.2749 234.603H11.3314L14.6877 233.298C18.914 231.62 23.4511 228.14 27.1181 228.699C30.785 229.258 31.3444 231.744 31.7173 234.914H32.7739L45.5772 209.744L50.3008 200.483H23.5132L14.6255 218.009L20.0327 223.354C20.1098 223.641 20.172 223.931 20.2192 224.224V224.224Z" fill="#4D4D4D"/>
<path d="M6.73298 238.271C6.20432 239.691 5.76835 241.144 5.4278 242.621C7.23021 241.999 9.84057 241.937 10.6485 240.694C10.9446 239.913 10.9446 239.051 10.6485 238.271H6.73298Z" fill="#4D4D4D"/>
<path d="M45.578 193.275H48.5613L45.578 189.67L25.2543 165.06H-0.290215L22.9546 193.275H45.578Z" fill="#4D4D4D"/>
<path d="M-0.60123 226.649L1.57408 228.265L6.4841 218.507C6.85701 217.016 7.41638 215.524 7.85145 214.095C7.85145 214.095 8.41081 213.722 8.90802 213.66L15.6826 200.298H10.2754L6.4841 204.027L-1.6578 202.038L-0.414782 200.298H-11.1671L-23.5975 225.157L-28.5696 234.977H-20.8006C-20.3175 233.359 -20.0255 231.691 -19.9305 230.005C-19.3711 224.101 -6.25706 222.485 -0.60123 226.649Z" fill="#4D4D4D"/>
<path d="M45.5781 234.604H67.4556L84.8582 200.298H58.0706L45.6402 225.157L44.6458 227.208H45.951C43.9 229.632 42.9677 231.124 42.284 231.869L40.6681 234.977L45.5781 234.604Z" fill="#4D4D4D"/>
<path d="M10.2753 86.9376C11.0376 84.3841 12.1682 81.9555 13.6315 79.7283C14.5638 78.734 15.5582 77.8017 16.5526 76.9316H10.3374C9.13334 76.9351 7.95035 77.2481 6.90208 77.8405C5.85381 78.4329 4.97544 79.2848 4.35136 80.3145C3.72727 81.3442 3.37844 82.517 3.33832 83.7204C3.29819 84.9237 3.56813 86.1172 4.12223 87.1862L4.68158 88.3049H31.5312L28.6101 82.6493C27.8718 81.1827 26.7921 79.9148 25.4618 78.9523C24.1314 77.9897 22.5894 77.3607 20.9654 77.1181C20.4183 79.1149 19.5806 81.0204 18.4793 82.7736C16.4905 84.9488 12.7614 85.446 10.2753 86.9376Z" fill="#4D4D4D"/>
<path d="M13.9424 193.275L-9.36462 165.06H-23.5974H-34.9091L-23.5974 178.794L-11.6021 193.275H13.9424Z" fill="#4D4D4D"/>
<path d="M25.9379 149.335C26.5594 148.216 29.1077 148.216 30.7858 147.719C31.1587 149.335 32.091 151.075 31.718 152.443C31.3451 153.81 31.283 153.81 31.0965 154.494L45.578 136.905L48.5613 133.301H22.706L-0.60099 161.578H20.8414C20.8076 161.394 20.8076 161.204 20.8414 161.019C22.2717 157.013 23.9745 153.109 25.9379 149.335Z" fill="#4D4D4D"/>
<path d="M-23.5975 91.8477H-28.5075L-23.5975 101.605L-11.1049 126.278H15.6826L-1.71997 91.8477H-23.5975Z" fill="#4D4D4D"/>
<path d="M6.04852 91.8477L23.5132 126.278H45.5772H50.3008L45.5772 117.018L32.8982 91.8477H6.04852Z" fill="#4D4D4D"/>
<path d="M44.3971 76.9317C43.193 76.9351 42.01 77.2481 40.9618 77.8405C39.9135 78.4329 39.0352 79.2848 38.4111 80.3145C37.787 81.3442 37.4381 82.517 37.398 83.7204C37.3579 84.9238 37.6278 86.1172 38.1819 87.1862L38.7413 88.3049H65.5288L62.6698 82.5872C61.7983 80.882 60.4719 79.4511 58.8375 78.4529C57.2031 77.4548 55.3243 76.9283 53.4092 76.9317H44.2728H44.3971Z" fill="#4D4D4D"/>
<path d="M45.5777 91.8477H40.6677L45.5777 101.605L58.0702 126.278H84.9199L67.4552 91.8477H45.5777Z" fill="#4D4D4D"/>
<path d="M99.3393 240.011L100.209 238.271H73.422L72.8626 239.389C72.4283 240.253 72.1755 241.197 72.1197 242.162C72.0639 243.128 72.2064 244.094 72.5382 245.002C72.8701 245.911 73.3844 246.741 74.0495 247.443C74.7145 248.145 75.5162 248.704 76.4052 249.084C77.959 237.898 85.4173 247.096 89.7679 245.977C91.011 245.604 92.5648 246.661 94.1807 247.655C95.5228 246.686 96.6104 245.407 97.3505 243.926L98.9043 240.881H98.4692L99.3393 240.011Z" fill="#4D4D4D"/>
<path d="M59.8107 161.578L83.1177 133.301H57.5732L45.5778 147.781L34.2662 161.578H45.5778H59.8107Z" fill="#4D4D4D"/>
<path d="M92.1923 193.275H114.816H117.737L114.816 189.67L94.4298 165.06H68.8853L92.1923 193.275Z" fill="#4D4D4D"/>
<path d="M83.1177 193.275L59.9971 165.06H34.4526L43.4647 175.936C44.0804 176.147 44.6823 176.396 45.2671 176.681C45.2671 176.681 45.2671 177.427 45.2671 178.359L45.5778 178.794L57.5732 193.275H83.1177Z" fill="#4D4D4D"/>
<path d="M114.815 209.558L119.477 200.298H114.815H92.6891L75.2243 234.79H102.012L114.815 209.558Z" fill="#4D4D4D"/>
<path d="M100.272 88.305L97.3508 82.6494C96.5098 80.9283 95.2008 79.4791 93.5739 78.4678C91.9469 77.4565 90.0679 76.9241 88.1523 76.9317H79.0159C77.8119 76.9352 76.6289 77.2481 75.5806 77.8405C74.5324 78.4329 73.654 79.2849 73.0299 80.3146C72.4058 81.3443 72.057 82.5171 72.0168 83.7205C71.9767 84.9238 72.2466 86.1173 72.8007 87.1863L73.3601 88.305H100.272Z" fill="#4D4D4D"/>
<path d="M119.477 126.278H114.815H92.6891L75.2243 91.8477H102.074L114.815 117.018L119.477 126.278Z" fill="#4D4D4D"/>
<path d="M99.8982 118.821L94.8639 115.775L91.9427 121.307C93.5587 121.866 95.4233 123.171 96.6663 122.736C97.9093 122.301 98.8416 120.188 99.8982 118.821Z" fill="#4D4D4D"/>
<path d="M166.588 243.926L169.447 238.271H142.597L142.038 239.389C141.484 240.458 141.214 241.652 141.254 242.855C141.294 244.058 141.643 245.231 142.267 246.261C142.891 247.291 143.769 248.143 144.818 248.735C145.866 249.327 147.049 249.64 148.253 249.644H157.327C159.25 249.648 161.136 249.116 162.773 248.105C164.409 247.095 165.73 245.647 166.588 243.926Z" fill="#4D4D4D"/>
<path d="M172.803 126.278H188.652L183.99 117.018L171.56 92.1582H144.773L162.175 126.589H162.921L162.548 123.233L172.803 126.278Z" fill="#4D4D4D"/>
<path d="M117.737 133.301H114.816H92.1923L68.8232 161.578H94.4298L114.816 136.905L117.737 133.301Z" fill="#4D4D4D"/>
<path d="M122.77 76.9316H113.634C112.43 76.9351 111.247 77.2481 110.199 77.8405C109.15 78.4329 108.272 79.2848 107.648 80.3145C107.024 81.3442 106.675 82.517 106.635 83.7204C106.595 84.9237 106.865 86.1172 107.419 87.1862L107.978 88.3049H134.579L131.72 82.5872C130.954 81.1223 129.845 79.8643 128.488 78.9204C126.499 78.388 124.547 77.7236 122.646 76.9316H122.77Z" fill="#4D4D4D"/>
<path d="M151.484 154.68L160.745 147.595C166.711 147.364 172.595 146.124 178.147 143.928L183.99 136.843L185.73 134.668V133.301H172.74L168.265 138.956C166.774 137.527 164.412 136.284 163.915 134.544C163.915 134.171 163.915 133.736 163.915 133.301H161.615L138.308 161.578H163.604H162.361C158.507 160.895 155.089 157.042 151.484 154.68Z" fill="#4D4D4D"/>
<path d="M130.353 242.311C127.69 244.53 124.91 246.604 122.024 248.525C121.222 249.173 120.289 249.64 119.29 249.893H122.77C124.683 249.886 126.556 249.348 128.18 248.338C129.804 247.328 131.116 245.887 131.969 244.175L134.579 238.333H128.364L129.98 239.203C130.272 239.66 130.457 240.176 130.521 240.714C130.586 241.252 130.528 241.798 130.353 242.311V242.311Z" fill="#4D4D4D"/>
<path d="M114.815 165.06H103.503L114.815 178.794L126.748 193.275H152.355L128.986 165.06H114.815Z" fill="#4D4D4D"/>
<path d="M154.033 200.298H127.308L114.877 225.157L109.719 234.604H114.505C116.928 233.05 118.234 229.632 120.16 227.022C121.503 224.963 123.26 223.206 125.319 221.864C126.624 221.056 128.737 221.491 130.54 221.366C130.105 222.796 130.167 224.909 129.235 225.53C124.138 228.824 122.398 231.745 124.138 234.604H136.569L154.033 200.298Z" fill="#4D4D4D"/>
<path d="M159.44 175.997C160.741 173.087 162.301 170.299 164.102 167.669C164.102 167.669 164.972 167.669 165.842 167.669L163.542 164.872H137.998L161.305 193.088H168.328C168.918 192.245 169.708 191.561 170.628 191.099C172.119 190.291 174.916 192.093 176.843 192.777L176.346 193.274H186.912L183.99 189.669L168.39 171.025C168.39 173.697 167.707 176.37 167.334 178.98L159.44 175.997Z" fill="#4D4D4D"/>
<path d="M144.772 84.8867C145.383 84.7166 146.028 84.7134 146.64 84.8773C147.252 85.0413 147.809 85.3665 148.253 85.819C148.253 86.3161 148.253 87.1862 148.253 88.3049H169.447L166.588 82.6494C165.73 80.928 164.409 79.4805 162.773 78.4701C161.136 77.4598 159.25 76.927 157.327 76.9317H148.191C146.987 76.9351 145.804 77.2481 144.755 77.8405C143.707 78.4329 142.829 79.2848 142.205 80.3145C141.581 81.3442 141.232 82.517 141.192 83.7204C141.152 84.9238 141.421 86.1173 141.976 87.1862L142.597 88.3049H143.778C143.627 87.6981 143.64 87.0622 143.815 86.4618C143.989 85.8615 144.32 85.318 144.772 84.8867Z" fill="#4D4D4D"/>
<path d="M116.555 244.112C115.001 237.027 110.34 242.185 106.922 242.123C106.807 243.07 106.895 244.031 107.181 244.941C107.466 245.851 107.942 246.689 108.578 247.401C109.213 248.112 109.992 248.681 110.864 249.067C111.736 249.454 112.68 249.65 113.634 249.643H119.104C118.109 249.581 117.674 248.09 116.555 244.112Z" fill="#4D4D4D"/>
<path d="M177.216 88.3049H204.066L201.766 83.8302C200.834 85.6946 200.212 87.1862 199.777 87.1241C196.77 86.5692 193.801 85.8218 190.89 84.8867C191.511 83.768 192.133 81.7171 192.754 81.7171C195.5 81.7237 198.242 81.9314 200.958 82.3386C200.068 80.7211 198.765 79.3685 197.182 78.4187C195.599 77.4688 193.792 76.9557 191.946 76.9316H182.81C181.606 76.9351 180.423 77.2481 179.375 77.8405C178.326 78.4329 177.448 79.2848 176.824 80.3145C176.2 81.3442 175.851 82.517 175.811 83.7204C175.771 84.9237 176.041 86.1172 176.595 87.1862L177.216 88.3049Z" fill="#4D4D4D"/>
<path d="M126.748 133.301L114.815 147.595L114.131 148.403H133.647C134.02 148.403 134.393 148.9 135.822 149.957C134.393 151.51 132.963 154.307 131.658 154.307C124.697 153.996 117.736 153.313 110.837 152.567L103.503 161.578H128.985L152.292 133.301H126.748Z" fill="#4D4D4D"/>
<path d="M136.63 91.8477H114.815H109.842L114.815 101.605L127.307 126.278H154.095L136.63 91.8477Z" fill="#4D4D4D"/>
<path d="M223.27 200.298H196.483L183.99 224.971L179.018 234.79H183.99H205.806L223.27 200.298Z" fill="#4D4D4D"/>
<path d="M253.166 88.3049H273.241L270.382 82.5872C269.499 80.8909 268.17 79.4677 266.538 78.471C264.906 77.4744 263.033 76.9421 261.121 76.9316H251.985C250.781 76.9351 249.598 77.2481 248.549 77.8405C247.501 78.4329 246.623 79.2848 245.999 80.3145C245.375 81.3442 245.026 82.517 244.986 83.7204C244.945 84.9237 245.215 86.1172 245.77 87.1862V87.6212L247.137 88.3049H253.166Z" fill="#4D4D4D"/>
<path d="M204.003 238.333H177.216L176.657 239.39C176.102 240.459 175.832 241.652 175.873 242.855C175.913 244.059 176.262 245.232 176.886 246.261C177.51 247.291 178.388 248.143 179.436 248.735C180.485 249.328 181.668 249.641 182.872 249.644H191.946C193.859 249.637 195.732 249.099 197.356 248.089C198.98 247.08 200.292 245.638 201.144 243.926L204.003 238.333Z" fill="#4D4D4D"/>
<path d="M226.502 249.644C228.425 249.648 230.311 249.116 231.948 248.105C233.584 247.095 234.905 245.647 235.763 243.926L238.622 238.271H211.772L211.275 239.389C210.721 240.458 210.451 241.652 210.491 242.855C210.531 244.058 210.88 245.231 211.504 246.261C212.128 247.291 213.006 248.143 214.055 248.735C215.103 249.327 216.286 249.64 217.49 249.644H226.502Z" fill="#4D4D4D"/>
<path d="M191.076 179.665L196.11 173.947C200.026 173.947 203.133 173.947 206.116 174.63L198.161 165.06H172.679L183.99 178.67L195.924 193.151H221.592L215.377 185.569C209.433 185.212 203.528 184.36 197.726 183.021C195.357 182.233 193.116 181.102 191.076 179.665Z" fill="#4D4D4D"/>
<path d="M204.376 119.131L210.591 122.549C210.591 123.854 210.591 125.594 209.97 125.967H209.41H223.27L205.806 91.6611H179.018L183.99 101.418L196.421 125.843C198.153 125.366 199.761 124.518 201.135 123.36C202.508 122.201 203.614 120.758 204.376 119.131V119.131Z" fill="#4D4D4D"/>
<path d="M214.693 82.898C222.213 83.8302 229.858 84.6381 237.378 85.819L235.762 82.6494C234.905 80.928 233.584 79.4805 231.947 78.4701C230.311 77.4598 228.425 76.927 226.502 76.9317H217.428C216.224 76.9351 215.041 77.2481 213.992 77.8405C212.944 78.4329 212.066 79.2848 211.442 80.3145C210.817 81.3442 210.469 82.517 210.429 83.7204C210.388 84.9238 210.658 86.1173 211.212 87.1862L211.772 88.3049H225.134L213.823 84.0166C214.071 83.6438 214.444 82.8358 214.693 82.898Z" fill="#4D4D4D"/>
<path d="M252.296 134.109V133.301H230.853L221.593 144.55L223.457 146.103L219.542 146.974L207.546 161.578H232.78L253.166 136.719L253.85 135.911C253.365 135.282 252.846 134.681 252.296 134.109V134.109Z" fill="#4D4D4D"/>
<path d="M188.652 200.298H183.99H161.864L144.4 234.79H171.187L183.99 209.558L188.652 200.298Z" fill="#4D4D4D"/>
<path d="M247.695 113.973C248.414 113.081 249.078 112.147 249.684 111.176C249.684 112.233 250.244 113.227 250.43 114.284C250.38 115.931 250.633 117.574 251.176 119.131C252.727 121.337 254.452 123.415 256.335 125.346L255.278 125.968H257.888L253.165 116.707L241.605 93.8366L240.051 93.4637L234.83 91.5371H213.636L231.039 125.968H249.001C247.633 122.674 246.328 119.753 245.085 116.148C244.899 116.024 246.825 114.905 247.695 113.973Z" fill="#4D4D4D"/>
<path d="M184.301 151.573C183.468 151.481 182.625 151.604 181.852 151.931C181.08 152.257 180.404 152.776 179.889 153.437C179.594 155.375 178.726 157.179 177.396 158.619C176.067 160.059 174.338 161.068 172.43 161.517H197.913L206.614 151.014C199.502 153.957 191.552 154.156 184.301 151.573V151.573Z" fill="#4D4D4D"/>
<path d="M187.657 143.369C189.353 143.665 190.989 144.232 192.505 145.047C197.291 147.595 198.347 145.793 197.104 140.883C197.104 140.013 199.218 138.521 200.398 137.278C203.382 144.985 209.473 141.753 214.631 141.691L221.592 133.301H197.353L194.805 134.792L187.657 143.369Z" fill="#4D4D4D"/>
<path d="M251.301 154.929C257.516 150.392 259.256 146.974 257.516 142.499L253.103 147.844L241.729 161.641H245.272C245.334 158.596 248.255 157.166 251.301 154.929Z" fill="#4D4D4D"/>
<path d="M226.75 180.658C225.321 181.466 223.954 182.585 222.524 183.579L230.542 193.275H256.086L253.165 189.67L232.779 164.811H207.235L217.303 177.24L220.1 178.048C222.338 178.67 224.513 179.788 226.75 180.658Z" fill="#4D4D4D"/>
<path d="M253.165 133.301H252.295V133.86C253.162 133.912 254.009 134.145 254.781 134.544L255.838 133.301H253.165Z" fill="#4D4D4D"/>
<path d="M300.215 110.306C299.593 108.317 295.118 107.261 292.197 106.328C291.501 106.173 290.78 106.173 290.084 106.328L296.299 118.758H296.796C298.02 117.741 298.972 116.437 299.569 114.962C300.165 113.487 300.387 111.888 300.215 110.306V110.306Z" fill="#4D4D4D"/>
<path d="M266.777 165.06C264.726 169.161 266.777 184.823 270.071 185.755C271.687 186.19 275.665 184.077 275.851 182.71C276.221 180.511 276.429 178.289 276.473 176.06L267.399 165.06H266.777Z" fill="#4D4D4D"/>
<path d="M319.233 193.275H324.081C322.469 193.119 320.846 193.119 319.233 193.275V193.275Z" fill="#4D4D4D"/>
<path d="M282.501 183.331C281.871 183.867 281.326 184.496 280.885 185.196C279.393 187.806 276.41 190.292 275.664 193.275H290.705L282.501 183.331Z" fill="#4D4D4D"/>
<path d="M277.156 200.297C277.072 203.451 277.196 206.607 277.529 209.744C277.529 210.614 280.202 211.671 281.569 211.609C282.937 211.546 283.931 210.055 285.112 209.185C284.672 210.647 284.09 212.063 283.372 213.411C282.631 214.948 281.467 216.242 280.015 217.14C279.074 217.654 278.038 217.974 276.971 218.081C275.903 218.187 274.825 218.079 273.8 217.761C272.806 217.326 272.806 214.343 272.806 212.479C272.806 208.874 273.241 205.269 273.49 201.665L269.015 203.094C269.433 202.12 269.726 201.097 269.885 200.049H265.223L252.793 224.908L247.821 234.728H274.981L290.892 203.529C290.088 202.669 289.512 201.623 289.214 200.484L277.156 200.297Z" fill="#4D4D4D"/>
<path d="M318.052 184.45L315.255 181.094C313.188 180.914 311.108 180.914 309.04 181.094C306.741 181.094 304.317 179.416 302.204 179.788C300.09 180.161 296.548 181.777 295.988 183.455C295.429 185.133 295.367 186.376 295.056 187.868L299.717 193.523H317.058C316.853 192.539 316.853 191.524 317.058 190.54C317.577 188.545 317.91 186.506 318.052 184.45V184.45Z" fill="#4D4D4D"/>
<path d="M297.977 96.5087C297.977 95.763 300.711 95.2658 302.141 94.6443L303.446 91.6611H282.812L289.959 105.893C292.065 105.281 293.946 104.066 295.37 102.399C296.794 100.731 297.7 98.6842 297.977 96.5087V96.5087Z" fill="#4D4D4D"/>
<path d="M320.29 136.284L322.279 133.301H318.861C319.13 134.382 319.616 135.397 320.29 136.284V136.284Z" fill="#4D4D4D"/>
<path d="M261.058 165.867C261.058 165.867 260.25 165.308 259.318 165.06H254.781C252.046 166.489 249.684 171.274 246.452 165.06H241.853L253.165 178.67L255.962 182.026L257.888 180.597C266.59 177.303 261.12 170.964 261.058 165.867Z" fill="#4D4D4D"/>
<path d="M305.933 88.3049H307.797L304.938 82.6493C304.086 80.9374 302.774 79.4961 301.15 78.4865C299.525 77.4768 297.652 76.9385 295.74 76.9316H286.603C285.399 76.9351 284.216 77.2481 283.168 77.8405C282.12 78.4329 281.241 79.2848 280.617 80.3145C279.993 81.3442 279.644 82.517 279.604 83.7204C279.564 84.9237 279.834 86.1172 280.388 87.1862L280.947 88.3049H305.125L306.057 86.3783C305.995 86.9998 305.995 87.6834 305.933 88.3049Z" fill="#4D4D4D"/>
<path d="M303.633 101.108C307.176 104.961 308.356 110.865 316.933 109.125C317.423 109.001 317.936 109.001 318.425 109.125L309.599 91.6611H305.684C305.684 93.2149 305.684 94.7064 305.249 96.2601C304.861 97.9224 304.32 99.5452 303.633 101.108Z" fill="#4D4D4D"/>
<path d="M321.595 120.933C320.849 122.736 319.979 124.476 319.357 126.278H326.94L322.403 117.08C322.35 118.401 322.077 119.703 321.595 120.933V120.933Z" fill="#4D4D4D"/>
<path d="M268.269 154.245C268.269 155.426 269.512 156.544 270.569 157.725L274.608 152.753C268.953 145.109 275.479 139.454 278.462 133.301H270.258C265.099 139.889 268.331 147.595 268.269 154.245Z" fill="#4D4D4D"/>
<path d="M279.704 165.059V169.285L285.92 176.991C289.773 176.991 294.87 177.986 296.921 172.703C298.537 168.477 301.085 167.793 304.814 170.217L306.803 171.398L301.582 165.183L279.704 165.059Z" fill="#4D4D4D"/>
<path d="M309.6 234.79H282.75L300.215 200.298H322.341H327.002L322.341 209.558L309.6 234.79Z" fill="#4D4D4D"/>
<path d="M312.769 206.948C315.877 206.451 318.985 206.078 322.092 205.456C322.9 205.456 323.522 204.213 325.386 202.598C321.901 201.972 318.361 201.702 314.82 201.79C314.012 201.914 313.515 205.146 312.769 206.948Z" fill="#4D4D4D"/>
<path d="M283.247 133.301C282.732 134.622 282.548 136.048 282.711 137.456C282.873 138.864 283.377 140.211 284.179 141.38L290.705 133.301H283.247Z" fill="#4D4D4D"/>
<path d="M320.166 139.516C320.166 138.583 320.166 137.651 320.166 136.719C318.425 135.6 315.318 134.419 315.193 133.301H299.78L288.406 147.036C288.406 147.781 288.406 148.527 288.406 149.149C290.703 148.995 293.008 148.995 295.305 149.149C295.533 153.289 295.533 157.438 295.305 161.578H301.955L320.166 139.516Z" fill="#4D4D4D"/>
<path d="M250.12 95.5144L253.165 101.729L265.596 126.589H285.671L287.908 117.577L275.043 91.6611H253.725L254.968 92.3448C252.668 93.8985 251.425 95.5765 250.12 95.5144Z" fill="#4D4D4D"/>
<path d="M261.37 137.838C264.042 138.335 266.404 137.154 268.269 133.301H265.099L261.37 137.838Z" fill="#4D4D4D"/>
<path d="M320.289 176.308L323.148 174.63C322.176 172.121 321.468 169.518 321.035 166.862C321.039 166.235 321.188 165.618 321.47 165.06H310.967L320.289 176.308Z" fill="#4D4D4D"/>
<path d="M270.382 243.926L273.179 238.333H246.453L245.894 239.39C245.34 240.459 245.07 241.652 245.11 242.855C245.15 244.059 245.499 245.232 246.123 246.261C246.747 247.291 247.626 248.143 248.674 248.735C249.722 249.328 250.905 249.641 252.109 249.644H261.121C263.041 249.635 264.922 249.096 266.555 248.087C268.189 247.078 269.513 245.639 270.382 243.926V243.926Z" fill="#4D4D4D"/>
<path d="M321.035 76.9316C319.831 76.9351 318.648 77.2481 317.6 77.8405C316.551 78.4329 315.673 79.2848 315.049 80.3145C314.425 81.3442 314.076 82.517 314.036 83.7204C313.996 84.9237 314.266 86.1172 314.82 87.1862L315.379 88.3049H342.415L339.556 82.5872C338.674 80.8909 337.345 79.4677 335.713 78.471C334.081 77.4744 332.208 76.9421 330.296 76.9316H321.035V76.9316Z" fill="#4D4D4D"/>
<path d="M257.827 200.298H253.165H231.039L213.574 234.79H240.424L253.165 209.558L257.827 200.298Z" fill="#4D4D4D"/>
<path d="M286.603 249.644H295.74C297.652 249.637 299.525 249.099 301.15 248.089C302.774 247.079 304.086 245.638 304.938 243.926L307.797 238.271H281.01L280.45 239.389C279.898 240.454 279.628 241.641 279.666 242.84C279.703 244.038 280.046 245.207 280.663 246.235C281.28 247.263 282.15 248.116 283.189 248.712C284.229 249.309 285.404 249.63 286.603 249.644V249.644Z" fill="#4D4D4D"/>
<path d="M292.135 161.144C293.106 159.056 293.242 156.676 292.514 154.492C291.786 152.307 290.249 150.485 288.219 149.397C287.139 149.847 286.1 150.387 285.112 151.013L280.512 156.607C279.967 158.209 279.673 159.886 279.642 161.579H292.073C292.073 161.579 292.073 161.268 292.135 161.144Z" fill="#4D4D4D"/>
<path d="M316.063 126.278C316.474 124.56 316.765 122.816 316.933 121.057C316.933 119.131 315.566 117.142 314.82 115.153C312.609 115.937 310.517 117.025 308.605 118.385C307.611 119.317 308.605 121.679 307.611 123.046C307.189 123.516 306.651 123.866 306.051 124.062C305.451 124.259 304.81 124.294 304.192 124.165C301.83 122.673 299.779 122.052 298.288 122.798L300.028 126.278H316.063Z" fill="#4D4D4D"/>
<path d="M368.52 234.604H352.112L369.639 200.111H391.392C390.384 202.622 389.715 205.255 389.403 207.942C389.528 209.114 390.082 210.198 390.957 210.987L388.222 216.332C384.866 213.535 379.769 214.654 375.792 213.473C374.922 213.163 373.554 214.281 372.435 214.716C373.468 215.434 374.598 216 375.792 216.394C379.521 217.264 383.25 218.01 386.979 218.756L382.628 227.457C377.528 228.957 372.747 231.38 368.52 234.604Z" fill="#4D4D4D"/>
<path d="M361.311 229.756C365.102 228.078 368.769 226.276 372.622 224.411C371.876 223.914 371.193 223.106 370.882 223.231C367.339 224.722 363.859 226.338 360.316 227.892L361.311 229.756Z" fill="#4D4D4D"/>
<path d="M355.343 120.064C354.66 122.115 354.038 124.166 353.417 126.279H361.621L352.484 108.193C352.145 110.263 352.223 112.379 352.714 114.417C353.205 116.456 354.099 118.376 355.343 120.064Z" fill="#4D4D4D"/>
<path d="M365.164 239.203L365.786 238.271H350.185L349.626 239.389C349.072 240.458 348.802 241.652 348.842 242.855C348.882 244.058 349.231 245.231 349.855 246.261C350.479 247.291 351.358 248.143 352.406 248.735C353.454 249.327 354.637 249.64 355.841 249.644H364.916C364.916 244.796 359.881 242.248 357.768 238.333C360.316 238.643 364.543 239.949 365.164 239.203Z" fill="#4D4D4D"/>
<path d="M378.775 234.604V234.106C377.035 234.106 375.357 234.106 373.678 234.604H378.775Z" fill="#4D4D4D"/>
<path d="M361.621 200.298H334.833L322.341 224.971L317.368 234.79H322.341H344.156L361.621 200.298Z" fill="#4D4D4D"/>
<path d="M350.185 88.3049H376.973L374.114 82.6493C373.261 80.9374 371.949 79.4961 370.325 78.4865C368.701 77.4768 366.828 76.9385 364.915 76.9316H355.779C354.575 76.9351 353.392 77.2481 352.343 77.8405C351.295 78.4329 350.417 79.2848 349.793 80.3145C349.169 81.3442 348.82 82.517 348.78 83.7204C348.74 84.9237 349.01 86.1172 349.564 87.1862L350.185 88.3049Z" fill="#4D4D4D"/>
<path d="M339.681 243.926L342.478 238.333H315.69L315.193 239.39C314.639 240.459 314.369 241.652 314.409 242.855C314.449 244.059 314.798 245.232 315.422 246.261C316.047 247.291 316.925 248.143 317.973 248.735C319.021 249.328 320.204 249.641 321.408 249.644H330.296C332.237 249.658 334.144 249.13 335.802 248.12C337.46 247.11 338.803 245.658 339.681 243.926V243.926Z" fill="#4D4D4D"/>
<path d="M367.588 249.271C368.934 248.852 370.18 248.161 371.249 247.242C372.318 246.323 373.187 245.194 373.803 243.926L376.973 238.271H369.763C369.179 239.555 368.701 240.885 368.334 242.248C367.836 244.556 367.586 246.91 367.588 249.271V249.271Z" fill="#4D4D4D"/>
<path d="M391.515 249.644H399.471C401.394 249.649 403.28 249.116 404.916 248.106C406.553 247.095 407.874 245.648 408.731 243.926L411.528 238.333H401.398C398.041 240.508 395.182 243.056 391.391 245.045C390.417 245.737 389.483 246.484 388.594 247.282C389.27 246.056 389.872 244.79 390.397 243.491C390.832 241.751 391.142 240.073 391.515 238.333H384.741L384.244 239.39C383.689 240.459 383.42 241.652 383.46 242.855C383.5 244.059 383.849 245.232 384.473 246.261C385.097 247.291 385.975 248.143 387.023 248.735C388.072 249.328 389.255 249.641 390.459 249.644H391.515Z" fill="#4D4D4D"/>
<path d="M343.162 140.324C344.218 137.962 345.275 135.662 346.394 133.301H334.336L325.697 143.742C326.333 144.954 327.174 146.048 328.183 146.974C328.183 147.284 327.872 148.341 327.686 149.024C326.132 148.403 324.081 148.092 322.651 147.471L322.341 147.781L310.967 161.578H322.962C322.854 161.004 322.688 160.441 322.465 159.9C321.906 158.595 321.222 157.228 320.6 155.923C321.253 155.7 321.917 155.513 322.589 155.364C323.391 156.882 324.017 158.488 324.454 160.149C324.404 160.668 324.211 161.164 323.895 161.578H332.099C332.72 160.646 333.59 159.776 334.274 158.844V161.578H336.76L344.591 152.07C345.038 148.096 344.549 144.074 343.162 140.324Z" fill="#4D4D4D"/>
<path d="M352.112 142.375L359.57 133.301H350.62C350.186 134.386 349.688 135.444 349.128 136.47C346.58 141.38 345.896 143.68 352.112 142.375Z" fill="#4D4D4D"/>
<path d="M379.396 133.301H394.499L391.516 136.905L371.13 161.765H345.585L367.276 135.165C369.763 136.222 374.051 135.849 375.045 138.086C376.669 136.658 378.129 135.053 379.396 133.301V133.301Z" fill="#4D4D4D"/>
<path d="M369.887 158.595L365.909 155.923L364.294 157.849C365.785 158.471 367.277 159.155 368.768 159.652C369.017 160.025 369.514 158.968 369.887 158.595Z" fill="#4D4D4D"/>
<path d="M330.544 117.764L324.329 105.334H324.764C325.607 104.483 326.357 103.546 327.002 102.537C326.132 102.537 325.137 102.537 324.578 102.537C324.182 102.872 323.846 103.271 323.583 103.718L322.34 101.294L317.368 91.5371H344.218L348.568 100.176C350.06 107.758 344.715 112.978 343.845 119.566L348.196 114.843C349.439 116.77 352.111 119.193 351.614 120.623C351.117 122.052 350.184 124.165 349.439 125.968H342.042C341.576 125.511 341.054 125.114 340.489 124.787C338.127 123.482 335.268 120.685 333.465 121.244C331.663 121.804 332.844 111.673 330.544 117.764Z" fill="#4D4D4D"/>
<path d="M335.207 98.2491C335.89 98.2491 336.574 98.2491 337.258 98.2491L341.546 97.2547C340.546 97.0282 339.526 96.9033 338.501 96.8818C337.377 97.2725 336.277 97.729 335.207 98.2491Z" fill="#4D4D4D"/>
<path d="M373.865 172.455C374.74 172.006 375.686 171.711 376.661 171.585L391.516 189.546L394.499 193.151H368.892L357.084 178.67C359.393 178.472 361.641 177.822 363.699 176.755C365.758 175.689 367.585 174.228 369.079 172.455C369.825 172.455 372.559 173.263 373.865 172.455Z" fill="#4D4D4D"/>
<path d="M374.61 190.043L371.814 188.986C371.814 189.732 371.068 190.789 371.378 191.162C372.097 191.854 372.94 192.402 373.865 192.777C374.051 192.032 374.3 191.099 374.61 190.043Z" fill="#4D4D4D"/>
<path d="M339.37 174.07L329.923 178.856L332.533 182.212C331.296 182.513 330.089 182.929 328.928 183.455L327.25 184.884L330.855 189.297C331.601 189.297 332.595 187.743 333.528 186.935C334.211 187.992 335.454 189.421 335.144 189.794C334.569 190.617 333.854 191.333 333.03 191.907L334.398 193.523H359.88L347.45 178.234L343.845 177.302L339.37 174.07Z" fill="#4D4D4D"/>
<path d="M364.542 98.8705C365.785 98.8705 368.023 101.294 367.774 101.916C366.282 105.769 364.418 109.56 362.553 113.351L367.526 123.109C367.652 122.145 367.839 121.19 368.085 120.25C368.085 119.877 370.695 120.25 372.125 120.25C373.181 118.509 374.362 116.894 375.232 115.091C376.973 111.3 378.589 107.447 380.267 103.594C379.397 107.074 377.097 110.989 378.029 113.848C379.471 117.84 380.268 122.036 380.391 126.278H396.24L394.562 122.922L392.573 124.227C391.703 123.109 389.962 121.803 390.149 120.871C390.335 119.939 390.833 117.764 391.143 116.21L378.713 91.8477H352.112L355.282 98.0625C355.965 98.4354 356.649 98.9326 357.395 99.4298C359.752 98.9996 362.147 98.8122 364.542 98.8705V98.8705Z" fill="#4D4D4D"/>
<path d="M385.922 82.7116H389.651C388.216 83.4313 386.689 83.954 385.114 84.2653C384.581 84.3776 384.031 84.3776 383.498 84.2653C383.472 85.3484 383.729 86.4196 384.244 87.3727L384.803 88.4914H411.591L408.732 82.7737C407.86 81.0685 406.534 79.6376 404.899 78.6395C403.265 77.6413 401.386 77.1148 399.471 77.1182H390.335C388.632 77.1388 386.996 77.7826 385.737 78.9279C384.477 80.0731 383.68 81.6403 383.498 83.3331H385.86L385.922 82.7116Z" fill="#4D4D4D"/>
<path d="M374.238 168.851L371.13 165.06H345.896L353.23 174.32C359.818 172.952 366.22 170.031 372.808 169.037L374.238 168.851Z" fill="#4D4D4D"/>
<path d="M384.307 165.06H380.205L381.758 166.924C382.721 166.475 383.587 165.841 384.307 165.06V165.06Z" fill="#4D4D4D"/>
<path d="M396.674 159.341C400.714 158.72 404.816 158.347 409.105 157.787L414.388 151.573C412.171 151.035 410.067 150.109 408.173 148.838C405.003 145.793 403.698 145.544 403.014 150.392C403.014 151.137 400.279 151.51 398.85 152.07C398.85 150.578 398.85 148.216 399.471 147.719C402.515 145.721 405.819 144.153 409.291 143.058C409.291 143.058 411.156 146.974 412.399 148.962C413.127 149.853 413.986 150.629 414.947 151.262L429.056 133.301H403.511L391.516 147.595L380.204 161.392H386.792C388.035 160.025 393.318 160.025 396.674 159.341Z" fill="#4D4D4D"/>
<path d="M356.4 100.611L361.434 110.306C361.516 108.317 361.169 106.333 360.419 104.489C359.668 102.645 358.531 100.983 357.084 99.6162L356.4 100.611Z" fill="#4D4D4D"/>
<path d="M339.681 173.76C341.374 174.327 343.125 174.703 344.902 174.879L336.822 165.06H333.466C332.223 169.659 332.907 173.201 339.681 173.76Z" fill="#4D4D4D"/>
<path d="M323.459 174.817C323.459 178.981 325.262 181.032 329.675 178.608C330.234 174.133 330.669 169.596 331.291 165.06H323.522L323.459 174.817Z" fill="#4D4D4D"/>
<path d="M393.753 220.62C397.42 222.111 401.15 223.665 404.941 224.908C406.308 225.343 408.235 224.224 409.913 223.851C407.489 218.382 413.021 211.422 406.93 206.698C406.308 203.467 410.597 202.472 412.337 200.483H404.009L393.753 220.62Z" fill="#4D4D4D"/>
<path d="M394.997 104.091C394.997 105.582 394.997 107.136 394.997 108.628L403.946 126.34H430.796L413.394 91.6611H386.606L391.516 101.418L393.567 105.396C393.567 104.712 393.567 103.967 394.064 103.221C394.562 102.475 394.997 104.091 394.997 104.091Z" fill="#4D4D4D"/>
<path d="M425.327 152.256C424.777 154.071 424.484 155.954 424.457 157.85C426.396 156.906 428.178 155.67 429.74 154.183C430.582 152.218 431.025 150.105 431.045 147.968C432.45 148.114 433.866 148.114 435.271 147.968C437.012 137.465 440.306 149.957 442.543 147.409C442.916 146.973 444.221 147.409 445.091 147.409C444.403 148.455 443.899 149.611 443.6 150.827C443.377 152.187 443.665 153.581 444.408 154.742C444.408 154.742 445.216 154.742 445.837 154.742L460.692 136.719L463.675 133.114H459.013V133.549C458.983 133.406 458.983 133.258 459.013 133.114H447.205C447.205 134.482 447.702 135.911 447.95 137.589C446.272 137.154 444.967 137.092 444.905 136.781C444.695 135.567 444.55 134.343 444.47 133.114H438.255L429.18 144.115C429.18 145.047 429.18 145.979 429.18 146.973C427.695 148.579 426.402 150.352 425.327 152.256V152.256Z" fill="#4D4D4D"/>
<path d="M424.954 249.644C423.75 249.64 422.567 249.327 421.518 248.735C420.47 248.143 419.592 247.291 418.968 246.261C418.343 245.231 417.995 244.058 417.954 242.855C417.914 241.652 418.184 240.458 418.738 239.389L419.298 238.271H446.147L443.288 243.926C442.442 245.643 441.131 247.088 439.506 248.098C437.88 249.109 436.004 249.644 434.09 249.644H424.954Z" fill="#4D4D4D"/>
<path d="M421.784 240.322C423.496 241.548 425.281 242.669 427.129 243.678C427.129 243.678 427.999 243.056 428.745 242.435L421.846 238.83C421.846 239.389 421.535 240.197 421.784 240.322Z" fill="#4D4D4D"/>
<path d="M428.434 192.467L428.123 193.275H429.056L428.434 192.467Z" fill="#4D4D4D"/>
<path d="M426.01 169.72L419.174 170.403L426.01 178.669C427.191 176.991 426.01 172.454 426.01 169.72Z" fill="#4D4D4D"/>
<path d="M413.082 187.93C414.707 188.369 416.433 188.246 417.979 187.58C419.525 186.914 420.8 185.745 421.597 184.263L412.088 172.455C411.093 173.076 410.285 173.635 409.788 173.325C403.076 169.658 397.731 173.325 391.516 175.003C390.512 175.218 389.474 175.218 388.47 175.003L391.516 178.732L403.511 193.212C405.313 189.11 407.24 186.438 413.082 187.93Z" fill="#4D4D4D"/>
<path d="M455.222 248.09C456.432 249.084 457.945 249.632 459.511 249.644H468.647C470.57 249.649 472.456 249.116 474.093 248.106C475.729 247.095 477.05 245.648 477.908 243.926L480.767 238.333H463.986C463.525 238.661 462.992 238.874 462.432 238.955C461.565 238.955 460.711 238.741 459.946 238.333H453.73L453.233 239.39C452.558 240.701 452.309 242.19 452.521 243.649C452.733 245.109 453.394 246.466 454.414 247.531L455.098 247.904L455.222 248.09Z" fill="#4D4D4D"/>
<path d="M410.534 189.795C408.883 190.818 407.323 191.983 405.873 193.275H411.342C411.094 192.094 410.845 191.1 410.534 189.795Z" fill="#4D4D4D"/>
<path d="M413.642 232.118C413.132 233.148 412.273 233.963 411.218 234.418C410.569 234.506 409.926 234.631 409.291 234.791H413.331L418.303 225.033C415.071 226.4 409.167 225.655 413.642 232.118Z" fill="#4D4D4D"/>
<path d="M429.74 182.088C431.051 182.457 432.424 182.554 433.774 182.371C435.124 182.188 436.422 181.73 437.587 181.025C438.753 180.32 439.761 179.383 440.549 178.272C441.338 177.161 441.89 175.9 442.17 174.568H446.832C451.058 176.618 449.939 179.539 448.324 182.709C446.708 185.879 446.335 187.992 445.34 190.602L449.194 192.964H459.449C458.827 190.975 457.584 188.986 458.952 187.246L440.306 164.748H436.328C436.328 165.742 436.328 167.234 436.328 168.291L429.74 182.088Z" fill="#4D4D4D"/>
<path d="M453.979 88.3049H480.767L477.908 82.5872C477.036 80.882 475.71 79.4511 474.075 78.4529C472.441 77.4548 470.562 76.9283 468.647 76.9317H459.511C458.307 76.9351 457.124 77.2481 456.075 77.8405C455.027 78.4329 454.149 79.2848 453.525 80.3145C452.9 81.3442 452.552 82.517 452.511 83.7204C452.471 84.9238 452.741 86.1172 453.295 87.1862L453.979 88.3049Z" fill="#4D4D4D"/>
<path d="M462.556 120.622L460.691 117.018L448.261 92.1582H421.411L438.876 126.589H459.883C458.764 122.735 459.697 120.995 462.556 120.622Z" fill="#4D4D4D"/>
<path d="M436.7 204.089C436.7 205.332 437.943 207.134 438.751 207.383C441.63 208.293 444.748 208.066 447.465 206.748C450.181 205.43 452.29 203.122 453.357 200.298H438.627L436.7 204.089Z" fill="#4D4D4D"/>
<path d="M405.251 230.005C405.686 229.197 402.579 225.344 400.776 225.095C398.304 224.72 395.785 225.34 393.769 226.82C391.754 228.299 390.407 230.517 390.024 232.988C389.962 233.379 389.962 233.778 390.024 234.169H386.854L386.543 234.728H401.522C403.081 233.431 404.351 231.822 405.251 230.005Z" fill="#4D4D4D"/>
<path d="M443.724 193.275H448.758L445.339 191.1L443.724 193.275Z" fill="#4D4D4D"/>
<path d="M419.36 88.3049H446.21L443.289 82.6493C442.442 80.9328 441.131 79.4876 439.506 78.4772C437.88 77.4667 436.004 76.9313 434.09 76.9316H424.954C423.75 76.9351 422.567 77.2481 421.518 77.8405C420.47 78.4329 419.592 79.2848 418.968 80.3145C418.344 81.3442 417.995 82.517 417.955 83.7204C417.914 84.9237 418.184 86.1172 418.739 87.1862L419.36 88.3049Z" fill="#4D4D4D"/>
<path d="M418.428 221.18H420.479L424.705 212.852C421.731 213.864 418.843 215.111 416.066 216.58C414.264 217.326 413.953 221.49 418.428 221.18Z" fill="#4D4D4D"/>
<path d="M438.628 193.275C443.165 188.116 448.758 183.207 446.956 175.189C441.673 178.297 439 185.133 432.039 185.879L438.255 193.275H438.628Z" fill="#4D4D4D"/>
<path d="M478.343 191.845C477.038 192.964 474.427 192.529 472.128 192.467L472.749 193.275H496.926C496.926 193.275 496.926 192.964 496.926 192.84C496.926 192.715 494.067 190.913 492.638 189.794C491.978 189.137 491.394 188.407 490.898 187.619L492.638 186.563L488.349 181.404C485.287 185.136 481.941 188.627 478.343 191.845V191.845Z" fill="#4D4D4D"/>
<path d="M520.419 160.46L519.611 161.578H518.555L529.928 147.595L541.862 133.301H567.406L564.547 136.843H564.236C564.236 137.216 563.863 137.651 563.739 138.086L544.099 161.827H520.295C520.29 161.368 520.332 160.91 520.419 160.46V160.46Z" fill="#4D4D4D"/>
<path d="M537.262 155.115C537.646 156.341 538.189 157.511 538.878 158.595C539.375 157.104 539.81 155.612 540.866 152.38C540.245 152.38 538.878 151.821 538.007 152.38C537.137 152.94 537.075 154.183 537.262 155.115Z" fill="#4D4D4D"/>
<path d="M502.52 179.292C508.735 175.314 507.368 182.958 509.916 184.636C513.925 187.19 517.709 190.08 521.228 193.275H532.85L529.929 189.67L515.945 172.828C515.51 173.885 515.137 174.879 514.64 175.998C513.024 174.133 511.656 173.077 511.843 172.704C512.365 171.777 512.946 170.884 513.583 170.031L509.543 165.06H483.999L503.017 188.117C505.565 185.631 507.492 182.586 502.52 179.292Z" fill="#4D4D4D"/>
<path d="M473.369 167.545C473.705 166.637 474.286 165.841 475.048 165.245C475.048 165.245 460.691 165.245 460.691 165.245H449.379L460.691 178.669L465.165 184.076C469.875 179.788 472.803 173.888 473.369 167.545Z" fill="#4D4D4D"/>
<path d="M480.393 173.201C479.336 175.625 478.218 178.049 477.285 180.472C476.788 181.84 476.602 183.269 476.229 184.636C477.658 184.636 479.585 184.636 480.393 183.828C482.133 181.902 483.749 179.789 485.365 177.613L475.856 166.24C475.856 166.986 475.856 167.732 475.483 168.478C474.426 172.766 476.415 173.636 480.393 173.201Z" fill="#4D4D4D"/>
<path d="M487.976 87.1863L488.536 88.305H515.385L512.464 82.6494C511.623 80.9283 510.314 79.4791 508.687 78.4678C507.06 77.4565 505.181 76.9241 503.266 76.9317H494.129C492.931 76.9457 491.755 77.2664 490.716 77.8631C489.676 78.4599 488.806 79.3129 488.189 80.3409C487.572 81.3688 487.229 82.5376 487.192 83.7359C487.155 84.9341 487.425 86.122 487.976 87.1863V87.1863Z" fill="#4D4D4D"/>
<path d="M528.188 133.301L529.68 137.154L509.542 161.578H483.936L507.491 133.301H528.188Z" fill="#4D4D4D"/>
<path d="M516.317 146.477C513.023 146.477 510.101 145.483 509.791 146.477C508.438 148.816 507.294 151.27 506.372 153.811C507.305 153.811 508.672 154.805 508.983 154.494C511.345 152.257 513.706 149.647 516.317 146.477Z" fill="#4D4D4D"/>
<path d="M491.83 135.973C492.451 135.165 493.011 134.171 493.632 133.301H486.112C486.174 135.849 488.846 135.911 491.83 135.973Z" fill="#4D4D4D"/>
<path d="M492.079 136.16L485.366 139.951C483.999 140.759 482.569 141.443 481.14 142.188C482.068 140.676 482.839 139.073 483.439 137.403C483.439 136.409 482.88 135.228 482.569 134.109C481.513 134.482 480.021 134.482 479.337 135.166C476.959 137.448 474.872 140.016 473.122 142.81C472.252 144.301 473.122 146.663 473.122 148.652L469.455 144.861C468.663 145.58 467.915 146.348 467.218 147.16C464.359 150.827 461.686 154.68 458.579 158.099C457.46 159.341 454.352 160.771 453.669 160.212C453.123 159.789 452.515 159.453 451.866 159.217L449.939 161.579H474.925L498.169 133.363L496.74 134.171L492.079 136.16Z" fill="#4D4D4D"/>
<path d="M473.184 126.278H500.033L482.568 91.8477H460.691H455.781L460.691 101.605L473.184 126.278Z" fill="#4D4D4D"/>
<path d="M529.928 178.669L541.862 193.15H566.722L565.169 191.534C562.984 189.401 561.195 186.897 559.886 184.139C559.886 184.139 544.099 164.935 544.099 164.935H519.238V165.37L529.928 178.669Z" fill="#4D4D4D"/>
<path d="M531.171 206.513C531.171 207.134 528.437 208.812 527.877 208.501C526.118 207.361 524.563 205.933 523.278 204.275C522.25 203.005 521.295 201.677 520.419 200.298C518.648 201.913 517.12 203.776 515.882 205.829C515.509 206.699 518.182 208.501 518.182 209.931C517.891 212.592 517.329 215.216 516.504 217.762C516.119 215.647 515.557 213.568 514.825 211.547C513.21 208.191 511.221 205.332 509.356 201.727C504.819 205.643 506.435 209.496 508.61 214.157C509.259 216.538 509.039 219.071 507.989 221.304C506.934 223.784 505.643 226.156 504.135 228.389C502.954 226.525 501.836 224.66 500.655 222.858L495.496 224.784L490.338 234.604H517.125L529.928 209.744L534.59 200.484H528.996L529.369 200.795C530.596 202.444 531.231 204.458 531.171 206.513V206.513Z" fill="#4D4D4D"/>
<path d="M448.82 219.502C442.605 223.479 437.508 228.389 431.666 232.615C430.485 233.423 428.496 233.175 426.818 233.423C427.875 232.553 428.869 231.559 429.988 230.751C437.26 225.344 434.276 218.321 433.282 212.106C433.324 211.88 433.324 211.648 433.282 211.422L421.162 234.604H447.95L460.38 209.371L465.104 200.111H461.25C461.25 200.422 461.25 200.671 461.25 200.795C455.47 206.078 455.719 214.903 448.82 219.502Z" fill="#4D4D4D"/>
<path d="M465.414 126.278L464.42 124.228C464.047 124.911 463.674 125.595 463.239 126.278H465.414Z" fill="#4D4D4D"/>
<path d="M472.687 133.301L467.031 140.137C470.745 138.568 474.09 136.24 476.851 133.301H472.687Z" fill="#4D4D4D"/>
<path d="M465.539 226.773L468.896 219.501C470.698 221.677 472.563 223.852 474.427 225.716L483.377 226.649C484.993 225.406 487.231 224.473 488.101 222.857C488.513 222.146 488.97 221.461 489.468 220.807L499.972 200.049H489.592C489.095 201.168 488.598 202.286 488.038 203.343C487.479 204.399 487.231 203.343 486.858 203.778L477.348 208.874C477.348 208.501 477.348 207.942 477.348 207.755L484.931 200.049H473.308L460.878 224.908L455.906 234.728H482.631L472.998 226.089L465.539 226.773Z" fill="#4D4D4D"/>
<path d="M503.886 208.75C503.886 208.315 503.886 207.88 503.886 207.383L497.671 220.185C498.666 220.807 499.722 221.553 500.717 222.299C501.835 217.824 502.892 213.287 503.886 208.75Z" fill="#4D4D4D"/>
<path d="M488.846 240.073L488.163 239.451C487.623 240.518 487.365 241.705 487.412 242.899C487.459 244.094 487.811 245.257 488.433 246.277C489.056 247.298 489.928 248.143 490.969 248.732C492.009 249.321 493.182 249.635 494.378 249.644H503.266C505.181 249.651 507.06 249.119 508.687 248.108C510.314 247.096 511.623 245.647 512.464 243.926L515.323 238.271H493.943H494.378C492.389 239.141 489.53 240.819 488.846 240.073Z" fill="#4D4D4D"/>
<path d="M579.713 160.336L599.104 136.905L599.601 136.222L597.799 135.414C594.816 134.171 597.799 143.742 592.578 138.397C591.412 136.901 590.604 135.157 590.216 133.301H576.481L557.214 156.917V157.85V157.415L553.795 161.578H571.26L579.278 157.85C579.464 158.72 579.588 159.528 579.713 160.336Z" fill="#4D4D4D"/>
<path d="M588.289 160.895C588.289 160.895 588.289 161.33 588.289 161.578H601.963C601.963 160.149 601.963 158.72 601.963 157.29C601.963 154.68 601.963 152.132 601.963 149.522C601.963 146.911 602.336 145.544 602.522 143.307L599.041 147.471L588.289 160.895Z" fill="#4D4D4D"/>
<path d="M592.267 222.173C590.651 225.591 585.306 228.388 587.543 232.552L593.075 221.552L592.267 222.173Z" fill="#4D4D4D"/>
<path d="M597.302 228.388L597.737 227.953C597.737 230.191 597.737 232.49 597.737 234.728H609.421C609.421 234.293 609.421 233.92 609.421 233.485C608.924 230.502 602.149 225.716 611.348 224.349C609.981 220.806 608.737 217.264 614.393 216.083C613.399 214.343 612.902 211.919 611.348 210.987C610.087 210.201 608.755 209.535 607.37 208.998L599.353 224.908L597.302 228.388Z" fill="#4D4D4D"/>
<path d="M593.324 165.06L601.963 170.156V165.06H593.324Z" fill="#4D4D4D"/>
<path d="M572.254 225.779C574.865 224.971 579.029 223.231 580.085 224.225C585.741 229.943 588.289 223.479 592.019 221.801C591.89 220.998 591.89 220.18 592.019 219.377C592.754 218.173 593.585 217.029 594.505 215.959C594.642 216.486 594.808 217.004 595.002 217.513L599.104 209.744L600.223 207.445L592.64 209.185C582.261 211.36 582.136 211.236 584.374 200.608H578.905C578.304 202.803 577.382 204.898 576.17 206.823C575.378 207.576 574.34 208.017 573.249 208.066L564.982 224.411C564.982 225.965 564.982 227.519 564.982 229.073C567.593 227.705 569.644 226.524 572.254 225.779Z" fill="#4D4D4D"/>
<path d="M597.301 187.495L591.645 193.275H601.527V192.405L599.29 189.67L597.301 187.495Z" fill="#4D4D4D"/>
<path d="M584.622 200.422C586.797 203.902 589.843 207.445 592.888 202.162C593.247 201.52 593.642 200.897 594.069 200.298H584.746L584.622 200.422Z" fill="#4D4D4D"/>
<path d="M596.866 200.298C597.189 200.925 597.479 201.568 597.736 202.224C598.583 203.582 599.705 204.746 601.03 205.643L603.144 201.479C603.144 201.044 603.144 200.671 603.144 200.298H596.928H596.866Z" fill="#4D4D4D"/>
<path d="M577.661 91.6611H571.135C571.921 93.7956 572.856 95.8723 573.932 97.876C574.911 99.6947 576.217 101.317 577.786 102.661C578.221 103.034 580.582 102.661 580.707 101.916C581.2 99.501 581.47 97.0462 581.515 94.5821L577.661 91.6611Z" fill="#4D4D4D"/>
<path d="M559.823 204.586C559.388 207.383 557.4 210.117 557.4 212.852C557.4 215.586 557.089 218.072 560.134 218.197L569.146 200.298H559.388C559.802 201.687 559.95 203.142 559.823 204.586V204.586Z" fill="#4D4D4D"/>
<path d="M567.655 168.788C567.001 167.661 566.718 166.357 566.847 165.06H553.173L563.428 177.862C563.738 177.827 564.051 177.827 564.361 177.862C572.005 176.557 572.005 174.817 567.655 168.788Z" fill="#4D4D4D"/>
<path d="M547.083 82.5872C546.216 80.8913 544.899 79.4666 543.277 78.4691C541.654 77.4716 539.789 76.9397 537.884 76.9316H528.748C527.544 76.9351 526.361 77.2481 525.312 77.8405C524.264 78.4329 523.386 79.2848 522.762 80.3145C522.138 81.3442 521.789 82.517 521.749 83.7204C521.709 84.9238 521.978 86.1172 522.533 87.1862L523.03 88.1806H523.465H548.326C548.741 87.9688 549.137 87.7192 549.507 87.4348L547.083 82.5872Z" fill="#4D4D4D"/>
<path d="M573.56 117.764C573.229 117.793 572.896 117.793 572.565 117.764L576.978 126.464H581.142C579.065 126.119 577.173 125.062 575.789 123.475C574.406 121.887 573.618 119.868 573.56 117.764V117.764Z" fill="#4D4D4D"/>
<path d="M573.435 87.2484C581.142 86.8133 584.249 87.2484 576.978 80.4741C576.591 80.115 576.298 79.6667 576.125 79.1683C575.952 78.67 575.903 78.1368 575.983 77.6153C574.855 77.1678 573.654 76.9359 572.44 76.9316H563.428C563.589 77.5873 563.713 78.2512 563.801 78.9204C564.485 84.7624 565.914 87.6834 573.435 87.2484Z" fill="#4D4D4D"/>
<path d="M594.132 247.034C593.815 247.282 593.483 247.511 593.137 247.717C594.154 248.74 595.494 249.377 596.929 249.52C596.117 248.809 595.57 247.846 595.375 246.785C594.94 247.034 594.505 247.034 594.132 247.034Z" fill="#4D4D4D"/>
<path d="M529.929 238.332H527.816C527.342 239.215 526.779 240.048 526.138 240.818C524.888 241.791 523.369 242.355 521.787 242.434C521.771 243.353 521.937 244.267 522.275 245.122C522.614 245.977 523.118 246.756 523.76 247.415C524.401 248.073 525.167 248.598 526.012 248.96C526.858 249.321 527.767 249.511 528.686 249.519H537.885C539.797 249.512 541.67 248.974 543.294 247.964C544.919 246.955 546.231 245.513 547.083 243.801L549.321 239.451L548.326 238.208L529.929 238.332Z" fill="#4D4D4D"/>
<path d="M532.85 133.301H532.353L531.731 134.482L532.85 133.301Z" fill="#4D4D4D"/>
<path d="M576.294 174.444C576.294 175.19 578.283 177.116 579.526 177.24C580.769 177.365 582.882 175.625 582.882 174.692C582.975 173.099 582.975 171.501 582.882 169.907L578.967 165.184C577.915 168.222 577.023 171.313 576.294 174.444Z" fill="#4D4D4D"/>
<path d="M568.525 100.798C567.339 101.472 566.286 102.357 565.417 103.408L567.903 108.318C569.916 107.575 571.803 106.527 573.497 105.21C573.932 103.905 574.305 102.662 574.74 101.419C572.627 101.17 570.079 100.052 568.525 100.798Z" fill="#4D4D4D"/>
<path d="M548.077 97.876L549.32 97.441C550.829 96.9147 552.303 96.2919 553.732 95.5765L551.744 91.6611H548.947C548.338 92.2577 547.695 92.818 547.02 93.3392L534.217 96.2601L529.182 97.441C530.594 96.2467 532.113 95.1857 533.719 94.2714L540.245 91.6611H524.956L529.928 101.418L533.844 109.187H534.59H533.968L542.359 125.781H558.953C558.082 124.883 557.272 123.928 556.529 122.922C556.078 122.24 555.664 121.534 555.286 120.809C553.457 120.035 551.691 119.121 550.003 118.074C548.846 117.041 547.842 115.848 547.02 114.532C548.574 114.532 550.687 114.159 551.619 114.967C553.166 116.627 554.483 118.488 555.535 120.498C556.776 120.645 558.002 120.894 559.202 121.244C560.763 121.91 562.278 122.679 563.739 123.543C562.993 124.165 562.185 125.097 561.439 125.781H569.208L562.309 112.232C557.213 108.068 554.105 101.418 548.077 97.876Z" fill="#4D4D4D"/>
<path d="M591.086 243.553L594.504 242.435C593.696 241.192 592.826 239.949 592.018 238.644L591.645 239.389C591.042 240.689 590.847 242.141 591.086 243.553Z" fill="#4D4D4D"/>
<path d="M528.872 227.021L527.816 229.134C528.7 230.88 529.067 232.842 528.872 234.79H551.744L557.959 222.919C556.033 221.552 551.744 221.428 549.818 219.75C547.891 218.072 544.597 225.965 543.602 219.75C543.167 216.705 542.608 211.111 549.507 212.23C550.377 212.23 552.117 210.925 552.366 209.992C552.987 207.631 552.366 204.71 553.485 202.721C554.146 201.753 555.017 200.946 556.033 200.359H542.484L532.353 219.75C532.353 219.75 532.353 220.371 532.788 220.744C534.404 225.778 534.466 226.275 528.872 227.021Z" fill="#4D4D4D"/>
<path d="M581.702 243.926L584.561 238.271H557.711L557.152 239.389C556.566 240.65 556.33 242.045 556.468 243.429C559.713 245.819 563.49 247.385 567.474 247.992C571.459 248.598 575.531 248.226 579.34 246.909C580.293 246.058 581.091 245.049 581.702 243.926V243.926Z" fill="#4D4D4D"/>
<path d="M586.301 234.604V234.169C583.628 234.169 580.645 234.666 580.086 230.44C580.086 229.819 576.605 228.7 575.424 229.259C573.489 230.65 571.14 231.345 568.759 231.232C566.378 231.12 564.106 230.205 562.31 228.638L559.265 234.853L586.301 234.604Z" fill="#4D4D4D"/>
<path d="M534.59 126.278H529.866H507.802L490.338 91.8477H517.187L529.866 117.018L534.59 126.278Z" fill="#4D4D4D"/>
<path d="M507.491 102.786L506.435 101.17C505.127 101.318 503.86 101.719 502.706 102.351C501.122 103.927 499.648 105.608 498.293 107.385C500.403 107.124 502.483 106.666 504.508 106.018C505.751 105.458 506.497 104.091 507.491 102.786Z" fill="#4D4D4D"/>
<path d="M562.31 249.519L560.445 248.96C561.02 249.276 561.656 249.466 562.31 249.519V249.519Z" fill="#4D4D4D"/>
<path d="M632.728 82.1523C630.997 81.024 629.083 80.2039 627.072 79.7285C626.245 80.7703 625.74 82.0308 625.618 83.3555C625.497 84.6802 625.764 86.0116 626.388 87.1864L626.948 88.305H634.655C635.188 87.2288 635.286 85.9882 634.927 84.8419C634.568 83.6955 633.78 82.732 632.728 82.1523V82.1523Z" fill="#4D4D4D"/>
<path d="M641.429 83.2708C642.824 83.8652 644.378 83.9747 645.842 83.5816C646.774 83.5816 648.079 81.0956 647.769 80.6606C647.272 79.8659 646.835 79.0349 646.463 78.1746C644.967 77.387 643.307 76.9612 641.616 76.9316H637.079C638.229 77.5986 639.217 78.5137 639.969 79.6103C640.722 80.7068 641.221 81.9573 641.429 83.2708V83.2708Z" fill="#4D4D4D"/>
<path d="M600.719 120.374L598.979 120.685L589.594 115.029L588.848 108.814L580.706 111.238C581.993 112.762 583.363 114.215 584.808 115.589C585.852 116.303 586.979 116.887 588.165 117.329C591.396 119.193 594.38 121.12 597.736 123.047C598.047 123.792 598.171 125.035 598.73 125.284L601.838 126.527H603.64L600.719 120.374Z" fill="#4D4D4D"/>
<path d="M602.335 82.2148C607.183 83.6443 612.466 83.6443 617.252 85.0737C617.563 85.0737 616.258 82.5877 616.258 82.5877C615.381 80.8731 614.045 79.4359 612.399 78.4371C610.752 77.4384 608.86 76.9173 606.935 76.9322H597.798C596.802 76.9194 595.816 77.1305 594.912 77.55C594.009 77.9696 593.211 78.5868 592.578 79.356C595.774 80.4925 599.031 81.4469 602.335 82.2148V82.2148Z" fill="#4D4D4D"/>
<path d="M631.795 91.6611H628.626L629.62 93.712L630.179 93.2149L631.795 91.6611Z" fill="#4D4D4D"/>
<path d="M605.318 176.059C605.318 175.624 603.267 175.251 603.205 175.313C602.335 177.116 601.527 178.918 600.719 180.72L604.199 184.947C605.112 183.676 605.692 182.197 605.888 180.645C606.083 179.093 605.887 177.516 605.318 176.059V176.059Z" fill="#4D4D4D"/>
<path d="M642.859 249.519C642.027 247.402 642.027 245.049 642.859 242.932C643.232 241.689 641.616 239.886 640.684 238.271H640.186C639.177 239.888 638.364 241.62 637.762 243.429C637.392 245.484 637.142 247.559 637.017 249.644H641.865L642.859 249.519Z" fill="#4D4D4D"/>
<path d="M640.31 183.083L635.649 181.156L638.57 184.699L640.31 183.083Z" fill="#4D4D4D"/>
<path d="M618.247 154.991C618.247 154.991 618.247 155.551 618.247 155.861L618.744 155.302L618.247 154.991Z" fill="#4D4D4D"/>
<path d="M602.708 108.752L627.569 121.181L638.011 126.153L632.417 115.153C629.434 112.543 626.202 109.995 623.156 107.571C620.814 105.873 617.966 105.019 615.077 105.147C612.842 105.681 610.496 105.493 608.374 104.611C606.253 103.729 604.465 102.198 603.268 100.237C602.708 99.305 599.725 98.9321 597.612 99.305L598.793 101.605L602.708 108.752Z" fill="#4D4D4D"/>
<path d="M626.699 223.355C626.192 221.909 625.205 220.681 623.903 219.874C621.354 218.631 616.755 226.089 617.687 229.88C617.965 231.537 618.339 233.176 618.806 234.79H621.168L626.699 223.355Z" fill="#4D4D4D"/>
<path d="M626.389 239.389C626.248 239.642 626.143 239.914 626.078 240.197H627.508C629.31 239.886 630.242 239.327 630.553 238.581H626.886L626.389 239.389Z" fill="#4D4D4D"/>
<path d="M629.745 234.603L629.185 233.671L628.688 234.603H629.745Z" fill="#4D4D4D"/>
<path d="M599.104 238.333H598.296C598.731 240.26 601.341 241.378 602.398 243.056C603.052 244.532 603.451 246.108 603.578 247.717C602.211 247.717 600.657 249.085 599.228 249.644H606.935C608.821 249.657 610.673 249.141 612.28 248.153C611.472 244.859 610.726 241.938 610.042 238.333H599.104Z" fill="#4D4D4D"/>
<path d="M618.495 202.908C619.428 202.235 620.176 201.337 620.67 200.298H611.596L610.726 201.976C611.873 202.693 613.163 203.148 614.506 203.309C615.849 203.47 617.211 203.333 618.495 202.908V202.908Z" fill="#4D4D4D"/>
<path d="M633.163 189.048L630.863 186.313C630.863 186.873 630.863 187.37 630.863 187.929C630.863 188.489 632.417 189.11 633.163 189.048Z" fill="#4D4D4D"/>
<path d="M651.995 133.301H645.78C647.21 134.482 648.577 135.6 649.882 135.476C651.187 135.352 651.125 134.668 651.995 133.301Z" fill="#4D4D4D"/>
<path d="M623.53 187.93C624.462 186.749 625.456 185.506 627.072 183.331L619.365 179.354C618.868 180.348 617.625 181.902 617.936 182.275C619.691 184.265 621.558 186.153 623.53 187.93V187.93Z" fill="#4D4D4D"/>
<path d="M672.94 200.298H661.939C659.716 202.212 657.638 204.289 655.724 206.513C655.083 207.994 654.752 209.591 654.752 211.205C654.752 212.819 655.083 214.416 655.724 215.897C658.459 216.519 661.256 216.954 664.052 217.327L668.279 209.744L672.94 200.298Z" fill="#4D4D4D"/>
<path d="M676.234 249.644C678.149 249.644 680.025 249.109 681.65 248.099C683.276 247.088 684.586 245.643 685.433 243.926L686.054 242.746C685.685 241.218 685.142 239.738 684.438 238.333H671.138C670.956 241.46 671.904 244.548 673.81 247.034C674.639 247.849 675.581 248.539 676.607 249.085C675.178 249.085 673.748 249.085 672.257 249.085L668.03 249.396L676.234 249.644Z" fill="#4D4D4D"/>
<path d="M684.625 210.552C685.122 214.219 684.625 218.445 690.84 217.451C690.072 213.734 689.033 210.078 687.733 206.513C687.049 204.835 684.563 203.902 682.885 202.597L680.399 200.608L671.449 218.321C673.003 218.321 674.557 218.321 676.11 218.321C679.342 218.321 683.755 217.078 679.28 212.106C678.969 211.795 680.461 209.558 681.518 208.688C682.574 207.818 684.563 209.744 684.625 210.552Z" fill="#4D4D4D"/>
<path d="M737.454 77.6774V76.9316H736.273H735.217C735.517 77.2046 735.871 77.412 736.257 77.5404C736.642 77.6688 737.05 77.7155 737.454 77.6774V77.6774Z" fill="#4D4D4D"/>
<path d="M683.755 232.242C685.868 230.005 691.462 226.027 686.552 222.423C680.337 218.01 681.269 227.27 677.416 228.202C676.67 228.202 676.173 229.383 675.613 230.005C674.163 231.367 672.982 232.991 672.133 234.79H682.326C682.326 234.107 682.699 233.361 683.755 232.242Z" fill="#4D4D4D"/>
<path d="M705.819 232.366C704.805 233.125 703.83 233.934 702.898 234.79H707.435C706.875 233.982 706.378 233.174 705.819 232.366Z" fill="#4D4D4D"/>
<path d="M697.739 183.766C690.965 183.766 693.389 189.981 691.959 193.275H699.666C700.152 190.959 700.152 188.568 699.666 186.252L697.428 183.518L697.739 183.766Z" fill="#4D4D4D"/>
<path d="M697.925 172.455V173.077L701.903 177.924C701.429 176.272 700.847 174.653 700.163 173.077C700.163 172.455 698.733 172.455 697.925 172.455Z" fill="#4D4D4D"/>
<path d="M709.237 238.271H701.281C700.411 241.129 699.852 244.05 699.044 246.909C699.044 247.469 698.671 248.152 698.484 248.836C699.48 249.365 700.589 249.642 701.716 249.644H706.378C707.608 248.045 708.496 246.21 708.988 244.254C709.48 242.298 709.564 240.261 709.237 238.271V238.271Z" fill="#4D4D4D"/>
<path d="M670.268 192.156C670.238 192.341 670.238 192.53 670.268 192.716L669.646 193.275H671.138L670.268 192.156Z" fill="#4D4D4D"/>
<path d="M736.273 249.644H737.454V238.333H732.917L729.436 243.305C729.576 245.025 730.356 246.631 731.622 247.804C732.888 248.978 734.547 249.634 736.273 249.644V249.644Z" fill="#4D4D4D"/>
<path d="M668.776 147.596C670.703 147.036 672.194 145.11 675.302 142.686L673.251 141.878L668.59 147.596H668.776Z" fill="#4D4D4D"/>
<path d="M737.454 234.604V231.372L735.279 234.604H737.454Z" fill="#4D4D4D"/>
<path d="M672.319 170.777C673.956 169.73 675.708 168.875 677.54 168.228C679.604 167.989 681.69 167.989 683.755 168.228C682.947 167.234 682.201 165.991 681.455 164.935H662.872C661.567 165.68 660.945 169.036 661.007 170.155L661.504 170.777C665.109 172.455 668.776 175.811 672.319 170.777Z" fill="#4D4D4D"/>
<path d="M681.02 189.421C680.064 189.275 679.17 188.857 678.445 188.216C677.721 187.576 677.196 186.74 676.934 185.809C676.671 184.878 676.683 183.892 676.967 182.967C677.251 182.043 677.795 181.219 678.534 180.596C681.89 176.556 685.371 179.291 688.603 181.528C689.382 181.878 690.242 182.007 691.089 181.901C692.274 181.859 693.457 181.755 694.632 181.59C694.632 180.844 694.321 179.974 694.134 179.166L691.213 175.686C686.676 172.889 681.518 174.754 676.359 175.686C674.839 175.791 673.411 176.45 672.346 177.539C671.28 178.627 670.651 180.069 670.579 181.59L679.466 192.342C680.088 191.534 680.461 190.291 681.02 189.421Z" fill="#4D4D4D"/>
</g>
</svg>
