<svg width="784" height="386" viewBox="0 0 784 386" fill="none" xmlns="http://www.w3.org/2000/svg">
<g opacity="0.3">
<path d="M775.595 81.3049L778.454 75.6493C779.301 73.9328 780.611 72.4876 782.237 71.4772C783.862 70.4667 785.738 69.9313 787.652 69.9316H796.789C797.993 69.9351 799.176 70.2481 800.224 70.8405C801.272 71.4329 802.151 72.2848 802.775 73.3145C803.399 74.3442 803.748 75.517 803.788 76.7204C803.828 77.9237 803.558 79.1172 803.004 80.1862L802.444 81.3049H775.595Z" fill="#4D4D4D"/>
<path d="M772.363 154.578H761.051H746.819L723.512 126.301H749.056L761.051 140.781L772.363 154.578Z" fill="#4D4D4D"/>
<path d="M759.746 231.333H767.826L768.323 232.39C768.739 233.199 768.973 234.09 769.007 235C767.274 235.358 765.474 235.202 763.828 234.551C762.183 233.899 760.764 232.781 759.746 231.333V231.333Z" fill="#4D4D4D"/>
<path d="M800.58 84.8477L783.115 119.278H761.051H756.328L761.051 110.018L773.793 84.8477H800.58Z" fill="#4D4D4D"/>
<path d="M773.792 227.79L761.051 202.558L756.39 193.298H761.051H783.115L800.58 227.79H773.792Z" fill="#4D4D4D"/>
<path d="M776.9 234.316L775.346 231.271H802.134L802.693 232.389C803.247 233.458 803.517 234.652 803.477 235.855C803.437 237.058 803.088 238.231 802.464 239.261C801.84 240.291 800.962 241.143 799.913 241.735C798.865 242.327 797.682 242.64 796.478 242.644H787.342C785.914 242.643 784.502 242.344 783.196 241.766C781.89 241.188 780.72 240.344 779.759 239.288C779.759 238.853 780.194 238.48 780.132 238.293C779.327 236.768 778.229 235.416 776.9 234.316V234.316Z" fill="#4D4D4D"/>
<path d="M762.233 69.9317C763.437 69.9351 764.62 70.2481 765.668 70.8405C766.716 71.4329 767.595 72.2848 768.219 73.3145C768.843 74.3442 769.192 75.517 769.232 76.7204C769.272 77.9238 769.002 79.1172 768.448 80.1862L767.889 81.3049H741.101L743.96 75.5872C744.832 73.882 746.158 72.4511 747.792 71.4529C749.427 70.4548 751.306 69.9283 753.221 69.9317H762.357H762.233Z" fill="#4D4D4D"/>
<path d="M761.052 186.275H758.068L761.052 182.67L781.438 158.06H806.92L783.675 186.275H761.052Z" fill="#4D4D4D"/>
<path d="M783.675 126.301L806.982 154.578H781.438L761.052 129.905L758.068 126.301H761.052H783.675Z" fill="#4D4D4D"/>
<path d="M693.057 242.644H683.672C681.749 242.649 679.863 242.116 678.226 241.106C676.59 240.095 675.269 238.648 674.411 236.926L671.552 231.333H698.402L698.899 232.39C699.63 233.835 699.843 235.486 699.504 237.069C699.164 238.652 698.293 240.071 697.035 241.09C695.887 241.662 694.703 242.16 693.492 242.582L693.057 242.644Z" fill="#4D4D4D"/>
<path d="M730.101 242.147C729.315 242.481 728.469 242.651 727.614 242.644H718.478C716.416 242.627 714.404 242 712.698 240.841C715.385 239.258 718.493 238.534 721.604 238.767C724.714 239.001 727.679 240.18 730.101 242.147V242.147Z" fill="#4D4D4D"/>
<path d="M717.235 217.224C719.773 218.212 722.467 218.738 725.19 218.778L726.682 218.405L730.287 225.552L727.179 227.603H726.123L722.766 226.298C718.54 224.62 714.003 221.14 710.336 221.699C706.669 222.258 706.11 224.744 705.737 227.914H704.68L691.877 202.744L687.153 193.483H713.941L722.829 211.009L717.421 216.354C717.344 216.641 717.282 216.931 717.235 217.224V217.224Z" fill="#4D4D4D"/>
<path d="M730.721 231.271C731.25 232.691 731.686 234.144 732.026 235.621C730.224 234.999 727.614 234.937 726.806 233.694C726.51 232.913 726.51 232.051 726.806 231.271H730.721Z" fill="#4D4D4D"/>
<path d="M691.876 186.275H688.893L691.876 182.67L712.2 158.06H737.744L714.499 186.275H691.876Z" fill="#4D4D4D"/>
<path d="M738.055 219.649L735.88 221.265L730.97 211.507C730.597 210.016 730.038 208.524 729.603 207.095C729.603 207.095 729.043 206.722 728.546 206.66L721.771 193.298H727.179L730.97 197.027L739.112 195.038L737.869 193.298H748.621L761.052 218.157L766.024 227.977H758.255C757.772 226.359 757.48 224.691 757.385 223.005C756.825 217.101 743.711 215.485 738.055 219.649Z" fill="#4D4D4D"/>
<path d="M691.876 227.604H669.999L652.596 193.298H679.383L691.814 218.157L692.808 220.208H691.503C693.554 222.632 694.486 224.124 695.17 224.869L696.786 227.977L691.876 227.604Z" fill="#4D4D4D"/>
<path d="M727.179 79.9376C726.417 77.3841 725.286 74.9555 723.823 72.7283C722.89 71.734 721.896 70.8017 720.901 69.9316H727.117C728.321 69.9351 729.504 70.2481 730.552 70.8405C731.6 71.4329 732.479 72.2848 733.103 73.3145C733.727 74.3442 734.076 75.517 734.116 76.7204C734.156 77.9237 733.886 79.1172 733.332 80.1862L732.773 81.3049H705.923L708.844 75.6493C709.582 74.1827 710.662 72.9148 711.992 71.9523C713.323 70.9897 714.865 70.3607 716.489 70.1181C717.036 72.1149 717.873 74.0204 718.975 75.7736C720.964 77.9488 724.693 78.446 727.179 79.9376Z" fill="#4D4D4D"/>
<path d="M723.512 186.275L746.819 158.06H761.051H772.363L761.051 171.794L749.056 186.275H723.512Z" fill="#4D4D4D"/>
<path d="M711.516 142.335C710.895 141.216 708.346 141.216 706.668 140.719C706.295 142.335 705.363 144.075 705.736 145.443C706.109 146.81 706.171 146.81 706.358 147.494L691.876 129.905L688.893 126.301H714.748L738.055 154.578H716.613C716.647 154.394 716.647 154.204 716.613 154.019C715.182 150.013 713.48 146.109 711.516 142.335Z" fill="#4D4D4D"/>
<path d="M761.052 84.8477H765.962L761.052 94.605L748.559 119.278H721.771L739.174 84.8477H761.052Z" fill="#4D4D4D"/>
<path d="M731.406 84.8477L713.941 119.278H691.877H687.153L691.877 110.018L704.556 84.8477H731.406Z" fill="#4D4D4D"/>
<path d="M693.057 69.9317C694.261 69.9351 695.444 70.2481 696.492 70.8405C697.541 71.4329 698.419 72.2848 699.043 73.3145C699.667 74.3442 700.016 75.517 700.056 76.7204C700.096 77.9238 699.826 79.1172 699.272 80.1862L698.713 81.3049H671.925L674.784 75.5872C675.656 73.882 676.982 72.4511 678.617 71.4529C680.251 70.4548 682.13 69.9283 684.045 69.9317H693.181H693.057Z" fill="#4D4D4D"/>
<path d="M691.876 84.8477H696.786L691.876 94.605L679.384 119.278H652.534L669.999 84.8477H691.876Z" fill="#4D4D4D"/>
<path d="M638.115 233.011L637.245 231.271H664.032L664.592 232.389C665.026 233.253 665.279 234.197 665.334 235.162C665.39 236.128 665.248 237.094 664.916 238.002C664.584 238.911 664.07 239.741 663.405 240.443C662.74 241.145 661.938 241.704 661.049 242.084C659.495 230.898 652.037 240.096 647.686 238.977C646.443 238.604 644.889 239.661 643.273 240.655C641.931 239.686 640.844 238.407 640.104 236.926L638.55 233.881H638.985L638.115 233.011Z" fill="#4D4D4D"/>
<path d="M677.643 154.578L654.336 126.301H679.881L691.876 140.781L703.188 154.578H691.876H677.643Z" fill="#4D4D4D"/>
<path d="M645.262 186.275H622.638H619.717L622.638 182.67L643.024 158.06H668.569L645.262 186.275Z" fill="#4D4D4D"/>
<path d="M654.336 186.275L677.457 158.06H703.001L693.989 168.936C693.374 169.147 692.772 169.396 692.187 169.681C692.187 169.681 692.187 170.427 692.187 171.359L691.876 171.794L679.881 186.275H654.336Z" fill="#4D4D4D"/>
<path d="M622.639 202.558L617.978 193.298H622.639H644.765L662.23 227.79H635.442L622.639 202.558Z" fill="#4D4D4D"/>
<path d="M637.182 81.305L640.103 75.6494C640.944 73.9283 642.253 72.4791 643.88 71.4678C645.507 70.4565 647.386 69.9241 649.302 69.9317H658.438C659.642 69.9352 660.825 70.2481 661.873 70.8405C662.922 71.4329 663.8 72.2849 664.424 73.3146C665.048 74.3443 665.397 75.5171 665.437 76.7205C665.477 77.9238 665.207 79.1173 664.653 80.1863L664.094 81.305H637.182Z" fill="#4D4D4D"/>
<path d="M617.978 119.278H622.639H644.765L662.23 84.8477H635.38L622.639 110.018L617.978 119.278Z" fill="#4D4D4D"/>
<path d="M637.556 111.821L642.59 108.775L645.511 114.307C643.895 114.866 642.031 116.171 640.788 115.736C639.545 115.301 638.612 113.188 637.556 111.821Z" fill="#4D4D4D"/>
<path d="M570.866 236.926L568.007 231.271H594.857L595.416 232.389C595.97 233.458 596.24 234.652 596.2 235.855C596.16 237.058 595.811 238.231 595.187 239.261C594.563 240.291 593.685 241.143 592.636 241.735C591.588 242.327 590.405 242.64 589.201 242.644H580.127C578.204 242.648 576.318 242.116 574.681 241.105C573.045 240.095 571.724 238.647 570.866 236.926Z" fill="#4D4D4D"/>
<path d="M564.651 119.278H548.802L553.464 110.018L565.894 85.1582H592.681L575.279 119.589H574.533L574.906 116.233L564.651 119.278Z" fill="#4D4D4D"/>
<path d="M619.717 126.301H622.638H645.262L668.631 154.578H643.024L622.638 129.905L619.717 126.301Z" fill="#4D4D4D"/>
<path d="M614.684 69.9316H623.82C625.024 69.9351 626.207 70.2481 627.256 70.8405C628.304 71.4329 629.182 72.2848 629.806 73.3145C630.43 74.3442 630.779 75.517 630.819 76.7204C630.859 77.9237 630.59 79.1172 630.035 80.1862L629.476 81.3049H602.875L605.734 75.5872C606.5 74.1223 607.609 72.8643 608.966 71.9204C610.955 71.388 612.907 70.7236 614.808 69.9316H614.684Z" fill="#4D4D4D"/>
<path d="M585.97 147.68L576.709 140.595C570.743 140.364 564.859 139.124 559.307 136.928L553.464 129.843L551.724 127.668V126.301H564.714L569.189 131.956C570.68 130.527 573.042 129.284 573.539 127.544C573.539 127.171 573.539 126.736 573.539 126.301H575.839L599.146 154.578H573.85H575.093C578.947 153.895 582.365 150.042 585.97 147.68Z" fill="#4D4D4D"/>
<path d="M607.101 235.311C609.764 237.53 612.544 239.604 615.43 241.525C616.232 242.173 617.165 242.64 618.164 242.893H614.684C612.771 242.886 610.898 242.348 609.274 241.338C607.65 240.328 606.338 238.887 605.485 237.175L602.875 231.333H609.09L607.474 232.203C607.183 232.66 606.997 233.176 606.933 233.714C606.868 234.252 606.926 234.798 607.101 235.311V235.311Z" fill="#4D4D4D"/>
<path d="M622.639 158.06H633.951L622.639 171.794L610.706 186.275H585.099L608.468 158.06H622.639Z" fill="#4D4D4D"/>
<path d="M583.421 193.298H610.146L622.577 218.157L627.735 227.604H622.95C620.526 226.05 619.221 222.632 617.294 220.022C615.951 217.963 614.194 216.206 612.135 214.864C610.83 214.056 608.717 214.491 606.914 214.366C607.35 215.796 607.287 217.909 608.22 218.53C613.316 221.824 615.056 224.745 613.316 227.604H600.886L583.421 193.298Z" fill="#4D4D4D"/>
<path d="M578.014 168.997C576.713 166.087 575.153 163.299 573.352 160.669C573.352 160.669 572.482 160.669 571.612 160.669L573.912 157.872H599.456L576.149 186.088H569.126C568.536 185.245 567.746 184.561 566.826 184.099C565.335 183.291 562.538 185.093 560.611 185.777L561.108 186.274H550.542L553.464 182.669L569.064 164.025C569.064 166.697 569.747 169.37 570.12 171.98L578.014 168.997Z" fill="#4D4D4D"/>
<path d="M592.682 77.8867C592.071 77.7166 591.426 77.7134 590.814 77.8773C590.202 78.0413 589.645 78.3665 589.201 78.819C589.201 79.3161 589.201 80.1862 589.201 81.3049H568.007L570.866 75.6494C571.724 73.928 573.045 72.4805 574.681 71.4701C576.318 70.4598 578.204 69.927 580.127 69.9317H589.263C590.467 69.9351 591.65 70.2481 592.699 70.8405C593.747 71.4329 594.625 72.2848 595.249 73.3145C595.873 74.3442 596.222 75.517 596.262 76.7204C596.303 77.9238 596.033 79.1173 595.479 80.1862L594.857 81.3049H593.676C593.827 80.6981 593.814 80.0622 593.639 79.4618C593.465 78.8615 593.134 78.318 592.682 77.8867Z" fill="#4D4D4D"/>
<path d="M620.899 237.112C622.453 230.027 627.114 235.185 630.532 235.123C630.647 236.07 630.559 237.031 630.274 237.941C629.988 238.851 629.512 239.689 628.877 240.401C628.242 241.112 627.462 241.681 626.59 242.067C625.718 242.454 624.774 242.65 623.82 242.643H618.351C619.345 242.581 619.78 241.09 620.899 237.112Z" fill="#4D4D4D"/>
<path d="M560.238 81.3049H533.388L535.688 76.8302C536.62 78.6946 537.242 80.1862 537.677 80.1241C540.684 79.5692 543.653 78.8218 546.564 77.8867C545.943 76.768 545.321 74.7171 544.7 74.7171C541.954 74.7237 539.212 74.9314 536.496 75.3386C537.386 73.7211 538.689 72.3685 540.272 71.4187C541.855 70.4688 543.662 69.9557 545.508 69.9316H554.644C555.848 69.9351 557.031 70.2481 558.08 70.8405C559.128 71.4329 560.006 72.2848 560.63 73.3145C561.254 74.3442 561.603 75.517 561.643 76.7204C561.683 77.9237 561.413 79.1172 560.859 80.1862L560.238 81.3049Z" fill="#4D4D4D"/>
<path d="M610.706 126.301L622.639 140.595L623.323 141.403H603.807C603.434 141.403 603.061 141.9 601.632 142.957C603.061 144.51 604.491 147.307 605.796 147.307C612.757 146.996 619.718 146.313 626.617 145.567L633.951 154.578H608.469L585.162 126.301H610.706Z" fill="#4D4D4D"/>
<path d="M600.824 84.8477H622.639H627.612L622.639 94.605L610.147 119.278H583.359L600.824 84.8477Z" fill="#4D4D4D"/>
<path d="M514.184 193.298H540.971L553.464 217.971L558.436 227.79H553.464H531.649L514.184 193.298Z" fill="#4D4D4D"/>
<path d="M484.288 81.3049H464.213L467.072 75.5872C467.955 73.8909 469.284 72.4677 470.916 71.471C472.548 70.4744 474.421 69.9421 476.333 69.9316H485.469C486.673 69.9351 487.856 70.2481 488.905 70.8405C489.953 71.4329 490.831 72.2848 491.455 73.3145C492.079 74.3442 492.428 75.517 492.468 76.7204C492.509 77.9237 492.239 79.1172 491.685 80.1862V80.6212L490.317 81.3049H484.288Z" fill="#4D4D4D"/>
<path d="M533.451 231.333H560.238L560.798 232.39C561.352 233.459 561.622 234.652 561.582 235.855C561.541 237.059 561.192 238.232 560.568 239.261C559.944 240.291 559.066 241.143 558.018 241.735C556.969 242.328 555.786 242.641 554.582 242.644H545.508C543.596 242.637 541.723 242.099 540.098 241.089C538.474 240.08 537.162 238.638 536.31 236.926L533.451 231.333Z" fill="#4D4D4D"/>
<path d="M510.952 242.644C509.029 242.648 507.143 242.116 505.506 241.105C503.87 240.095 502.549 238.647 501.692 236.926L498.833 231.271H525.682L526.179 232.389C526.734 233.458 527.003 234.652 526.963 235.855C526.923 237.058 526.574 238.231 525.95 239.261C525.326 240.291 524.448 241.143 523.4 241.735C522.351 242.327 521.168 242.64 519.964 242.644H510.952Z" fill="#4D4D4D"/>
<path d="M546.378 172.665L541.344 166.947C537.428 166.947 534.321 166.947 531.338 167.63L539.293 158.06H564.775L553.464 171.67L541.53 186.151H515.862L522.077 178.569C528.021 178.212 533.926 177.36 539.728 176.021C542.097 175.233 544.338 174.102 546.378 172.665Z" fill="#4D4D4D"/>
<path d="M533.078 112.131L526.863 115.549C526.863 116.854 526.863 118.594 527.484 118.967H528.044H514.184L531.649 84.6611H558.436L553.464 94.4185L541.034 118.843C539.301 118.366 537.693 117.518 536.319 116.36C534.946 115.201 533.84 113.758 533.078 112.131V112.131Z" fill="#4D4D4D"/>
<path d="M522.761 75.898C515.241 76.8302 507.596 77.6381 500.076 78.819L501.692 75.6494C502.549 73.928 503.87 72.4805 505.507 71.4701C507.143 70.4598 509.029 69.927 510.952 69.9317H520.026C521.231 69.9351 522.414 70.2481 523.462 70.8405C524.51 71.4329 525.388 72.2848 526.013 73.3145C526.637 74.3442 526.985 75.517 527.026 76.7204C527.066 77.9238 526.796 79.1173 526.242 80.1862L525.682 81.3049H512.32L523.631 77.0166C523.383 76.6438 523.01 75.8358 522.761 75.898Z" fill="#4D4D4D"/>
<path d="M485.158 127.109V126.301H506.601L515.861 137.55L513.997 139.103L517.912 139.974L529.908 154.578H504.674L484.288 129.719L483.604 128.911C484.089 128.282 484.608 127.681 485.158 127.109V127.109Z" fill="#4D4D4D"/>
<path d="M548.802 193.298H553.464H575.59L593.054 227.79H566.267L553.464 202.558L548.802 193.298Z" fill="#4D4D4D"/>
<path d="M489.759 106.973C489.04 106.081 488.376 105.147 487.77 104.176C487.77 105.233 487.21 106.227 487.024 107.284C487.074 108.931 486.821 110.574 486.278 112.131C484.727 114.337 483.002 116.415 481.119 118.346L482.176 118.968H479.566L484.289 109.707L495.849 86.8366L497.403 86.4637L502.624 84.5371H523.818L506.415 118.968H488.453C489.821 115.674 491.126 112.753 492.369 109.148C492.555 109.024 490.629 107.905 489.759 106.973Z" fill="#4D4D4D"/>
<path d="M553.153 144.573C553.986 144.481 554.829 144.604 555.602 144.931C556.374 145.257 557.05 145.776 557.565 146.437C557.861 148.375 558.729 150.179 560.058 151.619C561.387 153.059 563.116 154.068 565.024 154.517H539.541L530.84 144.014C537.952 146.957 545.902 147.156 553.153 144.573V144.573Z" fill="#4D4D4D"/>
<path d="M549.797 136.369C548.101 136.665 546.465 137.232 544.949 138.047C540.163 140.595 539.107 138.793 540.35 133.883C540.35 133.013 538.236 131.521 537.056 130.278C534.072 137.985 527.981 134.753 522.823 134.691L515.862 126.301H540.101L542.649 127.792L549.797 136.369Z" fill="#4D4D4D"/>
<path d="M486.153 147.929C479.938 143.392 478.198 139.974 479.938 135.499L484.351 140.844L495.725 154.641H492.182C492.12 151.596 489.199 150.166 486.153 147.929Z" fill="#4D4D4D"/>
<path d="M510.704 173.658C512.133 174.466 513.501 175.585 514.93 176.579L506.912 186.275H481.368L484.289 182.67L504.675 157.811H530.219L520.151 170.24L517.354 171.048C515.116 171.67 512.941 172.788 510.704 173.658Z" fill="#4D4D4D"/>
<path d="M484.289 126.301H485.159V126.86C484.292 126.912 483.445 127.145 482.673 127.544L481.616 126.301H484.289Z" fill="#4D4D4D"/>
<path d="M437.239 103.306C437.861 101.317 442.336 100.261 445.257 99.3284C445.953 99.1731 446.674 99.1731 447.37 99.3284L441.155 111.758H440.658C439.434 110.741 438.482 109.437 437.885 107.962C437.289 106.487 437.067 104.888 437.239 103.306V103.306Z" fill="#4D4D4D"/>
<path d="M470.677 158.06C472.728 162.161 470.677 177.823 467.383 178.755C465.767 179.19 461.789 177.077 461.603 175.71C461.233 173.511 461.025 171.289 460.981 169.06L470.055 158.06H470.677Z" fill="#4D4D4D"/>
<path d="M418.221 186.275H413.373C414.985 186.119 416.608 186.119 418.221 186.275V186.275Z" fill="#4D4D4D"/>
<path d="M454.953 176.331C455.583 176.867 456.128 177.496 456.569 178.196C458.061 180.806 461.044 183.292 461.79 186.275H446.749L454.953 176.331Z" fill="#4D4D4D"/>
<path d="M460.298 193.297C460.382 196.451 460.258 199.607 459.925 202.744C459.925 203.614 457.252 204.671 455.885 204.609C454.517 204.546 453.523 203.055 452.342 202.185C452.782 203.647 453.365 205.063 454.082 206.411C454.823 207.948 455.987 209.242 457.439 210.14C458.38 210.654 459.416 210.974 460.483 211.081C461.551 211.187 462.629 211.079 463.654 210.761C464.648 210.326 464.648 207.343 464.648 205.479C464.648 201.874 464.213 198.269 463.965 194.665L468.44 196.094C468.021 195.12 467.728 194.097 467.569 193.049H472.231L484.661 217.908L489.633 227.728H462.473L446.562 196.529C447.366 195.669 447.942 194.623 448.24 193.484L460.298 193.297Z" fill="#4D4D4D"/>
<path d="M419.402 177.45L422.199 174.094C424.267 173.914 426.346 173.914 428.414 174.094C430.714 174.094 433.137 172.416 435.251 172.788C437.364 173.161 440.906 174.777 441.466 176.455C442.025 178.133 442.087 179.376 442.398 180.868L437.737 186.523H420.396C420.601 185.539 420.601 184.524 420.396 183.54C419.877 181.545 419.545 179.506 419.402 177.45V177.45Z" fill="#4D4D4D"/>
<path d="M439.477 89.5087C439.477 88.763 436.743 88.2658 435.313 87.6443L434.008 84.6611H454.643L447.495 98.8932C445.389 98.2807 443.509 97.066 442.084 95.3987C440.66 93.7314 439.754 91.6842 439.477 89.5087V89.5087Z" fill="#4D4D4D"/>
<path d="M417.164 129.284L415.175 126.301H418.593C418.324 127.382 417.838 128.397 417.164 129.284V129.284Z" fill="#4D4D4D"/>
<path d="M476.396 158.867C476.396 158.867 477.204 158.308 478.136 158.06H482.673C485.408 159.489 487.77 164.274 491.002 158.06H495.601L484.289 171.67L481.492 175.026L479.566 173.597C470.864 170.303 476.334 163.964 476.396 158.867Z" fill="#4D4D4D"/>
<path d="M431.522 81.3049H429.657L432.516 75.6493C433.369 73.9374 434.68 72.4961 436.305 71.4865C437.929 70.4768 439.802 69.9385 441.714 69.9316H450.851C452.055 69.9351 453.238 70.2481 454.286 70.8405C455.334 71.4329 456.213 72.2848 456.837 73.3145C457.461 74.3442 457.81 75.517 457.85 76.7204C457.89 77.9237 457.62 79.1172 457.066 80.1862L456.507 81.3049H432.33L431.397 79.3783C431.459 79.9998 431.459 80.6834 431.522 81.3049Z" fill="#4D4D4D"/>
<path d="M433.821 94.1078C430.279 97.961 429.098 103.865 420.521 102.125C420.031 102.001 419.519 102.001 419.029 102.125L427.855 84.6611H431.77C431.77 86.2149 431.77 87.7064 432.205 89.2601C432.593 90.9224 433.134 92.5452 433.821 94.1078Z" fill="#4D4D4D"/>
<path d="M415.859 113.933C416.605 115.736 417.475 117.476 418.097 119.278H410.514L415.051 110.08C415.104 111.401 415.378 112.703 415.859 113.933V113.933Z" fill="#4D4D4D"/>
<path d="M469.185 147.245C469.185 148.426 467.942 149.544 466.886 150.725L462.846 145.753C468.501 138.109 461.975 132.454 458.992 126.301H467.196C472.355 132.889 469.123 140.595 469.185 147.245Z" fill="#4D4D4D"/>
<path d="M457.75 158.059V162.285L451.534 169.991C447.681 169.991 442.585 170.986 440.534 165.703C438.918 161.477 436.369 160.793 432.64 163.217L430.651 164.398L435.872 158.183L457.75 158.059Z" fill="#4D4D4D"/>
<path d="M427.854 227.79H454.704L437.239 193.298H415.113H410.452L415.113 202.558L427.854 227.79Z" fill="#4D4D4D"/>
<path d="M424.685 199.948C421.577 199.451 418.47 199.078 415.362 198.456C414.554 198.456 413.932 197.213 412.068 195.598C415.554 194.972 419.094 194.702 422.634 194.79C423.442 194.914 423.939 198.146 424.685 199.948Z" fill="#4D4D4D"/>
<path d="M454.207 126.301C454.722 127.622 454.906 129.048 454.743 130.456C454.581 131.864 454.077 133.211 453.275 134.38L446.749 126.301H454.207Z" fill="#4D4D4D"/>
<path d="M417.289 132.516C417.289 131.583 417.289 130.651 417.289 129.719C419.029 128.6 422.136 127.419 422.261 126.301H437.674L449.048 140.036C449.048 140.781 449.048 141.527 449.048 142.149C446.751 141.995 444.446 141.995 442.149 142.149C441.921 146.289 441.921 150.438 442.149 154.578H435.499L417.289 132.516Z" fill="#4D4D4D"/>
<path d="M487.334 88.5144L484.289 94.7292L471.858 119.589H451.783L449.546 110.577L462.411 84.6611H483.73L482.486 85.3448C484.786 86.8985 486.029 88.5765 487.334 88.5144Z" fill="#4D4D4D"/>
<path d="M476.084 130.838C473.412 131.335 471.05 130.154 469.185 126.301H472.355L476.084 130.838Z" fill="#4D4D4D"/>
<path d="M417.165 169.308L414.306 167.63C415.278 165.121 415.986 162.518 416.419 159.862C416.415 159.235 416.267 158.618 415.984 158.06H426.487L417.165 169.308Z" fill="#4D4D4D"/>
<path d="M467.072 236.926L464.275 231.333H491.001L491.56 232.39C492.114 233.459 492.384 234.652 492.344 235.855C492.304 237.059 491.955 238.232 491.331 239.261C490.707 240.291 489.829 241.143 488.78 241.735C487.732 242.328 486.549 242.641 485.345 242.644H476.333C474.413 242.635 472.532 242.096 470.899 241.087C469.265 240.078 467.941 238.639 467.072 236.926V236.926Z" fill="#4D4D4D"/>
<path d="M416.419 69.9316C417.623 69.9351 418.806 70.2481 419.854 70.8405C420.903 71.4329 421.781 72.2848 422.405 73.3145C423.029 74.3442 423.378 75.517 423.418 76.7204C423.458 77.9237 423.188 79.1172 422.634 80.1862L422.075 81.3049H395.039L397.898 75.5872C398.78 73.8909 400.109 72.4677 401.741 71.471C403.373 70.4744 405.246 69.9421 407.158 69.9316H416.419V69.9316Z" fill="#4D4D4D"/>
<path d="M479.627 193.298H484.289H506.415L523.88 227.79H497.03L484.289 202.558L479.627 193.298Z" fill="#4D4D4D"/>
<path d="M450.851 242.644H441.714C439.802 242.637 437.929 242.099 436.305 241.089C434.68 240.079 433.369 238.638 432.516 236.926L429.657 231.271H456.445L457.004 232.389C457.556 233.454 457.826 234.641 457.789 235.84C457.751 237.038 457.408 238.207 456.791 239.235C456.174 240.263 455.305 241.116 454.265 241.712C453.225 242.309 452.05 242.63 450.851 242.644V242.644Z" fill="#4D4D4D"/>
<path d="M445.319 154.144C444.348 152.056 444.212 149.676 444.94 147.492C445.668 145.307 447.205 143.485 449.235 142.397C450.315 142.847 451.354 143.387 452.342 144.013L456.942 149.607C457.487 151.209 457.781 152.886 457.812 154.579H445.381C445.381 154.579 445.381 154.268 445.319 154.144Z" fill="#4D4D4D"/>
<path d="M421.391 119.278C420.98 117.56 420.689 115.816 420.521 114.057C420.521 112.131 421.888 110.142 422.634 108.153C424.845 108.937 426.937 110.025 428.849 111.385C429.844 112.317 428.849 114.679 429.844 116.046C430.266 116.516 430.803 116.866 431.403 117.062C432.003 117.259 432.644 117.294 433.262 117.165C435.624 115.673 437.675 115.052 439.166 115.798L437.426 119.278H421.391Z" fill="#4D4D4D"/>
<path d="M368.934 227.604H385.342L367.815 193.111H346.062C347.07 195.622 347.739 198.255 348.051 200.942C347.926 202.114 347.373 203.198 346.497 203.987L349.232 209.332C352.588 206.535 357.685 207.654 361.662 206.473C362.533 206.163 363.9 207.281 365.019 207.716C363.987 208.434 362.856 209 361.662 209.394C357.933 210.264 354.204 211.01 350.475 211.756L354.826 220.457C359.926 221.957 364.708 224.38 368.934 227.604Z" fill="#4D4D4D"/>
<path d="M376.143 222.756C372.352 221.078 368.685 219.276 364.832 217.411C365.578 216.914 366.261 216.106 366.572 216.231C370.115 217.722 373.595 219.338 377.138 220.892L376.143 222.756Z" fill="#4D4D4D"/>
<path d="M382.111 113.064C382.795 115.115 383.416 117.166 384.038 119.279H375.833L384.97 101.193C385.309 103.263 385.231 105.379 384.74 107.417C384.249 109.456 383.355 111.376 382.111 113.064Z" fill="#4D4D4D"/>
<path d="M372.29 232.203L371.668 231.271H387.269L387.828 232.389C388.382 233.458 388.652 234.652 388.612 235.855C388.572 237.058 388.223 238.231 387.599 239.261C386.975 240.291 386.096 241.143 385.048 241.735C384 242.327 382.817 242.64 381.613 242.644H372.539C372.539 237.796 377.573 235.248 379.686 231.333C377.138 231.643 372.912 232.949 372.29 232.203Z" fill="#4D4D4D"/>
<path d="M358.679 227.604V227.106C360.419 227.106 362.098 227.106 363.776 227.604H358.679Z" fill="#4D4D4D"/>
<path d="M375.833 193.298H402.621L415.114 217.971L420.086 227.79H415.114H393.298L375.833 193.298Z" fill="#4D4D4D"/>
<path d="M387.269 81.3049H360.481L363.34 75.6493C364.193 73.9374 365.505 72.4961 367.129 71.4865C368.753 70.4768 370.626 69.9385 372.539 69.9316H381.675C382.879 69.9351 384.062 70.2481 385.111 70.8405C386.159 71.4329 387.037 72.2848 387.661 73.3145C388.285 74.3442 388.634 75.517 388.674 76.7204C388.715 77.9237 388.445 79.1172 387.89 80.1862L387.269 81.3049Z" fill="#4D4D4D"/>
<path d="M397.773 236.926L394.976 231.333H421.764L422.261 232.39C422.815 233.459 423.085 234.652 423.045 235.855C423.005 237.059 422.656 238.232 422.032 239.261C421.408 240.291 420.529 241.143 419.481 241.735C418.433 242.328 417.25 242.641 416.046 242.644H407.158C405.217 242.658 403.31 242.13 401.652 241.12C399.994 240.11 398.651 238.658 397.773 236.926V236.926Z" fill="#4D4D4D"/>
<path d="M369.866 242.271C368.52 241.852 367.274 241.161 366.205 240.242C365.136 239.323 364.267 238.194 363.651 236.926L360.481 231.271H367.691C368.275 232.555 368.753 233.885 369.121 235.248C369.618 237.556 369.868 239.91 369.866 242.271V242.271Z" fill="#4D4D4D"/>
<path d="M345.939 242.644H337.983C336.06 242.649 334.174 242.116 332.538 241.106C330.901 240.095 329.58 238.648 328.723 236.926L325.926 231.333H336.057C339.413 233.508 342.272 236.056 346.063 238.045C347.037 238.737 347.971 239.484 348.86 240.282C348.184 239.056 347.582 237.79 347.057 236.491C346.622 234.751 346.312 233.073 345.939 231.333H352.713L353.211 232.39C353.765 233.459 354.035 234.652 353.994 235.855C353.954 237.059 353.605 238.232 352.981 239.261C352.357 240.291 351.479 241.143 350.431 241.735C349.382 242.328 348.199 242.641 346.995 242.644H345.939Z" fill="#4D4D4D"/>
<path d="M394.292 133.324C393.236 130.962 392.179 128.662 391.061 126.301H403.118L411.757 136.742C411.121 137.954 410.28 139.048 409.271 139.974C409.271 140.284 409.582 141.341 409.768 142.024C411.322 141.403 413.373 141.092 414.803 140.471L415.113 140.781L426.487 154.578H414.492C414.6 154.004 414.767 153.441 414.989 152.9C415.548 151.595 416.232 150.228 416.854 148.923C416.202 148.7 415.538 148.513 414.865 148.364C414.063 149.882 413.437 151.488 413 153.149C413.05 153.668 413.243 154.164 413.56 154.578H405.356C404.734 153.646 403.864 152.776 403.18 151.844V154.578H400.694L392.863 145.07C392.416 141.096 392.905 137.074 394.292 133.324Z" fill="#4D4D4D"/>
<path d="M385.343 135.375L377.884 126.301H386.834C387.268 127.386 387.766 128.444 388.326 129.47C390.874 134.38 391.558 136.68 385.343 135.375Z" fill="#4D4D4D"/>
<path d="M358.058 126.301H342.955L345.938 129.905L366.324 154.765H391.869L370.178 128.165C367.692 129.222 363.403 128.849 362.409 131.086C360.785 129.658 359.325 128.053 358.058 126.301V126.301Z" fill="#4D4D4D"/>
<path d="M367.567 151.595L371.545 148.923L373.161 150.849C371.669 151.471 370.177 152.155 368.686 152.652C368.437 153.025 367.94 151.968 367.567 151.595Z" fill="#4D4D4D"/>
<path d="M406.91 110.764L413.125 98.3342H412.69C411.847 97.4835 411.097 96.546 410.452 95.5375C411.323 95.5375 412.317 95.5375 412.876 95.5375C413.272 95.8722 413.608 96.2714 413.871 96.7183L415.114 94.2945L420.086 84.5371H393.236L388.886 93.1758C387.394 100.758 392.739 105.978 393.609 112.566L389.259 107.843C388.016 109.77 385.343 112.193 385.84 113.623C386.337 115.052 387.27 117.165 388.016 118.968H395.412C395.878 118.511 396.4 118.114 396.965 117.787C399.327 116.482 402.186 113.685 403.989 114.244C405.791 114.804 404.61 104.673 406.91 110.764Z" fill="#4D4D4D"/>
<path d="M402.247 91.2491C401.564 91.2491 400.88 91.2491 400.196 91.2491L395.908 90.2547C396.908 90.0282 397.928 89.9033 398.953 89.8818C400.077 90.2725 401.177 90.729 402.247 91.2491Z" fill="#4D4D4D"/>
<path d="M363.59 165.455C362.715 165.006 361.768 164.711 360.793 164.585L345.938 182.546L342.955 186.151H368.562L380.371 171.67C378.061 171.472 375.813 170.822 373.755 169.755C371.697 168.689 369.869 167.228 368.375 165.455C367.629 165.455 364.895 166.263 363.59 165.455Z" fill="#4D4D4D"/>
<path d="M362.844 183.043L365.641 181.986C365.641 182.732 366.386 183.789 366.076 184.162C365.357 184.854 364.514 185.402 363.59 185.777C363.403 185.032 363.155 184.099 362.844 183.043Z" fill="#4D4D4D"/>
<path d="M398.084 167.07L407.531 171.856L404.921 175.212C406.158 175.513 407.365 175.929 408.526 176.455L410.204 177.884L406.599 182.297C405.853 182.297 404.859 180.743 403.926 179.935C403.243 180.992 402 182.421 402.311 182.794C402.885 183.617 403.6 184.333 404.424 184.907L403.056 186.523H377.574L390.004 171.234L393.609 170.302L398.084 167.07Z" fill="#4D4D4D"/>
<path d="M372.912 91.8705C371.669 91.8705 369.431 94.2943 369.68 94.9158C371.172 98.769 373.036 102.56 374.901 106.351L369.929 116.109C369.802 115.145 369.615 114.19 369.369 113.25C369.369 112.877 366.759 113.25 365.329 113.25C364.273 111.509 363.092 109.894 362.222 108.091C360.481 104.3 358.866 100.447 357.187 96.5938C358.058 100.074 360.357 103.989 359.425 106.848C357.984 110.84 357.186 115.036 357.063 119.278H341.214L342.892 115.922L344.881 117.227C345.751 116.109 347.492 114.803 347.305 113.871C347.119 112.939 346.622 110.764 346.311 109.21L358.741 84.8477H385.342L382.173 91.0625C381.489 91.4354 380.805 91.9326 380.059 92.4298C377.702 91.9996 375.307 91.8122 372.912 91.8705V91.8705Z" fill="#4D4D4D"/>
<path d="M351.532 75.7116H347.803C349.238 76.4313 350.765 76.954 352.34 77.2653C352.873 77.3776 353.423 77.3776 353.956 77.2653C353.983 78.3484 353.725 79.4196 353.21 80.3727L352.651 81.4914H325.863L328.722 75.7737C329.594 74.0685 330.92 72.6376 332.555 71.6395C334.189 70.6413 336.068 70.1148 337.983 70.1182H347.119C348.822 70.1388 350.458 70.7826 351.717 71.9279C352.977 73.0731 353.774 74.6403 353.956 76.3331H351.594L351.532 75.7116Z" fill="#4D4D4D"/>
<path d="M363.217 161.851L366.324 158.06H391.558L384.224 167.32C377.636 165.952 371.234 163.031 364.646 162.037L363.217 161.851Z" fill="#4D4D4D"/>
<path d="M353.147 158.06H357.249L355.696 159.924C354.733 159.475 353.867 158.841 353.147 158.06V158.06Z" fill="#4D4D4D"/>
<path d="M340.78 152.341C336.74 151.72 332.638 151.347 328.349 150.787L323.066 144.573C325.283 144.035 327.387 143.109 329.282 141.838C332.451 138.793 333.756 138.544 334.44 143.392C334.44 144.137 337.175 144.51 338.604 145.07C338.604 143.578 338.604 141.216 337.983 140.719C334.939 138.721 331.635 137.153 328.163 136.058C328.163 136.058 326.298 139.974 325.055 141.962C324.327 142.853 323.468 143.629 322.507 144.262L308.398 126.301H333.943L345.938 140.595L357.25 154.392H350.662C349.419 153.025 344.136 153.025 340.78 152.341Z" fill="#4D4D4D"/>
<path d="M381.054 93.6106L376.02 103.306C375.939 101.317 376.285 99.333 377.035 97.489C377.786 95.6449 378.923 93.9833 380.371 92.6162L381.054 93.6106Z" fill="#4D4D4D"/>
<path d="M397.773 166.76C396.08 167.327 394.329 167.703 392.552 167.879L400.632 158.06H403.988C405.231 162.659 404.548 166.201 397.773 166.76Z" fill="#4D4D4D"/>
<path d="M413.995 167.817C413.995 171.981 412.192 174.032 407.78 171.608C407.22 167.133 406.785 162.596 406.164 158.06H413.933L413.995 167.817Z" fill="#4D4D4D"/>
<path d="M343.701 213.62C340.034 215.111 336.305 216.665 332.513 217.908C331.146 218.343 329.219 217.224 327.541 216.851C329.965 211.382 324.434 204.422 330.524 199.698C331.146 196.467 326.857 195.472 325.117 193.483H333.446L343.701 213.62Z" fill="#4D4D4D"/>
<path d="M342.458 97.0909C342.458 98.5825 342.458 100.136 342.458 101.628L333.508 119.34H306.658L324.061 84.6611H350.848L345.938 94.4185L343.887 98.396C343.887 97.7124 343.887 96.9666 343.39 96.2208C342.893 95.475 342.458 97.0909 342.458 97.0909Z" fill="#4D4D4D"/>
<path d="M312.127 145.256C312.677 147.071 312.97 148.954 312.997 150.85C311.058 149.906 309.276 148.67 307.714 147.183C306.872 145.218 306.429 143.105 306.409 140.968C305.004 141.114 303.588 141.114 302.183 140.968C300.443 130.465 297.148 142.957 294.911 140.409C294.538 139.973 293.233 140.409 292.363 140.409C293.051 141.455 293.555 142.611 293.854 143.827C294.077 145.187 293.789 146.581 293.046 147.742C293.046 147.742 292.238 147.742 291.617 147.742L276.763 129.719L273.779 126.114H278.441V126.549C278.471 126.406 278.471 126.258 278.441 126.114H290.25C290.25 127.482 289.752 128.911 289.504 130.589C291.182 130.154 292.487 130.092 292.549 129.781C292.759 128.567 292.904 127.343 292.984 126.114H299.199L308.274 137.115C308.274 138.047 308.274 138.979 308.274 139.973C309.759 141.579 311.052 143.352 312.127 145.256V145.256Z" fill="#4D4D4D"/>
<path d="M312.5 242.644C313.705 242.64 314.888 242.327 315.936 241.735C316.984 241.143 317.862 240.291 318.487 239.261C319.111 238.231 319.459 237.058 319.5 235.855C319.54 234.652 319.27 233.458 318.716 232.389L318.156 231.271H291.307L294.166 236.926C295.012 238.643 296.323 240.088 297.948 241.098C299.574 242.109 301.45 242.644 303.364 242.644H312.5Z" fill="#4D4D4D"/>
<path d="M315.67 233.322C313.958 234.548 312.173 235.669 310.325 236.678C310.325 236.678 309.455 236.056 308.709 235.435L315.608 231.83C315.608 232.389 315.919 233.197 315.67 233.322Z" fill="#4D4D4D"/>
<path d="M309.02 185.467L309.331 186.275H308.398L309.02 185.467Z" fill="#4D4D4D"/>
<path d="M311.444 162.72L318.28 163.403L311.444 171.669C310.263 169.991 311.444 165.454 311.444 162.72Z" fill="#4D4D4D"/>
<path d="M324.372 180.93C322.747 181.369 321.021 181.246 319.475 180.58C317.929 179.914 316.654 178.745 315.857 177.263L325.366 165.455C326.361 166.076 327.169 166.635 327.666 166.325C334.378 162.658 339.723 166.325 345.939 168.003C346.942 168.218 347.98 168.218 348.984 168.003L345.939 171.732L333.943 186.212C332.141 182.11 330.214 179.438 324.372 180.93Z" fill="#4D4D4D"/>
<path d="M282.232 241.09C281.023 242.084 279.509 242.632 277.944 242.644H268.807C266.884 242.649 264.998 242.116 263.362 241.106C261.725 240.095 260.404 238.648 259.546 236.926L256.688 231.333H273.469C273.929 231.661 274.462 231.874 275.022 231.955C275.889 231.955 276.743 231.741 277.508 231.333H283.724L284.221 232.39C284.896 233.701 285.145 235.19 284.933 236.649C284.721 238.109 284.06 239.466 283.04 240.531L282.356 240.904L282.232 241.09Z" fill="#4D4D4D"/>
<path d="M326.92 182.795C328.571 183.818 330.131 184.983 331.581 186.275H326.112C326.36 185.094 326.609 184.1 326.92 182.795Z" fill="#4D4D4D"/>
<path d="M323.812 225.118C324.322 226.148 325.181 226.963 326.236 227.418C326.885 227.506 327.528 227.631 328.163 227.791H324.123L319.151 218.033C322.383 219.4 328.287 218.655 323.812 225.118Z" fill="#4D4D4D"/>
<path d="M307.714 175.088C306.403 175.457 305.03 175.554 303.68 175.371C302.33 175.188 301.032 174.73 299.867 174.025C298.701 173.32 297.693 172.383 296.905 171.272C296.116 170.161 295.565 168.9 295.284 167.568H290.622C286.396 169.618 287.515 172.539 289.131 175.709C290.747 178.879 291.119 180.992 292.114 183.602L288.26 185.964H278.005C278.627 183.975 279.87 181.986 278.503 180.246L297.148 157.748H301.126C301.126 158.742 301.126 160.234 301.126 161.291L307.714 175.088Z" fill="#4D4D4D"/>
<path d="M283.475 81.3049H256.688L259.546 75.5872C260.418 73.882 261.744 72.4511 263.379 71.4529C265.013 70.4548 266.892 69.9283 268.807 69.9317H277.944C279.148 69.9351 280.331 70.2481 281.379 70.8405C282.427 71.4329 283.305 72.2848 283.93 73.3145C284.554 74.3442 284.902 75.517 284.943 76.7204C284.983 77.9238 284.713 79.1172 284.159 80.1862L283.475 81.3049Z" fill="#4D4D4D"/>
<path d="M274.898 113.622L276.763 110.018L289.193 85.1582H316.043L298.578 119.589H277.571C278.69 115.735 277.757 113.995 274.898 113.622Z" fill="#4D4D4D"/>
<path d="M300.754 197.089C300.754 198.332 299.511 200.134 298.703 200.383C295.824 201.293 292.706 201.066 289.989 199.748C287.273 198.43 285.164 196.122 284.097 193.298H298.827L300.754 197.089Z" fill="#4D4D4D"/>
<path d="M332.203 223.005C331.768 222.197 334.875 218.344 336.678 218.095C339.15 217.72 341.67 218.34 343.685 219.82C345.7 221.299 347.047 223.517 347.43 225.988C347.492 226.379 347.492 226.778 347.43 227.169H350.6L350.911 227.728H335.932C334.373 226.431 333.103 224.822 332.203 223.005Z" fill="#4D4D4D"/>
<path d="M293.731 186.275H288.696L292.115 184.1L293.731 186.275Z" fill="#4D4D4D"/>
<path d="M318.094 81.3049H291.244L294.166 75.6493C295.012 73.9328 296.323 72.4876 297.948 71.4772C299.574 70.4667 301.45 69.9313 303.364 69.9316H312.5C313.704 69.9351 314.887 70.2481 315.936 70.8405C316.984 71.4329 317.862 72.2848 318.486 73.3145C319.111 74.3442 319.459 75.517 319.5 76.7204C319.54 77.9237 319.27 79.1172 318.716 80.1862L318.094 81.3049Z" fill="#4D4D4D"/>
<path d="M319.026 214.18H316.975L312.749 205.852C315.723 206.864 318.611 208.111 321.388 209.58C323.19 210.326 323.501 214.49 319.026 214.18Z" fill="#4D4D4D"/>
<path d="M298.827 186.275C294.289 181.116 288.696 176.207 290.498 168.189C295.781 171.297 298.454 178.133 305.415 178.879L299.199 186.275H298.827Z" fill="#4D4D4D"/>
<path d="M259.111 184.845C260.416 185.964 263.027 185.529 265.326 185.467L264.705 186.275H240.528C240.528 186.275 240.528 185.964 240.528 185.84C240.528 185.715 243.387 183.913 244.816 182.794C245.476 182.137 246.06 181.407 246.557 180.619L244.816 179.563L249.105 174.404C252.168 178.136 255.513 181.627 259.111 184.845V184.845Z" fill="#4D4D4D"/>
<path d="M217.035 153.46L217.843 154.578H218.9L207.526 140.595L195.593 126.301H170.048L172.907 129.843H173.218C173.218 130.216 173.591 130.651 173.715 131.086L193.355 154.827H217.159C217.164 154.368 217.122 153.91 217.035 153.46V153.46Z" fill="#4D4D4D"/>
<path d="M200.192 148.115C199.808 149.341 199.265 150.511 198.577 151.595C198.079 150.104 197.644 148.612 196.588 145.38C197.209 145.38 198.577 144.821 199.447 145.38C200.317 145.94 200.379 147.183 200.192 148.115Z" fill="#4D4D4D"/>
<path d="M234.934 172.292C228.719 168.314 230.086 175.958 227.538 177.636C223.529 180.19 219.745 183.08 216.226 186.275H204.604L207.525 182.67L221.509 165.828C221.944 166.885 222.317 167.879 222.815 168.998C224.431 167.133 225.798 166.077 225.611 165.704C225.089 164.777 224.508 163.884 223.871 163.031L227.911 158.06H253.455L234.437 181.117C231.889 178.631 229.962 175.586 234.934 172.292Z" fill="#4D4D4D"/>
<path d="M264.085 160.545C263.749 159.637 263.168 158.841 262.406 158.245C262.406 158.245 276.764 158.245 276.764 158.245H288.075L276.764 171.669L272.289 177.076C267.579 172.788 264.652 166.888 264.085 160.545Z" fill="#4D4D4D"/>
<path d="M257.061 166.201C258.118 168.625 259.236 171.049 260.169 173.472C260.666 174.84 260.852 176.269 261.225 177.636C259.796 177.636 257.869 177.636 257.061 176.828C255.321 174.902 253.705 172.789 252.089 170.613L261.598 159.24C261.598 159.986 261.598 160.732 261.971 161.478C263.028 165.766 261.039 166.636 257.061 166.201Z" fill="#4D4D4D"/>
<path d="M249.478 80.1863L248.918 81.305H222.069L224.99 75.6494C225.831 73.9283 227.14 72.4791 228.767 71.4678C230.394 70.4565 232.273 69.9241 234.188 69.9317H243.325C244.523 69.9457 245.699 70.2664 246.738 70.8631C247.778 71.4599 248.648 72.3129 249.265 73.3409C249.882 74.3688 250.225 75.5376 250.262 76.7359C250.3 77.9341 250.029 79.122 249.478 80.1863V80.1863Z" fill="#4D4D4D"/>
<path d="M209.266 126.301L207.774 130.154L227.912 154.578H253.518L229.963 126.301H209.266Z" fill="#4D4D4D"/>
<path d="M221.137 139.477C224.432 139.477 227.353 138.483 227.663 139.477C229.016 141.816 230.16 144.27 231.082 146.811C230.149 146.811 228.782 147.805 228.471 147.494C226.11 145.257 223.748 142.647 221.137 139.477Z" fill="#4D4D4D"/>
<path d="M245.624 128.973C245.003 128.165 244.444 127.171 243.822 126.301H251.342C251.28 128.849 248.608 128.911 245.624 128.973Z" fill="#4D4D4D"/>
<path d="M245.376 129.16L252.088 132.951C253.455 133.759 254.885 134.443 256.314 135.188C255.386 133.676 254.615 132.073 254.015 130.403C254.015 129.409 254.574 128.228 254.885 127.109C255.941 127.482 257.433 127.482 258.117 128.166C260.495 130.448 262.582 133.016 264.332 135.81C265.202 137.301 264.332 139.663 264.332 141.652L267.999 137.861C268.791 138.58 269.539 139.348 270.236 140.16C273.095 143.827 275.768 147.68 278.875 151.099C279.994 152.341 283.102 153.771 283.786 153.212C284.331 152.789 284.939 152.453 285.588 152.217L287.515 154.579H262.53L239.285 126.363L240.714 127.171L245.376 129.16Z" fill="#4D4D4D"/>
<path d="M264.271 119.278H237.421L254.886 84.8477H276.763H281.673L276.763 94.605L264.271 119.278Z" fill="#4D4D4D"/>
<path d="M207.526 171.669L195.592 186.15H170.732L172.285 184.534C174.47 182.401 176.259 179.897 177.568 177.139C177.568 177.139 193.355 157.935 193.355 157.935H218.216V158.37L207.526 171.669Z" fill="#4D4D4D"/>
<path d="M206.283 199.513C206.283 200.134 209.017 201.812 209.577 201.501C211.337 200.361 212.891 198.933 214.176 197.275C215.204 196.005 216.159 194.677 217.035 193.298C218.806 194.913 220.334 196.776 221.572 198.829C221.945 199.699 219.272 201.501 219.272 202.931C219.563 205.592 220.125 208.216 220.95 210.762C221.336 208.647 221.897 206.568 222.629 204.547C224.245 201.191 226.233 198.332 228.098 194.727C232.635 198.643 231.019 202.496 228.844 207.157C228.195 209.538 228.415 212.071 229.465 214.304C230.52 216.784 231.811 219.156 233.319 221.389C234.5 219.525 235.618 217.66 236.799 215.858L241.958 217.784L247.116 227.604H220.329L207.526 202.744L202.864 193.484H208.458L208.085 193.795C206.858 195.444 206.223 197.458 206.283 199.513V199.513Z" fill="#4D4D4D"/>
<path d="M288.634 212.502C294.849 216.479 299.946 221.389 305.788 225.615C306.969 226.423 308.958 226.175 310.636 226.423C309.579 225.553 308.585 224.559 307.466 223.751C300.194 218.344 303.178 211.321 304.172 205.106C304.13 204.88 304.13 204.648 304.172 204.422L316.292 227.604H289.504L277.074 202.371L272.35 193.111H276.204C276.204 193.422 276.204 193.671 276.204 193.795C281.984 199.078 281.735 207.903 288.634 212.502Z" fill="#4D4D4D"/>
<path d="M272.04 119.278L273.034 117.228C273.407 117.911 273.78 118.595 274.215 119.278H272.04Z" fill="#4D4D4D"/>
<path d="M264.767 126.301L270.423 133.137C266.709 131.568 263.364 129.24 260.603 126.301H264.767Z" fill="#4D4D4D"/>
<path d="M271.915 219.773L268.558 212.501C266.756 214.677 264.891 216.852 263.027 218.716L254.077 219.649C252.461 218.406 250.224 217.473 249.353 215.857C248.941 215.146 248.485 214.461 247.986 213.807L237.482 193.049H247.862C248.359 194.168 248.856 195.286 249.416 196.343C249.975 197.399 250.224 196.343 250.597 196.778L260.106 201.874C260.106 201.501 260.106 200.942 260.106 200.755L252.523 193.049H264.146L276.576 217.908L281.548 227.728H254.823L264.456 219.089L271.915 219.773Z" fill="#4D4D4D"/>
<path d="M233.568 201.75C233.568 201.315 233.568 200.88 233.568 200.383L239.783 213.185C238.788 213.807 237.732 214.553 236.737 215.299C235.619 210.824 234.562 206.287 233.568 201.75Z" fill="#4D4D4D"/>
<path d="M248.608 233.073L249.292 232.451C249.831 233.518 250.089 234.705 250.042 235.899C249.995 237.094 249.643 238.257 249.021 239.277C248.398 240.298 247.526 241.143 246.485 241.732C245.445 242.321 244.272 242.635 243.076 242.644H234.189C232.273 242.651 230.394 242.119 228.767 241.108C227.14 240.096 225.831 238.647 224.99 236.926L222.131 231.271H243.511H243.076C245.065 232.141 247.924 233.819 248.608 233.073Z" fill="#4D4D4D"/>
<path d="M157.741 153.336L138.35 129.905L137.853 129.222L139.655 128.414C142.638 127.171 139.655 136.742 144.876 131.397C146.042 129.901 146.85 128.157 147.238 126.301H160.973L180.24 149.917V150.85V150.415L183.659 154.578H166.194L158.176 150.85C157.99 151.72 157.866 152.528 157.741 153.336Z" fill="#4D4D4D"/>
<path d="M149.165 153.895C149.165 153.895 149.165 154.33 149.165 154.578H135.491C135.491 153.149 135.491 151.72 135.491 150.29C135.491 147.68 135.491 145.132 135.491 142.522C135.491 139.911 135.119 138.544 134.932 136.307L138.413 140.471L149.165 153.895Z" fill="#4D4D4D"/>
<path d="M145.187 215.173C146.803 218.591 152.148 221.388 149.911 225.552L144.379 214.552L145.187 215.173Z" fill="#4D4D4D"/>
<path d="M140.153 221.388L139.718 220.953C139.718 223.191 139.718 225.49 139.718 227.728H128.033C128.033 227.293 128.033 226.92 128.033 226.485C128.53 223.502 135.305 218.716 126.106 217.349C127.474 213.806 128.717 210.264 123.061 209.083C124.055 207.343 124.552 204.919 126.106 203.987C127.367 203.201 128.699 202.535 130.084 201.998L138.102 217.908L140.153 221.388Z" fill="#4D4D4D"/>
<path d="M144.13 158.06L135.491 163.156V158.06H144.13Z" fill="#4D4D4D"/>
<path d="M165.2 218.779C162.589 217.971 158.425 216.231 157.369 217.225C151.713 222.943 149.165 216.479 145.436 214.801C145.564 213.998 145.564 213.18 145.436 212.377C144.701 211.173 143.869 210.029 142.949 208.959C142.812 209.486 142.646 210.004 142.452 210.513L138.35 202.744L137.231 200.445L144.814 202.185C155.193 204.36 155.318 204.236 153.08 193.608H158.55C159.15 195.803 160.072 197.898 161.284 199.823C162.077 200.576 163.114 201.017 164.205 201.066L172.472 217.411C172.472 218.965 172.472 220.519 172.472 222.073C169.861 220.705 167.81 219.524 165.2 218.779Z" fill="#4D4D4D"/>
<path d="M140.153 180.495L145.809 186.275H135.927V185.405L138.164 182.67L140.153 180.495Z" fill="#4D4D4D"/>
<path d="M152.832 193.422C150.657 196.902 147.611 200.445 144.566 195.162C144.207 194.52 143.813 193.897 143.385 193.298H152.708L152.832 193.422Z" fill="#4D4D4D"/>
<path d="M140.588 193.298C140.265 193.925 139.975 194.568 139.718 195.224C138.871 196.582 137.749 197.746 136.424 198.643L134.311 194.479C134.311 194.044 134.311 193.671 134.311 193.298H140.526H140.588Z" fill="#4D4D4D"/>
<path d="M159.793 84.6611H166.319C165.533 86.7956 164.598 88.8723 163.522 90.876C162.543 92.6947 161.237 94.3171 159.669 95.6615C159.234 96.0344 156.872 95.6615 156.747 94.9157C156.254 92.501 155.984 90.0462 155.939 87.5821L159.793 84.6611Z" fill="#4D4D4D"/>
<path d="M177.631 197.586C178.066 200.383 180.055 203.117 180.055 205.852C180.055 208.586 180.365 211.072 177.32 211.197L168.308 193.298H178.066C177.652 194.687 177.504 196.142 177.631 197.586V197.586Z" fill="#4D4D4D"/>
<path d="M169.799 161.788C170.453 160.661 170.736 159.357 170.607 158.06H184.281L174.026 170.862C173.716 170.827 173.403 170.827 173.093 170.862C165.449 169.557 165.449 167.817 169.799 161.788Z" fill="#4D4D4D"/>
<path d="M190.371 75.5872C191.238 73.8913 192.555 72.4666 194.177 71.4691C195.8 70.4716 197.665 69.9397 199.57 69.9316H208.706C209.91 69.9351 211.093 70.2481 212.142 70.8405C213.19 71.4329 214.068 72.2848 214.692 73.3145C215.316 74.3442 215.665 75.517 215.705 76.7204C215.746 77.9238 215.476 79.1172 214.922 80.1862L214.424 81.1806H213.989H189.128C188.713 80.9688 188.317 80.7192 187.948 80.4348L190.371 75.5872Z" fill="#4D4D4D"/>
<path d="M163.895 110.764C164.225 110.793 164.558 110.793 164.889 110.764L160.476 119.464H156.312C158.389 119.119 160.282 118.062 161.665 116.475C163.048 114.887 163.837 112.868 163.895 110.764V110.764Z" fill="#4D4D4D"/>
<path d="M164.019 80.2484C156.312 79.8133 153.205 80.2484 160.477 73.4741C160.863 73.115 161.156 72.6667 161.329 72.1683C161.503 71.67 161.551 71.1368 161.471 70.6153C162.599 70.1678 163.8 69.9359 165.014 69.9316H174.026C173.866 70.5873 173.741 71.2512 173.653 71.9204C172.969 77.7624 171.54 80.6834 164.019 80.2484Z" fill="#4D4D4D"/>
<path d="M143.322 240.034C143.639 240.282 143.971 240.511 144.317 240.717C143.3 241.74 141.96 242.377 140.525 242.52C141.337 241.809 141.884 240.846 142.079 239.785C142.514 240.034 142.949 240.034 143.322 240.034Z" fill="#4D4D4D"/>
<path d="M207.525 231.332H209.638C210.113 232.215 210.675 233.048 211.316 233.818C212.566 234.791 214.085 235.355 215.667 235.434C215.683 236.353 215.517 237.267 215.179 238.122C214.84 238.977 214.336 239.756 213.694 240.415C213.053 241.073 212.287 241.598 211.442 241.96C210.596 242.321 209.687 242.511 208.768 242.519H199.57C197.657 242.512 195.784 241.974 194.16 240.964C192.535 239.955 191.224 238.513 190.371 236.801L188.134 232.451L189.128 231.208L207.525 231.332Z" fill="#4D4D4D"/>
<path d="M204.604 126.301H205.101L205.723 127.482L204.604 126.301Z" fill="#4D4D4D"/>
<path d="M161.16 167.444C161.16 168.19 159.171 170.116 157.928 170.24C156.685 170.365 154.572 168.625 154.572 167.692C154.479 166.099 154.479 164.501 154.572 162.907L158.488 158.184C159.539 161.222 160.431 164.313 161.16 167.444Z" fill="#4D4D4D"/>
<path d="M168.929 93.7976C170.115 94.4721 171.168 95.3565 172.037 96.4078L169.551 101.318C167.538 100.575 165.651 99.5271 163.957 98.2101C163.522 96.905 163.149 95.662 162.714 94.419C164.827 94.1704 167.376 93.0518 168.929 93.7976Z" fill="#4D4D4D"/>
<path d="M189.378 90.876L188.135 90.441C186.625 89.9147 185.151 89.2919 183.722 88.5765L185.711 84.6611H188.507C189.116 85.2577 189.76 85.818 190.434 86.3392L203.237 89.2601L208.272 90.441C206.86 89.2467 205.342 88.1857 203.735 87.2714L197.209 84.6611H212.498L207.526 94.4185L203.61 102.187H202.865H203.486L195.096 118.781H178.501C179.372 117.883 180.182 116.928 180.925 115.922C181.376 115.24 181.791 114.534 182.168 113.809C183.997 113.035 185.763 112.121 187.451 111.074C188.608 110.041 189.612 108.848 190.434 107.532C188.88 107.532 186.767 107.159 185.835 107.967C184.288 109.627 182.971 111.488 181.919 113.498C180.678 113.645 179.452 113.894 178.252 114.244C176.691 114.91 175.176 115.679 173.715 116.543C174.461 117.165 175.269 118.097 176.015 118.781H168.246L175.145 105.232C180.241 101.068 183.349 94.4185 189.378 90.876Z" fill="#4D4D4D"/>
<path d="M146.368 236.553L142.95 235.435C143.758 234.192 144.628 232.949 145.436 231.644L145.809 232.389C146.412 233.689 146.607 235.141 146.368 236.553Z" fill="#4D4D4D"/>
<path d="M208.582 220.021L209.638 222.134C208.754 223.88 208.387 225.842 208.582 227.79H185.71L179.495 215.919C181.421 214.552 185.71 214.428 187.637 212.75C189.563 211.072 192.857 218.965 193.852 212.75C194.287 209.705 194.846 204.111 187.947 205.23C187.077 205.23 185.337 203.925 185.088 202.992C184.467 200.631 185.088 197.71 183.97 195.721C183.308 194.753 182.437 193.946 181.421 193.359H194.97L205.101 212.75C205.101 212.75 205.101 213.371 204.666 213.744C203.05 218.778 202.988 219.275 208.582 220.021Z" fill="#4D4D4D"/>
<path d="M155.753 236.926L152.894 231.271H179.743L180.303 232.389C180.888 233.65 181.124 235.045 180.986 236.429C177.742 238.819 173.964 240.385 169.98 240.992C165.995 241.598 161.923 241.226 158.114 239.909C157.162 239.058 156.363 238.049 155.753 236.926V236.926Z" fill="#4D4D4D"/>
<path d="M151.153 227.604V227.169C153.826 227.169 156.809 227.666 157.369 223.44C157.369 222.819 160.849 221.7 162.03 222.259C163.966 223.65 166.314 224.345 168.695 224.232C171.076 224.12 173.349 223.205 175.144 221.638L178.189 227.853L151.153 227.604Z" fill="#4D4D4D"/>
<path d="M202.864 119.278H207.588H229.652L247.116 84.8477H220.267L207.588 110.018L202.864 119.278Z" fill="#4D4D4D"/>
<path d="M229.963 95.7858L231.019 94.1699C232.327 94.3176 233.594 94.7186 234.749 95.3508C236.332 96.9266 237.807 98.6085 239.161 100.385C237.052 100.124 234.971 99.6659 232.946 99.0175C231.703 98.4582 230.957 97.0909 229.963 95.7858Z" fill="#4D4D4D"/>
<path d="M175.145 242.519L177.009 241.96C176.434 242.276 175.798 242.466 175.145 242.519V242.519Z" fill="#4D4D4D"/>
<path d="M104.726 75.1523C106.457 74.024 108.371 73.2039 110.382 72.7285C111.209 73.7703 111.715 75.0308 111.836 76.3555C111.957 77.6802 111.69 79.0116 111.066 80.1864L110.506 81.305H102.8C102.266 80.2288 102.168 78.9882 102.527 77.8419C102.886 76.6955 103.674 75.732 104.726 75.1523V75.1523Z" fill="#4D4D4D"/>
<path d="M96.0249 76.2708C94.6302 76.8652 93.0764 76.9747 91.6121 76.5816C90.6799 76.5816 89.3747 74.0956 89.6854 73.6606C90.1824 72.8659 90.6187 72.0349 90.9906 71.1746C92.4872 70.387 94.1476 69.9612 95.8385 69.9316H100.376C99.2249 70.5986 98.2374 71.5137 97.4848 72.6103C96.7322 73.7068 96.2335 74.9573 96.0249 76.2708V76.2708Z" fill="#4D4D4D"/>
<path d="M136.735 113.374L138.475 113.685L147.86 108.029L148.606 101.814L156.748 104.238C155.461 105.762 154.092 107.215 152.646 108.589C151.602 109.303 150.475 109.887 149.29 110.329C146.058 112.193 143.074 114.12 139.718 116.047C139.407 116.792 139.283 118.035 138.724 118.284L135.616 119.527H133.814L136.735 113.374Z" fill="#4D4D4D"/>
<path d="M135.119 75.2148C130.271 76.6443 124.988 76.6443 120.202 78.0737C119.891 78.0737 121.197 75.5877 121.197 75.5877C122.073 73.8731 123.409 72.4359 125.055 71.4371C126.702 70.4384 128.594 69.9173 130.519 69.9322H139.656C140.652 69.9194 141.638 70.1305 142.542 70.55C143.446 70.9696 144.243 71.5868 144.876 72.356C141.68 73.4925 138.423 74.4469 135.119 75.2148V75.2148Z" fill="#4D4D4D"/>
<path d="M105.659 84.6611H108.828L107.834 86.712L107.275 86.2149L105.659 84.6611Z" fill="#4D4D4D"/>
<path d="M132.136 169.059C132.136 168.624 134.187 168.251 134.249 168.313C135.119 170.116 135.927 171.918 136.735 173.72L133.255 177.947C132.342 176.676 131.762 175.197 131.566 173.645C131.371 172.093 131.567 170.516 132.136 169.059V169.059Z" fill="#4D4D4D"/>
<path d="M94.5952 242.519C95.4266 240.402 95.4266 238.049 94.5952 235.932C94.2223 234.689 95.8382 232.886 96.7705 231.271H97.2677C98.2768 232.888 99.0904 234.62 99.6916 236.429C100.063 238.484 100.312 240.559 100.437 242.644H95.5896L94.5952 242.519Z" fill="#4D4D4D"/>
<path d="M97.144 176.083L101.805 174.156L98.8843 177.699L97.144 176.083Z" fill="#4D4D4D"/>
<path d="M119.207 147.991C119.207 147.991 119.207 148.551 119.207 148.861L118.71 148.302L119.207 147.991Z" fill="#4D4D4D"/>
<path d="M134.746 101.752L109.885 114.181L99.4434 119.153L105.037 108.153C108.02 105.543 111.252 102.995 114.298 100.571C116.64 98.8734 119.488 98.0191 122.377 98.147C124.612 98.6806 126.958 98.493 129.08 97.611C131.201 96.729 132.989 95.1979 134.186 93.2372C134.746 92.305 137.729 91.9321 139.842 92.305L138.661 94.6045L134.746 101.752Z" fill="#4D4D4D"/>
<path d="M110.755 216.355C111.262 214.909 112.249 213.681 113.551 212.874C116.1 211.631 120.699 219.089 119.767 222.88C119.489 224.537 119.115 226.176 118.648 227.79H116.286L110.755 216.355Z" fill="#4D4D4D"/>
<path d="M111.065 232.389C111.206 232.642 111.311 232.914 111.376 233.197H109.947C108.144 232.886 107.212 232.327 106.901 231.581H110.568L111.065 232.389Z" fill="#4D4D4D"/>
<path d="M107.709 227.603L108.269 226.671L108.766 227.603H107.709Z" fill="#4D4D4D"/>
<path d="M138.351 231.333H139.159C138.723 233.26 136.113 234.378 135.056 236.056C134.402 237.532 134.003 239.108 133.876 240.717C135.243 240.717 136.797 242.085 138.226 242.644H130.519C128.633 242.657 126.781 242.141 125.174 241.153C125.982 237.859 126.728 234.938 127.412 231.333H138.351Z" fill="#4D4D4D"/>
<path d="M118.959 195.908C118.026 195.235 117.278 194.337 116.784 193.298H125.858L126.728 194.976C125.581 195.693 124.291 196.148 122.948 196.309C121.605 196.47 120.243 196.333 118.959 195.908V195.908Z" fill="#4D4D4D"/>
<path d="M104.291 182.048L106.591 179.313C106.591 179.873 106.591 180.37 106.591 180.929C106.591 181.489 105.037 182.11 104.291 182.048Z" fill="#4D4D4D"/>
<path d="M85.4587 126.301H91.6739C90.2444 127.482 88.8771 128.6 87.5719 128.476C86.2667 128.352 86.3289 127.668 85.4587 126.301Z" fill="#4D4D4D"/>
<path d="M113.924 180.93C112.992 179.749 111.998 178.506 110.382 176.331L118.089 172.354C118.586 173.348 119.829 174.902 119.518 175.275C117.763 177.265 115.896 179.153 113.924 180.93V180.93Z" fill="#4D4D4D"/>
<path d="M64.5139 193.298H75.5148C77.7383 195.212 79.8158 197.289 81.73 199.513C82.3714 200.994 82.7024 202.591 82.7024 204.205C82.7024 205.819 82.3714 207.416 81.73 208.897C78.9953 209.519 76.1985 209.954 73.4017 210.327L69.1753 202.744L64.5139 193.298Z" fill="#4D4D4D"/>
<path d="M61.2197 242.644C59.3056 242.644 57.4296 242.109 55.804 241.099C54.1784 240.088 52.868 238.643 52.0212 236.926L51.3997 235.746C51.7695 234.218 52.3117 232.738 53.0156 231.333H66.3161C66.4983 234.46 65.5497 237.548 63.6436 240.034C62.815 240.849 61.873 241.539 60.8468 242.085C62.2763 242.085 63.7058 242.085 65.1974 242.085L69.4237 242.396L61.2197 242.644Z" fill="#4D4D4D"/>
<path d="M52.829 203.552C52.3318 207.219 52.829 211.445 46.6138 210.451C47.3823 206.734 48.4209 203.078 49.7214 199.513C50.405 197.835 52.8911 196.902 54.5692 195.597L57.0553 193.608L66.0052 211.321C64.4514 211.321 62.8976 211.321 61.3438 211.321C58.1119 211.321 53.6991 210.078 58.174 205.106C58.4848 204.795 56.9932 202.558 55.9366 201.688C54.88 200.818 52.8911 202.744 52.829 203.552Z" fill="#4D4D4D"/>
<path d="M0 70.6774V69.9316H1.18089H2.23747C1.93685 70.2046 1.58261 70.412 1.19735 70.5404C0.812101 70.6688 0.404306 70.7155 0 70.6774H0Z" fill="#4D4D4D"/>
<path d="M53.699 225.242C51.5858 223.005 45.9921 219.027 50.9021 215.423C57.1173 211.01 56.1851 220.27 60.0385 221.202C60.7843 221.202 61.2815 222.383 61.8409 223.005C63.2912 224.367 64.472 225.991 65.3214 227.79H55.1285C55.1285 227.107 54.7556 226.361 53.699 225.242Z" fill="#4D4D4D"/>
<path d="M31.6352 225.366C32.6489 226.125 33.6239 226.934 34.5564 227.79H30.0193C30.5787 226.982 31.0759 226.174 31.6352 225.366Z" fill="#4D4D4D"/>
<path d="M39.7149 176.766C46.4895 176.766 44.0656 182.981 45.4951 186.275H37.7882C37.302 183.959 37.302 181.568 37.7882 179.252L40.0257 176.518L39.7149 176.766Z" fill="#4D4D4D"/>
<path d="M39.5288 165.455V166.077L35.551 170.924C36.0256 169.272 36.6069 167.653 37.2913 166.077C37.2913 165.455 38.7208 165.455 39.5288 165.455Z" fill="#4D4D4D"/>
<path d="M28.2174 231.271H36.1728C37.043 234.129 37.6023 237.05 38.4103 239.909C38.4103 240.469 38.7832 241.152 38.9697 241.836C37.9745 242.365 36.8649 242.642 35.7378 242.644H31.0764C29.8464 241.045 28.9579 239.21 28.4661 237.254C27.9743 235.298 27.8897 233.261 28.2174 231.271V231.271Z" fill="#4D4D4D"/>
<path d="M67.1863 185.156C67.2165 185.341 67.2165 185.53 67.1863 185.716L67.8078 186.275H66.3162L67.1863 185.156Z" fill="#4D4D4D"/>
<path d="M1.18089 242.644H0V231.333H4.5371L8.01761 236.305C7.87769 238.025 7.09794 239.631 5.83226 240.804C4.56658 241.978 2.90694 242.634 1.18089 242.644V242.644Z" fill="#4D4D4D"/>
<path d="M68.6781 140.596C66.7514 140.036 65.2597 138.11 62.1521 135.686L64.2031 134.878L68.8645 140.596H68.6781Z" fill="#4D4D4D"/>
<path d="M0 227.604V224.372L2.17532 227.604H0Z" fill="#4D4D4D"/>
<path d="M65.1352 163.777C63.4983 162.73 61.7466 161.875 59.9144 161.228C57.8496 160.989 55.764 160.989 53.6992 161.228C54.5072 160.234 55.253 158.991 55.9988 157.935H74.5823C75.8875 158.68 76.509 162.036 76.4469 163.155L75.9496 163.777C72.3448 165.455 68.6779 168.811 65.1352 163.777Z" fill="#4D4D4D"/>
<path d="M56.4338 182.421C57.39 182.275 58.2839 181.857 59.0086 181.216C59.7334 180.576 60.2582 179.74 60.5205 178.809C60.7827 177.878 60.7712 176.892 60.4874 175.967C60.2035 175.043 59.6593 174.219 58.9199 173.596C55.5637 169.556 52.0832 172.291 48.8513 174.528C48.0724 174.878 47.2124 175.007 46.3652 174.901C45.1797 174.859 43.9972 174.755 42.8225 174.59C42.8225 173.844 43.1333 172.974 43.3197 172.166L46.2409 168.686C50.778 165.889 55.9366 167.754 61.0952 168.686C62.6148 168.791 64.043 169.45 65.1085 170.539C66.1741 171.627 66.8028 173.069 66.8753 174.59L57.9876 185.342C57.3661 184.534 56.9932 183.291 56.4338 182.421Z" fill="#4D4D4D"/>
</g>
</svg>
